<svg width="430" height="229" viewBox="0 0 430 229" fill="none" xmlns="http://www.w3.org/2000/svg">
<rect width="430" height="229" fill="#1E1F21"/>
<path d="M273.563 136.402C280.33 138.922 285.383 125.907 279.586 124.149C272.827 122.099 268.159 134.388 273.563 136.402Z" fill="#FF5D5D" stroke="#1E1F21" stroke-width="1.3" stroke-miterlimit="10" stroke-linecap="round" stroke-linejoin="round"/>
<path d="M289.433 114.314C292.51 110.082 293.676 106.051 294.166 103.598C295.269 102.633 297.623 100.49 298.501 97.066C300.09 90.8737 298.332 88.743 296.515 88.0306C294.184 87.1142 289.481 88.7721 288.329 93.7543C286.28 95.9704 284.14 97.4409 281.757 102.077C277.799 109.778 275.088 121.108 280.105 121.798C283.228 122.227 286.958 117.719 289.435 114.314H289.433Z" fill="#FF5D5D" stroke="#1E1F21" stroke-width="1.3" stroke-miterlimit="10" stroke-linecap="round" stroke-linejoin="round"/>
<path d="M196.187 136.508C200.853 138.218 204.281 129.243 200.284 128.053C195.626 126.668 192.459 135.141 196.187 136.508Z" fill="#FF5D5D" stroke="#1E1F21" stroke-width="1.3" stroke-miterlimit="10" stroke-linecap="round" stroke-linejoin="round"/>
<path d="M206.741 122.567C203.234 136.67 213.381 137.142 217.135 134.793C223.062 131.086 223.509 123.173 222.564 123.173C221.003 123.173 214.248 136.036 225.464 136.676C236.683 137.315 238.596 123.3 237.44 123.3C235.868 123.3 227.261 138.128 241.514 136.605C254.983 135.168 252.565 112.717 252.565 112.717C259.674 104.482 256.961 95.4899 250.886 95.4899C240.618 95.4899 232.624 108.995 234.589 109.068C237.866 109.191 239.921 94.938 231.961 94.938C222.445 94.938 209.173 112.79 206.739 122.565L206.741 122.567Z" fill="#FF5D5D" stroke="#1E1F21" stroke-width="1.3" stroke-miterlimit="10" stroke-linecap="round" stroke-linejoin="round"/>
<path d="M175.061 89.4393C174.455 87.973 172.866 85.6611 169.927 83.9281C168.28 82.9555 164.753 81.485 159.617 82.1806C155.561 82.7305 152.572 84.2822 150.594 85.6465C150.492 84.755 149.731 82.6805 147.724 82.6805C144.273 82.6805 140.388 87.6168 137.476 93.0426C131.115 104.902 130.739 117.081 131.092 122.019C131.849 132.567 136.59 136.724 139.77 136.724C144.651 136.724 146.405 131.596 146.95 128.034C147.394 125.141 147.297 121.321 146.656 118.67C148.832 118.895 153.059 119.026 156.997 117.891C162.825 116.21 166.54 112.817 168.215 111.067C175.015 104.519 177.768 95.9898 175.063 89.4393H175.061ZM156.565 101.137C153.761 103.421 151.079 104.777 150.575 104.165C150.072 103.553 151.936 101.201 154.74 98.9162C157.543 96.6314 160.225 95.2754 160.729 95.8878C161.233 96.5001 159.368 98.8517 156.565 101.137Z" fill="#FF5D5D" stroke="#1E1F21" stroke-width="1.3" stroke-miterlimit="10" stroke-linecap="round" stroke-linejoin="round"/>
<path d="M146.655 118.67C146.655 118.67 145.7 113.955 143.668 110.672L146.655 118.67Z" fill="#FF5D5D"/>
<path d="M146.655 118.67C146.655 118.67 145.7 113.955 143.668 110.672" stroke="#1E1F21" stroke-width="1.3" stroke-miterlimit="10" stroke-linecap="round" stroke-linejoin="round"/>
<path d="M260.514 119.726C260.514 120.942 272.785 115.56 268.29 110.847C265.01 107.408 255.68 109.826 253.264 113.782C253.264 113.782 247.741 113.609 247.404 118.351C247.168 121.69 252.206 122.25 252.361 122.244C247.406 123.163 244.979 127.368 244.632 129.949C243.83 135.943 250.155 136.482 253.262 134.935C253.262 134.935 263.603 139.859 267.933 133.387C271.729 127.712 265.466 126.091 262.41 126.853C260.338 127.37 258.613 128.057 259.475 128.745C260.618 129.657 269.287 127.26 269.287 121.251C269.287 115.242 260.511 117.949 260.511 119.728L260.514 119.726Z" fill="#FF5D5D" stroke="#1E1F21" stroke-width="1.3" stroke-miterlimit="10" stroke-linecap="round" stroke-linejoin="round"/>
<path d="M183.329 88.8731C176.545 86.3966 171.578 99.4435 177.386 101.164C184.157 103.17 188.745 90.8518 183.329 88.8731Z" fill="#FF5D5D" stroke="#1E1F21" stroke-width="1.3" stroke-miterlimit="10" stroke-linecap="round" stroke-linejoin="round"/>
<path d="M167.607 111.064C164.557 115.317 163.418 119.353 162.943 121.811C161.846 122.784 159.506 124.942 158.649 128.37C157.1 134.573 158.873 136.691 160.694 137.393C163.029 138.293 167.722 136.606 168.845 131.615C170.881 129.384 173.009 127.901 175.363 123.248C179.27 115.523 181.908 104.176 176.887 103.518C173.761 103.109 170.061 107.64 167.607 111.062V111.064Z" fill="#FF5D5D" stroke="#1E1F21" stroke-width="1.3" stroke-miterlimit="10" stroke-linecap="round" stroke-linejoin="round"/>
<path d="M184.396 121.077C186.295 118.038 189.397 117.343 190.07 117.599C191.97 121.061 194.631 120.107 195.708 118.955C197.56 116.974 198.982 111.684 195.867 109.253C193.268 107.227 189.23 105.771 184.359 108.497C173.53 114.556 170.018 132.47 179.007 135.911C189.813 140.046 195.062 127.165 192.706 124.204C191.767 123.023 188.885 122.633 187.317 124.591C184.944 128.526 182.427 124.227 184.396 121.075V121.077Z" fill="#FF5D5D" stroke="#1E1F21" stroke-width="1.3" stroke-miterlimit="10" stroke-linecap="round" stroke-linejoin="round"/>
</svg>
