<svg width="430" height="229" viewBox="0 0 430 229" fill="none" xmlns="http://www.w3.org/2000/svg">
<rect width="430" height="229" fill="#1E1F21"/>
<path d="M273.563 122.552C280.33 125.072 285.383 112.056 279.586 110.298C272.827 108.249 268.159 120.537 273.563 122.552Z" fill="#FF5D5D" stroke="#1E1F21" stroke-width="1.3" stroke-miterlimit="10" stroke-linecap="round" stroke-linejoin="round"/>
<path d="M289.432 100.463C292.509 96.2312 293.675 92.2009 294.165 89.7473C295.268 88.7829 297.622 86.6397 298.5 83.2155C300.089 77.0233 298.331 74.8925 296.514 74.1802C294.183 73.2637 289.48 74.9217 288.328 79.9038C286.279 82.1199 284.139 83.5904 281.756 88.2268C277.798 95.9271 275.087 107.258 280.104 107.947C283.227 108.376 286.957 103.869 289.434 100.463H289.432Z" fill="#FF5D5D" stroke="#1E1F21" stroke-width="1.3" stroke-miterlimit="10" stroke-linecap="round" stroke-linejoin="round"/>
<path d="M196.187 122.657C200.853 124.367 204.281 115.392 200.284 114.203C195.626 112.818 192.459 121.291 196.187 122.657Z" fill="#FF5D5D" stroke="#1E1F21" stroke-width="1.3" stroke-miterlimit="10" stroke-linecap="round" stroke-linejoin="round"/>
<path d="M206.742 108.717C203.235 122.819 213.382 123.292 217.136 120.943C223.063 117.235 223.51 109.323 222.565 109.323C221.004 109.323 214.249 122.186 225.465 122.826C236.684 123.465 238.597 109.45 237.441 109.45C235.869 109.45 227.262 124.277 241.515 122.755C254.984 121.318 252.566 98.8668 252.566 98.8668C259.675 90.6313 256.962 81.6397 250.887 81.6397C240.618 81.6397 232.625 95.1448 234.59 95.2177C237.867 95.3406 239.922 81.0878 231.962 81.0878C222.446 81.0878 209.174 98.9397 206.74 108.714L206.742 108.717Z" fill="#FF5D5D" stroke="#1E1F21" stroke-width="1.3" stroke-miterlimit="10" stroke-linecap="round" stroke-linejoin="round"/>
<path d="M175.061 75.589C174.455 74.1227 172.866 71.8107 169.927 70.0778C168.28 69.1051 164.753 67.6346 159.617 68.3303C155.561 68.8802 152.572 70.4319 150.594 71.7961C150.492 70.9047 149.731 68.8302 147.724 68.8302C144.273 68.8302 140.388 73.7665 137.476 79.1923C131.115 91.0519 130.739 103.23 131.092 108.169C131.849 118.716 136.59 122.873 139.77 122.873C144.651 122.873 146.405 117.746 146.95 114.184C147.394 111.291 147.297 107.471 146.656 104.819C148.832 105.044 153.059 105.176 156.997 104.041C162.825 102.36 166.54 98.9667 168.215 97.2171C175.015 90.6687 177.768 82.1395 175.063 75.589H175.061ZM156.565 87.2862C153.761 89.5711 151.079 90.927 150.575 90.3146C150.072 89.7023 151.936 87.3508 154.74 85.0659C157.543 82.781 160.225 81.4251 160.729 82.0374C161.233 82.6498 159.368 85.0013 156.565 87.2862V87.2862Z" fill="#FF5D5D" stroke="#1E1F21" stroke-width="1.3" stroke-miterlimit="10" stroke-linecap="round" stroke-linejoin="round"/>
<path d="M146.655 104.82C146.655 104.82 145.7 100.104 143.668 96.8219Z" fill="#FF5D5D"/>
<path d="M146.655 104.82C146.655 104.82 145.7 100.104 143.668 96.8219" stroke="#1E1F21" stroke-width="1.3" stroke-miterlimit="10" stroke-linecap="round" stroke-linejoin="round"/>
<path d="M260.514 105.876C260.514 107.092 272.785 101.71 268.29 96.9966C265.01 93.5578 255.68 95.976 253.264 99.9313C253.264 99.9313 247.741 99.7584 247.404 104.501C247.168 107.84 252.206 108.4 252.361 108.394C247.406 109.312 244.979 113.518 244.632 116.098C243.83 122.093 250.155 122.632 253.262 121.085C253.262 121.085 263.603 126.008 267.933 119.537C271.729 113.861 265.466 112.241 262.41 113.003C260.338 113.52 258.613 114.207 259.475 114.894C260.618 115.807 269.287 113.409 269.287 107.4C269.287 101.391 260.511 104.099 260.511 105.878L260.514 105.876Z" fill="#FF5D5D" stroke="#1E1F21" stroke-width="1.3" stroke-miterlimit="10" stroke-linecap="round" stroke-linejoin="round"/>
<path d="M183.33 75.0228C176.546 72.5463 171.579 85.5931 177.387 87.3136C184.158 89.3193 188.746 77.0015 183.33 75.0228Z" fill="#FF5D5D" stroke="#1E1F21" stroke-width="1.3" stroke-miterlimit="10" stroke-linecap="round" stroke-linejoin="round"/>
<path d="M167.607 97.2135C164.557 101.467 163.418 105.503 162.943 107.961C161.846 108.934 159.506 111.091 158.649 114.52C157.1 120.722 158.873 122.841 160.694 123.543C163.029 124.442 167.722 122.755 168.845 117.765C170.881 115.534 173.009 114.051 175.363 109.398C179.27 101.673 181.908 90.3255 176.887 89.6674C173.761 89.2591 170.061 93.7893 167.607 97.2114V97.2135Z" fill="#FF5D5D" stroke="#1E1F21" stroke-width="1.3" stroke-miterlimit="10" stroke-linecap="round" stroke-linejoin="round"/>
<path d="M184.396 107.227C186.294 104.188 189.396 103.492 190.069 103.749C191.969 107.21 194.63 106.256 195.707 105.104C197.559 103.124 198.981 97.8333 195.866 95.4026C193.267 93.376 189.229 91.9201 184.358 94.6466C173.529 100.706 170.017 118.62 179.006 122.061C189.812 126.195 195.061 113.315 192.705 110.353C191.767 109.172 188.884 108.783 187.316 110.741C184.943 114.675 182.426 110.376 184.396 107.225V107.227Z" fill="#FF5D5D" stroke="#1E1F21" stroke-width="1.3" stroke-miterlimit="10" stroke-linecap="round" stroke-linejoin="round"/>
</svg>
