<svg width="3670" height="3669" viewBox="0 0 3670 3669" fill="none" xmlns="http://www.w3.org/2000/svg">
<rect width="3668.45" height="3668.45" transform="translate(0.679688 0.251953)" fill="#1E1F21"/>
<path d="M2307.82 2845.13C2601.97 2955.43 2821.61 2385.79 2569.62 2308.85C2275.84 2219.15 2072.92 2756.98 2307.82 2845.13Z" fill="#FF5E67" stroke="white" stroke-width="12.2227" stroke-miterlimit="10"/>
<path d="M2996.4 1898.45L2989.2 1908.19H2989.26C2936.8 1978.54 2872.55 2058.05 2805.27 2118.84C2770.06 2150.64 2734.21 2177.15 2698.96 2194.56C2663.71 2211.98 2629.41 2220.12 2597.1 2215.75C2571.09 2212.23 2550.32 2201.99 2534.01 2186.24C2517.64 2170.44 2505.49 2148.82 2497.25 2122.19C2480.73 2068.8 2480.26 1996.3 2492.05 1913.73C2515.61 1748.75 2587.73 1546.15 2673.41 1382.11C2753.39 1229.02 2826.72 1157.52 2897.42 1088.57C2917.75 1068.76 2937.85 1049.15 2957.84 1027.88L2958.96 1026.68L2959.34 1025.09C2983.93 920.438 3046.34 850.886 3114.92 812.245C3183.78 773.449 3258.2 766.115 3306.65 784.856L3306.66 784.858C3344.64 799.512 3381.98 828.643 3401.64 886.344C3421.42 944.376 3423.52 1031.92 3389.18 1163.64L3389.18 1163.64C3351.56 1308 3250.64 1398.52 3202.84 1439.61L3201.25 1440.97L3200.84 1443.03C3179.72 1547.26 3129.34 1718.54 2996.4 1898.45Z" fill="#FF5E67" stroke="white" stroke-width="12.2227" stroke-miterlimit="10"/>
<path d="M2151.69 1906.07L2151.69 1906.07C2212.38 1925.5 2263.99 1883.93 2287.45 1836.47C2299.26 1812.58 2304.54 1786.22 2300.15 1763.74C2295.67 1740.86 2281.12 1722.25 2254.42 1715.31L2254.42 1715.31C2194.07 1699.64 2144.23 1739.95 2121.51 1786.19C2110.09 1809.43 2105.03 1835 2109.07 1857.05C2113.17 1879.43 2126.71 1898.07 2151.69 1906.07Z" fill="#FF5E67" stroke="white" stroke-width="12.2227" stroke-miterlimit="10" stroke-linecap="round"/>
<path d="M596.643 2609.95C511.919 2951.82 757.003 2963.28 847.686 2906.33C990.828 2816.45 1001.63 2624.64 978.811 2624.64C941.094 2624.64 777.957 2936.47 1048.84 2951.97C1319.83 2967.47 1366.03 2627.72 1338.11 2627.72C1300.14 2627.72 1092.26 2987.17 1436.51 2950.26C1761.83 2915.42 1703.41 2371.17 1703.41 2371.17C1875.13 2171.53 1809.59 1953.56 1662.87 1953.56C1414.85 1953.56 1221.78 2280.94 1269.24 2282.71C1348.41 2285.69 1398.04 1940.18 1205.77 1940.18C975.933 1940.18 655.365 2372.94 596.593 2609.89L596.643 2609.95Z" fill="#FF5E67" stroke="white" stroke-width="12.2227" stroke-miterlimit="10" stroke-linecap="round"/>
<path d="M1581.18 886.292C1567.13 852.168 1530.29 798.364 1462.14 758.036C1423.94 735.4 1342.17 701.179 1223.08 717.368C1129.04 730.165 1059.73 766.276 1013.87 798.025C1011.5 777.279 993.853 729.001 947.32 729.001C867.293 729.001 777.233 843.879 709.712 970.148C562.212 1246.15 553.487 1529.56 561.679 1644.49C579.226 1889.95 689.16 1986.7 762.885 1986.7C876.067 1986.7 916.734 1867.36 929.385 1784.47C939.661 1717.15 937.432 1628.25 922.551 1566.54C973.01 1571.78 1071.02 1574.83 1162.34 1548.42C1297.48 1509.3 1383.61 1430.34 1422.44 1389.62C1580.12 1237.23 1643.96 1038.74 1581.23 886.292H1581.18ZM1152.31 1158.51C1087.31 1211.68 1025.12 1243.24 1013.44 1228.99C1001.75 1214.74 1044.99 1160.01 1109.99 1106.84C1174.99 1053.66 1237.18 1022.11 1248.86 1036.36C1260.54 1050.61 1217.31 1105.34 1152.31 1158.51Z" fill="#FF5E67" stroke="white" stroke-width="12.2227" stroke-miterlimit="10" stroke-linecap="round"/>
<path d="M931.334 1608.17C931.334 1608.17 909.183 1498.43 862.068 1422.04L931.334 1608.17Z" fill="#FF5E67"/>
<path d="M931.334 1608.17C931.334 1608.17 909.183 1498.43 862.068 1422.04" stroke="white" stroke-width="12.2227" stroke-miterlimit="10" stroke-linecap="round"/>
<path d="M1895.31 2543.64C1895.31 2572.08 2191.69 2442.65 2083.13 2328.39C2003.91 2245.03 1778.57 2303.65 1720.2 2399.53C1720.2 2399.53 1586.8 2395.34 1578.68 2510.31C1572.97 2591.25 1694.65 2604.83 1698.39 2604.68C1582.34 2618.5 1520.11 2728.89 1511.72 2791.45C1492.34 2936.76 1645.12 2949.84 1720.15 2912.32C1720.15 2912.32 1969.93 3031.68 2074.5 2874.81C2166.19 2737.22 2014.92 2697.94 1941.1 2716.42C1891.06 2728.94 1874.5 2723.93 1895.31 2740.59C1922.92 2762.7 2107.22 2726.26 2107.22 2580.6C2107.22 2434.93 1887.56 2557.46 1895.26 2543.69L1895.31 2543.64Z" fill="#FF5E67" stroke="white" stroke-width="12.2227" stroke-miterlimit="10" stroke-linecap="round" stroke-linejoin="round"/>
<path d="M1832.29 714.979L1832.29 714.979C1789.18 699.186 1748.92 708.246 1715.47 731.029C1682.19 753.695 1655.56 789.946 1638.75 829.13C1621.95 868.289 1614.66 911.07 1620.83 947.105C1627.03 983.377 1647.07 1013.28 1684.89 1024.52C1727.84 1037.29 1767.34 1027.18 1799.96 1004.38C1832.44 981.678 1858.18 946.398 1874.42 908.31C1890.65 870.243 1897.65 828.761 1891.98 793.377C1886.27 757.825 1867.59 727.924 1832.29 714.979Z" fill="#FF5E67" stroke="white" stroke-width="12.2227" stroke-miterlimit="10" stroke-linecap="round"/>
<path d="M1405.06 1287.99C1320.17 1386.77 1288.46 1480.52 1275.26 1537.6C1244.71 1560.19 1179.61 1610.3 1155.76 1689.93C1112.64 1833.98 1161.98 1883.18 1212.66 1899.48C1277.64 1920.38 1408.26 1881.19 1439.5 1765.29C1496.17 1713.48 1555.39 1679.04 1620.9 1570.97C1729.64 1391.56 1803.07 1128.02 1663.32 1112.73C1576.34 1103.25 1473.36 1208.46 1405.06 1287.94V1287.99Z" fill="#FF5E67" stroke="white" stroke-width="12.2227" stroke-miterlimit="10" stroke-linecap="round"/>
<path d="M1874.1 1527.4C1925.63 1454.09 2009.84 1437.31 2028.11 1443.49C2079.69 1526.99 2151.93 1503.98 2181.15 1476.2C2231.43 1428.41 2270.02 1300.79 2185.47 1242.15C2114.93 1193.26 2005.3 1158.14 1873.08 1223.91C1579.14 1370.08 1483.8 1802.24 1727.81 1885.25C2021.13 1984.99 2163.62 1674.27 2099.67 1602.82C2074.19 1574.33 1995.94 1564.93 1953.38 1612.16C1888.97 1707.08 1820.65 1603.37 1874.1 1527.35V1527.4Z" fill="#FF5E67" stroke="white" stroke-width="12.2227" stroke-miterlimit="10" stroke-linecap="round" stroke-linejoin="round"/>
</svg>
