<svg width="170" height="48" viewBox="0 0 170 48" fill="none" xmlns="http://www.w3.org/2000/svg">
<rect width="170" height="48" rx="24" fill="#FF5D5D"/>
<path d="M25 43C35.4934 43 44 34.4934 44 24C44 13.5066 35.4934 5 25 5C14.5066 5 6 13.5066 6 24C6 34.4934 14.5066 43 25 43Z" fill="#3973CB" stroke="#FF5D5D" stroke-width="0.541667" stroke-miterlimit="10"/>
<path d="M18.9594 23.0136C22.7271 21.0663 27.3483 21.1075 27.5508 21.4124C29.2422 22.2035 29.8943 22.2625 30.6098 21.8942C31.8649 21.2466 31.6646 19.7733 30.8701 18.9654C29.6906 17.7659 26.6495 16.4017 21.3518 17.3854C15.126 18.5415 9.60572 23.5088 12.3175 27.6025C15.5767 32.523 18.0147 32.7022 19.1953 30.4856C19.5536 29.8135 19.0974 28.0765 17.0511 27.9497C15.0637 25.6864 17.2736 23.8871 18.9594 23.0147V23.0136Z" fill="#FF5D5D" stroke="white" stroke-width="0.335648" stroke-miterlimit="10"/>
<path d="M17.1249 22.5489C18.5403 21.9591 19.7932 22.4843 19.9634 22.7403C19.7632 24.4194 20.926 24.7465 21.5881 24.6108C22.7253 24.3782 24.5357 22.8838 24.0561 21.2636C23.6566 19.9128 22.6129 18.4028 20.2416 18.1469C14.9673 17.5783 9.29007 22.9617 11.5612 26.3912" fill="#FF5D5D"/>
<path d="M17.1249 22.5489C18.5403 21.9591 19.7932 22.4843 19.9634 22.7403C19.7632 24.4194 20.926 24.7465 21.5881 24.6108C22.7253 24.3782 24.5357 22.8838 24.0561 21.2636C23.6566 19.9128 22.6129 18.4028 20.2416 18.1469C14.9673 17.5783 9.29007 22.9617 11.5612 26.3912" stroke="white" stroke-width="0.335648" stroke-miterlimit="10"/>
<path d="M15.9271 21.7453C17.1956 20.8818 18.5287 21.1455 18.7457 21.3625C18.887 23.0483 20.0921 23.134 20.713 22.868C21.7801 22.4107 23.2534 20.5836 22.4578 19.0925C21.7946 17.8496 20.4693 16.5811 18.0947 16.8069C12.8148 17.311 8.336 23.7271 11.2503 26.6302" fill="#FF5D5D"/>
<path d="M15.9271 21.7453C17.1956 20.8818 18.5287 21.1455 18.7457 21.3625C18.887 23.0483 20.0921 23.134 20.713 22.868C21.7801 22.4107 23.2534 20.5836 22.4578 19.0925C21.7946 17.8496 20.4693 16.5811 18.0947 16.8069C12.8148 17.311 8.336 23.7271 11.2503 26.6302" stroke="white" stroke-width="0.335648" stroke-miterlimit="10"/>
<path d="M14.6615 20.8424C15.93 19.979 17.2631 20.2427 17.48 20.4597C17.6214 22.1455 18.8264 22.2311 19.4474 21.9652C20.5145 21.5079 21.9877 19.6807 21.1921 18.1897C20.5289 16.9467 19.2037 15.6782 16.8291 15.9041C11.5491 16.4082 7.07038 22.8242 9.98464 25.7274C9.98464 25.7274 10.5855 26.3483 12.0933 27.2295" fill="#FF5D5D"/>
<path d="M14.6615 20.8424C15.93 19.979 17.2631 20.2427 17.48 20.4597C17.6214 22.1455 18.8264 22.2311 19.4474 21.9652C20.5145 21.5079 21.9877 19.6807 21.1921 18.1897C20.5289 16.9467 19.2037 15.6782 16.8291 15.9041C11.5491 16.4082 7.07038 22.8242 9.98464 25.7274C9.98464 25.7274 10.5855 26.3483 12.0933 27.2295" stroke="white" stroke-width="0.335648" stroke-miterlimit="10"/>
<path d="M29.6704 32.6224C25.9027 34.5697 21.2815 34.5286 21.079 34.2237C19.3876 33.4325 18.7356 33.3735 18.0201 33.7418C16.7649 34.3895 16.9652 35.8627 17.7597 36.6706C18.9392 37.8701 21.9803 39.2343 27.278 38.2507C33.5038 37.0945 39.0241 32.1273 36.3124 28.0335C33.0532 23.113 30.6152 22.9338 29.4345 25.1504C29.0762 25.8225 29.5325 27.5595 31.5788 27.6863C33.5661 29.9496 31.3562 31.7489 29.6704 32.6213V32.6224Z" fill="#FF5D5D" stroke="white" stroke-width="0.335648" stroke-miterlimit="10"/>
<path d="M31.5045 33.0857C30.0891 33.6754 28.8362 33.1502 28.6659 32.8943C28.8662 31.2152 27.7034 30.888 27.0413 31.0238C25.9041 31.2564 24.0937 32.7508 24.5733 34.3709C24.9727 35.7218 26.0165 37.2318 28.3877 37.4877C33.6621 38.0563 39.3393 32.6729 37.0682 29.2434" fill="#FF5D5D"/>
<path d="M31.5045 33.0857C30.0891 33.6754 28.8362 33.1502 28.6659 32.8943C28.8662 31.2152 27.7034 30.888 27.0413 31.0238C25.9041 31.2564 24.0937 32.7508 24.5733 34.3709C24.9727 35.7218 26.0165 37.2318 28.3877 37.4877C33.6621 38.0563 39.3393 32.6729 37.0682 29.2434" stroke="white" stroke-width="0.335648" stroke-miterlimit="10"/>
<path d="M32.6986 33.8914C31.43 34.7549 30.097 34.4912 29.88 34.2742C29.7387 32.5884 28.5336 32.5027 27.9127 32.7686C26.8456 33.226 25.3723 35.0531 26.1679 36.5442C26.8311 37.7871 28.1564 39.0556 30.531 38.8297C35.8109 38.3256 40.2897 31.9096 37.3754 29.0065" fill="#FF5D5D"/>
<path d="M32.6986 33.8914C31.43 34.7549 30.097 34.4912 29.88 34.2742C29.7387 32.5884 28.5336 32.5027 27.9127 32.7686C26.8456 33.226 25.3723 35.0531 26.1679 36.5442C26.8311 37.7871 28.1564 39.0556 30.531 38.8297C35.8109 38.3256 40.2897 31.9096 37.3754 29.0065" stroke="white" stroke-width="0.335648" stroke-miterlimit="10"/>
<path d="M33.9681 34.7932C32.6996 35.6567 31.3665 35.393 31.1495 35.176C31.0082 33.4902 29.8031 33.4045 29.1822 33.6705C28.1151 34.1278 26.6418 35.9549 27.4374 37.446C28.1006 38.6889 29.4259 39.9575 31.8005 39.7316C37.0804 39.2275 41.5592 32.8115 38.6449 29.9083C38.6449 29.9083 38.0441 29.2874 36.5363 28.4061" fill="#FF5D5D"/>
<path d="M33.9681 34.7932C32.6996 35.6567 31.3665 35.393 31.1495 35.176C31.0082 33.4902 29.8031 33.4045 29.1822 33.6705C28.1151 34.1278 26.6418 35.9549 27.4374 37.446C28.1006 38.6889 29.4259 39.9575 31.8005 39.7316C37.0804 39.2275 41.5592 32.8115 38.6449 29.9083C38.6449 29.9083 38.0441 29.2874 36.5363 28.4061" stroke="white" stroke-width="0.335648" stroke-miterlimit="10"/>
<path d="M24.3184 26.6152V29.021" stroke="white" stroke-width="0.447531" stroke-miterlimit="10" stroke-linecap="round"/>
<path d="M25.521 27.818H23.1152" stroke="white" stroke-width="0.447531" stroke-miterlimit="10" stroke-linecap="round"/>
<path d="M18.8198 8.349C19.1225 10.3185 19.4251 12.2925 19.7289 14.2732C19.1859 14.3856 18.6451 14.5147 18.1076 14.6616C18.0798 14.3021 18.0509 13.9427 18.0231 13.5833C17.835 13.6356 17.6481 13.689 17.4611 13.7458C17.43 14.1219 17.3988 14.4991 17.3666 14.8763C16.8269 15.041 16.2905 15.2235 15.7598 15.4249C16.0213 13.2829 16.285 11.1453 16.5487 9.01219C17.2976 8.75626 18.0542 8.53594 18.8187 8.35011L18.8198 8.349ZM17.9819 12.5084C17.9018 11.8363 17.8228 11.0018 17.7427 10.0025C17.5824 11.2221 17.4823 12.1112 17.4411 12.6653C17.6214 12.6108 17.8016 12.5585 17.9819 12.5084Z" fill="white"/>
<path d="M23.5961 7.64587C23.5961 9.68886 23.5961 11.7319 23.5961 13.7748C23.1232 13.8004 22.6514 13.8383 22.1796 13.8894C21.9003 12.9915 21.621 12.0968 21.3417 11.2077V13.994C20.8932 14.0575 20.447 14.132 20.002 14.2188V8.08986C20.447 8.00306 20.8944 7.92852 21.3417 7.86509C21.6421 8.74193 21.9437 9.62544 22.2441 10.5134V7.75382C22.6937 7.70597 23.1443 7.67035 23.595 7.64587H23.5961Z" fill="white"/>
<path d="M27.9617 10.0312C27.4243 9.96997 26.8857 9.92546 26.346 9.89764V9.34127C26.346 8.99076 26.3305 8.77044 26.3004 8.68031C26.2693 8.59018 26.1969 8.54233 26.0812 8.53787C25.9811 8.53342 25.9132 8.56904 25.8776 8.64359C25.842 8.71815 25.8242 8.91176 25.8242 9.22444V12.1654C25.8242 12.4402 25.842 12.6216 25.8776 12.7106C25.9132 12.7997 25.9855 12.8453 26.0934 12.8497C26.2114 12.8553 26.2915 12.8097 26.3338 12.7129C26.3761 12.6172 26.3972 12.4258 26.3972 12.1409V11.4143C26.2882 11.4087 26.1791 11.4032 26.0701 11.3987V10.4674C26.7021 10.493 27.333 10.5419 27.9628 10.6131V13.9024C27.6246 13.8634 27.2863 13.8323 26.948 13.8067C26.8979 13.6565 26.8479 13.5063 26.7989 13.3571C26.6888 13.5385 26.5497 13.6721 26.3816 13.7577C26.2136 13.8434 26.0156 13.8824 25.7874 13.8757C25.5148 13.8679 25.26 13.7989 25.023 13.6687C24.7849 13.5385 24.6057 13.3805 24.4822 13.1914C24.3587 13.0022 24.2819 12.803 24.2507 12.5938C24.2196 12.3835 24.204 12.0686 24.2051 11.6469V9.82643C24.2051 9.24113 24.2374 8.81494 24.3008 8.54789C24.3654 8.28194 24.549 8.03269 24.8527 7.81014C25.1565 7.58759 25.5504 7.47966 26.0322 7.49858C26.5063 7.5175 26.9002 7.64101 27.2117 7.85911C27.5244 8.0772 27.7269 8.32757 27.8215 8.60131C27.9161 8.87504 27.9628 9.2645 27.9628 9.76634V10.0312H27.9617Z" fill="white"/>
<path d="M30.1805 8.12604V13.0276C30.5043 13.0933 30.827 13.1645 31.1474 13.2424V14.4686C30.2973 14.2628 29.4394 14.1003 28.5781 13.9813V7.85229C29.1145 7.92685 29.6486 8.01699 30.1805 8.12492V8.12604Z" fill="white"/>
<path d="M31.5352 8.4375C32.4142 8.6645 33.2833 8.93712 34.1412 9.25759V10.4838C33.7985 10.3559 33.4524 10.2357 33.1063 10.1222V11.2839C33.4313 11.3896 33.754 11.502 34.0755 11.6211V12.7872C33.754 12.6681 33.4313 12.5557 33.1063 12.45V13.7976C33.488 13.9222 33.8675 14.0557 34.2436 14.1981V15.4244C33.3534 15.0883 32.4487 14.8013 31.5352 14.5665V8.4375V8.4375Z" fill="white"/>
<path d="M36.5868 26.1314C36.5868 26.1314 37.28 20.3029 40.2165 20.3029C37.28 20.3029 36.5868 14.4744 36.5868 14.4744C36.5868 14.4744 35.8935 20.3029 32.957 20.3029C35.8935 20.3029 36.5868 26.1314 36.5868 26.1314Z" fill="#FFFDC2" stroke="white" stroke-width="0.335648" stroke-linecap="round" stroke-linejoin="round"/>
<path d="M13.4434 38.3928C13.4434 38.3928 13.794 35.444 15.2795 35.444C13.794 35.444 13.4434 32.4952 13.4434 32.4952C13.4434 32.4952 13.0929 35.444 11.6074 35.444C13.0929 35.444 13.4434 38.3928 13.4434 38.3928Z" fill="#FFFDC2" stroke="white" stroke-width="0.335648" stroke-linecap="round" stroke-linejoin="round"/>
<path d="M65.0312 18.9375C65.0312 19.8438 65.0078 20.6458 64.9609 21.3438C64.9193 22.0365 64.8125 22.8229 64.6406 23.7031H66.6562V24.9219H60.9844V30.8438H59.4844V24.9219H53.8906V23.7031H63.1406C63.3229 22.8229 63.4375 22.0391 63.4844 21.3516C63.5312 20.6641 63.5573 19.8594 63.5625 18.9375V18.9219H55.4531V17.7031H65.0312V18.9375ZM79.0625 24.4688H74.8281V27.8906H80.5312V29.1094H67.7188V27.8906H73.3594V24.4688H69.3125V17.9062H78.9375V19.1094H70.7969V23.2812H79.0625V24.4688ZM92.4531 22.4062H94.625V23.6406H92.4531V30.8125H90.9688V16.8281H92.4531V22.4062ZM81.5625 27.0781C83.3125 26.2031 84.6641 25.1354 85.6172 23.875C86.5755 22.6146 87.1302 21.1667 87.2812 19.5312H82.2656V18.2969H88.7969C88.7865 20.4323 88.2682 22.3516 87.2422 24.0547C86.2161 25.7526 84.599 27.1458 82.3906 28.2344L81.5625 27.0781ZM106.391 22.5312H112.078V23.7344H99.2656V22.5312H104.922V21H106.391V22.5312ZM99.9219 20.7188C100.745 20.6615 101.5 20.5234 102.188 20.3047C102.88 20.0859 103.443 19.8099 103.875 19.4766C104.312 19.138 104.57 18.7708 104.648 18.375H100.453V17.2344H110.906V18.375H106.664C106.742 18.7708 106.997 19.138 107.43 19.4766C107.862 19.8099 108.424 20.0859 109.117 20.3047C109.81 20.5234 110.573 20.6615 111.406 20.7188L110.922 21.8281C110.094 21.7552 109.326 21.6094 108.617 21.3906C107.914 21.1719 107.307 20.888 106.797 20.5391C106.286 20.1849 105.911 19.7786 105.672 19.3203C105.427 19.7786 105.047 20.1849 104.531 20.5391C104.021 20.888 103.411 21.1719 102.703 21.3906C102 21.6094 101.234 21.7552 100.406 21.8281L99.9219 20.7188ZM100.453 25.4531H104.922V24.2188H106.391V25.4531H110.859V26.5938H100.453V25.4531ZM101.406 29.0312C101.401 28.4323 101.763 27.9766 102.492 27.6641C103.221 27.3516 104.271 27.1927 105.641 27.1875C107.01 27.1927 108.065 27.3516 108.805 27.6641C109.544 27.9766 109.917 28.4323 109.922 29.0312C109.917 29.6354 109.547 30.0964 108.812 30.4141C108.083 30.7318 107.042 30.8906 105.688 30.8906C104.302 30.8906 103.24 30.7318 102.5 30.4141C101.766 30.1016 101.401 29.6406 101.406 29.0312ZM102.922 29.0312C102.917 29.3125 103.148 29.526 103.617 29.6719C104.086 29.8177 104.76 29.8854 105.641 29.875C106.531 29.8802 107.211 29.8099 107.68 29.6641C108.148 29.5234 108.385 29.3125 108.391 29.0312C108.385 28.4896 107.469 28.2135 105.641 28.2031C103.812 28.2135 102.906 28.4896 102.922 29.0312ZM116.859 17.875C117.552 17.875 118.169 18.0781 118.711 18.4844C119.258 18.8854 119.685 19.4583 119.992 20.2031C120.299 20.9427 120.453 21.8021 120.453 22.7812C120.453 23.7708 120.299 24.638 119.992 25.3828C119.685 26.1276 119.26 26.7005 118.719 27.1016C118.177 27.5026 117.557 27.7031 116.859 27.7031C116.161 27.7031 115.542 27.5026 115 27.1016C114.458 26.7005 114.036 26.1276 113.734 25.3828C113.432 24.638 113.281 23.7708 113.281 22.7812C113.281 21.8021 113.432 20.9427 113.734 20.2031C114.036 19.4583 114.458 18.8854 115 18.4844C115.542 18.0781 116.161 17.875 116.859 17.875ZM114.703 22.7812C114.703 23.5104 114.792 24.1458 114.969 24.6875C115.151 25.2292 115.406 25.6458 115.734 25.9375C116.062 26.2292 116.438 26.375 116.859 26.375C117.292 26.375 117.672 26.2318 118 25.9453C118.328 25.6536 118.581 25.237 118.758 24.6953C118.94 24.1484 119.031 23.5104 119.031 22.7812C119.031 22.0573 118.94 21.4271 118.758 20.8906C118.581 20.349 118.328 19.9323 118 19.6406C117.672 19.349 117.292 19.2031 116.859 19.2031C116.438 19.2031 116.062 19.3516 115.734 19.6484C115.406 19.9401 115.151 20.3568 114.969 20.8984C114.792 21.4349 114.703 22.0625 114.703 22.7812ZM122.531 16.8281H124.016V22.3125H126.266V23.5625H124.016V30.8281H122.531V16.8281ZM139.75 29.0781H126.938V27.8438H130V24.1875C129.411 23.8646 128.956 23.4557 128.633 22.9609C128.31 22.4661 128.151 21.9115 128.156 21.2969C128.156 20.5729 128.375 19.9349 128.812 19.3828C129.25 18.8307 129.859 18.4036 130.641 18.1016C131.427 17.7943 132.318 17.6406 133.312 17.6406C134.307 17.6406 135.198 17.7943 135.984 18.1016C136.771 18.4036 137.383 18.8307 137.82 19.3828C138.263 19.9349 138.484 20.5729 138.484 21.2969C138.484 21.9062 138.328 22.4557 138.016 22.9453C137.703 23.4297 137.26 23.8333 136.688 24.1562V27.8438H139.75V29.0781ZM129.594 21.2969C129.594 21.7917 129.75 22.2266 130.062 22.6016C130.375 22.9766 130.812 23.2682 131.375 23.4766C131.938 23.6797 132.583 23.7812 133.312 23.7812C134.036 23.7812 134.68 23.6771 135.242 23.4688C135.81 23.2604 136.253 22.9714 136.57 22.6016C136.888 22.2266 137.047 21.7917 137.047 21.2969C137.047 20.8021 136.888 20.3698 136.57 20C136.253 19.625 135.81 19.3359 135.242 19.1328C134.68 18.9297 134.036 18.8281 133.312 18.8281C132.583 18.8281 131.938 18.9297 131.375 19.1328C130.812 19.3359 130.375 19.625 130.062 20C129.75 20.3698 129.594 20.8021 129.594 21.2969ZM135.188 27.8438V24.7344C134.604 24.8698 133.979 24.9375 133.312 24.9375C132.656 24.9375 132.042 24.8698 131.469 24.7344V27.8438H135.188ZM143.203 26.2344H141.656L141.516 18.1875H143.344L143.203 26.2344ZM141.328 28.5156C141.328 28.3125 141.378 28.125 141.477 27.9531C141.576 27.7812 141.708 27.6458 141.875 27.5469C142.047 27.4427 142.234 27.3906 142.438 27.3906C142.635 27.3906 142.818 27.4401 142.984 27.5391C143.156 27.638 143.292 27.7734 143.391 27.9453C143.495 28.1172 143.547 28.3021 143.547 28.5C143.547 28.6979 143.495 28.8828 143.391 29.0547C143.292 29.2214 143.156 29.3568 142.984 29.4609C142.818 29.5599 142.635 29.6094 142.438 29.6094C142.24 29.6094 142.055 29.5599 141.883 29.4609C141.716 29.362 141.581 29.2292 141.477 29.0625C141.378 28.8958 141.328 28.7135 141.328 28.5156Z" fill="white"/>
</svg>
