<svg width="170" height="48" viewBox="0 0 170 48" fill="none" xmlns="http://www.w3.org/2000/svg">
<rect width="170" height="48" rx="24" fill="#FF5E67"/>
<path d="M25 43C35.4934 43 44 34.4934 44 24C44 13.5066 35.4934 5 25 5C14.5066 5 6 13.5066 6 24C6 34.4934 14.5066 43 25 43Z" fill="#3973CB" stroke="white" stroke-width="0.703704" stroke-miterlimit="10"/>
<path d="M18.9535 21.6488C22.7213 19.7015 27.3425 19.7427 27.545 20.0476C29.2364 20.8388 29.8884 20.8977 30.6039 20.5294C31.8591 19.8818 31.6588 18.4085 30.8643 17.6007C29.6848 16.4012 26.6437 15.0369 21.3459 16.0206C15.1202 17.1767 9.59986 22.144 12.3116 26.2378C15.5708 31.1583 18.0088 31.3374 19.1894 29.1209C19.5477 28.4488 19.0915 26.7118 17.0452 26.5849C15.0578 24.3216 17.2677 22.5223 18.9535 21.6499V21.6488Z" fill="#FF5E67" stroke="white" stroke-width="0.333821" stroke-miterlimit="10"/>
<path d="M17.121 21.1851C18.5364 20.5953 19.7893 21.1206 19.9595 21.3765C19.7593 23.0556 20.9221 23.3828 21.5841 23.247C22.7214 23.0144 24.5318 21.52 24.0522 19.8999C23.6527 18.549 22.609 17.039 20.2377 16.7831C14.9634 16.2145 9.28616 21.5979 11.5573 25.0274" fill="#FF5E67"/>
<path d="M17.121 21.1851C18.5364 20.5953 19.7893 21.1206 19.9595 21.3765C19.7593 23.0556 20.9221 23.3828 21.5841 23.247C22.7214 23.0144 24.5318 21.52 24.0522 19.8999C23.6527 18.549 22.609 17.039 20.2377 16.7831C14.9634 16.2145 9.28616 21.5979 11.5573 25.0274" stroke="white" stroke-width="0.333821" stroke-miterlimit="10"/>
<path d="M15.9232 20.3807C17.1917 19.5172 18.5248 19.7809 18.7418 19.9979C18.8831 21.6837 20.0882 21.7693 20.7091 21.5034C21.7762 21.0461 23.2495 19.219 22.4539 17.7279C21.7907 16.485 20.4654 15.2164 18.0908 15.4423C12.8109 15.9464 8.33209 22.3624 11.2464 25.2656" fill="#FF5E67"/>
<path d="M15.9232 20.3807C17.1917 19.5172 18.5248 19.7809 18.7418 19.9979C18.8831 21.6837 20.0882 21.7693 20.7091 21.5034C21.7762 21.0461 23.2495 19.219 22.4539 17.7279C21.7907 16.485 20.4654 15.2164 18.0908 15.4423C12.8109 15.9464 8.33209 22.3624 11.2464 25.2656" stroke="white" stroke-width="0.333821" stroke-miterlimit="10"/>
<path d="M14.6576 19.4781C15.9261 18.6146 17.2591 18.8783 17.4761 19.0953C17.6174 20.7811 18.8225 20.8668 19.4435 20.6008C20.5106 20.1435 21.9838 18.3164 21.1882 16.8253C20.525 15.5824 19.1998 14.3138 16.8252 14.5397C11.5452 15.0438 7.06647 21.4599 9.98073 24.363C9.98073 24.363 10.5816 24.9839 12.0894 25.8652" fill="#FF5E67"/>
<path d="M14.6576 19.4781C15.9261 18.6146 17.2591 18.8783 17.4761 19.0953C17.6174 20.7811 18.8225 20.8668 19.4435 20.6008C20.5106 20.1435 21.9838 18.3164 21.1882 16.8253C20.525 15.5824 19.1998 14.3138 16.8252 14.5397C11.5452 15.0438 7.06647 21.4599 9.98073 24.363C9.98073 24.363 10.5816 24.9839 12.0894 25.8652" stroke="white" stroke-width="0.333821" stroke-miterlimit="10"/>
<path d="M29.6704 31.2584C25.9027 33.2057 21.2815 33.1645 21.079 32.8597C19.3876 32.0685 18.7356 32.0095 18.0201 32.3778C16.7649 33.0255 16.9652 34.4987 17.7597 35.3066C18.9392 36.5061 21.9803 37.8703 27.2781 36.8867C33.5038 35.7305 39.0241 30.7633 36.3124 26.6695C33.0532 21.749 30.6152 21.5698 29.4345 23.7864C29.0762 24.4585 29.5325 26.1955 31.5788 26.3223C33.5661 28.5856 31.3562 30.3849 29.6704 31.2573V31.2584Z" fill="#FF5E67" stroke="white" stroke-width="0.333821" stroke-miterlimit="10"/>
<path d="M31.5045 31.7217C30.0891 32.3114 28.8362 31.7862 28.6659 31.5303C28.8662 29.8512 27.7034 29.524 27.0413 29.6598C25.9041 29.8923 24.0937 31.3867 24.5733 33.0069C24.9727 34.3578 26.0165 35.8677 28.3877 36.1237C33.6621 36.6923 39.3393 31.3089 37.0682 27.8794" fill="#FF5E67"/>
<path d="M31.5045 31.7217C30.0891 32.3114 28.8362 31.7862 28.6659 31.5303C28.8662 29.8512 27.7034 29.524 27.0413 29.6598C25.9041 29.8923 24.0937 31.3867 24.5733 33.0069C24.9727 34.3578 26.0165 35.8677 28.3877 36.1237C33.6621 36.6923 39.3393 31.3089 37.0682 27.8794" stroke="white" stroke-width="0.333821" stroke-miterlimit="10"/>
<path d="M32.7005 32.527C31.432 33.3905 30.0989 33.1268 29.882 32.9098C29.7406 31.224 28.5356 31.1383 27.9146 31.4043C26.8475 31.8616 25.3743 33.6887 26.1699 35.1798C26.8331 36.4227 28.1583 37.6912 30.5329 37.4653C35.8129 36.9613 40.2916 30.5452 37.3774 27.6421" fill="#FF5E67"/>
<path d="M32.7005 32.527C31.432 33.3905 30.0989 33.1268 29.882 32.9098C29.7406 31.224 28.5356 31.1383 27.9146 31.4043C26.8475 31.8616 25.3743 33.6887 26.1699 35.1798C26.8331 36.4227 28.1583 37.6912 30.5329 37.4653C35.8129 36.9613 40.2916 30.5452 37.3774 27.6421" stroke="white" stroke-width="0.333821" stroke-miterlimit="10"/>
<path d="M33.9661 33.4298C32.6976 34.2933 31.3646 34.0296 31.1476 33.8126C31.0063 32.1268 29.8012 32.0411 29.1803 32.3071C28.1132 32.7644 26.6399 34.5915 27.4355 36.0826C28.0987 37.3255 29.424 38.5941 31.7985 38.3682C37.0785 37.8641 41.5572 31.4481 38.643 28.5449C38.643 28.5449 38.0421 27.924 36.5343 27.0427" fill="#FF5E67"/>
<path d="M33.9661 33.4298C32.6976 34.2933 31.3646 34.0296 31.1476 33.8126C31.0063 32.1268 29.8012 32.0411 29.1803 32.3071C28.1132 32.7644 26.6399 34.5915 27.4355 36.0826C28.0987 37.3255 29.424 38.5941 31.7985 38.3682C37.0785 37.8641 41.5572 31.4481 38.643 28.5449C38.643 28.5449 38.0421 27.924 36.5343 27.0427" stroke="white" stroke-width="0.333821" stroke-miterlimit="10"/>
<path d="M24.3125 25.2507V27.6554" stroke="white" stroke-width="0.333821" stroke-miterlimit="10" stroke-linecap="round"/>
<path d="M25.5151 26.4536H23.1094" stroke="white" stroke-width="0.333821" stroke-miterlimit="10" stroke-linecap="round"/>
<path d="M19.6777 7.83105C19.938 9.52687 20.1984 11.2271 20.461 12.933C19.9937 13.0298 19.5274 13.141 19.0657 13.2668C19.0412 12.9574 19.0167 12.6481 18.9933 12.3388C18.832 12.3833 18.6706 12.43 18.5093 12.479C18.4826 12.8039 18.4548 13.1277 18.4281 13.4526C17.9629 13.595 17.5023 13.7519 17.0449 13.9244C17.2708 12.0795 17.4967 10.239 17.7248 8.40189C18.3691 8.18157 19.0223 7.99129 19.6799 7.83105H19.6777ZM18.9566 11.413C18.8876 10.8343 18.8186 10.1155 18.7507 9.25425C18.6128 10.3047 18.526 11.0702 18.4915 11.5476C18.6462 11.5009 18.8019 11.4552 18.9577 11.4118L18.9566 11.413Z" fill="white"/>
<path d="M23.7898 7.22485C23.7898 8.98409 23.7898 10.7433 23.7898 12.5026C23.3826 12.5248 22.9753 12.5571 22.5703 12.6016C22.3299 11.8282 22.0885 11.0582 21.8492 10.2927V12.6917C21.4631 12.7463 21.0781 12.8108 20.6953 12.8854V7.60875C21.0792 7.53419 21.4631 7.46966 21.8492 7.41513C22.1085 8.17068 22.3678 8.93068 22.627 9.69513V7.31832C23.0143 7.27715 23.4026 7.246 23.791 7.22485H23.7898Z" fill="white"/>
<path d="M27.5458 9.28004C27.0829 9.22774 26.6189 9.18879 26.1538 9.16542V8.68583C26.1538 8.38428 26.1404 8.194 26.1137 8.11611C26.087 8.03933 26.0247 7.99705 25.9246 7.99371C25.8389 7.99037 25.7799 8.02042 25.7487 8.08496C25.7176 8.14949 25.702 8.31641 25.702 8.58569V11.1183C25.702 11.3553 25.7176 11.5111 25.7487 11.5879C25.7799 11.6635 25.8411 11.7036 25.9346 11.7069C26.0358 11.7114 26.1048 11.6724 26.1415 11.589C26.1783 11.5066 26.1961 11.3419 26.1961 11.096V10.4707C26.1026 10.4662 26.008 10.4618 25.9145 10.4573V9.65503C26.4587 9.67728 27.0028 9.71957 27.5447 9.78077V12.6138C27.2543 12.5804 26.9627 12.5537 26.6712 12.5315C26.6278 12.4024 26.5855 12.2733 26.5421 12.1442C26.4475 12.3011 26.3274 12.4157 26.1827 12.4892C26.0381 12.5626 25.8678 12.596 25.6709 12.5904C25.4361 12.5838 25.2169 12.5248 25.0121 12.4124C24.8074 12.3 24.6527 12.1643 24.5459 12.0018C24.4402 11.8382 24.3734 11.668 24.3467 11.4866C24.32 11.3063 24.3066 11.0337 24.3066 10.671V9.10311C24.3066 8.59904 24.3345 8.23184 24.389 8.00261C24.4446 7.77339 24.6026 7.55863 24.8641 7.36724C25.1256 7.17585 25.465 7.08238 25.88 7.09907C26.2884 7.11576 26.6267 7.22147 26.896 7.40952C27.1653 7.59758 27.34 7.81234 27.4212 8.04824C27.5024 8.28414 27.5436 8.61907 27.5436 9.05081V9.27892L27.5458 9.28004Z" fill="white"/>
<path d="M29.4638 7.6386V11.8603C29.742 11.9171 30.0201 11.9783 30.2972 12.045V13.101C29.565 12.9241 28.8262 12.7839 28.084 12.6815V7.40381C28.5458 7.46723 29.0064 7.54624 29.4638 7.6386Z" fill="white"/>
<path d="M30.627 7.90674C31.3836 8.10258 32.1325 8.33737 32.8713 8.61333V9.66932C32.5754 9.55915 32.2783 9.45567 31.98 9.35775V10.3581C32.2593 10.4493 32.5375 10.5462 32.8146 10.6485V11.6522C32.5375 11.5498 32.2593 11.453 31.98 11.3618V12.5224C32.3083 12.6292 32.6354 12.7449 32.9604 12.8673V13.9233C32.1937 13.634 31.4148 13.387 30.6281 13.1845V7.90674H30.627Z" fill="white"/>
<path d="M36.5868 24.7664C36.5868 24.7664 37.28 18.9379 40.2165 18.9379C37.28 18.9379 36.5868 13.1094 36.5868 13.1094C36.5868 13.1094 35.8935 18.9379 32.957 18.9379C35.8935 18.9379 36.5868 24.7664 36.5868 24.7664Z" fill="#FFFDC2" stroke="white" stroke-width="0.333821" stroke-linecap="round" stroke-linejoin="round"/>
<path d="M13.4415 37.0279C13.4415 37.0279 13.792 34.0791 15.2775 34.0791C13.792 34.0791 13.4415 31.1304 13.4415 31.1304C13.4415 31.1304 13.091 34.0791 11.6055 34.0791C13.091 34.0791 13.4415 37.0279 13.4415 37.0279Z" fill="#FFFDC2" stroke="white" stroke-width="0.333821" stroke-linecap="round" stroke-linejoin="round"/>
<path d="M65.0312 18.9375C65.0312 19.8438 65.0078 20.6458 64.9609 21.3438C64.9193 22.0365 64.8125 22.8229 64.6406 23.7031H66.6562V24.9219H60.9844V30.8438H59.4844V24.9219H53.8906V23.7031H63.1406C63.3229 22.8229 63.4375 22.0391 63.4844 21.3516C63.5312 20.6641 63.5573 19.8594 63.5625 18.9375V18.9219H55.4531V17.7031H65.0312V18.9375ZM79.0625 24.4688H74.8281V27.8906H80.5312V29.1094H67.7188V27.8906H73.3594V24.4688H69.3125V17.9062H78.9375V19.1094H70.7969V23.2812H79.0625V24.4688ZM92.4531 22.4062H94.625V23.6406H92.4531V30.8125H90.9688V16.8281H92.4531V22.4062ZM81.5625 27.0781C83.3125 26.2031 84.6641 25.1354 85.6172 23.875C86.5755 22.6146 87.1302 21.1667 87.2812 19.5312H82.2656V18.2969H88.7969C88.7865 20.4323 88.2682 22.3516 87.2422 24.0547C86.2161 25.7526 84.599 27.1458 82.3906 28.2344L81.5625 27.0781ZM106.391 22.5312H112.078V23.7344H99.2656V22.5312H104.922V21H106.391V22.5312ZM99.9219 20.7188C100.745 20.6615 101.5 20.5234 102.188 20.3047C102.88 20.0859 103.443 19.8099 103.875 19.4766C104.312 19.138 104.57 18.7708 104.648 18.375H100.453V17.2344H110.906V18.375H106.664C106.742 18.7708 106.997 19.138 107.43 19.4766C107.862 19.8099 108.424 20.0859 109.117 20.3047C109.81 20.5234 110.573 20.6615 111.406 20.7188L110.922 21.8281C110.094 21.7552 109.326 21.6094 108.617 21.3906C107.914 21.1719 107.307 20.888 106.797 20.5391C106.286 20.1849 105.911 19.7786 105.672 19.3203C105.427 19.7786 105.047 20.1849 104.531 20.5391C104.021 20.888 103.411 21.1719 102.703 21.3906C102 21.6094 101.234 21.7552 100.406 21.8281L99.9219 20.7188ZM100.453 25.4531H104.922V24.2188H106.391V25.4531H110.859V26.5938H100.453V25.4531ZM101.406 29.0312C101.401 28.4323 101.763 27.9766 102.492 27.6641C103.221 27.3516 104.271 27.1927 105.641 27.1875C107.01 27.1927 108.065 27.3516 108.805 27.6641C109.544 27.9766 109.917 28.4323 109.922 29.0312C109.917 29.6354 109.547 30.0964 108.812 30.4141C108.083 30.7318 107.042 30.8906 105.688 30.8906C104.302 30.8906 103.24 30.7318 102.5 30.4141C101.766 30.1016 101.401 29.6406 101.406 29.0312ZM102.922 29.0312C102.917 29.3125 103.148 29.526 103.617 29.6719C104.086 29.8177 104.76 29.8854 105.641 29.875C106.531 29.8802 107.211 29.8099 107.68 29.6641C108.148 29.5234 108.385 29.3125 108.391 29.0312C108.385 28.4896 107.469 28.2135 105.641 28.2031C103.812 28.2135 102.906 28.4896 102.922 29.0312ZM116.859 17.875C117.552 17.875 118.169 18.0781 118.711 18.4844C119.258 18.8854 119.685 19.4583 119.992 20.2031C120.299 20.9427 120.453 21.8021 120.453 22.7812C120.453 23.7708 120.299 24.638 119.992 25.3828C119.685 26.1276 119.26 26.7005 118.719 27.1016C118.177 27.5026 117.557 27.7031 116.859 27.7031C116.161 27.7031 115.542 27.5026 115 27.1016C114.458 26.7005 114.036 26.1276 113.734 25.3828C113.432 24.638 113.281 23.7708 113.281 22.7812C113.281 21.8021 113.432 20.9427 113.734 20.2031C114.036 19.4583 114.458 18.8854 115 18.4844C115.542 18.0781 116.161 17.875 116.859 17.875ZM114.703 22.7812C114.703 23.5104 114.792 24.1458 114.969 24.6875C115.151 25.2292 115.406 25.6458 115.734 25.9375C116.062 26.2292 116.438 26.375 116.859 26.375C117.292 26.375 117.672 26.2318 118 25.9453C118.328 25.6536 118.581 25.237 118.758 24.6953C118.94 24.1484 119.031 23.5104 119.031 22.7812C119.031 22.0573 118.94 21.4271 118.758 20.8906C118.581 20.349 118.328 19.9323 118 19.6406C117.672 19.349 117.292 19.2031 116.859 19.2031C116.438 19.2031 116.062 19.3516 115.734 19.6484C115.406 19.9401 115.151 20.3568 114.969 20.8984C114.792 21.4349 114.703 22.0625 114.703 22.7812ZM122.531 16.8281H124.016V22.3125H126.266V23.5625H124.016V30.8281H122.531V16.8281ZM139.75 29.0781H126.938V27.8438H130V24.1875C129.411 23.8646 128.956 23.4557 128.633 22.9609C128.31 22.4661 128.151 21.9115 128.156 21.2969C128.156 20.5729 128.375 19.9349 128.812 19.3828C129.25 18.8307 129.859 18.4036 130.641 18.1016C131.427 17.7943 132.318 17.6406 133.312 17.6406C134.307 17.6406 135.198 17.7943 135.984 18.1016C136.771 18.4036 137.383 18.8307 137.82 19.3828C138.263 19.9349 138.484 20.5729 138.484 21.2969C138.484 21.9062 138.328 22.4557 138.016 22.9453C137.703 23.4297 137.26 23.8333 136.688 24.1562V27.8438H139.75V29.0781ZM129.594 21.2969C129.594 21.7917 129.75 22.2266 130.062 22.6016C130.375 22.9766 130.812 23.2682 131.375 23.4766C131.938 23.6797 132.583 23.7812 133.312 23.7812C134.036 23.7812 134.68 23.6771 135.242 23.4688C135.81 23.2604 136.253 22.9714 136.57 22.6016C136.888 22.2266 137.047 21.7917 137.047 21.2969C137.047 20.8021 136.888 20.3698 136.57 20C136.253 19.625 135.81 19.3359 135.242 19.1328C134.68 18.9297 134.036 18.8281 133.312 18.8281C132.583 18.8281 131.938 18.9297 131.375 19.1328C130.812 19.3359 130.375 19.625 130.062 20C129.75 20.3698 129.594 20.8021 129.594 21.2969ZM135.188 27.8438V24.7344C134.604 24.8698 133.979 24.9375 133.312 24.9375C132.656 24.9375 132.042 24.8698 131.469 24.7344V27.8438H135.188ZM143.203 26.2344H141.656L141.516 18.1875H143.344L143.203 26.2344ZM141.328 28.5156C141.328 28.3125 141.378 28.125 141.477 27.9531C141.576 27.7812 141.708 27.6458 141.875 27.5469C142.047 27.4427 142.234 27.3906 142.438 27.3906C142.635 27.3906 142.818 27.4401 142.984 27.5391C143.156 27.638 143.292 27.7734 143.391 27.9453C143.495 28.1172 143.547 28.3021 143.547 28.5C143.547 28.6979 143.495 28.8828 143.391 29.0547C143.292 29.2214 143.156 29.3568 142.984 29.4609C142.818 29.5599 142.635 29.6094 142.438 29.6094C142.24 29.6094 142.055 29.5599 141.883 29.4609C141.716 29.362 141.581 29.2292 141.477 29.0625C141.378 28.8958 141.328 28.7135 141.328 28.5156Z" fill="white"/>
</svg>
