<svg width="184" height="48" viewBox="0 0 184 48" fill="none" xmlns="http://www.w3.org/2000/svg">
<rect width="184" height="48" rx="24" fill="#FF5E67"/>
<path d="M25 43C35.4934 43 44 34.4934 44 24C44 13.5066 35.4934 5 25 5C14.5066 5 6 13.5066 6 24C6 34.4934 14.5066 43 25 43Z" fill="#FF5E67" stroke="white" stroke-width="0.703704" stroke-miterlimit="10"/>
<path d="M17.0538 8.25915C17.5056 8.13675 17.9596 8.02436 18.4147 7.9231C18.8465 7.82741 19.1747 7.79736 19.3984 7.82184C19.622 7.84744 19.8023 7.95203 19.9403 8.13341C20.0783 8.3159 20.1473 8.63525 20.1473 9.09148C20.1473 9.3997 20.0983 9.62225 20.0015 9.76023C19.9047 9.89821 19.7122 10.024 19.4262 10.1419C19.7444 10.1541 19.9614 10.2376 20.0749 10.3845C20.1884 10.5325 20.2452 10.7784 20.2452 11.1222V11.6118C20.2452 11.969 20.204 12.2394 20.1217 12.4241C20.0393 12.6088 19.9091 12.7479 19.73 12.8425C19.5508 12.9371 19.1836 13.0339 18.6317 13.1519C18.1032 13.2654 17.5768 13.3933 17.0527 13.5358V8.25804L17.0538 8.25915ZM18.4181 8.82442V9.99836C18.477 9.98278 18.5227 9.97165 18.5549 9.96498C18.6896 9.93604 18.7753 9.88486 18.812 9.81031C18.8487 9.73686 18.8676 9.54325 18.8676 9.22946C18.8676 9.06477 18.852 8.95238 18.822 8.8923C18.7919 8.83221 18.7519 8.79883 18.7029 8.79215C18.654 8.78547 18.5594 8.79549 18.4181 8.82442ZM18.4181 10.8196V12.2962C18.6106 12.2472 18.7341 12.1905 18.7875 12.1248C18.8409 12.0591 18.8676 11.9201 18.8676 11.7075V11.2157C18.8676 10.9898 18.8431 10.8574 18.7964 10.8196C18.7485 10.7817 18.6217 10.7806 18.4181 10.8196Z" fill="white"/>
<path d="M23.1439 7.25464C23.4099 8.99719 23.6758 10.7442 23.9406 12.4945C23.4655 12.5112 22.9904 12.539 22.5163 12.578C22.4919 12.2642 22.4663 11.9493 22.4418 11.6355C22.276 11.65 22.1102 11.6655 21.9444 11.6822C21.9166 12.0016 21.8888 12.3198 21.8609 12.6392C21.3825 12.6893 20.904 12.7505 20.4277 12.8228C20.6625 11.0279 20.8984 9.23531 21.1343 7.44603C21.802 7.36035 22.473 7.29692 23.1439 7.25575V7.25464ZM22.4062 10.703C22.3361 10.111 22.2649 9.37886 22.1948 8.50536C22.0534 9.52908 21.9644 10.2768 21.9277 10.7486C22.0868 10.7319 22.2471 10.7175 22.4062 10.7041V10.703Z" fill="white"/>
<path d="M27.4335 9.59477C26.9695 9.55693 26.5055 9.53023 26.0403 9.51465V8.59775C26.0403 8.33069 26.0248 8.16378 25.9958 8.09702C25.9658 8.03026 25.9001 7.99465 25.7989 7.99242C25.6843 7.98908 25.6108 8.02803 25.5797 8.10815C25.5485 8.18826 25.5329 8.36185 25.5329 8.62891V11.0803C25.5329 11.3362 25.5485 11.5042 25.5797 11.5832C25.6108 11.6622 25.6798 11.7023 25.7889 11.7056C25.8923 11.709 25.9602 11.6711 25.9925 11.5944C26.0248 11.5165 26.0403 11.334 26.0403 11.0436V10.3804C26.5055 10.3959 26.9695 10.4226 27.4335 10.4605C27.4335 10.5295 27.4335 10.5973 27.4335 10.6663C27.4335 11.2127 27.3945 11.5966 27.3167 11.8191C27.2388 12.0417 27.0652 12.2286 26.797 12.3844C26.5288 12.5402 26.1983 12.6103 25.8056 12.5992C25.3972 12.588 25.06 12.5146 24.7952 12.371C24.5304 12.2275 24.3545 12.0305 24.2677 11.7746C24.1821 11.5187 24.1387 11.1337 24.1387 10.6163V9.074C24.1387 8.69345 24.152 8.40859 24.1787 8.2172C24.2054 8.02692 24.2844 7.84109 24.4157 7.66194C24.547 7.4839 24.7295 7.34147 24.9621 7.24021C25.1947 7.13895 25.4628 7.0911 25.7655 7.09778C26.1761 7.1078 26.5155 7.20349 26.7825 7.37485C27.0496 7.54733 27.2243 7.75541 27.3089 7.99465C27.3923 8.23389 27.4346 8.60109 27.4346 9.09292C27.4346 9.25983 27.4346 9.42674 27.4346 9.59477H27.4335Z" fill="white"/>
<path d="M31.2276 7.84552C30.965 8.58437 30.7024 9.32768 30.4386 10.0732C30.7268 11.0914 31.015 12.1129 31.3021 13.1388C30.8292 13.0387 30.3552 12.9496 29.8789 12.8718C29.692 12.0873 29.5062 11.3039 29.3192 10.5228V12.785C28.8574 12.7182 28.3957 12.6626 27.9316 12.618C27.9316 10.8588 27.9316 9.09957 27.9316 7.34033C28.3945 7.38595 28.8574 7.44159 29.3192 7.50724V9.55802C29.5251 8.90373 29.7298 8.25278 29.9346 7.60294C30.3663 7.67415 30.7969 7.75538 31.2265 7.84552H31.2276Z" fill="white"/>
<path d="M33.1031 10.9625C33.1031 11.2652 33.1031 11.569 33.1031 11.8716C32.5323 11.7136 31.9592 11.5723 31.3828 11.4477V10.5386C31.9592 10.6632 32.5334 10.8045 33.1031 10.9625Z" fill="white"/>
<path d="M17.4195 18.1174C16.9655 18.2342 16.5137 18.3633 16.0642 18.5013V18.0217C16.0642 17.7202 16.0508 17.5343 16.0252 17.4664C15.9996 17.3986 15.9384 17.3797 15.8427 17.4097C15.7593 17.4364 15.7036 17.4865 15.6736 17.5621C15.6436 17.6367 15.6291 17.8092 15.6291 18.0785V20.611C15.6291 20.8481 15.6436 20.9994 15.6736 21.0639C15.7036 21.1296 15.7626 21.1474 15.8528 21.1196C15.9507 21.0884 16.0174 21.0261 16.053 20.9293C16.0887 20.8336 16.1053 20.6633 16.1053 20.4174V19.7921C16.0141 19.8199 15.924 19.8477 15.8338 19.8766C15.8338 19.6096 15.8338 19.3425 15.8338 19.0744C16.3591 18.9074 16.8876 18.755 17.4195 18.6181V21.4512C17.1346 21.5246 16.8498 21.6025 16.566 21.6848C16.5248 21.5713 16.4826 21.4567 16.4414 21.3432C16.349 21.5335 16.2333 21.6904 16.0931 21.815C15.9529 21.9397 15.7882 22.032 15.5991 22.0943C15.3732 22.1678 15.1629 22.1833 14.967 22.1411C14.7712 22.0977 14.6232 22.0131 14.5219 21.8851C14.4207 21.7572 14.3572 21.6081 14.3328 21.4356C14.3072 21.2631 14.2949 20.9961 14.2949 20.6333V19.0655C14.2949 18.5614 14.3216 18.1853 14.3739 17.9371C14.4262 17.689 14.5776 17.4231 14.8279 17.1438C15.0783 16.8645 15.4032 16.6575 15.8027 16.5295C16.1966 16.4038 16.526 16.3904 16.7875 16.4817C17.049 16.5729 17.2203 16.7243 17.3004 16.9301C17.3805 17.136 17.4195 17.4564 17.4206 17.8882V18.1163L17.4195 18.1174Z" fill="white"/>
<path d="M17.9484 16.0423C18.2711 15.9655 18.5938 15.8932 18.9176 15.8264C19.5663 15.694 20.0081 15.6484 20.2384 15.6606C20.4687 15.674 20.6579 15.7741 20.8037 15.9588C20.9494 16.1435 21.0229 16.4618 21.0229 16.9124C21.0229 17.323 20.9717 17.6057 20.8682 17.7614C20.7647 17.9172 20.5622 18.0296 20.2595 18.1053C20.5333 18.1298 20.7169 18.1943 20.8115 18.2933C20.906 18.3935 20.9639 18.4892 20.9873 18.5804C21.0106 18.6717 21.0218 18.9309 21.0218 19.3571V20.7492C20.5922 20.8059 20.1649 20.8716 19.7377 20.9472V19.1935C19.7377 18.9109 19.7154 18.7395 19.6709 18.6806C19.6264 18.6216 19.5084 18.6082 19.3193 18.645V21.0251C18.8608 21.113 18.4035 21.2109 17.9473 21.32V16.0423H17.9484ZM19.3204 16.6498V17.8238C19.4751 17.7937 19.5841 17.7537 19.6464 17.7002C19.7087 17.6468 19.7399 17.5033 19.7399 17.2707V16.9803C19.7399 16.8134 19.7098 16.7088 19.6498 16.6676C19.5897 16.6265 19.4806 16.6198 19.3204 16.6498Z" fill="white"/>
<path d="M24.7429 18.3022C24.7429 18.833 24.7295 19.208 24.705 19.4294C24.6794 19.6498 24.6004 19.8523 24.4669 20.037C24.3334 20.2217 24.152 20.3664 23.925 20.4721C23.6969 20.5778 23.4321 20.639 23.1305 20.6579C22.8434 20.6757 22.5864 20.649 22.3583 20.5767C22.1302 20.5043 21.9466 20.3842 21.8086 20.2139C21.6695 20.0437 21.5871 19.8523 21.5615 19.6375C21.5348 19.4228 21.5226 19.0444 21.5215 18.5014C21.5215 18.1999 21.5215 17.8994 21.5215 17.5979C21.5215 17.0682 21.5337 16.691 21.5593 16.4673C21.5849 16.2437 21.6639 16.0334 21.7963 15.8364C21.9299 15.6395 22.109 15.4814 22.336 15.3635C22.563 15.2455 22.8278 15.1754 23.1294 15.1576C23.4165 15.1398 23.6746 15.1743 23.9027 15.2578C24.1309 15.3424 24.3156 15.4759 24.4547 15.6584C24.5938 15.8409 24.6772 16.0412 24.7028 16.2581C24.7295 16.4751 24.7429 16.8557 24.7429 17.3987V18.3022ZM23.3486 16.612C23.3486 16.3661 23.3352 16.2103 23.3074 16.1435C23.2796 16.0768 23.2229 16.0456 23.1372 16.0512C23.0637 16.0556 23.0081 16.0868 22.9703 16.1446C22.9313 16.2025 22.9124 16.3672 22.9124 16.6387V19.1034C22.9124 19.4094 22.9247 19.5975 22.9502 19.6676C22.9758 19.7377 23.0348 19.7699 23.1272 19.7633C23.2217 19.7577 23.2829 19.7132 23.3097 19.6286C23.3364 19.5441 23.3497 19.3471 23.3497 19.0366V16.6109L23.3486 16.612Z" fill="white"/>
<path d="M28.4282 15.4043V18.9317C28.4282 19.3312 28.4149 19.6105 28.3882 19.7696C28.3615 19.9287 28.2836 20.0856 28.1534 20.2425C28.0232 20.3994 27.8529 20.5118 27.6393 20.5808C27.4268 20.6498 27.1764 20.6743 26.8871 20.6565C26.5677 20.6364 26.284 20.5719 26.0392 20.4584C25.7944 20.346 25.6108 20.2058 25.4895 20.0367C25.3682 19.8675 25.2959 19.6906 25.2736 19.5037C25.2514 19.3178 25.2402 18.9273 25.2402 18.332C25.2402 17.2904 25.2402 16.25 25.2402 15.2085C25.7054 15.2118 26.1705 15.2263 26.6345 15.2519C26.6345 16.5716 26.6345 17.8902 26.6345 19.2099C26.6345 19.4402 26.6467 19.5882 26.6723 19.6539C26.6979 19.7195 26.7491 19.754 26.8259 19.7585C26.9138 19.764 26.9705 19.7318 26.9961 19.6628C27.0217 19.5938 27.034 19.428 27.034 19.1654V15.2764C27.498 15.3075 27.962 15.3498 28.4249 15.4021L28.4282 15.4043Z" fill="white"/>
<path d="M32.0413 16.0399V21.3177C31.6418 21.222 31.2412 21.1352 30.8395 21.0562C30.6014 20.2094 30.3622 19.3659 30.1229 18.5247V20.9237C29.7379 20.8581 29.3529 20.7991 28.9668 20.7479V15.4702C29.3529 15.5214 29.739 15.5793 30.1229 15.646C30.3811 16.4828 30.6381 17.3218 30.8952 18.1653V15.7885C31.278 15.8641 31.6607 15.9476 32.0413 16.0388V16.0399Z" fill="white"/>
<path d="M32.5879 16.1768C32.9273 16.2647 33.2655 16.3581 33.6027 16.4583C34.2559 16.6519 34.6921 16.8333 34.9202 16.9724C35.1472 17.1126 35.3197 17.275 35.4376 17.4575C35.5556 17.64 35.629 17.8225 35.659 18.0039C35.688 18.1853 35.7036 18.5269 35.7036 19.0265V20.8747C35.7036 21.3488 35.6824 21.657 35.639 21.8005C35.5956 21.9441 35.5211 22.0409 35.4131 22.0921C35.3052 22.1433 35.1728 22.1577 35.0137 22.1377C34.8556 22.1177 34.6153 22.0531 34.2948 21.9496C33.7296 21.7672 33.161 21.6025 32.5879 21.4545V16.1768ZM33.9432 17.4642C33.9432 18.6214 33.9432 19.7787 33.9432 20.9359C34.1379 20.996 34.257 20.9949 34.3015 20.9304C34.346 20.8658 34.3683 20.6566 34.3683 20.305V18.2542C34.3683 18.015 34.3605 17.8592 34.346 17.7869C34.3304 17.7146 34.2971 17.6545 34.2436 17.6055C34.1902 17.5566 34.0901 17.5087 33.9432 17.4631V17.4642Z" fill="white"/>
<path d="M27.7816 37.4844C29.3138 37.6346 30.529 37.3453 31.2389 37.115C31.6439 37.2474 32.5297 37.5178 33.5467 37.2451C35.3861 36.7511 35.6998 36.0167 35.6364 35.4703C35.5541 34.7693 34.4714 33.8546 33.0081 34.283C32.1446 34.0972 31.4659 33.7834 29.9236 33.8613C27.3632 33.9904 24.025 34.9429 24.5369 36.2682C24.8551 37.0938 26.5498 37.3631 27.7827 37.4844H27.7816Z" fill="#C6DDFF" stroke="white" stroke-width="0.333821" stroke-miterlimit="10"/>
<path d="M26.9609 34.7123C26.9609 34.7123 29.7094 30.5941 33.1689 34.551L26.9609 34.7123Z" fill="#C6DDFF"/>
<path d="M26.9609 34.7126C27.8611 32.8455 30.0688 31.8496 31.8859 33.1537C32.4211 33.5264 32.8484 34.0105 33.1689 34.5513C32.6748 34.1629 32.1864 33.7946 31.66 33.5287C29.8952 32.565 28.2895 33.4296 26.9609 34.7126Z" fill="white"/>
<path d="M24.2562 24.9366C21.2563 24.4793 18.9952 24.9656 17.6922 25.3784C16.8721 25.0635 15.0717 24.368 13.2011 24.8888C10.7264 25.5776 9.46903 27.0898 9.81954 28.9303C10.1022 30.4135 12.4 31.8545 15.0984 31.1034C16.8176 31.5708 18.2207 32.2896 21.1739 32.2729C26.0778 32.2462 32.2446 30.5827 30.8725 27.7752C30.018 26.0271 26.6708 25.305 24.2573 24.9378L24.2562 24.9366Z" fill="#C6DDFF" stroke="white" stroke-width="0.333821" stroke-miterlimit="10"/>
<path d="M17.8301 26.6951C17.8301 26.6951 24.2739 17.8989 29.2423 27.0901L17.8301 26.6951Z" fill="#C6DDFF"/>
<path d="M17.8301 26.6949C19.5904 23.9075 23.2881 21.2303 26.4872 23.4413C27.7657 24.3315 28.6503 25.7012 29.2423 27.0899C28.3944 25.8414 27.4864 24.6441 26.2201 23.8519C23.2024 21.9413 19.892 24.5017 17.8301 26.6949Z" fill="white"/>
<path d="M23.9477 31.4069C23.9477 31.4069 20.4515 35.9814 16.7305 31.1321L23.9477 31.4069Z" fill="#C6DDFF"/>
<path d="M23.9477 31.4069C22.7192 33.4644 20.1455 34.438 18.1359 32.8201C17.5439 32.3561 17.0765 31.7719 16.7305 31.1321C17.2601 31.6306 17.7931 32.1046 18.3851 32.4607C20.3658 33.7381 22.3342 32.8468 23.9477 31.4069Z" fill="white"/>
<path d="M23.0581 36.2857C22.6742 34.4675 19.1413 35.1718 19.5574 36.674C20.0426 38.4255 23.3652 37.7378 23.0581 36.2857Z" fill="#C6DDFF" stroke="white" stroke-width="0.333821" stroke-miterlimit="10"/>
<path d="M37.2363 24.7989C39.1028 25.4886 37.2982 28.8623 36.8112 27.8408C36.3728 26.9221 39.32 26.6785 39.3898 28.5911C39.4517 30.2773 36.4031 29.9838 36.7098 29.1519C37.1468 27.9698 38.9225 31.3145 37.1955 31.9135C35.7134 32.4281 34.6287 29.2795 35.5896 29.6349C36.7467 30.0627 34.1509 32.1662 33.0834 30.7209C31.8434 29.0426 35.2316 27.417 34.9683 28.5082C34.7248 29.5178 31.8579 27.754 33.0136 26.235C33.8784 25.0977 36.8638 26.8615 35.7634 27.5052C34.6103 28.1791 35.1421 24.0262 37.2363 24.8002V24.7989Z" fill="#FFFDC2" stroke="white" stroke-width="0.394889" stroke-miterlimit="10"/>
<path d="M66.7734 24.1562H53.9609V25.3438H59.7422V27.9219H61.2109V25.3438H66.7734V24.1562ZM55.5547 30.5312H65.3516V29.3281H57.0234V26.7031H55.5547V30.5312ZM55.6484 22.9219H65.0859V17.2656H63.6016V18.9688H57.1172V17.2656H55.6484V22.9219ZM57.1172 21.7344V20.0781H63.6016V21.7344H57.1172ZM72.3984 17.4688C70.2969 17.4609 68.7812 18.6406 68.7891 20.375C68.7812 22.0938 70.2969 23.2812 72.3984 23.2656C74.5078 23.2812 76.0312 22.0938 76.0391 20.375C76.0312 18.6406 74.5078 17.4609 72.3984 17.4688ZM67.7891 24.3594L67.9922 25.5938C69.1016 25.5859 70.3828 25.5781 71.7422 25.5156V30.3906H73.2266V25.4297C74.5156 25.3438 75.8359 25.1953 77.1172 24.9531L77.0078 23.8438C73.9453 24.3047 70.375 24.3594 67.7891 24.3594ZM70.2266 20.375C70.2109 19.3516 71.125 18.6641 72.3984 18.6719C73.7031 18.6641 74.6172 19.3516 74.6172 20.375C74.6172 21.3906 73.7031 22.0625 72.3984 22.0469C71.125 22.0625 70.2109 21.3906 70.2266 20.375ZM77.9766 30.8281H79.4453V16.8438H77.9766V30.8281ZM93.2734 16.8281H91.7734V30.8281H93.2734V16.8281ZM81.7734 27.0781L82.5547 28.2812C87.3594 25.9766 89.1016 22.4297 89.1016 18.3281H82.4453V19.5156H87.6016C87.3125 22.7812 85.4922 25.3047 81.7734 27.0781ZM106.367 16.8281H104.883V30.8125H106.367V23.6406H108.539V22.4062H106.367V16.8281ZM95.4766 27.0781L96.3047 28.2344C100.914 25.9609 102.695 22.3438 102.711 18.2969H96.1797V19.5312H101.195C100.891 22.7969 98.9844 25.3281 95.4766 27.0781ZM120.305 21H118.836V22.5312H113.18V23.7344H125.992V22.5312H120.305V21ZM113.836 20.7188L114.32 21.8281C116.789 21.6172 118.836 20.7109 119.586 19.3203C120.32 20.7188 122.367 21.6172 124.836 21.8281L125.32 20.7188C122.789 20.5469 120.82 19.5859 120.578 18.375H124.82V17.2344H114.367V18.375H118.562C118.32 19.5781 116.328 20.5469 113.836 20.7188ZM114.367 26.5938H124.773V25.4531H120.305V24.2188H118.836V25.4531H114.367V26.5938ZM115.32 29.0312C115.312 30.2578 116.836 30.8984 119.555 30.8906C122.273 30.8984 123.828 30.2578 123.836 29.0312C123.828 27.8203 122.273 27.1953 119.555 27.1875C116.836 27.1953 115.312 27.8203 115.32 29.0312ZM116.836 29.0312C116.82 28.4688 117.805 28.2109 119.555 28.2031C121.336 28.2109 122.297 28.4688 122.305 29.0312C122.297 29.5938 121.336 29.8906 119.555 29.875C117.805 29.8906 116.82 29.5938 116.836 29.0312ZM130.773 17.875C128.68 17.8828 127.188 19.7891 127.195 22.7812C127.188 25.8047 128.68 27.7109 130.773 27.7031C132.867 27.7109 134.359 25.8047 134.367 22.7812C134.359 19.7891 132.867 17.8828 130.773 17.875ZM128.617 22.7812C128.609 20.5859 129.5 19.2109 130.773 19.2031C132.07 19.2109 132.945 20.5859 132.945 22.7812C132.945 25.0078 132.07 26.375 130.773 26.375C129.5 26.375 128.609 25.0078 128.617 22.7812ZM136.445 30.8281H137.93V23.5625H140.18V22.3125H137.93V16.8281H136.445V30.8281ZM153.664 27.8438H150.602V24.1562C151.727 23.5234 152.398 22.5312 152.398 21.2969C152.398 19.0938 150.234 17.6484 147.227 17.6406C144.227 17.6484 142.062 19.0938 142.07 21.2969C142.062 22.5547 142.766 23.5547 143.914 24.1875V27.8438H140.852V29.0781H153.664V27.8438ZM143.508 21.2969C143.508 19.7891 145.031 18.8281 147.227 18.8281C149.406 18.8281 150.953 19.7891 150.961 21.2969C150.953 22.7969 149.406 23.7734 147.227 23.7812C145.031 23.7734 143.508 22.7969 143.508 21.2969ZM145.383 27.8438V24.7344C145.945 24.8672 146.57 24.9375 147.227 24.9375C147.898 24.9375 148.531 24.8672 149.102 24.7344V27.8438H145.383ZM157.258 18.1875H155.43L155.57 26.2344H157.117L157.258 18.1875ZM155.242 28.5C155.234 29.1094 155.742 29.6016 156.352 29.6094C156.953 29.6016 157.453 29.1094 157.461 28.5C157.453 27.8906 156.953 27.3906 156.352 27.3906C155.742 27.3906 155.234 27.8906 155.242 28.5Z" fill="white"/>
</svg>
