<svg width="187" height="56" viewBox="0 0 187 56" fill="none" xmlns="http://www.w3.org/2000/svg">
<g filter="url(#filter0_d_1640_10074)">
<rect x="4" width="179" height="48" rx="24" fill="#FF5D5D" shape-rendering="crispEdges"/>
<path d="M29 43C39.4934 43 48 34.4934 48 24C48 13.5066 39.4934 5 29 5C18.5066 5 10 13.5066 10 24C10 34.4934 18.5066 43 29 43Z" fill="white" stroke="#FF5D5D" stroke-width="0.541667" stroke-miterlimit="10"/>
<path d="M21.0558 8.3236C21.5075 8.2012 21.9616 8.08881 22.4167 7.98755C22.8484 7.89186 23.1767 7.86182 23.4003 7.8863C23.624 7.91189 23.8043 8.01648 23.9422 8.19786C24.0802 8.38035 24.1492 8.6997 24.1492 9.15593C24.1492 9.46416 24.1003 9.6867 24.0034 9.82468C23.9066 9.96266 23.7141 10.0884 23.4281 10.2064C23.7464 10.2186 23.9634 10.302 24.0769 10.4489C24.1904 10.5969 24.2471 10.8428 24.2471 11.1867V11.6763C24.2471 12.0335 24.2059 12.3039 24.1236 12.4886C24.0413 12.6733 23.9111 12.8124 23.7319 12.907C23.5528 13.0016 23.1856 13.0984 22.6337 13.2163C22.1051 13.3298 21.5788 13.4578 21.0547 13.6002V8.32249L21.0558 8.3236ZM22.42 8.88887V10.0628C22.479 10.0472 22.5246 10.0361 22.5569 10.0294C22.6915 10.0005 22.7772 9.94931 22.8139 9.87476C22.8506 9.80132 22.8695 9.6077 22.8695 9.29391C22.8695 9.12922 22.854 9.01684 22.8239 8.95675C22.7939 8.89666 22.7538 8.86328 22.7049 8.8566C22.6559 8.84992 22.5613 8.85994 22.42 8.88887ZM22.42 10.884V12.3606C22.6125 12.3117 22.736 12.2549 22.7894 12.1893C22.8428 12.1236 22.8695 11.9845 22.8695 11.772V11.2801C22.8695 11.0543 22.8451 10.9218 22.7983 10.884C22.7505 10.8462 22.6236 10.8451 22.42 10.884V10.884Z" fill="#FF5D5D"/>
<path d="M27.1439 7.31958C27.4099 9.06213 27.6758 10.8091 27.9407 12.5595C27.4655 12.5762 26.9904 12.604 26.5163 12.6429C26.4919 12.3291 26.4663 12.0142 26.4418 11.7004C26.276 11.7149 26.1102 11.7305 25.9444 11.7472C25.9166 12.0665 25.8888 12.3848 25.861 12.7041C25.3825 12.7542 24.904 12.8154 24.4277 12.8877C24.6625 11.0929 24.8984 9.30026 25.1343 7.51097C25.802 7.42529 26.473 7.36187 27.1439 7.32069V7.31958ZM26.4062 10.768C26.3361 10.176 26.2649 9.4438 26.1948 8.5703C26.0535 9.59402 25.9644 10.3418 25.9277 10.8136C26.0868 10.7969 26.2471 10.7824 26.4062 10.7691V10.768Z" fill="#FF5D5D"/>
<path d="M31.4335 9.65922C30.9695 9.62139 30.5054 9.59468 30.0403 9.5791V8.6622C30.0403 8.39515 30.0248 8.22824 29.9958 8.16147C29.9658 8.09471 29.9001 8.0591 29.7989 8.05687C29.6843 8.05354 29.6108 8.09249 29.5797 8.1726C29.5485 8.25272 29.5329 8.42631 29.5329 8.69336V11.1447C29.5329 11.4007 29.5485 11.5687 29.5797 11.6477C29.6108 11.7267 29.6798 11.7667 29.7888 11.7701C29.8923 11.7734 29.9602 11.7356 29.9925 11.6588C30.0248 11.5809 30.0403 11.3984 30.0403 11.108V10.4448C30.5054 10.4604 30.9695 10.4871 31.4335 10.5249C31.4335 10.5939 31.4335 10.6618 31.4335 10.7308C31.4335 11.2771 31.3945 11.661 31.3167 11.8836C31.2388 12.1061 31.0652 12.2931 30.797 12.4489C30.5288 12.6046 30.1983 12.6747 29.8056 12.6636C29.3972 12.6525 29.06 12.579 28.7952 12.4355C28.5303 12.292 28.3545 12.095 28.2677 11.8391C28.1821 11.5831 28.1387 11.1981 28.1387 10.6807V9.13846C28.1387 8.7579 28.152 8.47304 28.1787 8.28165C28.2054 8.09137 28.2844 7.90554 28.4157 7.72639C28.547 7.54836 28.7295 7.40592 28.9621 7.30466C29.1946 7.2034 29.4628 7.15556 29.7655 7.16223C30.1761 7.17225 30.5155 7.26794 30.7825 7.43931C31.0496 7.61178 31.2243 7.81986 31.3089 8.0591C31.3923 8.29834 31.4346 8.66554 31.4346 9.15737C31.4346 9.32428 31.4346 9.4912 31.4346 9.65922H31.4335Z" fill="#FF5D5D"/>
<path d="M35.2276 7.91033C34.965 8.64919 34.7024 9.3925 34.4386 10.138C34.7268 11.1562 35.015 12.1777 35.3021 13.2036C34.8292 13.1035 34.3552 13.0145 33.8789 12.9366C33.692 12.1521 33.5062 11.3687 33.3192 10.5876V12.8498C32.8575 12.783 32.3957 12.7274 31.9316 12.6829C31.9316 10.9236 31.9316 9.16439 31.9316 7.40515C32.3945 7.45077 32.8575 7.50641 33.3192 7.57206V9.62284C33.5251 8.96855 33.7298 8.31759 33.9346 7.66776C34.3663 7.73897 34.797 7.8202 35.2265 7.91033H35.2276Z" fill="#FF5D5D"/>
<path d="M37.1031 11.0272C37.1031 11.3299 37.1031 11.6337 37.1031 11.9363C36.5323 11.7783 35.9592 11.637 35.3828 11.5124V10.6033C35.9592 10.7279 36.5334 10.8692 37.1031 11.0272Z" fill="#FF5D5D"/>
<path d="M21.4214 18.1814C20.9674 18.2982 20.5157 18.4273 20.0661 18.5653V18.0857C20.0661 17.7841 20.0528 17.5983 20.0272 17.5304C20.0016 17.4625 19.9404 17.4436 19.8447 17.4737C19.7612 17.5004 19.7056 17.5504 19.6755 17.6261C19.6455 17.7007 19.631 17.8731 19.631 18.1424V20.675C19.631 20.912 19.6455 21.0634 19.6755 21.1279C19.7056 21.1935 19.7646 21.2113 19.8547 21.1835C19.9526 21.1524 20.0194 21.0901 20.055 20.9932C20.0906 20.8976 20.1073 20.7273 20.1073 20.4814V19.856C20.0161 19.8839 19.9259 19.9117 19.8358 19.9406C19.8358 19.6735 19.8358 19.4065 19.8358 19.1383C20.361 18.9714 20.8895 18.819 21.4214 18.6821V21.5151C21.1366 21.5886 20.8517 21.6665 20.568 21.7488C20.5268 21.6353 20.4845 21.5207 20.4433 21.4072C20.351 21.5975 20.2353 21.7544 20.095 21.879C19.9548 22.0036 19.7902 22.096 19.601 22.1583C19.3751 22.2317 19.1648 22.2473 18.9689 22.205C18.7731 22.1616 18.6251 22.0771 18.5239 21.9491C18.4226 21.8211 18.3592 21.672 18.3347 21.4995C18.3091 21.3271 18.2969 21.06 18.2969 20.6973V19.1294C18.2969 18.6253 18.3236 18.2492 18.3759 18.0011C18.4282 17.753 18.5795 17.487 18.8299 17.2077C19.0802 16.9284 19.4051 16.7215 19.8046 16.5935C20.1985 16.4677 20.5279 16.4544 20.7894 16.5456C21.0509 16.6369 21.2223 16.7882 21.3024 16.9941C21.3825 17.1999 21.4214 17.5204 21.4225 17.9521V18.1803L21.4214 18.1814Z" fill="#FF5D5D"/>
<path d="M21.9503 16.107C22.273 16.0302 22.5957 15.9579 22.9195 15.8911C23.5682 15.7587 24.01 15.7131 24.2404 15.7253C24.4707 15.7387 24.6599 15.8388 24.8056 16.0235C24.9514 16.2082 25.0248 16.5265 25.0248 16.9771C25.0248 17.3877 24.9736 17.6704 24.8702 17.8261C24.7667 17.9819 24.5642 18.0943 24.2615 18.17C24.5352 18.1945 24.7188 18.259 24.8134 18.358C24.908 18.4582 24.9659 18.5539 24.9892 18.6451C25.0126 18.7364 25.0237 18.9956 25.0237 19.4218V20.8138C24.5942 20.8706 24.1669 20.9362 23.7396 21.0119V19.2582C23.7396 18.9756 23.7174 18.8042 23.6728 18.7453C23.6283 18.6863 23.5104 18.6729 23.3212 18.7097V21.0898C22.8628 21.1777 22.4054 21.2756 21.9492 21.3847V16.107H21.9503ZM23.3223 16.7145V17.8885C23.477 17.8584 23.5861 17.8184 23.6484 17.7649C23.7107 17.7115 23.7419 17.568 23.7419 17.3354V17.045C23.7419 16.8781 23.7118 16.7735 23.6517 16.7323C23.5916 16.6912 23.4826 16.6845 23.3223 16.7145Z" fill="#FF5D5D"/>
<path d="M28.7468 18.3663C28.7468 18.8971 28.7334 19.2721 28.7089 19.4935C28.6833 19.7138 28.6043 19.9164 28.4708 20.1011C28.3373 20.2858 28.1559 20.4305 27.9289 20.5362C27.7008 20.6419 27.436 20.7031 27.1344 20.722C26.8473 20.7398 26.5903 20.7131 26.3622 20.6408C26.1341 20.5684 25.9505 20.4483 25.8125 20.278C25.6734 20.1078 25.591 19.9164 25.5654 19.7016C25.5387 19.4869 25.5265 19.1085 25.5254 18.5655C25.5254 18.2639 25.5254 17.9635 25.5254 17.662C25.5254 17.1323 25.5376 16.7551 25.5632 16.5314C25.5888 16.3078 25.6678 16.0974 25.8002 15.9005C25.9338 15.7035 26.1129 15.5455 26.3399 15.4276C26.5669 15.3096 26.8317 15.2395 27.1333 15.2217C27.4204 15.2039 27.6785 15.2384 27.9066 15.3219C28.1348 15.4064 28.3195 15.54 28.4586 15.7225C28.5976 15.9049 28.6811 16.1052 28.7067 16.3222C28.7334 16.5392 28.7468 16.9198 28.7468 17.4628V18.3663V18.3663ZM27.3525 16.6761C27.3525 16.4302 27.3392 16.2744 27.3113 16.2076C27.2835 16.1408 27.2268 16.1097 27.1411 16.1153C27.0676 16.1197 27.012 16.1509 26.9742 16.2087C26.9352 16.2666 26.9163 16.4313 26.9163 16.7028V19.1675C26.9163 19.4735 26.9286 19.6615 26.9542 19.7316C26.9797 19.8018 27.0387 19.834 27.1311 19.8273C27.2256 19.8218 27.2869 19.7773 27.3136 19.6927C27.3403 19.6081 27.3536 19.4112 27.3536 19.1007V16.675L27.3525 16.6761Z" fill="#FF5D5D"/>
<path d="M32.4282 15.4692V18.9965C32.4282 19.396 32.4149 19.6753 32.3882 19.8344C32.3615 19.9935 32.2836 20.1504 32.1534 20.3073C32.0232 20.4642 31.8529 20.5766 31.6393 20.6456C31.4268 20.7146 31.1764 20.7391 30.8871 20.7213C30.5677 20.7012 30.284 20.6367 30.0392 20.5232C29.7944 20.4108 29.6108 20.2706 29.4895 20.1015C29.3682 19.9323 29.2959 19.7554 29.2736 19.5685C29.2514 19.3827 29.2402 18.9921 29.2402 18.3968C29.2402 17.3552 29.2402 16.3148 29.2402 15.2733C29.7054 15.2767 30.1705 15.2911 30.6345 15.3167C30.6345 16.6364 30.6345 17.955 30.6345 19.2747C30.6345 19.5051 30.6467 19.653 30.6723 19.7187C30.6979 19.7843 30.7491 19.8188 30.8259 19.8233C30.9138 19.8289 30.9705 19.7966 30.9961 19.7276C31.0217 19.6586 31.034 19.4928 31.034 19.2302V15.3412C31.498 15.3723 31.962 15.4146 32.4249 15.4669L32.4282 15.4692Z" fill="#FF5D5D"/>
<path d="M36.0413 16.1048V21.3825C35.6418 21.2868 35.2412 21.2 34.8395 21.121C34.6014 20.2742 34.3622 19.4307 34.1229 18.5895V20.9886C33.7379 20.9229 33.3529 20.8639 32.9668 20.8127V15.535C33.3529 15.5862 33.7391 15.6441 34.1229 15.7108C34.3811 16.5476 34.6381 17.3866 34.8952 18.2301V15.8533C35.278 15.9289 35.6607 16.0124 36.0413 16.1036V16.1048Z" fill="#FF5D5D"/>
<path d="M36.5879 16.2411C36.9273 16.329 37.2656 16.4225 37.6027 16.5226C38.2559 16.7162 38.6921 16.8976 38.9202 17.0367C39.1472 17.1769 39.3197 17.3394 39.4376 17.5219C39.5556 17.7043 39.629 17.8868 39.6591 18.0682C39.688 18.2496 39.7036 18.5912 39.7036 19.0908V20.9391C39.7036 21.4131 39.6824 21.7213 39.639 21.8649C39.5956 22.0084 39.5211 22.1052 39.4131 22.1564C39.3052 22.2076 39.1728 22.2221 39.0137 22.202C38.8557 22.182 38.6153 22.1175 38.2948 22.014C37.7296 21.8315 37.161 21.6668 36.5879 21.5188V16.2411V16.2411ZM37.9432 17.5285C37.9432 18.6858 37.9432 19.843 37.9432 21.0003C38.1379 21.0604 38.257 21.0592 38.3015 20.9947C38.346 20.9302 38.3683 20.721 38.3683 20.3694V18.3186C38.3683 18.0793 38.3605 17.9236 38.346 17.8512C38.3304 17.7789 38.2971 17.7188 38.2437 17.6698C38.1902 17.6209 38.0901 17.573 37.9432 17.5274V17.5285Z" fill="#FF5D5D"/>
<path d="M32.5746 37.4847C34.1068 37.635 35.3219 37.3457 36.0318 37.1153C36.4369 37.2477 37.3226 37.5181 38.3397 37.2455C40.179 36.7515 40.4928 36.017 40.4294 35.4707C40.347 34.7697 39.2644 33.855 37.8011 34.2834C36.9376 34.0976 36.2589 33.7838 34.7166 33.8617C32.1562 33.9908 28.818 34.9433 29.3298 36.2685C29.6481 37.0942 31.3428 37.3635 32.5757 37.4847H32.5746Z" fill="#FF5D5D" stroke="white" stroke-width="0.335648" stroke-miterlimit="10"/>
<path d="M31.752 34.7126C31.752 34.7126 34.5004 30.5943 37.9599 34.5512Z" fill="#FF5D5D"/>
<path d="M31.752 34.7127C32.6522 32.8456 34.8598 31.8497 36.6769 33.1538C37.2122 33.5266 37.6395 34.0106 37.9599 34.5514C37.4659 34.1631 36.9774 33.7947 36.451 33.5288C34.6862 32.5652 33.0806 33.4298 31.752 34.7127V34.7127Z" fill="white"/>
<path d="M29.0472 24.9377C26.0473 24.4804 23.7862 24.9667 22.4832 25.3795C21.6631 25.0646 19.8627 24.3691 17.9922 24.8899C15.5175 25.5787 14.26 27.0909 14.6106 28.9314C14.8932 30.4146 17.191 31.8556 19.8894 31.1045C21.6086 31.5719 23.0117 32.2907 25.9649 32.274C30.8688 32.2473 37.0356 30.5838 35.6636 27.7763C34.809 26.0282 31.4619 25.3061 29.0483 24.9389L29.0472 24.9377Z" fill="#FF5D5D" stroke="white" stroke-width="0.335648" stroke-miterlimit="10"/>
<path d="M22.627 26.695C22.627 26.695 29.0708 17.8988 34.0392 27.09Z" fill="#FF5D5D"/>
<path d="M22.627 26.6959C24.3873 23.9085 28.0849 21.2312 31.2841 23.4422C32.5626 24.3324 33.4472 25.7022 34.0392 27.0909C33.1913 25.8424 32.2833 24.6451 31.017 23.8528C27.9993 21.9423 24.6889 24.5027 22.627 26.6959V26.6959Z" fill="white"/>
<path d="M28.7387 31.4066C28.7387 31.4066 25.2425 35.981 21.5215 31.1317Z" fill="#FF5D5D"/>
<path d="M28.7387 31.4066C27.5102 33.464 24.9365 34.4377 22.9269 32.8197C22.3349 32.3557 21.8675 31.7715 21.5215 31.1317C22.0511 31.6302 22.5841 32.1042 23.1761 32.4603C25.1568 33.7377 27.1252 32.8464 28.7387 31.4066V31.4066Z" fill="white"/>
<path d="M27.8472 36.2861C27.4633 34.4678 23.9303 35.1722 24.3465 36.6744C24.8317 38.4259 28.1543 37.7382 27.8472 36.2861Z" fill="#FF5D5D" stroke="white" stroke-width="0.335648" stroke-miterlimit="10"/>
<path d="M40.9538 24.3181C42.9275 24.6883 41.6969 28.39 41.041 27.4481C40.4503 26.6003 43.3442 25.8468 43.7339 27.7557C44.0776 29.4389 40.9937 29.6711 41.1604 28.7823C41.3973 27.5192 43.7254 30.5723 42.1067 31.4727C40.7168 32.2459 39.1105 29.2705 40.1268 29.4611C41.3507 29.6907 39.1182 32.2528 37.8138 30.9861C36.2977 29.5144 39.3979 27.2946 39.3185 28.4371C39.2451 29.4939 36.0958 28.2181 36.9915 26.4913C37.6615 25.1994 40.9291 26.4548 39.9413 27.2912C38.9536 28.1277 38.7403 23.9029 40.9538 24.3181Z" fill="#FF5D5D" stroke="white" stroke-width="0.352505" stroke-miterlimit="10"/>
<path d="M70.6875 25.3438H65.125V27.9219H63.6562V25.3438H57.875V24.1562H70.6875V25.3438ZM59.4688 26.7031H60.9375V29.3281H69.2656V30.5312H59.4688V26.7031ZM59.5625 17.2656H61.0312V18.9688H67.5156V17.2656H69V22.9219H59.5625V17.2656ZM67.5156 21.7344V20.0781H61.0312V21.7344H67.5156ZM76.3125 17.4688C77.0104 17.4688 77.6354 17.5911 78.1875 17.8359C78.7396 18.0755 79.1719 18.4167 79.4844 18.8594C79.7969 19.3021 79.9531 19.8073 79.9531 20.375C79.9531 20.9375 79.7969 21.4401 79.4844 21.8828C79.1719 22.3255 78.7396 22.6693 78.1875 22.9141C77.6354 23.1536 77.0104 23.2708 76.3125 23.2656C75.6198 23.2708 74.9974 23.1536 74.4453 22.9141C73.8984 22.6693 73.4714 22.3255 73.1641 21.8828C72.8568 21.4401 72.7031 20.9375 72.7031 20.375C72.7031 19.8073 72.8568 19.3021 73.1641 18.8594C73.4714 18.4167 73.8984 18.0755 74.4453 17.8359C74.9974 17.5911 75.6198 17.4688 76.3125 17.4688ZM71.7031 24.3594C73.3854 24.3594 75 24.3255 76.5469 24.2578C78.099 24.1849 79.5573 24.0469 80.9219 23.8438L81.0312 24.9531C79.849 25.1771 78.5521 25.3359 77.1406 25.4297V30.3906H75.6562V25.5156C74.7708 25.5573 73.5208 25.5833 71.9062 25.5938L71.7031 24.3594ZM74.1406 20.375C74.1354 20.7083 74.224 21.0026 74.4062 21.2578C74.5938 21.513 74.8516 21.7109 75.1797 21.8516C75.513 21.987 75.8906 22.0521 76.3125 22.0469C76.7448 22.0521 77.1276 21.987 77.4609 21.8516C77.7995 21.7109 78.0625 21.513 78.25 21.2578C78.4375 21.0026 78.5312 20.7083 78.5312 20.375C78.5312 20.0365 78.4375 19.7396 78.25 19.4844C78.0625 19.224 77.7995 19.0234 77.4609 18.8828C77.1276 18.7422 76.7448 18.6719 76.3125 18.6719C75.8906 18.6719 75.513 18.7422 75.1797 18.8828C74.8516 19.0234 74.5938 19.224 74.4062 19.4844C74.224 19.7448 74.1354 20.0417 74.1406 20.375ZM81.8906 16.8438H83.3594V30.8281H81.8906V16.8438ZM97.1875 30.8281H95.6875V16.8281H97.1875V30.8281ZM85.6875 27.0781C87.5208 26.2031 88.9141 25.138 89.8672 23.8828C90.8203 22.6276 91.3698 21.1719 91.5156 19.5156H86.3594V18.3281H93.0156C93.0156 20.4948 92.4974 22.4193 91.4609 24.1016C90.4297 25.7839 88.7656 27.1771 86.4688 28.2812L85.6875 27.0781ZM100.641 32.7344H99.3125L100.141 28.4219H101.891L100.641 32.7344ZM109.25 21.4688H111.922V18.125H113.297V27.375H107.844V18.125H109.25V21.4688ZM111.922 26.1719V22.6406H109.25V26.1719H111.922ZM114.859 17.0938H116.266V22.3125H118V16.8281H119.422V30.8281H118V23.5312H116.266V30.1406H114.859V17.0938ZM132.875 25.125H131.391V23.4219H127.859V22.2031H131.391V20.5H128.008C127.56 21.6146 126.823 22.5677 125.797 23.3594C124.771 24.151 123.495 24.7656 121.969 25.2031L121.375 24.0469C123.026 23.5781 124.323 22.9141 125.266 22.0547C126.214 21.1953 126.755 20.1979 126.891 19.0625H122.094V17.8438H128.5C128.5 18.3385 128.451 18.8333 128.352 19.3281H131.391V16.8438H132.875V25.125ZM123.547 28.0156C123.547 27.4583 123.74 26.974 124.125 26.5625C124.51 26.151 125.057 25.8359 125.766 25.6172C126.479 25.3932 127.312 25.2812 128.266 25.2812C129.208 25.2812 130.034 25.3932 130.742 25.6172C131.451 25.8359 131.997 26.151 132.383 26.5625C132.773 26.974 132.969 27.4583 132.969 28.0156C132.969 28.5781 132.773 29.0677 132.383 29.4844C131.997 29.8958 131.451 30.2109 130.742 30.4297C130.034 30.6536 129.208 30.7656 128.266 30.7656C127.312 30.7656 126.479 30.6536 125.766 30.4297C125.057 30.2109 124.51 29.8958 124.125 29.4844C123.74 29.0677 123.547 28.5781 123.547 28.0156ZM125.016 28.0156C125.016 28.3385 125.146 28.6172 125.406 28.8516C125.672 29.0859 126.047 29.2656 126.531 29.3906C127.021 29.5156 127.599 29.5781 128.266 29.5781C128.917 29.5781 129.484 29.5156 129.969 29.3906C130.453 29.2656 130.826 29.0859 131.086 28.8516C131.352 28.6172 131.484 28.3385 131.484 28.0156C131.484 27.6875 131.354 27.4062 131.094 27.1719C130.833 26.9375 130.464 26.7604 129.984 26.6406C129.51 26.5156 128.951 26.4531 128.305 26.4531C127.279 26.4531 126.474 26.5885 125.891 26.8594C125.307 27.1302 125.016 27.5156 125.016 28.0156ZM150.109 18.3438C150.109 19.0469 150.091 19.6953 150.055 20.2891C150.018 20.8776 149.927 21.5417 149.781 22.2812H151.75V23.4844H146.016V25.5781H144.562V23.4844H138.938V22.2812H148.312C148.453 21.5677 148.544 20.9245 148.586 20.3516C148.633 19.7786 148.656 19.1927 148.656 18.5938H140.547V17.3906H150.109V18.3438ZM139.875 29.6406C140.75 29.5365 141.542 29.3359 142.25 29.0391C142.964 28.737 143.523 28.375 143.93 27.9531C144.336 27.526 144.542 27.0729 144.547 26.5938V26.125H146.047V26.5938C146.047 27.0885 146.247 27.5495 146.648 27.9766C147.049 28.3984 147.604 28.7552 148.312 29.0469C149.021 29.3385 149.823 29.5365 150.719 29.6406L150.219 30.7656C149.068 30.625 148.06 30.3411 147.195 29.9141C146.331 29.487 145.693 28.9453 145.281 28.2891C144.859 28.9349 144.216 29.474 143.352 29.9062C142.492 30.3438 141.505 30.6302 140.391 30.7656L139.875 29.6406ZM155.203 26.2344H153.656L153.516 18.1875H155.344L155.203 26.2344ZM153.328 28.5156C153.328 28.3125 153.378 28.125 153.477 27.9531C153.576 27.7812 153.708 27.6458 153.875 27.5469C154.047 27.4427 154.234 27.3906 154.438 27.3906C154.635 27.3906 154.818 27.4401 154.984 27.5391C155.156 27.638 155.292 27.7734 155.391 27.9453C155.495 28.1172 155.547 28.3021 155.547 28.5C155.547 28.6979 155.495 28.8828 155.391 29.0547C155.292 29.2214 155.156 29.3568 154.984 29.4609C154.818 29.5599 154.635 29.6094 154.438 29.6094C154.24 29.6094 154.055 29.5599 153.883 29.4609C153.716 29.362 153.581 29.2292 153.477 29.0625C153.378 28.8958 153.328 28.7135 153.328 28.5156Z" fill="white"/>
</g>
<defs>
<filter id="filter0_d_1640_10074" x="0" y="0" width="187" height="56" filterUnits="userSpaceOnUse" color-interpolation-filters="sRGB">
<feFlood flood-opacity="0" result="BackgroundImageFix"/>
<feColorMatrix in="SourceAlpha" type="matrix" values="0 0 0 0 0 0 0 0 0 0 0 0 0 0 0 0 0 0 127 0" result="hardAlpha"/>
<feOffset dy="4"/>
<feGaussianBlur stdDeviation="2"/>
<feComposite in2="hardAlpha" operator="out"/>
<feColorMatrix type="matrix" values="0 0 0 0 0 0 0 0 0 0 0 0 0 0 0 0 0 0 0.25 0"/>
<feBlend mode="normal" in2="BackgroundImageFix" result="effect1_dropShadow_1640_10074"/>
<feBlend mode="normal" in="SourceGraphic" in2="effect1_dropShadow_1640_10074" result="shape"/>
</filter>
</defs>
</svg>
