<svg width="140" height="112" viewBox="0 0 140 112" fill="none" xmlns="http://www.w3.org/2000/svg">
<path d="M16.3878 75.9903C7.81146 110.597 32.6205 111.757 41.7999 105.992C56.2897 96.8945 57.3835 77.4776 55.0733 77.4776C51.2553 77.4776 34.7416 109.043 62.1623 110.613C89.5933 112.182 94.2699 77.7894 91.4435 77.7894C87.6 77.7894 66.5578 114.175 101.405 110.439C134.335 106.912 128.422 51.8202 128.422 51.8202C145.805 31.6111 139.17 9.54676 124.318 9.54676C99.2123 9.54676 79.6676 42.6868 84.472 42.8657C92.4862 43.1672 97.5103 8.19232 78.0475 8.19232C54.782 8.19232 22.3319 51.9991 16.3827 75.9852L16.3878 75.9903Z" fill="#C3CDD5" stroke="#F4F5F7" stroke-width="1.91654" stroke-linecap="round" stroke-linejoin="round"/>
<path d="M32.7097 65.2459C32.7097 65.2459 36.5328 33.1229 52.7143 33.1229C36.5328 33.1229 32.7097 1 32.7097 1C32.7097 1 28.8866 33.1229 12.7051 33.1229C28.8866 33.1229 32.7097 65.2459 32.7097 65.2459V65.2459Z" fill="#E8EBEF" stroke="#F4F5F7" stroke-width="1.12177" stroke-linecap="round" stroke-linejoin="round"/>
<path d="M9.43323 70.1575C9.43323 70.1575 11.0432 56.6132 17.8665 56.6132C11.0432 56.6132 9.43323 43.069 9.43323 43.069C9.43323 43.069 7.82325 56.6132 1 56.6132C7.82325 56.6132 9.43323 70.1575 9.43323 70.1575Z" fill="#E8EBEF" stroke="#F4F5F7" stroke-width="1.12177" stroke-linecap="round" stroke-linejoin="round"/>
<path d="M120.358 107.537C120.358 107.537 122.923 85.9683 133.789 85.9683C122.923 85.9683 120.358 64.3997 120.358 64.3997C120.358 64.3997 117.792 85.9683 106.926 85.9683C117.792 85.9683 120.358 107.537 120.358 107.537V107.537Z" fill="#E8EBEF" stroke="#F4F5F7" stroke-width="1.12177" stroke-linecap="round" stroke-linejoin="round"/>
<path d="M44.0392 71.3022C44.0392 71.3022 43.9319 82.4699 49.9527 82.4699" stroke="#F4F5F7" stroke-width="1.91654" stroke-miterlimit="10" stroke-linecap="round"/>
<path d="M48.8576 71.9125C48.8576 71.9125 47.3345 79.3031 51.3262 80.0902" stroke="#F4F5F7" stroke-width="1.91654" stroke-miterlimit="10" stroke-linecap="round"/>
<path d="M80.4044 71.3022C80.4044 71.3022 80.2971 82.4699 86.3179 82.4699" stroke="#F4F5F7" stroke-width="1.91654" stroke-miterlimit="10" stroke-linecap="round"/>
<path d="M85.2287 71.9125C85.2287 71.9125 83.7056 79.3031 87.6973 80.0902" stroke="#F4F5F7" stroke-width="1.91654" stroke-miterlimit="10" stroke-linecap="round"/>
<path d="M54.5328 78.1775C55.0069 78.2899 55.3931 78.8157 55.5814 79.6964C55.7663 80.5619 55.742 81.7047 55.4548 82.9157C55.1676 84.1267 54.6763 85.1587 54.1224 85.849C53.5587 86.5515 52.9775 86.8478 52.5035 86.7354C52.0294 86.623 51.6432 86.0972 51.455 85.2165C51.27 84.351 51.2944 83.2082 51.5815 81.9972C51.8687 80.7862 52.36 79.7542 52.9139 79.0639C53.4776 78.3614 54.0588 78.065 54.5328 78.1775Z" fill="#F4F5F7" stroke="#F4F5F7" stroke-width="0.373924"/>
<path d="M91.068 78.1822C91.542 78.2946 91.9283 78.8204 92.1165 79.7012C92.3015 80.5667 92.2771 81.7094 91.99 82.9204C91.7028 84.1314 91.2115 85.1635 90.6576 85.8538C90.0939 86.5562 89.5127 86.8526 89.0387 86.7402C88.5646 86.6278 88.1784 86.102 87.9901 85.2212C87.8051 84.3557 87.8295 83.213 88.1167 82.002C88.4038 80.791 88.8952 79.7589 89.4491 79.0686C90.0127 78.3662 90.5939 78.0698 91.068 78.1822Z" fill="#F4F5F7" stroke="#F4F5F7" stroke-width="0.373924"/>
</svg>
