<svg width="170" height="48" viewBox="0 0 170 48" fill="none" xmlns="http://www.w3.org/2000/svg">
<rect width="170" height="48" rx="24" fill="#FF5E67"/>
<path d="M25 43C35.4934 43 44 34.4934 44 24C44 13.5066 35.4934 5 25 5C14.5066 5 6 13.5066 6 24C6 34.4934 14.5066 43 25 43Z" fill="#FFFDC2" stroke="white" stroke-width="0.703704" stroke-miterlimit="10"/>
<path d="M12.3492 30.6384C10.482 38.1727 15.8833 38.4253 17.8818 37.1702C21.0364 35.1895 21.2745 30.9622 20.7715 30.9622C19.9403 30.9622 16.3451 37.8345 22.3149 38.1761C28.287 38.5177 29.3051 31.0301 28.6898 31.0301C27.853 31.0301 23.2719 38.9517 30.8585 38.1383C38.0279 37.3705 36.7404 25.3763 36.7404 25.3763C40.5249 20.9765 39.0805 16.1728 35.8469 16.1728C30.3811 16.1728 26.126 23.3878 27.172 23.4267C28.9168 23.4924 30.0106 15.8779 25.7733 15.8779C20.7081 15.8779 13.6433 25.4152 12.3481 30.6373L12.3492 30.6384Z" fill="#FF5E67" stroke="white" stroke-width="0.333821" stroke-linecap="round" stroke-linejoin="round"/>
<path d="M15.9021 28.2996C15.9021 28.2996 16.7345 21.3061 20.2574 21.3061C16.7345 21.3061 15.9021 14.3125 15.9021 14.3125C15.9021 14.3125 15.0698 21.3061 11.5469 21.3061C15.0698 21.3061 15.9021 28.2996 15.9021 28.2996Z" fill="#3973CB" stroke="white" stroke-width="0.333821" stroke-linecap="round" stroke-linejoin="round"/>
<path d="M10.8341 29.3689C10.8341 29.3689 11.1846 26.4202 12.6701 26.4202C11.1846 26.4202 10.8341 23.4714 10.8341 23.4714C10.8341 23.4714 10.4836 26.4202 8.99805 26.4202C10.4836 26.4202 10.8341 29.3689 10.8341 29.3689Z" fill="#3973CB" stroke="white" stroke-width="0.333821" stroke-linecap="round" stroke-linejoin="round"/>
<path d="M34.9848 37.5063C34.9848 37.5063 35.5434 32.8105 37.9091 32.8105C35.5434 32.8105 34.9848 28.1147 34.9848 28.1147C34.9848 28.1147 34.4262 32.8105 32.0605 32.8105C34.4262 32.8105 34.9848 37.5063 34.9848 37.5063Z" fill="#3973CB" stroke="white" stroke-width="0.333821" stroke-linecap="round" stroke-linejoin="round"/>
<path d="M18.3692 29.6182C18.3692 29.6182 18.3458 32.0495 19.6566 32.0495" stroke="white" stroke-width="0.333821" stroke-miterlimit="10" stroke-linecap="round"/>
<path d="M19.4195 29.752C19.4195 29.752 19.0879 31.361 19.957 31.5323" stroke="white" stroke-width="0.333821" stroke-miterlimit="10" stroke-linecap="round"/>
<path d="M26.2871 29.6182C26.2871 29.6182 26.2638 32.0495 27.5746 32.0495" stroke="white" stroke-width="0.333821" stroke-miterlimit="10" stroke-linecap="round"/>
<path d="M27.3375 29.752C27.3375 29.752 27.0059 31.361 27.875 31.5323" stroke="white" stroke-width="0.333821" stroke-miterlimit="10" stroke-linecap="round"/>
<path d="M20.895 32.1587C21.0221 31.6223 20.9188 31.1385 20.664 31.0781C20.4093 31.0177 20.0997 31.4036 19.9725 31.9399C19.8453 32.4763 19.9487 32.9601 20.2034 33.0205C20.4582 33.0809 20.7678 32.6951 20.895 32.1587Z" fill="white"/>
<path d="M28.85 32.1587C28.9772 31.6223 28.8738 31.1385 28.6191 31.0781C28.3644 31.0177 28.0548 31.4036 27.9276 31.9399C27.8004 32.4763 27.9038 32.9601 28.1585 33.0205C28.4132 33.0809 28.7228 32.6951 28.85 32.1587Z" fill="white"/>
<path d="M18.668 8.3528C19.4885 8.04314 20.326 7.79321 21.1721 7.60303V8.76C20.8246 8.83803 20.4796 8.92581 20.137 9.02334V10.1194C20.4431 10.0316 20.7503 9.95355 21.0587 9.88162C21.0587 10.2486 21.0587 10.6155 21.0587 10.9813C20.7503 11.052 20.4431 11.1312 20.137 11.219V13.6476C19.6421 13.789 19.152 13.9511 18.668 14.134V8.35159V8.3528Z" fill="#FF5E67"/>
<path d="M24.0121 7.1936C24.3035 9.10157 24.5949 11.0169 24.8862 12.9395C24.3657 12.9492 23.8451 12.9809 23.3269 13.0346C23.3001 12.6908 23.2721 12.347 23.2453 12.0044C23.0636 12.0239 22.8819 12.0458 22.7015 12.0714C22.671 12.4225 22.6406 12.7724 22.6101 13.1236C22.0871 13.1979 21.5665 13.2955 21.0508 13.4149C21.3056 11.4289 21.5616 9.44781 21.8176 7.47157C22.5442 7.33503 23.2782 7.24359 24.0133 7.19482L24.0121 7.1936ZM23.2038 10.9827C23.127 10.3366 23.049 9.53559 22.9722 8.581C22.8173 9.70749 22.7198 10.5304 22.6808 11.0473C22.8551 11.023 23.0295 11.001 23.2038 10.9827Z" fill="#FF5E67"/>
<path d="M28.6973 9.9974C28.195 9.90231 27.6891 9.82794 27.1807 9.7743V8.76972C27.1807 8.47712 27.1649 8.29303 27.1319 8.21744C27.099 8.14185 27.0271 8.09796 26.9161 8.08821C26.7906 8.07724 26.7113 8.11503 26.6772 8.20037C26.6431 8.28571 26.626 8.47468 26.626 8.7685V11.4543C26.626 11.7347 26.6431 11.92 26.6772 12.0078C26.7113 12.0968 26.7869 12.1443 26.9052 12.1553C27.0186 12.1651 27.0929 12.1309 27.1283 12.048C27.1636 11.9663 27.1807 11.7664 27.1807 11.4482V10.7216C27.6879 10.7752 28.1938 10.8496 28.6973 10.9447V11.1702C28.6973 11.7688 28.6547 12.1858 28.5705 12.4199C28.4852 12.6551 28.2974 12.8392 28.0061 12.9843C27.7147 13.1282 27.3538 13.1757 26.9247 13.1355C26.4785 13.0953 26.1091 12.9977 25.8189 12.8283C25.5288 12.66 25.3361 12.4394 25.241 12.1565C25.1472 11.8737 25.0996 11.4506 25.0996 10.8837V9.19398C25.0996 8.77703 25.1142 8.46493 25.1435 8.25645C25.1728 8.04798 25.2593 7.84682 25.4032 7.65541C25.547 7.46401 25.747 7.31527 26.0018 7.2153C26.2566 7.11533 26.5504 7.07754 26.8808 7.1068C27.3294 7.14703 27.6988 7.28113 27.989 7.4957C28.2792 7.71027 28.4693 7.95898 28.5608 8.23085C28.651 8.50272 28.6973 8.90992 28.6973 9.44878V9.99862V9.9974Z" fill="#FF5E67"/>
<path d="M29.2402 7.58936C30.0741 7.77345 30.8995 8.01606 31.709 8.31597V9.47294C31.3847 9.35225 31.0592 9.2413 30.73 9.14012V10.2361C31.0373 10.3312 31.3433 10.4349 31.6468 10.5458V11.6455C31.3433 11.5345 31.0373 11.4309 30.73 11.3358V12.6074C31.0909 12.7195 31.4506 12.8427 31.8053 12.9768V14.1338C30.9653 13.8168 30.1083 13.562 29.2402 13.3706V7.58936Z" fill="#FF5E67"/>
<path d="M65.5469 16.8281H64.0781V19.8438H61.3438C61.0391 18.3047 59.6172 17.2812 57.7656 17.2812C55.6484 17.2812 54.0859 18.5859 54.0938 20.4531C54.0859 22.3516 55.6484 23.6719 57.7656 23.6719C59.6172 23.6719 61.0469 22.625 61.3516 21.0625H64.0781V23.9062H65.5469V16.8281ZM55.5156 20.4531C55.5078 19.2969 56.4531 18.4922 57.7656 18.5C59.0391 18.4922 59.9844 19.2969 59.9844 20.4531C59.9844 21.6562 59.0391 22.4531 57.7656 22.4531C56.4531 22.4531 55.5078 21.6562 55.5156 20.4531ZM56.3906 25.7969H64.0781V27.0156H56.4219V30.6562H66.0469V29.4688H57.9062V28.125H65.5469V24.6406H56.3906V25.7969ZM78.9062 17.3906H69.3281V18.5781H77.4375C77.4375 19.4453 77.4062 20.4609 77.1406 21.8281H67.7188V22.9844H73.3594V24.6406H69.2188V25.8125H77.4531V27.0938H69.2344V30.6875H79.2812V29.5H70.7188V28.1406H78.9219V24.6406H74.8281V22.9844H80.5312V21.8281H78.625C78.9141 20.375 78.9141 19.2031 78.9062 18.2969V17.3906ZM93.1406 16.8281H91.6562V30.8594H93.1406V16.8281ZM82.0312 22.7812C82.0312 25.8047 83.5391 27.7109 85.6562 27.7031C87.7344 27.7109 89.2656 25.8047 89.2656 22.7812C89.2656 19.7891 87.7344 17.8828 85.6562 17.875C83.5391 17.8828 82.0312 19.7891 82.0312 22.7812ZM83.4688 22.7812C83.4609 20.5859 84.3516 19.2109 85.6562 19.2031C86.9375 19.2109 87.8281 20.5859 87.8281 22.7812C87.8281 25.0078 86.9375 26.375 85.6562 26.375C84.3516 26.375 83.4609 25.0078 83.4688 22.7812ZM106.391 21H104.922V22.5312H99.2656V23.7344H112.078V22.5312H106.391V21ZM99.9219 20.7188L100.406 21.8281C102.875 21.6172 104.922 20.7109 105.672 19.3203C106.406 20.7188 108.453 21.6172 110.922 21.8281L111.406 20.7188C108.875 20.5469 106.906 19.5859 106.664 18.375H110.906V17.2344H100.453V18.375H104.648C104.406 19.5781 102.414 20.5469 99.9219 20.7188ZM100.453 26.5938H110.859V25.4531H106.391V24.2188H104.922V25.4531H100.453V26.5938ZM101.406 29.0312C101.398 30.2578 102.922 30.8984 105.641 30.8906C108.359 30.8984 109.914 30.2578 109.922 29.0312C109.914 27.8203 108.359 27.1953 105.641 27.1875C102.922 27.1953 101.398 27.8203 101.406 29.0312ZM102.922 29.0312C102.906 28.4688 103.891 28.2109 105.641 28.2031C107.422 28.2109 108.383 28.4688 108.391 29.0312C108.383 29.5938 107.422 29.8906 105.641 29.875C103.891 29.8906 102.906 29.5938 102.922 29.0312ZM116.859 17.875C114.766 17.8828 113.273 19.7891 113.281 22.7812C113.273 25.8047 114.766 27.7109 116.859 27.7031C118.953 27.7109 120.445 25.8047 120.453 22.7812C120.445 19.7891 118.953 17.8828 116.859 17.875ZM114.703 22.7812C114.695 20.5859 115.586 19.2109 116.859 19.2031C118.156 19.2109 119.031 20.5859 119.031 22.7812C119.031 25.0078 118.156 26.375 116.859 26.375C115.586 26.375 114.695 25.0078 114.703 22.7812ZM122.531 30.8281H124.016V23.5625H126.266V22.3125H124.016V16.8281H122.531V30.8281ZM139.75 27.8438H136.688V24.1562C137.812 23.5234 138.484 22.5312 138.484 21.2969C138.484 19.0938 136.32 17.6484 133.312 17.6406C130.312 17.6484 128.148 19.0938 128.156 21.2969C128.148 22.5547 128.852 23.5547 130 24.1875V27.8438H126.938V29.0781H139.75V27.8438ZM129.594 21.2969C129.594 19.7891 131.117 18.8281 133.312 18.8281C135.492 18.8281 137.039 19.7891 137.047 21.2969C137.039 22.7969 135.492 23.7734 133.312 23.7812C131.117 23.7734 129.594 22.7969 129.594 21.2969ZM131.469 27.8438V24.7344C132.031 24.8672 132.656 24.9375 133.312 24.9375C133.984 24.9375 134.617 24.8672 135.188 24.7344V27.8438H131.469ZM143.344 18.1875H141.516L141.656 26.2344H143.203L143.344 18.1875ZM141.328 28.5C141.32 29.1094 141.828 29.6016 142.438 29.6094C143.039 29.6016 143.539 29.1094 143.547 28.5C143.539 27.8906 143.039 27.3906 142.438 27.3906C141.828 27.3906 141.32 27.8906 141.328 28.5Z" fill="white"/>
</svg>
