<svg width="178" height="56" viewBox="0 0 178 56" fill="none" xmlns="http://www.w3.org/2000/svg">
<g filter="url(#filter0_d_1640_10183)">
<rect x="4" width="170" height="48" rx="24" fill="#FF5D5D" shape-rendering="crispEdges"/>
<path d="M29 43C39.4934 43 48 34.4934 48 24C48 13.5066 39.4934 5 29 5C18.5066 5 10 13.5066 10 24C10 34.4934 18.5066 43 29 43Z" fill="white" stroke="#FF5D5D" stroke-width="0.541667" stroke-miterlimit="10"/>
<path d="M16.3486 30.9723C14.4814 38.5066 19.8827 38.7592 21.8812 37.504C25.0358 35.5234 25.2739 31.2961 24.7709 31.2961C23.9397 31.2961 20.3445 38.1683 26.3143 38.5099C32.2864 38.8516 33.3045 31.3639 32.6892 31.3639C31.8524 31.3639 27.2713 39.2855 34.8579 38.4721C42.0273 37.7043 40.7398 25.7101 40.7398 25.7101C44.5243 21.3104 43.0799 16.5067 39.8463 16.5067C34.3805 16.5067 30.1254 23.7217 31.1714 23.7606C32.9162 23.8263 34.01 16.2118 29.7727 16.2118C24.7075 16.2118 17.6427 25.7491 16.3475 30.9711L16.3486 30.9723Z" fill="#FF5D5D" stroke="white" stroke-width="0.335648" stroke-linecap="round" stroke-linejoin="round"/>
<path d="M19.901 28.6336C19.901 28.6336 20.7334 21.6401 24.2563 21.6401C20.7334 21.6401 19.901 14.6465 19.901 14.6465C19.901 14.6465 19.0687 21.6401 15.5458 21.6401C19.0687 21.6401 19.901 28.6336 19.901 28.6336Z" fill="#FF5D5D" stroke="white" stroke-width="0.335648" stroke-linecap="round" stroke-linejoin="round"/>
<path d="M14.8336 29.7024C14.8336 29.7024 15.1841 26.7537 16.6696 26.7537C15.1841 26.7537 14.8336 23.8049 14.8336 23.8049C14.8336 23.8049 14.4831 26.7537 12.9976 26.7537C14.4831 26.7537 14.8336 29.7024 14.8336 29.7024Z" fill="#FF5D5D" stroke="white" stroke-width="0.335648" stroke-linecap="round" stroke-linejoin="round"/>
<path d="M38.9834 37.8408C38.9834 37.8408 39.542 33.1451 41.9076 33.1451C39.542 33.1451 38.9834 28.4493 38.9834 28.4493C38.9834 28.4493 38.4248 33.1451 36.0591 33.1451C38.4248 33.1451 38.9834 37.8408 38.9834 37.8408Z" fill="#FF5D5D" stroke="white" stroke-width="0.335648" stroke-linecap="round" stroke-linejoin="round"/>
<path d="M22.3698 29.9537C22.3698 29.9537 22.3464 32.385 23.6572 32.385" stroke="white" stroke-width="0.335648" stroke-miterlimit="10" stroke-linecap="round"/>
<path d="M23.4173 30.085C23.4173 30.085 23.0857 31.694 23.9548 31.8654" stroke="white" stroke-width="0.335648" stroke-miterlimit="10" stroke-linecap="round"/>
<path d="M30.2865 29.9537C30.2865 29.9537 30.2632 32.385 31.574 32.385" stroke="white" stroke-width="0.335648" stroke-miterlimit="10" stroke-linecap="round"/>
<path d="M31.3381 30.085C31.3381 30.085 31.0065 31.694 31.8756 31.8654" stroke="white" stroke-width="0.335648" stroke-miterlimit="10" stroke-linecap="round"/>
<path d="M24.8956 32.4906C25.0228 31.9543 24.9194 31.4705 24.6646 31.4101C24.4099 31.3497 24.1003 31.7355 23.9731 32.2719C23.8459 32.8083 23.9493 33.2921 24.204 33.3525C24.4588 33.4129 24.7684 33.027 24.8956 32.4906Z" fill="white"/>
<path d="M32.8494 32.4897C32.9766 31.9533 32.8732 31.4695 32.6185 31.4091C32.3638 31.3487 32.0541 31.7346 31.927 32.271C31.7998 32.8073 31.9032 33.2911 32.1579 33.3515C32.4126 33.4119 32.7222 33.0261 32.8494 32.4897Z" fill="white"/>
<path d="M21.7803 8.40923C22.6816 8.06873 23.6018 7.79388 24.5332 7.58469V8.85654C24.1515 8.94222 23.7721 9.03904 23.396 9.14586V10.351C23.732 10.2553 24.0692 10.1685 24.4086 10.0895C24.4086 10.4923 24.4086 10.8951 24.4086 11.2979C24.0692 11.3758 23.732 11.4626 23.396 11.5594V14.2288C22.8518 14.3835 22.3133 14.5627 21.7814 14.763V8.40812L21.7803 8.40923Z" fill="#FF5D5D"/>
<path d="M27.6532 7.13367C27.9726 9.23118 28.293 11.3354 28.6135 13.4473C28.0415 13.4585 27.4696 13.493 26.8999 13.5519C26.8698 13.1747 26.8398 12.7964 26.8097 12.4192C26.6106 12.4403 26.4114 12.4648 26.2122 12.4926C26.1788 12.8776 26.1454 13.2637 26.1121 13.6488C25.5379 13.7311 24.9659 13.8379 24.3984 13.9692C24.6788 11.786 24.9593 9.60951 25.2419 7.43856C26.0408 7.28945 26.8465 7.18708 27.6543 7.13478L27.6532 7.13367ZM26.7652 11.2975C26.6807 10.5876 26.5961 9.70744 26.5104 8.65813C26.3402 9.89549 26.2333 10.8001 26.1899 11.3688C26.3813 11.342 26.5727 11.3187 26.7652 11.2975V11.2975Z" fill="#FF5D5D"/>
<path d="M32.8051 10.2149C32.2521 10.1103 31.6968 10.028 31.1394 9.97013V8.86518C31.1394 8.5436 31.1215 8.34219 31.0859 8.25873C31.0503 8.17528 30.9713 8.12744 30.8489 8.11631C30.7109 8.10407 30.623 8.14524 30.5863 8.23983C30.5496 8.3333 30.5307 8.54138 30.5307 8.86407V11.8151C30.5307 12.1233 30.5496 12.3269 30.5863 12.4237C30.623 12.5205 30.7065 12.5739 30.8367 12.5862C30.9613 12.5973 31.0425 12.5584 31.0815 12.4682C31.1193 12.3781 31.1394 12.1578 31.1394 11.8095V11.0105C31.6968 11.0695 32.2532 11.1507 32.8051 11.2553V11.5035C32.8051 12.1611 32.7584 12.6184 32.6649 12.8766C32.5714 13.1348 32.3656 13.3384 32.0451 13.4964C31.7247 13.6555 31.3285 13.7067 30.8567 13.6633C30.366 13.6188 29.961 13.512 29.6416 13.3261C29.3223 13.1414 29.1108 12.8977 29.0073 12.5884C28.9039 12.2779 28.8516 11.8128 28.8516 11.1897V9.33364C28.8516 8.87631 28.8671 8.53247 28.8994 8.30325C28.9317 8.07402 29.0263 7.85259 29.1843 7.64229C29.3423 7.43198 29.5615 7.2684 29.843 7.15823C30.1234 7.04807 30.4461 7.00579 30.8089 7.03918C31.3018 7.08257 31.708 7.23168 32.0273 7.46646C32.3467 7.70237 32.5559 7.97499 32.6549 8.27431C32.755 8.57364 32.804 9.01985 32.8051 9.61294V10.216V10.2149Z" fill="#FF5D5D"/>
<path d="M33.3954 7.57042C34.3123 7.77294 35.2192 8.03887 36.1082 8.36936V9.64122C35.7522 9.50881 35.3939 9.38751 35.0322 9.27513V10.4802C35.3705 10.5848 35.7054 10.6983 36.0392 10.8207V12.0292C35.7054 11.9068 35.3705 11.7933 35.0322 11.6887V13.0863C35.4295 13.2087 35.8234 13.3444 36.2139 13.4924V14.7643C35.2904 14.416 34.349 14.1356 33.3954 13.9253V7.57042V7.57042Z" fill="#FF5D5D"/>
<path d="M69.5 27.0156H68.0156V16.8438H69.5V27.0156ZM58.1719 21.25C58.1719 20.5885 58.3359 19.9948 58.6641 19.4688C58.9922 18.9427 59.4401 18.5312 60.0078 18.2344C60.5755 17.9323 61.2083 17.7812 61.9062 17.7812C62.6042 17.7812 63.2344 17.9323 63.7969 18.2344C64.3646 18.5312 64.8099 18.9427 65.1328 19.4688C65.4609 19.9948 65.625 20.5885 65.625 21.25C65.625 21.9219 65.4609 22.5234 65.1328 23.0547C64.8099 23.5807 64.3646 23.9922 63.7969 24.2891C63.2344 24.5859 62.6042 24.7344 61.9062 24.7344C61.2083 24.7344 60.5755 24.5859 60.0078 24.2891C59.4401 23.9922 58.9922 23.5807 58.6641 23.0547C58.3359 22.5234 58.1719 21.9219 58.1719 21.25ZM59.625 21.25C59.625 21.6823 59.7214 22.0651 59.9141 22.3984C60.112 22.7266 60.3854 22.9818 60.7344 23.1641C61.0833 23.3464 61.474 23.4375 61.9062 23.4375C62.3333 23.4375 62.7188 23.3464 63.0625 23.1641C63.4062 22.9818 63.6771 22.7266 63.875 22.3984C64.0729 22.0651 64.1719 21.6823 64.1719 21.25C64.1719 20.8281 64.0729 20.4531 63.875 20.125C63.6771 19.7917 63.4062 19.5339 63.0625 19.3516C62.7188 19.1693 62.3333 19.0781 61.9062 19.0781C61.474 19.0781 61.0833 19.1693 60.7344 19.3516C60.3854 19.5339 60.112 19.7917 59.9141 20.125C59.7214 20.4531 59.625 20.8281 59.625 21.25ZM60.3438 25.9844H61.8438V29.3281H69.9219V30.5312H60.3438V25.9844ZM84.4844 23.8125H78.8281V25.0312H82.875V28.3125H74.7188V29.5469H83.2656V30.6875H73.2656V27.2344H81.4062V26.1719H73.25V25.0312H77.3438V23.8125H71.7188V22.625H84.4844V23.8125ZM73.3594 17.2812H82.8438V21.5938H73.3594V17.2812ZM81.3594 20.4219V18.4531H74.8125V20.4219H81.3594ZM97.1406 30.8594H95.6562V16.8281H97.1406V30.8594ZM86.0312 22.7812C86.0312 21.8021 86.1849 20.9427 86.4922 20.2031C86.7995 19.4583 87.2266 18.8854 87.7734 18.4844C88.3255 18.0781 88.9531 17.875 89.6562 17.875C90.349 17.875 90.9688 18.0781 91.5156 18.4844C92.0625 18.8854 92.4896 19.4583 92.7969 20.2031C93.1094 20.9427 93.2656 21.8021 93.2656 22.7812C93.2656 23.7708 93.1094 24.638 92.7969 25.3828C92.4896 26.1276 92.0625 26.7005 91.5156 27.1016C90.9688 27.5026 90.349 27.7031 89.6562 27.7031C88.9531 27.7031 88.3255 27.5026 87.7734 27.1016C87.2266 26.7005 86.7995 26.1276 86.4922 25.3828C86.1849 24.638 86.0312 23.7708 86.0312 22.7812ZM87.4688 22.7812C87.4688 23.5104 87.5599 24.1458 87.7422 24.6875C87.9245 25.2292 88.1797 25.6458 88.5078 25.9375C88.8411 26.2292 89.224 26.375 89.6562 26.375C90.0833 26.375 90.4609 26.2292 90.7891 25.9375C91.1172 25.6458 91.3724 25.2292 91.5547 24.6875C91.737 24.1458 91.8281 23.5104 91.8281 22.7812C91.8281 22.0625 91.737 21.4349 91.5547 20.8984C91.3724 20.3568 91.1172 19.9401 90.7891 19.6484C90.4609 19.3516 90.0833 19.2031 89.6562 19.2031C89.224 19.2031 88.8411 19.3516 88.5078 19.6484C88.1797 19.9401 87.9245 20.3568 87.7422 20.8984C87.5599 21.4349 87.4688 22.0625 87.4688 22.7812ZM110.391 22.5312H116.078V23.7344H103.266V22.5312H108.922V21H110.391V22.5312ZM103.922 20.7188C104.745 20.6615 105.5 20.5234 106.188 20.3047C106.88 20.0859 107.443 19.8099 107.875 19.4766C108.312 19.138 108.57 18.7708 108.648 18.375H104.453V17.2344H114.906V18.375H110.664C110.742 18.7708 110.997 19.138 111.43 19.4766C111.862 19.8099 112.424 20.0859 113.117 20.3047C113.81 20.5234 114.573 20.6615 115.406 20.7188L114.922 21.8281C114.094 21.7552 113.326 21.6094 112.617 21.3906C111.914 21.1719 111.307 20.888 110.797 20.5391C110.286 20.1849 109.911 19.7786 109.672 19.3203C109.427 19.7786 109.047 20.1849 108.531 20.5391C108.021 20.888 107.411 21.1719 106.703 21.3906C106 21.6094 105.234 21.7552 104.406 21.8281L103.922 20.7188ZM104.453 25.4531H108.922V24.2188H110.391V25.4531H114.859V26.5938H104.453V25.4531ZM105.406 29.0312C105.401 28.4323 105.763 27.9766 106.492 27.6641C107.221 27.3516 108.271 27.1927 109.641 27.1875C111.01 27.1927 112.065 27.3516 112.805 27.6641C113.544 27.9766 113.917 28.4323 113.922 29.0312C113.917 29.6354 113.547 30.0964 112.812 30.4141C112.083 30.7318 111.042 30.8906 109.688 30.8906C108.302 30.8906 107.24 30.7318 106.5 30.4141C105.766 30.1016 105.401 29.6406 105.406 29.0312ZM106.922 29.0312C106.917 29.3125 107.148 29.526 107.617 29.6719C108.086 29.8177 108.76 29.8854 109.641 29.875C110.531 29.8802 111.211 29.8099 111.68 29.6641C112.148 29.5234 112.385 29.3125 112.391 29.0312C112.385 28.4896 111.469 28.2135 109.641 28.2031C107.812 28.2135 106.906 28.4896 106.922 29.0312ZM120.859 17.875C121.552 17.875 122.169 18.0781 122.711 18.4844C123.258 18.8854 123.685 19.4583 123.992 20.2031C124.299 20.9427 124.453 21.8021 124.453 22.7812C124.453 23.7708 124.299 24.638 123.992 25.3828C123.685 26.1276 123.26 26.7005 122.719 27.1016C122.177 27.5026 121.557 27.7031 120.859 27.7031C120.161 27.7031 119.542 27.5026 119 27.1016C118.458 26.7005 118.036 26.1276 117.734 25.3828C117.432 24.638 117.281 23.7708 117.281 22.7812C117.281 21.8021 117.432 20.9427 117.734 20.2031C118.036 19.4583 118.458 18.8854 119 18.4844C119.542 18.0781 120.161 17.875 120.859 17.875ZM118.703 22.7812C118.703 23.5104 118.792 24.1458 118.969 24.6875C119.151 25.2292 119.406 25.6458 119.734 25.9375C120.062 26.2292 120.438 26.375 120.859 26.375C121.292 26.375 121.672 26.2318 122 25.9453C122.328 25.6536 122.581 25.237 122.758 24.6953C122.94 24.1484 123.031 23.5104 123.031 22.7812C123.031 22.0573 122.94 21.4271 122.758 20.8906C122.581 20.349 122.328 19.9323 122 19.6406C121.672 19.349 121.292 19.2031 120.859 19.2031C120.438 19.2031 120.062 19.3516 119.734 19.6484C119.406 19.9401 119.151 20.3568 118.969 20.8984C118.792 21.4349 118.703 22.0625 118.703 22.7812ZM126.531 16.8281H128.016V22.3125H130.266V23.5625H128.016V30.8281H126.531V16.8281ZM143.75 29.0781H130.938V27.8438H134V24.1875C133.411 23.8646 132.956 23.4557 132.633 22.9609C132.31 22.4661 132.151 21.9115 132.156 21.2969C132.156 20.5729 132.375 19.9349 132.812 19.3828C133.25 18.8307 133.859 18.4036 134.641 18.1016C135.427 17.7943 136.318 17.6406 137.312 17.6406C138.307 17.6406 139.198 17.7943 139.984 18.1016C140.771 18.4036 141.383 18.8307 141.82 19.3828C142.263 19.9349 142.484 20.5729 142.484 21.2969C142.484 21.9062 142.328 22.4557 142.016 22.9453C141.703 23.4297 141.26 23.8333 140.688 24.1562V27.8438H143.75V29.0781ZM133.594 21.2969C133.594 21.7917 133.75 22.2266 134.062 22.6016C134.375 22.9766 134.812 23.2682 135.375 23.4766C135.938 23.6797 136.583 23.7812 137.312 23.7812C138.036 23.7812 138.68 23.6771 139.242 23.4688C139.81 23.2604 140.253 22.9714 140.57 22.6016C140.888 22.2266 141.047 21.7917 141.047 21.2969C141.047 20.8021 140.888 20.3698 140.57 20C140.253 19.625 139.81 19.3359 139.242 19.1328C138.68 18.9297 138.036 18.8281 137.312 18.8281C136.583 18.8281 135.938 18.9297 135.375 19.1328C134.812 19.3359 134.375 19.625 134.062 20C133.75 20.3698 133.594 20.8021 133.594 21.2969ZM139.188 27.8438V24.7344C138.604 24.8698 137.979 24.9375 137.312 24.9375C136.656 24.9375 136.042 24.8698 135.469 24.7344V27.8438H139.188ZM147.203 26.2344H145.656L145.516 18.1875H147.344L147.203 26.2344ZM145.328 28.5156C145.328 28.3125 145.378 28.125 145.477 27.9531C145.576 27.7812 145.708 27.6458 145.875 27.5469C146.047 27.4427 146.234 27.3906 146.438 27.3906C146.635 27.3906 146.818 27.4401 146.984 27.5391C147.156 27.638 147.292 27.7734 147.391 27.9453C147.495 28.1172 147.547 28.3021 147.547 28.5C147.547 28.6979 147.495 28.8828 147.391 29.0547C147.292 29.2214 147.156 29.3568 146.984 29.4609C146.818 29.5599 146.635 29.6094 146.438 29.6094C146.24 29.6094 146.055 29.5599 145.883 29.4609C145.716 29.362 145.581 29.2292 145.477 29.0625C145.378 28.8958 145.328 28.7135 145.328 28.5156Z" fill="white"/>
</g>
<defs>
<filter id="filter0_d_1640_10183" x="0" y="0" width="178" height="56" filterUnits="userSpaceOnUse" color-interpolation-filters="sRGB">
<feFlood flood-opacity="0" result="BackgroundImageFix"/>
<feColorMatrix in="SourceAlpha" type="matrix" values="0 0 0 0 0 0 0 0 0 0 0 0 0 0 0 0 0 0 127 0" result="hardAlpha"/>
<feOffset dy="4"/>
<feGaussianBlur stdDeviation="2"/>
<feComposite in2="hardAlpha" operator="out"/>
<feColorMatrix type="matrix" values="0 0 0 0 0 0 0 0 0 0 0 0 0 0 0 0 0 0 0.25 0"/>
<feBlend mode="normal" in2="BackgroundImageFix" result="effect1_dropShadow_1640_10183"/>
<feBlend mode="normal" in="SourceGraphic" in2="effect1_dropShadow_1640_10183" result="shape"/>
</filter>
</defs>
</svg>
