<svg width="116" height="58" viewBox="0 0 116 58" fill="none" xmlns="http://www.w3.org/2000/svg">
<path d="M85.3791 56.4392C96.5644 60.0634 100.155 45.0331 92.9081 43.1227C84.4592 40.8954 78.6236 54.2504 85.3791 56.4392Z" fill="#1E1F21" stroke="white" stroke-width="2" stroke-miterlimit="10" stroke-linecap="round" stroke-linejoin="round"/>
<path d="M104.825 31.7032C108.405 26.8195 108.665 22.169 109.234 19.3378C110.519 18.225 113.257 15.7519 114.279 11.8008C116.127 4.65553 114.082 2.19687 111.968 1.37492C109.256 0.317429 102.619 1.28462 101.279 7.0335C98.8956 9.5907 96.405 11.2875 93.6322 16.6374C89.0279 25.5227 87.0374 39.543 92.8749 40.3385C98.4037 41.092 101.943 35.7037 104.825 31.7742V31.7032Z" fill="#1E1F21" stroke="white" stroke-width="2" stroke-miterlimit="10" stroke-linecap="round" stroke-linejoin="round"/>
<path d="M46.2323 8.3559C45.6086 6.90817 43.858 4.50625 40.8342 2.7953C39.1396 1.83494 36.6548 0.502372 31.3708 1.18922C27.1987 1.73212 24.1234 3.26417 22.0889 4.61113C21.9835 3.73098 20.4051 1.89181 18.3405 1.89181C14.7899 1.89181 9.64226 6.0327 6.6465 11.3897C0.102296 23.0991 0.867104 35.8559 1.23055 40.7317C2.00906 51.1455 7.68221 55.0411 10.9532 55.0411C15.9748 55.0411 18.6806 50.3075 19.2419 46.791C19.6978 43.9346 19.6776 40.7744 19.0173 38.1565C21.2561 38.3786 24.1793 39.2773 28.231 38.1565C34.2268 36.497 38.4935 31.4373 40.2161 29.7099C47.212 23.2445 49.0152 14.8234 46.2323 8.3559ZM28.231 19.9048C25.3471 22.1608 22.5879 23.4995 22.0696 22.8949C21.5513 22.2903 23.4696 19.9686 26.3535 17.7127C29.2374 15.4568 31.9966 14.118 32.5149 14.7226C32.8979 15.1693 31.1149 17.6489 28.231 19.9048Z" fill="#1E1F21" stroke="white" stroke-width="2" stroke-miterlimit="10" stroke-linecap="round" stroke-linejoin="round"/>
<path d="M19.2448 39.0099C19.2448 39.0099 18.3452 33.8292 14.7465 30.3754Z" fill="#1E1F21"/>
<path d="M19.2448 39.0099C19.2448 39.0099 18.3452 33.8292 14.7465 30.3754" stroke="white" stroke-width="2" stroke-miterlimit="10" stroke-linecap="round" stroke-linejoin="round"/>
<path d="M55.0822 7.63687C47.2367 5.22428 41.4922 17.9345 48.2086 19.6105C58.7414 22.5016 61.4404 9.5921 55.0822 7.63687Z" fill="#1E1F21" stroke="white" stroke-width="2" stroke-miterlimit="10" stroke-linecap="round" stroke-linejoin="round"/>
<path d="M40.1745 27.5507C36.6965 31.7742 34.5612 36.9728 34.02 39.4134C32.7685 40.3793 30.6011 42.7877 29.6238 46.1921C27.8573 52.3514 30.5547 54.5863 32.631 55.2833C35.2938 56.1768 40.6455 54.5015 41.9256 49.546C44.2474 47.3308 46.6742 45.8582 49.3583 41.2377C53.8137 33.5665 57.8411 24.284 50.6437 22.4994C47.0798 22.094 42.9731 24.1526 40.1745 27.5507Z" fill="#1E1F21" stroke="white" stroke-width="2" stroke-miterlimit="10" stroke-linecap="round" stroke-linejoin="round"/>
<path d="M61.2112 39.5216C63.2757 36.4214 65.319 35.9529 66.9182 35.9529C68.8205 37.7373 72.1676 38.2312 73.3386 37.0562C76.4299 35.0607 76.8991 29.6383 73.5114 27.1586C70.6852 25.0911 65.5576 23.6058 60.26 26.3873C48.4825 32.5685 44.6628 50.8444 54.4395 54.3547C68.6632 58.7669 74.9609 46.2753 70.0736 42.4108C69.0527 41.206 65.9173 40.8087 64.2121 42.806C61.2112 45.3831 59.0694 42.7365 61.2112 39.5216Z" fill="#1E1F21" stroke="white" stroke-width="2" stroke-miterlimit="10" stroke-linecap="round" stroke-linejoin="round"/>
</svg>
