<svg width="111" height="54" viewBox="0 0 111 54" fill="none" xmlns="http://www.w3.org/2000/svg">
<path d="M44.9531 41.5913L44.9532 41.5913C45.7978 41.8804 46.5924 41.7099 47.2294 41.3071C47.8503 40.9145 48.3246 40.3039 48.6192 39.6666C48.9115 39.0341 49.0607 38.3011 48.9392 37.6369C48.8109 36.9358 48.3692 36.3056 47.5448 36.0765L47.5447 36.0764C45.8322 35.6007 44.5208 36.8472 43.9718 38.042C43.6878 38.6602 43.5456 39.3713 43.6569 40.0207C43.7731 40.6983 44.178 41.3258 44.9531 41.5913Z" fill="#1E1F21" stroke="white" stroke-width="1.35177" stroke-miterlimit="10" stroke-linecap="round"/>
<path d="M52.6075 33.1155C50.738 41.1825 56.1459 41.453 58.1468 40.1091C61.3053 37.9884 61.5438 33.4622 61.0402 33.4622C60.2079 33.4622 56.6083 40.8203 62.5854 41.1861C68.5648 41.5518 69.5843 33.5349 68.9681 33.5349C68.1303 33.5349 63.5436 42.0165 71.1395 41.1456C78.3177 40.3235 77.0287 27.4814 77.0287 27.4814C80.8178 22.7705 79.3717 17.6272 76.1341 17.6272C70.6616 17.6272 66.4012 25.3523 67.4485 25.394C69.1954 25.4643 70.2906 17.3115 66.0481 17.3115C60.9767 17.3115 53.9032 27.5231 52.6064 33.1143L52.6075 33.1155Z" fill="#1E1F21" stroke="white" stroke-width="1.35177" stroke-miterlimit="10" stroke-linecap="round"/>
<path d="M32.5429 17.0274C32.2327 16.2222 31.4198 14.9527 29.9161 14.0011C29.0733 13.4669 27.2689 12.6594 24.6411 13.0415C22.5662 13.3434 21.0367 14.1955 20.0249 14.9447C19.9725 14.4551 19.5832 13.316 18.5564 13.316C16.7906 13.316 14.8034 16.0267 13.3135 19.0061C10.0589 25.5187 9.86638 32.2062 10.0471 34.918C10.4343 40.71 12.86 42.9929 14.4868 42.9929C16.9842 42.9929 17.8815 40.177 18.1607 38.2212C18.3874 36.6325 18.3382 34.5349 18.0099 33.0789C19.1233 33.2024 21.2859 33.2744 23.3009 32.6511C26.2828 31.7281 28.1834 29.8649 29.0401 28.9042C32.5193 25.3082 33.9279 20.6245 32.5439 17.0274H32.5429ZM23.0795 23.4508C21.6453 24.7054 20.2731 25.45 20.0153 25.1138C19.7575 24.7775 20.7116 23.4862 22.1458 22.2315C23.5801 20.9768 24.9523 20.2322 25.2101 20.5685C25.4678 20.9048 24.5138 22.1961 23.0795 23.4508Z" fill="#1E1F21" stroke="white" stroke-width="1.35177" stroke-miterlimit="10" stroke-linecap="round"/>
<path d="M18.2042 34.061C18.2042 34.061 17.7154 31.4715 16.6758 29.6689Z" fill="#1E1F21"/>
<path d="M18.2042 34.061C18.2042 34.061 17.7154 31.4715 16.6758 29.6689" stroke="white" stroke-width="1.35177" stroke-miterlimit="10" stroke-linecap="round"/>
<path d="M81.2628 31.5502C81.2628 32.2214 87.8026 29.1674 85.4072 26.4712C83.6592 24.5042 78.6869 25.8874 77.399 28.1499C77.399 28.1499 74.4556 28.051 74.2762 30.7639C74.1503 32.6737 76.8353 32.9942 76.9177 32.9906C74.357 33.3167 72.9838 35.9214 72.7989 37.3976C72.3711 40.8265 75.7424 41.135 77.3979 40.2498C77.3979 40.2498 82.9094 43.0663 85.2167 39.3646C87.2399 36.118 83.9021 35.1911 82.2733 35.6272C81.1692 35.9226 80.8037 35.8044 81.2628 36.1975C81.8722 36.7194 85.9387 35.8595 85.9387 32.4223C85.9387 28.9851 81.0919 31.8763 81.2616 31.5514L81.2628 31.5502Z" fill="#1E1F21" stroke="white" stroke-width="1.35177" stroke-miterlimit="10" stroke-linecap="round" stroke-linejoin="round"/>
<path d="M38.2831 12.4912L38.283 12.4912C37.1264 12.038 36.0425 12.3108 35.1832 12.9367C34.3456 13.5467 33.7057 14.4953 33.3091 15.4838C32.9127 16.4718 32.7278 17.5784 32.8824 18.5449C33.0395 19.5264 33.5736 20.4483 34.6642 20.7951L34.6642 20.7951C35.8107 21.1596 36.8636 20.8598 37.6969 20.237C38.5126 19.6274 39.132 18.7044 39.5162 17.7407C39.9002 16.7777 40.0772 15.7044 39.9352 14.7576C39.7918 13.802 39.3 12.8899 38.2831 12.4912Z" fill="#1E1F21" stroke="white" stroke-width="1.35177" stroke-miterlimit="10" stroke-linecap="round"/>
<path d="M28.6559 26.5059C26.7829 28.8367 26.0833 31.0488 25.7918 32.3957C25.1179 32.9287 23.6813 34.1112 23.155 35.99C22.2037 39.3892 23.2924 40.5501 24.4105 40.9347C25.8445 41.4278 28.7265 40.5033 29.4159 37.7684C30.6663 36.5459 31.9732 35.7332 33.4187 33.1833C35.818 28.9497 37.4381 22.7311 34.3545 22.3704C32.4353 22.1467 30.1631 24.6293 28.6559 26.5047V26.5059Z" fill="#1E1F21" stroke="white" stroke-width="1.35177" stroke-miterlimit="10" stroke-linecap="round"/>
<path d="M39.0059 32.1541C40.1429 30.4243 42.001 30.0283 42.4042 30.1741C43.5424 32.1446 45.1363 31.6016 45.7812 30.9459C46.8905 29.8184 47.742 26.8069 45.8763 25.4233C44.3199 24.2697 41.9008 23.441 38.9834 24.9929C32.4974 28.4419 30.3938 38.6394 35.778 40.5981C42.2502 42.9515 45.3943 35.6197 43.9831 33.9337C43.4209 33.2615 41.6942 33.0398 40.7551 34.1542C39.334 36.3939 37.8264 33.9468 39.0059 32.1529V32.1541Z" fill="#1E1F21" stroke="white" stroke-width="1.35177" stroke-miterlimit="10" stroke-linecap="round" stroke-linejoin="round"/>
<path d="M89.7408 41.5009L89.7409 41.5009C90.9228 41.9748 92.0335 41.7066 92.9309 41.06C93.812 40.4251 94.4998 39.4228 94.9316 38.362C95.3634 37.3015 95.5631 36.1242 95.4074 35.1089C95.25 34.0829 94.7102 33.1578 93.624 32.8032L93.4977 33.1898L93.624 32.8032C92.4495 32.4197 91.3665 32.7171 90.4945 33.3619C89.6356 33.997 88.9702 34.9723 88.5523 36.0053C88.1345 37.0378 87.9431 38.1796 88.0859 39.1751C88.2296 40.1768 88.7286 41.0947 89.7408 41.5009Z" fill="#1E1F21" stroke="white" stroke-miterlimit="10"/>
<path d="M100.233 26.8651H100.264L99.7209 27.6498C98.9893 28.7061 98.0549 29.9603 97.0589 30.9209C96.5607 31.4013 96.0311 31.8241 95.4881 32.1104C94.9456 32.3965 94.356 32.5636 93.7578 32.4773C92.7648 32.334 92.1939 31.6186 91.9303 30.7091C91.673 29.8214 91.678 28.6783 91.8417 27.4546C92.1708 24.9947 93.1701 22.0072 94.3502 19.5954L94.3502 19.5954C95.476 17.295 96.5384 16.1901 97.5033 15.1867C97.7423 14.9382 97.9753 14.6959 98.2018 14.4431C98.5894 12.8403 99.5126 11.7432 100.547 11.1209C101.586 10.496 102.788 10.3262 103.66 10.6863M100.233 26.8651L105.122 16.8419L104.636 16.7232L105.122 16.8418C105.599 14.8878 105.593 13.5007 105.279 12.5159C104.956 11.5042 104.32 10.9581 103.66 10.6863M100.233 26.8651C101.657 24.5629 102.267 22.4209 102.548 21.0094L100.233 26.8651ZM103.66 10.6863L103.469 11.1485L103.66 10.6861C103.66 10.6862 103.66 10.6863 103.66 10.6863Z" fill="#1E1F21" stroke="white" stroke-miterlimit="10"/>
</svg>
