<svg width="385" height="185" viewBox="0 0 385 185" fill="none" xmlns="http://www.w3.org/2000/svg">
<path d="M302.071 138.912C319.531 144.617 325.136 120.959 313.824 117.952C300.635 114.446 291.525 135.467 302.071 138.912Z" fill="#1E1F21" stroke="white" stroke-width="2.8555" stroke-miterlimit="10" stroke-linecap="round" stroke-linejoin="round"/>
<path d="M332.41 99.975C337.999 92.2881 338.405 84.968 339.293 80.5117C341.298 78.7602 345.573 74.8675 347.168 68.6483C350.054 57.4016 346.86 53.5316 343.561 52.2378C339.328 50.5733 328.967 52.0957 326.875 61.1445C323.154 65.1696 319.266 67.8404 314.938 76.2613C307.751 90.2469 304.643 112.315 313.756 113.567C322.387 114.753 327.911 106.272 332.41 100.087V99.975Z" fill="#1E1F21" stroke="white" stroke-width="2.8555" stroke-miterlimit="10" stroke-linecap="round" stroke-linejoin="round"/>
<path d="M157.984 139.408C168.806 142.973 174.096 126.054 165.629 123.913C155.763 121.419 150.088 136.948 157.984 139.408Z" fill="#1E1F21" stroke="white" stroke-width="2.8555" stroke-miterlimit="10" stroke-linecap="round" stroke-linejoin="round"/>
<path d="M177.336 114.965C170.965 140.579 189.395 141.438 196.214 137.171C206.978 130.437 207.79 116.065 206.074 116.065C203.238 116.065 190.97 139.429 211.34 140.59C231.718 141.752 235.192 116.296 233.092 116.296C230.237 116.296 214.606 143.227 240.492 140.462C264.955 137.852 260.562 97.075 260.562 97.075C273.475 82.1171 268.547 65.7861 257.514 65.7861C238.864 65.7861 224.344 90.3148 227.913 90.4472C233.867 90.6704 237.599 64.7836 223.141 64.7836C205.858 64.7836 181.752 97.2074 177.332 114.961L177.336 114.965Z" fill="#1E1F21" stroke="white" stroke-width="2.8555" stroke-miterlimit="10" stroke-linecap="round" stroke-linejoin="round"/>
<path d="M114.803 57.5693C113.701 54.9921 110.611 50.7163 105.272 47.6704C102.28 45.9608 97.8935 43.5886 88.5647 44.8113C81.1989 45.7778 75.7694 48.5051 72.1776 50.903C71.9916 49.3361 69.2048 46.0621 65.5599 46.0621C59.2913 46.0621 50.2031 53.4336 44.9142 62.9701C33.3604 83.8148 34.7107 106.524 35.3523 115.204C36.7268 133.743 46.7427 140.677 52.5177 140.677C61.3832 140.677 66.1602 132.251 67.1512 125.991C67.9561 120.906 67.9203 115.28 66.7547 110.62C70.7072 111.015 75.8681 112.615 83.0213 110.62C93.6069 107.666 101.14 98.6585 104.181 95.5834C116.532 84.0737 119.716 69.0826 114.803 57.5693ZM83.0213 78.1285C77.9298 82.1445 73.0585 84.5277 72.1434 83.4514C71.2284 82.3751 74.6152 78.242 79.7067 74.2261C84.7982 70.2102 89.6696 67.827 90.5846 68.9033C91.2607 69.6985 88.1129 74.1126 83.0213 78.1285Z" fill="#1E1F21" stroke="white" stroke-width="2.8555" stroke-miterlimit="10" stroke-linecap="round" stroke-linejoin="round"/>
<path d="M67.1528 112.157C67.1528 112.157 65.5644 102.934 59.2109 96.786Z" fill="#1E1F21"/>
<path d="M67.1528 112.157C67.1528 112.157 65.5644 102.934 59.2109 96.786" stroke="white" stroke-width="2.8555" stroke-miterlimit="10" stroke-linecap="round" stroke-linejoin="round"/>
<path d="M278.172 109.805C278.172 114.957 300.46 102.239 292.297 93.6785C286.339 87.4328 272.051 92.145 262.521 96.9101C262.521 96.9101 255.19 97.8267 254.579 106.441C254.15 112.505 262.24 114.394 262.521 114.382C253.522 116.051 249.958 123.685 249.328 128.372C247.87 139.259 259.359 140.239 265.001 137.428C265.001 137.428 283.784 146.371 291.647 134.618C298.542 124.309 287.167 121.366 281.616 122.751C277.854 123.689 274.721 124.937 276.285 126.185C278.362 127.842 294.108 123.488 294.108 112.574C294.108 101.661 278.169 106.578 278.169 109.809L278.172 109.805Z" fill="#1E1F21" stroke="white" stroke-width="2.8555" stroke-miterlimit="10" stroke-linecap="round" stroke-linejoin="round"/>
<path d="M130.578 54.5644C116.727 50.2696 106.585 72.8961 118.443 75.8797C137.038 81.0264 141.804 58.0451 130.578 54.5644Z" fill="#1E1F21" stroke="white" stroke-width="2.8555" stroke-miterlimit="10" stroke-linecap="round" stroke-linejoin="round"/>
<path d="M104.261 90.0186C98.1204 97.5371 94.3505 106.792 93.3951 111.136C91.1856 112.856 87.3591 117.143 85.6335 123.204C82.515 134.168 87.2772 138.147 90.9429 139.388C95.6439 140.978 105.092 137.996 107.352 129.174C111.451 125.231 115.736 122.609 120.475 114.384C128.341 100.728 135.451 84.2032 122.744 81.0264C116.452 80.3047 109.202 83.9693 104.261 90.0186Z" fill="#1E1F21" stroke="white" stroke-width="2.8555" stroke-miterlimit="10" stroke-linecap="round" stroke-linejoin="round"/>
<path d="M138.18 111.89C141.825 106.371 145.433 105.537 148.256 105.537C151.615 108.713 157.524 109.592 159.591 107.501C165.049 103.948 165.877 94.2955 159.896 89.8811C154.907 86.2006 145.854 83.5566 136.501 88.5081C115.708 99.5117 108.964 132.046 126.225 138.295C151.337 146.15 162.455 123.912 153.827 117.033C152.025 114.888 146.489 114.181 143.478 117.736C138.18 122.324 134.399 117.613 138.18 111.89Z" fill="#1E1F21" stroke="white" stroke-width="2.8555" stroke-miterlimit="10" stroke-linecap="round" stroke-linejoin="round"/>
</svg>
