<svg width="854" height="854" viewBox="0 0 854 854" fill="none" xmlns="http://www.w3.org/2000/svg">
<path d="M427 846C658.407 846 846 658.407 846 427C846 195.593 658.407 8 427 8C195.593 8 8 195.593 8 427C8 658.407 195.593 846 427 846Z" fill="#3973CB" stroke="white" stroke-width="15.5185" stroke-miterlimit="10"/>
<path d="M293.705 375.145C376.794 332.203 478.703 333.111 483.169 339.834C520.468 357.281 534.848 358.582 550.627 350.459C578.306 336.178 573.889 303.688 556.368 285.873C530.357 259.42 463.293 229.336 346.464 251.028C209.169 276.524 87.4321 386.065 147.233 476.344C219.107 584.854 272.872 588.805 298.907 539.924C306.809 525.102 296.748 486.797 251.621 484C207.795 434.088 256.529 394.408 293.705 375.17V375.145Z" fill="#FF5D5D" stroke="white" stroke-width="7.36164" stroke-miterlimit="10"/>
<path d="M253.268 364.919C284.481 351.913 312.112 363.495 315.866 369.139C311.449 406.168 337.093 413.383 351.693 410.389C376.772 405.26 416.696 372.305 406.12 336.576C397.311 306.786 374.293 273.487 322.001 267.843C205.687 255.304 80.4902 374.023 130.574 449.651" fill="#FF5D5D"/>
<path d="M253.268 364.919C284.481 351.913 312.112 363.495 315.866 369.139C311.449 406.168 337.093 413.383 351.693 410.389C376.772 405.26 416.696 372.305 406.12 336.576C397.311 306.786 374.293 273.487 322.001 267.843C205.687 255.304 80.4902 374.023 130.574 449.651" stroke="white" stroke-width="7.36164" stroke-miterlimit="10"/>
<path d="M226.887 347.176C254.861 328.134 284.259 333.949 289.044 338.734C292.161 375.911 318.736 377.8 332.429 371.935C355.961 361.85 388.451 321.557 370.906 288.675C356.28 261.265 327.055 233.291 274.689 238.272C158.252 249.389 59.4836 390.879 123.751 454.901" fill="#FF5D5D"/>
<path d="M226.887 347.176C254.861 328.134 284.259 333.949 289.044 338.734C292.161 375.911 318.736 377.8 332.429 371.935C355.961 361.85 388.451 321.557 370.906 288.675C356.28 261.265 327.055 233.291 274.689 238.272C158.252 249.389 59.4836 390.879 123.751 454.901" stroke="white" stroke-width="7.36164" stroke-miterlimit="10"/>
<path d="M198.961 327.272C226.935 308.23 256.332 314.046 261.118 318.831C264.234 356.007 290.809 357.897 304.502 352.032C328.035 341.947 360.524 301.654 342.979 268.772C328.354 241.362 299.128 213.388 246.762 218.369C130.326 229.485 31.5571 370.976 95.8242 434.998C95.8242 434.998 109.075 448.69 142.325 468.125" fill="#FF5D5D"/>
<path d="M198.961 327.272C226.935 308.23 256.332 314.046 261.118 318.831C264.234 356.007 290.809 357.897 304.502 352.032C328.035 341.947 360.524 301.654 342.979 268.772C328.354 241.362 299.128 213.388 246.762 218.369C130.326 229.485 31.5571 370.976 95.8242 434.998C95.8242 434.998 109.075 448.69 142.325 468.125" stroke="white" stroke-width="7.36164" stroke-miterlimit="10"/>
<path d="M530.015 587.063C446.927 630.006 345.017 629.098 340.551 622.375C303.252 604.928 288.873 603.627 273.094 611.749C245.414 626.031 249.831 658.52 267.352 676.336C293.363 702.788 360.428 732.873 477.257 711.181C614.551 685.685 736.288 576.144 676.487 485.865C604.613 377.355 550.849 373.404 524.813 422.285C516.912 437.107 526.973 475.412 572.099 478.209C615.926 528.121 567.192 567.8 530.015 587.039V587.063Z" fill="#FF5D5D" stroke="white" stroke-width="7.36164" stroke-miterlimit="10"/>
<path d="M570.453 597.276C539.24 610.282 511.609 598.7 507.855 593.056C512.272 556.027 486.628 548.812 472.028 551.806C446.949 556.935 407.025 589.89 417.601 625.619C426.41 655.409 449.428 688.708 501.72 694.352C618.034 706.891 743.231 588.173 693.147 512.544" fill="#FF5D5D"/>
<path d="M570.453 597.276C539.24 610.282 511.609 598.7 507.855 593.056C512.272 556.027 486.628 548.812 472.028 551.806C446.949 556.935 407.025 589.89 417.601 625.619C426.41 655.409 449.428 688.708 501.72 694.352C618.034 706.891 743.231 588.173 693.147 512.544" stroke="white" stroke-width="7.36164" stroke-miterlimit="10"/>
<path d="M596.832 615.038C568.858 634.08 539.461 628.264 534.676 623.479C531.559 586.303 504.984 584.413 491.291 590.278C467.758 600.364 435.269 640.656 452.814 673.538C467.439 700.948 496.665 728.922 549.031 723.941C665.467 712.825 764.236 571.334 699.969 507.312" fill="#FF5D5D"/>
<path d="M596.832 615.038C568.858 634.08 539.461 628.264 534.676 623.479C531.559 586.303 504.984 584.413 491.291 590.278C467.758 600.364 435.269 640.656 452.814 673.538C467.439 700.948 496.665 728.922 549.031 723.941C665.467 712.825 764.236 571.334 699.969 507.312" stroke="white" stroke-width="7.36164" stroke-miterlimit="10"/>
<path d="M624.759 634.946C596.785 653.989 567.387 648.173 562.602 643.388C559.486 606.212 532.91 604.322 519.218 610.187C495.685 620.272 463.196 660.565 480.741 693.447C495.366 720.857 524.592 748.831 576.957 743.85C693.394 732.734 792.163 591.243 727.896 527.221C727.896 527.221 714.645 513.528 681.394 494.094" fill="#FF5D5D"/>
<path d="M624.759 634.946C596.785 653.989 567.387 648.173 562.602 643.388C559.486 606.212 532.91 604.322 519.218 610.187C495.685 620.272 463.196 660.565 480.741 693.447C495.366 720.857 524.592 748.831 576.957 743.85C693.394 732.734 792.163 591.243 727.896 527.221C727.896 527.221 714.645 513.528 681.394 494.094" stroke="white" stroke-width="7.36164" stroke-miterlimit="10"/>
<path d="M411.862 454.579V507.607" stroke="white" stroke-width="7.36164" stroke-miterlimit="10" stroke-linecap="round"/>
<path d="M438.389 481.106H385.336" stroke="white" stroke-width="7.36164" stroke-miterlimit="10" stroke-linecap="round"/>
<path d="M309.608 61.2881C315.35 98.6852 321.092 136.181 326.883 173.798C316.577 175.933 306.295 178.387 296.112 181.16C295.572 174.338 295.032 167.517 294.517 160.695C290.958 161.676 287.4 162.707 283.842 163.787C283.253 170.952 282.64 178.093 282.051 185.258C271.794 188.399 261.635 191.859 251.549 195.663C256.53 154.977 261.512 114.39 266.542 73.8765C280.75 69.0178 295.155 64.8217 309.657 61.2881H309.608ZM293.707 140.278C292.185 127.518 290.664 111.666 289.167 92.6732C286.124 115.838 284.21 132.721 283.45 143.248C286.86 142.217 290.296 141.211 293.731 140.254L293.707 140.278Z" fill="white"/>
<path d="M400.28 47.9199C400.28 86.7158 400.28 125.512 400.28 164.307C391.299 164.798 382.318 165.51 373.386 166.491C368.086 149.437 362.761 132.456 357.485 115.573V168.479C348.97 169.681 340.479 171.105 332.038 172.749V56.3858C340.504 54.7417 348.97 53.3185 357.485 52.1161C363.202 68.7779 368.92 85.5379 374.637 102.396V49.9812C383.177 49.0732 391.741 48.3862 400.305 47.9199H400.28Z" fill="white"/>
<path d="M483.145 93.2435C472.937 92.0901 462.704 91.2313 452.447 90.716V80.1397C452.447 73.4897 452.153 69.2936 451.564 67.5759C450.975 65.8827 449.601 64.9502 447.392 64.8766C445.503 64.803 444.202 65.4655 443.515 66.8888C442.828 68.312 442.484 71.9929 442.484 77.9312V133.782C442.484 139.008 442.828 142.444 443.515 144.137C444.202 145.806 445.552 146.689 447.613 146.763C449.846 146.861 451.367 146.002 452.177 144.161C452.987 142.346 453.379 138.714 453.379 133.291V119.5C451.318 119.402 449.232 119.304 447.171 119.206V101.513C459.171 102.004 471.17 102.936 483.12 104.286V166.762C476.716 166.026 470.287 165.437 463.858 164.946C462.901 162.099 461.968 159.253 461.011 156.406C458.925 159.866 456.275 162.394 453.085 164.013C449.895 165.633 446.14 166.369 441.797 166.246C436.619 166.099 431.785 164.799 427.27 162.32C422.755 159.842 419.344 156.848 416.988 153.265C414.657 149.658 413.185 145.904 412.596 141.904C412.007 137.929 411.713 131.917 411.713 123.917V89.3418C411.713 78.2257 412.326 70.1279 413.528 65.0729C414.755 60.0179 418.24 55.2819 424.006 51.0613C429.773 46.8406 437.257 44.7793 446.41 45.1474C455.416 45.5155 462.876 47.8467 468.814 51.9937C474.753 56.1408 478.605 60.8768 480.397 66.079C482.188 71.2812 483.096 78.6674 483.096 88.1885V93.2189L483.145 93.2435Z" fill="white"/>
<path d="M525.428 57.0468V150.147C531.562 151.399 537.697 152.748 543.807 154.22V177.508C527.661 173.606 511.367 170.514 495 168.257V51.8691C505.183 53.2679 515.342 55.0101 525.428 57.0468Z" fill="white"/>
<path d="M551.069 62.959C567.755 67.2778 584.27 72.4555 600.563 78.5411V101.828C594.036 99.3991 587.484 97.117 580.908 94.9576V117.018C587.067 119.03 593.202 121.165 599.312 123.423V145.557C593.202 143.299 587.067 141.164 580.908 139.152V164.746C588.147 167.102 595.361 169.654 602.526 172.353V195.64C585.619 189.26 568.442 183.813 551.093 179.346V62.959H551.069Z" fill="white"/>
<path d="M682.546 443.904C682.546 443.904 697.833 315.37 762.591 315.37C697.833 315.37 682.546 186.836 682.546 186.836C682.546 186.836 667.258 315.37 602.5 315.37C667.258 315.37 682.546 443.904 682.546 443.904Z" fill="#FFFDC2" stroke="white" stroke-width="7.36164" stroke-linecap="round" stroke-linejoin="round"/>
<path d="M172.114 714.299C172.114 714.299 179.844 649.271 212.603 649.271C179.844 649.271 172.114 584.243 172.114 584.243C172.114 584.243 164.385 649.271 131.625 649.271C164.385 649.271 172.114 714.299 172.114 714.299Z" fill="#FFFDC2" stroke="white" stroke-width="7.36164" stroke-linecap="round" stroke-linejoin="round"/>
</svg>
