<svg width="170" height="48" viewBox="0 0 170 48" fill="none" xmlns="http://www.w3.org/2000/svg">
<rect width="170" height="48" rx="24" fill="#FF5D5D"/>
<path d="M25 43C35.4934 43 44 34.4934 44 24C44 13.5066 35.4934 5 25 5C14.5066 5 6 13.5066 6 24C6 34.4934 14.5066 43 25 43Z" fill="#3973CB" stroke="white" stroke-width="0.703704" stroke-miterlimit="10"/>
<path d="M18.9535 21.6481C22.7213 19.7008 27.3425 19.742 27.545 20.0469C29.2364 20.838 29.8884 20.897 30.6039 20.5287C31.8591 19.8811 31.6588 18.4078 30.8643 17.6C29.6848 16.4004 26.6437 15.0362 21.3459 16.0199C15.1202 17.176 9.59986 22.1433 12.3116 26.237C15.5708 31.1576 18.0088 31.3367 19.1894 29.1201C19.5477 28.448 19.0915 26.7111 17.0452 26.5842C15.0578 24.3209 17.2677 22.5216 18.9535 21.6492V21.6481Z" fill="#FF5D5D" stroke="white" stroke-width="0.333821" stroke-miterlimit="10"/>
<path d="M17.121 21.1848C18.5364 20.5951 19.7893 21.1203 19.9595 21.3762C19.7593 23.0554 20.9221 23.3825 21.5841 23.2468C22.7214 23.0142 24.5318 21.5198 24.0522 19.8996C23.6527 18.5488 22.609 17.0388 20.2377 16.7829C14.9634 16.2142 9.28616 21.5977 11.5573 25.0271" fill="#FF5D5D"/>
<path d="M17.121 21.1848C18.5364 20.5951 19.7893 21.1203 19.9595 21.3762C19.7593 23.0554 20.9221 23.3825 21.5841 23.2468C22.7214 23.0142 24.5318 21.5198 24.0522 19.8996C23.6527 18.5488 22.609 17.0388 20.2377 16.7829C14.9634 16.2142 9.28616 21.5977 11.5573 25.0271" stroke="white" stroke-width="0.333821" stroke-miterlimit="10"/>
<path d="M15.9232 20.3802C17.1917 19.5167 18.5248 19.7804 18.7418 19.9974C18.8831 21.6832 20.0882 21.7689 20.7091 21.5029C21.7762 21.0456 23.2495 19.2185 22.4539 17.7274C21.7907 16.4845 20.4654 15.2159 18.0908 15.4418C12.8109 15.9459 8.33209 22.3619 11.2464 25.2651" fill="#FF5D5D"/>
<path d="M15.9232 20.3802C17.1917 19.5167 18.5248 19.7804 18.7418 19.9974C18.8831 21.6832 20.0882 21.7689 20.7091 21.5029C21.7762 21.0456 23.2495 19.2185 22.4539 17.7274C21.7907 16.4845 20.4654 15.2159 18.0908 15.4418C12.8109 15.9459 8.33209 22.362 11.2464 25.2651" stroke="white" stroke-width="0.333821" stroke-miterlimit="10"/>
<path d="M14.6576 19.4773C15.9261 18.6138 17.2591 18.8776 17.4761 19.0945C17.6174 20.7803 18.8225 20.866 19.4435 20.6001C20.5106 20.1427 21.9838 18.3156 21.1882 16.8246C20.525 15.5816 19.1998 14.3131 16.8252 14.539C11.5452 15.0431 7.06647 21.4591 9.98073 24.3623C9.98073 24.3623 10.5816 24.9832 12.0894 25.8644" fill="#FF5D5D"/>
<path d="M14.6576 19.4773C15.9261 18.6138 17.2591 18.8776 17.4761 19.0945C17.6174 20.7803 18.8225 20.866 19.4435 20.6001C20.5106 20.1427 21.9838 18.3156 21.1882 16.8246C20.525 15.5816 19.1998 14.3131 16.8252 14.539C11.5452 15.0431 7.06647 21.4591 9.98073 24.3623C9.98073 24.3623 10.5816 24.9832 12.0894 25.8644" stroke="white" stroke-width="0.333821" stroke-miterlimit="10"/>
<path d="M29.6704 31.2579C25.9027 33.2052 21.2815 33.1641 21.079 32.8592C19.3876 32.068 18.7356 32.009 18.0201 32.3774C16.7649 33.025 16.9652 34.4982 17.7597 35.3061C18.9392 36.5056 21.9803 37.8698 27.2781 36.8862C33.5038 35.73 39.0241 30.7628 36.3124 26.669C33.0532 21.7485 30.6152 21.5693 29.4345 23.7859C29.0762 24.458 29.5325 26.195 31.5788 26.3218C33.5661 28.5851 31.3562 30.3844 29.6704 31.2568V31.2579Z" fill="#FF5D5D" stroke="white" stroke-width="0.333821" stroke-miterlimit="10"/>
<path d="M31.5045 31.7212C30.0891 32.3109 28.8362 31.7857 28.6659 31.5298C28.8662 29.8507 27.7034 29.5235 27.0413 29.6593C25.9041 29.8918 24.0937 31.3863 24.5733 33.0064C24.9727 34.3573 26.0165 35.8673 28.3877 36.1232C33.6621 36.6918 39.3393 31.3084 37.0682 27.8789" fill="#FF5D5D"/>
<path d="M31.5045 31.7212C30.0891 32.3109 28.8362 31.7857 28.6659 31.5298C28.8662 29.8507 27.7034 29.5235 27.0413 29.6593C25.9041 29.8918 24.0937 31.3863 24.5733 33.0064C24.9727 34.3573 26.0165 35.8673 28.3877 36.1232C33.6621 36.6918 39.3393 31.3084 37.0682 27.8789" stroke="white" stroke-width="0.333821" stroke-miterlimit="10"/>
<path d="M32.7005 32.5265C31.432 33.39 30.0989 33.1263 29.882 32.9093C29.7406 31.2235 28.5356 31.1378 27.9146 31.4038C26.8475 31.8611 25.3743 33.6882 26.1699 35.1793C26.8331 36.4222 28.1583 37.6907 30.5329 37.4648C35.8129 36.9608 40.2916 30.5447 37.3774 27.6416" fill="#FF5D5D"/>
<path d="M32.7005 32.5265C31.432 33.39 30.0989 33.1263 29.882 32.9093C29.7406 31.2235 28.5356 31.1378 27.9146 31.4038C26.8475 31.8611 25.3743 33.6882 26.1699 35.1793C26.8331 36.4222 28.1583 37.6907 30.5329 37.4648C35.8129 36.9608 40.2916 30.5447 37.3774 27.6416" stroke="white" stroke-width="0.333821" stroke-miterlimit="10"/>
<path d="M33.9661 33.4291C32.6976 34.2926 31.3646 34.0289 31.1476 33.8119C31.0063 32.1261 29.8012 32.0404 29.1803 32.3064C28.1132 32.7637 26.6399 34.5908 27.4355 36.0819C28.0987 37.3248 29.424 38.5933 31.7985 38.3674C37.0785 37.8634 41.5572 31.4473 38.643 28.5442C38.643 28.5442 38.0421 27.9233 36.5343 27.042" fill="#FF5D5D"/>
<path d="M33.9661 33.4291C32.6976 34.2926 31.3646 34.0289 31.1476 33.8119C31.0063 32.1261 29.8012 32.0404 29.1803 32.3064C28.1132 32.7637 26.6399 34.5908 27.4355 36.0819C28.0987 37.3248 29.424 38.5933 31.7985 38.3674C37.0785 37.8634 41.5572 31.4473 38.643 28.5442C38.643 28.5442 38.0421 27.9233 36.5343 27.042" stroke="white" stroke-width="0.333821" stroke-miterlimit="10"/>
<path d="M24.3125 25.251V27.6556" stroke="white" stroke-width="0.333821" stroke-miterlimit="10" stroke-linecap="round"/>
<path d="M25.5151 26.4541H23.1094" stroke="white" stroke-width="0.333821" stroke-miterlimit="10" stroke-linecap="round"/>
<path d="M19.6777 7.83057C19.938 9.52638 20.1984 11.2266 20.461 12.9325C19.9937 13.0293 19.5274 13.1406 19.0657 13.2663C19.0412 12.957 19.0167 12.6476 18.9933 12.3383C18.832 12.3828 18.6706 12.4295 18.5093 12.4785C18.4826 12.8034 18.4548 13.1272 18.4281 13.4521C17.9629 13.5945 17.5023 13.7514 17.0449 13.9239C17.2708 12.079 17.4967 10.2385 17.7248 8.4014C18.3691 8.18108 19.0223 7.9908 19.6799 7.83057H19.6777ZM18.9566 11.4125C18.8876 10.8338 18.8186 10.115 18.7507 9.25376C18.6128 10.3042 18.526 11.0697 18.4915 11.5471C18.6462 11.5004 18.8019 11.4548 18.9577 11.4114L18.9566 11.4125Z" fill="white"/>
<path d="M23.7898 7.22412C23.7898 8.98336 23.7898 10.7426 23.7898 12.5018C23.3826 12.5241 22.9753 12.5564 22.5703 12.6009C22.3299 11.8275 22.0885 11.0575 21.8492 10.2919V12.691C21.4631 12.7455 21.0781 12.8101 20.6953 12.8846V7.60802C21.0792 7.53346 21.4631 7.46892 21.8492 7.4144C22.1085 8.16995 22.3678 8.92995 22.627 9.6944V7.31759C23.0143 7.27642 23.4026 7.24526 23.791 7.22412H23.7898Z" fill="white"/>
<path d="M27.5458 9.27955C27.0829 9.22725 26.6189 9.1883 26.1538 9.16494V8.68535C26.1538 8.38379 26.1404 8.19352 26.1137 8.11562C26.087 8.03885 26.0247 7.99656 25.9246 7.99322C25.8389 7.98988 25.7799 8.01993 25.7487 8.08447C25.7176 8.14901 25.702 8.31592 25.702 8.5852V11.1178C25.702 11.3548 25.7176 11.5106 25.7487 11.5874C25.7799 11.663 25.8411 11.7031 25.9346 11.7064C26.0358 11.7109 26.1048 11.6719 26.1415 11.5885C26.1783 11.5061 26.1961 11.3415 26.1961 11.0955V10.4702C26.1026 10.4657 26.008 10.4613 25.9145 10.4568V9.65454C26.4587 9.6768 27.0028 9.71908 27.5447 9.78028V12.6133C27.2543 12.5799 26.9627 12.5532 26.6712 12.531C26.6278 12.4019 26.5855 12.2728 26.5421 12.1437C26.4475 12.3006 26.3274 12.4152 26.1827 12.4887C26.0381 12.5621 25.8678 12.5955 25.6709 12.5899C25.4361 12.5833 25.2169 12.5243 25.0121 12.4119C24.8074 12.2995 24.6527 12.1638 24.5459 12.0013C24.4402 11.8377 24.3734 11.6675 24.3467 11.4861C24.32 11.3058 24.3066 11.0332 24.3066 10.6705V9.10262C24.3066 8.59855 24.3345 8.23135 24.389 8.00213C24.4446 7.7729 24.6026 7.55814 24.8641 7.36675C25.1256 7.17536 25.465 7.08189 25.88 7.09858C26.2884 7.11527 26.6267 7.22098 26.896 7.40904C27.1653 7.59709 27.34 7.81185 27.4212 8.04775C27.5024 8.28365 27.5436 8.61858 27.5436 9.05032V9.27844L27.5458 9.27955Z" fill="white"/>
<path d="M29.4638 7.63811V11.8598C29.742 11.9166 30.0201 11.9778 30.2972 12.0446V13.1005C29.565 12.9236 28.8262 12.7834 28.084 12.681V7.40332C28.5458 7.46675 29.0064 7.54575 29.4638 7.63811Z" fill="white"/>
<path d="M30.627 7.90625C31.3836 8.10209 32.1325 8.33688 32.8713 8.61284V9.66883C32.5754 9.55867 32.2783 9.45518 31.98 9.35726V10.3576C32.2593 10.4489 32.5375 10.5457 32.8146 10.648V11.6517C32.5375 11.5494 32.2593 11.4525 31.98 11.3613V12.5219C32.3083 12.6287 32.6354 12.7444 32.9604 12.8668V13.9228C32.1937 13.6335 31.4148 13.3865 30.6281 13.184V7.90625H30.627Z" fill="white"/>
<path d="M36.5868 24.7664C36.5868 24.7664 37.28 18.9379 40.2165 18.9379C37.28 18.9379 36.5868 13.1094 36.5868 13.1094C36.5868 13.1094 35.8935 18.9379 32.957 18.9379C35.8935 18.9379 36.5868 24.7664 36.5868 24.7664Z" fill="#FFFDC2" stroke="white" stroke-width="0.333821" stroke-linecap="round" stroke-linejoin="round"/>
<path d="M13.4415 37.0279C13.4415 37.0279 13.792 34.0791 15.2775 34.0791C13.792 34.0791 13.4415 31.1304 13.4415 31.1304C13.4415 31.1304 13.091 34.0791 11.6055 34.0791C13.091 34.0791 13.4415 37.0279 13.4415 37.0279Z" fill="#FFFDC2" stroke="white" stroke-width="0.333821" stroke-linecap="round" stroke-linejoin="round"/>
<path d="M65.0312 18.9375C65.0312 19.8438 65.0078 20.6458 64.9609 21.3438C64.9193 22.0365 64.8125 22.8229 64.6406 23.7031H66.6562V24.9219H60.9844V30.8438H59.4844V24.9219H53.8906V23.7031H63.1406C63.3229 22.8229 63.4375 22.0391 63.4844 21.3516C63.5312 20.6641 63.5573 19.8594 63.5625 18.9375V18.9219H55.4531V17.7031H65.0312V18.9375ZM79.0625 24.4688H74.8281V27.8906H80.5312V29.1094H67.7188V27.8906H73.3594V24.4688H69.3125V17.9062H78.9375V19.1094H70.7969V23.2812H79.0625V24.4688ZM92.4531 22.4062H94.625V23.6406H92.4531V30.8125H90.9688V16.8281H92.4531V22.4062ZM81.5625 27.0781C83.3125 26.2031 84.6641 25.1354 85.6172 23.875C86.5755 22.6146 87.1302 21.1667 87.2812 19.5312H82.2656V18.2969H88.7969C88.7865 20.4323 88.2682 22.3516 87.2422 24.0547C86.2161 25.7526 84.599 27.1458 82.3906 28.2344L81.5625 27.0781ZM106.391 22.5312H112.078V23.7344H99.2656V22.5312H104.922V21H106.391V22.5312ZM99.9219 20.7188C100.745 20.6615 101.5 20.5234 102.188 20.3047C102.88 20.0859 103.443 19.8099 103.875 19.4766C104.312 19.138 104.57 18.7708 104.648 18.375H100.453V17.2344H110.906V18.375H106.664C106.742 18.7708 106.997 19.138 107.43 19.4766C107.862 19.8099 108.424 20.0859 109.117 20.3047C109.81 20.5234 110.573 20.6615 111.406 20.7188L110.922 21.8281C110.094 21.7552 109.326 21.6094 108.617 21.3906C107.914 21.1719 107.307 20.888 106.797 20.5391C106.286 20.1849 105.911 19.7786 105.672 19.3203C105.427 19.7786 105.047 20.1849 104.531 20.5391C104.021 20.888 103.411 21.1719 102.703 21.3906C102 21.6094 101.234 21.7552 100.406 21.8281L99.9219 20.7188ZM100.453 25.4531H104.922V24.2188H106.391V25.4531H110.859V26.5938H100.453V25.4531ZM101.406 29.0312C101.401 28.4323 101.763 27.9766 102.492 27.6641C103.221 27.3516 104.271 27.1927 105.641 27.1875C107.01 27.1927 108.065 27.3516 108.805 27.6641C109.544 27.9766 109.917 28.4323 109.922 29.0312C109.917 29.6354 109.547 30.0964 108.812 30.4141C108.083 30.7318 107.042 30.8906 105.688 30.8906C104.302 30.8906 103.24 30.7318 102.5 30.4141C101.766 30.1016 101.401 29.6406 101.406 29.0312ZM102.922 29.0312C102.917 29.3125 103.148 29.526 103.617 29.6719C104.086 29.8177 104.76 29.8854 105.641 29.875C106.531 29.8802 107.211 29.8099 107.68 29.6641C108.148 29.5234 108.385 29.3125 108.391 29.0312C108.385 28.4896 107.469 28.2135 105.641 28.2031C103.812 28.2135 102.906 28.4896 102.922 29.0312ZM116.859 17.875C117.552 17.875 118.169 18.0781 118.711 18.4844C119.258 18.8854 119.685 19.4583 119.992 20.2031C120.299 20.9427 120.453 21.8021 120.453 22.7812C120.453 23.7708 120.299 24.638 119.992 25.3828C119.685 26.1276 119.26 26.7005 118.719 27.1016C118.177 27.5026 117.557 27.7031 116.859 27.7031C116.161 27.7031 115.542 27.5026 115 27.1016C114.458 26.7005 114.036 26.1276 113.734 25.3828C113.432 24.638 113.281 23.7708 113.281 22.7812C113.281 21.8021 113.432 20.9427 113.734 20.2031C114.036 19.4583 114.458 18.8854 115 18.4844C115.542 18.0781 116.161 17.875 116.859 17.875ZM114.703 22.7812C114.703 23.5104 114.792 24.1458 114.969 24.6875C115.151 25.2292 115.406 25.6458 115.734 25.9375C116.062 26.2292 116.438 26.375 116.859 26.375C117.292 26.375 117.672 26.2318 118 25.9453C118.328 25.6536 118.581 25.237 118.758 24.6953C118.94 24.1484 119.031 23.5104 119.031 22.7812C119.031 22.0573 118.94 21.4271 118.758 20.8906C118.581 20.349 118.328 19.9323 118 19.6406C117.672 19.349 117.292 19.2031 116.859 19.2031C116.438 19.2031 116.062 19.3516 115.734 19.6484C115.406 19.9401 115.151 20.3568 114.969 20.8984C114.792 21.4349 114.703 22.0625 114.703 22.7812ZM122.531 16.8281H124.016V22.3125H126.266V23.5625H124.016V30.8281H122.531V16.8281ZM139.75 29.0781H126.938V27.8438H130V24.1875C129.411 23.8646 128.956 23.4557 128.633 22.9609C128.31 22.4661 128.151 21.9115 128.156 21.2969C128.156 20.5729 128.375 19.9349 128.812 19.3828C129.25 18.8307 129.859 18.4036 130.641 18.1016C131.427 17.7943 132.318 17.6406 133.312 17.6406C134.307 17.6406 135.198 17.7943 135.984 18.1016C136.771 18.4036 137.383 18.8307 137.82 19.3828C138.263 19.9349 138.484 20.5729 138.484 21.2969C138.484 21.9062 138.328 22.4557 138.016 22.9453C137.703 23.4297 137.26 23.8333 136.688 24.1562V27.8438H139.75V29.0781ZM129.594 21.2969C129.594 21.7917 129.75 22.2266 130.062 22.6016C130.375 22.9766 130.812 23.2682 131.375 23.4766C131.938 23.6797 132.583 23.7812 133.312 23.7812C134.036 23.7812 134.68 23.6771 135.242 23.4688C135.81 23.2604 136.253 22.9714 136.57 22.6016C136.888 22.2266 137.047 21.7917 137.047 21.2969C137.047 20.8021 136.888 20.3698 136.57 20C136.253 19.625 135.81 19.3359 135.242 19.1328C134.68 18.9297 134.036 18.8281 133.312 18.8281C132.583 18.8281 131.938 18.9297 131.375 19.1328C130.812 19.3359 130.375 19.625 130.062 20C129.75 20.3698 129.594 20.8021 129.594 21.2969ZM135.188 27.8438V24.7344C134.604 24.8698 133.979 24.9375 133.312 24.9375C132.656 24.9375 132.042 24.8698 131.469 24.7344V27.8438H135.188ZM143.203 26.2344H141.656L141.516 18.1875H143.344L143.203 26.2344ZM141.328 28.5156C141.328 28.3125 141.378 28.125 141.477 27.9531C141.576 27.7812 141.708 27.6458 141.875 27.5469C142.047 27.4427 142.234 27.3906 142.438 27.3906C142.635 27.3906 142.818 27.4401 142.984 27.5391C143.156 27.638 143.292 27.7734 143.391 27.9453C143.495 28.1172 143.547 28.3021 143.547 28.5C143.547 28.6979 143.495 28.8828 143.391 29.0547C143.292 29.2214 143.156 29.3568 142.984 29.4609C142.818 29.5599 142.635 29.6094 142.438 29.6094C142.24 29.6094 142.055 29.5599 141.883 29.4609C141.716 29.362 141.581 29.2292 141.477 29.0625C141.378 28.8958 141.328 28.7135 141.328 28.5156Z" fill="white"/>
</svg>
