<svg width="170" height="48" viewBox="0 0 170 48" fill="none" xmlns="http://www.w3.org/2000/svg">
<rect width="170" height="48" rx="24" fill="#FF5D5D"/>
<path d="M25 43C35.4934 43 44 34.4934 44 24C44 13.5066 35.4934 5 25 5C14.5066 5 6 13.5066 6 24C6 34.4934 14.5066 43 25 43Z" fill="#3973CB" stroke="white" stroke-width="0.703704" stroke-miterlimit="10"/>
<path d="M18.9555 21.6486C22.7232 19.7013 27.3444 19.7425 27.5469 20.0474C29.2383 20.8385 29.8904 20.8975 30.6059 20.5292C31.861 19.8816 31.6607 18.4083 30.8662 17.6005C29.6867 16.4009 26.6456 15.0367 21.3479 16.0204C15.1221 17.1765 9.60182 22.1438 12.3136 26.2375C15.5728 31.158 18.0108 31.3372 19.1914 29.1206C19.5497 28.4485 19.0935 26.7115 17.0471 26.5847C15.0598 24.3214 17.2697 22.5221 18.9555 21.6497V21.6486Z" fill="#FF5D5D" stroke="white" stroke-width="0.333821" stroke-miterlimit="10"/>
<path d="M17.1217 21.1848C18.5371 20.5951 19.79 21.1203 19.9603 21.3762C19.76 23.0554 20.9228 23.3825 21.5849 23.2468C22.7221 23.0142 24.5325 21.5198 24.0529 19.8996C23.6535 18.5488 22.6097 17.0388 20.2385 16.7829C14.9641 16.2142 9.2869 21.5977 11.558 25.0271" fill="#FF5D5D"/>
<path d="M17.1217 21.1848C18.5371 20.5951 19.79 21.1203 19.9603 21.3762C19.76 23.0554 20.9228 23.3825 21.5849 23.2468C22.7221 23.0142 24.5325 21.5198 24.0529 19.8996C23.6535 18.5488 22.6097 17.0388 20.2385 16.7829C14.9641 16.2142 9.2869 21.5977 11.558 25.0271" stroke="white" stroke-width="0.333821" stroke-miterlimit="10"/>
<path d="M15.9256 20.3803C17.1942 19.5168 18.5272 19.7805 18.7442 19.9975C18.8855 21.6833 20.0906 21.769 20.7115 21.503C21.7786 21.0457 23.2519 19.2186 22.4563 17.7275C21.7931 16.4846 20.4678 15.2161 18.0932 15.442C12.8133 15.946 8.33454 22.3621 11.2488 25.2652" fill="#FF5D5D"/>
<path d="M15.9256 20.3803C17.1942 19.5168 18.5272 19.7805 18.7442 19.9975C18.8855 21.6833 20.0906 21.769 20.7115 21.503C21.7786 21.0457 23.2519 19.2186 22.4563 17.7275C21.7931 16.4846 20.4678 15.2161 18.0932 15.442C12.8133 15.946 8.33454 22.3621 11.2488 25.2652" stroke="white" stroke-width="0.333821" stroke-miterlimit="10"/>
<path d="M14.6593 19.4778C15.9278 18.6143 17.2609 18.8781 17.4778 19.095C17.6192 20.7808 18.8243 20.8665 19.4452 20.6006C20.5123 20.1432 21.9855 18.3161 21.1899 16.8251C20.5267 15.5821 19.2015 14.3136 16.8269 14.5395C11.5469 15.0436 7.06818 21.4596 9.98244 24.3627C9.98244 24.3627 10.5833 24.9836 12.0911 25.8649" fill="#FF5D5D"/>
<path d="M14.6593 19.4778C15.9278 18.6143 17.2609 18.8781 17.4778 19.095C17.6192 20.7808 18.8243 20.8665 19.4452 20.6006C20.5123 20.1432 21.9855 18.3161 21.1899 16.8251C20.5267 15.5821 19.2015 14.3136 16.8269 14.5395C11.5469 15.0436 7.06818 21.4596 9.98244 24.3627C9.98244 24.3627 10.5833 24.9836 12.0911 25.8649" stroke="white" stroke-width="0.333821" stroke-miterlimit="10"/>
<path d="M29.6714 31.2583C25.9037 33.2056 21.2825 33.1644 21.08 32.8595C19.3886 32.0684 18.7365 32.0094 18.021 32.3777C16.7659 33.0253 16.9662 34.4986 17.7607 35.3064C18.9402 36.506 21.9813 37.8702 27.279 36.8865C33.5048 35.7304 39.0251 30.7631 36.3133 26.6694C33.0541 21.7488 30.6161 21.5697 29.4355 23.7863C29.0772 24.4584 29.5334 26.1953 31.5798 26.3222C33.5671 28.5855 31.3572 30.3848 29.6714 31.2572V31.2583Z" fill="#FF5D5D" stroke="white" stroke-width="0.333821" stroke-miterlimit="10"/>
<path d="M31.505 31.7214C30.0896 32.3112 28.8367 31.786 28.6664 31.53C28.8667 29.8509 27.7039 29.5238 27.0418 29.6595C25.9046 29.8921 24.0942 31.3865 24.5738 33.0066C24.9732 34.3575 26.017 35.8675 28.3882 36.1234C33.6626 36.692 39.3398 31.3086 37.0687 27.8792" fill="#FF5D5D"/>
<path d="M31.505 31.7214C30.0896 32.3112 28.8367 31.786 28.6664 31.53C28.8667 29.8509 27.7039 29.5238 27.0418 29.6595C25.9046 29.8921 24.0942 31.3865 24.5738 33.0066C24.9732 34.3575 26.017 35.8675 28.3882 36.1234C33.6626 36.692 39.3398 31.3086 37.0687 27.8792" stroke="white" stroke-width="0.333821" stroke-miterlimit="10"/>
<path d="M32.7013 32.5268C31.4327 33.3903 30.0997 33.1265 29.8827 32.9095C29.7414 31.2237 28.5363 31.1381 27.9154 31.404C26.8483 31.8613 25.375 33.6885 26.1706 35.1795C26.8338 36.4225 28.1591 37.691 30.5336 37.4651C35.8136 36.961 40.2924 30.545 37.3781 27.6418" fill="#FF5D5D"/>
<path d="M32.7013 32.5268C31.4327 33.3903 30.0997 33.1265 29.8827 32.9095C29.7414 31.2237 28.5363 31.1381 27.9154 31.404C26.8483 31.8613 25.375 33.6885 26.1706 35.1795C26.8338 36.4225 28.1591 37.691 30.5336 37.4651C35.8136 36.961 40.2924 30.545 37.3781 27.6418" stroke="white" stroke-width="0.333821" stroke-miterlimit="10"/>
<path d="M33.9676 33.4296C32.6991 34.2931 31.366 34.0294 31.1491 33.8124C31.0077 32.1266 29.8026 32.0409 29.1817 32.3068C28.1146 32.7642 26.6414 34.5913 27.437 36.0824C28.1002 37.3253 29.4254 38.5938 31.8 38.3679C37.0799 37.8639 41.5587 31.4478 38.6445 28.5447C38.6445 28.5447 38.0436 27.9238 36.5358 27.0425" fill="#FF5D5D"/>
<path d="M33.9676 33.4296C32.6991 34.2931 31.366 34.0294 31.1491 33.8124C31.0077 32.1266 29.8026 32.0409 29.1817 32.3068C28.1146 32.7642 26.6414 34.5913 27.437 36.0824C28.1002 37.3253 29.4254 38.5938 31.8 38.3679C37.0799 37.8639 41.5587 31.4478 38.6445 28.5447C38.6445 28.5447 38.0436 27.9238 36.5358 27.0425" stroke="white" stroke-width="0.333821" stroke-miterlimit="10"/>
<path d="M24.3137 25.2506V27.6552" stroke="white" stroke-width="0.333821" stroke-miterlimit="10" stroke-linecap="round"/>
<path d="M25.5163 26.4535H23.1106" stroke="white" stroke-width="0.333821" stroke-miterlimit="10" stroke-linecap="round"/>
<path d="M19.6762 7.83093C19.9366 9.52675 20.197 11.227 20.4596 12.9328C19.9922 13.0296 19.526 13.1409 19.0642 13.2667C19.0397 12.9573 19.0152 12.648 18.9919 12.3386C18.8305 12.3831 18.6692 12.4299 18.5078 12.4788C18.4811 12.8038 18.4533 13.1276 18.4266 13.4525C17.9615 13.5949 17.5008 13.7518 17.0435 13.9243C17.2693 12.0794 17.4952 10.2389 17.7233 8.40177C18.3676 8.18145 19.0208 7.99117 19.6784 7.83093H19.6762ZM18.9551 11.4128C18.8862 10.8342 18.8172 10.1154 18.7493 9.25412C18.6113 10.3045 18.5245 11.0701 18.49 11.5475C18.6447 11.5007 18.8005 11.4551 18.9563 11.4117L18.9551 11.4128Z" fill="white"/>
<path d="M23.7884 7.22473C23.7884 8.98397 23.7884 10.7432 23.7884 12.5024C23.3811 12.5247 22.9739 12.557 22.5688 12.6015C22.3285 11.8281 22.087 11.0581 21.8478 10.2925V12.6916C21.4616 12.7461 21.0766 12.8107 20.6938 12.8852V7.60863C21.0777 7.53407 21.4616 7.46953 21.8478 7.41501C22.107 8.17056 22.3663 8.93056 22.6256 9.69501V7.3182C23.0128 7.27703 23.4011 7.24587 23.7895 7.22473H23.7884Z" fill="white"/>
<path d="M27.5451 9.27991C27.0822 9.22762 26.6182 9.18867 26.1531 9.1653V8.68571C26.1531 8.38416 26.1397 8.19388 26.113 8.11599C26.0863 8.03921 26.024 7.99693 25.9238 7.99359C25.8381 7.99025 25.7792 8.02029 25.748 8.08483C25.7169 8.14937 25.7013 8.31628 25.7013 8.58557V11.1182C25.7013 11.3552 25.7169 11.511 25.748 11.5877C25.7792 11.6634 25.8404 11.7035 25.9338 11.7068C26.0351 11.7112 26.1041 11.6723 26.1408 11.5888C26.1775 11.5065 26.1953 11.3418 26.1953 11.0959V10.4705C26.1019 10.4661 26.0073 10.4616 25.9138 10.4572V9.65491C26.4579 9.67716 27.0021 9.71945 27.544 9.78065V12.6137C27.2535 12.5803 26.962 12.5536 26.6705 12.5313C26.6271 12.4023 26.5848 12.2732 26.5414 12.1441C26.4468 12.301 26.3266 12.4156 26.182 12.489C26.0373 12.5625 25.8671 12.5959 25.6701 12.5903C25.4353 12.5836 25.2161 12.5247 25.0114 12.4123C24.8066 12.2999 24.652 12.1641 24.5451 12.0017C24.4394 11.8381 24.3727 11.6679 24.346 11.4865C24.3193 11.3062 24.3059 11.0336 24.3059 10.6708V9.10299C24.3059 8.59892 24.3337 8.23172 24.3882 8.00249C24.4439 7.77327 24.6019 7.55851 24.8634 7.36712C25.1249 7.17573 25.4643 7.08226 25.8793 7.09895C26.2877 7.11564 26.626 7.22135 26.8952 7.4094C27.1645 7.59745 27.3392 7.81221 27.4205 8.04811C27.5017 8.28401 27.5429 8.61895 27.5429 9.05069V9.2788L27.5451 9.27991Z" fill="white"/>
<path d="M29.4628 7.63847V11.8602C29.741 11.917 30.0192 11.9782 30.2962 12.0449V13.1009C29.5641 12.924 28.8252 12.7838 28.083 12.6814V7.40369C28.5448 7.46711 29.0055 7.54612 29.4628 7.63847Z" fill="white"/>
<path d="M30.6255 7.90662C31.3822 8.10246 32.131 8.33725 32.8699 8.6132V9.66919C32.5739 9.55903 32.2768 9.45555 31.9786 9.35763V10.358C32.2579 10.4492 32.5361 10.546 32.8131 10.6484V11.6521C32.5361 11.5497 32.2579 11.4529 31.9786 11.3617V12.5223C32.3068 12.6291 32.634 12.7448 32.9589 12.8672V13.9232C32.1922 13.6339 31.4133 13.3869 30.6266 13.1843V7.90662H30.6255Z" fill="white"/>
<path d="M36.588 24.7665C36.588 24.7665 37.2812 18.938 40.2178 18.938C37.2812 18.938 36.588 13.1095 36.588 13.1095C36.588 13.1095 35.8948 18.938 32.9583 18.938C35.8948 18.938 36.588 24.7665 36.588 24.7665Z" fill="#FFFDC2" stroke="white" stroke-width="0.333821" stroke-linecap="round" stroke-linejoin="round"/>
<path d="M13.442 37.0279C13.442 37.0279 13.7925 34.0791 15.278 34.0791C13.7925 34.0791 13.442 31.1304 13.442 31.1304C13.442 31.1304 13.0915 34.0791 11.606 34.0791C13.0915 34.0791 13.442 37.0279 13.442 37.0279Z" fill="#FFFDC2" stroke="white" stroke-width="0.333821" stroke-linecap="round" stroke-linejoin="round"/>
<path d="M65.0312 18.9375C65.0312 19.8438 65.0078 20.6458 64.9609 21.3438C64.9193 22.0365 64.8125 22.8229 64.6406 23.7031H66.6562V24.9219H60.9844V30.8438H59.4844V24.9219H53.8906V23.7031H63.1406C63.3229 22.8229 63.4375 22.0391 63.4844 21.3516C63.5312 20.6641 63.5573 19.8594 63.5625 18.9375V18.9219H55.4531V17.7031H65.0312V18.9375ZM79.0625 24.4688H74.8281V27.8906H80.5312V29.1094H67.7188V27.8906H73.3594V24.4688H69.3125V17.9062H78.9375V19.1094H70.7969V23.2812H79.0625V24.4688ZM92.4531 22.4062H94.625V23.6406H92.4531V30.8125H90.9688V16.8281H92.4531V22.4062ZM81.5625 27.0781C83.3125 26.2031 84.6641 25.1354 85.6172 23.875C86.5755 22.6146 87.1302 21.1667 87.2812 19.5312H82.2656V18.2969H88.7969C88.7865 20.4323 88.2682 22.3516 87.2422 24.0547C86.2161 25.7526 84.599 27.1458 82.3906 28.2344L81.5625 27.0781ZM106.391 22.5312H112.078V23.7344H99.2656V22.5312H104.922V21H106.391V22.5312ZM99.9219 20.7188C100.745 20.6615 101.5 20.5234 102.188 20.3047C102.88 20.0859 103.443 19.8099 103.875 19.4766C104.312 19.138 104.57 18.7708 104.648 18.375H100.453V17.2344H110.906V18.375H106.664C106.742 18.7708 106.997 19.138 107.43 19.4766C107.862 19.8099 108.424 20.0859 109.117 20.3047C109.81 20.5234 110.573 20.6615 111.406 20.7188L110.922 21.8281C110.094 21.7552 109.326 21.6094 108.617 21.3906C107.914 21.1719 107.307 20.888 106.797 20.5391C106.286 20.1849 105.911 19.7786 105.672 19.3203C105.427 19.7786 105.047 20.1849 104.531 20.5391C104.021 20.888 103.411 21.1719 102.703 21.3906C102 21.6094 101.234 21.7552 100.406 21.8281L99.9219 20.7188ZM100.453 25.4531H104.922V24.2188H106.391V25.4531H110.859V26.5938H100.453V25.4531ZM101.406 29.0312C101.401 28.4323 101.763 27.9766 102.492 27.6641C103.221 27.3516 104.271 27.1927 105.641 27.1875C107.01 27.1927 108.065 27.3516 108.805 27.6641C109.544 27.9766 109.917 28.4323 109.922 29.0312C109.917 29.6354 109.547 30.0964 108.812 30.4141C108.083 30.7318 107.042 30.8906 105.688 30.8906C104.302 30.8906 103.24 30.7318 102.5 30.4141C101.766 30.1016 101.401 29.6406 101.406 29.0312ZM102.922 29.0312C102.917 29.3125 103.148 29.526 103.617 29.6719C104.086 29.8177 104.76 29.8854 105.641 29.875C106.531 29.8802 107.211 29.8099 107.68 29.6641C108.148 29.5234 108.385 29.3125 108.391 29.0312C108.385 28.4896 107.469 28.2135 105.641 28.2031C103.812 28.2135 102.906 28.4896 102.922 29.0312ZM116.859 17.875C117.552 17.875 118.169 18.0781 118.711 18.4844C119.258 18.8854 119.685 19.4583 119.992 20.2031C120.299 20.9427 120.453 21.8021 120.453 22.7812C120.453 23.7708 120.299 24.638 119.992 25.3828C119.685 26.1276 119.26 26.7005 118.719 27.1016C118.177 27.5026 117.557 27.7031 116.859 27.7031C116.161 27.7031 115.542 27.5026 115 27.1016C114.458 26.7005 114.036 26.1276 113.734 25.3828C113.432 24.638 113.281 23.7708 113.281 22.7812C113.281 21.8021 113.432 20.9427 113.734 20.2031C114.036 19.4583 114.458 18.8854 115 18.4844C115.542 18.0781 116.161 17.875 116.859 17.875ZM114.703 22.7812C114.703 23.5104 114.792 24.1458 114.969 24.6875C115.151 25.2292 115.406 25.6458 115.734 25.9375C116.062 26.2292 116.438 26.375 116.859 26.375C117.292 26.375 117.672 26.2318 118 25.9453C118.328 25.6536 118.581 25.237 118.758 24.6953C118.94 24.1484 119.031 23.5104 119.031 22.7812C119.031 22.0573 118.94 21.4271 118.758 20.8906C118.581 20.349 118.328 19.9323 118 19.6406C117.672 19.349 117.292 19.2031 116.859 19.2031C116.438 19.2031 116.062 19.3516 115.734 19.6484C115.406 19.9401 115.151 20.3568 114.969 20.8984C114.792 21.4349 114.703 22.0625 114.703 22.7812ZM122.531 16.8281H124.016V22.3125H126.266V23.5625H124.016V30.8281H122.531V16.8281ZM139.75 29.0781H126.938V27.8438H130V24.1875C129.411 23.8646 128.956 23.4557 128.633 22.9609C128.31 22.4661 128.151 21.9115 128.156 21.2969C128.156 20.5729 128.375 19.9349 128.812 19.3828C129.25 18.8307 129.859 18.4036 130.641 18.1016C131.427 17.7943 132.318 17.6406 133.312 17.6406C134.307 17.6406 135.198 17.7943 135.984 18.1016C136.771 18.4036 137.383 18.8307 137.82 19.3828C138.263 19.9349 138.484 20.5729 138.484 21.2969C138.484 21.9062 138.328 22.4557 138.016 22.9453C137.703 23.4297 137.26 23.8333 136.688 24.1562V27.8438H139.75V29.0781ZM129.594 21.2969C129.594 21.7917 129.75 22.2266 130.062 22.6016C130.375 22.9766 130.812 23.2682 131.375 23.4766C131.938 23.6797 132.583 23.7812 133.312 23.7812C134.036 23.7812 134.68 23.6771 135.242 23.4688C135.81 23.2604 136.253 22.9714 136.57 22.6016C136.888 22.2266 137.047 21.7917 137.047 21.2969C137.047 20.8021 136.888 20.3698 136.57 20C136.253 19.625 135.81 19.3359 135.242 19.1328C134.68 18.9297 134.036 18.8281 133.312 18.8281C132.583 18.8281 131.938 18.9297 131.375 19.1328C130.812 19.3359 130.375 19.625 130.062 20C129.75 20.3698 129.594 20.8021 129.594 21.2969ZM135.188 27.8438V24.7344C134.604 24.8698 133.979 24.9375 133.312 24.9375C132.656 24.9375 132.042 24.8698 131.469 24.7344V27.8438H135.188ZM143.203 26.2344H141.656L141.516 18.1875H143.344L143.203 26.2344ZM141.328 28.5156C141.328 28.3125 141.378 28.125 141.477 27.9531C141.576 27.7812 141.708 27.6458 141.875 27.5469C142.047 27.4427 142.234 27.3906 142.438 27.3906C142.635 27.3906 142.818 27.4401 142.984 27.5391C143.156 27.638 143.292 27.7734 143.391 27.9453C143.495 28.1172 143.547 28.3021 143.547 28.5C143.547 28.6979 143.495 28.8828 143.391 29.0547C143.292 29.2214 143.156 29.3568 142.984 29.4609C142.818 29.5599 142.635 29.6094 142.438 29.6094C142.24 29.6094 142.055 29.5599 141.883 29.4609C141.716 29.362 141.581 29.2292 141.477 29.0625C141.378 28.8958 141.328 28.7135 141.328 28.5156Z" fill="white"/>
</svg>
