<svg width="641" height="641" viewBox="0 0 641 641" fill="none" xmlns="http://www.w3.org/2000/svg">
<path d="M320.213 632.425C492.643 632.425 632.425 492.643 632.425 320.213C632.425 147.782 492.643 8 320.213 8C147.782 8 8 147.782 8 320.213C8 492.643 147.782 632.425 320.213 632.425Z" fill="#3973CB" stroke="white" stroke-width="15.5185" stroke-miterlimit="10"/>
<path d="M220.89 281.575C282.802 249.577 358.739 250.253 362.067 255.263C389.86 268.264 400.575 269.233 412.332 263.181C432.957 252.539 429.666 228.33 416.61 215.055C397.228 195.344 347.256 172.927 260.202 189.091C157.899 208.089 67.188 289.712 111.748 356.982C165.304 437.837 205.366 440.781 224.766 404.358C230.654 393.314 223.157 364.771 189.532 362.687C156.875 325.495 193.188 295.929 220.89 281.593V281.575Z" fill="#FF5E67" stroke="white" stroke-width="7.36164" stroke-miterlimit="10"/>
<path d="M190.758 273.955C214.017 264.265 234.605 272.895 237.403 277.1C234.112 304.692 253.219 310.068 264.099 307.837C282.786 304.016 312.535 279.459 304.654 252.837C298.09 230.639 280.939 205.826 241.974 201.621C155.304 192.277 62.0153 280.739 99.3345 337.093" fill="#FF5E67"/>
<path d="M190.758 273.955C214.017 264.265 234.605 272.895 237.403 277.1C234.112 304.692 253.219 310.068 264.099 307.837C282.786 304.016 312.535 279.459 304.654 252.837C298.09 230.639 280.939 205.826 241.974 201.621C155.304 192.277 62.0153 280.739 99.3345 337.093" stroke="white" stroke-width="7.36164" stroke-miterlimit="10"/>
<path d="M171.101 260.734C191.946 246.545 213.851 250.879 217.417 254.444C219.739 282.146 239.541 283.554 249.744 279.184C267.279 271.669 291.488 241.645 278.415 217.143C267.517 196.719 245.74 175.875 206.72 179.587C119.959 187.87 46.3624 293.3 94.2503 341.005" fill="#FF5E67"/>
<path d="M171.101 260.734C191.946 246.545 213.851 250.879 217.417 254.444C219.739 282.146 239.541 283.554 249.744 279.184C267.279 271.669 291.488 241.645 278.415 217.143C267.517 196.719 245.74 175.875 206.72 179.587C119.959 187.87 46.3625 293.3 94.2503 341.005" stroke="white" stroke-width="7.36164" stroke-miterlimit="10"/>
<path d="M150.292 245.903C171.137 231.714 193.042 236.048 196.608 239.613C198.93 267.315 218.732 268.723 228.935 264.353C246.47 256.838 270.679 226.814 257.606 202.312C246.708 181.888 224.931 161.044 185.911 164.755C99.1496 173.038 25.5534 278.469 73.4412 326.174C73.4412 326.174 83.315 336.377 108.091 350.858" fill="#FF5E67"/>
<path d="M150.292 245.903C171.137 231.714 193.042 236.048 196.608 239.613C198.93 267.315 218.732 268.723 228.935 264.353C246.47 256.838 270.679 226.814 257.606 202.312C246.708 181.888 224.931 161.044 185.911 164.755C99.1496 173.038 25.5534 278.469 73.4412 326.174C73.4412 326.174 83.315 336.377 108.091 350.858" stroke="white" stroke-width="7.36164" stroke-miterlimit="10"/>
<path d="M396.973 439.483C335.061 471.482 259.125 470.805 255.797 465.795C228.004 452.795 217.289 451.825 205.532 457.878C184.907 468.519 188.198 492.729 201.253 506.003C220.635 525.714 270.607 548.131 357.661 531.968C459.965 512.97 550.675 431.346 506.115 364.077C452.559 283.221 412.497 280.278 393.097 316.701C387.209 327.745 394.706 356.287 428.332 358.372C460.989 395.563 424.675 425.13 396.973 439.465V439.483Z" fill="#FF5E67" stroke="white" stroke-width="7.36164" stroke-miterlimit="10"/>
<path d="M427.105 447.093C403.847 456.784 383.258 448.154 380.461 443.948C383.752 416.357 364.644 410.981 353.765 413.212C335.078 417.033 305.329 441.59 313.209 468.212C319.774 490.41 336.925 515.223 375.89 519.428C462.559 528.772 555.848 440.31 518.529 383.956" fill="#FF5E67"/>
<path d="M427.105 447.093C403.847 456.784 383.258 448.154 380.461 443.948C383.752 416.357 364.644 410.981 353.765 413.212C335.078 417.033 305.329 441.59 313.209 468.212C319.774 490.41 336.925 515.223 375.89 519.428C462.559 528.772 555.848 440.31 518.529 383.956" stroke="white" stroke-width="7.36164" stroke-miterlimit="10"/>
<path d="M446.762 460.328C425.917 474.517 404.012 470.183 400.446 466.618C398.124 438.916 378.322 437.508 368.119 441.878C350.584 449.394 326.375 479.417 339.448 503.919C350.346 524.343 372.123 545.188 411.143 541.476C497.904 533.193 571.5 427.763 523.613 380.058" fill="#FF5E67"/>
<path d="M446.762 460.328C425.917 474.517 404.012 470.183 400.446 466.618C398.124 438.916 378.322 437.508 368.119 441.878C350.584 449.394 326.375 479.417 339.448 503.919C350.346 524.343 372.123 545.187 411.143 541.476C497.904 533.193 571.5 427.763 523.612 380.058" stroke="white" stroke-width="7.36164" stroke-miterlimit="10"/>
<path d="M467.571 475.163C446.726 489.352 424.821 485.018 421.255 481.453C418.933 453.751 399.131 452.343 388.928 456.713C371.393 464.228 347.184 494.252 360.257 518.754C371.155 539.178 392.932 560.022 431.952 556.311C518.713 548.028 592.309 442.597 544.422 394.892C544.422 394.892 534.548 384.69 509.772 370.208" fill="#FF5E67"/>
<path d="M467.571 475.163C446.726 489.352 424.821 485.018 421.255 481.453C418.933 453.751 399.131 452.343 388.928 456.713C371.393 464.228 347.184 494.252 360.257 518.754C371.155 539.178 392.932 560.022 431.952 556.311C518.713 548.028 592.309 442.597 544.422 394.892C544.422 394.892 534.548 384.69 509.772 370.208" stroke="white" stroke-width="7.36164" stroke-miterlimit="10"/>
<path d="M308.933 340.764V380.277" stroke="white" stroke-width="7.36164" stroke-miterlimit="10" stroke-linecap="round"/>
<path d="M328.699 360.53H289.167" stroke="white" stroke-width="7.36164" stroke-miterlimit="10" stroke-linecap="round"/>
<path d="M232.739 47.708C237.018 75.574 241.297 103.513 245.612 131.544C237.932 133.135 230.271 134.963 222.683 137.029C222.28 131.946 221.878 126.863 221.494 121.78C218.843 122.511 216.192 123.279 213.54 124.084C213.101 129.423 212.644 134.744 212.206 140.083C204.562 142.423 196.993 145.001 189.478 147.835C193.189 117.519 196.901 87.2763 200.65 57.0881C211.236 53.4677 221.97 50.341 232.776 47.708H232.739ZM220.891 106.567C219.757 97.0586 218.623 85.2467 217.508 71.0943C215.241 88.3551 213.815 100.935 213.248 108.779C215.789 108.011 218.349 107.262 220.909 106.548L220.891 106.567Z" fill="white"/>
<path d="M300.303 37.7461C300.303 66.6543 300.303 95.5626 300.303 124.471C293.611 124.837 286.918 125.367 280.263 126.098C276.313 113.39 272.345 100.737 268.414 88.1572V127.579C262.069 128.475 255.743 129.536 249.453 130.761V44.0543C255.761 42.8293 262.069 41.7687 268.414 40.8728C272.675 53.2882 276.935 65.7767 281.195 78.3383V39.282C287.558 38.6055 293.94 38.0935 300.321 37.7461H300.303Z" fill="white"/>
<path d="M362.049 71.5189C354.442 70.6595 346.817 70.0195 339.174 69.6355V61.7548C339.174 56.7996 338.955 53.6729 338.516 52.393C338.077 51.1313 337.053 50.4365 335.408 50.3816C334 50.3268 333.031 50.8205 332.519 51.881C332.007 52.9415 331.751 55.6842 331.751 60.1091V101.725C331.751 105.62 332.007 108.18 332.519 109.441C333.031 110.685 334.036 111.343 335.572 111.398C337.236 111.471 338.37 110.831 338.973 109.46C339.577 108.107 339.869 105.401 339.869 101.36V91.0836C338.333 91.0104 336.779 90.9373 335.243 90.8642V77.6808C344.184 78.0465 353.126 78.7413 362.03 79.747V126.3C357.258 125.752 352.467 125.313 347.677 124.947C346.964 122.826 346.269 120.705 345.556 118.584C344.001 121.162 342.027 123.045 339.65 124.252C337.273 125.459 334.475 126.008 331.239 125.916C327.38 125.806 323.778 124.837 320.414 122.991C317.05 121.144 314.508 118.913 312.753 116.243C311.016 113.556 309.919 110.758 309.48 107.778C309.041 104.815 308.822 100.336 308.822 94.3748V68.6116C308.822 60.3286 309.279 54.2946 310.175 50.5279C311.089 46.7613 313.685 43.2323 317.982 40.0873C322.279 36.9423 327.856 35.4064 334.676 35.6807C341.387 35.9549 346.945 37.692 351.37 40.7821C355.795 43.8723 358.666 47.4012 360.001 51.2776C361.335 55.154 362.012 60.6577 362.012 67.7522V71.5006L362.049 71.5189Z" fill="white"/>
<path d="M393.555 44.5475V113.92C398.126 114.853 402.697 115.858 407.25 116.955V134.308C395.219 131.4 383.078 129.096 370.882 127.414V40.6895C378.47 41.7317 386.04 43.0299 393.555 44.5475Z" fill="white"/>
<path d="M412.661 48.9531C425.095 52.1712 437.4 56.0293 449.541 60.564V77.9162C444.678 76.106 439.795 74.4055 434.895 72.7965V89.2345C439.485 90.7339 444.056 92.3246 448.609 94.0068V110.5C444.056 108.818 439.485 107.227 434.895 105.727V124.798C440.289 126.554 445.665 128.455 451.004 130.467V147.819C438.406 143.065 425.607 139.006 412.679 135.678V48.9531H412.661Z" fill="white"/>
<path d="M510.63 332.809C510.63 332.809 522.021 237.034 570.275 237.034C522.021 237.034 510.63 141.258 510.63 141.258C510.63 141.258 499.238 237.034 450.985 237.034C499.238 237.034 510.63 332.809 510.63 332.809Z" fill="#FFFDC2" stroke="white" stroke-width="7.36164" stroke-linecap="round" stroke-linejoin="round"/>
<path d="M130.288 534.29C130.288 534.29 136.048 485.836 160.458 485.836C136.048 485.836 130.288 437.381 130.288 437.381C130.288 437.381 124.528 485.836 100.118 485.836C124.528 485.836 130.288 534.29 130.288 534.29Z" fill="#FFFDC2" stroke="white" stroke-width="7.36164" stroke-linecap="round" stroke-linejoin="round"/>
</svg>
