<svg width="641" height="641" viewBox="0 0 641 641" fill="none" xmlns="http://www.w3.org/2000/svg">
<path d="M320.571 632.425C493.001 632.425 632.784 492.643 632.784 320.213C632.784 147.782 493.001 8 320.571 8C148.141 8 8.3584 147.782 8.3584 320.213C8.3584 492.643 148.141 632.425 320.571 632.425Z" fill="#FF5E67" stroke="white" stroke-width="15.5185" stroke-miterlimit="10"/>
<path d="M189.98 62.6309C197.403 60.6196 204.864 58.7728 212.342 57.1089C219.437 55.5364 224.831 55.0427 228.506 55.445C232.181 55.8655 235.143 57.5843 237.41 60.5647C239.678 63.5634 240.812 68.8112 240.812 76.3079C240.812 81.3728 240.007 85.0298 238.416 87.2971C236.825 89.5644 233.662 91.6306 228.963 93.5688C234.192 93.7699 237.758 95.1412 239.623 97.5548C241.488 99.9867 242.421 104.028 242.421 109.678V117.723C242.421 123.592 241.744 128.036 240.391 131.071C239.038 134.106 236.899 136.392 233.955 137.946C231.011 139.5 224.977 141.091 215.908 143.029C207.222 144.894 198.574 146.997 189.962 149.337V62.6126L189.98 62.6309ZM212.397 71.9196V91.21C213.366 90.954 214.116 90.7712 214.646 90.6615C216.858 90.1861 218.266 89.345 218.87 88.1199C219.473 86.9131 219.784 83.7315 219.784 78.5752C219.784 75.8691 219.528 74.0223 219.034 73.0349C218.541 72.0476 217.882 71.499 217.078 71.3893C216.273 71.2796 214.719 71.4442 212.397 71.9196ZM212.397 104.704V128.968C215.56 128.164 217.59 127.231 218.467 126.152C219.345 125.073 219.784 122.788 219.784 119.295V111.214C219.784 107.502 219.382 105.326 218.614 104.704C217.828 104.083 215.743 104.064 212.397 104.704Z" fill="white"/>
<path d="M290.053 46.1221C294.423 74.756 298.793 103.463 303.145 132.225C295.337 132.499 287.53 132.957 279.741 133.596C279.338 128.44 278.918 123.266 278.515 118.109C275.791 118.347 273.067 118.603 270.342 118.877C269.885 124.125 269.428 129.354 268.971 134.602C261.108 135.425 253.246 136.431 245.42 137.619C249.278 108.126 253.154 78.669 257.031 49.2671C268.002 47.8591 279.027 46.8169 290.053 46.1404V46.1221ZM277.93 102.787C276.778 93.0591 275.608 81.0277 274.456 66.6742C272.134 83.4962 270.671 95.7836 270.068 103.536C272.683 103.262 275.316 103.024 277.93 102.805V102.787Z" fill="white"/>
<path d="M360.54 84.5763C352.916 83.9546 345.291 83.5158 337.648 83.2598V68.1931C337.648 63.8048 337.392 61.0621 336.916 59.965C336.423 58.8679 335.344 58.2828 333.68 58.2462C331.797 58.1914 330.59 58.8313 330.078 60.1478C329.566 61.4643 329.31 64.3168 329.31 68.7051V108.986C329.31 113.192 329.566 115.953 330.078 117.251C330.59 118.549 331.723 119.208 333.515 119.263C335.216 119.317 336.331 118.696 336.861 117.434C337.392 116.154 337.648 113.155 337.648 108.383V97.4854C345.291 97.7413 352.916 98.1802 360.54 98.8019C360.54 99.9355 360.54 101.051 360.54 102.185C360.54 111.162 359.9 117.471 358.62 121.128C357.34 124.785 354.488 127.856 350.081 130.416C345.675 132.976 340.244 134.128 333.79 133.945C327.079 133.762 321.539 132.556 317.187 130.197C312.835 127.838 309.946 124.602 308.52 120.396C307.112 116.191 306.399 109.864 306.399 101.362V76.019C306.399 69.7656 306.618 65.0847 307.057 61.9397C307.496 58.813 308.794 55.7595 310.952 52.8156C313.11 49.8901 316.108 47.5496 319.93 45.8857C323.751 44.2218 328.158 43.4355 333.131 43.5452C339.878 43.7098 345.455 45.2823 349.844 48.0982C354.232 50.9323 357.103 54.3515 358.492 58.2828C359.864 62.214 360.559 68.248 360.559 76.3299C360.559 79.0726 360.559 81.8153 360.559 84.5763H360.54Z" fill="white"/>
<path d="M422.893 55.8316C418.577 67.9727 414.262 80.1869 409.929 92.4377C414.665 109.168 419.4 125.954 424.118 142.812C416.347 141.167 408.557 139.704 400.732 138.424C397.66 125.533 394.606 112.661 391.534 99.8248V136.998C383.946 135.901 376.358 134.986 368.733 134.255C368.733 105.347 368.733 76.4385 368.733 47.5303C376.34 48.2799 383.946 49.1942 391.534 50.273V83.9719C394.917 73.2204 398.281 62.5238 401.646 51.8455C408.74 53.0157 415.816 54.3505 422.874 55.8316H422.893Z" fill="white"/>
<path d="M453.72 107.05C453.72 112.024 453.72 117.016 453.72 121.989C444.34 119.393 434.924 117.071 425.452 115.023V100.084C434.924 102.132 444.359 104.454 453.72 107.05Z" fill="white"/>
<path d="M195.996 224.623C188.536 226.543 181.112 228.664 173.725 230.931V223.05C173.725 218.095 173.505 215.041 173.085 213.926C172.664 212.811 171.659 212.5 170.086 212.994C168.715 213.432 167.801 214.255 167.307 215.499C166.813 216.724 166.576 219.558 166.576 223.983V265.599C166.576 269.494 166.813 271.98 167.307 273.041C167.801 274.12 168.77 274.412 170.251 273.955C171.86 273.443 172.957 272.419 173.542 270.828C174.127 269.256 174.401 266.458 174.401 262.417V252.141C172.902 252.598 171.421 253.055 169.94 253.531C169.94 249.143 169.94 244.754 169.94 240.348C178.57 237.605 187.256 235.1 195.996 232.851V279.404C191.315 280.611 186.634 281.891 181.971 283.244C181.295 281.379 180.6 279.495 179.923 277.63C178.406 280.757 176.504 283.335 174.2 285.383C171.896 287.431 169.19 288.949 166.082 289.972C162.37 291.179 158.914 291.435 155.696 290.74C152.478 290.027 150.046 288.638 148.382 286.535C146.718 284.432 145.676 281.982 145.274 279.148C144.853 276.314 144.652 271.925 144.652 265.965V240.201C144.652 231.918 145.091 225.738 145.95 221.661C146.81 217.583 149.296 213.213 153.41 208.623C157.525 204.034 162.864 200.633 169.428 198.53C175.901 196.464 181.313 196.245 185.61 197.744C189.907 199.243 192.723 201.73 194.039 205.113C195.356 208.495 195.996 213.761 196.014 220.856V224.604L195.996 224.623Z" fill="white"/>
<path d="M204.681 190.522C209.984 189.26 215.286 188.072 220.607 186.975C231.267 184.799 238.526 184.049 242.311 184.25C246.096 184.47 249.205 186.115 251.6 189.15C253.995 192.186 255.202 197.415 255.202 204.821C255.202 211.568 254.361 216.212 252.66 218.772C250.96 221.332 247.632 223.178 242.659 224.422C247.157 224.824 250.174 225.885 251.728 227.512C253.282 229.158 254.233 230.73 254.617 232.229C255.001 233.729 255.184 237.989 255.184 244.992V267.866C248.126 268.799 241.104 269.878 234.083 271.121V242.304C234.083 237.66 233.717 234.844 232.986 233.875C232.255 232.906 230.316 232.687 227.208 233.29V272.401C219.675 273.846 212.16 275.455 204.663 277.247V190.522H204.681ZM227.226 200.505V219.796C229.768 219.302 231.56 218.644 232.584 217.766C233.608 216.888 234.12 214.53 234.12 210.708V205.936C234.12 203.193 233.626 201.474 232.639 200.798C231.651 200.121 229.859 200.012 227.226 200.505Z" fill="white"/>
<path d="M316.329 227.658C316.329 236.38 316.11 242.542 315.707 246.18C315.287 249.801 313.989 253.129 311.794 256.164C309.6 259.199 306.62 261.576 302.89 263.313C299.141 265.05 294.79 266.056 289.834 266.367C285.117 266.659 280.893 266.221 277.145 265.032C273.396 263.844 270.379 261.869 268.112 259.071C265.827 256.274 264.473 253.129 264.053 249.6C263.614 246.071 263.413 239.854 263.395 230.931C263.395 225.976 263.395 221.039 263.395 216.084C263.395 207.38 263.596 201.182 264.016 197.506C264.437 193.831 265.735 190.375 267.911 187.139C270.105 183.902 273.049 181.306 276.779 179.368C280.509 177.43 284.861 176.278 289.816 175.985C294.534 175.693 298.776 176.259 302.524 177.631C306.273 179.02 309.308 181.215 311.593 184.213C313.879 187.212 315.25 190.503 315.671 194.069C316.11 197.634 316.329 203.888 316.329 212.811V227.658ZM293.418 199.883C293.418 195.842 293.199 193.283 292.742 192.185C292.285 191.088 291.352 190.576 289.944 190.668C288.737 190.741 287.823 191.253 287.201 192.204C286.562 193.155 286.251 195.861 286.251 200.322V240.823C286.251 245.851 286.452 248.941 286.872 250.093C287.293 251.245 288.262 251.776 289.78 251.666C291.334 251.574 292.339 250.843 292.778 249.453C293.217 248.064 293.437 244.827 293.437 239.726V199.865L293.418 199.883Z" fill="white"/>
<path d="M376.906 180.04V238.003C376.906 244.567 376.687 249.157 376.248 251.772C375.809 254.386 374.529 256.964 372.39 259.543C370.251 262.121 367.453 263.968 363.943 265.101C360.45 266.235 356.336 266.637 351.582 266.345C346.334 266.015 341.672 264.955 337.649 263.09C333.626 261.243 330.609 258.939 328.616 256.16C326.623 253.381 325.435 250.473 325.069 247.402C324.703 244.348 324.521 237.93 324.521 228.148C324.521 211.033 324.521 193.937 324.521 176.822C332.164 176.877 339.807 177.115 347.431 177.535C347.431 199.221 347.431 220.889 347.431 242.574C347.431 246.359 347.632 248.791 348.053 249.87C348.474 250.949 349.315 251.516 350.576 251.589C352.021 251.68 352.953 251.15 353.374 250.016C353.795 248.883 353.996 246.158 353.996 241.843V177.938C361.62 178.45 369.245 179.144 376.852 180.004L376.906 180.04Z" fill="white"/>
<path d="M436.258 190.483V277.208C429.693 275.635 423.111 274.209 416.51 272.911C412.597 258.996 408.666 245.136 404.735 231.313V270.735C398.408 269.656 392.082 268.687 385.737 267.846V181.121C392.082 181.962 398.426 182.913 404.735 184.01C408.977 197.76 413.2 211.547 417.424 225.407V186.351C423.714 187.594 430.004 188.965 436.258 190.465V190.483Z" fill="white"/>
<path d="M445.253 192.734C450.83 194.179 456.389 195.715 461.929 197.36C472.662 200.542 479.83 203.522 483.578 205.808C487.308 208.112 490.143 210.781 492.081 213.78C494.019 216.779 495.226 219.778 495.719 222.758C496.195 225.738 496.451 231.352 496.451 239.562V269.933C496.451 277.722 496.103 282.787 495.39 285.146C494.677 287.504 493.452 289.095 491.678 289.936C489.905 290.777 487.729 291.015 485.114 290.686C482.518 290.357 478.568 289.296 473.302 287.596C464.014 284.597 454.67 281.891 445.253 279.459V192.734ZM467.524 213.89C467.524 232.906 467.524 251.922 467.524 270.938C470.724 271.926 472.681 271.907 473.412 270.847C474.143 269.786 474.509 266.349 474.509 260.571V226.872C474.509 222.941 474.381 220.381 474.143 219.192C473.887 218.004 473.339 217.017 472.461 216.212C471.584 215.408 469.938 214.621 467.524 213.872V213.89Z" fill="white"/>
<path d="M366.264 541.789C391.443 544.258 411.41 539.504 423.075 535.719C429.731 537.895 444.286 542.338 460.998 537.858C491.223 529.74 496.379 517.672 495.337 508.694C493.984 497.174 476.193 482.144 452.148 489.184C437.959 486.13 426.805 480.974 401.463 482.254C359.389 484.375 304.535 500.027 312.946 521.804C318.175 535.371 346.023 539.796 366.283 541.789H366.264Z" fill="#C6DDFF" stroke="white" stroke-width="7.36164" stroke-miterlimit="10"/>
<path d="M352.752 496.237C352.752 496.237 397.915 428.565 454.762 493.586L352.752 496.237Z" fill="#C6DDFF"/>
<path d="M352.752 496.241C367.544 465.559 403.821 449.194 433.68 470.624C442.475 476.75 449.496 484.703 454.762 493.59C446.644 487.208 438.617 481.156 429.968 476.786C400.969 460.951 374.584 475.159 352.752 496.241Z" fill="white"/>
<path d="M308.319 335.605C259.023 328.09 221.868 336.08 200.457 342.864C186.981 337.689 157.396 326.261 126.659 334.818C85.994 346.137 65.3323 370.986 71.092 401.229C75.7363 425.602 113.494 449.281 157.835 436.939C186.085 444.619 209.142 456.43 257.67 456.156C338.251 455.717 439.585 428.382 417.04 382.249C402.997 353.524 347.997 341.657 308.337 335.623L308.319 335.605Z" fill="#C6DDFF" stroke="white" stroke-width="7.36164" stroke-miterlimit="10"/>
<path d="M202.726 364.497C202.726 364.497 308.613 219.956 390.255 370.988L202.726 364.497Z" fill="#C6DDFF"/>
<path d="M202.726 364.496C231.653 318.693 292.413 274.7 344.982 311.032C365.991 325.659 380.527 348.168 390.255 370.987C376.322 350.472 361.401 330.798 340.593 317.779C291.005 286.384 236.608 328.457 202.726 364.496Z" fill="white"/>
<path d="M303.238 441.924C303.238 441.924 245.787 517.092 184.643 437.407L303.238 441.924Z" fill="#C6DDFF"/>
<path d="M303.238 441.924C283.051 475.732 240.759 491.731 207.736 465.145C198.009 457.52 190.329 447.921 184.643 437.407C193.346 445.599 202.105 453.388 211.832 459.239C244.379 480.23 276.725 465.584 303.238 441.924Z" fill="white"/>
<path d="M288.663 522.096C282.355 492.219 224.301 503.793 231.139 528.478C239.112 557.258 293.71 545.958 288.663 522.096Z" fill="#C6DDFF" stroke="white" stroke-width="7.36164" stroke-miterlimit="10"/>
<path d="M521.65 333.342C552.321 344.676 522.666 400.113 514.663 383.328C507.461 368.23 555.89 364.229 557.036 395.657C558.052 423.365 507.958 418.541 512.998 404.871C520.179 385.448 549.357 440.409 520.979 450.25C496.624 458.708 478.801 406.969 494.591 412.809C513.603 419.839 470.949 454.403 453.408 430.654C433.033 403.076 488.708 376.363 484.382 394.294C480.38 410.884 433.271 381.9 452.261 356.94C466.472 338.252 515.528 367.235 497.446 377.812C478.498 388.887 487.237 320.645 521.65 333.363V333.342Z" fill="#FFFDC2" stroke="white" stroke-width="8.70835" stroke-miterlimit="10"/>
</svg>
