<svg width="854" height="854" viewBox="0 0 854 854" fill="none" xmlns="http://www.w3.org/2000/svg">
<path d="M427.148 846C658.555 846 846.148 658.407 846.148 427C846.148 195.593 658.555 8 427.148 8C195.741 8 8.14819 195.593 8.14819 427C8.14819 658.407 195.741 846 427.148 846Z" fill="#FF5D5D" stroke="white" stroke-width="15.5185" stroke-miterlimit="10"/>
<path d="M251.89 81.316C261.853 78.6167 271.865 76.1383 281.901 73.9053C291.422 71.795 298.661 71.1324 303.593 71.6723C308.526 72.2367 312.501 74.5433 315.544 78.5431C318.586 82.5675 320.108 89.6101 320.108 99.671C320.108 106.468 319.028 111.376 316.893 114.419C314.759 117.462 310.513 120.235 304.207 122.836C311.225 123.106 316.01 124.946 318.513 128.185C321.016 131.449 322.267 136.872 322.267 144.454V155.251C322.267 163.128 321.359 169.091 319.544 173.165C317.728 177.238 314.857 180.306 310.906 182.391C306.955 184.477 298.857 186.612 286.686 189.213C275.03 191.716 263.423 194.538 251.866 197.679V81.2915L251.89 81.316ZM281.975 93.7817V119.67C283.275 119.327 284.281 119.081 284.993 118.934C287.962 118.296 289.852 117.167 290.661 115.523C291.471 113.904 291.888 109.634 291.888 102.714C291.888 99.0821 291.545 96.6037 290.882 95.2786C290.22 93.9535 289.336 93.2173 288.257 93.0701C287.177 92.9229 285.091 93.1437 281.975 93.7817ZM281.975 137.78V170.343C286.22 169.263 288.944 168.012 290.122 166.564C291.299 165.116 291.888 162.049 291.888 157.362V146.516C291.888 141.534 291.348 138.614 290.318 137.78C289.263 136.945 286.465 136.921 281.975 137.78Z" fill="white"/>
<path d="M386.192 59.1602C392.057 97.5879 397.922 136.114 403.762 174.713C393.284 175.081 382.806 175.695 372.352 176.554C371.812 169.634 371.248 162.689 370.708 155.769C367.052 156.088 363.395 156.432 359.739 156.8C359.126 163.843 358.512 170.861 357.899 177.903C347.347 179.008 336.795 180.357 326.293 181.952C331.47 142.371 336.673 102.839 341.875 63.3808C356.598 61.4913 371.395 60.0926 386.192 59.1847V59.1602ZM369.923 135.206C368.377 122.151 366.806 106.005 365.26 86.7418C362.144 109.317 360.181 125.808 359.371 136.212C362.88 135.844 366.414 135.525 369.923 135.23V135.206Z" fill="white"/>
<path d="M480.788 110.767C470.555 109.933 460.323 109.344 450.065 109V88.7803C450.065 82.891 449.722 79.2102 449.084 77.7378C448.421 76.2655 446.974 75.4803 444.741 75.4312C442.213 75.3576 440.593 76.2164 439.906 77.9832C439.219 79.75 438.876 83.5781 438.876 89.4674V143.526C438.876 149.17 439.219 152.876 439.906 154.618C440.593 156.36 442.115 157.244 444.52 157.317C446.802 157.391 448.299 156.556 449.01 154.863C449.722 153.146 450.065 149.121 450.065 142.717V128.091C460.323 128.435 470.555 129.024 480.788 129.858C480.788 131.38 480.788 132.877 480.788 134.398C480.788 146.446 479.929 154.912 478.211 159.82C476.494 164.728 472.666 168.85 466.752 172.286C460.838 175.721 453.55 177.267 444.888 177.022C435.882 176.776 428.447 175.157 422.606 171.991C416.766 168.826 412.889 164.483 410.975 158.839C409.086 153.195 408.129 144.704 408.129 133.294V99.2829C408.129 90.8906 408.423 84.6087 409.012 80.388C409.601 76.1919 411.343 72.0939 414.239 68.1432C417.134 64.217 421.159 61.076 426.287 58.843C431.416 56.6099 437.33 55.5548 444.004 55.702C453.059 55.9229 460.544 58.0332 466.433 61.8122C472.322 65.6157 476.175 70.2044 478.04 75.4803C479.88 80.7561 480.813 88.8539 480.813 99.7001C480.813 103.381 480.813 107.062 480.813 110.767H480.788Z" fill="white"/>
<path d="M564.467 72.1904C558.676 88.4842 552.885 104.876 547.069 121.317C553.425 143.77 559.78 166.297 566.111 188.921C555.682 186.713 545.229 184.75 534.726 183.032C530.604 165.732 526.506 148.457 522.383 131.231V181.118C512.2 179.646 502.016 178.419 491.783 177.437C491.783 138.641 491.783 99.8456 491.783 61.0498C501.991 62.0559 512.2 63.2828 522.383 64.7306V109.956C526.923 95.5268 531.438 81.1716 535.953 66.841C545.474 68.4114 554.971 70.2028 564.443 72.1904H564.467Z" fill="white"/>
<path d="M605.839 140.928C605.839 147.603 605.839 154.302 605.839 160.977C593.251 157.492 580.613 154.376 567.902 151.627V131.579C580.613 134.327 593.275 137.444 605.839 140.928Z" fill="white"/>
<path d="M259.964 298.714C249.952 301.291 239.989 304.138 230.076 307.18V296.604C230.076 289.954 229.781 285.856 229.217 284.359C228.652 282.862 227.303 282.445 225.192 283.108C223.352 283.697 222.125 284.801 221.462 286.47C220.8 288.114 220.481 291.917 220.481 297.856V353.706C220.481 358.933 220.8 362.27 221.462 363.693C222.125 365.141 223.426 365.534 225.413 364.92C227.573 364.233 229.045 362.859 229.83 360.724C230.615 358.614 230.984 354.859 230.984 349.436V335.645C228.971 336.259 226.984 336.872 224.996 337.51C224.996 331.621 224.996 325.732 224.996 319.818C236.578 316.137 248.234 312.775 259.964 309.757V372.233C253.682 373.852 247.4 375.57 241.142 377.386C240.235 374.883 239.302 372.355 238.394 369.852C236.357 374.049 233.805 377.509 230.713 380.257C227.622 383.005 223.99 385.042 219.818 386.416C214.837 388.036 210.199 388.379 205.88 387.447C201.561 386.49 198.298 384.625 196.065 381.803C193.832 378.981 192.433 375.693 191.893 371.889C191.329 368.086 191.059 362.196 191.059 354.197V319.622C191.059 308.505 191.648 300.211 192.801 294.739C193.954 289.267 197.292 283.402 202.813 277.243C208.334 271.084 215.499 266.52 224.309 263.698C232.996 260.925 240.259 260.63 246.026 262.642C251.792 264.655 255.571 267.992 257.338 272.532C259.105 277.071 259.964 284.138 259.988 293.659V298.69L259.964 298.714Z" fill="white"/>
<path d="M271.62 252.949C278.736 251.256 285.852 249.661 292.993 248.189C307.299 245.268 317.041 244.262 322.121 244.532C327.2 244.827 331.372 247.035 334.586 251.109C337.801 255.182 339.421 262.2 339.421 272.138C339.421 281.193 338.292 287.426 336.01 290.862C333.728 294.297 329.261 296.775 322.587 298.444C328.623 298.984 332.672 300.407 334.758 302.591C336.844 304.8 338.12 306.91 338.635 308.922C339.151 310.934 339.396 316.652 339.396 326.05V356.748C329.924 358 320.501 359.448 311.078 361.116V322.443C311.078 316.21 310.587 312.431 309.606 311.131C308.624 309.83 306.023 309.536 301.852 310.345V362.834C291.742 364.772 281.656 366.932 271.595 369.337V252.949H271.62ZM301.876 266.347V292.236C305.287 291.573 307.692 290.69 309.066 289.512C310.44 288.334 311.127 285.169 311.127 280.04V273.635C311.127 269.955 310.465 267.648 309.14 266.74C307.815 265.832 305.41 265.685 301.876 266.347Z" fill="white"/>
<path d="M421.455 302.788C421.455 314.493 421.161 322.763 420.621 327.646C420.056 332.505 418.314 336.971 415.37 341.044C412.425 345.118 408.425 348.308 403.419 350.639C398.389 352.97 392.549 354.32 385.899 354.737C379.568 355.129 373.899 354.54 368.869 352.945C363.838 351.35 359.789 348.7 356.746 344.946C353.679 341.191 351.863 336.971 351.299 332.235C350.71 327.499 350.44 319.155 350.415 307.181C350.415 300.531 350.415 293.905 350.415 287.255C350.415 275.575 350.685 267.256 351.25 262.324C351.814 257.391 353.556 252.753 356.476 248.41C359.421 244.067 363.372 240.582 368.378 237.981C373.384 235.38 379.224 233.834 385.874 233.441C392.205 233.049 397.898 233.81 402.928 235.65C407.959 237.515 412.032 240.46 415.1 244.484C418.167 248.508 420.008 252.925 420.572 257.71C421.161 262.495 421.455 270.888 421.455 282.863V302.788ZM390.708 265.514C390.708 260.091 390.414 256.655 389.8 255.183C389.187 253.71 387.935 253.023 386.046 253.146C384.426 253.244 383.199 253.931 382.365 255.207C381.506 256.483 381.089 260.115 381.089 266.103V320.456C381.089 327.204 381.359 331.351 381.923 332.897C382.488 334.443 383.788 335.155 385.825 335.008C387.911 334.885 389.26 333.903 389.849 332.038C390.438 330.173 390.733 325.83 390.733 318.984V265.489L390.708 265.514Z" fill="white"/>
<path d="M502.752 238.883V316.671C502.752 325.481 502.458 331.64 501.869 335.149C501.28 338.658 499.562 342.118 496.691 345.578C493.82 349.038 490.065 351.516 485.354 353.038C480.667 354.559 475.146 355.099 468.766 354.706C461.723 354.265 455.466 352.841 450.067 350.339C444.669 347.86 440.62 344.768 437.945 341.038C435.27 337.308 433.675 333.407 433.184 329.284C432.694 325.186 432.448 316.573 432.448 303.445C432.448 280.477 432.448 257.533 432.448 234.564C442.706 234.638 452.963 234.957 463.196 235.521C463.196 264.624 463.196 293.703 463.196 322.806C463.196 327.886 463.465 331.149 464.03 332.597C464.594 334.045 465.723 334.805 467.416 334.904C469.355 335.026 470.606 334.315 471.171 332.793C471.735 331.272 472.005 327.616 472.005 321.824V236.061C482.238 236.748 492.47 237.681 502.678 238.834L502.752 238.883Z" fill="white"/>
<path d="M582.403 252.897V369.284C573.594 367.174 564.76 365.26 555.901 363.518C550.65 344.844 545.374 326.243 540.098 307.692V360.598C531.608 359.15 523.118 357.849 514.603 356.72V240.333C523.118 241.462 531.633 242.738 540.098 244.21C545.791 262.663 551.46 281.166 557.128 299.766V247.351C565.57 249.02 574.011 250.86 582.403 252.872V252.897Z" fill="white"/>
<path d="M594.476 255.919C601.96 257.858 609.42 259.919 616.855 262.127C631.26 266.397 640.879 270.397 645.909 273.464C650.915 276.556 654.719 280.139 657.32 284.163C659.921 288.187 661.54 292.212 662.203 296.212C662.841 300.211 663.185 307.745 663.185 318.763V359.522C663.185 369.975 662.718 376.773 661.761 379.938C660.804 383.104 659.16 385.238 656.78 386.367C654.4 387.496 651.48 387.815 647.971 387.373C644.486 386.932 639.186 385.508 632.118 383.226C619.653 379.202 607.113 375.57 594.476 372.306V255.919ZM624.364 284.31C624.364 309.831 624.364 335.351 624.364 360.871C628.658 362.196 631.284 362.172 632.266 360.749C633.247 359.325 633.738 354.712 633.738 346.958V301.733C633.738 296.457 633.566 293.022 633.247 291.427C632.904 289.832 632.168 288.506 630.99 287.427C629.812 286.347 627.603 285.292 624.364 284.286V284.31Z" fill="white"/>
<path d="M488.47 724.361C522.26 727.674 549.057 721.294 564.712 716.215C573.644 719.135 593.177 725.098 615.606 719.086C656.168 708.19 663.088 691.995 661.69 679.946C659.874 664.487 635.997 644.316 603.729 653.763C584.687 649.665 569.718 642.745 535.707 644.463C479.244 647.31 405.627 668.315 416.915 697.541C423.933 715.748 461.306 721.687 488.495 724.361H488.47Z" fill="#C6DDFF" stroke="white" stroke-width="7.36164" stroke-miterlimit="10"/>
<path d="M470.336 663.229C470.336 663.229 530.946 572.411 607.238 659.671L470.336 663.229Z" fill="#C6DDFF"/>
<path d="M470.336 663.235C490.188 622.059 538.873 600.097 578.944 628.856C590.748 637.076 600.17 647.751 607.238 659.677C596.342 651.113 585.57 642.99 573.963 637.126C535.044 615.875 499.635 634.942 470.336 663.235Z" fill="white"/>
<path d="M410.706 447.655C344.549 437.569 294.686 448.293 265.951 457.397C247.866 450.452 208.162 435.115 166.912 446.599C112.338 461.789 84.6094 495.137 92.3391 535.724C98.572 568.435 149.245 600.212 208.751 583.649C246.664 593.955 277.607 609.807 342.733 609.439C450.875 608.85 586.87 572.165 556.613 510.253C537.767 471.703 463.955 455.777 410.73 447.679L410.706 447.655Z" fill="#C6DDFF" stroke="white" stroke-width="7.36164" stroke-miterlimit="10"/>
<path d="M268.996 486.43C268.996 486.43 411.101 292.451 520.666 495.141L268.996 486.43Z" fill="#C6DDFF"/>
<path d="M268.996 486.428C307.817 424.958 389.359 365.918 459.908 414.677C488.103 434.308 507.612 464.515 520.666 495.139C501.968 467.607 481.944 441.203 454.019 423.731C387.47 381.598 314.467 438.062 268.996 486.428Z" fill="white"/>
<path d="M403.887 590.338C403.887 590.338 326.786 691.217 244.728 584.277L403.887 590.338Z" fill="#C6DDFF"/>
<path d="M403.887 590.338C376.796 635.711 320.038 657.182 275.721 621.503C262.666 611.27 252.36 598.387 244.728 584.277C256.408 595.271 268.163 605.724 281.217 613.577C324.896 641.747 368.305 622.092 403.887 590.338Z" fill="white"/>
<path d="M384.327 697.935C375.861 657.838 297.95 673.371 307.128 706.499C317.827 745.123 391.1 729.958 384.327 697.935Z" fill="#C6DDFF" stroke="white" stroke-width="7.36164" stroke-miterlimit="10"/>
<path d="M697.002 444.619C738.164 459.83 698.367 534.228 687.627 511.702C677.96 491.441 742.953 486.071 744.492 528.248C745.856 565.433 678.628 558.96 685.391 540.614C695.029 514.547 734.187 588.307 696.102 601.515C663.417 612.864 639.498 543.43 660.689 551.267C686.204 560.701 628.961 607.088 605.42 575.215C578.075 538.205 652.793 502.356 646.987 526.42C641.617 548.684 578.395 509.787 603.881 476.289C622.952 451.209 688.787 490.106 664.52 504.3C639.092 519.163 650.819 427.58 697.002 444.648V444.619Z" fill="#FFFDC2" stroke="white" stroke-width="8.70835" stroke-miterlimit="10"/>
</svg>
