<svg width="184" height="48" viewBox="0 0 184 48" fill="none" xmlns="http://www.w3.org/2000/svg">
<rect width="184" height="48" rx="24" fill="#FF5D5D"/>
<path d="M25 43C35.4934 43 44 34.4934 44 24C44 13.5066 35.4934 5 25 5C14.5066 5 6 13.5066 6 24C6 34.4934 14.5066 43 25 43Z" fill="#FF5D5D" stroke="white" stroke-width="0.703704" stroke-miterlimit="10"/>
<path d="M17.0529 8.25915C17.5046 8.13675 17.9586 8.02436 18.4137 7.9231C18.8455 7.82741 19.1737 7.79736 19.3974 7.82184C19.6211 7.84744 19.8013 7.95203 19.9393 8.13341C20.0773 8.3159 20.1463 8.63525 20.1463 9.09148C20.1463 9.3997 20.0973 9.62225 20.0005 9.76023C19.9037 9.89821 19.7112 10.024 19.4252 10.1419C19.7435 10.1541 19.9605 10.2376 20.074 10.3845C20.1875 10.5325 20.2442 10.7784 20.2442 11.1222V11.6118C20.2442 11.969 20.203 12.2394 20.1207 12.4241C20.0383 12.6088 19.9082 12.7479 19.729 12.8425C19.5499 12.9371 19.1827 13.0339 18.6307 13.1519C18.1022 13.2654 17.5759 13.3933 17.0518 13.5358V8.25804L17.0529 8.25915ZM18.4171 8.82442V9.99836C18.4761 9.98278 18.5217 9.97165 18.554 9.96498C18.6886 9.93604 18.7743 9.88486 18.811 9.81031C18.8477 9.73686 18.8666 9.54325 18.8666 9.22946C18.8666 9.06477 18.8511 8.95238 18.821 8.8923C18.791 8.83221 18.7509 8.79883 18.7019 8.79215C18.653 8.78547 18.5584 8.79549 18.4171 8.82442ZM18.4171 10.8196V12.2962C18.6096 12.2472 18.7331 12.1905 18.7865 12.1248C18.8399 12.0591 18.8666 11.9201 18.8666 11.7075V11.2157C18.8666 10.9898 18.8422 10.8574 18.7954 10.8196C18.7476 10.7817 18.6207 10.7806 18.4171 10.8196Z" fill="white"/>
<path d="M23.1434 7.25439C23.4094 8.99694 23.6753 10.7439 23.9402 12.4943C23.465 12.511 22.9899 12.5388 22.5159 12.5777C22.4914 12.2639 22.4658 11.949 22.4413 11.6352C22.2755 11.6497 22.1097 11.6653 21.9439 11.682C21.9161 12.0013 21.8883 12.3196 21.8605 12.6389C21.382 12.689 20.9035 12.7502 20.4272 12.8225C20.662 11.0277 20.8979 9.23507 21.1338 7.44579C21.8015 7.3601 22.4725 7.29668 23.1434 7.25551V7.25439ZM22.4057 10.7028C22.3356 10.1108 22.2644 9.37861 22.1943 8.50511C22.053 9.52883 21.9639 10.2766 21.9272 10.7484C22.0863 10.7317 22.2466 10.7172 22.4057 10.7039V10.7028Z" fill="white"/>
<path d="M27.433 9.59464C26.969 9.55681 26.505 9.5301 26.0398 9.51453V8.59763C26.0398 8.33057 26.0243 8.16366 25.9953 8.0969C25.9653 8.03013 25.8996 7.99453 25.7984 7.9923C25.6838 7.98896 25.6103 8.02791 25.5792 8.10803C25.548 8.18814 25.5324 8.36173 25.5324 8.62879V11.0801C25.5324 11.3361 25.548 11.5041 25.5792 11.5831C25.6103 11.6621 25.6793 11.7022 25.7884 11.7055C25.8919 11.7088 25.9597 11.671 25.992 11.5942C26.0243 11.5163 26.0398 11.3339 26.0398 11.0434V10.3802C26.505 10.3958 26.969 10.4225 27.433 10.4604C27.433 10.5293 27.433 10.5972 27.433 10.6662C27.433 11.2126 27.3941 11.5965 27.3162 11.819C27.2383 12.0416 27.0647 12.2285 26.7965 12.3843C26.5283 12.5401 26.1979 12.6102 25.8051 12.599C25.3967 12.5879 25.0595 12.5145 24.7947 12.3709C24.5299 12.2274 24.3541 12.0304 24.2673 11.7745C24.1816 11.5186 24.1382 11.1336 24.1382 10.6161V9.07388C24.1382 8.69333 24.1515 8.40846 24.1782 8.21707C24.2049 8.0268 24.284 7.84097 24.4153 7.66182C24.5466 7.48378 24.729 7.34135 24.9616 7.24009C25.1942 7.13883 25.4623 7.09098 25.765 7.09766C26.1756 7.10767 26.515 7.20337 26.782 7.37473C27.0491 7.54721 27.2238 7.75529 27.3084 7.99453C27.3918 8.23376 27.4341 8.60097 27.4341 9.0928C27.4341 9.25971 27.4341 9.42662 27.4341 9.59464H27.433Z" fill="white"/>
<path d="M31.2276 7.84527C30.965 8.58413 30.7024 9.32744 30.4386 10.073C30.7268 11.0911 31.015 12.1126 31.3021 13.1386C30.8292 13.0384 30.3552 12.9494 29.8789 12.8715C29.692 12.087 29.5062 11.3037 29.3192 10.5225V12.7847C28.8574 12.7179 28.3957 12.6623 27.9316 12.6178C27.9316 10.8586 27.9316 9.09933 27.9316 7.34009C28.3945 7.38571 28.8574 7.44135 29.3192 7.507V9.55777C29.5251 8.90348 29.7298 8.25253 29.9346 7.60269C30.3663 7.67391 30.7969 7.75514 31.2265 7.84527H31.2276Z" fill="white"/>
<path d="M33.1031 10.9624C33.1031 11.2651 33.1031 11.5688 33.1031 11.8715C32.5323 11.7135 31.9592 11.5722 31.3828 11.4476V10.5385C31.9592 10.6631 32.5334 10.8044 33.1031 10.9624Z" fill="white"/>
<path d="M17.4192 18.1173C16.9653 18.2341 16.5135 18.3632 16.0639 18.5012V18.0216C16.0639 17.72 16.0506 17.5342 16.025 17.4663C15.9994 17.3984 15.9382 17.3795 15.8425 17.4096C15.759 17.4363 15.7034 17.4864 15.6734 17.562C15.6433 17.6366 15.6288 17.809 15.6288 18.0783V20.6109C15.6288 20.8479 15.6433 20.9993 15.6734 21.0638C15.7034 21.1295 15.7624 21.1473 15.8525 21.1194C15.9504 21.0883 16.0172 21.026 16.0528 20.9292C16.0884 20.8335 16.1051 20.6632 16.1051 20.4173V19.7919C16.0139 19.8198 15.9237 19.8476 15.8336 19.8765C15.8336 19.6095 15.8336 19.3424 15.8336 19.0742C16.3588 18.9073 16.8874 18.7549 17.4192 18.618V21.451C17.1344 21.5245 16.8495 21.6024 16.5658 21.6847C16.5246 21.5712 16.4823 21.4566 16.4411 21.3431C16.3488 21.5334 16.2331 21.6903 16.0929 21.8149C15.9527 21.9395 15.788 22.0319 15.5988 22.0942C15.3729 22.1676 15.1626 22.1832 14.9668 22.1409C14.7709 22.0975 14.6229 22.013 14.5217 21.885C14.4204 21.757 14.357 21.6079 14.3325 21.4355C14.3069 21.263 14.2947 20.9959 14.2947 20.6332V19.0653C14.2947 18.5613 14.3214 18.1852 14.3737 17.937C14.426 17.6889 14.5773 17.4229 14.8277 17.1436C15.078 16.8643 15.403 16.6574 15.8024 16.5294C16.1963 16.4037 16.5257 16.3903 16.7872 16.4816C17.0487 16.5728 17.2201 16.7241 17.3002 16.93C17.3803 17.1358 17.4192 17.4563 17.4204 17.8881V18.1162L17.4192 18.1173Z" fill="white"/>
<path d="M17.9476 16.042C18.2703 15.9652 18.593 15.8929 18.9168 15.8262C19.5656 15.6937 20.0073 15.6481 20.2377 15.6604C20.468 15.6737 20.6572 15.7739 20.8029 15.9586C20.9487 16.1433 21.0221 16.4615 21.0221 16.9122C21.0221 17.3228 20.971 17.6054 20.8675 17.7612C20.764 17.917 20.5615 18.0294 20.2588 18.105C20.5325 18.1295 20.7161 18.1941 20.8107 18.2931C20.9053 18.3932 20.9632 18.4889 20.9865 18.5802C21.0099 18.6714 21.021 18.9307 21.021 19.3569V20.7489C20.5915 20.8057 20.1642 20.8713 19.7369 20.947V19.1933C19.7369 18.9107 19.7147 18.7393 19.6702 18.6803C19.6257 18.6214 19.5077 18.608 19.3185 18.6447V21.0249C18.8601 21.1128 18.4028 21.2107 17.9465 21.3197V16.042H17.9476ZM19.3196 16.6496V17.8235C19.4743 17.7935 19.5834 17.7534 19.6457 17.7C19.708 17.6466 19.7392 17.5031 19.7392 17.2705V16.9801C19.7392 16.8132 19.7091 16.7086 19.649 16.6674C19.5889 16.6262 19.4799 16.6195 19.3196 16.6496Z" fill="white"/>
<path d="M24.7426 18.302C24.7426 18.8328 24.7293 19.2078 24.7048 19.4292C24.6792 19.6495 24.6002 19.852 24.4667 20.0368C24.3331 20.2215 24.1518 20.3661 23.9248 20.4718C23.6966 20.5775 23.4318 20.6387 23.1303 20.6577C22.8432 20.6755 22.5861 20.6488 22.358 20.5764C22.1299 20.5041 21.9463 20.3839 21.8083 20.2137C21.6692 20.0434 21.5869 19.852 21.5613 19.6373C21.5346 19.4225 21.5224 19.0442 21.5212 18.5012C21.5212 18.1996 21.5212 17.8992 21.5212 17.5976C21.5212 17.068 21.5335 16.6907 21.5591 16.4671C21.5847 16.2434 21.6637 16.0331 21.7961 15.8362C21.9296 15.6392 22.1088 15.4812 22.3358 15.3633C22.5628 15.2453 22.8276 15.1752 23.1291 15.1574C23.4162 15.1396 23.6744 15.1741 23.9025 15.2575C24.1306 15.3421 24.3153 15.4756 24.4544 15.6581C24.5935 15.8406 24.677 16.0409 24.7026 16.2579C24.7293 16.4749 24.7426 16.8554 24.7426 17.3984V18.302ZM23.3484 16.6117C23.3484 16.3658 23.335 16.21 23.3072 16.1433C23.2794 16.0765 23.2226 16.0454 23.1369 16.0509C23.0635 16.0554 23.0079 16.0865 22.97 16.1444C22.9311 16.2023 22.9122 16.3669 22.9122 16.6384V19.1032C22.9122 19.4092 22.9244 19.5972 22.95 19.6673C22.9756 19.7374 23.0346 19.7697 23.1269 19.763C23.2215 19.7575 23.2827 19.7129 23.3094 19.6284C23.3361 19.5438 23.3495 19.3469 23.3495 19.0364V16.6106L23.3484 16.6117Z" fill="white"/>
<path d="M28.4287 15.4042V18.9316C28.4287 19.3311 28.4154 19.6104 28.3887 19.7695C28.362 19.9286 28.2841 20.0855 28.1539 20.2424C28.0237 20.3993 27.8534 20.5117 27.6398 20.5807C27.4273 20.6497 27.1769 20.6741 26.8876 20.6563C26.5682 20.6363 26.2845 20.5718 26.0397 20.4583C25.7949 20.3459 25.6113 20.2057 25.49 20.0365C25.3687 19.8674 25.2964 19.6905 25.2741 19.5035C25.2518 19.3177 25.2407 18.9271 25.2407 18.3318C25.2407 17.2903 25.2407 16.2499 25.2407 15.2084C25.7058 15.2117 26.171 15.2262 26.635 15.2518C26.635 16.5715 26.635 17.8901 26.635 19.2098C26.635 19.4401 26.6472 19.5881 26.6728 19.6538C26.6984 19.7194 26.7496 19.7539 26.8264 19.7584C26.9143 19.7639 26.971 19.7317 26.9966 19.6627C27.0222 19.5937 27.0345 19.4279 27.0345 19.1653V15.2763C27.4985 15.3074 27.9625 15.3497 28.4254 15.402L28.4287 15.4042Z" fill="white"/>
<path d="M32.041 16.0397V21.3174C31.6416 21.2217 31.241 21.1349 30.8393 21.0559C30.6012 20.2091 30.3619 19.3657 30.1227 18.5244V20.9235C29.7377 20.8578 29.3527 20.7989 28.9666 20.7477V15.47C29.3527 15.5212 29.7388 15.579 30.1227 15.6458C30.3808 16.4826 30.6379 17.3216 30.8949 18.165V15.7882C31.2777 15.8639 31.6605 15.9473 32.041 16.0386V16.0397Z" fill="white"/>
<path d="M32.5879 16.1768C32.9273 16.2647 33.2655 16.3581 33.6027 16.4583C34.2559 16.6519 34.6921 16.8333 34.9202 16.9724C35.1472 17.1126 35.3197 17.275 35.4376 17.4575C35.5556 17.64 35.629 17.8225 35.659 18.0039C35.688 18.1853 35.7036 18.5269 35.7036 19.0265V20.8747C35.7036 21.3488 35.6824 21.657 35.639 21.8005C35.5956 21.9441 35.5211 22.0409 35.4131 22.0921C35.3052 22.1433 35.1728 22.1577 35.0137 22.1377C34.8556 22.1177 34.6153 22.0531 34.2948 21.9496C33.7296 21.7672 33.161 21.6025 32.5879 21.4545V16.1768ZM33.9432 17.4642C33.9432 18.6214 33.9432 19.7787 33.9432 20.9359C34.1379 20.996 34.257 20.9949 34.3015 20.9304C34.346 20.8658 34.3683 20.6566 34.3683 20.305V18.2542C34.3683 18.015 34.3605 17.8592 34.346 17.7869C34.3304 17.7146 34.2971 17.6545 34.2436 17.6055C34.1902 17.5566 34.0901 17.5087 33.9432 17.4631V17.4642Z" fill="white"/>
<path d="M27.7806 37.4841C29.3129 37.6344 30.528 37.345 31.2379 37.1147C31.6429 37.2471 32.5287 37.5175 33.5457 37.2449C35.3851 36.7508 35.6989 36.0164 35.6354 35.4701C35.5531 34.7691 34.4704 33.8544 33.0072 34.2828C32.1437 34.097 31.4649 33.7832 29.9227 33.8611C27.3622 33.9901 24.024 34.9426 24.5359 36.2679C24.8541 37.0936 26.5488 37.3628 27.7817 37.4841H27.7806Z" fill="#C6DDFF" stroke="white" stroke-width="0.333821" stroke-miterlimit="10"/>
<path d="M26.9585 34.7121C26.9585 34.7121 29.707 30.5939 33.1665 34.5508L26.9585 34.7121Z" fill="#C6DDFF"/>
<path d="M26.9585 34.7124C27.8587 32.8452 30.0664 31.8493 31.8835 33.1534C32.4187 33.5262 32.846 34.0102 33.1665 34.551C32.6724 34.1627 32.1839 33.7944 31.6576 33.5284C29.8928 32.5648 28.2871 33.4294 26.9585 34.7124Z" fill="white"/>
<path d="M24.2545 24.9366C21.2546 24.4793 18.9935 24.9656 17.6905 25.3784C16.8704 25.0635 15.07 24.368 13.1994 24.8888C10.7247 25.5776 9.46732 27.0898 9.81783 28.9303C10.1005 30.4135 12.3983 31.8545 15.0967 31.1034C16.8158 31.5708 18.219 32.2896 21.1722 32.2729C26.076 32.2462 32.2428 30.5827 30.8708 27.7752C30.0163 26.0271 26.6691 25.305 24.2556 24.9378L24.2545 24.9366Z" fill="#C6DDFF" stroke="white" stroke-width="0.333821" stroke-miterlimit="10"/>
<path d="M17.8284 26.6949C17.8284 26.6949 24.2722 17.8987 29.2406 27.0899L17.8284 26.6949Z" fill="#C6DDFF"/>
<path d="M17.8284 26.6948C19.5887 23.9074 23.2863 21.2301 26.4855 23.4411C27.764 24.3313 28.6486 25.7011 29.2406 27.0898C28.3927 25.8413 27.4847 24.644 26.2184 23.8517C23.2007 21.9412 19.8903 24.5016 17.8284 26.6948Z" fill="white"/>
<path d="M23.9452 31.4068C23.9452 31.4068 20.449 35.9813 16.728 31.132L23.9452 31.4068Z" fill="#C6DDFF"/>
<path d="M23.9452 31.4068C22.7168 33.4643 20.143 34.4379 18.1334 32.82C17.5414 32.356 17.0741 31.7718 16.728 31.132C17.2577 31.6305 17.7907 32.1045 18.3827 32.4606C20.3633 33.738 22.3318 32.8467 23.9452 31.4068Z" fill="white"/>
<path d="M23.0584 36.2858C22.6745 34.4676 19.1415 35.172 19.5577 36.6742C20.0428 38.4256 23.3655 37.7379 23.0584 36.2858Z" fill="#C6DDFF" stroke="white" stroke-width="0.333821" stroke-miterlimit="10"/>
<path d="M37.2368 24.799C39.1033 25.4887 37.2987 28.8624 36.8117 27.841C36.3733 26.9222 39.3205 26.6787 39.3903 28.5912C39.4521 30.2774 36.4036 29.9839 36.7103 29.152C37.1473 27.97 38.923 31.3147 37.196 31.9136C35.7138 32.4283 34.6292 29.2797 35.5901 29.6351C36.7471 30.0629 34.1514 32.1663 33.0839 30.721C31.8439 29.0427 35.2321 27.4171 34.9688 28.5083C34.7253 29.5179 31.8584 27.7541 33.0141 26.2351C33.8789 25.0978 36.8643 26.8616 35.7639 27.5053C34.6108 28.1792 35.1426 24.0263 37.2368 24.8003V24.799Z" fill="#FFFDC2" stroke="white" stroke-width="0.394889" stroke-miterlimit="10"/>
<path d="M66.7734 24.1562H53.9609V25.3438H59.7422V27.9219H61.2109V25.3438H66.7734V24.1562ZM55.5547 30.5312H65.3516V29.3281H57.0234V26.7031H55.5547V30.5312ZM55.6484 22.9219H65.0859V17.2656H63.6016V18.9688H57.1172V17.2656H55.6484V22.9219ZM57.1172 21.7344V20.0781H63.6016V21.7344H57.1172ZM72.3984 17.4688C70.2969 17.4609 68.7812 18.6406 68.7891 20.375C68.7812 22.0938 70.2969 23.2812 72.3984 23.2656C74.5078 23.2812 76.0312 22.0938 76.0391 20.375C76.0312 18.6406 74.5078 17.4609 72.3984 17.4688ZM67.7891 24.3594L67.9922 25.5938C69.1016 25.5859 70.3828 25.5781 71.7422 25.5156V30.3906H73.2266V25.4297C74.5156 25.3438 75.8359 25.1953 77.1172 24.9531L77.0078 23.8438C73.9453 24.3047 70.375 24.3594 67.7891 24.3594ZM70.2266 20.375C70.2109 19.3516 71.125 18.6641 72.3984 18.6719C73.7031 18.6641 74.6172 19.3516 74.6172 20.375C74.6172 21.3906 73.7031 22.0625 72.3984 22.0469C71.125 22.0625 70.2109 21.3906 70.2266 20.375ZM77.9766 30.8281H79.4453V16.8438H77.9766V30.8281ZM93.2734 16.8281H91.7734V30.8281H93.2734V16.8281ZM81.7734 27.0781L82.5547 28.2812C87.3594 25.9766 89.1016 22.4297 89.1016 18.3281H82.4453V19.5156H87.6016C87.3125 22.7812 85.4922 25.3047 81.7734 27.0781ZM106.367 16.8281H104.883V30.8125H106.367V23.6406H108.539V22.4062H106.367V16.8281ZM95.4766 27.0781L96.3047 28.2344C100.914 25.9609 102.695 22.3438 102.711 18.2969H96.1797V19.5312H101.195C100.891 22.7969 98.9844 25.3281 95.4766 27.0781ZM120.305 21H118.836V22.5312H113.18V23.7344H125.992V22.5312H120.305V21ZM113.836 20.7188L114.32 21.8281C116.789 21.6172 118.836 20.7109 119.586 19.3203C120.32 20.7188 122.367 21.6172 124.836 21.8281L125.32 20.7188C122.789 20.5469 120.82 19.5859 120.578 18.375H124.82V17.2344H114.367V18.375H118.562C118.32 19.5781 116.328 20.5469 113.836 20.7188ZM114.367 26.5938H124.773V25.4531H120.305V24.2188H118.836V25.4531H114.367V26.5938ZM115.32 29.0312C115.312 30.2578 116.836 30.8984 119.555 30.8906C122.273 30.8984 123.828 30.2578 123.836 29.0312C123.828 27.8203 122.273 27.1953 119.555 27.1875C116.836 27.1953 115.312 27.8203 115.32 29.0312ZM116.836 29.0312C116.82 28.4688 117.805 28.2109 119.555 28.2031C121.336 28.2109 122.297 28.4688 122.305 29.0312C122.297 29.5938 121.336 29.8906 119.555 29.875C117.805 29.8906 116.82 29.5938 116.836 29.0312ZM130.773 17.875C128.68 17.8828 127.188 19.7891 127.195 22.7812C127.188 25.8047 128.68 27.7109 130.773 27.7031C132.867 27.7109 134.359 25.8047 134.367 22.7812C134.359 19.7891 132.867 17.8828 130.773 17.875ZM128.617 22.7812C128.609 20.5859 129.5 19.2109 130.773 19.2031C132.07 19.2109 132.945 20.5859 132.945 22.7812C132.945 25.0078 132.07 26.375 130.773 26.375C129.5 26.375 128.609 25.0078 128.617 22.7812ZM136.445 30.8281H137.93V23.5625H140.18V22.3125H137.93V16.8281H136.445V30.8281ZM153.664 27.8438H150.602V24.1562C151.727 23.5234 152.398 22.5312 152.398 21.2969C152.398 19.0938 150.234 17.6484 147.227 17.6406C144.227 17.6484 142.062 19.0938 142.07 21.2969C142.062 22.5547 142.766 23.5547 143.914 24.1875V27.8438H140.852V29.0781H153.664V27.8438ZM143.508 21.2969C143.508 19.7891 145.031 18.8281 147.227 18.8281C149.406 18.8281 150.953 19.7891 150.961 21.2969C150.953 22.7969 149.406 23.7734 147.227 23.7812C145.031 23.7734 143.508 22.7969 143.508 21.2969ZM145.383 27.8438V24.7344C145.945 24.8672 146.57 24.9375 147.227 24.9375C147.898 24.9375 148.531 24.8672 149.102 24.7344V27.8438H145.383ZM157.258 18.1875H155.43L155.57 26.2344H157.117L157.258 18.1875ZM155.242 28.5C155.234 29.1094 155.742 29.6016 156.352 29.6094C156.953 29.6016 157.453 29.1094 157.461 28.5C157.453 27.8906 156.953 27.3906 156.352 27.3906C155.742 27.3906 155.234 27.8906 155.242 28.5Z" fill="white"/>
</svg>
