<svg width="184" height="48" viewBox="0 0 184 48" fill="none" xmlns="http://www.w3.org/2000/svg">
<rect width="184" height="48" rx="24" fill="#FF5D5D"/>
<path d="M25 43C35.4934 43 44 34.4934 44 24C44 13.5066 35.4934 5 25 5C14.5066 5 6 13.5066 6 24C6 34.4934 14.5066 43 25 43Z" fill="#FF5D5D" stroke="white" stroke-width="0.703704" stroke-miterlimit="10"/>
<path d="M17.0524 8.25915C17.5041 8.13675 17.9581 8.02436 18.4133 7.9231C18.845 7.82741 19.1733 7.79736 19.3969 7.82184C19.6206 7.84744 19.8008 7.95203 19.9388 8.13341C20.0768 8.3159 20.1458 8.63525 20.1458 9.09148C20.1458 9.3997 20.0968 9.62225 20 9.76023C19.9032 9.89821 19.7107 10.024 19.4247 10.1419C19.743 10.1541 19.96 10.2376 20.0735 10.3845C20.187 10.5325 20.2437 10.7784 20.2437 11.1222V11.6118C20.2437 11.969 20.2025 12.2394 20.1202 12.4241C20.0379 12.6088 19.9077 12.7479 19.7285 12.8425C19.5494 12.9371 19.1822 13.0339 18.6302 13.1519C18.1017 13.2654 17.5754 13.3933 17.0513 13.5358V8.25804L17.0524 8.25915ZM18.4166 8.82442V9.99836C18.4756 9.98278 18.5212 9.97165 18.5535 9.96498C18.6881 9.93604 18.7738 9.88486 18.8105 9.81031C18.8472 9.73686 18.8661 9.54325 18.8661 9.22946C18.8661 9.06477 18.8506 8.95238 18.8205 8.8923C18.7905 8.83221 18.7504 8.79883 18.7015 8.79215C18.6525 8.78547 18.5579 8.79549 18.4166 8.82442ZM18.4166 10.8196V12.2962C18.6091 12.2472 18.7326 12.1905 18.786 12.1248C18.8394 12.0591 18.8661 11.9201 18.8661 11.7075V11.2157C18.8661 10.9898 18.8417 10.8574 18.7949 10.8196C18.7471 10.7817 18.6202 10.7806 18.4166 10.8196Z" fill="white"/>
<path d="M23.1434 7.25439C23.4094 8.99694 23.6753 10.7439 23.9402 12.4943C23.465 12.511 22.9899 12.5388 22.5159 12.5777C22.4914 12.2639 22.4658 11.949 22.4413 11.6352C22.2755 11.6497 22.1097 11.6653 21.9439 11.682C21.9161 12.0013 21.8883 12.3196 21.8605 12.6389C21.382 12.689 20.9035 12.7502 20.4272 12.8225C20.662 11.0277 20.8979 9.23507 21.1338 7.44579C21.8015 7.3601 22.4725 7.29668 23.1434 7.25551V7.25439ZM22.4057 10.7028C22.3356 10.1108 22.2644 9.37861 22.1943 8.50511C22.053 9.52883 21.9639 10.2766 21.9272 10.7484C22.0863 10.7317 22.2466 10.7172 22.4057 10.7039V10.7028Z" fill="white"/>
<path d="M27.433 9.59452C26.969 9.55669 26.505 9.52998 26.0398 9.5144V8.59751C26.0398 8.33045 26.0243 8.16354 25.9953 8.09678C25.9653 8.03001 25.8996 7.9944 25.7984 7.99218C25.6838 7.98884 25.6103 8.02779 25.5792 8.1079C25.548 8.18802 25.5324 8.36161 25.5324 8.62866V11.08C25.5324 11.336 25.548 11.504 25.5792 11.583C25.6103 11.662 25.6793 11.702 25.7884 11.7054C25.8919 11.7087 25.9597 11.6709 25.992 11.5941C26.0243 11.5162 26.0398 11.3337 26.0398 11.0433V10.3801C26.505 10.3957 26.969 10.4224 27.433 10.4602C27.433 10.5292 27.433 10.5971 27.433 10.6661C27.433 11.2124 27.3941 11.5963 27.3162 11.8189C27.2383 12.0414 27.0647 12.2284 26.7965 12.3842C26.5283 12.5399 26.1979 12.61 25.8051 12.5989C25.3967 12.5878 25.0595 12.5143 24.7947 12.3708C24.5299 12.2273 24.3541 12.0303 24.2673 11.7744C24.1816 11.5184 24.1382 11.1334 24.1382 10.616V9.07376C24.1382 8.6932 24.1515 8.40834 24.1782 8.21695C24.2049 8.02667 24.284 7.84085 24.4153 7.6617C24.5466 7.48366 24.729 7.34123 24.9616 7.23997C25.1942 7.13871 25.4623 7.09086 25.765 7.09754C26.1756 7.10755 26.515 7.20325 26.782 7.37461C27.0491 7.54708 27.2238 7.75517 27.3084 7.9944C27.3918 8.23364 27.4341 8.60085 27.4341 9.09268C27.4341 9.25959 27.4341 9.4265 27.4341 9.59452H27.433Z" fill="white"/>
<path d="M31.2276 7.84527C30.965 8.58413 30.7024 9.32744 30.4386 10.073C30.7268 11.0911 31.015 12.1126 31.3021 13.1386C30.8292 13.0384 30.3552 12.9494 29.8789 12.8715C29.692 12.087 29.5062 11.3037 29.3192 10.5225V12.7847C28.8574 12.7179 28.3957 12.6623 27.9316 12.6178C27.9316 10.8586 27.9316 9.09933 27.9316 7.34009C28.3945 7.38571 28.8574 7.44135 29.3192 7.507V9.55777C29.5251 8.90348 29.7298 8.25253 29.9346 7.60269C30.3663 7.67391 30.7969 7.75514 31.2265 7.84527H31.2276Z" fill="white"/>
<path d="M33.1031 10.9623C33.1031 11.2649 33.1031 11.5687 33.1031 11.8714C32.5323 11.7134 31.9592 11.5721 31.3828 11.4474V10.5383C31.9592 10.663 32.5334 10.8043 33.1031 10.9623Z" fill="white"/>
<path d="M17.419 18.1172C16.965 18.234 16.5132 18.3631 16.0637 18.501V18.0215C16.0637 17.7199 16.0503 17.5341 16.0247 17.4662C15.9991 17.3983 15.9379 17.3794 15.8422 17.4095C15.7588 17.4362 15.7032 17.4862 15.6731 17.5619C15.6431 17.6365 15.6286 17.8089 15.6286 18.0782V20.6108C15.6286 20.8478 15.6431 20.9991 15.6731 21.0637C15.7032 21.1293 15.7621 21.1471 15.8523 21.1193C15.9502 21.0882 16.017 21.0259 16.0526 20.929C16.0882 20.8333 16.1049 20.6631 16.1049 20.4172V19.7918C16.0136 19.8196 15.9235 19.8475 15.8334 19.8764C15.8334 19.6093 15.8334 19.3423 15.8334 19.0741C16.3586 18.9072 16.8871 18.7548 17.419 18.6179V21.4509C17.1341 21.5244 16.8493 21.6022 16.5655 21.6846C16.5244 21.5711 16.4821 21.4565 16.4409 21.343C16.3485 21.5333 16.2328 21.6902 16.0926 21.8148C15.9524 21.9394 15.7877 22.0318 15.5986 22.0941C15.3727 22.1675 15.1624 22.1831 14.9665 22.1408C14.7707 22.0974 14.6227 22.0128 14.5214 21.8849C14.4202 21.7569 14.3567 21.6078 14.3323 21.4353C14.3067 21.2629 14.2944 20.9958 14.2944 20.6331V19.0652C14.2944 18.5611 14.3211 18.185 14.3734 17.9369C14.4257 17.6888 14.5771 17.4228 14.8274 17.1435C15.0778 16.8642 15.4027 16.6572 15.8022 16.5293C16.1961 16.4035 16.5255 16.3902 16.787 16.4814C17.0485 16.5727 17.2198 16.724 17.2999 16.9299C17.3801 17.1357 17.419 17.4562 17.4201 17.8879V18.116L17.419 18.1172Z" fill="white"/>
<path d="M17.9474 16.042C18.2701 15.9652 18.5928 15.8929 18.9166 15.8262C19.5653 15.6937 20.0071 15.6481 20.2374 15.6604C20.4677 15.6737 20.6569 15.7739 20.8027 15.9586C20.9485 16.1433 21.0219 16.4615 21.0219 16.9122C21.0219 17.3228 20.9707 17.6054 20.8672 17.7612C20.7637 17.917 20.5612 18.0294 20.2586 18.105C20.5323 18.1295 20.7159 18.1941 20.8105 18.2931C20.9051 18.3932 20.9629 18.4889 20.9863 18.5802C21.0097 18.6714 21.0208 18.9307 21.0208 19.3569V20.7489C20.5913 20.8057 20.164 20.8713 19.7367 20.947V19.1933C19.7367 18.9107 19.7144 18.7393 19.6699 18.6803C19.6254 18.6214 19.5075 18.608 19.3183 18.6447V21.0249C18.8598 21.1128 18.4025 21.2107 17.9463 21.3197V16.042H17.9474ZM19.3194 16.6496V17.8235C19.4741 17.7935 19.5831 17.7534 19.6454 17.7C19.7078 17.6466 19.7389 17.5031 19.7389 17.2705V16.9801C19.7389 16.8132 19.7089 16.7086 19.6488 16.6674C19.5887 16.6262 19.4796 16.6195 19.3194 16.6496Z" fill="white"/>
<path d="M24.7424 18.302C24.7424 18.8328 24.729 19.2078 24.7045 19.4292C24.6789 19.6495 24.5999 19.852 24.4664 20.0368C24.3329 20.2215 24.1515 20.3661 23.9245 20.4718C23.6964 20.5775 23.4316 20.6387 23.13 20.6577C22.8429 20.6755 22.5859 20.6488 22.3578 20.5764C22.1297 20.5041 21.9461 20.3839 21.8081 20.2137C21.669 20.0434 21.5866 19.852 21.5611 19.6373C21.5343 19.4225 21.5221 19.0442 21.521 18.5012C21.521 18.1996 21.521 17.8992 21.521 17.5976C21.521 17.068 21.5332 16.6907 21.5588 16.4671C21.5844 16.2434 21.6634 16.0331 21.7958 15.8362C21.9294 15.6392 22.1085 15.4812 22.3355 15.3633C22.5625 15.2453 22.8274 15.1752 23.1289 15.1574C23.416 15.1396 23.6741 15.1741 23.9023 15.2575C24.1304 15.3421 24.3151 15.4756 24.4542 15.6581C24.5933 15.8406 24.6767 16.0409 24.7023 16.2579C24.729 16.4749 24.7424 16.8554 24.7424 17.3984V18.302ZM23.3481 16.6117C23.3481 16.3658 23.3348 16.21 23.3069 16.1433C23.2791 16.0765 23.2224 16.0454 23.1367 16.0509C23.0633 16.0554 23.0076 16.0865 22.9698 16.1444C22.9308 16.2023 22.9119 16.3669 22.9119 16.6384V19.1032C22.9119 19.4092 22.9242 19.5972 22.9498 19.6673C22.9753 19.7374 23.0343 19.7697 23.1267 19.763C23.2213 19.7575 23.2825 19.7129 23.3092 19.6284C23.3359 19.5438 23.3492 19.3469 23.3492 19.0364V16.6106L23.3481 16.6117Z" fill="white"/>
<path d="M28.4282 15.4041V18.9315C28.4282 19.3309 28.4149 19.6102 28.3882 19.7694C28.3615 19.9285 28.2836 20.0854 28.1534 20.2423C28.0232 20.3992 27.8529 20.5116 27.6393 20.5806C27.4268 20.6495 27.1764 20.674 26.8871 20.6562C26.5677 20.6362 26.284 20.5716 26.0392 20.4581C25.7944 20.3458 25.6108 20.2056 25.4895 20.0364C25.3682 19.8673 25.2959 19.6904 25.2736 19.5034C25.2514 19.3176 25.2402 18.927 25.2402 18.3317C25.2402 17.2902 25.2402 16.2498 25.2402 15.2083C25.7054 15.2116 26.1705 15.2261 26.6345 15.2516C26.6345 16.5714 26.6345 17.89 26.6345 19.2097C26.6345 19.44 26.6467 19.588 26.6723 19.6536C26.6979 19.7193 26.7491 19.7538 26.8259 19.7582C26.9138 19.7638 26.9705 19.7315 26.9961 19.6625C27.0217 19.5936 27.034 19.4278 27.034 19.1651V15.2761C27.498 15.3073 27.962 15.3496 28.4249 15.4019L28.4282 15.4041Z" fill="white"/>
<path d="M32.0408 16.0397V21.3174C31.6413 21.2217 31.2407 21.1349 30.839 21.0559C30.6009 20.2091 30.3617 19.3657 30.1224 18.5244V20.9235C29.7374 20.8578 29.3524 20.7989 28.9663 20.7477V15.47C29.3524 15.5212 29.7386 15.579 30.1224 15.6458C30.3806 16.4826 30.6376 17.3216 30.8947 18.165V15.7882C31.2775 15.8639 31.6602 15.9473 32.0408 16.0386V16.0397Z" fill="white"/>
<path d="M32.5879 16.1765C32.9273 16.2644 33.2655 16.3579 33.6027 16.458C34.2559 16.6517 34.6921 16.833 34.9202 16.9721C35.1472 17.1123 35.3197 17.2748 35.4376 17.4573C35.5556 17.6398 35.629 17.8223 35.659 18.0036C35.688 18.185 35.7036 18.5266 35.7036 19.0262V20.8745C35.7036 21.3485 35.6824 21.6567 35.639 21.8003C35.5956 21.9438 35.5211 22.0406 35.4131 22.0918C35.3052 22.143 35.1728 22.1575 35.0137 22.1375C34.8556 22.1174 34.6153 22.0529 34.2948 21.9494C33.7296 21.7669 33.161 21.6022 32.5879 21.4542V16.1765ZM33.9432 17.464C33.9432 18.6212 33.9432 19.7784 33.9432 20.9357C34.1379 20.9958 34.257 20.9947 34.3015 20.9301C34.346 20.8656 34.3683 20.6564 34.3683 20.3048V18.254C34.3683 18.0148 34.3605 17.859 34.346 17.7866C34.3304 17.7143 34.2971 17.6542 34.2436 17.6053C34.1902 17.5563 34.0901 17.5085 33.9432 17.4628V17.464Z" fill="white"/>
<path d="M27.7801 37.4844C29.3124 37.6346 30.5275 37.3453 31.2374 37.115C31.6425 37.2474 32.5282 37.5178 33.5452 37.2451C35.3846 36.7511 35.6984 36.0167 35.635 35.4703C35.5526 34.7693 34.4699 33.8546 33.0067 34.283C32.1432 34.0972 31.4644 33.7834 29.9222 33.8613C27.3618 33.9904 24.0235 34.9429 24.5354 36.2682C24.8536 37.0938 26.5483 37.3631 27.7813 37.4844H27.7801Z" fill="#C6DDFF" stroke="white" stroke-width="0.333821" stroke-miterlimit="10"/>
<path d="M26.958 34.7121C26.958 34.7121 29.7065 30.5939 33.166 34.5508L26.958 34.7121Z" fill="#C6DDFF"/>
<path d="M26.958 34.7124C27.8582 32.8452 30.0659 31.8493 31.883 33.1534C32.4182 33.5262 32.8455 34.0102 33.166 34.551C32.6719 34.1627 32.1834 33.7944 31.6571 33.5284C29.8923 32.5648 28.2866 33.4294 26.958 34.7124Z" fill="white"/>
<path d="M24.2543 24.9369C21.2543 24.4795 18.9932 24.9658 17.6902 25.3786C16.8701 25.0637 15.0697 24.3683 13.1992 24.889C10.7245 25.5778 9.46708 27.09 9.81759 28.9305C10.1002 30.4138 12.398 31.8548 15.0964 31.1037C16.8156 31.571 18.2188 32.2899 21.172 32.2732C26.0758 32.2465 32.2426 30.5829 30.8706 27.7755C30.016 26.0274 26.6689 25.3052 24.2554 24.938L24.2543 24.9369Z" fill="#C6DDFF" stroke="white" stroke-width="0.333821" stroke-miterlimit="10"/>
<path d="M17.8281 26.6951C17.8281 26.6951 24.272 17.8989 29.2404 27.0901L17.8281 26.6951Z" fill="#C6DDFF"/>
<path d="M17.8281 26.6949C19.5885 23.9075 23.2861 21.2303 26.4852 23.4413C27.7638 24.3315 28.6484 25.7012 29.2404 27.0899C28.3925 25.8414 27.4845 24.6441 26.2182 23.8519C23.2004 21.9413 19.89 24.5017 17.8281 26.6949Z" fill="white"/>
<path d="M23.9452 31.4069C23.9452 31.4069 20.449 35.9814 16.728 31.1321L23.9452 31.4069Z" fill="#C6DDFF"/>
<path d="M23.9452 31.4069C22.7168 33.4644 20.143 34.438 18.1334 32.8201C17.5414 32.3561 17.0741 31.7719 16.728 31.1321C17.2577 31.6306 17.7907 32.1046 18.3827 32.4607C20.3633 33.7381 22.3318 32.8468 23.9452 31.4069Z" fill="white"/>
<path d="M23.0581 36.2859C22.6742 34.4677 19.1413 35.1721 19.5574 36.6743C20.0426 38.4257 23.3652 37.7381 23.0581 36.2859Z" fill="#C6DDFF" stroke="white" stroke-width="0.333821" stroke-miterlimit="10"/>
<path d="M37.2368 24.7989C39.1033 25.4886 37.2987 28.8623 36.8117 27.8408C36.3733 26.9221 39.3205 26.6785 39.3903 28.5911C39.4521 30.2773 36.4036 29.9838 36.7103 29.1519C37.1473 27.9698 38.923 31.3145 37.196 31.9135C35.7138 32.4281 34.6292 29.2795 35.5901 29.6349C36.7471 30.0627 34.1514 32.1662 33.0839 30.7209C31.8439 29.0426 35.2321 27.417 34.9688 28.5082C34.7253 29.5178 31.8584 27.754 33.0141 26.235C33.8789 25.0977 36.8643 26.8615 35.7639 27.5052C34.6108 28.1791 35.1426 24.0262 37.2368 24.8002V24.7989Z" fill="#FFFDC2" stroke="white" stroke-width="0.394889" stroke-miterlimit="10"/>
<path d="M66.7734 24.1562H53.9609V25.3438H59.7422V27.9219H61.2109V25.3438H66.7734V24.1562ZM55.5547 30.5312H65.3516V29.3281H57.0234V26.7031H55.5547V30.5312ZM55.6484 22.9219H65.0859V17.2656H63.6016V18.9688H57.1172V17.2656H55.6484V22.9219ZM57.1172 21.7344V20.0781H63.6016V21.7344H57.1172ZM72.3984 17.4688C70.2969 17.4609 68.7812 18.6406 68.7891 20.375C68.7812 22.0938 70.2969 23.2812 72.3984 23.2656C74.5078 23.2812 76.0312 22.0938 76.0391 20.375C76.0312 18.6406 74.5078 17.4609 72.3984 17.4688ZM67.7891 24.3594L67.9922 25.5938C69.1016 25.5859 70.3828 25.5781 71.7422 25.5156V30.3906H73.2266V25.4297C74.5156 25.3438 75.8359 25.1953 77.1172 24.9531L77.0078 23.8438C73.9453 24.3047 70.375 24.3594 67.7891 24.3594ZM70.2266 20.375C70.2109 19.3516 71.125 18.6641 72.3984 18.6719C73.7031 18.6641 74.6172 19.3516 74.6172 20.375C74.6172 21.3906 73.7031 22.0625 72.3984 22.0469C71.125 22.0625 70.2109 21.3906 70.2266 20.375ZM77.9766 30.8281H79.4453V16.8438H77.9766V30.8281ZM93.2734 16.8281H91.7734V30.8281H93.2734V16.8281ZM81.7734 27.0781L82.5547 28.2812C87.3594 25.9766 89.1016 22.4297 89.1016 18.3281H82.4453V19.5156H87.6016C87.3125 22.7812 85.4922 25.3047 81.7734 27.0781ZM106.367 16.8281H104.883V30.8125H106.367V23.6406H108.539V22.4062H106.367V16.8281ZM95.4766 27.0781L96.3047 28.2344C100.914 25.9609 102.695 22.3438 102.711 18.2969H96.1797V19.5312H101.195C100.891 22.7969 98.9844 25.3281 95.4766 27.0781ZM120.305 21H118.836V22.5312H113.18V23.7344H125.992V22.5312H120.305V21ZM113.836 20.7188L114.32 21.8281C116.789 21.6172 118.836 20.7109 119.586 19.3203C120.32 20.7188 122.367 21.6172 124.836 21.8281L125.32 20.7188C122.789 20.5469 120.82 19.5859 120.578 18.375H124.82V17.2344H114.367V18.375H118.562C118.32 19.5781 116.328 20.5469 113.836 20.7188ZM114.367 26.5938H124.773V25.4531H120.305V24.2188H118.836V25.4531H114.367V26.5938ZM115.32 29.0312C115.312 30.2578 116.836 30.8984 119.555 30.8906C122.273 30.8984 123.828 30.2578 123.836 29.0312C123.828 27.8203 122.273 27.1953 119.555 27.1875C116.836 27.1953 115.312 27.8203 115.32 29.0312ZM116.836 29.0312C116.82 28.4688 117.805 28.2109 119.555 28.2031C121.336 28.2109 122.297 28.4688 122.305 29.0312C122.297 29.5938 121.336 29.8906 119.555 29.875C117.805 29.8906 116.82 29.5938 116.836 29.0312ZM130.773 17.875C128.68 17.8828 127.188 19.7891 127.195 22.7812C127.188 25.8047 128.68 27.7109 130.773 27.7031C132.867 27.7109 134.359 25.8047 134.367 22.7812C134.359 19.7891 132.867 17.8828 130.773 17.875ZM128.617 22.7812C128.609 20.5859 129.5 19.2109 130.773 19.2031C132.07 19.2109 132.945 20.5859 132.945 22.7812C132.945 25.0078 132.07 26.375 130.773 26.375C129.5 26.375 128.609 25.0078 128.617 22.7812ZM136.445 30.8281H137.93V23.5625H140.18V22.3125H137.93V16.8281H136.445V30.8281ZM153.664 27.8438H150.602V24.1562C151.727 23.5234 152.398 22.5312 152.398 21.2969C152.398 19.0938 150.234 17.6484 147.227 17.6406C144.227 17.6484 142.062 19.0938 142.07 21.2969C142.062 22.5547 142.766 23.5547 143.914 24.1875V27.8438H140.852V29.0781H153.664V27.8438ZM143.508 21.2969C143.508 19.7891 145.031 18.8281 147.227 18.8281C149.406 18.8281 150.953 19.7891 150.961 21.2969C150.953 22.7969 149.406 23.7734 147.227 23.7812C145.031 23.7734 143.508 22.7969 143.508 21.2969ZM145.383 27.8438V24.7344C145.945 24.8672 146.57 24.9375 147.227 24.9375C147.898 24.9375 148.531 24.8672 149.102 24.7344V27.8438H145.383ZM157.258 18.1875H155.43L155.57 26.2344H157.117L157.258 18.1875ZM155.242 28.5C155.234 29.1094 155.742 29.6016 156.352 29.6094C156.953 29.6016 157.453 29.1094 157.461 28.5C157.453 27.8906 156.953 27.3906 156.352 27.3906C155.742 27.3906 155.234 27.8906 155.242 28.5Z" fill="white"/>
</svg>
