<svg width="24" height="24" viewBox="0 0 24 24" fill="none" xmlns="http://www.w3.org/2000/svg">
<path d="M0.637019 11.5413C0.436549 11.7418 0.436549 12.0668 0.637019 12.2673L3.90385 15.5341C4.10432 15.7346 4.42935 15.7346 4.62981 15.5341C4.83028 15.3337 4.83028 15.0086 4.62981 14.8082L1.72596 11.9043L4.62981 9.00048C4.83028 8.80001 4.83028 8.47498 4.62981 8.27451C4.42935 8.07404 4.10432 8.07404 3.90385 8.27451L0.637019 11.5413ZM23.363 12.2673C23.5634 12.0668 23.5634 11.7418 23.363 11.5413L20.0961 8.27451C19.8957 8.07404 19.5707 8.07404 19.3702 8.27451C19.1697 8.47498 19.1697 8.80001 19.3702 9.00048L22.274 11.9043L19.3702 14.8082C19.1697 15.0086 19.1697 15.3337 19.3702 15.5341C19.5707 15.7346 19.8957 15.7346 20.0961 15.5341L23.363 12.2673ZM1 12.4177H23V11.391H1V12.4177Z" fill="white"/>
<path d="M11.7347 23.363C11.9351 23.5635 12.2602 23.5635 12.4606 23.363L15.7275 20.0961C15.9279 19.8957 15.9279 19.5707 15.7275 19.3702C15.527 19.1697 15.202 19.1697 15.0015 19.3702L12.0977 22.274L9.1938 19.3702C8.99334 19.1697 8.66831 19.1697 8.46784 19.3702C8.26737 19.5707 8.26737 19.8957 8.46784 20.0961L11.7347 23.363ZM12.4606 0.637018C12.2602 0.43655 11.9351 0.43655 11.7347 0.637018L8.46784 3.90385C8.26737 4.10432 8.26737 4.42935 8.46784 4.62981C8.66831 4.83028 8.99333 4.83028 9.1938 4.62981L12.0977 1.72596L15.0015 4.62981C15.202 4.83028 15.527 4.83028 15.7275 4.62981C15.9279 4.42935 15.9279 4.10432 15.7275 3.90385L12.4606 0.637018ZM12.611 23L12.611 1L11.5843 1L11.5843 23L12.611 23Z" fill="white"/>
</svg>
