<svg width="30" height="30" viewBox="0 0 30 30" fill="none" xmlns="http://www.w3.org/2000/svg">
<path d="M0.646447 14.5247C0.451184 14.7199 0.451184 15.0365 0.646447 15.2318L3.82843 18.4138C4.02369 18.609 4.34027 18.609 4.53553 18.4138C4.7308 18.2185 4.7308 17.9019 4.53553 17.7067L1.70711 14.8782L4.53553 12.0498C4.7308 11.8545 4.7308 11.538 4.53553 11.3427C4.34027 11.1474 4.02369 11.1474 3.82843 11.3427L0.646447 14.5247ZM29.3536 15.2318C29.5488 15.0365 29.5488 14.7199 29.3536 14.5247L26.1716 11.3427C25.9763 11.1474 25.6597 11.1474 25.4645 11.3427C25.2692 11.538 25.2692 11.8545 25.4645 12.0498L28.2929 14.8782L25.4645 17.7067C25.2692 17.9019 25.2692 18.2185 25.4645 18.4138C25.6597 18.609 25.9763 18.609 26.1716 18.4138L29.3536 15.2318ZM1 15.3782H29V14.3782H1V15.3782Z" fill="white"/>
<path d="M14.7695 29.3536C14.9648 29.5488 15.2813 29.5488 15.4766 29.3536L18.6586 26.1716C18.8538 25.9763 18.8538 25.6597 18.6586 25.4645C18.4633 25.2692 18.1467 25.2692 17.9515 25.4645L15.123 28.2929L12.2946 25.4645C12.0994 25.2692 11.7828 25.2692 11.5875 25.4645C11.3923 25.6597 11.3923 25.9763 11.5875 26.1716L14.7695 29.3536ZM15.4766 0.646445C15.2813 0.451183 14.9648 0.451183 14.7695 0.646445L11.5875 3.82843C11.3922 4.02369 11.3922 4.34027 11.5875 4.53553C11.7828 4.73079 12.0994 4.73079 12.2946 4.53553L15.123 1.70711L17.9515 4.53553C18.1467 4.73079 18.4633 4.73079 18.6586 4.53553C18.8538 4.34027 18.8538 4.02369 18.6586 3.82843L15.4766 0.646445ZM15.623 29L15.623 0.999999L14.623 0.999999L14.623 29L15.623 29Z" fill="white"/>
</svg>
