<svg width="127" height="105" viewBox="0 0 127 105" fill="none" xmlns="http://www.w3.org/2000/svg">
<path d="M3.38877 68.9904C-5.18757 103.597 19.6215 104.757 28.8009 98.9922C43.2907 89.8946 44.3845 70.4777 42.0743 70.4777C38.2563 70.4777 21.7425 102.043 49.1633 103.613C76.5943 105.182 81.2709 70.7894 78.4445 70.7894C74.601 70.7894 53.5588 107.175 88.4059 103.439C121.336 99.9122 115.423 44.8202 115.423 44.8202C132.806 24.6111 126.171 2.54678 111.319 2.54678C86.2133 2.54678 66.6686 35.6868 71.473 35.8657C79.4871 36.1672 84.5113 1.19234 65.0484 1.19234C41.783 1.19234 9.33292 44.9991 3.38366 68.9853L3.38877 68.9904Z" fill="#C3CDD5" stroke="#F4F5F7" stroke-width="1.91654" stroke-linecap="round" stroke-linejoin="round"/>
</svg>
