<svg width="140" height="112" viewBox="0 0 140 112" fill="none" xmlns="http://www.w3.org/2000/svg">
<path d="M16.3888 75.9904C7.81243 110.597 32.6215 111.758 41.8009 105.992C56.2907 96.8946 57.3845 77.4777 55.0743 77.4777C51.2563 77.4777 34.7425 109.044 62.1633 110.613C89.5943 112.182 94.2709 77.7895 91.4445 77.7895C87.601 77.7895 66.5588 114.175 101.406 110.439C134.336 106.912 128.423 51.8203 128.423 51.8203C145.806 31.6112 139.171 9.54682 124.319 9.54682C99.2133 9.54682 79.6686 42.6868 84.473 42.8657C92.4871 43.1673 97.5113 8.19238 78.0484 8.19238C54.783 8.19238 22.3329 51.9992 16.3837 75.9853L16.3888 75.9904Z" fill="#C3CDD5" stroke="#F4F5F7" stroke-width="1.91654" stroke-linecap="round" stroke-linejoin="round"/>
<path d="M32.7087 65.2459C32.7087 65.2459 36.5318 33.1229 52.7134 33.1229C36.5318 33.1229 32.7087 1 32.7087 1C32.7087 1 28.8857 33.1229 12.7041 33.1229C28.8857 33.1229 32.7087 65.2459 32.7087 65.2459Z" fill="#E8EBEF" stroke="#F4F5F7" stroke-width="1.12177" stroke-linecap="round" stroke-linejoin="round"/>
<path d="M9.43323 70.1575C9.43323 70.1575 11.0432 56.6132 17.8665 56.6132C11.0432 56.6132 9.43323 43.069 9.43323 43.069C9.43323 43.069 7.82325 56.6132 1 56.6132C7.82325 56.6132 9.43323 70.1575 9.43323 70.1575Z" fill="#E8EBEF" stroke="#F4F5F7" stroke-width="1.12177" stroke-linecap="round" stroke-linejoin="round"/>
<path d="M120.358 107.537C120.358 107.537 122.923 85.9684 133.789 85.9684C122.923 85.9684 120.358 64.3998 120.358 64.3998C120.358 64.3998 117.792 85.9684 106.926 85.9684C117.792 85.9684 120.358 107.537 120.358 107.537Z" fill="#E8EBEF" stroke="#F4F5F7" stroke-width="1.12177" stroke-linecap="round" stroke-linejoin="round"/>
<path d="M44.0392 71.3022C44.0392 71.3022 43.9319 82.4699 49.9527 82.4699" stroke="#F4F5F7" stroke-width="1.91654" stroke-miterlimit="10" stroke-linecap="round"/>
<path d="M48.8576 71.9125C48.8576 71.9125 47.3345 79.303 51.3262 80.0901" stroke="#F4F5F7" stroke-width="1.91654" stroke-miterlimit="10" stroke-linecap="round"/>
<path d="M80.4044 71.3022C80.4044 71.3022 80.2971 82.4699 86.3179 82.4699" stroke="#F4F5F7" stroke-width="1.91654" stroke-miterlimit="10" stroke-linecap="round"/>
<path d="M85.2297 71.9125C85.2297 71.9125 83.7066 79.303 87.6983 80.0901" stroke="#F4F5F7" stroke-width="1.91654" stroke-miterlimit="10" stroke-linecap="round"/>
<path d="M54.5338 78.1775C55.0079 78.2899 55.3941 78.8157 55.5823 79.6965C55.7673 80.562 55.7429 81.7048 55.4558 82.9157C55.1686 84.1267 54.6773 85.1588 54.1234 85.8491C53.5597 86.5515 52.9785 86.8479 52.5045 86.7355C52.0304 86.6231 51.6442 86.0973 51.4559 85.2165C51.271 84.3511 51.2953 83.2083 51.5825 81.9973C51.8696 80.7863 52.361 79.7542 52.9149 79.0639C53.4786 78.3615 54.0598 78.0651 54.5338 78.1775Z" fill="#F4F5F7" stroke="#F4F5F7" stroke-width="0.373924"/>
<path d="M91.068 78.1822C91.542 78.2946 91.9283 78.8203 92.1165 79.7011C92.3015 80.5666 92.2771 81.7094 91.99 82.9204C91.7028 84.1314 91.2115 85.1634 90.6576 85.8537C90.0939 86.5562 89.5127 86.8525 89.0387 86.7401C88.5646 86.6277 88.1784 86.1019 87.9901 85.2212C87.8051 84.3557 87.8295 83.2129 88.1167 82.0019C88.4038 80.7909 88.8952 79.7589 89.4491 79.0686C90.0127 78.3661 90.5939 78.0697 91.068 78.1822Z" fill="#F4F5F7" stroke="#F4F5F7" stroke-width="0.373924"/>
</svg>
