<svg width="170" height="48" viewBox="0 0 170 48" fill="none" xmlns="http://www.w3.org/2000/svg">
<rect width="170" height="48" rx="24" fill="#FF5D5D"/>
<path d="M25 43C35.4934 43 44 34.4934 44 24C44 13.5066 35.4934 5 25 5C14.5066 5 6 13.5066 6 24C6 34.4934 14.5066 43 25 43Z" fill="#FFFDC2" stroke="white" stroke-width="0.703704" stroke-miterlimit="10"/>
<path d="M12.3492 30.6384C10.482 38.1727 15.8833 38.4253 17.8818 37.1702C21.0364 35.1895 21.2745 30.9622 20.7715 30.9622C19.9403 30.9622 16.3451 37.8345 22.3149 38.1761C28.287 38.5177 29.3051 31.0301 28.6898 31.0301C27.853 31.0301 23.2719 38.9517 30.8585 38.1383C38.0279 37.3705 36.7404 25.3763 36.7404 25.3763C40.5249 20.9765 39.0805 16.1728 35.8469 16.1728C30.3811 16.1728 26.126 23.3878 27.172 23.4267C28.9168 23.4924 30.0106 15.8779 25.7733 15.8779C20.7081 15.8779 13.6433 25.4152 12.3481 30.6373L12.3492 30.6384Z" fill="#FF5D5D" stroke="white" stroke-width="0.333821" stroke-linecap="round" stroke-linejoin="round"/>
<path d="M15.9021 28.2996C15.9021 28.2996 16.7345 21.3061 20.2574 21.3061C16.7345 21.3061 15.9021 14.3125 15.9021 14.3125C15.9021 14.3125 15.0698 21.3061 11.5469 21.3061C15.0698 21.3061 15.9021 28.2996 15.9021 28.2996Z" fill="#3973CB" stroke="white" stroke-width="0.333821" stroke-linecap="round" stroke-linejoin="round"/>
<path d="M10.8348 29.3689C10.8348 29.3689 11.1853 26.4202 12.6708 26.4202C11.1853 26.4202 10.8348 23.4714 10.8348 23.4714C10.8348 23.4714 10.4843 26.4202 8.99878 26.4202C10.4843 26.4202 10.8348 29.3689 10.8348 29.3689Z" fill="#3973CB" stroke="white" stroke-width="0.333821" stroke-linecap="round" stroke-linejoin="round"/>
<path d="M34.9846 37.5063C34.9846 37.5063 35.5432 32.8105 37.9089 32.8105C35.5432 32.8105 34.9846 28.1147 34.9846 28.1147C34.9846 28.1147 34.426 32.8105 32.0603 32.8105C34.426 32.8105 34.9846 37.5063 34.9846 37.5063Z" fill="#3973CB" stroke="white" stroke-width="0.333821" stroke-linecap="round" stroke-linejoin="round"/>
<path d="M18.3692 29.6182C18.3692 29.6182 18.3458 32.0495 19.6566 32.0495" stroke="white" stroke-width="0.333821" stroke-miterlimit="10" stroke-linecap="round"/>
<path d="M19.4186 29.752C19.4186 29.752 19.087 31.361 19.956 31.5323" stroke="white" stroke-width="0.333821" stroke-miterlimit="10" stroke-linecap="round"/>
<path d="M26.2874 29.6182C26.2874 29.6182 26.264 32.0495 27.5748 32.0495" stroke="white" stroke-width="0.333821" stroke-miterlimit="10" stroke-linecap="round"/>
<path d="M27.3368 29.752C27.3368 29.752 27.0052 31.361 27.8742 31.5323" stroke="white" stroke-width="0.333821" stroke-miterlimit="10" stroke-linecap="round"/>
<path d="M20.8952 32.1587C21.0224 31.6223 20.919 31.1385 20.6643 31.0781C20.4095 31.0177 20.0999 31.4036 19.9727 31.9399C19.8455 32.4763 19.9489 32.9601 20.2037 33.0205C20.4584 33.0809 20.768 32.6951 20.8952 32.1587Z" fill="white"/>
<path d="M28.8493 32.1587C28.9765 31.6223 28.8731 31.1385 28.6184 31.0781C28.3636 31.0177 28.054 31.4036 27.9268 31.9399C27.7996 32.4763 27.903 32.9601 28.1578 33.0205C28.4125 33.0809 28.7221 32.6951 28.8493 32.1587Z" fill="white"/>
<path d="M18.6667 8.3528C19.4872 8.04314 20.3248 7.79321 21.1709 7.60303V8.76C20.8234 8.83803 20.4784 8.92581 20.1358 9.02334V10.1194C20.4418 10.0316 20.7491 9.95355 21.0575 9.88162C21.0575 10.2486 21.0575 10.6155 21.0575 10.9813C20.7491 11.052 20.4418 11.1312 20.1358 11.219V13.6476C19.6408 13.789 19.1508 13.9511 18.6667 14.134V8.35159V8.3528Z" fill="#FF5D5D"/>
<path d="M24.0099 7.19336C24.3013 9.10133 24.5927 11.0166 24.884 12.9392C24.3635 12.949 23.8429 12.9807 23.3247 13.0343C23.2979 12.6905 23.2699 12.3467 23.2431 12.0041C23.0614 12.0236 22.8797 12.0456 22.6993 12.0712C22.6688 12.4223 22.6384 12.7722 22.6079 13.1233C22.0849 13.1977 21.5643 13.2952 21.0486 13.4147C21.3034 11.4287 21.5594 9.44757 21.8154 7.47133C22.542 7.33478 23.276 7.24334 24.0111 7.19458L24.0099 7.19336ZM23.2016 10.9825C23.1248 10.3363 23.0468 9.53535 22.97 8.58075C22.8151 9.70725 22.7176 10.5302 22.6786 11.0471C22.8529 11.0227 23.0273 11.0008 23.2016 10.9825Z" fill="#FF5D5D"/>
<path d="M28.6971 9.99716C28.1948 9.90206 27.6888 9.82769 27.1805 9.77405V8.76947C27.1805 8.47688 27.1646 8.29278 27.1317 8.2172C27.0988 8.14161 27.0268 8.09772 26.9159 8.08797C26.7903 8.07699 26.7111 8.11479 26.6769 8.20013C26.6428 8.28547 26.6257 8.47444 26.6257 8.76825V11.454C26.6257 11.7344 26.6428 11.9198 26.6769 12.0075C26.7111 12.0965 26.7867 12.1441 26.9049 12.1551C27.0183 12.1648 27.0927 12.1307 27.128 12.0478C27.1634 11.9661 27.1805 11.7661 27.1805 11.4479V10.7213C27.6876 10.775 28.1936 10.8493 28.6971 10.9444V11.17C28.6971 11.7686 28.6544 12.1855 28.5703 12.4196C28.4849 12.6549 28.2972 12.839 28.0058 12.9841C27.7144 13.1279 27.3536 13.1755 26.9244 13.1353C26.4782 13.095 26.1088 12.9975 25.8187 12.828C25.5285 12.6598 25.3359 12.4391 25.2408 12.1563C25.1469 11.8734 25.0994 11.4504 25.0994 10.8835V9.19374C25.0994 8.77679 25.114 8.46468 25.1433 8.25621C25.1725 8.04774 25.2591 7.84658 25.4029 7.65517C25.5468 7.46376 25.7467 7.31503 26.0015 7.21506C26.2563 7.11508 26.5502 7.07729 26.8805 7.10655C27.3292 7.14678 27.6986 7.28089 27.9888 7.49546C28.2789 7.71003 28.4691 7.95874 28.5605 8.23061C28.6508 8.50248 28.6971 8.90967 28.6971 9.44854V9.99838V9.99716Z" fill="#FF5D5D"/>
<path d="M29.2383 7.58936C30.0722 7.77345 30.8975 8.01606 31.7071 8.31597V9.47294C31.3828 9.35225 31.0573 9.2413 30.7281 9.14012V10.2361C31.0353 10.3312 31.3413 10.4349 31.6449 10.5458V11.6455C31.3413 11.5345 31.0353 11.4309 30.7281 11.3358V12.6074C31.089 12.7195 31.4486 12.8427 31.8034 12.9768V14.1338C30.9634 13.8168 30.1063 13.562 29.2383 13.3706V7.58936Z" fill="#FF5D5D"/>
<path d="M65.5469 16.8281H64.0781V19.8438H61.3438C61.0391 18.3047 59.6172 17.2812 57.7656 17.2812C55.6484 17.2812 54.0859 18.5859 54.0938 20.4531C54.0859 22.3516 55.6484 23.6719 57.7656 23.6719C59.6172 23.6719 61.0469 22.625 61.3516 21.0625H64.0781V23.9062H65.5469V16.8281ZM55.5156 20.4531C55.5078 19.2969 56.4531 18.4922 57.7656 18.5C59.0391 18.4922 59.9844 19.2969 59.9844 20.4531C59.9844 21.6562 59.0391 22.4531 57.7656 22.4531C56.4531 22.4531 55.5078 21.6562 55.5156 20.4531ZM56.3906 25.7969H64.0781V27.0156H56.4219V30.6562H66.0469V29.4688H57.9062V28.125H65.5469V24.6406H56.3906V25.7969ZM78.9062 17.3906H69.3281V18.5781H77.4375C77.4375 19.4453 77.4062 20.4609 77.1406 21.8281H67.7188V22.9844H73.3594V24.6406H69.2188V25.8125H77.4531V27.0938H69.2344V30.6875H79.2812V29.5H70.7188V28.1406H78.9219V24.6406H74.8281V22.9844H80.5312V21.8281H78.625C78.9141 20.375 78.9141 19.2031 78.9062 18.2969V17.3906ZM93.1406 16.8281H91.6562V30.8594H93.1406V16.8281ZM82.0312 22.7812C82.0312 25.8047 83.5391 27.7109 85.6562 27.7031C87.7344 27.7109 89.2656 25.8047 89.2656 22.7812C89.2656 19.7891 87.7344 17.8828 85.6562 17.875C83.5391 17.8828 82.0312 19.7891 82.0312 22.7812ZM83.4688 22.7812C83.4609 20.5859 84.3516 19.2109 85.6562 19.2031C86.9375 19.2109 87.8281 20.5859 87.8281 22.7812C87.8281 25.0078 86.9375 26.375 85.6562 26.375C84.3516 26.375 83.4609 25.0078 83.4688 22.7812ZM106.391 21H104.922V22.5312H99.2656V23.7344H112.078V22.5312H106.391V21ZM99.9219 20.7188L100.406 21.8281C102.875 21.6172 104.922 20.7109 105.672 19.3203C106.406 20.7188 108.453 21.6172 110.922 21.8281L111.406 20.7188C108.875 20.5469 106.906 19.5859 106.664 18.375H110.906V17.2344H100.453V18.375H104.648C104.406 19.5781 102.414 20.5469 99.9219 20.7188ZM100.453 26.5938H110.859V25.4531H106.391V24.2188H104.922V25.4531H100.453V26.5938ZM101.406 29.0312C101.398 30.2578 102.922 30.8984 105.641 30.8906C108.359 30.8984 109.914 30.2578 109.922 29.0312C109.914 27.8203 108.359 27.1953 105.641 27.1875C102.922 27.1953 101.398 27.8203 101.406 29.0312ZM102.922 29.0312C102.906 28.4688 103.891 28.2109 105.641 28.2031C107.422 28.2109 108.383 28.4688 108.391 29.0312C108.383 29.5938 107.422 29.8906 105.641 29.875C103.891 29.8906 102.906 29.5938 102.922 29.0312ZM116.859 17.875C114.766 17.8828 113.273 19.7891 113.281 22.7812C113.273 25.8047 114.766 27.7109 116.859 27.7031C118.953 27.7109 120.445 25.8047 120.453 22.7812C120.445 19.7891 118.953 17.8828 116.859 17.875ZM114.703 22.7812C114.695 20.5859 115.586 19.2109 116.859 19.2031C118.156 19.2109 119.031 20.5859 119.031 22.7812C119.031 25.0078 118.156 26.375 116.859 26.375C115.586 26.375 114.695 25.0078 114.703 22.7812ZM122.531 30.8281H124.016V23.5625H126.266V22.3125H124.016V16.8281H122.531V30.8281ZM139.75 27.8438H136.688V24.1562C137.812 23.5234 138.484 22.5312 138.484 21.2969C138.484 19.0938 136.32 17.6484 133.312 17.6406C130.312 17.6484 128.148 19.0938 128.156 21.2969C128.148 22.5547 128.852 23.5547 130 24.1875V27.8438H126.938V29.0781H139.75V27.8438ZM129.594 21.2969C129.594 19.7891 131.117 18.8281 133.312 18.8281C135.492 18.8281 137.039 19.7891 137.047 21.2969C137.039 22.7969 135.492 23.7734 133.312 23.7812C131.117 23.7734 129.594 22.7969 129.594 21.2969ZM131.469 27.8438V24.7344C132.031 24.8672 132.656 24.9375 133.312 24.9375C133.984 24.9375 134.617 24.8672 135.188 24.7344V27.8438H131.469ZM143.344 18.1875H141.516L141.656 26.2344H143.203L143.344 18.1875ZM141.328 28.5C141.32 29.1094 141.828 29.6016 142.438 29.6094C143.039 29.6016 143.539 29.1094 143.547 28.5C143.539 27.8906 143.039 27.3906 142.438 27.3906C141.828 27.3906 141.32 27.8906 141.328 28.5Z" fill="white"/>
</svg>
