<svg width="641" height="641" viewBox="0 0 641 641" fill="none" xmlns="http://www.w3.org/2000/svg">
<path d="M320.213 632.425C492.643 632.425 632.425 492.643 632.425 320.213C632.425 147.782 492.643 8 320.213 8C147.782 8 8 147.782 8 320.213C8 492.643 147.782 632.425 320.213 632.425Z" fill="#FFFDC2" stroke="white" stroke-width="15.5185" stroke-miterlimit="10"/>
<path d="M112.333 429.297C81.6508 553.103 170.405 557.254 203.245 536.628C255.082 504.081 258.995 434.618 250.73 434.618C237.072 434.618 177.993 547.544 276.091 553.158C374.226 558.771 390.956 435.733 380.845 435.733C367.095 435.733 291.816 565.902 416.482 552.536C534.291 539.92 513.135 342.828 513.135 342.828C575.322 270.53 551.588 191.594 498.453 191.594C408.638 191.594 338.717 310.153 355.904 310.793C384.575 311.872 402.549 186.749 332.92 186.749C249.688 186.749 133.598 343.468 112.314 429.278L112.333 429.297Z" fill="#FF5E67" stroke="white" stroke-width="7.36164" stroke-linecap="round" stroke-linejoin="round"/>
<path d="M170.716 390.863C170.716 390.863 184.393 275.943 242.283 275.943C184.393 275.943 170.716 161.023 170.716 161.023C170.716 161.023 157.039 275.943 99.1494 275.943C157.039 275.943 170.716 390.863 170.716 390.863Z" fill="#3973CB" stroke="white" stroke-width="7.36164" stroke-linecap="round" stroke-linejoin="round"/>
<path d="M87.4487 408.437C87.4487 408.437 93.2084 359.982 117.619 359.982C93.2084 359.982 87.4487 311.527 87.4487 311.527C87.4487 311.527 81.689 359.982 57.2788 359.982C81.689 359.982 87.4487 408.437 87.4487 408.437Z" fill="#3973CB" stroke="white" stroke-width="7.36164" stroke-linecap="round" stroke-linejoin="round"/>
<path d="M484.282 542.152C484.282 542.152 493.461 464.99 532.334 464.99C493.461 464.99 484.282 387.828 484.282 387.828C484.282 387.828 475.103 464.99 436.229 464.99C475.103 464.99 484.282 542.152 484.282 542.152Z" fill="#3973CB" stroke="white" stroke-width="7.36164" stroke-linecap="round" stroke-linejoin="round"/>
<path d="M211.253 412.53C211.253 412.53 210.869 452.483 232.408 452.483" stroke="white" stroke-width="7.36164" stroke-miterlimit="10" stroke-linecap="round"/>
<path d="M228.497 414.731C228.497 414.731 223.048 441.171 237.329 443.987" stroke="white" stroke-width="7.36164" stroke-miterlimit="10" stroke-linecap="round"/>
<path d="M341.368 412.53C341.368 412.53 340.984 452.483 362.524 452.483" stroke="white" stroke-width="7.36164" stroke-miterlimit="10" stroke-linecap="round"/>
<path d="M358.61 414.731C358.61 414.731 353.161 441.171 367.441 443.987" stroke="white" stroke-width="7.36164" stroke-miterlimit="10" stroke-linecap="round"/>
<path d="M252.76 454.276C254.85 445.462 253.151 437.513 248.965 436.52C244.779 435.527 239.692 441.868 237.602 450.682C235.512 459.496 237.211 467.445 241.397 468.438C245.582 469.43 250.67 463.09 252.76 454.276Z" fill="white"/>
<path d="M383.467 454.276C385.557 445.462 383.858 437.513 379.672 436.52C375.486 435.527 370.398 441.868 368.308 450.682C366.218 459.496 367.917 467.445 372.103 468.438C376.289 469.43 381.377 463.09 383.467 454.276Z" fill="white"/>
<path d="M221.712 65.4385C234.018 60.7942 246.579 57.0458 259.269 54.1934V71.5456C254.058 72.7158 248.883 74.0324 243.745 75.4951V91.9332C248.335 90.6167 252.942 89.4464 257.568 88.3676C257.568 93.8713 257.568 99.3751 257.568 104.861C252.942 105.921 248.335 107.11 243.745 108.426V144.849C236.321 146.97 228.971 149.402 221.712 152.145V65.4202V65.4385Z" fill="#FF5E67"/>
<path d="M301.855 48.0498C306.225 76.6655 310.595 105.391 314.965 134.226C307.158 134.372 299.35 134.848 291.579 135.652C291.177 130.496 290.756 125.34 290.354 120.202C287.629 120.494 284.905 120.823 282.199 121.207C281.742 126.473 281.285 131.721 280.827 136.987C272.983 138.102 265.176 139.565 257.441 141.357C261.263 111.571 265.103 81.8584 268.942 52.2187C279.84 50.1708 290.847 48.7995 301.873 48.0681L301.855 48.0498ZM289.732 104.879C288.58 95.188 287.41 83.1749 286.258 68.8579C283.936 85.753 282.473 98.0953 281.888 105.848C284.503 105.482 287.117 105.153 289.732 104.879Z" fill="#FF5E67"/>
<path d="M372.16 90.1021C364.627 88.6759 357.038 87.5605 349.414 86.756V71.6893C349.414 67.301 349.176 64.54 348.682 63.4063C348.188 62.2727 347.11 61.6144 345.446 61.4681C343.562 61.3036 342.374 61.8704 341.862 63.1503C341.35 64.4303 341.094 67.2644 341.094 71.671V111.952C341.094 116.158 341.35 118.937 341.862 120.254C342.374 121.589 343.508 122.302 345.281 122.466C346.982 122.612 348.097 122.1 348.627 120.857C349.158 119.632 349.414 116.633 349.414 111.861V100.963C357.02 101.768 364.608 102.883 372.16 104.309V107.692C372.16 116.67 371.52 122.923 370.258 126.434C368.978 129.963 366.162 132.724 361.792 134.9C357.422 137.057 352.01 137.771 345.574 137.167C338.882 136.564 333.341 135.101 328.989 132.559C324.638 130.036 321.749 126.727 320.322 122.484C318.915 118.242 318.201 111.898 318.201 103.395V78.0524C318.201 71.799 318.421 67.1181 318.86 63.9914C319.299 60.8647 320.597 57.8477 322.754 54.977C324.912 52.1063 327.911 49.8756 331.732 48.3762C335.554 46.8769 339.96 46.31 344.915 46.7489C351.644 47.3523 357.185 49.3636 361.536 52.5817C365.888 55.7998 368.741 59.5299 370.112 63.6075C371.465 67.685 372.16 73.7921 372.16 81.874V90.1204V90.1021Z" fill="#FF5E67"/>
<path d="M380.259 53.9863C392.766 56.7473 405.144 60.386 417.285 64.8841V82.2363C412.422 80.4261 407.54 78.7622 402.603 77.2446V93.6826C407.211 95.1088 411.8 96.663 416.353 98.3269V114.82C411.8 113.156 407.211 111.602 402.603 110.175V129.246C408.015 130.929 413.409 132.775 418.73 134.787V152.139C406.132 147.385 393.278 143.563 380.259 140.693V53.9863Z" fill="#FF5E67"/>
</svg>
