<svg width="854" height="854" viewBox="0 0 854 854" fill="none" xmlns="http://www.w3.org/2000/svg">
<path d="M427 846C658.407 846 846 658.407 846 427C846 195.593 658.407 8 427 8C195.593 8 8 195.593 8 427C8 658.407 195.593 846 427 846Z" fill="#FFFDC2" stroke="white" stroke-width="15.5185" stroke-miterlimit="10"/>
<path d="M148.018 573.394C106.842 739.546 225.953 745.116 270.025 717.437C339.592 673.758 344.844 580.535 333.752 580.535C315.422 580.535 236.137 732.086 367.787 739.62C499.487 747.153 521.94 582.032 508.37 582.032C489.917 582.032 388.891 756.723 556.196 738.785C714.3 721.854 685.909 457.35 685.909 457.35C769.365 360.323 737.514 254.39 666.204 254.39C545.669 254.39 451.833 413.499 474.899 414.358C513.376 415.806 537.498 247.887 444.054 247.887C332.353 247.887 176.557 458.209 147.993 573.369L148.018 573.394Z" fill="#FF5D5D" stroke="white" stroke-width="7.36164" stroke-linecap="round" stroke-linejoin="round"/>
<path d="M226.371 521.815C226.371 521.815 244.726 367.589 322.415 367.589C244.726 367.589 226.371 213.362 226.371 213.362C226.371 213.362 208.016 367.589 130.326 367.589C208.016 367.589 226.371 521.815 226.371 521.815Z" fill="#3973CB" stroke="white" stroke-width="7.36164" stroke-linecap="round" stroke-linejoin="round"/>
<path d="M114.623 545.399C114.623 545.399 122.353 480.372 155.112 480.372C122.353 480.372 114.623 415.344 114.623 415.344C114.623 415.344 106.893 480.372 74.1338 480.372C106.893 480.372 114.623 545.399 114.623 545.399Z" fill="#3973CB" stroke="white" stroke-width="7.36164" stroke-linecap="round" stroke-linejoin="round"/>
<path d="M647.186 724.85C647.186 724.85 659.505 621.296 711.674 621.296C659.505 621.296 647.186 517.742 647.186 517.742C647.186 517.742 634.868 621.296 582.698 621.296C634.868 621.296 647.186 724.85 647.186 724.85Z" fill="#3973CB" stroke="white" stroke-width="7.36164" stroke-linecap="round" stroke-linejoin="round"/>
<path d="M280.772 550.894C280.772 550.894 280.257 604.511 309.163 604.511" stroke="white" stroke-width="7.36164" stroke-miterlimit="10" stroke-linecap="round"/>
<path d="M303.915 553.847C303.915 553.847 296.602 589.33 315.767 593.109" stroke="white" stroke-width="7.36164" stroke-miterlimit="10" stroke-linecap="round"/>
<path d="M455.391 550.894C455.391 550.894 454.876 604.511 483.783 604.511" stroke="white" stroke-width="7.36164" stroke-miterlimit="10" stroke-linecap="round"/>
<path d="M478.53 553.847C478.53 553.847 471.218 589.33 490.383 593.109" stroke="white" stroke-width="7.36164" stroke-miterlimit="10" stroke-linecap="round"/>
<path d="M336.476 606.918C339.281 595.09 337.001 584.421 331.383 583.089C325.766 581.757 318.938 590.266 316.133 602.094C313.328 613.923 315.608 624.592 321.226 625.924C326.843 627.256 333.671 618.747 336.476 606.918Z" fill="white"/>
<path d="M511.889 606.918C514.694 595.09 512.414 584.421 506.796 583.089C501.179 581.757 494.351 590.266 491.546 602.094C488.741 613.923 491.021 624.592 496.639 625.924C502.257 627.256 509.084 618.747 511.889 606.918Z" fill="white"/>
<path d="M294.809 85.0835C311.323 78.8507 328.181 73.8202 345.211 69.9922V93.2795C338.218 94.85 331.273 96.6168 324.378 98.5799V120.64C330.537 118.873 336.721 117.303 342.929 115.855C342.929 123.241 342.929 130.628 342.929 137.989C336.721 139.412 330.537 141.007 324.378 142.774V191.656C314.415 194.502 304.55 197.766 294.809 201.447V85.059V85.0835Z" fill="#FF5D5D"/>
<path d="M402.363 61.7471C408.228 100.15 414.093 138.701 419.957 177.398C409.479 177.595 399.001 178.233 388.572 179.312C388.032 172.393 387.468 165.473 386.928 158.577C383.272 158.97 379.616 159.412 375.984 159.927C375.37 166.994 374.757 174.037 374.143 181.104C363.616 182.601 353.138 184.564 342.758 186.969C347.887 146.995 353.04 107.119 358.193 67.3419C372.818 64.5936 387.591 62.7532 402.388 61.7716L402.363 61.7471ZM386.094 138.014C384.548 125.008 382.977 108.886 381.431 89.6722C378.315 112.346 376.352 128.91 375.567 139.314C379.076 138.823 382.585 138.382 386.094 138.014Z" fill="#FF5D5D"/>
<path d="M496.715 118.183C486.605 116.269 476.421 114.772 466.189 113.692V93.4723C466.189 87.583 465.87 83.8776 465.207 82.3562C464.544 80.8348 463.097 79.9514 460.864 79.7551C458.336 79.5343 456.741 80.295 456.054 82.0127C455.367 83.7304 455.023 87.5339 455.023 93.4478V147.507C455.023 153.151 455.367 156.881 456.054 158.647C456.741 160.439 458.263 161.396 460.643 161.617C462.925 161.813 464.422 161.126 465.133 159.457C465.845 157.813 466.189 153.789 466.189 147.384V132.759C476.397 133.839 486.58 135.335 496.715 137.25V141.789C496.715 153.838 495.856 162.23 494.163 166.941C492.445 171.677 488.666 175.383 482.801 178.303C476.937 181.199 469.673 182.156 461.035 181.346C452.054 180.536 444.619 178.573 438.779 175.162C432.938 171.776 429.061 167.334 427.147 161.641C425.258 155.948 424.301 147.433 424.301 136.023V102.012C424.301 93.6195 424.595 87.3376 425.184 83.1415C425.773 78.9453 427.515 74.8964 430.411 71.0438C433.307 67.1913 437.331 64.1975 442.46 62.1853C447.588 60.1732 453.502 59.4125 460.152 60.0014C469.182 60.8112 476.618 63.5104 482.458 67.8293C488.298 72.1481 492.126 77.154 493.966 82.6262C495.782 88.0983 496.715 96.2943 496.715 107.14V118.207V118.183Z" fill="#FF5D5D"/>
<path d="M507.584 69.7139C524.369 73.4192 540.981 78.3024 557.275 84.339V107.626C550.748 105.197 544.196 102.964 537.57 100.927V122.988C543.754 124.902 549.913 126.987 556.024 129.22V151.354C549.913 149.121 543.754 147.036 537.57 145.122V170.716C544.834 172.973 552.073 175.452 559.214 178.151V201.438C542.306 195.058 525.056 189.929 507.584 186.077V69.7139Z" fill="#FF5D5D"/>
</svg>
