<svg width="87" height="28" viewBox="0 0 87 28" fill="none" xmlns="http://www.w3.org/2000/svg">
<path d="M73.1535 26.5086C77.8698 28.0494 79.3837 21.6592 76.3281 20.847C72.7656 19.9 70.3051 25.578 73.1535 26.5086Z" fill="#FF5D5D" stroke="white" stroke-width="0.858071" stroke-miterlimit="10" stroke-linecap="round" stroke-linejoin="round"/>
<path d="M81.3481 15.9913C82.8577 13.9149 82.9674 11.9377 83.2073 10.734C83.7488 10.2609 84.9036 9.20946 85.3344 7.5296C86.1138 4.49174 85.2513 3.44642 84.3601 3.09696C83.2166 2.64736 80.4182 3.05857 79.8531 5.50275C78.8481 6.58997 77.7979 7.31137 76.6287 9.58593C74.6873 13.3636 73.8481 19.3244 76.3094 19.6626C78.6406 19.983 80.1328 17.6921 81.3481 16.0214V15.9913Z" fill="#FF5D5D" stroke="white" stroke-width="0.858071" stroke-miterlimit="10" stroke-linecap="round" stroke-linejoin="round"/>
<path d="M34.2345 26.6424C37.1575 27.6055 38.5865 23.0354 36.2994 22.4571C33.6344 21.7835 32.1017 25.978 34.2345 26.6424Z" fill="#FF5D5D" stroke="white" stroke-width="0.858071" stroke-miterlimit="10" stroke-linecap="round" stroke-linejoin="round"/>
<path d="M39.4606 20.0401C37.7397 26.9588 42.7177 27.1908 44.5597 26.0382C47.4671 24.2193 47.6866 20.3375 47.2231 20.3375C46.457 20.3375 43.1434 26.6482 48.6455 26.9619C54.1497 27.2756 55.0881 20.3998 54.521 20.3998C53.7497 20.3998 49.5275 27.6741 56.5198 26.9272C63.1275 26.2221 61.9409 15.2079 61.9409 15.2079C65.4289 11.1677 64.0977 6.7565 61.1174 6.7565C56.0798 6.7565 52.1581 13.382 53.1221 13.4177C54.7302 13.478 55.7383 6.48572 51.833 6.48572C47.1646 6.48572 40.6533 15.2437 39.4595 20.0391L39.4606 20.0401Z" fill="#FF5D5D" stroke="white" stroke-width="0.858071" stroke-miterlimit="10" stroke-linecap="round" stroke-linejoin="round"/>
<path d="M22.5702 4.53705C22.2728 3.84091 21.438 2.68596 19.996 1.86326C19.1879 1.40148 18.0029 0.760718 15.4831 1.09099C13.4935 1.35204 12.027 2.08871 11.0568 2.73639C11.0066 2.31318 10.2538 1.42882 9.2693 1.42882C7.5761 1.42882 5.12129 3.41995 3.69268 5.99584C0.571906 11.6262 0.936625 17.7603 1.10994 20.1048C1.4812 25.1122 4.18659 26.9854 5.74647 26.9854C8.14115 26.9854 9.43145 24.7093 9.69912 23.0184C9.91654 21.6449 9.90689 20.1253 9.59204 18.8665C10.6596 18.9733 12.0537 19.4054 13.9858 18.8665C16.8451 18.0686 18.8798 15.6356 19.7013 14.805C23.0374 11.6962 23.8973 7.64691 22.5702 4.53705ZM13.9858 10.0903C12.6105 11.175 11.2947 11.8188 11.0476 11.5281C10.8004 11.2373 11.7152 10.121 13.0905 9.03621C14.4658 7.95147 15.7816 7.30774 16.0287 7.59846C16.2113 7.81325 15.3611 9.00556 13.9858 10.0903Z" fill="#FF5D5D" stroke="white" stroke-width="0.858071" stroke-miterlimit="10" stroke-linecap="round" stroke-linejoin="round"/>
<path d="M9.69938 19.2817C9.69938 19.2817 9.27034 16.7906 7.5542 15.1299L9.69938 19.2817Z" fill="#FF5D5D"/>
<path d="M9.69938 19.2817C9.69938 19.2817 9.27034 16.7906 7.5542 15.1299" stroke="white" stroke-width="0.858071" stroke-miterlimit="10" stroke-linecap="round" stroke-linejoin="round"/>
<path d="M66.6982 18.6465C66.6982 20.0381 72.7183 16.6028 70.5133 14.2905C68.9042 12.6035 65.0448 13.8763 62.4706 15.1634C62.4706 15.1634 60.4905 15.411 60.3254 17.7376C60.2095 19.3756 62.3947 19.8859 62.4706 19.8828C60.04 20.3334 59.0773 22.3955 58.907 23.6616C58.5132 26.6023 61.6166 26.867 63.1406 26.1078C63.1406 26.1078 68.214 28.5234 70.338 25.3486C72.2004 22.5641 69.1278 21.7692 67.6284 22.1431C66.6121 22.3966 65.766 22.7337 66.1885 23.0709C66.7495 23.5185 71.0025 22.3424 71.0025 19.3945C71.0025 16.4465 66.6972 17.7749 66.6972 18.6475L66.6982 18.6465Z" fill="#FF5D5D" stroke="white" stroke-width="0.858071" stroke-miterlimit="10" stroke-linecap="round" stroke-linejoin="round"/>
<path d="M26.8319 3.72542C23.0906 2.56534 20.3512 8.677 23.5541 9.48291C28.5769 10.8731 29.864 4.66559 26.8319 3.72542Z" fill="#FF5D5D" stroke="white" stroke-width="0.858071" stroke-miterlimit="10" stroke-linecap="round" stroke-linejoin="round"/>
<path d="M19.723 13.3019C18.0645 15.3327 17.0462 17.8325 16.7881 19.006C16.1913 19.4704 15.1577 20.6285 14.6916 22.2655C13.8493 25.2272 15.1356 26.3018 16.1258 26.637C17.3955 27.0666 19.9476 26.261 20.5581 23.8782C21.6653 22.8131 22.8226 22.105 24.1026 19.8832C26.2273 16.1945 28.1478 11.7311 24.7155 10.873C23.016 10.6781 21.0576 11.6679 19.723 13.3019Z" fill="#FF5D5D" stroke="white" stroke-width="0.858071" stroke-miterlimit="10" stroke-linecap="round" stroke-linejoin="round"/>
<path d="M28.8846 19.2095C29.8691 17.7188 30.8435 17.4935 31.6061 17.4935C32.5133 18.3515 34.1095 18.589 34.6679 18.024C36.1421 17.0645 36.3658 14.4572 34.7503 13.2648C33.4026 12.2707 30.9573 11.5565 28.431 12.8939C22.8146 15.8661 20.9931 24.654 25.6553 26.3419C32.4383 28.4635 35.4415 22.457 33.1109 20.5988C32.6241 20.0195 31.1289 19.8284 30.3157 20.7888C28.8846 22.028 27.8633 20.7554 28.8846 19.2095Z" fill="#FF5D5D" stroke="white" stroke-width="0.858071" stroke-miterlimit="10" stroke-linecap="round" stroke-linejoin="round"/>
</svg>
