<svg width="121" height="120" viewBox="0 0 121 120" fill="none" xmlns="http://www.w3.org/2000/svg">
<path d="M0.753755 58.0814C-0.0272934 58.8625 -0.0272934 60.1288 0.753755 60.9098L13.4817 73.6378C14.2627 74.4188 15.5291 74.4188 16.3101 73.6378C17.0912 72.8567 17.0912 71.5904 16.3101 70.8093L4.9964 59.4956L16.3101 48.1819C17.0912 47.4009 17.0912 46.1345 16.3101 45.3535C15.5291 44.5725 14.2627 44.5725 13.4817 45.3535L0.753755 58.0814ZM119.582 60.9098C120.363 60.1288 120.363 58.8625 119.582 58.0814L106.854 45.3535C106.073 44.5725 104.807 44.5725 104.026 45.3535C103.245 46.1345 103.245 47.4009 104.026 48.1819L115.34 59.4956L104.026 70.8093C103.245 71.5904 103.245 72.8567 104.026 73.6378C104.807 74.4188 106.073 74.4188 106.854 73.6378L119.582 60.9098ZM2.16797 61.4956H118.168V57.4956H2.16797V61.4956Z" fill="white"/>
<path d="M59.2577 119.414C60.0387 120.195 61.305 120.195 62.0861 119.414L74.814 106.686C75.5951 105.905 75.5951 104.639 74.814 103.858C74.033 103.077 72.7666 103.077 71.9856 103.858L60.6719 115.172L49.3582 103.858C48.5771 103.077 47.3108 103.077 46.5297 103.858C45.7487 104.639 45.7487 105.905 46.5297 106.686L59.2577 119.414ZM62.0861 0.585792C61.305 -0.195259 60.0387 -0.195259 59.2577 0.585793L46.5297 13.3137C45.7487 14.0948 45.7487 15.3611 46.5297 16.1421C47.3108 16.9232 48.5771 16.9232 49.3582 16.1421L60.6719 4.82843L71.9856 16.1421C72.7666 16.9232 74.033 16.9232 74.814 16.1421C75.5951 15.3611 75.5951 14.0948 74.814 13.3137L62.0861 0.585792ZM62.6719 118L62.6719 2.00001L58.6719 2.00001L58.6719 118L62.6719 118Z" fill="white"/>
</svg>
