<svg width="95" height="33" viewBox="0 0 95 33" fill="none" xmlns="http://www.w3.org/2000/svg">
<path d="M78.1579 30.7966L78.1581 30.7967C79.3666 31.2659 80.5038 30.9983 81.4154 30.3622C82.3064 29.7406 82.994 28.7659 83.4239 27.7435C83.8531 26.7225 84.0578 25.5763 83.899 24.5732C83.7369 23.5501 83.1729 22.6062 82.0364 22.2469L81.8326 22.8914L82.0364 22.2469C80.8377 21.8679 79.7314 22.1636 78.8467 22.797C77.9787 23.4186 77.313 24.367 76.8966 25.3636C76.4808 26.3589 76.2849 27.4706 76.4305 28.4533C76.578 29.449 77.0973 30.3845 78.1579 30.7966Z" fill="#FF5D5D" stroke="white" stroke-width="1.35177" stroke-miterlimit="10"/>
<path d="M91.5184 2.13946L91.7698 1.51204C90.8602 1.14769 89.6385 1.32512 88.5978 1.93232C87.5658 2.53442 86.6438 3.59143 86.2459 5.1277C86.043 5.34555 85.833 5.5573 85.6167 5.77536C84.6798 6.72014 83.6253 7.78352 82.519 9.97643L82.5189 9.97647C81.3683 12.2575 80.3913 15.087 80.0686 17.4272C79.9084 18.5888 79.899 19.6993 80.1614 20.5773C80.4342 21.4903 81.0385 22.233 82.0892 22.3801C82.7161 22.4678 83.3248 22.2967 83.8713 22.0172C84.4184 21.7374 84.946 21.3275 85.4362 20.869C86.4158 19.9526 87.3301 18.7609 88.0405 17.7659L88.8035 16.6973H88.7436C89.975 14.6674 90.531 12.7926 90.7997 11.5153C91.5045 10.872 92.7953 9.56112 93.3037 7.54128C93.7708 5.68617 93.7746 4.33619 93.4518 3.35554C93.117 2.3381 92.4524 1.78476 91.7692 1.51181L91.5184 2.13946ZM91.5184 2.13946C92.5519 2.55232 93.552 3.7873 92.6482 7.37632L83.1224 10.2809C84.1766 8.19129 85.1474 7.21122 86.075 6.27471C86.3404 6.00684 86.6022 5.74254 86.8614 5.45686C87.5166 2.56922 90.1924 1.60829 91.5184 2.13946Z" fill="#FF5D5D" stroke="white" stroke-width="1.35177" stroke-miterlimit="10"/>
<path d="M34.8497 30.7287L34.8497 30.7287C36.5344 31.2872 37.8644 30.0636 38.4164 28.9072C38.7027 28.3074 38.8515 27.6067 38.7308 26.9673C38.6022 26.2866 38.1607 25.6887 37.3605 25.4734L37.3604 25.4734C35.7046 25.028 34.425 26.1935 33.8842 27.3335C33.6058 27.92 33.464 28.5998 33.5746 29.2247C33.691 29.8821 34.0957 30.4788 34.8497 30.7287Z" fill="#FF5D5D" stroke="white" stroke-width="1.35177" stroke-miterlimit="10" stroke-linecap="round"/>
<path d="M42.2613 22.7381C40.4509 30.3028 45.688 30.5564 47.6257 29.2962C50.6845 27.3076 50.9154 23.0633 50.4277 23.0633C49.6217 23.0633 46.1357 29.9632 51.9241 30.3062C57.7147 30.6491 58.7019 23.1314 58.1053 23.1314C57.2939 23.1314 52.852 31.0849 60.2081 30.2682C67.1596 29.4973 65.9113 17.4548 65.9113 17.4548C69.5807 13.0374 68.1803 8.21434 65.0449 8.21434C59.7453 8.21434 55.6195 15.4584 56.6336 15.4975C58.3254 15.5634 59.386 7.91827 55.2774 7.91827C50.3662 7.91827 43.5161 17.4939 42.2602 22.737L42.2613 22.7381Z" fill="#FF5D5D" stroke="white" stroke-width="1.35177" stroke-miterlimit="10" stroke-linecap="round"/>
<path d="M22.831 7.65141C22.5306 6.89635 21.7434 5.70584 20.2871 4.81349C19.4709 4.31262 17.7236 3.55542 15.1787 3.91364C13.1693 4.19679 11.6882 4.99582 10.7083 5.69833C10.6576 5.23929 10.2806 4.17105 9.28623 4.17105C7.57617 4.17105 5.65171 6.71294 4.20889 9.50689C1.05704 15.6139 0.8706 21.885 1.04565 24.4279C1.42059 29.8592 3.76972 32 5.34512 32C7.76365 32 8.63266 29.3594 8.90299 27.5254C9.12258 26.0357 9.07493 24.0686 8.75695 22.7033C9.83519 22.8191 11.9295 22.8867 13.8809 22.3022C16.7686 21.4366 18.6092 19.6895 19.4388 18.7886C22.8082 15.4165 24.1723 11.0245 22.832 7.65141H22.831ZM13.6665 13.6747C12.2775 14.8513 10.9486 15.5495 10.699 15.2342C10.4494 14.9189 11.3733 13.708 12.7623 12.5314C14.1512 11.3549 15.4801 10.6566 15.7297 10.972C15.9794 11.2873 15.0555 12.4982 13.6665 13.6747Z" fill="#FF5D5D" stroke="white" stroke-width="1.35177" stroke-miterlimit="10" stroke-linecap="round"/>
<path d="M8.94496 23.6245C8.94496 23.6245 8.47161 21.1963 7.46484 19.506L8.94496 23.6245Z" fill="#FF5D5D"/>
<path d="M8.94496 23.6245C8.94496 23.6245 8.47161 21.1963 7.46484 19.506" stroke="white" stroke-width="1.35177" stroke-miterlimit="10" stroke-linecap="round"/>
<path d="M70.0119 21.271C70.0119 21.9004 76.3452 19.0366 74.0255 16.5083C72.3326 14.6638 67.5174 15.9609 66.2702 18.0825C66.2702 18.0825 63.4197 17.9897 63.246 20.5336C63.124 22.3245 65.7242 22.6251 65.8041 22.6217C63.3242 22.9275 61.9944 25.3701 61.8153 26.7543C61.401 29.9696 64.6658 30.259 66.2691 29.4289C66.2691 29.4289 71.6065 32.07 73.841 28.5988C75.8003 25.5544 72.5679 24.6852 70.9905 25.0941C69.9213 25.3712 69.5674 25.2603 70.0119 25.629C70.6021 26.1183 74.5401 25.312 74.5401 22.0888C74.5401 18.8656 69.8464 21.5768 70.0108 21.2721L70.0119 21.271Z" fill="#FF5D5D" stroke="white" stroke-width="1.35177" stroke-miterlimit="10" stroke-linecap="round" stroke-linejoin="round"/>
<path d="M28.3891 3.35587L28.3889 3.35582C27.2687 2.93078 26.2183 3.1854 25.3818 3.77534C24.5658 4.35088 23.9414 5.24654 23.5542 6.18119C23.1676 7.11426 22.9852 8.16375 23.1374 9.08442C23.293 10.0256 23.8221 10.8998 24.8829 11.2264L24.8829 11.2264C25.9928 11.5681 27.0134 11.2881 27.8247 10.701C28.6195 10.1258 29.224 9.25421 29.5992 8.34291C29.9739 7.43311 30.1483 6.41515 30.0086 5.51343C29.8668 4.59817 29.3797 3.732 28.3891 3.35587Z" fill="#FF5D5D" stroke="white" stroke-width="1.35177" stroke-miterlimit="10" stroke-linecap="round"/>
<path d="M19.0664 16.5393C17.2525 18.725 16.575 20.7994 16.2928 22.0624C15.6401 22.5622 14.2489 23.6711 13.7392 25.4329C12.818 28.6205 13.8722 29.709 14.9551 30.0697C16.3438 30.5321 19.1348 29.6651 19.8024 27.1005C21.0133 25.9542 22.2789 25.1921 23.6788 22.8009C26.0023 18.831 27.5713 12.9997 24.5851 12.6614C22.7265 12.4516 20.526 14.7797 19.0664 16.5383V16.5393Z" fill="#FF5D5D" stroke="white" stroke-width="1.35177" stroke-miterlimit="10" stroke-linecap="round"/>
<path d="M29.0903 21.8365C30.1914 20.2144 31.9908 19.843 32.3813 19.9798C33.4835 21.8276 35.0271 21.3184 35.6516 20.7036C36.726 19.6462 37.5505 16.8223 35.7438 15.5248C34.2365 14.4431 31.8938 13.6659 29.0685 15.1213C22.7873 18.3555 20.7502 27.918 25.9643 29.7547C32.2321 31.9616 35.2769 25.0862 33.9104 23.5053C33.3659 22.8749 31.6938 22.667 30.7843 23.7121C29.408 25.8122 27.9481 23.5175 29.0903 21.8354V21.8365Z" fill="#FF5D5D" stroke="white" stroke-width="1.35177" stroke-miterlimit="10" stroke-linecap="round" stroke-linejoin="round"/>
</svg>
