<svg width="157" height="48" viewBox="0 0 157 48" fill="none" xmlns="http://www.w3.org/2000/svg">
<rect width="157" height="48" rx="24" fill="#FF5D5D"/>
<path d="M24.999 42.833C35.4008 42.833 43.833 34.4008 43.833 23.999C43.833 13.5973 35.4008 5.16504 24.999 5.16504C14.5973 5.16504 6.16504 13.5973 6.16504 23.999C6.16504 34.4008 14.5973 42.833 24.999 42.833Z" fill="#3973CB" stroke="white" stroke-width="0.703704" stroke-miterlimit="10"/>
<path d="M20.6275 7.73413V11.4565C20.6275 12.0143 20.6216 12.3736 20.6099 12.5356C20.5981 12.6977 20.5465 12.855 20.4537 13.0077C20.3609 13.1603 20.2365 13.2836 20.0791 13.3776C19.9218 13.4727 19.6857 13.5666 19.3722 13.6699C19.1362 13.7486 18.9014 13.832 18.6665 13.9201V12.9466C18.751 12.9219 18.8121 12.9032 18.8497 12.8891C18.9495 12.8527 19.0293 12.7998 19.0869 12.7282C19.1444 12.6577 19.1785 12.5838 19.1879 12.5074C19.1961 12.4311 19.2008 12.2867 19.2008 12.0765V8.15921C19.6717 7.99834 20.1472 7.85625 20.6263 7.73413H20.6275Z" fill="white"/>
<path d="M24.5101 7.17896V10.9013C24.5101 11.3229 24.496 11.62 24.4678 11.7926C24.4396 11.964 24.3574 12.1425 24.22 12.3304C24.0826 12.5171 23.9018 12.665 23.6775 12.7754C23.4532 12.8858 23.189 12.9586 22.8849 12.9962C22.5491 13.0384 22.2532 13.029 21.9972 12.9633C21.7412 12.8975 21.551 12.793 21.4242 12.6427C21.2973 12.4924 21.2234 12.3221 21.201 12.1319C21.1776 11.9405 21.167 11.5307 21.167 10.9025V7.60638C21.6484 7.49952 22.1346 7.41146 22.6207 7.34335V11.5201C22.6207 11.7632 22.6336 11.917 22.6606 11.9804C22.6876 12.045 22.7417 12.0709 22.8227 12.0603C22.9154 12.0486 22.9753 12.0039 23.0012 11.9264C23.0282 11.8489 23.0411 11.6716 23.0411 11.3933V7.28933C23.5296 7.23297 24.0192 7.19539 24.5101 7.17896Z" fill="white"/>
<path d="M28.1873 9.10606C27.7364 9.03091 27.2831 8.9722 26.8287 8.92993V8.51659C26.8287 8.32402 26.8111 8.19955 26.7758 8.14436C26.7406 8.08799 26.6831 8.05746 26.6009 8.05042C26.5128 8.04337 26.4459 8.0739 26.4001 8.14201C26.3543 8.21012 26.332 8.31697 26.332 8.4614C26.332 8.64693 26.3578 8.78902 26.4083 8.88648C26.4565 8.98394 26.5962 9.10724 26.8228 9.25989C27.4757 9.70376 27.8855 10.0854 28.0534 10.3566C28.2213 10.6291 28.3059 11.04 28.3059 11.5861C28.3059 11.983 28.2589 12.2671 28.1662 12.4397C28.0722 12.6124 27.8926 12.7404 27.6236 12.8308C27.3547 12.9212 27.0412 12.9482 26.6843 12.9188C26.2909 12.886 25.955 12.7967 25.6768 12.6417C25.3985 12.4867 25.2153 12.3 25.1296 12.0734C25.0438 11.8468 25.0004 11.525 25.0004 11.107V10.7418C25.456 10.7383 25.9116 10.7512 26.3672 10.7817V11.4593C26.3672 11.6683 26.386 11.8033 26.4247 11.8655C26.4635 11.9278 26.5316 11.963 26.6291 11.97C26.7265 11.9783 26.7993 11.9466 26.8475 11.8749C26.8956 11.8033 26.9191 11.6941 26.9191 11.545C26.9191 11.2174 26.8733 10.9978 26.7829 10.8886C26.6901 10.7794 26.4611 10.5903 26.0948 10.3343C25.7296 10.0772 25.4865 9.90103 25.3679 9.79182C25.2493 9.68262 25.1507 9.53349 25.072 9.34326C24.9933 9.15303 24.9546 8.91114 24.9546 8.61523C24.9546 8.18898 25.0098 7.87663 25.1202 7.67818C25.2305 7.48091 25.4102 7.32708 25.6568 7.22258C25.9034 7.11807 26.2028 7.07579 26.5516 7.10163C26.9332 7.13098 27.2573 7.22845 27.525 7.38462C27.7927 7.5408 27.9689 7.7228 28.0558 7.92125C28.1427 8.1197 28.1861 8.44144 28.1861 8.88296V9.10372L28.1873 9.10606Z" fill="white"/>
<path d="M31.6406 8.35215V9.46651C31.3635 9.362 31.084 9.26454 30.8033 9.17295V13.628C30.3301 13.4754 29.8534 13.3415 29.3731 13.2288V8.77371C29.0889 8.70678 28.8036 8.64572 28.5171 8.59287V7.47852C29.5763 7.67579 30.6213 7.967 31.6418 8.35215H31.6406Z" fill="white"/>
<path d="M32.6834 19.733C30.4013 18.5031 28.0563 18.6189 25.9142 19.5697C24.3182 17.7034 22.1441 16.5949 19.4296 16.9269C11.0654 17.9483 12.6725 35.1972 21.7956 38.3695C31.2981 38.6122 40.356 23.866 32.6834 19.733Z" fill="#FF5D5D" stroke="white" stroke-width="0.331675" stroke-miterlimit="10"/>
<path d="M32.3551 24.6958C32.3551 24.6958 31.6469 26.7121 34.3824 28.7284C34.3824 28.7284 31.1781 27.1688 30.5229 27.996" fill="#FF5D5D"/>
<path d="M32.3554 24.6958C32.1414 25.8815 32.7724 27.0265 33.5886 27.8394C33.8643 28.114 34.1633 28.3666 34.4798 28.5972C34.6376 28.7141 34.4887 28.9612 34.3122 28.8751C33.7033 28.595 33.0768 28.3291 32.4415 28.1129C31.9694 27.9607 31.4796 27.7986 30.9789 27.8206C30.8167 27.8317 30.648 27.8736 30.5244 27.996C30.5707 27.9243 30.638 27.8626 30.7141 27.8184C31.6682 27.3662 33.5379 28.1571 34.4545 28.5817L34.2868 28.8597C33.9614 28.6159 33.6482 28.3512 33.3724 28.049C32.5518 27.1831 31.9429 25.8871 32.3565 24.6958H32.3554Z" fill="white"/>
<path d="M38.239 35.2565C38.5691 34.5825 38.17 33.7097 37.3477 33.307C36.5254 32.9043 35.5913 33.1243 35.2612 33.7984C34.9311 34.4724 35.3302 35.3452 36.1525 35.7479C36.9748 36.1505 37.909 35.9306 38.239 35.2565Z" fill="#FF5D5D" stroke="white" stroke-width="0.331675" stroke-linejoin="round"/>
<path d="M29.6474 38.1062C29.8713 37.7184 29.6691 37.1826 29.1959 36.9093C28.7227 36.6361 28.1576 36.729 27.9337 37.1167C27.7098 37.5045 27.9119 38.0403 28.3852 38.3136C28.8584 38.5868 29.4235 38.4939 29.6474 38.1062Z" fill="#FF5D5D" stroke="white" stroke-width="0.331675" stroke-linejoin="round"/>
<path d="M38.7273 29.0556C38.9174 28.6168 38.6369 28.0729 38.1009 27.8407C37.5648 27.6084 36.9761 27.7759 36.786 28.2147C36.596 28.6536 36.8765 29.1975 37.4125 29.4297C37.9486 29.6619 38.5373 29.4944 38.7273 29.0556Z" fill="#FF5D5D" stroke="white" stroke-width="0.331675" stroke-linejoin="round"/>
<path d="M31.5026 37.0681C31.6044 36.8602 31.4811 36.5909 31.2272 36.4666C30.9734 36.3423 30.6851 36.41 30.5833 36.6179C30.4815 36.8258 30.6047 37.0952 30.8586 37.2195C31.1124 37.3438 31.4008 37.276 31.5026 37.0681Z" fill="#FF5D5D" stroke="white" stroke-width="0.331675" stroke-linejoin="round"/>
<path d="M31.4616 29.1743C31.4616 29.1743 32.7863 32.0786 34.764 33.2125C34.764 33.2125 30.1413 30.713 30.4744 31.6793C30.6817 32.2804 32.2745 33.3845 32.2745 33.3845C32.2745 33.3845 29.3405 31.8072 28.5981 32.7911" fill="#FF5D5D"/>
<path d="M31.4619 29.1742C32.1006 30.3169 32.8572 31.4155 33.8125 32.3134C34.129 32.6035 34.4688 32.8693 34.8416 33.0789C34.9155 33.1208 34.9419 33.2157 34.9 33.2896C34.8581 33.3635 34.7644 33.3899 34.6905 33.3491C34.1511 33.0679 33.6062 32.7888 33.0558 32.5263C32.5054 32.2671 31.9506 32.0079 31.3869 31.8005C31.141 31.7211 30.8509 31.5975 30.5994 31.6229C30.5939 31.624 30.5939 31.6251 30.5994 31.6218C30.6038 31.6185 30.6126 31.6075 30.6148 31.5997C30.6589 31.7542 30.8288 31.967 30.9689 32.1126C31.3825 32.5428 31.8656 32.9267 32.3455 33.284C32.4701 33.3712 32.3532 33.562 32.2186 33.4903C31.9362 33.337 31.6417 33.1925 31.3461 33.0601C30.6137 32.7634 29.8151 32.3917 29.0099 32.545C28.8544 32.5836 28.7055 32.663 28.5996 32.7899C28.6923 32.6531 28.839 32.5561 28.9967 32.5009C29.9993 32.2207 31.4222 32.8439 32.3333 33.2752L32.2065 33.4815C31.8546 33.241 29.6309 31.72 30.5012 31.3174C30.8619 31.2435 31.1674 31.3935 31.4961 31.4927C32.084 31.7045 32.6433 31.9604 33.1981 32.2296C33.7507 32.4998 34.2989 32.7767 34.8383 33.0734L34.6872 33.3436C33.165 32.3983 32.159 30.7802 31.4608 29.1709L31.4619 29.1742Z" fill="white"/>
<path d="M28.1048 32.1919C28.1048 32.1919 27.7044 33.2773 29.8796 35.2329C29.8796 35.2329 27.0151 33.4957 25.8062 35.2296" fill="#FF5D5D"/>
<path d="M28.1048 32.1919C28.0409 33.0611 28.7832 33.8905 29.338 34.4906C29.5476 34.7035 29.7627 34.9119 29.9877 35.1116C30.1333 35.2428 29.9623 35.4745 29.7947 35.3719C28.6244 34.7399 26.8518 34.0218 25.8062 35.2285C26.6864 33.7471 28.7589 34.3957 29.9645 35.0928L29.7715 35.3531C29.5443 35.1447 29.3226 34.9285 29.1185 34.6946C28.5692 34.0604 27.8545 33.0721 28.107 32.1919H28.1048Z" fill="white"/>
<path d="M14.1836 16.1094C14.1836 16.1094 15.3495 12.5036 15.2403 11.2473C15.2403 11.2473 15.4079 15.5248 17.2147 14.2519C17.2147 14.2519 16.8132 17.1253 18.2041 15.8083C18.2041 15.8083 17.8467 18.2515 19.1626 17.1275L17.9614 20.3406" fill="#FFFDC2"/>
<path d="M14.1836 16.1094C14.1836 16.1094 15.3495 12.5036 15.2403 11.2473C15.2403 11.2473 15.4079 15.5248 17.2147 14.2519C17.2147 14.2519 16.8132 17.1253 18.2041 15.8083C18.2041 15.8083 17.8467 18.2515 19.1626 17.1275L17.9614 20.3406" stroke="white" stroke-width="0.331675" stroke-miterlimit="10"/>
<path d="M13.8671 16.7605C13.8671 16.7605 10.162 17.5547 8.92334 17.3186C8.92334 17.3186 13.1611 17.9187 11.7129 19.5875C11.7129 19.5875 14.6127 19.4794 13.1611 20.7303C13.1611 20.7303 15.6275 20.6222 14.3766 21.8178L17.6945 20.9486" fill="#FFFDC2"/>
<path d="M13.8671 16.7605C13.8671 16.7605 10.162 17.5547 8.92334 17.3186C8.92334 17.3186 13.1611 17.9187 11.7129 19.5875C11.7129 19.5875 14.6127 19.4794 13.1611 20.7303C13.1611 20.7303 15.6275 20.6222 14.3767 21.8178L17.6945 20.9486" stroke="white" stroke-width="0.331675" stroke-miterlimit="10"/>
<path d="M24.2742 28.5738C24.0944 28.5914 23.9091 28.5131 23.78 28.3675L13.6742 16.8939C13.4646 16.6568 13.4679 16.3127 13.6808 16.1251C13.8937 15.9376 14.2345 15.9784 14.4441 16.2156L24.5499 27.6892C24.8499 28.03 24.6933 28.5319 24.2742 28.5727V28.5738Z" fill="#FFFDC2" stroke="white" stroke-width="0.331675" stroke-miterlimit="10"/>
<path d="M17.2145 14.2522L15.999 17.9826" stroke="white" stroke-width="0.331675" stroke-miterlimit="10"/>
<path d="M18.2043 15.8081L17.1509 19.2892" stroke="white" stroke-width="0.331675" stroke-miterlimit="10"/>
<path d="M11.7129 19.5875L15.4234 18.8794" stroke="white" stroke-width="0.331675" stroke-miterlimit="10"/>
<path d="M13.1611 20.7303L16.4713 20.0696" stroke="white" stroke-width="0.331675" stroke-miterlimit="10"/>
<path d="M25.8262 28.4058H22.1763V31.074H25.8262V28.4058Z" fill="#FF5D5D"/>
<path d="M20.4907 27.3366C20.4907 27.3366 22.3956 26.5347 22.7243 28.4594L20.4907 27.3366Z" fill="#FF5D5D"/>
<path d="M20.4907 27.3369C21.4713 26.6376 22.839 27.1549 22.7243 28.4598C22.6151 28.2293 22.5081 28.0131 22.3703 27.8333C21.9335 27.2366 21.1658 27.2708 20.4918 27.3369H20.4907Z" fill="white"/>
<path d="M21.2344 30.0464C21.2344 30.0464 21.8454 27.2127 24.3195 28.3841L21.2344 30.0464Z" fill="#FF5D5D"/>
<path d="M21.2344 30.046C21.3447 28.3915 22.8613 27.3238 24.3195 28.3838C22.676 27.9084 21.9094 28.6011 21.2344 30.046Z" fill="white"/>
<path d="M24.2224 30.274C24.2224 30.274 22.1234 24.9498 27.4708 24.1655L24.2224 30.274Z" fill="#FF5D5D"/>
<path d="M24.2226 30.2739C23.3236 28.3911 23.4096 25.7449 25.4701 24.6827C26.0966 24.3551 26.7871 24.1952 27.4709 24.1643C26.8069 24.3309 26.1628 24.5581 25.5991 24.9055C23.7339 26.0284 23.7405 28.3822 24.2226 30.2728V30.2739Z" fill="white"/>
<path d="M12.7452 28.4996C13.0408 30.7685 13.7501 33.0198 15.1079 34.8806C15.2877 35.153 15.5204 35.4023 15.7145 35.6648C15.4686 35.4508 15.1983 35.2302 14.9821 34.9832L14.6479 34.607C14.5012 34.4162 14.3457 34.1934 14.2023 33.9971C14.0788 33.7853 13.9343 33.5592 13.8184 33.3452C13.7434 33.1853 13.5537 32.8235 13.4942 32.6624C12.946 31.3576 12.6448 29.9159 12.7452 28.4985V28.4996Z" fill="white"/>
<path d="M12.1299 31.3452C12.5954 33.0097 13.3796 34.5395 14.4661 35.883C13.0554 34.8947 12.1222 33.067 12.1299 31.3452Z" fill="white"/>
<path d="M37.2832 21.0512C36.9026 19.7916 36.1636 18.7007 35.0397 18.0036C34.8841 17.8944 34.7121 17.8172 34.5532 17.708C34.7396 17.7499 34.9338 17.7874 35.1125 17.858C36.3997 18.3279 37.335 19.6769 37.2832 21.0501V21.0512Z" fill="white"/>
<path d="M36.5979 21.7005C36.6045 21.47 36.481 21.2516 36.3928 21.0431C36.1964 20.6273 35.9504 20.2357 35.6604 19.8805C34.9412 18.9672 33.9209 18.3793 32.7837 18.1334C34.2573 18.033 35.6593 19.0036 36.2847 20.3118C36.4435 20.6372 36.5681 20.9824 36.6167 21.342C36.6266 21.46 36.6498 21.5902 36.5979 21.7005Z" fill="white"/>
<path d="M64.8984 19.75C64.8984 20.5677 64.888 21.276 64.8672 21.875C64.8516 22.4688 64.8073 23.1589 64.7344 23.9453C64.6615 24.7318 64.5443 25.5885 64.3828 26.5156L62.8672 26.375C63.0391 25.5052 63.1667 24.6849 63.25 23.9141C63.3333 23.1432 63.3828 22.4583 63.3984 21.8594C63.4193 21.2604 63.4297 20.5573 63.4297 19.75V19.4688H55.1797V18.25H64.8984V19.75ZM53.8047 27.6094H66.5703V28.8438H53.8047V27.6094ZM80.6328 20.0625H78.6328V21.8125H80.6328V23.0625H78.6328V25.1094H77.1484V16.8281H78.6328V18.8438H80.6328V20.0625ZM68.2734 17.6562H69.7578V22.75C71.8776 22.7344 73.888 22.5365 75.7891 22.1562L75.9766 23.3594C74.8516 23.5833 73.75 23.7448 72.6719 23.8438C71.599 23.9375 70.513 23.9844 69.4141 23.9844H68.2734V17.6562ZM69.3984 28.0469C69.3984 27.4896 69.5911 27.0026 69.9766 26.5859C70.362 26.1641 70.9089 25.8411 71.6172 25.6172C72.3255 25.3932 73.1536 25.2812 74.1016 25.2812C75.0391 25.2812 75.8594 25.3932 76.5625 25.6172C77.2656 25.8411 77.8073 26.1641 78.1875 26.5859C78.5677 27.0026 78.7578 27.4896 78.7578 28.0469C78.7578 28.6198 78.5677 29.1146 78.1875 29.5312C77.8073 29.9479 77.2656 30.2682 76.5625 30.4922C75.8646 30.7161 75.0443 30.8281 74.1016 30.8281C73.1536 30.8281 72.3255 30.7161 71.6172 30.4922C70.9089 30.2682 70.362 29.9479 69.9766 29.5312C69.5911 29.1146 69.3984 28.6198 69.3984 28.0469ZM70.8516 28.0469C70.8516 28.3698 70.9818 28.651 71.2422 28.8906C71.5026 29.1302 71.8776 29.3151 72.3672 29.4453C72.8568 29.5703 73.4349 29.6354 74.1016 29.6406C74.7526 29.6354 75.3177 29.5703 75.7969 29.4453C76.2812 29.3151 76.6536 29.1302 76.9141 28.8906C77.1745 28.651 77.3047 28.3698 77.3047 28.0469C77.3047 27.7188 77.1745 27.4401 76.9141 27.2109C76.6536 26.9766 76.2812 26.7995 75.7969 26.6797C75.3177 26.5547 74.7526 26.4896 74.1016 26.4844C73.4297 26.4896 72.849 26.5547 72.3594 26.6797C71.875 26.7995 71.5026 26.9766 71.2422 27.2109C70.9818 27.4401 70.8516 27.7188 70.8516 28.0469ZM98.1641 23.1094H85.3672V21.9062H89.125C89.3073 21.2396 89.4349 20.638 89.5078 20.1016C89.5807 19.5599 89.625 19.0417 89.6406 18.5469H86.4766V17.3281H91.1016V17.9531C91.1016 18.5833 91.0729 19.2057 91.0156 19.8203C90.9635 20.4297 90.8359 21.125 90.6328 21.9062H94.6406C94.9427 20.7656 95.1042 19.6458 95.125 18.5469H92.0078V17.3281H96.5703V17.9219C96.5651 18.5781 96.5365 19.2083 96.4844 19.8125C96.4375 20.4167 96.3229 21.1146 96.1406 21.9062H98.1641V23.1094ZM86.8672 24.4062H96.5391V28H88.3828V29.4688H96.9766V30.6406H86.8984V26.8906H95.0547V25.5781H86.8672V24.4062ZM110.852 30.8594H109.383V25H106.648V23.7656H109.383V21.1719H106.727V19.9531H109.383V16.8281H110.852V30.8594ZM99.6797 18.0625H105.883V23.1719H101.195V26.3906C102.227 26.3854 103.185 26.3542 104.07 26.2969C104.956 26.2396 105.878 26.1406 106.836 26L106.961 27.2188C105.94 27.3802 104.958 27.4896 104.016 27.5469C103.078 27.599 101.997 27.625 100.773 27.625H99.7109V22H104.43V19.2656H99.6797V18.0625ZM125.836 29.0781H113.023V27.8438H116.086V24.1875C115.497 23.8646 115.042 23.4557 114.719 22.9609C114.396 22.4661 114.237 21.9115 114.242 21.2969C114.242 20.5729 114.461 19.9349 114.898 19.3828C115.336 18.8307 115.945 18.4036 116.727 18.1016C117.513 17.7943 118.404 17.6406 119.398 17.6406C120.393 17.6406 121.284 17.7943 122.07 18.1016C122.857 18.4036 123.469 18.8307 123.906 19.3828C124.349 19.9349 124.57 20.5729 124.57 21.2969C124.57 21.9062 124.414 22.4557 124.102 22.9453C123.789 23.4297 123.346 23.8333 122.773 24.1562V27.8438H125.836V29.0781ZM115.68 21.2969C115.68 21.7917 115.836 22.2266 116.148 22.6016C116.461 22.9766 116.898 23.2682 117.461 23.4766C118.023 23.6797 118.669 23.7812 119.398 23.7812C120.122 23.7812 120.766 23.6771 121.328 23.4688C121.896 23.2604 122.339 22.9714 122.656 22.6016C122.974 22.2266 123.133 21.7917 123.133 21.2969C123.133 20.8021 122.974 20.3698 122.656 20C122.339 19.625 121.896 19.3359 121.328 19.1328C120.766 18.9297 120.122 18.8281 119.398 18.8281C118.669 18.8281 118.023 18.9297 117.461 19.1328C116.898 19.3359 116.461 19.625 116.148 20C115.836 20.3698 115.68 20.8021 115.68 21.2969ZM121.273 27.8438V24.7344C120.69 24.8698 120.065 24.9375 119.398 24.9375C118.742 24.9375 118.128 24.8698 117.555 24.7344V27.8438H121.273ZM129.289 26.2344H127.742L127.602 18.1875H129.43L129.289 26.2344ZM127.414 28.5156C127.414 28.3125 127.464 28.125 127.562 27.9531C127.661 27.7812 127.794 27.6458 127.961 27.5469C128.133 27.4427 128.32 27.3906 128.523 27.3906C128.721 27.3906 128.904 27.4401 129.07 27.5391C129.242 27.638 129.378 27.7734 129.477 27.9453C129.581 28.1172 129.633 28.3021 129.633 28.5C129.633 28.6979 129.581 28.8828 129.477 29.0547C129.378 29.2214 129.242 29.3568 129.07 29.4609C128.904 29.5599 128.721 29.6094 128.523 29.6094C128.326 29.6094 128.141 29.5599 127.969 29.4609C127.802 29.362 127.667 29.2292 127.562 29.0625C127.464 28.8958 127.414 28.7135 127.414 28.5156Z" fill="white"/>
</svg>
