<svg width="635" height="635" viewBox="0 0 635 635" fill="none" xmlns="http://www.w3.org/2000/svg">
<path d="M317.515 627.186C488.439 627.186 627 488.624 627 317.701C627 146.777 488.439 8.21582 317.515 8.21582C146.591 8.21582 8.03027 146.777 8.03027 317.701C8.03027 488.624 146.591 627.186 317.515 627.186Z" fill="#3973CB" stroke="white" stroke-width="15.5185" stroke-miterlimit="10"/>
<path d="M443.771 247.6C406.27 227.391 367.736 229.294 332.537 244.918C306.31 214.25 270.586 196.035 225.98 201.49C88.5381 218.274 114.946 501.713 264.858 553.841C421.006 557.828 569.848 315.515 443.771 247.6Z" fill="#FF5E67" stroke="white" stroke-width="7.31431" stroke-miterlimit="10"/>
<path d="M247.644 49.7988V107.255C247.644 115.865 247.553 121.411 247.372 123.912C247.19 126.413 246.393 128.842 244.961 131.198C243.529 133.555 241.608 135.458 239.179 136.908C236.75 138.376 233.107 139.826 228.268 141.421C224.625 142.635 221 143.922 217.375 145.281V130.256C218.68 129.875 219.622 129.585 220.202 129.368C221.743 128.806 222.975 127.99 223.864 126.885C224.752 125.797 225.277 124.655 225.422 123.477C225.549 122.299 225.622 120.07 225.622 116.825V56.3601C232.89 53.877 240.23 51.6838 247.625 49.7988H247.644Z" fill="white"/>
<path d="M307.566 41.2285V98.6849C307.566 105.192 307.348 109.777 306.913 112.442C306.478 115.088 305.209 117.843 303.089 120.743C300.968 123.625 298.177 125.909 294.715 127.612C291.253 129.316 287.175 130.44 282.481 131.02C277.297 131.672 272.729 131.527 268.778 130.512C264.827 129.497 261.891 127.884 259.933 125.564C257.976 123.244 256.834 120.616 256.489 117.68C256.127 114.726 255.964 108.4 255.964 98.703V47.826C263.395 46.1767 270.899 44.8173 278.403 43.766V108.237C278.403 111.989 278.602 114.363 279.019 115.342C279.436 116.339 280.269 116.737 281.52 116.574C282.952 116.393 283.876 115.704 284.275 114.508C284.692 113.312 284.891 110.575 284.891 106.279V42.9323C292.431 42.0623 299.989 41.4823 307.566 41.2285Z" fill="white"/>
<path d="M364.351 70.9734C357.391 69.8134 350.395 68.9072 343.38 68.2547V61.8747C343.38 58.9021 343.109 56.9809 342.565 56.129C342.021 55.259 341.133 54.7878 339.864 54.679C338.505 54.5703 337.472 55.0415 336.765 56.0928C336.058 57.144 335.714 58.7934 335.714 61.0228C335.714 63.8865 336.112 66.0797 336.892 67.584C337.635 69.0884 339.792 70.9915 343.29 73.3478C353.367 80.1991 359.693 86.0897 362.285 90.2766C364.877 94.4816 366.182 100.825 366.182 109.253C366.182 115.38 365.457 119.766 364.025 122.43C362.575 125.095 359.802 127.07 355.651 128.466C351.5 129.862 346.661 130.279 341.151 129.825C335.079 129.318 329.895 127.94 325.6 125.548C321.304 123.155 318.477 120.274 317.154 116.775C315.83 113.277 315.16 108.311 315.16 101.858V96.2216C322.192 96.1672 329.225 96.3666 336.257 96.8378V107.296C336.257 110.522 336.547 112.607 337.145 113.567C337.744 114.528 338.795 115.072 340.299 115.18C341.804 115.307 342.927 114.818 343.67 113.712C344.414 112.607 344.776 110.921 344.776 108.619C344.776 103.562 344.069 100.173 342.674 98.4872C341.242 96.8016 337.707 93.8835 332.052 89.9322C326.415 85.9628 322.664 83.2441 320.833 81.5584C319.002 79.8728 317.48 77.5709 316.265 74.6347C315.051 71.6984 314.453 67.9647 314.453 63.3972C314.453 56.8178 315.305 51.9965 317.009 48.9334C318.712 45.8884 321.485 43.514 325.292 41.9009C329.098 40.2877 333.72 39.6352 339.103 40.034C344.994 40.4871 349.996 41.9915 354.129 44.4021C358.261 46.8127 360.98 49.6221 362.321 52.6853C363.662 55.7484 364.333 60.7146 364.333 67.5297V70.9372L364.351 70.9734Z" fill="white"/>
<path d="M417.638 59.3366V76.5372C413.361 74.9241 409.047 73.4197 404.715 72.006V140.772C397.411 138.416 390.052 136.35 382.639 134.61V65.8435C378.253 64.8103 373.848 63.8678 369.426 63.0522V45.8516C385.775 48.8966 401.906 53.3916 417.656 59.3366H417.638Z" fill="white"/>
<path d="M438.37 329.15C438.37 329.15 426.734 362.283 471.684 395.415C471.684 395.415 419.031 369.787 408.265 383.38" fill="#FF5E67"/>
<path d="M438.371 329.15C434.854 348.635 445.222 367.449 458.634 380.807C463.166 385.32 468.078 389.47 473.279 393.259C475.871 395.18 473.424 399.24 470.524 397.826C460.519 393.222 450.224 388.854 439.784 385.302C432.027 382.8 423.979 380.136 415.751 380.499C413.086 380.68 410.313 381.369 408.283 383.38C409.044 382.202 410.15 381.187 411.401 380.462C427.079 373.031 457.801 386.027 472.863 393.005L470.108 397.572C464.761 393.567 459.613 389.217 455.082 384.25C441.597 370.022 431.592 348.725 438.389 329.15H438.371Z" fill="white"/>
<path d="M535.058 502.69C540.482 491.614 533.925 477.271 520.412 470.654C506.9 464.038 491.55 467.653 486.126 478.728C480.702 489.804 487.26 504.147 500.772 510.764C514.284 517.38 529.635 513.765 535.058 502.69Z" fill="#FF5E67" stroke="white" stroke-width="7.31431" stroke-linejoin="round"/>
<path d="M393.88 549.516C397.559 543.144 394.237 534.339 386.461 529.85C378.685 525.36 369.399 526.886 365.72 533.258C362.042 539.63 365.363 548.434 373.139 552.924C380.915 557.414 390.201 555.888 393.88 549.516Z" fill="#FF5E67" stroke="white" stroke-width="7.31431" stroke-linejoin="round"/>
<path d="M543.087 400.792C546.21 393.581 541.601 384.643 532.792 380.827C523.983 377.011 514.31 379.764 511.187 386.974C508.064 394.185 512.673 403.123 521.482 406.939C530.291 410.755 539.964 408.002 543.087 400.792Z" fill="#FF5E67" stroke="white" stroke-width="7.31431" stroke-linejoin="round"/>
<path d="M424.366 532.459C426.038 529.042 424.013 524.617 419.842 522.574C415.67 520.532 410.932 521.645 409.259 525.061C407.587 528.478 409.612 532.903 413.784 534.946C417.955 536.988 422.693 535.875 424.366 532.459Z" fill="#FF5E67" stroke="white" stroke-width="7.31431" stroke-linejoin="round"/>
<path d="M423.691 402.742C423.691 402.742 445.46 450.465 477.958 469.098C477.958 469.098 401.996 428.027 407.469 443.904C410.877 453.782 437.05 471.925 437.05 471.925C437.05 471.925 388.837 446.007 376.639 462.174" fill="#FF5E67"/>
<path d="M423.693 402.741C434.187 421.518 446.621 439.571 462.317 454.325C467.519 459.092 473.102 463.46 479.228 466.904C480.442 467.592 480.877 469.151 480.189 470.365C479.5 471.58 477.959 472.015 476.745 471.344C467.882 466.722 458.928 462.137 449.884 457.823C440.839 453.563 431.722 449.304 422.46 445.897C418.419 444.592 413.652 442.562 409.519 442.978C409.429 442.997 409.429 443.015 409.519 442.96C409.592 442.906 409.737 442.725 409.773 442.598C410.498 445.135 413.289 448.633 415.591 451.026C422.388 458.095 430.327 464.402 438.211 470.275C440.259 471.707 438.338 474.842 436.127 473.664C431.487 471.145 426.647 468.77 421.79 466.595C409.755 461.72 396.632 455.612 383.401 458.131C380.845 458.765 378.399 460.07 376.659 462.155C378.181 459.907 380.592 458.312 383.184 457.406C399.659 452.802 423.041 463.043 438.012 470.13L435.927 473.519C430.146 469.568 393.605 444.573 407.906 437.958C413.833 436.743 418.854 439.208 424.255 440.84C433.916 444.32 443.105 448.525 452.222 452.947C461.302 457.388 470.311 461.937 479.174 466.813L476.691 471.254C451.678 455.72 435.148 429.131 423.675 402.687L423.693 402.741Z" fill="white"/>
<path d="M368.536 452.328C368.536 452.328 361.956 470.163 397.699 502.299C397.699 502.299 350.628 473.752 330.763 502.244" fill="#FF5E67"/>
<path d="M368.536 452.328C367.485 466.611 379.683 480.241 388.8 490.101C392.243 493.599 395.778 497.024 399.475 500.305C401.868 502.462 399.058 506.268 396.303 504.583C377.073 494.197 347.946 482.398 330.763 502.226C345.227 477.884 379.284 488.542 399.095 499.997L395.923 504.274C392.189 500.849 388.546 497.296 385.193 493.454C376.167 483.032 364.421 466.792 368.572 452.328H368.536Z" fill="white"/>
<path d="M139.776 188.06C139.776 188.06 158.934 128.809 157.14 108.165C157.14 108.165 159.895 178.454 189.584 157.538C189.584 157.538 182.986 204.753 205.842 183.112C205.842 183.112 199.969 223.259 221.593 204.79L201.854 257.588" fill="#FFFDC2"/>
<path d="M139.776 188.06C139.776 188.06 158.934 128.809 157.14 108.165C157.14 108.165 159.895 178.454 189.584 157.538C189.584 157.538 182.986 204.753 205.842 183.112C205.842 183.112 199.969 223.259 221.593 204.79L201.854 257.588" stroke="white" stroke-width="7.31431" stroke-miterlimit="10"/>
<path d="M134.575 198.757C134.575 198.757 73.6927 211.807 53.3383 207.928C53.3383 207.928 122.975 217.788 99.1765 245.211C99.1765 245.211 146.827 243.435 122.975 263.989C122.975 263.989 163.502 262.213 142.948 281.86L197.469 267.578" fill="#FFFDC2"/>
<path d="M134.575 198.757C134.575 198.757 73.6927 211.807 53.3383 207.928C53.3383 207.928 122.975 217.788 99.1765 245.211C99.1765 245.211 146.827 243.435 122.975 263.989C122.975 263.989 163.502 262.213 142.948 281.86L197.469 267.578" stroke="white" stroke-width="7.31431" stroke-miterlimit="10"/>
<path d="M305.586 392.872C302.631 393.162 299.586 391.875 297.466 389.483L131.404 200.946C127.96 197.049 128.015 191.394 131.513 188.313C135.011 185.232 140.612 185.902 144.055 189.799L310.117 378.336C315.047 383.936 312.473 392.183 305.586 392.854V392.872Z" fill="#FFFDC2" stroke="white" stroke-width="7.31431" stroke-miterlimit="10"/>
<path d="M189.586 157.54L169.612 218.839" stroke="white" stroke-width="7.31431" stroke-miterlimit="10"/>
<path d="M205.843 183.106L188.534 240.309" stroke="white" stroke-width="7.31431" stroke-miterlimit="10"/>
<path d="M99.1785 245.212L160.151 233.576" stroke="white" stroke-width="7.31431" stroke-miterlimit="10"/>
<path d="M122.974 263.99L177.368 253.133" stroke="white" stroke-width="7.31431" stroke-miterlimit="10"/>
<path d="M331.085 390.116H271.11V433.961H331.085V390.116Z" fill="#FF5E67"/>
<path d="M243.412 372.543C243.412 372.543 274.714 359.367 280.115 390.995L243.412 372.543Z" fill="#FF5E67"/>
<path d="M243.412 372.551C259.525 361.06 282 369.561 280.115 391.003C278.321 387.215 276.563 383.662 274.297 380.708C267.12 370.902 254.505 371.464 243.43 372.551H243.412Z" fill="white"/>
<path d="M255.629 417.074C255.629 417.074 265.671 370.511 306.325 389.76L255.629 417.074Z" fill="#FF5E67"/>
<path d="M255.629 417.07C257.442 389.882 282.364 372.337 306.325 389.756C279.319 381.944 266.722 393.326 255.629 417.07Z" fill="white"/>
<path d="M304.731 420.817C304.731 420.817 270.239 333.327 358.109 320.44L304.731 420.817Z" fill="#FF5E67"/>
<path d="M304.732 420.813C289.96 389.873 291.374 346.391 325.231 328.937C335.526 323.554 346.872 320.925 358.11 320.418C347.199 323.155 336.614 326.889 327.352 332.598C296.702 351.049 296.811 389.728 304.732 420.794V420.813Z" fill="white"/>
<path d="M116.144 391.66C121.001 428.943 132.655 465.936 154.967 496.513C157.922 500.99 161.746 505.086 164.936 509.4C160.894 505.884 156.454 502.259 152.901 498.199L147.409 492.018C144.999 488.882 142.443 485.221 140.087 481.995C138.057 478.515 135.682 474.799 133.779 471.283C132.547 468.655 129.429 462.71 128.45 460.064C119.442 438.622 114.494 414.932 116.144 391.642V391.66Z" fill="white"/>
<path d="M106.031 438.418C113.68 465.769 126.567 490.908 144.42 512.984C121.238 496.744 105.904 466.711 106.031 438.418Z" fill="white"/>
<path d="M519.353 269.263C513.099 248.564 500.956 230.639 482.486 219.184C479.931 217.389 477.103 216.121 474.493 214.326C477.556 215.015 480.746 215.631 483.683 216.791C504.834 224.512 520.204 246.679 519.353 269.245V269.263Z" fill="white"/>
<path d="M508.097 279.934C508.206 276.146 506.176 272.557 504.726 269.131C501.5 262.298 497.458 255.864 492.691 250.027C480.873 235.02 464.108 225.359 445.421 221.317C469.636 219.668 492.673 235.618 502.95 257.114C505.56 262.461 507.608 268.134 508.405 274.043C508.569 275.983 508.949 278.121 508.097 279.934Z" fill="white"/>
</svg>
