<svg width="165" height="56" viewBox="0 0 165 56" fill="none" xmlns="http://www.w3.org/2000/svg">
<g filter="url(#filter0_d_2004_21196)">
<rect x="4" width="157" height="48" rx="24" fill="#FF5D5D"/>
<path d="M28.999 42.833C39.4008 42.833 47.833 34.4008 47.833 23.999C47.833 13.5973 39.4008 5.16504 28.999 5.16504C18.5973 5.16504 10.165 13.5973 10.165 23.999C10.165 34.4008 18.5973 42.833 28.999 42.833Z" fill="#3973CB" stroke="white" stroke-width="0.703704" stroke-miterlimit="10"/>
<path d="M24.6275 7.73438V11.4567C24.6275 12.0145 24.6216 12.3738 24.6099 12.5359C24.5981 12.6979 24.5465 12.8553 24.4537 13.0079C24.3609 13.1606 24.2365 13.2839 24.0791 13.3778C23.9218 13.4729 23.6857 13.5669 23.3722 13.6702C23.1362 13.7489 22.9014 13.8322 22.6665 13.9203V12.9468C22.751 12.9222 22.8121 12.9034 22.8497 12.8893C22.9495 12.8529 23.0293 12.8001 23.0869 12.7284C23.1444 12.658 23.1785 12.584 23.1879 12.5077C23.1961 12.4314 23.2008 12.2869 23.2008 12.0767V8.15945C23.6717 7.99858 24.1472 7.8565 24.6263 7.73438H24.6275Z" fill="white"/>
<path d="M28.5101 7.1792V10.9016C28.5101 11.3231 28.496 11.6202 28.4678 11.7928C28.4396 11.9642 28.3574 12.1427 28.22 12.3306C28.0826 12.5173 27.9018 12.6653 27.6775 12.7757C27.4532 12.886 27.189 12.9588 26.8849 12.9964C26.5491 13.0387 26.2532 13.0293 25.9972 12.9635C25.7412 12.8978 25.551 12.7933 25.4242 12.643C25.2973 12.4927 25.2234 12.3224 25.201 12.1322C25.1776 11.9408 25.167 11.531 25.167 10.9027V7.60662C25.6484 7.49977 26.1346 7.4117 26.6207 7.34359V11.5204C26.6207 11.7635 26.6336 11.9173 26.6606 11.9807C26.6876 12.0453 26.7417 12.0711 26.8227 12.0605C26.9154 12.0488 26.9753 12.0042 27.0012 11.9267C27.0282 11.8492 27.0411 11.6719 27.0411 11.3936V7.28958C27.5296 7.23321 28.0192 7.19564 28.5101 7.1792Z" fill="white"/>
<path d="M32.1873 9.10619C31.7364 9.03104 31.2831 8.97232 30.8287 8.93005V8.51672C30.8287 8.32414 30.8111 8.19967 30.7758 8.14448C30.7406 8.08812 30.6831 8.05759 30.6009 8.05054C30.5128 8.04349 30.4459 8.07403 30.4001 8.14213C30.3543 8.21024 30.332 8.31709 30.332 8.46153C30.332 8.64706 30.3578 8.78914 30.4083 8.8866C30.4565 8.98407 30.5962 9.10736 30.8228 9.26001C31.4757 9.70388 31.8855 10.0855 32.0534 10.3568C32.2213 10.6292 32.3059 11.0402 32.3059 11.5862C32.3059 11.9831 32.2589 12.2673 32.1662 12.4399C32.0722 12.6125 31.8926 12.7405 31.6236 12.8309C31.3547 12.9213 31.0412 12.9483 30.6843 12.919C30.2909 12.8861 29.955 12.7968 29.6768 12.6418C29.3985 12.4868 29.2153 12.3001 29.1296 12.0735C29.0438 11.8469 29.0004 11.5251 29.0004 11.1071V10.7419C29.456 10.7384 29.9116 10.7513 30.3672 10.7818V11.4594C30.3672 11.6684 30.386 11.8034 30.4247 11.8657C30.4635 11.9279 30.5316 11.9631 30.6291 11.9702C30.7265 11.9784 30.7993 11.9467 30.8475 11.8751C30.8956 11.8034 30.9191 11.6942 30.9191 11.5451C30.9191 11.2175 30.8733 10.9979 30.7829 10.8887C30.6901 10.7795 30.4611 10.5904 30.0948 10.3344C29.7296 10.0773 29.4865 9.90115 29.3679 9.79195C29.2493 9.68274 29.1507 9.53361 29.072 9.34338C28.9933 9.15316 28.9546 8.91126 28.9546 8.61535C28.9546 8.1891 29.0098 7.87675 29.1202 7.6783C29.2305 7.48103 29.4102 7.32721 29.6568 7.2227C29.9034 7.11819 30.2028 7.07592 30.5516 7.10175C30.9332 7.13111 31.2573 7.22857 31.525 7.38474C31.7927 7.54092 31.9689 7.72293 32.0558 7.92137C32.1427 8.11982 32.1861 8.44156 32.1861 8.88308V9.10384L32.1873 9.10619Z" fill="white"/>
<path d="M35.6406 8.35228V9.46663C35.3635 9.36213 35.084 9.26466 34.8033 9.17307V13.6282C34.3301 13.4755 33.8534 13.3416 33.3731 13.2289V8.77383C33.0889 8.7069 32.8036 8.64584 32.5171 8.593V7.47864C33.5763 7.67591 34.6213 7.96712 35.6418 8.35228H35.6406Z" fill="white"/>
<path d="M36.6834 19.733C34.4013 18.5031 32.0563 18.6189 29.9142 19.5697C28.3182 17.7034 26.1441 16.5949 23.4296 16.9269C15.0654 17.9483 16.6725 35.1972 25.7956 38.3695C35.2981 38.6122 44.356 23.866 36.6834 19.733Z" fill="#FF5D5D" stroke="white" stroke-width="0.331675" stroke-miterlimit="10"/>
<path d="M36.3551 24.6958C36.3551 24.6958 35.6469 26.7121 38.3824 28.7284C38.3824 28.7284 35.1781 27.1688 34.5229 27.996" fill="#FF5D5D"/>
<path d="M36.3554 24.6958C36.1414 25.8815 36.7724 27.0265 37.5886 27.8394C37.8643 28.114 38.1633 28.3666 38.4798 28.5972C38.6376 28.7141 38.4887 28.9612 38.3122 28.8751C37.7033 28.595 37.0768 28.3291 36.4415 28.1129C35.9694 27.9607 35.4796 27.7986 34.9789 27.8206C34.8167 27.8317 34.648 27.8736 34.5244 27.996C34.5707 27.9243 34.638 27.8626 34.7141 27.8184C35.6682 27.3662 37.5379 28.1571 38.4545 28.5817L38.2868 28.8597C37.9614 28.6159 37.6482 28.3512 37.3724 28.049C36.5518 27.1831 35.9429 25.8871 36.3565 24.6958H36.3554Z" fill="white"/>
<path d="M42.239 35.2568C42.5691 34.5827 42.17 33.7099 41.3477 33.3072C40.5254 32.9046 39.5913 33.1246 39.2612 33.7986C38.9311 34.4726 39.3302 35.3455 40.1525 35.7481C40.9748 36.1508 41.909 35.9308 42.239 35.2568Z" fill="#FF5D5D" stroke="white" stroke-width="0.331675" stroke-linejoin="round"/>
<path d="M33.6474 38.1064C33.8713 37.7186 33.6691 37.1828 33.1959 36.9096C32.7227 36.6364 32.1576 36.7292 31.9337 37.117C31.7098 37.5047 31.9119 38.0406 32.3852 38.3138C32.8584 38.587 33.4235 38.4942 33.6474 38.1064Z" fill="#FF5D5D" stroke="white" stroke-width="0.331675" stroke-linejoin="round"/>
<path d="M42.7273 29.0556C42.9174 28.6168 42.6369 28.0729 42.1009 27.8407C41.5648 27.6084 40.9761 27.7759 40.786 28.2147C40.596 28.6536 40.8765 29.1975 41.4125 29.4297C41.9486 29.6619 42.5373 29.4944 42.7273 29.0556Z" fill="#FF5D5D" stroke="white" stroke-width="0.331675" stroke-linejoin="round"/>
<path d="M35.5026 37.0682C35.6044 36.8603 35.4811 36.591 35.2272 36.4667C34.9734 36.3424 34.6851 36.4102 34.5833 36.6181C34.4815 36.826 34.6047 37.0953 34.8586 37.2196C35.1124 37.3439 35.4008 37.2761 35.5026 37.0682Z" fill="#FF5D5D" stroke="white" stroke-width="0.331675" stroke-linejoin="round"/>
<path d="M35.4616 29.1743C35.4616 29.1743 36.7863 32.0786 38.764 33.2125C38.764 33.2125 34.1413 30.713 34.4744 31.6793C34.6817 32.2804 36.2745 33.3845 36.2745 33.3845C36.2745 33.3845 33.3405 31.8072 32.5981 32.7911" fill="#FF5D5D"/>
<path d="M35.4619 29.1742C36.1006 30.3169 36.8572 31.4155 37.8125 32.3134C38.129 32.6035 38.4688 32.8693 38.8416 33.0789C38.9155 33.1208 38.9419 33.2157 38.9 33.2896C38.8581 33.3635 38.7644 33.3899 38.6905 33.3491C38.1511 33.0679 37.6062 32.7888 37.0558 32.5263C36.5054 32.2671 35.9506 32.0079 35.3869 31.8005C35.141 31.7211 34.8509 31.5975 34.5994 31.6229C34.5939 31.624 34.5939 31.6251 34.5994 31.6218C34.6038 31.6185 34.6126 31.6075 34.6148 31.5997C34.6589 31.7542 34.8288 31.967 34.9689 32.1126C35.3825 32.5428 35.8656 32.9267 36.3455 33.284C36.4701 33.3712 36.3532 33.562 36.2186 33.4903C35.9362 33.337 35.6417 33.1925 35.3461 33.0601C34.6137 32.7634 33.8151 32.3917 33.0099 32.545C32.8544 32.5836 32.7055 32.663 32.5996 32.7899C32.6923 32.6531 32.839 32.5561 32.9967 32.5009C33.9993 32.2207 35.4222 32.8439 36.3333 33.2752L36.2065 33.4815C35.8546 33.241 33.6309 31.72 34.5012 31.3174C34.8619 31.2435 35.1674 31.3935 35.4961 31.4927C36.084 31.7045 36.6433 31.9604 37.1981 32.2296C37.7507 32.4998 38.2989 32.7767 38.8383 33.0734L38.6872 33.3436C37.165 32.3983 36.159 30.7802 35.4608 29.1709L35.4619 29.1742Z" fill="white"/>
<path d="M32.1048 32.1919C32.1048 32.1919 31.7044 33.2773 33.8796 35.2329C33.8796 35.2329 31.0151 33.4957 29.8062 35.2296" fill="#FF5D5D"/>
<path d="M32.1048 32.1919C32.0409 33.0611 32.7832 33.8905 33.338 34.4906C33.5476 34.7035 33.7627 34.9119 33.9877 35.1116C34.1333 35.2428 33.9623 35.4745 33.7947 35.3719C32.6244 34.7399 30.8518 34.0218 29.8062 35.2285C30.6864 33.7471 32.7589 34.3957 33.9645 35.0928L33.7715 35.3531C33.5443 35.1447 33.3226 34.9285 33.1185 34.6946C32.5692 34.0604 31.8545 33.0721 32.107 32.1919H32.1048Z" fill="white"/>
<path d="M18.1836 16.1097C18.1836 16.1097 19.3495 12.5039 19.2403 11.2476C19.2403 11.2476 19.4079 15.5251 21.2147 14.2522C21.2147 14.2522 20.8132 17.1255 22.2041 15.8085C22.2041 15.8085 21.8467 18.2517 23.1626 17.1277L21.9614 20.3408" fill="#FFFDC2"/>
<path d="M18.1836 16.1097C18.1836 16.1097 19.3495 12.5039 19.2403 11.2476C19.2403 11.2476 19.4079 15.5251 21.2147 14.2522C21.2147 14.2522 20.8132 17.1255 22.2041 15.8085C22.2041 15.8085 21.8467 18.2517 23.1626 17.1277L21.9614 20.3408" stroke="white" stroke-width="0.331675" stroke-miterlimit="10"/>
<path d="M17.8671 16.7606C17.8671 16.7606 14.162 17.5548 12.9233 17.3187C12.9233 17.3187 17.1611 17.9188 15.7129 19.5876C15.7129 19.5876 18.6127 19.4796 17.1611 20.7304C17.1611 20.7304 19.6275 20.6223 18.3766 21.8179L21.6945 20.9488" fill="#FFFDC2"/>
<path d="M17.8671 16.7606C17.8671 16.7606 14.162 17.5548 12.9233 17.3187C12.9233 17.3187 17.1611 17.9188 15.7129 19.5876C15.7129 19.5876 18.6127 19.4796 17.1611 20.7304C17.1611 20.7304 19.6275 20.6223 18.3767 21.8179L21.6945 20.9488" stroke="white" stroke-width="0.331675" stroke-miterlimit="10"/>
<path d="M28.2742 28.5737C28.0944 28.5913 27.9091 28.513 27.78 28.3674L17.6742 16.8938C17.4646 16.6567 17.4679 16.3125 17.6808 16.125C17.8937 15.9375 18.2345 15.9783 18.4441 16.2155L28.5499 27.689C28.8499 28.0299 28.6933 28.5317 28.2742 28.5725V28.5737Z" fill="#FFFDC2" stroke="white" stroke-width="0.331675" stroke-miterlimit="10"/>
<path d="M21.2145 14.2523L19.999 17.9827" stroke="white" stroke-width="0.331675" stroke-miterlimit="10"/>
<path d="M22.2043 15.8082L21.1509 19.2893" stroke="white" stroke-width="0.331675" stroke-miterlimit="10"/>
<path d="M15.7129 19.5877L19.4234 18.8795" stroke="white" stroke-width="0.331675" stroke-miterlimit="10"/>
<path d="M17.1611 20.7304L20.4713 20.0697" stroke="white" stroke-width="0.331675" stroke-miterlimit="10"/>
<path d="M29.8262 28.4059H26.1763V31.0741H29.8262V28.4059Z" fill="#FF5D5D"/>
<path d="M24.4907 27.3364C24.4907 27.3364 26.3956 26.5345 26.7243 28.4593L24.4907 27.3364Z" fill="#FF5D5D"/>
<path d="M24.4907 27.3369C25.4713 26.6376 26.839 27.1549 26.7243 28.4598C26.6151 28.2293 26.5081 28.0131 26.3703 27.8333C25.9335 27.2366 25.1658 27.2708 24.4918 27.3369H24.4907Z" fill="white"/>
<path d="M25.2344 30.0465C25.2344 30.0465 25.8454 27.2129 28.3195 28.3843L25.2344 30.0465Z" fill="#FF5D5D"/>
<path d="M25.2344 30.0462C25.3447 28.3916 26.8613 27.3239 28.3195 28.3839C26.676 27.9085 25.9094 28.6012 25.2344 30.0462Z" fill="white"/>
<path d="M28.2224 30.2742C28.2224 30.2742 26.1234 24.9499 31.4708 24.1656L28.2224 30.2742Z" fill="#FF5D5D"/>
<path d="M28.2226 30.2739C27.3236 28.3911 27.4096 25.7449 29.4701 24.6827C30.0966 24.3551 30.7871 24.1952 31.4709 24.1643C30.8069 24.3309 30.1628 24.5581 29.5991 24.9055C27.7339 26.0284 27.7405 28.3822 28.2226 30.2728V30.2739Z" fill="white"/>
<path d="M16.7452 28.4999C17.0408 30.7688 17.7501 33.02 19.1079 34.8808C19.2877 35.1533 19.5204 35.4026 19.7145 35.6651C19.4686 35.4511 19.1983 35.2305 18.9821 34.9834L18.6479 34.6073C18.5012 34.4165 18.3457 34.1937 18.2023 33.9973C18.0788 33.7855 17.9343 33.5594 17.8184 33.3454C17.7434 33.1855 17.5537 32.8237 17.4942 32.6627C16.946 31.3578 16.6448 29.9162 16.7452 28.4988V28.4999Z" fill="white"/>
<path d="M16.1299 31.3455C16.5954 33.0099 17.3796 34.5398 18.4661 35.8833C17.0554 34.895 16.1222 33.0673 16.1299 31.3455Z" fill="white"/>
<path d="M41.2832 21.0514C40.9026 19.7917 40.1636 18.7008 39.0397 18.0037C38.8841 17.8945 38.7121 17.8173 38.5532 17.7081C38.7396 17.75 38.9338 17.7875 39.1125 17.8581C40.3997 18.328 41.335 19.677 41.2832 21.0503V21.0514Z" fill="white"/>
<path d="M40.5979 21.7006C40.6045 21.4701 40.481 21.2517 40.3928 21.0432C40.1964 20.6274 39.9504 20.2358 39.6604 19.8807C38.9412 18.9674 37.9209 18.3794 36.7837 18.1335C38.2573 18.0331 39.6593 19.0038 40.2847 20.3119C40.4435 20.6373 40.5681 20.9826 40.6167 21.3421C40.6266 21.4602 40.6498 21.5903 40.5979 21.7006Z" fill="white"/>
<path d="M68.8984 19.75C68.8984 20.5677 68.888 21.276 68.8672 21.875C68.8516 22.4688 68.8073 23.1589 68.7344 23.9453C68.6615 24.7318 68.5443 25.5885 68.3828 26.5156L66.8672 26.375C67.0391 25.5052 67.1667 24.6849 67.25 23.9141C67.3333 23.1432 67.3828 22.4583 67.3984 21.8594C67.4193 21.2604 67.4297 20.5573 67.4297 19.75V19.4688H59.1797V18.25H68.8984V19.75ZM57.8047 27.6094H70.5703V28.8438H57.8047V27.6094ZM84.6328 20.0625H82.6328V21.8125H84.6328V23.0625H82.6328V25.1094H81.1484V16.8281H82.6328V18.8438H84.6328V20.0625ZM72.2734 17.6562H73.7578V22.75C75.8776 22.7344 77.888 22.5365 79.7891 22.1562L79.9766 23.3594C78.8516 23.5833 77.75 23.7448 76.6719 23.8438C75.599 23.9375 74.513 23.9844 73.4141 23.9844H72.2734V17.6562ZM73.3984 28.0469C73.3984 27.4896 73.5911 27.0026 73.9766 26.5859C74.362 26.1641 74.9089 25.8411 75.6172 25.6172C76.3255 25.3932 77.1536 25.2812 78.1016 25.2812C79.0391 25.2812 79.8594 25.3932 80.5625 25.6172C81.2656 25.8411 81.8073 26.1641 82.1875 26.5859C82.5677 27.0026 82.7578 27.4896 82.7578 28.0469C82.7578 28.6198 82.5677 29.1146 82.1875 29.5312C81.8073 29.9479 81.2656 30.2682 80.5625 30.4922C79.8646 30.7161 79.0443 30.8281 78.1016 30.8281C77.1536 30.8281 76.3255 30.7161 75.6172 30.4922C74.9089 30.2682 74.362 29.9479 73.9766 29.5312C73.5911 29.1146 73.3984 28.6198 73.3984 28.0469ZM74.8516 28.0469C74.8516 28.3698 74.9818 28.651 75.2422 28.8906C75.5026 29.1302 75.8776 29.3151 76.3672 29.4453C76.8568 29.5703 77.4349 29.6354 78.1016 29.6406C78.7526 29.6354 79.3177 29.5703 79.7969 29.4453C80.2812 29.3151 80.6536 29.1302 80.9141 28.8906C81.1745 28.651 81.3047 28.3698 81.3047 28.0469C81.3047 27.7188 81.1745 27.4401 80.9141 27.2109C80.6536 26.9766 80.2812 26.7995 79.7969 26.6797C79.3177 26.5547 78.7526 26.4896 78.1016 26.4844C77.4297 26.4896 76.849 26.5547 76.3594 26.6797C75.875 26.7995 75.5026 26.9766 75.2422 27.2109C74.9818 27.4401 74.8516 27.7188 74.8516 28.0469ZM102.164 23.1094H89.3672V21.9062H93.125C93.3073 21.2396 93.4349 20.638 93.5078 20.1016C93.5807 19.5599 93.625 19.0417 93.6406 18.5469H90.4766V17.3281H95.1016V17.9531C95.1016 18.5833 95.0729 19.2057 95.0156 19.8203C94.9635 20.4297 94.8359 21.125 94.6328 21.9062H98.6406C98.9427 20.7656 99.1042 19.6458 99.125 18.5469H96.0078V17.3281H100.57V17.9219C100.565 18.5781 100.536 19.2083 100.484 19.8125C100.438 20.4167 100.323 21.1146 100.141 21.9062H102.164V23.1094ZM90.8672 24.4062H100.539V28H92.3828V29.4688H100.977V30.6406H90.8984V26.8906H99.0547V25.5781H90.8672V24.4062ZM114.852 30.8594H113.383V25H110.648V23.7656H113.383V21.1719H110.727V19.9531H113.383V16.8281H114.852V30.8594ZM103.68 18.0625H109.883V23.1719H105.195V26.3906C106.227 26.3854 107.185 26.3542 108.07 26.2969C108.956 26.2396 109.878 26.1406 110.836 26L110.961 27.2188C109.94 27.3802 108.958 27.4896 108.016 27.5469C107.078 27.599 105.997 27.625 104.773 27.625H103.711V22H108.43V19.2656H103.68V18.0625ZM129.836 29.0781H117.023V27.8438H120.086V24.1875C119.497 23.8646 119.042 23.4557 118.719 22.9609C118.396 22.4661 118.237 21.9115 118.242 21.2969C118.242 20.5729 118.461 19.9349 118.898 19.3828C119.336 18.8307 119.945 18.4036 120.727 18.1016C121.513 17.7943 122.404 17.6406 123.398 17.6406C124.393 17.6406 125.284 17.7943 126.07 18.1016C126.857 18.4036 127.469 18.8307 127.906 19.3828C128.349 19.9349 128.57 20.5729 128.57 21.2969C128.57 21.9062 128.414 22.4557 128.102 22.9453C127.789 23.4297 127.346 23.8333 126.773 24.1562V27.8438H129.836V29.0781ZM119.68 21.2969C119.68 21.7917 119.836 22.2266 120.148 22.6016C120.461 22.9766 120.898 23.2682 121.461 23.4766C122.023 23.6797 122.669 23.7812 123.398 23.7812C124.122 23.7812 124.766 23.6771 125.328 23.4688C125.896 23.2604 126.339 22.9714 126.656 22.6016C126.974 22.2266 127.133 21.7917 127.133 21.2969C127.133 20.8021 126.974 20.3698 126.656 20C126.339 19.625 125.896 19.3359 125.328 19.1328C124.766 18.9297 124.122 18.8281 123.398 18.8281C122.669 18.8281 122.023 18.9297 121.461 19.1328C120.898 19.3359 120.461 19.625 120.148 20C119.836 20.3698 119.68 20.8021 119.68 21.2969ZM125.273 27.8438V24.7344C124.69 24.8698 124.065 24.9375 123.398 24.9375C122.742 24.9375 122.128 24.8698 121.555 24.7344V27.8438H125.273ZM133.289 26.2344H131.742L131.602 18.1875H133.43L133.289 26.2344ZM131.414 28.5156C131.414 28.3125 131.464 28.125 131.562 27.9531C131.661 27.7812 131.794 27.6458 131.961 27.5469C132.133 27.4427 132.32 27.3906 132.523 27.3906C132.721 27.3906 132.904 27.4401 133.07 27.5391C133.242 27.638 133.378 27.7734 133.477 27.9453C133.581 28.1172 133.633 28.3021 133.633 28.5C133.633 28.6979 133.581 28.8828 133.477 29.0547C133.378 29.2214 133.242 29.3568 133.07 29.4609C132.904 29.5599 132.721 29.6094 132.523 29.6094C132.326 29.6094 132.141 29.5599 131.969 29.4609C131.802 29.362 131.667 29.2292 131.562 29.0625C131.464 28.8958 131.414 28.7135 131.414 28.5156Z" fill="white"/>
</g>
<defs>
<filter id="filter0_d_2004_21196" x="0" y="0" width="165" height="56" filterUnits="userSpaceOnUse" color-interpolation-filters="sRGB">
<feFlood flood-opacity="0" result="BackgroundImageFix"/>
<feColorMatrix in="SourceAlpha" type="matrix" values="0 0 0 0 0 0 0 0 0 0 0 0 0 0 0 0 0 0 127 0" result="hardAlpha"/>
<feOffset dy="4"/>
<feGaussianBlur stdDeviation="2"/>
<feComposite in2="hardAlpha" operator="out"/>
<feColorMatrix type="matrix" values="0 0 0 0 0 0 0 0 0 0 0 0 0 0 0 0 0 0 0.25 0"/>
<feBlend mode="normal" in2="BackgroundImageFix" result="effect1_dropShadow_2004_21196"/>
<feBlend mode="normal" in="SourceGraphic" in2="effect1_dropShadow_2004_21196" result="shape"/>
</filter>
</defs>
</svg>
