<svg width="847" height="847" viewBox="0 0 847 847" fill="none" xmlns="http://www.w3.org/2000/svg">
<path d="M423.841 838.678C653.227 838.678 839.18 652.725 839.18 423.339C839.18 193.954 653.227 8 423.841 8C194.456 8 8.5022 193.954 8.5022 423.339C8.5022 652.725 194.456 838.678 423.841 838.678Z" fill="#3973CB" stroke="white" stroke-width="15.5185" stroke-miterlimit="10"/>
<path d="M593.28 329.262C542.953 302.14 491.24 304.694 444.002 325.662C408.804 284.505 360.861 260.059 300.998 267.38C116.547 289.905 151.987 670.29 353.174 740.247C562.729 745.598 762.481 420.405 593.28 329.262Z" fill="#FF5D5D" stroke="white" stroke-width="7.31431" stroke-miterlimit="10"/>
<path d="M330.071 63.8057V140.914C330.071 152.468 329.95 159.911 329.706 163.268C329.463 166.625 328.393 169.884 326.471 173.047C324.55 176.209 321.971 178.763 318.712 180.709C315.452 182.679 310.563 184.625 304.069 186.766C299.179 188.395 294.314 190.122 289.45 191.947V171.782C291.201 171.271 292.466 170.882 293.244 170.59C295.312 169.836 296.966 168.741 298.158 167.257C299.35 165.798 300.055 164.265 300.25 162.684C300.42 161.103 300.517 158.111 300.517 153.757V72.6111C310.271 69.2787 320.123 66.3354 330.047 63.8057H330.071Z" fill="white"/>
<path d="M410.489 52.3037V129.412C410.489 138.145 410.197 144.299 409.613 147.874C409.029 151.426 407.327 155.123 404.481 159.015C401.635 162.882 397.889 165.947 393.243 168.234C388.597 170.52 383.124 172.028 376.824 172.807C369.867 173.682 363.737 173.488 358.435 172.126C353.132 170.764 349.191 168.599 346.564 165.485C343.937 162.372 342.405 158.845 341.943 154.904C341.456 150.939 341.237 142.45 341.237 129.436V61.1578C351.21 58.9443 361.281 57.1199 371.351 55.7091V142.231C371.351 147.266 371.619 150.453 372.178 151.766C372.737 153.104 373.856 153.639 375.535 153.42C377.456 153.177 378.697 152.253 379.232 150.647C379.792 149.042 380.059 145.369 380.059 139.604V54.5902C390.178 53.4226 400.321 52.6443 410.489 52.3037Z" fill="white"/>
<path d="M486.697 92.2227C477.356 90.6659 467.967 89.4497 458.553 88.574V80.0118C458.553 76.0226 458.189 73.4442 457.459 72.301C456.729 71.1334 455.537 70.501 453.835 70.355C452.01 70.2091 450.624 70.8415 449.675 72.2524C448.726 73.6632 448.264 75.8767 448.264 78.8686C448.264 82.7118 448.799 85.6551 449.845 87.674C450.843 89.6929 453.737 92.247 458.432 95.4092C471.956 104.604 480.445 112.509 483.924 118.128C487.402 123.771 489.154 132.285 489.154 143.596C489.154 151.817 488.181 157.704 486.259 161.28C484.313 164.855 480.591 167.507 475.021 169.38C469.451 171.253 462.956 171.812 455.562 171.204C447.413 170.523 440.456 168.674 434.691 165.463C428.926 162.253 425.132 158.385 423.356 153.69C421.58 148.996 420.68 142.331 420.68 133.671V126.107C430.118 126.034 439.556 126.301 448.994 126.934V140.969C448.994 145.299 449.383 148.096 450.186 149.385C450.989 150.674 452.399 151.404 454.418 151.55C456.437 151.72 457.945 151.063 458.943 149.58C459.94 148.096 460.426 145.834 460.426 142.744C460.426 135.958 459.478 131.409 457.605 129.147C455.683 126.885 450.94 122.969 443.351 117.666C435.786 112.339 430.751 108.69 428.294 106.428C425.837 104.166 423.794 101.077 422.164 97.1362C420.534 93.1957 419.732 88.1848 419.732 82.0551C419.732 73.2253 420.875 66.755 423.161 62.6442C425.448 58.5577 429.17 55.3712 434.278 53.2063C439.386 51.0415 445.589 50.1658 452.813 50.7009C460.718 51.309 467.432 53.328 472.978 56.5631C478.524 59.7983 482.172 63.5685 483.972 67.6794C485.772 71.7902 486.672 78.4551 486.672 87.6011V92.174L486.697 92.2227Z" fill="white"/>
<path d="M558.21 76.6052V99.689C552.47 97.5242 546.68 95.5052 540.867 93.6079V185.895C531.064 182.733 521.188 179.96 511.24 177.624V85.3376C505.353 83.9511 499.442 82.6863 493.507 81.5917V58.5078C515.448 62.5943 537.096 68.6268 558.234 76.6052H558.21Z" fill="white"/>
<path d="M586.033 438.705C586.033 438.705 570.417 483.17 630.741 527.635C630.741 527.635 560.079 493.24 545.63 511.484" fill="#FF5D5D"/>
<path d="M586.033 438.705C581.314 464.854 595.228 490.103 613.228 508.03C619.309 514.086 625.901 519.657 632.882 524.74C636.361 527.319 633.077 532.768 629.185 530.87C615.758 524.692 601.942 518.83 587.931 514.062C577.52 510.705 566.72 507.13 555.677 507.616C552.101 507.859 548.379 508.784 545.655 511.484C546.677 509.903 548.16 508.54 549.839 507.567C570.879 497.594 612.109 515.035 632.323 524.4L628.625 530.53C621.45 525.154 614.542 519.316 608.461 512.651C590.363 493.557 576.936 464.975 586.058 438.705H586.033Z" fill="white"/>
<path d="M715.791 671.601C723.07 656.737 714.27 637.488 696.136 628.609C678.002 619.729 657.402 624.58 650.123 639.444C642.844 654.309 651.644 673.557 669.778 682.437C687.912 691.316 708.513 686.465 715.791 671.601Z" fill="#FF5D5D" stroke="white" stroke-width="7.31431" stroke-linejoin="round"/>
<path d="M526.326 734.443C531.263 725.892 526.805 714.076 516.369 708.051C505.933 702.025 493.471 704.073 488.534 712.624C483.597 721.175 488.055 732.992 498.491 739.017C508.927 745.042 521.389 742.994 526.326 734.443Z" fill="#FF5D5D" stroke="white" stroke-width="7.31431" stroke-linejoin="round"/>
<path d="M726.566 534.85C730.758 525.173 724.572 513.177 712.75 508.057C700.929 502.936 687.947 506.63 683.756 516.307C679.564 525.983 685.75 537.979 697.571 543.1C709.393 548.221 722.375 544.527 726.566 534.85Z" fill="#FF5D5D" stroke="white" stroke-width="7.31431" stroke-linejoin="round"/>
<path d="M567.238 711.551C569.483 706.966 566.765 701.027 561.167 698.286C555.569 695.544 549.21 697.039 546.965 701.623C544.72 706.208 547.439 712.147 553.037 714.888C558.635 717.63 564.993 716.135 567.238 711.551Z" fill="#FF5D5D" stroke="white" stroke-width="7.31431" stroke-linejoin="round"/>
<path d="M566.333 537.468C566.333 537.468 595.547 601.514 639.161 626.519C639.161 626.519 537.217 571.4 544.563 592.709C549.136 605.965 584.261 630.314 584.261 630.314C584.261 630.314 519.558 595.53 503.187 617.228" fill="#FF5D5D"/>
<path d="M566.336 537.467C580.419 562.667 597.106 586.894 618.171 606.694C625.152 613.091 632.644 618.953 640.866 623.575C642.495 624.499 643.079 626.591 642.155 628.221C641.23 629.851 639.163 630.434 637.533 629.534C625.639 623.332 613.622 617.178 601.484 611.388C589.347 605.672 577.111 599.956 564.682 595.383C559.257 593.632 552.86 590.907 547.314 591.467C547.192 591.491 547.192 591.515 547.314 591.442C547.411 591.369 547.606 591.126 547.654 590.956C548.627 594.361 552.373 599.056 555.463 602.267C564.584 611.753 575.238 620.218 585.819 628.099C588.568 630.021 585.99 634.229 583.022 632.648C576.795 629.267 570.301 626.08 563.782 623.161C547.63 616.618 530.019 608.421 512.263 611.802C508.833 612.653 505.549 614.405 503.214 617.202C505.257 614.186 508.492 612.045 511.971 610.829C534.081 604.651 565.46 618.394 585.552 627.905L582.755 632.453C574.995 627.151 525.957 593.607 545.149 584.729C553.103 583.099 559.841 586.407 567.09 588.596C580.055 593.267 592.387 598.91 604.622 604.845C616.809 610.805 628.898 616.91 640.793 623.453L637.46 629.413C603.893 608.567 581.709 572.883 566.311 537.394L566.336 537.467Z" fill="white"/>
<path d="M492.313 604.014C492.313 604.014 483.483 627.949 531.451 671.076C531.451 671.076 468.28 632.765 441.621 671.003" fill="#FF5D5D"/>
<path d="M492.313 604.014C490.902 623.181 507.272 641.473 519.508 654.706C524.129 659.4 528.873 663.998 533.835 668.4C537.046 671.295 533.275 676.403 529.578 674.141C503.77 660.203 464.68 644.368 441.621 670.979C461.032 638.311 506.737 652.614 533.324 667.987L529.067 673.727C524.056 669.13 519.167 664.362 514.667 659.206C502.554 645.219 486.791 623.425 492.362 604.014H492.313Z" fill="white"/>
<path d="M185.31 249.357C185.31 249.357 211.02 169.84 208.612 142.135C208.612 142.135 212.31 236.465 252.153 208.394C252.153 208.394 243.299 271.76 273.972 242.716C273.972 242.716 266.091 296.595 295.11 271.808L268.621 342.665" fill="#FFFDC2"/>
<path d="M185.31 249.357C185.31 249.357 211.02 169.84 208.612 142.135C208.612 142.135 212.31 236.465 252.153 208.394C252.153 208.394 243.299 271.76 273.972 242.716C273.972 242.716 266.091 296.595 295.11 271.808L268.621 342.665" stroke="white" stroke-width="7.31431" stroke-miterlimit="10"/>
<path d="M178.329 263.713C178.329 263.713 96.6234 281.226 69.3071 276.021C69.3071 276.021 162.761 289.254 130.824 326.056C130.824 326.056 194.772 323.673 162.761 351.256C162.761 351.256 217.151 348.873 189.567 375.24L262.735 356.073" fill="#FFFDC2"/>
<path d="M178.329 263.713C178.329 263.713 96.6234 281.226 69.3071 276.021C69.3071 276.021 162.761 289.254 130.824 326.056C130.824 326.056 194.772 323.673 162.761 351.256C162.761 351.256 217.151 348.873 189.567 375.24L262.735 356.073" stroke="white" stroke-width="7.31431" stroke-miterlimit="10"/>
<path d="M407.832 524.222C403.867 524.611 399.78 522.884 396.934 519.673L174.074 266.651C169.452 261.421 169.525 253.832 174.22 249.697C178.915 245.562 186.431 246.462 191.053 251.691L413.913 504.714C420.529 512.23 417.075 523.298 407.832 524.198V524.222Z" fill="#FFFDC2" stroke="white" stroke-width="7.31431" stroke-miterlimit="10"/>
<path d="M252.156 208.398L225.35 290.664" stroke="white" stroke-width="7.31431" stroke-miterlimit="10"/>
<path d="M273.974 242.709L250.744 319.477" stroke="white" stroke-width="7.31431" stroke-miterlimit="10"/>
<path d="M130.826 326.057L212.653 310.44" stroke="white" stroke-width="7.31431" stroke-miterlimit="10"/>
<path d="M162.761 351.257L235.759 336.687" stroke="white" stroke-width="7.31431" stroke-miterlimit="10"/>
<path d="M442.053 520.523H361.564V579.364H442.053V520.523Z" fill="#FF5D5D"/>
<path d="M324.393 496.939C324.393 496.939 366.401 479.256 373.65 521.702L324.393 496.939Z" fill="#FF5D5D"/>
<path d="M324.393 496.95C346.017 481.528 376.179 492.936 373.65 521.712C371.242 516.628 368.882 511.86 365.842 507.895C356.209 494.736 339.279 495.49 324.417 496.95H324.393Z" fill="white"/>
<path d="M340.788 556.702C340.788 556.702 354.264 494.213 408.824 520.045L340.788 556.702Z" fill="#FF5D5D"/>
<path d="M340.788 556.696C343.221 520.209 376.667 496.663 408.824 520.039C372.58 509.555 355.675 524.831 340.788 556.696Z" fill="white"/>
<path d="M406.684 561.724C406.684 561.724 360.395 444.31 478.319 427.016L406.684 561.724Z" fill="#FF5D5D"/>
<path d="M406.686 561.718C386.861 520.196 388.758 461.842 434.196 438.418C448.013 431.193 463.24 427.666 478.321 426.985C463.678 430.658 449.472 435.669 437.042 443.331C395.91 468.094 396.056 520.002 406.686 561.694V561.718Z" fill="white"/>
<path d="M153.594 522.595C160.113 572.63 175.753 622.276 205.697 663.311C209.662 669.319 214.794 674.817 219.075 680.606C213.651 675.887 207.691 671.022 202.924 665.573L195.553 657.279C192.318 653.071 188.889 648.157 185.726 643.827C183.002 639.157 179.816 634.171 177.262 629.452C175.607 625.925 171.424 617.946 170.11 614.395C158.021 585.619 151.38 553.827 153.594 522.57V522.595Z" fill="white"/>
<path d="M140.022 585.346C150.287 622.051 167.582 655.789 191.541 685.416C160.431 663.622 139.852 623.316 140.022 585.346Z" fill="white"/>
<path d="M694.714 358.334C686.322 330.555 670.025 306.498 645.238 291.125C641.809 288.717 638.014 287.015 634.511 284.606C638.622 285.531 642.903 286.358 646.844 287.915C675.23 298.277 695.857 328.025 694.714 358.309V358.334Z" fill="white"/>
<path d="M679.609 372.654C679.755 367.571 677.031 362.754 675.085 358.157C670.755 348.987 665.33 340.352 658.933 332.519C643.074 312.379 620.574 299.414 595.495 293.989C627.993 291.776 658.909 313.181 672.701 342.03C676.204 349.206 678.952 356.819 680.022 364.749C680.241 367.352 680.752 370.222 679.609 372.654Z" fill="white"/>
</svg>
