<svg width="25" height="24" viewBox="0 0 25 24" fill="none" xmlns="http://www.w3.org/2000/svg">
<path d="M23.4983 8.47692C22.9686 6.84659 21.6222 3.63171 17.8903 4.59128C17.6491 0.741944 14.179 0.453125 12.4668 0.453125C10.7546 0.453125 7.28448 0.741944 7.04168 4.59128C3.30984 3.63171 1.96342 6.84659 1.43368 8.47692C0.903934 10.1072 0.106169 13.5005 3.68823 14.9209C1.62287 18.1784 4.26212 20.4526 5.64796 21.4611C7.0338 22.4696 10.0104 24.2783 12.4668 21.3049C14.9232 24.2767 17.8998 22.468 19.2856 21.4611C20.6715 20.4526 23.3092 18.1784 21.2454 14.9209C24.8274 13.5005 24.0297 10.1088 23.4999 8.47692H23.4983Z" fill="white" stroke="#FFFDC2" stroke-width="0.324331" stroke-linecap="round" stroke-linejoin="round"/>
<path d="M12.3988 11.159C12.9491 11.159 13.3952 10.7124 13.3952 10.1615C13.3952 9.61064 12.9491 9.16406 12.3988 9.16406C11.8485 9.16406 11.4023 9.61064 11.4023 10.1615C11.4023 10.7124 11.8485 11.159 12.3988 11.159Z" fill="#FF5E67"/>
<path d="M10.887 12.4011C11.4373 12.4011 11.8835 11.9546 11.8835 11.4037C11.8835 10.8528 11.4373 10.4062 10.887 10.4062C10.3367 10.4062 9.89062 10.8528 9.89062 11.4037C9.89062 11.9546 10.3367 12.4011 10.887 12.4011Z" fill="#FF5E67"/>
<path d="M11.599 14.2234C12.1493 14.2234 12.5954 13.7768 12.5954 13.226C12.5954 12.6751 12.1493 12.2285 11.599 12.2285C11.0487 12.2285 10.6025 12.6751 10.6025 13.226C10.6025 13.7768 11.0487 14.2234 11.599 14.2234Z" fill="#FF5E67"/>
<path d="M13.5531 14.1092C14.1034 14.1092 14.5495 13.6626 14.5495 13.1117C14.5495 12.5608 14.1034 12.1143 13.5531 12.1143C13.0028 12.1143 12.5566 12.5608 12.5566 13.1117C12.5566 13.6626 13.0028 14.1092 13.5531 14.1092Z" fill="#FF5E67"/>
<path d="M14.0472 12.2146C14.5975 12.2146 15.0436 11.7681 15.0436 11.2172C15.0436 10.6663 14.5975 10.2197 14.0472 10.2197C13.4969 10.2197 13.0508 10.6663 13.0508 11.2172C13.0508 11.7681 13.4969 12.2146 14.0472 12.2146Z" fill="#FF5E67"/>
</svg>
