<svg width="85" height="127" viewBox="0 0 85 127" fill="none" xmlns="http://www.w3.org/2000/svg">
<path d="M27.9818 0.418823C28.3588 0.540062 28.7283 0.681095 29.1102 0.78254C33.8627 2.04689 37.0286 6.17397 37.0434 11.2437C37.068 20.7499 37.0508 30.256 37.0508 39.7646C37.0508 40.2149 37.0508 40.6628 37.0508 41.3333C40.362 39.0298 43.7989 38.3394 47.4575 39.8364C51.1358 41.3432 53.1167 44.2628 53.8509 48.1029C61.3209 45.3317 68.8623 50.545 68.5863 58.9179C70.0941 58.5888 71.6044 58.0618 73.1442 57.9604C79.0966 57.5744 84.1497 62.1468 84.2285 68.1593C84.4428 84.821 81.1513 100.669 72.654 115.151C70.5869 118.671 67.9778 121.881 65.5018 125.147C64.3364 126.683 62.6389 126.787 61.4391 125.679C60.2836 124.612 60.3501 123.046 61.5697 121.633C68.0296 114.144 72.2622 105.444 75.1522 96.0566C77.9288 87.0355 79.0867 77.7693 78.9093 68.3325C78.8551 65.4574 76.5294 63.1637 73.7084 63.1736C70.922 63.1835 68.6676 65.3955 68.5494 68.236C68.4755 69.9927 67.4432 71.0665 65.8295 71.0591C64.2305 71.0517 63.1686 69.9358 63.1637 68.1915C63.1539 64.7349 63.1933 61.2784 63.1637 57.8218C63.1465 55.6939 62.1339 54.1055 60.2294 53.2073C58.3422 52.3166 56.4846 52.512 54.7895 53.7789C53.8188 54.5038 53.3113 55.4267 53.2694 56.7084C53.198 58.8833 52.9787 61.0557 52.7791 63.2256C52.6313 64.8289 51.3453 65.9621 49.9064 65.831C48.3789 65.69 47.3392 64.3737 47.4698 62.6887C47.7975 58.5096 48.1276 54.3281 48.4923 50.1516C48.751 47.1899 46.9672 44.7701 44.1808 44.3989C41.5643 44.05 39.1375 45.881 38.7335 48.7511C38.1693 52.7768 37.7776 56.8271 37.3144 60.8676C37.2158 61.7237 37.1592 62.5872 37.031 63.4409C36.8068 64.9452 35.7524 65.8854 34.385 65.8483C32.961 65.8087 31.8671 64.7671 31.7193 63.285C31.6798 62.8767 31.702 62.4635 31.702 62.0503C31.702 45.2179 31.7168 28.3855 31.6651 11.553C31.6626 10.4173 31.367 9.15546 30.8151 8.17317C29.6522 6.10221 27.3067 5.33767 25.0697 6.01314C22.7267 6.72078 21.3174 8.62844 21.3174 11.1819C21.3101 32.7476 21.3125 54.3108 21.3125 75.8765C21.3125 77.7693 21.3199 79.6622 21.3101 81.555C21.2977 83.5022 20.2605 84.7146 18.6345 84.7146C17.0133 84.7146 15.9687 83.4948 15.9663 81.55C15.9589 75.9532 15.9638 70.3564 15.9638 64.7596C15.9638 64.3118 15.9638 63.8615 15.9638 63.0004C14.557 64.193 13.335 65.1209 12.2411 66.1799C6.98107 71.267 4.88198 77.4897 5.7566 84.7468C6.80368 93.4463 10.3687 101.233 14.6802 108.68C17.309 113.221 20.3344 117.531 23.217 121.918C23.9142 122.979 24.1458 124.026 23.4929 125.139C22.9164 126.124 21.9629 126.592 20.8814 126.322C20.2211 126.156 19.4721 125.738 19.0779 125.199C11.0388 114.191 4.12808 102.613 1.07307 89.1114C-1.92774 75.8542 3.25839 64.1312 15.0719 57.4729C15.8012 57.0622 15.9761 56.597 15.9761 55.8226C15.9564 41.2962 15.9613 26.7673 15.9613 12.2409C15.9613 5.83499 18.7182 2.22999 24.8627 0.589548C24.9293 0.572228 24.9736 0.48068 25.0278 0.421298C26.0108 0.421298 26.9939 0.421298 27.9793 0.421298L27.9818 0.418823Z" fill="white"/>
</svg>
