<svg width="184" height="48" viewBox="0 0 184 48" fill="none" xmlns="http://www.w3.org/2000/svg">
<rect width="184" height="48" rx="24" fill="#FF5D5D"/>
<path d="M25 43C35.4934 43 44 34.4934 44 24C44 13.5066 35.4934 5 25 5C14.5066 5 6 13.5066 6 24C6 34.4934 14.5066 43 25 43Z" fill="#FF5D5D" stroke="white" stroke-width="0.703704" stroke-miterlimit="10"/>
<path d="M17.0538 8.2589C17.5056 8.1365 17.9596 8.02412 18.4147 7.92286C18.8465 7.82716 19.1747 7.79712 19.3984 7.8216C19.622 7.84719 19.8023 7.95179 19.9403 8.13317C20.0783 8.31565 20.1473 8.63501 20.1473 9.09123C20.1473 9.39946 20.0983 9.62201 20.0015 9.75999C19.9047 9.89797 19.7122 10.0237 19.4262 10.1417C19.7444 10.1539 19.9614 10.2374 20.0749 10.3842C20.1884 10.5322 20.2452 10.7781 20.2452 11.122V11.6116C20.2452 11.9688 20.204 12.2392 20.1217 12.4239C20.0393 12.6086 19.9091 12.7477 19.73 12.8423C19.5508 12.9369 19.1836 13.0337 18.6317 13.1516C18.1032 13.2651 17.5768 13.3931 17.0527 13.5355V8.25779L17.0538 8.2589ZM18.4181 8.82418V9.99811C18.477 9.98254 18.5227 9.97141 18.5549 9.96473C18.6896 9.9358 18.7753 9.88461 18.812 9.81006C18.8487 9.73662 18.8676 9.543 18.8676 9.22921C18.8676 9.06453 18.852 8.95214 18.822 8.89205C18.7919 8.83196 18.7519 8.79858 18.7029 8.79191C18.654 8.78523 18.5594 8.79524 18.4181 8.82418ZM18.4181 10.8193V12.2959C18.6106 12.247 18.7341 12.1902 18.7875 12.1246C18.8409 12.0589 18.8676 11.9198 18.8676 11.7073V11.2154C18.8676 10.9896 18.8431 10.8571 18.7964 10.8193C18.7485 10.7815 18.6217 10.7804 18.4181 10.8193Z" fill="white"/>
<path d="M23.1439 7.25391C23.4099 8.99645 23.6758 10.7435 23.9406 12.4938C23.4655 12.5105 22.9904 12.5383 22.5163 12.5772C22.4919 12.2635 22.4663 11.9485 22.4418 11.6348C22.276 11.6492 22.1102 11.6648 21.9444 11.6815C21.9166 12.0008 21.8888 12.3191 21.8609 12.6384C21.3825 12.6885 20.904 12.7497 20.4277 12.822C20.6625 11.0272 20.8984 9.23458 21.1343 7.4453C21.802 7.35962 22.473 7.29619 23.1439 7.25502V7.25391ZM22.4062 10.7023C22.3361 10.1103 22.2649 9.37812 22.1948 8.50462C22.0534 9.52834 21.9644 10.2761 21.9277 10.7479C22.0868 10.7312 22.2471 10.7167 22.4062 10.7034V10.7023Z" fill="white"/>
<path d="M27.4335 9.59428C26.9695 9.55644 26.5055 9.52974 26.0403 9.51416V8.59726C26.0403 8.33021 26.0248 8.1633 25.9958 8.09653C25.9658 8.02977 25.9001 7.99416 25.7989 7.99193C25.6843 7.9886 25.6108 8.02754 25.5797 8.10766C25.5485 8.18778 25.5329 8.36136 25.5329 8.62842V11.0798C25.5329 11.3357 25.5485 11.5037 25.5797 11.5827C25.6108 11.6617 25.6798 11.7018 25.7889 11.7051C25.8923 11.7085 25.9602 11.6706 25.9925 11.5939C26.0248 11.516 26.0403 11.3335 26.0403 11.0431V10.3799C26.5055 10.3954 26.9695 10.4222 27.4335 10.46C27.4335 10.529 27.4335 10.5969 27.4335 10.6658C27.4335 11.2122 27.3945 11.5961 27.3167 11.8186C27.2388 12.0412 27.0652 12.2281 26.797 12.3839C26.5288 12.5397 26.1983 12.6098 25.8056 12.5987C25.3972 12.5875 25.06 12.5141 24.7952 12.3706C24.5304 12.227 24.3545 12.0301 24.2677 11.7741C24.1821 11.5182 24.1387 11.1332 24.1387 10.6158V9.07352C24.1387 8.69296 24.152 8.4081 24.1787 8.21671C24.2054 8.02643 24.2844 7.8406 24.4157 7.66145C24.547 7.48341 24.7295 7.34098 24.9621 7.23972C25.1947 7.13846 25.4628 7.09062 25.7655 7.09729C26.1761 7.10731 26.5155 7.203 26.7825 7.37437C27.0496 7.54684 27.2243 7.75492 27.3089 7.99416C27.3923 8.2334 27.4346 8.6006 27.4346 9.09243C27.4346 9.25934 27.4346 9.42625 27.4346 9.59428H27.4335Z" fill="white"/>
<path d="M31.2276 7.84503C30.965 8.58388 30.7024 9.32719 30.4386 10.0727C30.7268 11.0909 31.015 12.1124 31.3021 13.1383C30.8292 13.0382 30.3552 12.9492 29.8789 12.8713C29.692 12.0868 29.5062 11.3034 29.3192 10.5223V12.7845C28.8574 12.7177 28.3957 12.6621 27.9316 12.6176C27.9316 10.8583 27.9316 9.09908 27.9316 7.33984C28.3945 7.38547 28.8574 7.4411 29.3192 7.50675V9.55753C29.5251 8.90324 29.7298 8.25229 29.9346 7.60245C30.3663 7.67367 30.7969 7.7549 31.2265 7.84503H31.2276Z" fill="white"/>
<path d="M33.1031 10.962C33.1031 11.2647 33.1031 11.5685 33.1031 11.8711C32.5323 11.7131 31.9592 11.5718 31.3828 11.4472V10.5381C31.9592 10.6627 32.5334 10.804 33.1031 10.962Z" fill="white"/>
<path d="M17.4195 18.1172C16.9655 18.234 16.5137 18.3631 16.0642 18.501V18.0215C16.0642 17.7199 16.0508 17.5341 16.0252 17.4662C15.9996 17.3983 15.9384 17.3794 15.8427 17.4095C15.7593 17.4362 15.7036 17.4862 15.6736 17.5619C15.6436 17.6365 15.6291 17.8089 15.6291 18.0782V20.6108C15.6291 20.8478 15.6436 20.9991 15.6736 21.0637C15.7036 21.1293 15.7626 21.1471 15.8528 21.1193C15.9507 21.0882 16.0174 21.0259 16.053 20.929C16.0887 20.8333 16.1053 20.6631 16.1053 20.4172V19.7918C16.0141 19.8196 15.924 19.8475 15.8338 19.8764C15.8338 19.6093 15.8338 19.3423 15.8338 19.0741C16.3591 18.9072 16.8876 18.7548 17.4195 18.6179V21.4509C17.1346 21.5244 16.8498 21.6022 16.566 21.6846C16.5248 21.5711 16.4826 21.4565 16.4414 21.343C16.349 21.5333 16.2333 21.6902 16.0931 21.8148C15.9529 21.9394 15.7882 22.0318 15.5991 22.0941C15.3732 22.1675 15.1629 22.1831 14.967 22.1408C14.7712 22.0974 14.6232 22.0128 14.5219 21.8849C14.4207 21.7569 14.3572 21.6078 14.3328 21.4353C14.3072 21.2629 14.2949 20.9958 14.2949 20.6331V19.0652C14.2949 18.5611 14.3216 18.185 14.3739 17.9369C14.4262 17.6888 14.5776 17.4228 14.8279 17.1435C15.0783 16.8642 15.4032 16.6572 15.8027 16.5293C16.1966 16.4035 16.526 16.3902 16.7875 16.4814C17.049 16.5727 17.2203 16.724 17.3004 16.9299C17.3805 17.1357 17.4195 17.4562 17.4206 17.8879V18.116L17.4195 18.1172Z" fill="white"/>
<path d="M17.9484 16.0413C18.2711 15.9645 18.5938 15.8922 18.9176 15.8254C19.5663 15.693 20.0081 15.6474 20.2384 15.6596C20.4687 15.673 20.6579 15.7731 20.8037 15.9578C20.9494 16.1426 21.0229 16.4608 21.0229 16.9115C21.0229 17.3221 20.9717 17.6047 20.8682 17.7605C20.7647 17.9163 20.5622 18.0286 20.2595 18.1043C20.5333 18.1288 20.7169 18.1933 20.8115 18.2924C20.906 18.3925 20.9639 18.4882 20.9873 18.5794C21.0106 18.6707 21.0218 18.93 21.0218 19.3561V20.7482C20.5922 20.8049 20.1649 20.8706 19.7377 20.9462V19.1926C19.7377 18.9099 19.7154 18.7386 19.6709 18.6796C19.6264 18.6206 19.5084 18.6073 19.3193 18.644V21.0241C18.8608 21.112 18.4035 21.21 17.9473 21.319V16.0413H17.9484ZM19.3204 16.6488V17.8228C19.4751 17.7927 19.5841 17.7527 19.6464 17.6993C19.7087 17.6459 19.7399 17.5023 19.7399 17.2698V16.9793C19.7399 16.8124 19.7098 16.7078 19.6498 16.6667C19.5897 16.6255 19.4806 16.6188 19.3204 16.6488Z" fill="white"/>
<path d="M24.7429 18.3015C24.7429 18.8323 24.7295 19.2073 24.705 19.4287C24.6794 19.649 24.6004 19.8515 24.4669 20.0363C24.3334 20.221 24.152 20.3656 23.925 20.4713C23.6969 20.5771 23.4321 20.6383 23.1305 20.6572C22.8434 20.675 22.5864 20.6483 22.3583 20.5759C22.1302 20.5036 21.9466 20.3834 21.8086 20.2132C21.6695 20.0429 21.5871 19.8515 21.5615 19.6368C21.5348 19.422 21.5226 19.0437 21.5215 18.5007C21.5215 18.1991 21.5215 17.8987 21.5215 17.5971C21.5215 17.0675 21.5337 16.6903 21.5593 16.4666C21.5849 16.2429 21.6639 16.0326 21.7963 15.8357C21.9299 15.6387 22.109 15.4807 22.336 15.3628C22.563 15.2448 22.8278 15.1747 23.1294 15.1569C23.4165 15.1391 23.6746 15.1736 23.9027 15.2571C24.1309 15.3416 24.3156 15.4751 24.4547 15.6576C24.5938 15.8401 24.6772 16.0404 24.7028 16.2574C24.7295 16.4744 24.7429 16.8549 24.7429 17.398V18.3015ZM23.3486 16.6113C23.3486 16.3653 23.3352 16.2096 23.3074 16.1428C23.2796 16.076 23.2229 16.0449 23.1372 16.0504C23.0637 16.0549 23.0081 16.086 22.9703 16.1439C22.9313 16.2018 22.9124 16.3665 22.9124 16.638V19.1027C22.9124 19.4087 22.9247 19.5967 22.9502 19.6668C22.9758 19.7369 23.0348 19.7692 23.1272 19.7625C23.2217 19.757 23.2829 19.7125 23.3097 19.6279C23.3364 19.5433 23.3497 19.3464 23.3497 19.0359V16.6101L23.3486 16.6113Z" fill="white"/>
<path d="M28.4282 15.4038V18.9312C28.4282 19.3307 28.4149 19.61 28.3882 19.7691C28.3615 19.9282 28.2836 20.0851 28.1534 20.242C28.0232 20.3989 27.8529 20.5113 27.6393 20.5803C27.4268 20.6493 27.1764 20.6738 26.8871 20.656C26.5677 20.6359 26.284 20.5714 26.0392 20.4579C25.7944 20.3455 25.6108 20.2053 25.4895 20.0362C25.3682 19.867 25.2959 19.6901 25.2736 19.5032C25.2514 19.3173 25.2402 18.9268 25.2402 18.3315C25.2402 17.2899 25.2402 16.2495 25.2402 15.208C25.7054 15.2113 26.1705 15.2258 26.6345 15.2514C26.6345 16.5711 26.6345 17.8897 26.6345 19.2094C26.6345 19.4398 26.6467 19.5877 26.6723 19.6534C26.6979 19.719 26.7491 19.7535 26.8259 19.758C26.9138 19.7636 26.9705 19.7313 26.9961 19.6623C27.0217 19.5933 27.034 19.4275 27.034 19.1649V15.2759C27.498 15.307 27.962 15.3493 28.4249 15.4016L28.4282 15.4038Z" fill="white"/>
<path d="M32.0413 16.0394V21.3172C31.6418 21.2215 31.2412 21.1347 30.8395 21.0557C30.6014 20.2089 30.3622 19.3654 30.1229 18.5242V20.9233C29.7379 20.8576 29.3529 20.7986 28.9668 20.7474V15.4697C29.3529 15.5209 29.739 15.5788 30.1229 15.6455C30.3811 16.4823 30.6381 17.3213 30.8952 18.1648V15.788C31.278 15.8636 31.6607 15.9471 32.0413 16.0383V16.0394Z" fill="white"/>
<path d="M32.5879 16.1763C32.9273 16.2642 33.2655 16.3576 33.6027 16.4578C34.2559 16.6514 34.6921 16.8328 34.9202 16.9719C35.1472 17.1121 35.3197 17.2745 35.4376 17.457C35.5556 17.6395 35.629 17.822 35.659 18.0034C35.688 18.1848 35.7036 18.5264 35.7036 19.026V20.8742C35.7036 21.3483 35.6824 21.6565 35.639 21.8C35.5956 21.9436 35.5211 22.0404 35.4131 22.0916C35.3052 22.1428 35.1728 22.1572 35.0137 22.1372C34.8556 22.1172 34.6153 22.0526 34.2948 21.9492C33.7296 21.7667 33.161 21.602 32.5879 21.454V16.1763ZM33.9432 17.4637C33.9432 18.621 33.9432 19.7782 33.9432 20.9354C34.1379 20.9955 34.257 20.9944 34.3015 20.9299C34.346 20.8653 34.3683 20.6562 34.3683 20.3045V18.2538C34.3683 18.0145 34.3605 17.8587 34.346 17.7864C34.3304 17.7141 34.2971 17.654 34.2436 17.605C34.1902 17.5561 34.0901 17.5082 33.9432 17.4626V17.4637Z" fill="white"/>
<path d="M27.7816 37.4834C29.3138 37.6336 30.529 37.3443 31.2389 37.114C31.6439 37.2464 32.5297 37.5168 33.5467 37.2442C35.3861 36.7501 35.6998 36.0157 35.6364 35.4694C35.5541 34.7683 34.4714 33.8537 33.0081 34.2821C32.1446 34.0962 31.4659 33.7824 29.9236 33.8603C27.3632 33.9894 24.025 34.9419 24.5369 36.2672C24.8551 37.0928 26.5498 37.3621 27.7827 37.4834H27.7816Z" fill="#C6DDFF" stroke="white" stroke-width="0.333821" stroke-miterlimit="10"/>
<path d="M26.9609 34.7116C26.9609 34.7116 29.7094 30.5934 33.1689 34.5503L26.9609 34.7116Z" fill="#C6DDFF"/>
<path d="M26.9609 34.7119C27.8611 32.8447 30.0688 31.8488 31.8859 33.1529C32.4211 33.5257 32.8484 34.0098 33.1689 34.5505C32.6748 34.1622 32.1864 33.7939 31.66 33.5279C29.8952 32.5643 28.2895 33.4289 26.9609 34.7119Z" fill="white"/>
<path d="M24.2562 24.9362C21.2563 24.4788 18.9952 24.9651 17.6922 25.3779C16.8721 25.063 15.0717 24.3675 13.2011 24.8883C10.7264 25.5771 9.46903 27.0893 9.81954 28.9298C10.1022 30.413 12.4 31.854 15.0984 31.1029C16.8176 31.5703 18.2207 32.2891 21.1739 32.2724C26.0778 32.2457 32.2446 30.5822 30.8725 27.7747C30.018 26.0266 26.6708 25.3045 24.2573 24.9373L24.2562 24.9362Z" fill="#C6DDFF" stroke="white" stroke-width="0.333821" stroke-miterlimit="10"/>
<path d="M17.8301 26.6944C17.8301 26.6944 24.2739 17.8982 29.2423 27.0894L17.8301 26.6944Z" fill="#C6DDFF"/>
<path d="M17.8301 26.6944C19.5904 23.907 23.2881 21.2298 26.4872 23.4408C27.7657 24.331 28.6503 25.7007 29.2423 27.0894C28.3944 25.841 27.4864 24.6436 26.2201 23.8514C23.2024 21.9408 19.892 24.5012 17.8301 26.6944Z" fill="white"/>
<path d="M23.9477 31.4062C23.9477 31.4062 20.4515 35.9807 16.7305 31.1313L23.9477 31.4062Z" fill="#C6DDFF"/>
<path d="M23.9477 31.4062C22.7192 33.4636 20.1455 34.4373 18.1359 32.8194C17.5439 32.3554 17.0765 31.7712 16.7305 31.1313C17.2601 31.6299 17.7931 32.1039 18.3851 32.46C20.3658 33.7374 22.3342 32.8461 23.9477 31.4062Z" fill="white"/>
<path d="M23.0581 36.2855C22.6742 34.4672 19.1413 35.1716 19.5574 36.6738C20.0426 38.4252 23.3652 37.7376 23.0581 36.2855Z" fill="#C6DDFF" stroke="white" stroke-width="0.333821" stroke-miterlimit="10"/>
<path d="M37.2363 24.7989C39.1028 25.4886 37.2982 28.8623 36.8112 27.8408C36.3728 26.9221 39.32 26.6785 39.3898 28.5911C39.4517 30.2773 36.4031 29.9838 36.7098 29.1519C37.1468 27.9698 38.9225 31.3145 37.1955 31.9135C35.7134 32.4281 34.6287 29.2795 35.5896 29.6349C36.7467 30.0627 34.1509 32.1662 33.0834 30.7209C31.8434 29.0426 35.2316 27.417 34.9683 28.5082C34.7248 29.5178 31.8579 27.754 33.0136 26.235C33.8784 25.0977 36.8638 26.8615 35.7634 27.5052C34.6103 28.1791 35.1421 24.0262 37.2363 24.8002V24.7989Z" fill="#FFFDC2" stroke="white" stroke-width="0.394889" stroke-miterlimit="10"/>
<path d="M66.7734 24.1562H53.9609V25.3438H59.7422V27.9219H61.2109V25.3438H66.7734V24.1562ZM55.5547 30.5312H65.3516V29.3281H57.0234V26.7031H55.5547V30.5312ZM55.6484 22.9219H65.0859V17.2656H63.6016V18.9688H57.1172V17.2656H55.6484V22.9219ZM57.1172 21.7344V20.0781H63.6016V21.7344H57.1172ZM72.3984 17.4688C70.2969 17.4609 68.7812 18.6406 68.7891 20.375C68.7812 22.0938 70.2969 23.2812 72.3984 23.2656C74.5078 23.2812 76.0312 22.0938 76.0391 20.375C76.0312 18.6406 74.5078 17.4609 72.3984 17.4688ZM67.7891 24.3594L67.9922 25.5938C69.1016 25.5859 70.3828 25.5781 71.7422 25.5156V30.3906H73.2266V25.4297C74.5156 25.3438 75.8359 25.1953 77.1172 24.9531L77.0078 23.8438C73.9453 24.3047 70.375 24.3594 67.7891 24.3594ZM70.2266 20.375C70.2109 19.3516 71.125 18.6641 72.3984 18.6719C73.7031 18.6641 74.6172 19.3516 74.6172 20.375C74.6172 21.3906 73.7031 22.0625 72.3984 22.0469C71.125 22.0625 70.2109 21.3906 70.2266 20.375ZM77.9766 30.8281H79.4453V16.8438H77.9766V30.8281ZM93.2734 16.8281H91.7734V30.8281H93.2734V16.8281ZM81.7734 27.0781L82.5547 28.2812C87.3594 25.9766 89.1016 22.4297 89.1016 18.3281H82.4453V19.5156H87.6016C87.3125 22.7812 85.4922 25.3047 81.7734 27.0781ZM106.367 16.8281H104.883V30.8125H106.367V23.6406H108.539V22.4062H106.367V16.8281ZM95.4766 27.0781L96.3047 28.2344C100.914 25.9609 102.695 22.3438 102.711 18.2969H96.1797V19.5312H101.195C100.891 22.7969 98.9844 25.3281 95.4766 27.0781ZM120.305 21H118.836V22.5312H113.18V23.7344H125.992V22.5312H120.305V21ZM113.836 20.7188L114.32 21.8281C116.789 21.6172 118.836 20.7109 119.586 19.3203C120.32 20.7188 122.367 21.6172 124.836 21.8281L125.32 20.7188C122.789 20.5469 120.82 19.5859 120.578 18.375H124.82V17.2344H114.367V18.375H118.562C118.32 19.5781 116.328 20.5469 113.836 20.7188ZM114.367 26.5938H124.773V25.4531H120.305V24.2188H118.836V25.4531H114.367V26.5938ZM115.32 29.0312C115.312 30.2578 116.836 30.8984 119.555 30.8906C122.273 30.8984 123.828 30.2578 123.836 29.0312C123.828 27.8203 122.273 27.1953 119.555 27.1875C116.836 27.1953 115.312 27.8203 115.32 29.0312ZM116.836 29.0312C116.82 28.4688 117.805 28.2109 119.555 28.2031C121.336 28.2109 122.297 28.4688 122.305 29.0312C122.297 29.5938 121.336 29.8906 119.555 29.875C117.805 29.8906 116.82 29.5938 116.836 29.0312ZM130.773 17.875C128.68 17.8828 127.188 19.7891 127.195 22.7812C127.188 25.8047 128.68 27.7109 130.773 27.7031C132.867 27.7109 134.359 25.8047 134.367 22.7812C134.359 19.7891 132.867 17.8828 130.773 17.875ZM128.617 22.7812C128.609 20.5859 129.5 19.2109 130.773 19.2031C132.07 19.2109 132.945 20.5859 132.945 22.7812C132.945 25.0078 132.07 26.375 130.773 26.375C129.5 26.375 128.609 25.0078 128.617 22.7812ZM136.445 30.8281H137.93V23.5625H140.18V22.3125H137.93V16.8281H136.445V30.8281ZM153.664 27.8438H150.602V24.1562C151.727 23.5234 152.398 22.5312 152.398 21.2969C152.398 19.0938 150.234 17.6484 147.227 17.6406C144.227 17.6484 142.062 19.0938 142.07 21.2969C142.062 22.5547 142.766 23.5547 143.914 24.1875V27.8438H140.852V29.0781H153.664V27.8438ZM143.508 21.2969C143.508 19.7891 145.031 18.8281 147.227 18.8281C149.406 18.8281 150.953 19.7891 150.961 21.2969C150.953 22.7969 149.406 23.7734 147.227 23.7812C145.031 23.7734 143.508 22.7969 143.508 21.2969ZM145.383 27.8438V24.7344C145.945 24.8672 146.57 24.9375 147.227 24.9375C147.898 24.9375 148.531 24.8672 149.102 24.7344V27.8438H145.383ZM157.258 18.1875H155.43L155.57 26.2344H157.117L157.258 18.1875ZM155.242 28.5C155.234 29.1094 155.742 29.6016 156.352 29.6094C156.953 29.6016 157.453 29.1094 157.461 28.5C157.453 27.8906 156.953 27.3906 156.352 27.3906C155.742 27.3906 155.234 27.8906 155.242 28.5Z" fill="white"/>
</svg>
