<svg width="28" height="28" viewBox="0 0 28 28" fill="none" xmlns="http://www.w3.org/2000/svg">
<path d="M27.9989 4.17339C27.9726 5.35573 27.5317 6.3517 26.6996 7.18377C23.4668 10.4161 20.2356 13.6507 17.0033 16.8847C14.3484 19.5415 11.6907 22.1956 9.04173 24.8585C8.80291 25.0986 8.51261 25.2027 8.21463 25.3113C7.07421 25.7284 5.93269 26.1433 4.79173 26.5583C3.61187 26.9869 2.43201 27.415 1.2516 27.8426C1.13603 27.8842 1.0199 27.9231 0.903231 27.962C0.638119 28.0503 0.403133 27.9796 0.214159 27.7916C0.0180635 27.5959 -0.0580741 27.3569 0.0421646 27.0795C0.385058 26.134 0.724664 25.1879 1.06756 24.2424C1.4225 23.2629 1.77854 22.2833 2.13513 21.3038C2.36847 20.6625 2.59743 20.019 2.84227 19.382C2.89431 19.2472 2.98852 19.1184 3.09205 19.0148C5.57337 16.5257 8.05852 14.0404 10.5431 11.5546C13.9589 8.13698 17.3758 4.71989 20.7888 1.29951C21.3311 0.755752 21.9555 0.357804 22.6972 0.151156C23.2806 -0.0110933 23.8727 -0.0423371 24.4703 0.0530389C25.6386 0.238858 26.5561 0.831395 27.2408 1.7868C27.6007 2.28944 27.8318 2.85238 27.9211 3.46739C27.9551 3.70145 27.9726 3.93769 27.9978 4.17339H27.9989ZM1.89028 26.094C1.96587 26.0825 2.00257 26.083 2.03489 26.0715C2.69329 25.8331 3.35114 25.593 4.00953 25.3535C5.20199 24.9193 6.395 24.4879 7.58526 24.0494C7.76602 23.9831 7.97526 23.9261 8.10398 23.7973C13.2107 18.7013 18.3097 13.5975 23.4115 8.49711C23.509 8.40009 23.5095 8.34363 23.4115 8.24606C22.1872 7.02755 20.9674 5.80465 19.7465 4.58285C19.6617 4.49808 19.5763 4.49881 19.4901 4.58505C14.3998 9.67835 9.30959 14.7716 4.22097 19.8666C4.15852 19.9291 4.09991 20.0064 4.06979 20.088C3.86109 20.646 3.66007 21.2073 3.4563 21.7675C3.00386 23.0118 2.55142 24.2561 2.09952 25.5004C2.0316 25.6867 1.96751 25.8747 1.89028 26.0945V26.094ZM26.5747 3.98538C26.5665 3.77599 26.5008 3.37914 26.3244 3.00586C26.1119 2.55474 25.7991 2.18639 25.3954 1.89752C25.0728 1.66676 24.7091 1.51602 24.3207 1.4497C24.0397 1.40201 23.7538 1.39104 23.4641 1.43106C22.9831 1.49684 22.5318 1.64538 22.1714 1.96385C21.6598 2.41551 21.1838 2.90774 20.6902 3.37969C20.6053 3.46081 20.6519 3.5096 20.7116 3.56935C21.9462 4.80321 23.1809 6.03761 24.4122 7.27476C24.4982 7.36082 24.5497 7.35698 24.6324 7.27257C24.9895 6.90751 25.3565 6.55286 25.7126 6.18725C26.2554 5.63089 26.5736 4.97368 26.5747 3.98538Z" fill="white"/>
</svg>
