<svg width="22" height="22" viewBox="0 0 22 22" fill="none" xmlns="http://www.w3.org/2000/svg">
<g clip-path="url(#clip0_3621_137836)">
<path d="M21.4394 3.53858C21.4198 4.42238 21.0902 5.16687 20.4682 5.78886C18.0516 8.20508 15.6363 10.6229 13.2201 13.0404C11.2355 15.0264 9.24887 17.0104 7.26878 19.0009C7.09026 19.1803 6.87325 19.2582 6.65051 19.3393C5.79803 19.6511 4.94474 19.9613 4.09186 20.2715C3.20991 20.5919 2.32795 20.9119 1.44559 21.2315C1.35919 21.2626 1.27239 21.2917 1.18518 21.3208C0.987004 21.3868 0.81135 21.3339 0.67009 21.1934C0.523508 21.0471 0.466594 20.8684 0.541523 20.6611C0.797839 19.9543 1.0517 19.2471 1.30801 18.5403C1.57334 17.8081 1.83948 17.0759 2.10603 16.3437C2.28045 15.8643 2.4516 15.3833 2.63463 14.9072C2.67353 14.8064 2.74395 14.7101 2.82134 14.6326C4.67614 12.772 6.53382 10.9143 8.39108 9.05611C10.9444 6.50139 13.4986 3.94708 16.0498 1.39032C16.4552 0.98386 16.922 0.68639 17.4764 0.531919C17.9124 0.410636 18.355 0.387281 18.8017 0.458576C19.6751 0.597477 20.3609 1.0404 20.8727 1.75458C21.1417 2.13031 21.3145 2.55111 21.3813 3.01083C21.4067 3.18579 21.4206 3.36239 21.4394 3.53858ZM20.3748 3.39804C20.3687 3.24152 20.3196 2.94487 20.1877 2.66583C20.0289 2.32862 19.7951 2.05328 19.4933 1.83734C19.2521 1.66484 18.9803 1.55217 18.69 1.50259C18.4799 1.46694 18.2662 1.45875 18.0496 1.48866C17.6901 1.53783 17.3527 1.64886 17.0833 1.88692C16.7009 2.22455 16.345 2.59249 15.9761 2.94528C15.9127 3.00592 15.9475 3.04238 15.9921 3.08704C16.915 4.00937 17.8379 4.9321 18.7583 5.85687C18.8226 5.9212 18.8611 5.91833 18.9229 5.85523C19.1899 5.58235 19.4642 5.31725 19.7304 5.04395C20.1361 4.62807 20.374 4.13679 20.3748 3.39804Z" fill="white"/>
</g>
<defs>
<clipPath id="clip0_3621_137836">
<rect width="20.9302" height="20.9302" fill="white" transform="translate(0.510254 0.4189)"/>
</clipPath>
</defs>
</svg>
