<svg width="334" height="106" viewBox="0 0 334 106" fill="none" xmlns="http://www.w3.org/2000/svg">
<path d="M285.154 103.432C303.536 109.445 309.437 84.5082 297.527 81.3385C283.642 77.6431 274.051 99.8007 285.154 103.432Z" fill="#FF4B56"/>
<path d="M317.112 62.3921C322.996 54.2895 323.423 46.5737 324.359 41.8764C326.469 40.0302 330.97 35.9271 332.649 29.3716C335.687 17.5168 332.325 13.4375 328.852 12.0738C324.395 10.3193 313.487 11.924 311.285 21.4621C307.368 25.7048 303.274 28.52 298.717 37.3962C291.15 52.138 287.879 75.3993 297.473 76.7192C306.559 77.9693 312.375 69.0295 317.112 62.5099V62.3921Z" fill="#FF4B56"/>
<path d="M133.46 103.968C144.853 107.726 150.423 89.8917 141.509 87.6347C131.121 85.0062 125.147 101.375 133.46 103.968Z" fill="#FF4B56"/>
<path d="M153.841 78.1817C147.133 105.181 166.536 106.086 173.716 101.588C185.048 94.4906 185.903 79.3421 184.097 79.3421C181.111 79.3421 168.195 103.969 189.641 105.193C211.095 106.417 214.752 79.5853 212.542 79.5853C209.536 79.5853 193.079 107.972 220.332 105.057C246.087 102.306 241.462 59.3248 241.462 59.3248C255.057 43.5582 249.868 26.3442 238.252 26.3442C218.617 26.3442 203.332 52.1991 207.089 52.3387C213.357 52.574 217.286 25.2875 202.065 25.2875C183.869 25.2875 158.49 59.4644 153.837 78.1777L153.841 78.1817Z" fill="#FF4B56"/>
<path d="M88.0113 17.6919C86.8521 14.9753 83.5981 10.4683 77.9779 7.2578C74.828 5.45575 70.2095 2.95527 60.3881 4.2441C52.6333 5.26281 46.9172 8.1376 43.1357 10.6651C42.9399 9.01354 40.006 5.56245 36.1686 5.56245C29.569 5.56245 20.001 13.3326 14.4327 23.3846C2.26893 45.3565 3.69049 69.2938 4.36603 78.443C5.81305 97.9838 16.3578 105.294 22.4377 105.294C31.7714 105.294 36.8006 96.4113 37.8439 89.8128C38.6913 84.453 38.6537 78.523 37.4265 73.6108C41.5877 74.0276 47.0211 75.7139 54.552 73.6108C65.6965 70.4968 73.6272 61.0027 76.829 57.7613C89.8322 45.6294 93.1838 29.8277 88.0113 17.6919ZM54.552 39.3627C49.1916 43.5958 44.0631 46.1079 43.0998 44.9734C42.1364 43.8389 45.702 39.4823 51.0624 35.2493C56.4228 31.0162 61.5513 28.5042 62.5147 29.6386C63.2264 30.4769 59.9124 35.1297 54.552 39.3627Z" fill="#FF4B56"/>
<path d="M37.8495 75.2121C37.8495 75.2121 36.1772 65.4909 29.4883 59.0101L37.8495 75.2121Z" fill="#FF4B56"/>
<path d="M259.997 72.7601C259.997 78.1906 283.461 64.7851 274.867 55.7614C268.595 49.178 253.553 54.1451 243.519 59.1677C243.519 59.1677 235.801 60.1339 235.158 69.2135C234.706 75.6055 243.223 77.5966 243.519 77.5846C234.045 79.3431 230.293 87.3903 229.63 92.3308C228.095 103.807 240.19 104.84 246.13 101.877C246.13 101.877 265.905 111.303 274.184 98.9142C281.443 88.0482 269.467 84.9459 263.623 86.4054C259.661 87.3943 256.364 88.7101 258.01 90.026C260.197 91.7725 276.774 87.1829 276.774 75.679C276.774 64.175 259.993 69.3588 259.993 72.7641L259.997 72.7601Z" fill="#FF4B56"/>
<path d="M104.595 14.525C90.0123 9.99795 79.3349 33.8479 91.8188 36.9928C111.396 42.4177 116.413 18.1939 104.595 14.525Z" fill="#FF4B56"/>
<path d="M76.8856 51.892C70.421 59.817 66.452 69.5719 65.4462 74.1515C63.12 75.9639 59.0914 80.4831 57.2748 86.8712C53.9915 98.4287 59.0052 102.623 62.8645 103.93C67.8137 105.607 77.761 102.463 80.1403 93.1646C84.456 89.0081 88.9666 86.2448 93.9557 77.5747C102.237 63.1802 109.723 45.7622 96.3447 42.4136C89.7206 41.6529 82.0874 45.5156 76.8856 51.892Z" fill="#FF4B56"/>
<path d="M112.63 74.9568C116.467 69.1395 120.265 68.2604 123.237 68.2604C126.773 71.6086 132.995 72.5355 135.171 70.3306C140.917 66.5863 141.789 56.4114 135.492 51.7584C130.239 47.8789 120.708 45.0919 110.862 50.3111C88.9707 61.9097 81.8709 96.2032 100.043 102.79C126.481 111.069 138.186 87.6297 129.102 80.3782C127.205 78.1175 121.377 77.3719 118.208 81.1198C112.63 85.9555 108.649 80.9894 112.63 74.9568Z" fill="#FF4B56"/>
<g style="mix-blend-mode:color-dodge">
<path d="M283.224 101.534C301.606 107.547 307.507 82.6095 295.598 79.4398C281.712 75.7444 272.122 97.902 283.224 101.534Z" fill="white" stroke="black" stroke-width="3" stroke-miterlimit="10" stroke-linecap="round" stroke-linejoin="round"/>
<path d="M315.182 60.4934C321.066 52.3908 321.494 44.675 322.429 39.9777C324.54 38.1315 329.041 34.0284 330.719 27.4729C333.757 15.6181 330.396 11.5389 326.922 10.1751C322.465 8.42063 311.558 10.0253 309.355 19.5634C305.438 23.8061 301.345 26.6213 296.788 35.4975C289.221 50.2393 285.95 73.5007 295.543 74.8205C304.629 76.0706 310.445 67.1308 315.182 60.6112V60.4934Z" fill="white" stroke="black" stroke-width="3" stroke-miterlimit="10" stroke-linecap="round" stroke-linejoin="round"/>
<path d="M131.534 102.081C142.927 105.839 148.497 88.0049 139.583 85.748C129.195 83.1195 123.222 99.4879 131.534 102.081Z" fill="white" stroke="black" stroke-width="3" stroke-miterlimit="10" stroke-linecap="round" stroke-linejoin="round"/>
<path d="M151.915 76.295C145.208 103.294 164.611 104.2 171.79 99.7016C183.122 92.6039 183.978 77.4553 182.171 77.4553C179.185 77.4553 166.27 102.082 187.715 103.306C209.169 104.53 212.826 77.6986 210.616 77.6986C207.61 77.6986 191.153 106.086 218.407 103.171C244.161 100.419 239.536 57.4381 239.536 57.4381C253.131 41.6715 247.943 24.4574 236.326 24.4574C216.692 24.4574 201.406 50.3124 205.163 50.452C211.431 50.6872 215.361 23.4008 200.139 23.4008C181.943 23.4008 156.564 57.5776 151.911 76.291L151.915 76.295Z" fill="white" stroke="black" stroke-width="3" stroke-miterlimit="10" stroke-linecap="round" stroke-linejoin="round"/>
<path d="M86.0738 15.8013C84.9146 13.0847 81.6606 8.57766 76.0404 5.36717C72.8905 3.56513 68.272 1.06465 58.4506 2.35347C50.6958 3.37219 44.9797 6.24697 41.1982 8.77446C41.0024 7.12291 38.0685 3.67183 34.2311 3.67183C27.6315 3.67183 18.0635 11.4419 12.4952 21.494C0.331427 43.4658 1.75299 67.4032 2.42853 76.5524C3.87555 96.0931 14.4203 103.403 20.5002 103.403C29.8339 103.403 34.8631 94.5207 35.9064 87.9222C36.7538 82.5624 36.7162 76.6324 35.489 71.7202C39.6502 72.1369 45.0836 73.8232 52.6145 71.7202C63.759 68.6062 71.6897 59.1121 74.8915 55.8707C87.8947 43.7387 91.2463 27.9371 86.0738 15.8013ZM52.6145 37.4721C47.2541 41.7052 42.1256 44.2172 41.1623 43.0827C40.1989 41.9483 43.7645 37.5917 49.1249 33.3587C54.4853 29.1256 59.6138 26.6135 60.5772 27.748C61.2889 28.5862 57.9749 33.239 52.6145 37.4721Z" fill="white" stroke="black" stroke-width="3" stroke-miterlimit="10" stroke-linecap="round" stroke-linejoin="round"/>
<path d="M35.912 73.3215C35.912 73.3215 34.2397 63.6003 27.5508 57.1195L35.912 73.3215Z" fill="white"/>
<path d="M35.912 73.3215C35.912 73.3215 34.2397 63.6003 27.5508 57.1195" stroke="black" stroke-width="3" stroke-miterlimit="10" stroke-linecap="round" stroke-linejoin="round"/>
<path d="M258.083 70.8578C258.083 76.2882 281.547 62.8828 272.953 53.8591C266.681 47.2757 251.638 52.2427 241.605 57.2654C241.605 57.2654 233.887 58.2316 233.244 67.3111C232.792 73.7031 241.309 75.6943 241.605 75.6823C232.131 77.4408 228.379 85.4879 227.715 90.4285C226.18 101.904 238.276 102.937 244.216 99.9745C244.216 99.9745 263.991 109.401 272.27 97.0118C279.529 86.1459 267.553 83.0436 261.709 84.503C257.747 85.4919 254.449 86.8078 256.096 88.1237C258.283 89.8702 274.86 85.2806 274.86 73.7766C274.86 62.2727 258.079 67.4565 258.079 70.8618L258.083 70.8578Z" fill="white" stroke="black" stroke-width="3" stroke-miterlimit="10" stroke-linecap="round" stroke-linejoin="round"/>
<path d="M102.7 12.6539C88.1178 8.12686 77.4404 31.9768 89.9243 35.1217C109.502 40.5466 114.518 16.3228 102.7 12.6539Z" fill="white" stroke="black" stroke-width="3" stroke-miterlimit="10" stroke-linecap="round" stroke-linejoin="round"/>
<path d="M74.991 50.0209C68.5264 57.9459 64.5575 67.7008 63.5517 72.2804C61.2255 74.0928 57.1969 78.612 55.3803 85.0001C52.097 96.5576 57.1107 100.751 60.97 102.059C65.9192 103.736 75.8664 100.592 78.2458 91.2935C82.5614 87.137 87.072 84.3737 92.0612 75.7036C100.342 61.3091 107.828 43.8911 94.4502 40.5425C87.8261 39.7818 80.1928 43.6445 74.991 50.0209Z" fill="white" stroke="black" stroke-width="3" stroke-miterlimit="10" stroke-linecap="round" stroke-linejoin="round"/>
<path d="M110.688 73.0662C114.526 67.2489 118.323 66.3697 121.296 66.3697C124.832 69.7179 131.053 70.6448 133.23 68.44C138.976 64.6956 139.848 54.5208 133.551 49.8678C128.298 45.9883 118.767 43.2012 108.92 48.4204C87.0293 60.0191 79.9295 94.3126 98.1016 100.899C124.539 109.179 136.245 85.7391 127.161 78.4876C125.263 76.2269 119.436 75.4813 116.266 79.2292C110.688 84.0648 106.707 79.0987 110.688 73.0662Z" fill="white" stroke="black" stroke-width="3" stroke-miterlimit="10" stroke-linecap="round" stroke-linejoin="round"/>
</g>
</svg>
