<svg width="24" height="24" viewBox="0 0 24 24" fill="none" xmlns="http://www.w3.org/2000/svg">
<g clip-path="url(#clip0_4330_189668)">
<path d="M23.32 11.13L20.77 8.58C20.63 8.44 20.43 8.36 20.22 8.36C20.01 8.36 19.81 8.44 19.68 8.58C19.53 8.73 19.45 8.92 19.45 9.13C19.45 9.34 19.53 9.53 19.68 9.68L20.9 10.9H12.64V2.64L13.86 3.86C14.16 4.16 14.65 4.16 14.96 3.86C15.26 3.56 15.26 3.07 14.96 2.76L12.42 0.22C12.28 0.08 12.08 0 11.87 0C11.66 0 11.46 0.08 11.32 0.22L8.77 2.77C8.47 3.07 8.47 3.56 8.77 3.87C9.07 4.17 9.56 4.17 9.87 3.87L11.09 2.65V10.91H2.65L3.87 9.69C4.02 9.54 4.1 9.35 4.1 9.14C4.1 8.93 4.02 8.74 3.87 8.59C3.73 8.45 3.53 8.37 3.32 8.37C3.11 8.37 2.91 8.45 2.77 8.59L0.23 11.13C0.08 11.28 0 11.47 0 11.68C0 11.89 0.08 12.08 0.23 12.23L2.78 14.78C3.08 15.08 3.58 15.07 3.88 14.78C4.03 14.63 4.11 14.44 4.11 14.23C4.11 14.02 4.03 13.83 3.88 13.68L2.66 12.46H11.11V20.91L9.89 19.69C9.59 19.39 9.1 19.39 8.8 19.69C8.65 19.84 8.57 20.03 8.57 20.24C8.57 20.45 8.65 20.64 8.8 20.79L11.34 23.33C11.49 23.48 11.68 23.56 11.89 23.56C12.1 23.56 12.29 23.48 12.44 23.33L14.99 20.79C15.29 20.49 15.29 20 14.99 19.69C14.69 19.39 14.2 19.39 13.89 19.69L12.67 20.91V12.46H20.93L19.71 13.68C19.56 13.83 19.48 14.02 19.48 14.23C19.48 14.44 19.56 14.63 19.71 14.78C20 15.07 20.51 15.07 20.81 14.78L23.36 12.23C23.51 12.08 23.59 11.89 23.59 11.68C23.59 11.47 23.51 11.28 23.36 11.13H23.32Z" fill="white"/>
</g>
<defs>
<clipPath id="clip0_4330_189668">
<rect width="23.55" height="23.54" fill="white"/>
</clipPath>
</defs>
</svg>
