<svg width="26" height="32" viewBox="0 0 26 32" fill="none" xmlns="http://www.w3.org/2000/svg">
<g clip-path="url(#clip0_1583_9717)">
<path d="M12.9892 31.9948C10.9456 31.9948 8.90205 31.9883 6.85917 31.9999C6.41051 32.0021 5.98265 31.9265 5.57838 31.7456C5.10753 31.5342 4.69077 31.2232 4.38565 30.7873C4.18039 30.4937 3.97999 30.1791 3.85933 29.8413C3.73173 29.4846 3.68597 29.0915 3.63118 28.71C3.57224 28.2981 3.5452 27.8818 3.5029 27.4676C3.41344 26.5907 3.33023 25.713 3.23245 24.8367C3.13398 23.9547 3.01471 23.0748 2.91555 22.1928C2.83026 21.4306 2.7623 20.667 2.68186 19.9041C2.65343 19.6338 2.60627 19.3657 2.57784 19.0954C2.48007 18.1589 2.39269 17.2202 2.28937 16.2844C2.1909 15.39 2.07301 14.4977 1.97039 13.6041C1.85735 12.6145 1.74918 11.6242 1.64447 10.6339C1.62436 10.445 1.54392 10.3353 1.36431 10.2989C0.564774 10.1384 0.0696544 9.41689 0.0266608 8.62784C-0.0052376 8.04877 -0.0128655 7.46462 0.0280477 6.887C0.0675741 6.32973 0.191701 5.78553 0.457983 5.28057C0.770727 4.68624 1.1861 4.20962 1.72491 3.83471C2.37674 3.38134 3.09307 3.20187 3.86418 3.20405C5.54994 3.20769 7.23501 3.20696 8.92078 3.20623C9.1198 3.20623 9.18221 3.12994 9.19399 2.92069C9.21688 2.5298 9.23976 2.13964 9.27651 1.7502C9.32298 1.26486 9.59134 0.905937 9.91864 0.590608C10.3403 0.18664 10.8305 -0.00880576 11.4116 -8.70051e-05C12.5198 0.0173505 13.6279 0.00717862 14.736 0.00427237C15.3996 0.00281925 15.8954 0.345757 16.3171 0.839819C16.6679 1.25105 16.781 1.75529 16.8066 2.28859C16.8156 2.4695 16.8115 2.65114 16.8115 2.83278C16.8115 3.15537 16.8552 3.20405 17.1582 3.20405C18.7802 3.20405 20.4021 3.19824 22.0241 3.20696C22.3861 3.20914 22.7543 3.2273 23.1086 3.29923C23.3846 3.35591 23.6585 3.47942 23.9061 3.62328C24.2154 3.80347 24.5115 4.01635 24.7847 4.25103C24.9768 4.41669 25.1231 4.6412 25.2868 4.84173C25.5447 5.15923 25.6966 5.54213 25.8089 5.92866C25.9122 6.28323 25.9601 6.66177 25.983 7.03377C26.0121 7.50385 25.9968 7.97684 25.9899 8.44911C25.9781 9.23307 25.6494 9.82522 24.983 10.195C24.8887 10.2474 24.7757 10.2677 24.6689 10.2873C24.4865 10.3207 24.3811 10.4181 24.3603 10.6186C24.2951 11.2311 24.2223 11.8429 24.1557 12.4547C24.042 13.4994 23.9325 14.5442 23.816 15.5883C23.6787 16.8242 23.5344 18.0601 23.3964 19.296C23.2799 20.3466 23.1711 21.3979 23.0539 22.4478C22.8992 23.8341 22.7363 25.2196 22.5823 26.6066C22.4915 27.4284 22.4194 28.253 22.323 29.074C22.2599 29.6073 22.0983 30.1159 21.7987 30.5533C21.4992 30.9907 21.1351 31.3627 20.6636 31.6156C20.1573 31.8873 19.6331 32.0014 19.0673 31.9977C17.041 31.9868 15.0148 31.9934 12.9885 31.9934V31.9919L12.9892 31.9948ZM12.9968 10.3578V10.3614C9.89715 10.3614 6.79745 10.3614 3.69776 10.3614C3.60553 10.3614 3.5133 10.3592 3.42038 10.3614C3.17628 10.3694 3.11942 10.4319 3.14577 10.6818C3.17004 10.91 3.21165 11.1359 3.23731 11.3641C3.29694 11.8981 3.34965 12.4329 3.40859 12.9669C3.5348 14.1069 3.66378 15.2468 3.79137 16.3875C3.86279 17.0233 3.93353 17.6597 4.00356 18.2962C4.11729 19.3345 4.23171 20.3727 4.34196 21.4117C4.44043 22.3424 4.52989 23.2746 4.62974 24.2046C4.74486 25.2734 4.8669 26.3407 4.98756 27.4088C5.03818 27.8527 5.11585 28.2952 5.14151 28.7406C5.16647 29.175 5.33428 29.5274 5.59294 29.8471C5.9563 30.2976 6.43478 30.4458 6.98121 30.4451C9.35973 30.44 11.7375 30.4429 14.1161 30.4422C15.8074 30.4422 17.4987 30.4363 19.19 30.4422C20.0908 30.4451 20.8376 29.5943 20.8612 28.7318C20.864 28.6236 20.8737 28.5146 20.8869 28.4071C20.986 27.5795 21.0935 26.7534 21.185 25.9258C21.2807 25.0554 21.3549 24.1821 21.4506 23.3117C21.5338 22.5561 21.6427 21.8033 21.7259 21.0477C21.8133 20.2558 21.8757 19.4602 21.9624 18.6682C22.0664 17.7201 22.1912 16.7741 22.2959 15.8259C22.3916 14.9555 22.4672 14.0829 22.5622 13.2117C22.6524 12.3834 22.7585 11.5566 22.8528 10.7291C22.8881 10.421 22.825 10.3578 22.5227 10.3578C19.3481 10.3578 16.1728 10.3578 12.9982 10.3578H12.9968ZM13.0031 8.82765C16.6561 8.82838 20.3099 8.82838 23.963 8.82765C24.0261 8.82765 24.0899 8.8262 24.153 8.81966C24.3832 8.79568 24.5052 8.66054 24.5066 8.41787C24.5094 7.96449 24.5219 7.50966 24.5032 7.05702C24.4782 6.45034 24.2563 5.91922 23.8527 5.48183C23.3784 4.96815 22.7862 4.73492 22.1108 4.73492C16.039 4.73274 9.96788 4.73347 3.89608 4.73274C3.32954 4.73274 2.81223 4.89913 2.3712 5.27113C1.83239 5.72595 1.53837 6.33045 1.49954 7.05193C1.47457 7.50385 1.49954 7.95868 1.4933 8.41206C1.49122 8.56173 1.53698 8.68234 1.6625 8.74046C1.76929 8.78914 1.89133 8.8182 2.00783 8.82184C2.34207 8.83274 2.67701 8.8262 3.01194 8.8262C6.34186 8.8262 9.67178 8.8262 13.0024 8.8262L13.0031 8.82765ZM13.0031 3.20551C13.0031 3.20551 13.0031 3.20769 13.0031 3.20841C13.6667 3.20841 14.3303 3.20841 14.994 3.20841C15.254 3.20841 15.3303 3.12704 15.331 2.85094C15.331 2.68166 15.3233 2.51164 15.3331 2.34308C15.3469 2.10259 15.2207 1.93112 15.0876 1.76619C14.9163 1.55476 14.6736 1.54676 14.435 1.54604C13.5232 1.54459 12.6113 1.54604 11.6994 1.54822C11.5843 1.54822 11.4678 1.54967 11.3541 1.5642C10.9498 1.61652 10.6821 1.93402 10.6766 2.36124C10.6745 2.51237 10.6766 2.66349 10.6766 2.81462C10.6759 3.14738 10.73 3.20478 11.0469 3.20478C11.6994 3.20478 12.3512 3.20478 13.0038 3.20478L13.0031 3.20551Z" fill="white"/>
<path d="M8.97962 12.8769C9.4262 12.874 9.66544 13.0883 9.73617 13.5933C9.84782 14.3881 9.92201 15.1881 10.0156 15.9858C10.103 16.7291 10.1959 17.4716 10.2861 18.2142C10.3159 18.4598 10.345 18.7053 10.3748 18.9517C10.4733 19.7603 10.5745 20.569 10.6695 21.3784C10.7583 22.134 10.8381 22.8903 10.9289 23.6452C11.0274 24.4663 11.13 25.2873 11.2389 26.1068C11.2728 26.3611 11.2638 26.5936 11.1189 26.8167C10.958 27.0644 10.5198 27.273 10.2223 27.0964C9.91993 26.917 9.76807 26.6656 9.7438 26.2972C9.71675 25.8881 9.63978 25.4834 9.59401 25.0758C9.45325 23.8225 9.32218 22.567 9.17587 21.3144C9.08919 20.5712 8.97338 19.8315 8.88462 19.0882C8.7917 18.3094 8.72236 17.5269 8.62943 16.748C8.53235 15.9328 8.41516 15.1205 8.316 14.3053C8.28687 14.0662 8.27647 13.8228 8.27994 13.5816C8.28618 13.158 8.57743 12.874 8.98101 12.8769H8.97962Z" fill="white"/>
<path d="M17.0218 12.8769C16.5752 12.874 16.336 13.0883 16.2653 13.5933C16.1536 14.3881 16.0794 15.1881 15.9858 15.9858C15.8984 16.7291 15.8055 17.4716 15.7153 18.2142C15.6855 18.4598 15.6564 18.7053 15.6266 18.9517C15.5281 19.7603 15.4269 20.569 15.3319 21.3784C15.2431 22.134 15.1634 22.8903 15.0725 23.6452C14.9741 24.4663 14.8714 25.2873 14.7626 26.1068C14.7286 26.3611 14.7376 26.5936 14.8825 26.8167C15.0434 27.0644 15.4817 27.273 15.7791 27.0964C16.0815 26.917 16.2334 26.6656 16.2576 26.2972C16.2847 25.8881 16.3616 25.4834 16.4074 25.0758C16.5482 23.8225 16.6792 22.567 16.8256 21.3144C16.9122 20.5712 17.028 19.8315 17.1168 19.0882C17.2097 18.3094 17.2791 17.5269 17.372 16.748C17.4691 15.9328 17.5863 15.1205 17.6854 14.3053C17.7145 14.0662 17.725 13.8228 17.7215 13.5816C17.7152 13.158 17.424 12.874 17.0204 12.8769H17.0218Z" fill="white"/>
</g>
<defs>
<clipPath id="clip0_1583_9717">
<rect width="26" height="32" fill="white"/>
</clipPath>
</defs>
</svg>
