<svg width="346" height="55" viewBox="0 0 346 55" fill="none" xmlns="http://www.w3.org/2000/svg">
<rect y="0.834595" width="346" height="54.1374" rx="18" fill="#FF5E67"/>
<path d="M73.5977 21.1627H72.1133V35.194H73.5977V21.1627ZM62.4883 27.1158C62.4883 30.1393 63.9961 32.0455 66.1133 32.0377C68.1914 32.0455 69.7227 30.1393 69.7227 27.1158C69.7227 24.1237 68.1914 22.2174 66.1133 22.2096C63.9961 22.2174 62.4883 24.1237 62.4883 27.1158ZM63.9258 27.1158C63.918 24.9205 64.8086 23.5455 66.1133 23.5377C67.3945 23.5455 68.2852 24.9205 68.2852 27.1158C68.2852 29.3424 67.3945 30.7096 66.1133 30.7096C64.8086 30.7096 63.918 29.3424 63.9258 27.1158ZM84.5977 24.7252V22.3346H83.1133V24.7252C83.1055 27.2877 81.6523 29.9752 79.5039 31.0065L80.4258 32.2096C82.0195 31.3815 83.2461 29.7018 83.8711 27.7174C84.4883 29.5846 85.668 31.1471 87.1914 31.944L88.1133 30.7565C86.0273 29.7408 84.582 27.2018 84.5977 24.7252ZM89.1602 35.1627H90.6445V28.0065H92.8945V26.7408H90.6445V21.1627H89.1602V35.1627ZM98.7539 24.0846V23.4752H101.832V22.2721H94.1133V23.4752H97.2539V24.0846C97.2461 25.9987 95.9023 27.8112 93.7227 28.5533L94.4883 29.7252C96.1523 29.1393 97.4023 27.9362 98.0273 26.4127C98.668 27.8112 99.8789 28.9127 101.488 29.444L102.254 28.2877C100.09 27.6002 98.7539 25.8971 98.7539 24.0846ZM96.0195 34.8658H105.598V33.6627H97.5195V30.4283H96.0195V34.8658ZM103.691 31.3971H105.176V21.1783H103.691V31.3971ZM113.77 21.3971C110.613 21.3893 108.762 22.2408 108.77 23.8033C108.762 25.3737 110.613 26.2252 113.77 26.2252C116.926 26.2252 118.762 25.3737 118.77 23.8033C118.762 22.2408 116.926 21.3893 113.77 21.3971ZM107.395 28.2721H120.16V27.0846H107.395V28.2721ZM108.926 30.4596H117.082V31.5533H108.941V35.0221H118.941V33.8815H110.395V32.6315H118.551V29.3502H108.926V30.4596ZM110.316 23.8033C110.309 22.9752 111.543 22.4908 113.77 22.4908C116.012 22.4908 117.246 22.9752 117.238 23.8033C117.246 24.6705 116.012 25.1158 113.77 25.1158C111.543 25.1158 110.309 24.6705 110.316 23.8033ZM130.066 23.7252V22.0221H128.598V23.6783C128.59 25.7877 127.293 27.733 125.113 28.5065L125.91 29.6783C127.559 29.0455 128.754 27.7721 129.355 26.1627C129.957 27.608 131.105 28.7643 132.629 29.3502L133.441 28.194C131.332 27.4518 130.074 25.6237 130.066 23.7252ZM127.66 34.8658H137.113V33.6627H129.16V30.444H127.66V34.8658ZM132.363 25.5846H135.316V31.6158H136.801V21.1783H135.316V24.3658H132.363V25.5846ZM145.004 22.1627H139.535V28.9908H140.441C142.668 28.9987 144.004 28.9362 145.645 28.6315L145.504 27.4127C144.059 27.6862 142.832 27.7565 140.957 27.7721V26.069H144.848V24.9283H140.957V23.3658H145.004V22.1627ZM141.379 31.5533H149.426V35.1627H150.895V30.3502H141.379V31.5533ZM146.379 29.569H147.77V25.944H149.488V29.6783H150.895V21.1783H149.488V24.7408H147.77V21.4283H146.379V29.569ZM163.785 21.1783H162.301V31.6471H163.785V26.9127H165.816V25.6783H163.785V21.1783ZM152.801 24.0065H161.145V22.8033H157.723V21.1627H156.238V22.8033H152.801V24.0065ZM153.566 27.319C153.559 28.9049 154.941 29.9362 156.973 29.944C158.98 29.9362 160.363 28.9049 160.363 27.319C160.363 25.7174 158.98 24.6705 156.973 24.6783C154.941 24.6705 153.559 25.7174 153.566 27.319ZM154.91 34.8658H164.379V33.6627H156.395V30.819H154.91V34.8658ZM155.004 27.319C154.988 26.3971 155.785 25.8268 156.973 25.819C158.16 25.8268 158.957 26.3971 158.973 27.319C158.957 28.233 158.16 28.7955 156.973 28.7877C155.785 28.7955 154.988 28.233 155.004 27.319ZM182.113 21.1627H180.629V35.194H182.113V21.1627ZM171.004 27.1158C171.004 30.1393 172.512 32.0455 174.629 32.0377C176.707 32.0455 178.238 30.1393 178.238 27.1158C178.238 24.1237 176.707 22.2174 174.629 22.2096C172.512 22.2174 171.004 24.1237 171.004 27.1158ZM172.441 27.1158C172.434 24.9205 173.324 23.5455 174.629 23.5377C175.91 23.5455 176.801 24.9205 176.801 27.1158C176.801 29.3424 175.91 30.7096 174.629 30.7096C173.324 30.7096 172.434 29.3424 172.441 27.1158ZM197.145 29.069H184.332V30.2877H187.52V35.1627H189.051V30.2877H192.395V35.1627H193.895V30.2877H197.145V29.069ZM185.723 24.7877C185.73 26.6549 187.746 27.8346 190.707 27.819C193.668 27.8346 195.699 26.6549 195.691 24.7877C195.699 22.8971 193.668 21.694 190.707 21.694C187.746 21.694 185.73 22.8971 185.723 24.7877ZM187.254 24.7877C187.246 23.608 188.629 22.8893 190.707 22.8815C192.793 22.8893 194.168 23.608 194.176 24.7877C194.168 25.9362 192.793 26.6471 190.707 26.6471C188.629 26.6471 187.246 25.9362 187.254 24.7877Z" fill="white"/>
<path d="M313.887 29.8346L318.03 25.8346L322.174 29.8346" stroke="white" stroke-width="2" stroke-linecap="round" stroke-linejoin="round"/>
<circle cx="26" cy="27.8345" r="18" fill="white"/>
<path d="M26 35.8812L24.9125 34.8912C21.05 31.3887 18.5 29.0787 18.5 26.2437C18.5 23.9337 20.315 22.1187 22.625 22.1187C23.93 22.1187 25.1825 22.7262 26 23.6862C26.8175 22.7262 28.07 22.1187 29.375 22.1187C31.685 22.1187 33.5 23.9337 33.5 26.2437C33.5 29.0787 30.95 31.3887 27.0875 34.8987L26 35.8812Z" fill="#FF5E67"/>
</svg>
