<svg width="346" height="55" viewBox="0 0 346 55" fill="none" xmlns="http://www.w3.org/2000/svg">
<rect y="0.834473" width="346" height="54.1374" rx="18" fill="#FF5E67"/>
<path d="M72.1797 34.0649H70.6484V21.6919H72.1797V34.0649ZM62.2949 26.9556C62.2949 26.0851 62.4316 25.3195 62.7051 24.6587C62.9785 23.9979 63.359 23.4897 63.8467 23.1343C64.3389 22.7743 64.8971 22.5942 65.5215 22.5942C66.1367 22.5942 66.6882 22.7743 67.1758 23.1343C67.668 23.4897 68.0531 23.9979 68.3311 24.6587C68.609 25.3195 68.748 26.0851 68.748 26.9556C68.748 27.8351 68.609 28.6053 68.3311 29.2661C68.0531 29.9269 67.668 30.4373 67.1758 30.7974C66.6882 31.1528 66.1367 31.3306 65.5215 31.3306C64.8971 31.3306 64.3389 31.1528 63.8467 30.7974C63.359 30.4373 62.9785 29.9269 62.7051 29.2661C62.4316 28.6053 62.2949 27.8351 62.2949 26.9556ZM63.7578 26.9556C63.7578 27.5799 63.8307 28.1177 63.9766 28.5688C64.127 29.02 64.3343 29.3641 64.5986 29.6011C64.863 29.8381 65.1706 29.9588 65.5215 29.9634C65.8678 29.9588 66.1732 29.8381 66.4375 29.6011C66.7018 29.3641 66.9069 29.02 67.0527 28.5688C67.1986 28.1177 67.2715 27.5799 67.2715 26.9556C67.2715 26.3358 67.1986 25.8026 67.0527 25.356C66.9069 24.9048 66.7018 24.5607 66.4375 24.3237C66.1732 24.0822 65.8678 23.9614 65.5215 23.9614C65.1706 23.9614 64.863 24.0822 64.5986 24.3237C64.3343 24.5607 64.127 24.9048 63.9766 25.356C63.8307 25.8026 63.7578 26.3358 63.7578 26.9556ZM81.7363 24.6587C81.7318 25.4015 81.848 26.1261 82.085 26.8325C82.3265 27.5389 82.6729 28.1724 83.124 28.7329C83.5798 29.2889 84.1198 29.7173 84.7441 30.0181L83.8145 31.2349C83.1582 30.9022 82.5885 30.4282 82.1055 29.813C81.627 29.1978 81.2533 28.4868 80.9844 27.6802C80.7064 28.5415 80.3145 29.3026 79.8086 29.9634C79.3073 30.6196 78.7103 31.1209 78.0176 31.4673L77.0879 30.2505C77.7305 29.9451 78.2865 29.5008 78.7559 28.9175C79.2298 28.3296 79.5898 27.6665 79.8359 26.9282C80.0866 26.1854 80.2142 25.4289 80.2188 24.6587V22.6899H81.7363V24.6587ZM85.4824 21.6919H87V26.5317H88.9004V27.8306H87V34.0513H85.4824V21.6919ZM94.1094 24.2075C94.1094 24.7271 94.2256 25.2284 94.458 25.7114C94.6904 26.1945 95.0345 26.6252 95.4902 27.0034C95.946 27.3771 96.4928 27.6619 97.1309 27.8579L96.3516 29.0474C95.6634 28.8241 95.0664 28.4937 94.5605 28.0562C94.0547 27.6141 93.6559 27.0923 93.3643 26.4907C93.0817 27.1424 92.6784 27.7098 92.1543 28.1929C91.6348 28.6759 91.015 29.0428 90.2949 29.2935L89.5156 28.0903C90.1582 27.8761 90.7096 27.5708 91.1699 27.1743C91.6302 26.7733 91.9788 26.3175 92.2158 25.8071C92.4528 25.2922 92.5736 24.759 92.5781 24.2075V23.8521H89.9121V22.6353H96.707V23.8521H94.1094V24.2075ZM91.5391 29.854H93.0703V32.5747H100.057V33.8052H91.5391V29.854ZM98.1836 21.7056H99.7148V30.6743H98.1836V21.7056ZM107.139 21.8833C108.077 21.8833 108.88 21.9653 109.545 22.1294C110.21 22.2935 110.718 22.535 111.069 22.854C111.42 23.1685 111.596 23.5513 111.596 24.0024C111.596 24.4582 111.42 24.8455 111.069 25.1646C110.718 25.4836 110.21 25.7251 109.545 25.8892C108.88 26.0487 108.077 26.1307 107.139 26.1353C106.2 26.1307 105.398 26.0487 104.732 25.8892C104.067 25.7251 103.559 25.4836 103.208 25.1646C102.857 24.8455 102.682 24.4582 102.682 24.0024C102.682 23.5513 102.857 23.1685 103.208 22.854C103.559 22.535 104.067 22.2957 104.732 22.1362C105.398 21.9722 106.2 21.8879 107.139 21.8833ZM101.52 26.7915H112.785V28.0083H101.52V26.7915ZM102.846 28.8423H111.377V31.8638H104.35V32.7798H111.719V33.9419H102.859V30.7837H109.887V29.9634H102.846V28.8423ZM104.281 24.0024C104.277 24.3397 104.514 24.5903 104.992 24.7544C105.471 24.9185 106.186 25.0005 107.139 25.0005C108.1 25.0005 108.82 24.9185 109.299 24.7544C109.782 24.5903 110.023 24.3397 110.023 24.0024C110.023 23.6834 109.777 23.4373 109.285 23.2642C108.798 23.091 108.082 23.0044 107.139 23.0044C106.204 23.0044 105.493 23.091 105.006 23.2642C104.518 23.4373 104.277 23.6834 104.281 24.0024ZM121.439 23.8794C121.435 24.4354 121.542 24.9709 121.761 25.4858C121.984 26.0008 122.314 26.4588 122.752 26.8599C123.189 27.2563 123.718 27.5617 124.338 27.7759L123.504 28.9653C122.848 28.7192 122.283 28.366 121.809 27.9058C121.335 27.4455 120.963 26.9054 120.694 26.2856C120.425 26.9784 120.038 27.5799 119.532 28.0903C119.026 28.6007 118.418 28.9881 117.707 29.2524L116.9 28.0493C117.543 27.8306 118.09 27.5093 118.541 27.0854C118.992 26.6616 119.332 26.1717 119.56 25.6157C119.787 25.0597 119.904 24.4764 119.908 23.8657V22.4575H121.439V23.8794ZM119.143 29.8813H120.688V32.5747H127.564V33.8052H119.143V29.8813ZM123.312 24.4263H125.773V21.7056H127.291V30.8794H125.773V25.6704H123.312V24.4263ZM134.359 23.77H130.969V24.9731H134.236V26.1353H130.969V27.4341C131.766 27.425 132.448 27.3999 133.013 27.3589C133.582 27.3179 134.154 27.2427 134.729 27.1333L134.893 28.3638C134.236 28.4868 133.596 28.5711 132.972 28.6167C132.347 28.6577 131.573 28.6782 130.647 28.6782H130.326H129.506V22.5532H134.359V23.77ZM131.146 29.772H139.609V34.0513H138.092V31.0024H131.146V29.772ZM135.453 21.938H136.875V24.7954H138.16V21.7056H139.609V29.2251H138.16V26.0122H136.875V29.1294H135.453V21.938ZM150.889 25.5884H152.611V26.8462H150.889V30.9341H149.371V21.7056H150.889V25.5884ZM141.154 23.0728H144.066V21.6919H145.584V23.0728H148.482V24.2896H141.154V23.0728ZM141.783 27.1606C141.783 26.6912 141.911 26.2788 142.166 25.9233C142.421 25.5633 142.779 25.2853 143.239 25.0894C143.7 24.8934 144.226 24.7954 144.818 24.7954C145.406 24.7954 145.928 24.8934 146.384 25.0894C146.844 25.2853 147.202 25.5633 147.457 25.9233C147.712 26.2788 147.84 26.6912 147.84 27.1606C147.84 27.6255 147.712 28.0356 147.457 28.3911C147.202 28.742 146.846 29.0155 146.391 29.2114C145.935 29.4028 145.411 29.4985 144.818 29.4985C144.221 29.4985 143.693 29.4028 143.232 29.2114C142.777 29.0155 142.421 28.742 142.166 28.3911C141.911 28.0356 141.783 27.6255 141.783 27.1606ZM142.973 30.2095H144.49V32.5747H151.381V33.8052H142.973V30.2095ZM143.26 27.1606C143.255 27.5252 143.392 27.8101 143.67 28.0151C143.952 28.2202 144.328 28.3228 144.798 28.3228C145.281 28.3228 145.666 28.2225 145.953 28.022C146.245 27.8169 146.391 27.5298 146.391 27.1606C146.391 26.7915 146.247 26.5021 145.96 26.2925C145.673 26.0783 145.292 25.9712 144.818 25.9712C144.344 25.9712 143.964 26.0783 143.677 26.2925C143.394 26.5021 143.255 26.7915 143.26 27.1606ZM166.844 34.0649H165.312V21.6919H166.844V34.0649ZM156.959 26.9556C156.959 26.0851 157.096 25.3195 157.369 24.6587C157.643 23.9979 158.023 23.4897 158.511 23.1343C159.003 22.7743 159.561 22.5942 160.186 22.5942C160.801 22.5942 161.352 22.7743 161.84 23.1343C162.332 23.4897 162.717 23.9979 162.995 24.6587C163.273 25.3195 163.412 26.0851 163.412 26.9556C163.412 27.8351 163.273 28.6053 162.995 29.2661C162.717 29.9269 162.332 30.4373 161.84 30.7974C161.352 31.1528 160.801 31.3306 160.186 31.3306C159.561 31.3306 159.003 31.1528 158.511 30.7974C158.023 30.4373 157.643 29.9269 157.369 29.2661C157.096 28.6053 156.959 27.8351 156.959 26.9556ZM158.422 26.9556C158.422 27.5799 158.495 28.1177 158.641 28.5688C158.791 29.02 158.998 29.3641 159.263 29.6011C159.527 29.8381 159.835 29.9588 160.186 29.9634C160.532 29.9588 160.837 29.8381 161.102 29.6011C161.366 29.3641 161.571 29.02 161.717 28.5688C161.863 28.1177 161.936 27.5799 161.936 26.9556C161.936 26.3358 161.863 25.8026 161.717 25.356C161.571 24.9048 161.366 24.5607 161.102 24.3237C160.837 24.0822 160.532 23.9614 160.186 23.9614C159.835 23.9614 159.527 24.0822 159.263 24.3237C158.998 24.5607 158.791 24.9048 158.641 25.356C158.495 25.8026 158.422 26.3358 158.422 26.9556ZM179.941 29.854H177.193V34.0513H175.648V29.854H172.914V34.0513H171.355V29.854H168.648V28.6235H179.941V29.854ZM169.838 24.8911C169.838 24.3397 170.022 23.8566 170.392 23.4419C170.761 23.0226 171.28 22.6991 171.95 22.4712C172.625 22.2433 173.397 22.1294 174.268 22.1294C175.143 22.1294 175.915 22.2433 176.585 22.4712C177.259 22.6991 177.784 23.0226 178.157 23.4419C178.535 23.8566 178.725 24.3397 178.725 24.8911C178.725 25.438 178.535 25.9165 178.157 26.3267C177.784 26.7323 177.259 27.0467 176.585 27.27C175.915 27.4888 175.143 27.5981 174.268 27.5981C173.393 27.5981 172.62 27.4888 171.95 27.27C171.28 27.0467 170.761 26.7323 170.392 26.3267C170.022 25.9165 169.838 25.438 169.838 24.8911ZM171.396 24.8911C171.396 25.201 171.513 25.4699 171.745 25.6978C171.982 25.9211 172.317 26.0942 172.75 26.2173C173.183 26.3358 173.689 26.395 174.268 26.395C174.851 26.395 175.359 26.3358 175.792 26.2173C176.225 26.0942 176.56 25.9211 176.797 25.6978C177.034 25.4699 177.152 25.201 177.152 24.8911C177.152 24.5721 177.034 24.2987 176.797 24.0708C176.56 23.8384 176.225 23.6629 175.792 23.5444C175.359 23.4214 174.851 23.3599 174.268 23.3599C173.689 23.3599 173.183 23.4214 172.75 23.5444C172.317 23.6629 171.982 23.8384 171.745 24.0708C171.513 24.2987 171.396 24.5721 171.396 24.8911Z" fill="white"/>
<path d="M313.886 29.8345L318.029 25.8345L322.173 29.8345" stroke="white" stroke-width="2" stroke-linecap="round" stroke-linejoin="round"/>
</svg>
