<svg width="18" height="24" viewBox="0 0 18 24" fill="none" xmlns="http://www.w3.org/2000/svg">
<g clip-path="url(#clip0_2122_45732)">
<path d="M8.99253 23.0732C7.57775 23.0732 6.16296 23.0687 4.74865 23.0767C4.43805 23.0782 4.14184 23.0259 3.86195 22.9007C3.53598 22.7543 3.24745 22.539 3.03622 22.2372C2.89412 22.034 2.75538 21.8162 2.67184 21.5823C2.58351 21.3353 2.55182 21.0632 2.5139 20.7991C2.47309 20.5139 2.45437 20.2257 2.42508 19.939C2.36315 19.3319 2.30554 18.7242 2.23785 18.1176C2.16968 17.507 2.08711 16.8978 2.01846 16.2872C1.95941 15.7595 1.91236 15.2309 1.85667 14.7027C1.83699 14.5156 1.80434 14.33 1.78466 14.1429C1.71697 13.4945 1.65648 12.8446 1.58495 12.1967C1.51678 11.5775 1.43516 10.9599 1.36411 10.3412C1.28586 9.65606 1.21097 8.97047 1.13848 8.28487C1.12455 8.15409 1.06887 8.07814 0.944526 8.05299C0.390997 7.94182 0.0482223 7.44234 0.0184575 6.89608C-0.00362603 6.49518 -0.00890687 6.09076 0.0194177 5.69088C0.046782 5.30507 0.132716 4.92832 0.317065 4.57873C0.53358 4.16727 0.821146 3.8373 1.19417 3.57775C1.64544 3.26388 2.14136 3.13963 2.6752 3.14114C3.84227 3.14366 5.00886 3.14316 6.17592 3.14265C6.31371 3.14265 6.35691 3.08984 6.36507 2.94497C6.38092 2.67436 6.39676 2.40424 6.4222 2.13463C6.45437 1.79862 6.64016 1.55014 6.86675 1.33184C7.15864 1.05216 7.49805 0.916856 7.90036 0.922892C8.66752 0.934964 9.43468 0.927922 10.2018 0.92591C10.6613 0.924904 11.0045 1.16232 11.2964 1.50437C11.5393 1.78907 11.6176 2.13815 11.6354 2.50736C11.6416 2.63261 11.6387 2.75836 11.6387 2.88411C11.6387 3.10744 11.669 3.14114 11.8788 3.14114C13.0017 3.14114 14.1246 3.13712 15.2475 3.14316C15.4981 3.14466 15.753 3.15724 15.9983 3.20704C16.1894 3.24627 16.379 3.33178 16.5504 3.43138C16.7645 3.55612 16.9695 3.7035 17.1586 3.86597C17.2916 3.98066 17.3929 4.13609 17.5062 4.27492C17.6848 4.49473 17.7899 4.75981 17.8677 5.02741C17.9392 5.27288 17.9724 5.53494 17.9882 5.79248C18.0084 6.11793 17.9978 6.44538 17.993 6.77234C17.9849 7.31508 17.7573 7.72503 17.2959 7.98106C17.2307 8.01727 17.1524 8.03136 17.0785 8.04494C16.9522 8.06808 16.8792 8.13548 16.8648 8.27431C16.8197 8.69834 16.7693 9.12187 16.7232 9.5454C16.6445 10.2687 16.5686 10.992 16.488 11.7149C16.3929 12.5705 16.2931 13.4261 16.1975 14.2817C16.1169 15.009 16.0415 15.7369 15.9604 16.4637C15.8533 17.4235 15.7405 18.3827 15.6339 19.3429C15.571 19.9118 15.5211 20.4827 15.4544 21.0511C15.4107 21.4203 15.2988 21.7724 15.0914 22.0753C14.884 22.3781 14.632 22.6356 14.3055 22.8106C13.9551 22.9988 13.5921 23.0777 13.2004 23.0752C11.7976 23.0677 10.3948 23.0722 8.99205 23.0722V23.0712L8.99253 23.0732ZM8.99782 8.09373V8.09625C6.85187 8.09625 4.70593 8.09625 2.55998 8.09625C2.49613 8.09625 2.43228 8.09474 2.36795 8.09625C2.19897 8.10178 2.1596 8.14504 2.17784 8.31807C2.19465 8.47601 2.22345 8.63245 2.24121 8.79039C2.2825 9.1601 2.31899 9.53031 2.35979 9.90002C2.44717 10.6892 2.53646 11.4785 2.62479 12.2682C2.67424 12.7083 2.72321 13.1489 2.7717 13.5896C2.85043 14.3084 2.92964 15.0272 3.00598 15.7464C3.07415 16.3908 3.13608 17.0362 3.20521 17.68C3.2849 18.4199 3.36939 19.1588 3.45293 19.8982C3.48797 20.2056 3.54174 20.5119 3.5595 20.8203C3.57679 21.1211 3.69297 21.365 3.87203 21.5863C4.12359 21.8982 4.45485 22.0008 4.83315 22.0003C6.47981 21.9968 8.126 21.9988 9.77266 21.9983C10.9436 21.9983 12.1145 21.9943 13.2854 21.9983C13.909 22.0003 14.426 21.4113 14.4424 20.8142C14.4443 20.7393 14.451 20.6638 14.4601 20.5894C14.5288 20.0165 14.6032 19.4445 14.6666 18.8716C14.7328 18.269 14.7842 17.6644 14.8504 17.0618C14.908 16.5387 14.9834 16.0176 15.041 15.4944C15.1015 14.9462 15.1447 14.3954 15.2047 13.8471C15.2767 13.1907 15.3632 12.5358 15.4356 11.8793C15.5019 11.2767 15.5542 10.6726 15.62 10.0695C15.6824 9.49611 15.7559 8.92369 15.8211 8.35077C15.8456 8.13749 15.8019 8.09373 15.5926 8.09373C13.3948 8.09373 11.1966 8.09373 8.99878 8.09373H8.99782ZM9.00214 7.0344C11.5312 7.0349 14.0607 7.0349 16.5898 7.0344C16.6334 7.0344 16.6776 7.0334 16.7213 7.02887C16.8807 7.01227 16.9652 6.91871 16.9661 6.75071C16.9681 6.43683 16.9767 6.12195 16.9637 5.80858C16.9464 5.38857 16.7928 5.02087 16.5134 4.71806C16.185 4.36244 15.7751 4.20098 15.3075 4.20098C11.1039 4.19947 6.90084 4.19997 2.69729 4.19947C2.30506 4.19947 1.94693 4.31465 1.6416 4.57219C1.26858 4.88707 1.06503 5.30557 1.03814 5.80506C1.02086 6.11793 1.03814 6.43281 1.03382 6.74668C1.03238 6.8503 1.06406 6.9338 1.15096 6.97404C1.22489 7.00774 1.30938 7.02786 1.39004 7.03038C1.62143 7.03792 1.85331 7.0334 2.08519 7.0334C4.39052 7.0334 6.69585 7.0334 9.00166 7.0334L9.00214 7.0344ZM9.00214 3.14215C9.00214 3.14215 9.00214 3.14366 9.00214 3.14416C9.46157 3.14416 9.921 3.14416 10.3804 3.14416C10.5605 3.14416 10.6133 3.08783 10.6138 2.89668C10.6138 2.77948 10.6085 2.66178 10.6152 2.54508C10.6248 2.37859 10.5374 2.25988 10.4452 2.1457C10.3267 1.99932 10.1586 1.99379 9.99349 1.99329C9.36219 1.99228 8.73089 1.99329 8.09959 1.9948C8.0199 1.9948 7.93925 1.9958 7.86051 2.00586C7.58063 2.04208 7.39532 2.26189 7.39148 2.55766C7.39004 2.66228 7.39148 2.76691 7.39148 2.87153C7.391 3.10191 7.42844 3.14165 7.64784 3.14165C8.09959 3.14165 8.55086 3.14165 9.00262 3.14165L9.00214 3.14215Z" fill="white"/>
<path d="M6.21531 9.83782C6.52448 9.83581 6.69011 9.98419 6.73907 10.3338C6.81637 10.8841 6.86773 11.4379 6.93254 11.9902C6.99303 12.5048 7.05737 13.0188 7.11978 13.5329C7.14042 13.7029 7.16058 13.8729 7.18122 14.0434C7.2494 14.6033 7.31949 15.1631 7.38526 15.7235C7.44671 16.2466 7.50192 16.7702 7.56481 17.2929C7.63298 17.8613 7.70403 18.4296 7.7794 18.997C7.80292 19.1731 7.79668 19.334 7.69635 19.4885C7.58497 19.66 7.28156 19.8044 7.07561 19.6821C6.86629 19.5579 6.76116 19.3838 6.74435 19.1288C6.72563 18.8456 6.67234 18.5655 6.64066 18.2833C6.5432 17.4156 6.45247 16.5464 6.35117 15.6792C6.29116 15.1646 6.21099 14.6526 6.14954 14.138C6.08521 13.5988 6.0372 13.0571 5.97287 12.5178C5.90566 11.9535 5.82453 11.3911 5.75588 10.8267C5.73571 10.6612 5.72851 10.4927 5.73091 10.3257C5.73523 10.0325 5.93687 9.83581 6.21627 9.83782H6.21531Z" fill="white"/>
<path d="M11.7825 9.83782C11.4734 9.83581 11.3077 9.98419 11.2588 10.3338C11.1815 10.8841 11.1301 11.4379 11.0653 11.9902C11.0048 12.5048 10.9405 13.0188 10.8781 13.5329C10.8574 13.7029 10.8372 13.8729 10.8166 14.0434C10.7484 14.6033 10.6783 15.1631 10.6126 15.7235C10.5511 16.2466 10.4959 16.7702 10.433 17.2929C10.3649 17.8613 10.2938 18.4296 10.2184 18.997C10.1949 19.1731 10.2011 19.334 10.3015 19.4885C10.4129 19.66 10.7163 19.8044 10.9222 19.6821C11.1315 19.5579 11.2367 19.3838 11.2535 19.1288C11.2722 18.8456 11.3255 18.5655 11.3572 18.2833C11.4546 17.4156 11.5454 16.5464 11.6467 15.6792C11.7067 15.1646 11.7868 14.6526 11.8483 14.138C11.9126 13.5988 11.9606 13.0571 12.025 12.5178C12.0922 11.9535 12.1733 11.3911 12.242 10.8267C12.2621 10.6612 12.2693 10.4927 12.2669 10.3257C12.2626 10.0325 12.061 9.83581 11.7816 9.83782H11.7825Z" fill="white"/>
</g>
<defs>
<clipPath id="clip0_2122_45732">
<rect width="18" height="22.1538" fill="white" transform="translate(0 0.923065)"/>
</clipPath>
</defs>
</svg>
