<svg width="18" height="23" viewBox="0 0 18 23" fill="none" xmlns="http://www.w3.org/2000/svg">
<mask id="mask0_4330_189672" style="mask-type:luminance" maskUnits="userSpaceOnUse" x="0" y="0" width="18" height="23">
<path d="M18 0H0V22.15H18V0Z" fill="white"/>
</mask>
<g mask="url(#mask0_4330_189672)">
<path d="M17.9899 4.87C17.9699 4.61 17.9399 4.35 17.8699 4.1C17.7899 3.83 17.6899 3.57 17.5099 3.35C17.3999 3.21 17.2999 3.06 17.1599 2.94C16.9699 2.78 16.7699 2.63 16.5499 2.51C16.3799 2.41 16.1899 2.32 15.9999 2.29C15.7499 2.24 15.4999 2.23 15.2499 2.23C14.1299 2.23 12.9999 2.23 11.8799 2.23C11.6699 2.23 11.6399 2.2 11.6399 1.97C11.6399 1.84 11.6399 1.72 11.6399 1.59C11.6199 1.22 11.5399 0.87 11.2999 0.59C10.9999 0.24 10.6599 0 10.1999 0C9.42991 0 8.66991 0 7.89991 0C7.49991 0 7.15991 0.13 6.86991 0.41C6.63991 0.63 6.45991 0.88 6.42991 1.21C6.39991 1.48 6.38991 1.75 6.36991 2.02C6.36991 2.16 6.31991 2.22 6.17991 2.22C5.00991 2.22 3.84991 2.22 2.67991 2.22C2.14991 2.22 1.64991 2.34 1.19991 2.66C0.829911 2.92 0.53991 3.25 0.31991 3.66C0.13991 4.01 0.0499105 4.39 0.0199105 4.77C-0.0100895 5.17 -8.9528e-05 5.57 0.0199105 5.98C0.0499105 6.53 0.38991 7.03 0.94991 7.14C1.06991 7.17 1.12991 7.24 1.13991 7.37C1.20991 8.06 1.28991 8.74 1.36991 9.43C1.43991 10.05 1.51991 10.67 1.58991 11.29C1.65991 11.94 1.71991 12.59 1.78991 13.24C1.80991 13.43 1.83991 13.61 1.85991 13.8C1.91991 14.33 1.95991 14.86 2.01991 15.38C2.08991 15.99 2.16991 16.6 2.23991 17.21C2.30991 17.82 2.36991 18.42 2.42991 19.03C2.45991 19.32 2.47991 19.6 2.51991 19.89C2.55991 20.15 2.58991 20.43 2.67991 20.67C2.75991 20.9 2.89991 21.12 3.03991 21.32C3.24991 21.62 3.53991 21.84 3.86991 21.98C4.14991 22.11 4.44991 22.16 4.75991 22.16C6.16991 22.16 7.58991 22.16 8.99991 22.16C10.3999 22.16 11.8099 22.16 13.2099 22.16C13.5999 22.16 13.9599 22.08 14.3199 21.9C14.6499 21.72 14.8999 21.47 15.1099 21.16C15.3199 20.85 15.4299 20.51 15.4699 20.14C15.5399 19.57 15.5899 19 15.6499 18.43C15.7599 17.47 15.8699 16.51 15.9799 15.55C16.0599 14.82 16.1399 14.1 16.2199 13.37C16.3199 12.51 16.4199 11.66 16.5099 10.8C16.5899 10.08 16.6699 9.35 16.7499 8.63C16.7999 8.21 16.8499 7.78 16.8899 7.36C16.8999 7.22 16.9799 7.15 17.0999 7.13C17.1699 7.12 17.2499 7.1 17.3199 7.07C17.7799 6.81 18.0099 6.4 18.0199 5.86C18.0199 5.53 18.0399 5.21 18.0199 4.88L17.9899 4.87ZM7.38991 1.63C7.38991 1.33 7.57991 1.11 7.85991 1.08C7.93991 1.07 8.01991 1.07 8.09991 1.07C8.72991 1.07 9.35991 1.07 9.98991 1.07C10.1599 1.07 10.3199 1.07 10.4399 1.22C10.5299 1.33 10.6199 1.45 10.6099 1.62C10.6099 1.74 10.6099 1.85 10.6099 1.97C10.6099 2.16 10.5599 2.22 10.3799 2.22H8.99991H7.64991C7.42991 2.22 7.38991 2.18 7.38991 1.95C7.38991 1.85 7.38991 1.74 7.38991 1.64V1.63ZM7.69991 18.56C7.58991 18.73 7.28991 18.88 7.07991 18.75C6.86991 18.63 6.76991 18.45 6.74991 18.2C6.72991 17.92 6.67991 17.64 6.64991 17.35C6.54991 16.48 6.45991 15.61 6.35991 14.75C6.29991 14.24 6.21991 13.72 6.15991 13.21C6.09991 12.67 6.04991 12.13 5.97991 11.59C5.90991 11.03 5.82991 10.46 5.75991 9.9C5.73991 9.73 5.72991 9.57 5.73991 9.4C5.73991 9.11 5.94991 8.91 6.21991 8.91C6.52991 8.91 6.68991 9.06 6.73991 9.41C6.81991 9.96 6.86991 10.51 6.92991 11.07C6.98991 11.58 7.04991 12.1 7.11991 12.61C7.13991 12.78 7.15991 12.95 7.17991 13.12C7.24991 13.68 7.31991 14.24 7.37991 14.8C7.43991 15.32 7.49991 15.85 7.55991 16.37C7.62991 16.94 7.69991 17.51 7.76991 18.07C7.78991 18.25 7.78991 18.41 7.68991 18.56H7.69991ZM12.2499 9.9C12.1799 10.46 12.0999 11.03 12.0299 11.59C11.9699 12.13 11.9199 12.67 11.8499 13.21C11.7899 13.72 11.7099 14.24 11.6499 14.75C11.5499 15.62 11.4599 16.49 11.3599 17.35C11.3299 17.63 11.2799 17.91 11.2599 18.2C11.2399 18.46 11.1399 18.63 10.9299 18.75C10.7199 18.87 10.4199 18.73 10.3099 18.56C10.2099 18.41 10.1999 18.24 10.2299 18.07C10.3099 17.5 10.3799 16.93 10.4399 16.37C10.4999 15.85 10.5599 15.32 10.6199 14.8C10.6899 14.24 10.7599 13.68 10.8199 13.12C10.8399 12.95 10.8599 12.78 10.8799 12.61C10.9399 12.1 11.0099 11.58 11.0699 11.07C11.1299 10.52 11.1899 9.96 11.2599 9.41C11.3099 9.06 11.4699 8.91 11.7799 8.91C12.0599 8.91 12.2599 9.1 12.2599 9.4C12.2599 9.57 12.2599 9.74 12.2399 9.9H12.2499ZM16.7299 6.1C16.7299 6.1 16.6399 6.1 16.5999 6.1C14.0699 6.1 11.5399 6.1 9.00991 6.1C6.69991 6.1 4.39991 6.1 2.08991 6.1C1.85991 6.1 1.62991 6.1 1.38991 6.1C1.30991 6.1 1.21991 6.08 1.14991 6.04C1.05991 6 1.02991 5.92 1.02991 5.81C1.02991 5.5 1.01991 5.18 1.02991 4.87C1.05991 4.37 1.25991 3.95 1.62991 3.64C1.93991 3.38 2.28991 3.27 2.68991 3.27C6.88991 3.27 11.0999 3.27 15.2999 3.27C15.7699 3.27 16.1799 3.43 16.5099 3.79C16.7899 4.09 16.9399 4.46 16.9599 4.88C16.9699 5.19 16.9599 5.51 16.9599 5.82C16.9599 5.99 16.8699 6.08 16.7199 6.1H16.7299Z" fill="white"/>
</g>
</svg>
