<svg width="71" height="31" viewBox="0 0 71 31" fill="none" xmlns="http://www.w3.org/2000/svg">
<rect opacity="0.3" width="71" height="30.2623" rx="15.1311" fill="#F4F5F7"/>
<path d="M22.4822 15.42C22.4822 15.9733 22.4122 16.4767 22.2722 16.93C22.1388 17.3767 21.9322 17.7633 21.6522 18.09C21.3788 18.4167 21.0288 18.6667 20.6022 18.84C20.1822 19.0133 19.6888 19.1 19.1222 19.1C18.5488 19.1 18.0488 19.0133 17.6222 18.84C17.2022 18.66 16.8555 18.41 16.5822 18.09C16.3088 17.7633 16.1022 17.3733 15.9622 16.92C15.8288 16.4667 15.7622 15.9633 15.7622 15.41C15.7622 14.67 15.8822 14.0267 16.1222 13.48C16.3688 12.9333 16.7388 12.51 17.2322 12.21C17.7322 11.9033 18.3655 11.75 19.1322 11.75C19.8855 11.75 20.5088 11.9033 21.0022 12.21C21.4955 12.51 21.8655 12.9367 22.1122 13.49C22.3588 14.0367 22.4822 14.68 22.4822 15.42ZM17.1122 15.42C17.1122 15.96 17.1822 16.4233 17.3222 16.81C17.4688 17.1967 17.6888 17.4933 17.9822 17.7C18.2822 17.9067 18.6622 18.01 19.1222 18.01C19.5955 18.01 19.9788 17.9067 20.2722 17.7C20.5655 17.4933 20.7822 17.1967 20.9222 16.81C21.0622 16.4233 21.1322 15.96 21.1322 15.42C21.1322 14.6133 20.9755 13.98 20.6622 13.52C20.3488 13.06 19.8388 12.83 19.1322 12.83C18.6655 12.83 18.2822 12.9333 17.9822 13.14C17.6888 13.3467 17.4688 13.6433 17.3222 14.03C17.1822 14.4167 17.1122 14.88 17.1122 15.42ZM25.0626 19H23.8026V11.86H27.8526V12.93H25.0626V15.03H27.6626V16.1H25.0626V19ZM30.2434 19H28.9834V11.86H33.0334V12.93H30.2434V15.03H32.8434V16.1H30.2434V19Z" fill="#1E1F21"/>
<rect x="40.7368" width="30.2623" height="30.2623" rx="15.1311" fill="#FF5E67"/>
<path d="M55.0516 15.42C55.0516 15.9733 54.9816 16.4767 54.8416 16.93C54.7083 17.3767 54.5016 17.7633 54.2216 18.09C53.9483 18.4167 53.5983 18.6667 53.1716 18.84C52.7516 19.0133 52.2583 19.1 51.6916 19.1C51.1183 19.1 50.6183 19.0133 50.1916 18.84C49.7716 18.66 49.4249 18.41 49.1516 18.09C48.8783 17.7633 48.6716 17.3733 48.5316 16.92C48.3983 16.4667 48.3316 15.9633 48.3316 15.41C48.3316 14.67 48.4516 14.0267 48.6916 13.48C48.9383 12.9333 49.3083 12.51 49.8016 12.21C50.3016 11.9033 50.9349 11.75 51.7016 11.75C52.4549 11.75 53.0783 11.9033 53.5716 12.21C54.0649 12.51 54.4349 12.9367 54.6816 13.49C54.9283 14.0367 55.0516 14.68 55.0516 15.42ZM49.6816 15.42C49.6816 15.96 49.7516 16.4233 49.8916 16.81C50.0383 17.1967 50.2583 17.4933 50.5516 17.7C50.8516 17.9067 51.2316 18.01 51.6916 18.01C52.1649 18.01 52.5483 17.9067 52.8416 17.7C53.1349 17.4933 53.3516 17.1967 53.4916 16.81C53.6316 16.4233 53.7016 15.96 53.7016 15.42C53.7016 14.6133 53.5449 13.98 53.2316 13.52C52.9183 13.06 52.4083 12.83 51.7016 12.83C51.2349 12.83 50.8516 12.9333 50.5516 13.14C50.2583 13.3467 50.0383 13.6433 49.8916 14.03C49.7516 14.4167 49.6816 14.88 49.6816 15.42ZM62.442 19H60.852L57.472 13.4H57.432C57.4387 13.5467 57.4453 13.7033 57.452 13.87C57.4653 14.03 57.4753 14.1967 57.482 14.37C57.4887 14.5367 57.4953 14.7067 57.502 14.88C57.5087 15.0533 57.5153 15.2267 57.522 15.4V19H56.372V11.86H57.952L61.322 17.42H61.352C61.3453 17.2867 61.3387 17.1433 61.332 16.99C61.3253 16.83 61.3187 16.6667 61.312 16.5C61.312 16.3333 61.3087 16.1633 61.302 15.99C61.2953 15.8167 61.2887 15.65 61.282 15.49V11.86H62.442V19Z" fill="white"/>
</svg>
