<svg width="118" height="36" viewBox="0 0 118 36" fill="none" xmlns="http://www.w3.org/2000/svg">
<rect width="117.876" height="35.3629" rx="17.6815" fill="#FF5E67"/>
<path d="M27.4141 15.9961H29.6641C29.6328 13.9961 27.9844 12.6055 25.4766 12.6055C23 12.6055 21.1875 13.9727 21.1953 16.0273C21.1953 17.6836 22.3672 18.6367 24.2734 19.1055L25.5078 19.4023C26.7422 19.707 27.4453 20.0664 27.4453 20.8398C27.4453 21.6836 26.6484 22.2617 25.4141 22.2617C24.1641 22.2617 23.2578 21.6836 23.1797 20.543H20.8984C20.9688 22.9727 22.7109 24.2383 25.4453 24.2305C28.2031 24.2383 29.8125 22.9102 29.8203 20.8398C29.8125 18.957 28.3672 17.9727 26.4297 17.5273L25.4141 17.2773C24.4375 17.0586 23.5938 16.6914 23.6016 15.8711C23.6094 15.1211 24.2734 14.5742 25.4609 14.5742C26.6094 14.5742 27.3203 15.0977 27.4141 15.9961ZM35.1172 24.2461C37.6875 24.2383 39.2812 22.4805 39.2891 19.8555C39.2812 17.2383 37.6875 15.4805 35.1172 15.4805C32.5547 15.4805 30.9531 17.2383 30.9609 19.8555C30.9531 22.4805 32.5547 24.2383 35.1172 24.2461ZM33.3047 19.8555C33.3047 18.3633 33.9219 17.2461 35.1328 17.2461C36.3125 17.2461 36.9375 18.3633 36.9297 19.8555C36.9375 21.3398 36.3125 22.4414 35.1328 22.4492C33.9219 22.4414 33.3047 21.3398 33.3047 19.8555ZM43.0547 12.7617H40.7422V24.0742H43.0547V12.7617ZM50.2891 20.4648C50.2891 21.6211 49.4922 22.2227 48.6484 22.2305C47.7422 22.2227 47.1641 21.5977 47.1641 20.5898V15.5898H44.8516V20.9961C44.8516 22.9805 46.0156 24.1836 47.7109 24.1836C48.9922 24.1836 49.9062 23.5273 50.2891 22.543H50.3828V24.0742H52.6016V15.5898H50.2891V20.4648ZM58.8672 15.5898H57.2734V13.5586H54.9609V15.5898H53.7891V17.3242H54.9609V21.793C54.9453 23.4414 56.0859 24.1914 57.7578 24.1836C58.3281 24.1914 58.7422 24.1445 58.9922 24.1055V22.2773C58.7109 22.3008 58.3047 22.3242 58.0703 22.3242C57.6016 22.3086 57.2656 22.1445 57.2734 21.4648V17.3242H58.8672V15.5898ZM60.3203 24.0742H62.6328V15.5898H60.3203V24.0742ZM60.2109 13.3086C60.2109 13.9492 60.7812 14.4805 61.4766 14.4805C62.1641 14.4805 62.7344 13.9492 62.7266 13.3086C62.7344 12.6523 62.1641 12.1289 61.4766 12.1211C60.7812 12.1289 60.2109 12.6523 60.2109 13.3086ZM68.2422 24.2461C70.8125 24.2383 72.4062 22.4805 72.4141 19.8555C72.4062 17.2383 70.8125 15.4805 68.2422 15.4805C65.6797 15.4805 64.0781 17.2383 64.0859 19.8555C64.0781 22.4805 65.6797 24.2383 68.2422 24.2461ZM66.4297 19.8555C66.4297 18.3633 67.0469 17.2461 68.2578 17.2461C69.4375 17.2461 70.0625 18.3633 70.0547 19.8555C70.0625 21.3398 69.4375 22.4414 68.2578 22.4492C67.0469 22.4414 66.4297 21.3398 66.4297 19.8555ZM76.1797 19.168C76.1797 18.0508 76.8438 17.4023 77.8047 17.4023C78.7656 17.4023 79.3281 18.0273 79.3359 19.0742V24.0742H81.6328V18.668C81.6406 16.6914 80.4844 15.4805 78.7109 15.4805C77.4531 15.4805 76.5469 16.0977 76.1641 17.0742H76.0703V15.5898H73.8672V24.0742H76.1797V19.168ZM87.1016 24.0742H95.1953V22.1367H90.3672V22.0742L92.0859 20.4023C94.4141 18.293 95.0391 17.2383 95.0391 15.9492C95.0391 13.9883 93.4297 12.6055 91.0078 12.6055C88.625 12.6055 86.9844 14.0195 86.9922 16.2305H89.2266C89.2188 15.1445 89.9141 14.4727 90.9766 14.4805C92.0156 14.4727 92.7734 15.0977 92.7734 16.1055C92.7734 17.0039 92.2031 17.6289 91.1484 18.6367L87.0859 22.3711L87.1016 24.0742Z" fill="white"/>
</svg>
