<svg width="71" height="31" viewBox="0 0 71 31" fill="none" xmlns="http://www.w3.org/2000/svg">
<rect opacity="0.3" width="71" height="30.2623" rx="15.1311" fill="#F4F5F7"/>
<rect width="30.2623" height="30.2623" rx="15.1311" fill="#1E1F21"/>
<path d="M47.495 15.42C47.495 15.9733 47.425 16.4767 47.285 16.93C47.1516 17.3767 46.945 17.7633 46.665 18.09C46.3916 18.4167 46.0416 18.6667 45.615 18.84C45.195 19.0133 44.7016 19.1 44.135 19.1C43.5616 19.1 43.0616 19.0133 42.635 18.84C42.215 18.66 41.8683 18.41 41.595 18.09C41.3216 17.7633 41.115 17.3733 40.975 16.92C40.8416 16.4667 40.775 15.9633 40.775 15.41C40.775 14.67 40.895 14.0267 41.135 13.48C41.3816 12.9333 41.7516 12.51 42.245 12.21C42.745 11.9033 43.3783 11.75 44.145 11.75C44.8983 11.75 45.5216 11.9033 46.015 12.21C46.5083 12.51 46.8783 12.9367 47.125 13.49C47.3716 14.0367 47.495 14.68 47.495 15.42ZM42.125 15.42C42.125 15.96 42.195 16.4233 42.335 16.81C42.4816 17.1967 42.7016 17.4933 42.995 17.7C43.295 17.9067 43.675 18.01 44.135 18.01C44.6083 18.01 44.9916 17.9067 45.285 17.7C45.5783 17.4933 45.795 17.1967 45.935 16.81C46.075 16.4233 46.145 15.96 46.145 15.42C46.145 14.6133 45.9883 13.98 45.675 13.52C45.3616 13.06 44.8516 12.83 44.145 12.83C43.6783 12.83 43.295 12.9333 42.995 13.14C42.7016 13.3467 42.4816 13.6433 42.335 14.03C42.195 14.4167 42.125 14.88 42.125 15.42ZM54.8854 19H53.2954L49.9154 13.4H49.8754C49.882 13.5467 49.8887 13.7033 49.8954 13.87C49.9087 14.03 49.9187 14.1967 49.9254 14.37C49.932 14.5367 49.9387 14.7067 49.9454 14.88C49.952 15.0533 49.9587 15.2267 49.9654 15.4V19H48.8154V11.86H50.3954L53.7654 17.42H53.7954C53.7887 17.2867 53.782 17.1433 53.7754 16.99C53.7687 16.83 53.762 16.6667 53.7554 16.5C53.7554 16.3333 53.752 16.1633 53.7454 15.99C53.7387 15.8167 53.732 15.65 53.7254 15.49V11.86H54.8854V19Z" fill="#1E1F21"/>
<path d="M12.6789 15.42C12.6789 15.9733 12.6089 16.4767 12.4689 16.93C12.3356 17.3767 12.1289 17.7633 11.8489 18.09C11.5756 18.4167 11.2256 18.6667 10.7989 18.84C10.3789 19.0133 9.88561 19.1 9.31895 19.1C8.74561 19.1 8.24561 19.0133 7.81895 18.84C7.39895 18.66 7.05228 18.41 6.77895 18.09C6.50561 17.7633 6.29895 17.3733 6.15895 16.92C6.02561 16.4667 5.95895 15.9633 5.95895 15.41C5.95895 14.67 6.07895 14.0267 6.31895 13.48C6.56561 12.9333 6.93561 12.51 7.42895 12.21C7.92895 11.9033 8.56228 11.75 9.32895 11.75C10.0823 11.75 10.7056 11.9033 11.1989 12.21C11.6923 12.51 12.0623 12.9367 12.3089 13.49C12.5556 14.0367 12.6789 14.68 12.6789 15.42ZM7.30895 15.42C7.30895 15.96 7.37895 16.4233 7.51895 16.81C7.66561 17.1967 7.88561 17.4933 8.17895 17.7C8.47895 17.9067 8.85895 18.01 9.31895 18.01C9.79228 18.01 10.1756 17.9067 10.4689 17.7C10.7623 17.4933 10.9789 17.1967 11.1189 16.81C11.2589 16.4233 11.3289 15.96 11.3289 15.42C11.3289 14.6133 11.1723 13.98 10.8589 13.52C10.5456 13.06 10.0356 12.83 9.32895 12.83C8.86228 12.83 8.47895 12.9333 8.17895 13.14C7.88561 13.3467 7.66561 13.6433 7.51895 14.03C7.37895 14.4167 7.30895 14.88 7.30895 15.42ZM15.2593 19H13.9993V11.86H18.0493V12.93H15.2593V15.03H17.8593V16.1H15.2593V19ZM20.4402 19H19.1802V11.86H23.2302V12.93H20.4402V15.03H23.0402V16.1H20.4402V19Z" fill="#F4F5F7"/>
</svg>
