<svg width="118" height="36" viewBox="0 0 118 36" fill="none" xmlns="http://www.w3.org/2000/svg">
<rect y="0.425781" width="117.876" height="35.3629" rx="17.6815" fill="#FF5E67"/>
<path d="M28.7266 16.4219H30.9766C30.9453 14.4219 29.2969 13.0312 26.7891 13.0312C24.3125 13.0312 22.5 14.3984 22.5078 16.4531C22.5078 18.1094 23.6797 19.0625 25.5859 19.5312L26.8203 19.8281C28.0547 20.1328 28.7578 20.4922 28.7578 21.2656C28.7578 22.1094 27.9609 22.6875 26.7266 22.6875C25.4766 22.6875 24.5703 22.1094 24.4922 20.9688H22.2109C22.2812 23.3984 24.0234 24.6641 26.7578 24.6562C29.5156 24.6641 31.125 23.3359 31.1328 21.2656C31.125 19.3828 29.6797 18.3984 27.7422 17.9531L26.7266 17.7031C25.75 17.4844 24.9062 17.1172 24.9141 16.2969C24.9219 15.5469 25.5859 15 26.7734 15C27.9219 15 28.6328 15.5234 28.7266 16.4219ZM36.4297 24.6719C39 24.6641 40.5938 22.9062 40.6016 20.2812C40.5938 17.6641 39 15.9062 36.4297 15.9062C33.8672 15.9062 32.2656 17.6641 32.2734 20.2812C32.2656 22.9062 33.8672 24.6641 36.4297 24.6719ZM34.6172 20.2812C34.6172 18.7891 35.2344 17.6719 36.4453 17.6719C37.625 17.6719 38.25 18.7891 38.2422 20.2812C38.25 21.7656 37.625 22.8672 36.4453 22.875C35.2344 22.8672 34.6172 21.7656 34.6172 20.2812ZM44.3672 13.1875H42.0547V24.5H44.3672V13.1875ZM51.6016 20.8906C51.6016 22.0469 50.8047 22.6484 49.9609 22.6562C49.0547 22.6484 48.4766 22.0234 48.4766 21.0156V16.0156H46.1641V21.4219C46.1641 23.4062 47.3281 24.6094 49.0234 24.6094C50.3047 24.6094 51.2188 23.9531 51.6016 22.9688H51.6953V24.5H53.9141V16.0156H51.6016V20.8906ZM60.1797 16.0156H58.5859V13.9844H56.2734V16.0156H55.1016V17.75H56.2734V22.2188C56.2578 23.8672 57.3984 24.6172 59.0703 24.6094C59.6406 24.6172 60.0547 24.5703 60.3047 24.5312V22.7031C60.0234 22.7266 59.6172 22.75 59.3828 22.75C58.9141 22.7344 58.5781 22.5703 58.5859 21.8906V17.75H60.1797V16.0156ZM61.6328 24.5H63.9453V16.0156H61.6328V24.5ZM61.5234 13.7344C61.5234 14.375 62.0938 14.9062 62.7891 14.9062C63.4766 14.9062 64.0469 14.375 64.0391 13.7344C64.0469 13.0781 63.4766 12.5547 62.7891 12.5469C62.0938 12.5547 61.5234 13.0781 61.5234 13.7344ZM69.5547 24.6719C72.125 24.6641 73.7188 22.9062 73.7266 20.2812C73.7188 17.6641 72.125 15.9062 69.5547 15.9062C66.9922 15.9062 65.3906 17.6641 65.3984 20.2812C65.3906 22.9062 66.9922 24.6641 69.5547 24.6719ZM67.7422 20.2812C67.7422 18.7891 68.3594 17.6719 69.5703 17.6719C70.75 17.6719 71.375 18.7891 71.3672 20.2812C71.375 21.7656 70.75 22.8672 69.5703 22.875C68.3594 22.8672 67.7422 21.7656 67.7422 20.2812ZM77.4922 19.5938C77.4922 18.4766 78.1562 17.8281 79.1172 17.8281C80.0781 17.8281 80.6406 18.4531 80.6484 19.5V24.5H82.9453V19.0938C82.9531 17.1172 81.7969 15.9062 80.0234 15.9062C78.7656 15.9062 77.8594 16.5234 77.4766 17.5H77.3828V16.0156H75.1797V24.5H77.4922V19.5938ZM93.2891 13.1875H91.0703L88.2734 14.9688V17.0469L90.8672 15.4219H90.9297V24.5H93.2891V13.1875Z" fill="white"/>
</svg>
