<svg width="118" height="36" viewBox="0 0 118 36" fill="none" xmlns="http://www.w3.org/2000/svg">
<rect width="117.876" height="35.3629" rx="17.6815" fill="#FF5E67"/>
<path d="M28.6875 15.9961H30.9375C30.9062 13.9961 29.2578 12.6055 26.75 12.6055C24.2734 12.6055 22.4609 13.9727 22.4688 16.0273C22.4688 17.6836 23.6406 18.6367 25.5469 19.1055L26.7812 19.4023C28.0156 19.707 28.7188 20.0664 28.7188 20.8398C28.7188 21.6836 27.9219 22.2617 26.6875 22.2617C25.4375 22.2617 24.5312 21.6836 24.4531 20.543H22.1719C22.2422 22.9727 23.9844 24.2383 26.7188 24.2305C29.4766 24.2383 31.0859 22.9102 31.0938 20.8398C31.0859 18.957 29.6406 17.9727 27.7031 17.5273L26.6875 17.2773C25.7109 17.0586 24.8672 16.6914 24.875 15.8711C24.8828 15.1211 25.5469 14.5742 26.7344 14.5742C27.8828 14.5742 28.5938 15.0977 28.6875 15.9961ZM36.3906 24.2461C38.9609 24.2383 40.5547 22.4805 40.5625 19.8555C40.5547 17.2383 38.9609 15.4805 36.3906 15.4805C33.8281 15.4805 32.2266 17.2383 32.2344 19.8555C32.2266 22.4805 33.8281 24.2383 36.3906 24.2461ZM34.5781 19.8555C34.5781 18.3633 35.1953 17.2461 36.4062 17.2461C37.5859 17.2461 38.2109 18.3633 38.2031 19.8555C38.2109 21.3398 37.5859 22.4414 36.4062 22.4492C35.1953 22.4414 34.5781 21.3398 34.5781 19.8555ZM44.3281 12.7617H42.0156V24.0742H44.3281V12.7617ZM51.5625 20.4648C51.5625 21.6211 50.7656 22.2227 49.9219 22.2305C49.0156 22.2227 48.4375 21.5977 48.4375 20.5898V15.5898H46.125V20.9961C46.125 22.9805 47.2891 24.1836 48.9844 24.1836C50.2656 24.1836 51.1797 23.5273 51.5625 22.543H51.6562V24.0742H53.875V15.5898H51.5625V20.4648ZM60.1406 15.5898H58.5469V13.5586H56.2344V15.5898H55.0625V17.3242H56.2344V21.793C56.2188 23.4414 57.3594 24.1914 59.0312 24.1836C59.6016 24.1914 60.0156 24.1445 60.2656 24.1055V22.2773C59.9844 22.3008 59.5781 22.3242 59.3438 22.3242C58.875 22.3086 58.5391 22.1445 58.5469 21.4648V17.3242H60.1406V15.5898ZM61.5938 24.0742H63.9062V15.5898H61.5938V24.0742ZM61.4844 13.3086C61.4844 13.9492 62.0547 14.4805 62.75 14.4805C63.4375 14.4805 64.0078 13.9492 64 13.3086C64.0078 12.6523 63.4375 12.1289 62.75 12.1211C62.0547 12.1289 61.4844 12.6523 61.4844 13.3086ZM69.5156 24.2461C72.0859 24.2383 73.6797 22.4805 73.6875 19.8555C73.6797 17.2383 72.0859 15.4805 69.5156 15.4805C66.9531 15.4805 65.3516 17.2383 65.3594 19.8555C65.3516 22.4805 66.9531 24.2383 69.5156 24.2461ZM67.7031 19.8555C67.7031 18.3633 68.3203 17.2461 69.5312 17.2461C70.7109 17.2461 71.3359 18.3633 71.3281 19.8555C71.3359 21.3398 70.7109 22.4414 69.5312 22.4492C68.3203 22.4414 67.7031 21.3398 67.7031 19.8555ZM77.4531 19.168C77.4531 18.0508 78.1172 17.4023 79.0781 17.4023C80.0391 17.4023 80.6016 18.0273 80.6094 19.0742V24.0742H82.9062V18.668C82.9141 16.6914 81.7578 15.4805 79.9844 15.4805C78.7266 15.4805 77.8203 16.0977 77.4375 17.0742H77.3438V15.5898H75.1406V24.0742H77.4531V19.168ZM92.5625 24.2305C95.1172 24.2305 96.9531 22.8398 96.9375 20.9023C96.9531 19.4883 96.0391 18.4805 94.375 18.2773V18.1836C95.6406 17.957 96.5234 17.0586 96.5156 15.793C96.5234 14.0039 94.9531 12.6055 92.5938 12.6055C90.2734 12.6055 88.5234 13.957 88.4844 15.9023H90.7344C90.7734 15.0352 91.5938 14.4727 92.5938 14.4805C93.5938 14.4727 94.2578 15.0664 94.25 15.9336C94.2578 16.8242 93.4766 17.4336 92.3594 17.4336H91.3125V19.168H92.3594C93.6875 19.1758 94.5078 19.8242 94.5 20.7461C94.5078 21.6602 93.7031 22.2852 92.5781 22.293C91.4844 22.2852 90.6641 21.7305 90.625 20.8867H88.25C88.2969 22.8633 90.0781 24.2305 92.5625 24.2305Z" fill="white"/>
</svg>
