<svg width="126" height="51" viewBox="0 0 126 51" fill="none" xmlns="http://www.w3.org/2000/svg">
<rect width="126" height="51" rx="25.5" fill="#FF5E67"/>
<g clip-path="url(#clip0_4045_176382)">
<path d="M25.4624 45.7412C36.6654 45.7412 45.7471 36.6608 45.7471 25.4595C45.7471 14.2582 36.6654 5.17773 25.4624 5.17773C14.2595 5.17773 5.17773 14.2582 5.17773 25.4595C5.17773 36.6608 14.2595 45.7412 25.4624 45.7412Z" fill="#FF5E67"/>
<path d="M25.4624 45.9198C14.1777 45.9198 5 36.7402 5 25.4604C5 14.1806 14.181 5.00098 25.4624 5.00098C36.7439 5.00098 45.9249 14.1806 45.9249 25.4604C45.9249 36.7402 36.7439 45.9198 25.4624 45.9198ZM25.4624 5.35316C14.3749 5.35316 5.35548 14.3712 5.35548 25.4572C5.35548 36.5431 14.3749 45.5612 25.4624 45.5612C36.55 45.5612 45.5694 36.5431 45.5694 25.4572C45.5694 14.3712 36.55 5.35316 25.4624 5.35316Z" fill="white"/>
<path d="M11.5829 28.6947L9.83675 34.4943L11.922 34.6531L12.3542 29.6595L14.7472 23.1369L11.5829 28.6947Z" fill="#FFFDC2" stroke="white" stroke-width="0.228458" stroke-linejoin="round"/>
<path d="M27.5421 29.9172L32.2594 22.2539L29.0406 30.8375L22.6898 35.5643L11.0033 39.5951C9.1474 37.8262 7.86495 35.4409 7.40604 34.6148L21.1141 33.0902L27.5421 29.9172Z" fill="#FFFDC2" stroke="white" stroke-width="0.228458" stroke-linejoin="round"/>
<g clip-path="url(#clip1_4045_176382)">
<path d="M20.1157 9.19105C19.7756 9.27593 19.4437 9.37422 19.1199 9.48144C19.1199 9.23573 19.1199 8.99001 19.1199 8.7443C19.1199 8.52986 19.1076 8.4003 19.0871 8.35562C19.0667 8.31095 19.0216 8.29754 18.9519 8.32435C18.8741 8.35115 18.8208 8.4003 18.8003 8.47624C18.7798 8.54773 18.7675 8.69069 18.7675 8.90513C18.7675 9.56186 18.7675 10.2186 18.7675 10.8753C18.7675 11.0808 18.7798 11.2104 18.8003 11.2685C18.8208 11.3221 18.87 11.3399 18.9437 11.3131C19.0175 11.2863 19.0626 11.2417 19.0871 11.1702C19.1076 11.0987 19.1199 10.9468 19.1199 10.7145C19.1199 10.5358 19.1199 10.3615 19.1199 10.1828C19.4437 10.0756 19.7756 9.98181 20.1157 9.89246C20.1157 9.94607 20.1157 10.0041 20.1157 10.0578C20.1157 10.4956 20.087 10.8128 20.0297 11.0138C19.9723 11.2104 19.8453 11.407 19.6527 11.5991C19.4601 11.7912 19.2265 11.9341 18.9519 12.0279C18.6692 12.1262 18.4397 12.1575 18.2635 12.1128C18.0873 12.0681 17.9725 11.9609 17.9152 11.7778C17.8578 11.5946 17.8291 11.2997 17.8291 10.8842C17.8291 10.4732 17.8291 10.0578 17.8291 9.64674C17.8291 9.34295 17.8373 9.10617 17.8537 8.9498C17.8701 8.78897 17.9234 8.61921 18.0094 8.4405C18.0955 8.2618 18.2143 8.0965 18.3741 7.95354C18.5298 7.81058 18.7142 7.69889 18.9232 7.62741C19.206 7.52913 19.4478 7.52019 19.6404 7.5872C19.833 7.65868 19.96 7.77931 20.0215 7.95354C20.0829 8.12331 20.1116 8.40923 20.1116 8.80238C20.1116 8.9364 20.1116 9.07043 20.1116 9.20445L20.1157 9.19105Z" fill="white"/>
<path d="M22.9351 6.86328C22.9351 8.27502 22.9351 9.68677 22.9351 11.103C22.5704 11.1387 22.2098 11.1834 21.8492 11.237C21.8492 10.6428 21.8492 10.0486 21.8492 9.45892C21.7426 9.47679 21.6361 9.4902 21.5295 9.50807C21.5295 10.1022 21.5295 10.6964 21.5295 11.2861C21.173 11.3442 20.8247 11.4112 20.4805 11.4917C20.4805 10.0799 20.4805 8.66817 20.4805 7.25196C20.8247 7.17154 21.173 7.10453 21.5295 7.04645C21.5295 7.55128 21.5295 8.05611 21.5295 8.56095C21.6361 8.54308 21.7426 8.52521 21.8492 8.5118C21.8492 8.00697 21.8492 7.50214 21.8492 6.99731C22.2057 6.9437 22.5704 6.89902 22.9351 6.86328Z" fill="white"/>
<path d="M23.3791 6.82609C23.9897 6.77248 24.6126 6.74568 25.2313 6.74121C25.2313 7.02267 25.2313 7.30859 25.2313 7.59004C24.9814 7.59004 24.7355 7.59898 24.4855 7.60791C24.4855 7.87597 24.4855 8.14402 24.4855 8.41207C24.7191 8.40314 24.9486 8.39867 25.1822 8.3942C25.1822 8.66225 25.1822 8.93031 25.1822 9.19836C24.9486 9.19836 24.715 9.20729 24.4855 9.21623C24.4855 9.52896 24.4855 9.83722 24.4855 10.1499C24.7601 10.141 25.0305 10.1321 25.3051 10.1321C25.3051 10.4135 25.3051 10.6995 25.3051 10.9809C24.6576 10.9809 24.0143 11.0122 23.375 11.0658C23.375 9.65405 23.375 8.2423 23.375 6.82609H23.3791Z" fill="white"/>
<path d="M25.6289 6.74121C25.8912 6.74121 26.1575 6.75015 26.4198 6.75908C26.9443 6.77695 27.3008 6.82609 27.4852 6.8797C27.6696 6.93332 27.8213 7.04947 27.936 7.22817C28.0507 7.40241 28.1081 7.67493 28.1081 8.0368C28.1081 8.3674 28.0671 8.58631 27.9852 8.68906C27.9032 8.79628 27.7434 8.84542 27.5016 8.84989C27.7188 8.92137 27.8663 9.00625 27.9401 9.10454C28.0139 9.20283 28.063 9.29218 28.0794 9.36813C28.0958 9.44407 28.1081 9.65405 28.1081 9.99805C28.1081 10.3689 28.1081 10.7441 28.1081 11.1149C27.768 11.0792 27.4279 11.0524 27.0837 11.0301C27.0837 10.561 27.0837 10.0919 27.0837 9.62277C27.0837 9.39493 27.0673 9.25644 27.0304 9.19836C26.9935 9.14028 26.8992 9.10901 26.7476 9.10007V11.0122C26.3788 10.9943 26.0059 10.9854 25.633 10.9809C25.633 9.56916 25.633 8.15742 25.633 6.74121L25.6289 6.74121ZM26.7435 7.49623V8.43888C26.8706 8.44334 26.9566 8.43441 27.0058 8.40314C27.055 8.37186 27.0796 8.26464 27.0796 8.07701C27.0796 8.00106 27.0796 7.92064 27.0796 7.84469C27.0796 7.71067 27.055 7.62132 27.0058 7.57664C26.9566 7.53197 26.8706 7.50516 26.7394 7.50069L26.7435 7.49623Z" fill="white"/>
<path d="M28.5244 6.9209C28.7826 6.95217 29.0366 6.98791 29.2866 7.02812C29.7907 7.10854 30.1226 7.20235 30.2947 7.2783C30.4668 7.35425 30.6061 7.49274 30.7168 7.68485C30.8233 7.87695 30.8766 8.15394 30.8766 8.51581C30.8766 8.84641 30.8397 9.05638 30.7619 9.1502C30.684 9.24402 30.5365 9.27529 30.3111 9.24849C30.516 9.34677 30.6512 9.45399 30.7209 9.56122C30.7905 9.66844 30.8356 9.76225 30.852 9.84267C30.8684 9.92309 30.8766 10.1331 30.8766 10.4771V11.5939C30.5611 11.5135 30.2414 11.442 29.9177 11.3795C29.9177 10.9104 29.9177 10.4413 29.9177 9.97223C29.9177 9.74438 29.9013 9.60142 29.8685 9.53888C29.8357 9.47633 29.7456 9.43612 29.5981 9.40932V11.3214C29.2456 11.2589 28.885 11.2053 28.5244 11.1606C28.5244 9.74885 28.5244 8.33711 28.5244 6.9209ZM29.5981 7.80547V8.74812C29.7169 8.77046 29.7989 8.76599 29.848 8.74366C29.8972 8.71685 29.9177 8.6141 29.9177 8.42646C29.9177 8.35051 29.9177 8.2701 29.9177 8.19415C29.9177 8.06012 29.8931 7.9663 29.848 7.91716C29.8029 7.86802 29.7169 7.82781 29.5981 7.80994V7.80547Z" fill="white"/>
<path d="M33.2909 8.22591C33.0738 9.02113 32.8525 9.82082 32.623 10.6294C32.623 11.1387 32.623 11.6525 32.623 12.1618C32.3361 12.0457 32.037 11.9384 31.7378 11.8401C31.7378 11.3308 31.7378 10.8171 31.7378 10.3078C31.5084 9.33386 31.2748 8.3644 31.0371 7.39941C31.3444 7.47983 31.6477 7.57365 31.9468 7.6764C32.0862 8.55204 32.164 9.13729 32.1804 9.42768C32.2337 8.99433 32.3238 8.47162 32.4468 7.8551C32.7336 7.96679 33.0164 8.09188 33.2909 8.22591Z" fill="white"/>
<path d="M16.4287 14.5079C16.6951 14.3202 16.9778 14.146 17.2647 13.9896C17.5392 13.8422 17.7523 13.7663 17.8998 13.7529C18.0474 13.7395 18.1703 13.7975 18.2605 13.9226C18.3547 14.0477 18.3998 14.2979 18.3998 14.6642C18.3998 14.91 18.367 15.0976 18.3014 15.2227C18.2359 15.3478 18.1047 15.4773 17.9162 15.6158C18.1252 15.5756 18.2728 15.6158 18.3506 15.7141C18.4285 15.8169 18.4654 16.0045 18.4654 16.2815V16.6746C18.4654 16.9606 18.4367 17.1839 18.3834 17.3448C18.326 17.5056 18.24 17.6352 18.1211 17.7379C18.0023 17.8407 17.7564 17.9702 17.404 18.1579C17.0639 18.3321 16.7401 18.5287 16.4287 18.7476C16.4287 17.3358 16.4287 15.9196 16.4287 14.5079ZM17.2688 14.7134C17.2688 15.0261 17.2688 15.3433 17.2688 15.656C17.3057 15.6337 17.3343 15.6158 17.3548 15.6069C17.4409 15.5622 17.4942 15.5086 17.5187 15.4416C17.5433 15.3746 17.5556 15.2182 17.5556 14.968C17.5556 14.834 17.5474 14.7491 17.5269 14.7045C17.5065 14.6598 17.4819 14.6419 17.4491 14.6419C17.4163 14.6419 17.3548 14.6687 17.2688 14.7134ZM17.2688 16.3172C17.2688 16.7104 17.2688 17.108 17.2688 17.5011C17.3917 17.4297 17.4696 17.3626 17.5065 17.3046C17.5392 17.242 17.5597 17.1259 17.5597 16.9561C17.5597 16.8265 17.5597 16.6925 17.5597 16.5629C17.5597 16.3798 17.5433 16.2815 17.5146 16.2547C17.4819 16.2324 17.404 16.2547 17.2729 16.3172H17.2688Z" fill="white"/>
<path d="M19.7931 12.9932C19.7931 14.1235 19.7931 15.2537 19.7931 16.384C19.998 16.3259 20.2028 16.2768 20.4118 16.2277C20.4118 16.5091 20.4118 16.795 20.4118 17.0765C19.8586 17.2061 19.3259 17.358 18.8096 17.5411C18.8096 16.1294 18.8096 14.7176 18.8096 13.3014C19.1292 13.1853 19.457 13.0825 19.7931 12.9932Z" fill="white"/>
<path d="M23.0296 14.901C23.0296 15.3254 23.0214 15.6292 23.0009 15.8079C22.9804 15.9866 22.919 16.1564 22.8124 16.3127C22.7059 16.4691 22.5666 16.5987 22.3903 16.697C22.2141 16.7952 22.0092 16.8622 21.7757 16.898C21.5544 16.9337 21.3577 16.9293 21.1856 16.8846C21.0135 16.8444 20.8741 16.7595 20.7717 16.6344C20.6692 16.5093 20.6078 16.3619 20.5873 16.1921C20.5668 16.0224 20.5586 15.7186 20.5586 15.2807C20.5586 15.0395 20.5586 14.7982 20.5586 14.557C20.5586 14.1326 20.5668 13.8288 20.5873 13.6456C20.6078 13.4625 20.6651 13.2882 20.7635 13.1229C20.8618 12.9532 20.9971 12.8147 21.1692 12.703C21.3413 12.5913 21.5421 12.5198 21.7757 12.4841C21.9969 12.4483 22.1977 12.4617 22.374 12.5109C22.5502 12.5645 22.6977 12.6583 22.8042 12.7968C22.9149 12.9353 22.9804 13.0872 23.0009 13.2614C23.0214 13.4356 23.0337 13.7394 23.0337 14.1728C23.0337 14.414 23.0337 14.6553 23.0337 14.8965L23.0296 14.901ZM21.9437 13.6367C21.9437 13.4401 21.9314 13.315 21.9109 13.2614C21.8904 13.2078 21.8453 13.1899 21.7798 13.1989C21.7224 13.2078 21.6814 13.2346 21.6527 13.2837C21.624 13.3329 21.6076 13.4669 21.6076 13.6858C21.6076 14.347 21.6076 15.0038 21.6076 15.6649C21.6076 15.9107 21.6158 16.0626 21.6363 16.1162C21.6568 16.1698 21.7019 16.1921 21.7716 16.1832C21.8453 16.1698 21.8904 16.134 21.9109 16.0626C21.9314 15.9911 21.9396 15.8347 21.9396 15.5845C21.9396 14.9367 21.9396 14.2845 21.9396 13.6367H21.9437Z" fill="white"/>
<path d="M25.8001 13.5879C25.4559 13.5879 25.1076 13.5879 24.7634 13.5968C24.7634 13.494 24.7634 13.3868 24.7634 13.2841C24.7634 13.1366 24.7511 13.0428 24.7224 13.0071C24.6978 12.9669 24.6527 12.949 24.5913 12.949C24.5257 12.949 24.4724 12.9803 24.4396 13.0339C24.4069 13.0875 24.3864 13.1724 24.3864 13.2841C24.3864 13.427 24.4069 13.5298 24.4437 13.6013C24.4806 13.6727 24.5872 13.7532 24.7593 13.8514C25.2551 14.1284 25.5707 14.3742 25.6977 14.5618C25.8288 14.7494 25.8903 15.0532 25.8903 15.4687C25.8903 15.7725 25.8534 15.9914 25.7837 16.1344C25.7141 16.2773 25.5748 16.3935 25.3699 16.4918C25.165 16.5901 24.9273 16.6392 24.6527 16.6481C24.3536 16.6571 24.0995 16.6124 23.8905 16.5141C23.6815 16.4158 23.5422 16.2818 23.4807 16.1165C23.4152 15.9467 23.3824 15.7055 23.3824 15.3883C23.3824 15.2945 23.3824 15.2051 23.3824 15.1113C23.7225 15.0845 24.0667 15.0622 24.411 15.0487C24.411 15.2185 24.411 15.3928 24.411 15.5625C24.411 15.7233 24.4273 15.8216 24.456 15.8663C24.4847 15.911 24.538 15.9333 24.6118 15.9289C24.6855 15.9289 24.7429 15.8976 24.7757 15.8395C24.8126 15.7814 24.8289 15.6965 24.8289 15.5804C24.8289 15.3302 24.7962 15.1694 24.7265 15.0934C24.6568 15.0175 24.4806 14.8969 24.2061 14.7271C23.9315 14.5573 23.7471 14.4412 23.6569 14.3652C23.5668 14.2893 23.493 14.182 23.4357 14.0436C23.3783 13.9051 23.3496 13.7219 23.3496 13.494C23.3496 13.1679 23.3906 12.9267 23.4725 12.7703C23.5545 12.6139 23.6897 12.4844 23.8741 12.3906C24.0585 12.2967 24.2839 12.2387 24.5503 12.2297C24.8412 12.2208 25.0871 12.261 25.292 12.3548C25.4969 12.4442 25.6321 12.5648 25.6977 12.7033C25.7633 12.8463 25.796 13.083 25.796 13.4181C25.796 13.4717 25.796 13.5298 25.796 13.5879H25.8001Z" fill="white"/>
<path d="M28.5787 13.7744C28.2426 13.7342 27.9025 13.6985 27.5624 13.6716C27.5624 13.5689 27.5624 13.4617 27.5624 13.3589C27.5624 13.2115 27.5501 13.1177 27.5214 13.0775C27.4968 13.0373 27.4518 13.0105 27.3903 13.006C27.3247 13.0015 27.2714 13.0239 27.2387 13.0775C27.2059 13.1311 27.1854 13.2115 27.1854 13.3187C27.1854 13.4617 27.2059 13.5689 27.2428 13.6404C27.2796 13.7163 27.3821 13.8057 27.5542 13.9218C28.0459 14.2524 28.3492 14.5294 28.4762 14.7305C28.6033 14.9315 28.6647 15.2398 28.6647 15.6552C28.6647 15.959 28.6319 16.1735 28.5623 16.3075C28.4926 16.4415 28.3574 16.5443 28.1566 16.6202C27.9558 16.6962 27.7222 16.723 27.4518 16.7006C27.1567 16.6783 26.9026 16.6068 26.6936 16.4862C26.4847 16.3656 26.3453 16.2181 26.2798 16.0439C26.2142 15.8697 26.1814 15.624 26.1814 15.3068C26.1814 15.213 26.1814 15.1236 26.1814 15.0298C26.5256 15.0387 26.8699 15.0566 27.2141 15.0789C27.2141 15.2487 27.2141 15.4229 27.2141 15.5927C27.2141 15.7535 27.2305 15.8563 27.2592 15.901C27.2878 15.9501 27.3411 15.9724 27.4108 15.9814C27.4845 15.9858 27.5378 15.9635 27.5747 15.9099C27.6116 15.8563 27.628 15.7714 27.628 15.6597C27.628 15.4095 27.5952 15.2442 27.5255 15.1638C27.4559 15.0834 27.2837 14.9404 27.0092 14.7439C26.7346 14.5473 26.5502 14.4088 26.4601 14.3239C26.3699 14.239 26.2962 14.1229 26.2347 13.9754C26.1773 13.828 26.1445 13.6448 26.1445 13.417C26.1445 13.0909 26.1855 12.8541 26.2716 12.7067C26.3535 12.5592 26.4929 12.4475 26.6773 12.3716C26.8658 12.2956 27.0911 12.2644 27.3534 12.2822C27.6403 12.3046 27.882 12.3716 28.0828 12.4833C28.2836 12.595 28.4148 12.729 28.4803 12.8764C28.5459 13.0239 28.5787 13.2696 28.5787 13.6046C28.5787 13.6627 28.5787 13.7163 28.5787 13.7744Z" fill="white"/>
<path d="M31.381 15.5406C31.381 15.965 31.3728 16.2644 31.3524 16.4386C31.336 16.6084 31.2786 16.7558 31.1802 16.8764C31.086 16.997 30.9549 17.073 30.7868 17.1087C30.6188 17.1445 30.4262 17.14 30.2008 17.0909C29.9878 17.0462 29.7911 16.9702 29.619 16.8675C29.4468 16.7647 29.3034 16.6307 29.1969 16.4654C29.0903 16.3001 29.0248 16.1303 29.0043 15.9516C28.9838 15.7729 28.9756 15.4691 28.9756 15.0313V14.3076C28.9756 13.8832 28.9838 13.5838 29.0043 13.4096C29.0248 13.2354 29.0862 13.0835 29.1887 12.9494C29.2911 12.8199 29.4305 12.7305 29.6026 12.6814C29.7747 12.6322 29.9755 12.6322 30.2008 12.6814C30.4139 12.7261 30.6065 12.8065 30.7705 12.9226C30.9385 13.0388 31.0696 13.1862 31.172 13.3605C31.2704 13.5347 31.3319 13.7134 31.3483 13.8966C31.3687 14.0753 31.3769 14.3835 31.3769 14.8213C31.3769 15.0626 31.3769 15.3038 31.3769 15.5451L31.381 15.5406ZM30.3648 13.8876C30.3648 13.6911 30.3566 13.5615 30.332 13.5034C30.3115 13.4453 30.2705 13.4051 30.2049 13.3917C30.1517 13.3783 30.1107 13.3917 30.0779 13.4319C30.0492 13.4721 30.0328 13.5972 30.0328 13.8161C30.0328 14.4773 30.0328 15.1341 30.0328 15.7953C30.0328 16.041 30.041 16.1929 30.0615 16.2554C30.082 16.318 30.123 16.3537 30.1927 16.3671C30.2623 16.3805 30.3074 16.3582 30.3279 16.2956C30.3484 16.2331 30.3566 16.0767 30.3566 15.8265C30.3566 15.1787 30.3566 14.5265 30.3566 13.8787L30.3648 13.8876Z" fill="white"/>
<path d="M34.5161 14.5082V18.7479C34.2825 18.5826 34.0366 18.4307 33.7866 18.2878C33.7866 17.3317 33.7866 16.3801 33.7866 15.4241C33.6883 16.3221 33.5858 17.22 33.4834 18.1225C33.3031 18.0287 33.1146 17.9393 32.9261 17.8544C32.8154 16.8716 32.7007 15.8932 32.586 14.9148C32.586 15.8485 32.586 16.7777 32.586 17.7115C32.3114 17.5998 32.0328 17.5015 31.75 17.4077V13.168C32.1721 13.3065 32.5819 13.4584 32.9753 13.6371C33.0121 13.9096 33.0449 14.2268 33.0818 14.5886C33.1228 14.9684 33.1679 15.3481 33.2088 15.7279C33.2785 15.1024 33.3482 14.477 33.4137 13.8515C33.7989 14.0481 34.1677 14.267 34.5161 14.5082Z" fill="white"/>
</g>
<path d="M40.0009 25.6886L29.272 27.7649L26.8724 30.7554L40.0009 25.6886Z" fill="#FFFDC2" stroke="white" stroke-width="0.228458" stroke-linejoin="round"/>
<path d="M21.0859 33.4616C20.7312 32.8236 19.9057 31.5901 18.4246 32.2962C18.0091 30.7072 16.5353 30.8702 15.8197 31.0101C15.1042 31.1501 13.6775 31.5545 13.8907 33.183C12.2527 33.087 11.9528 34.5407 11.8647 35.2653C11.7766 35.9899 11.7206 37.4732 13.3337 37.774C12.7368 39.3042 14.0257 40.0389 14.6873 40.3471C15.3489 40.6553 16.7408 41.1678 17.5242 39.7244C18.7937 40.7656 19.8899 39.7664 20.3867 39.2323C20.8834 38.6975 21.7999 37.5315 20.6711 36.3388C22.052 35.4524 21.4413 34.1002 21.0865 33.4615L21.0859 33.4616Z" fill="white" stroke="#FFFDC2" stroke-width="0.243134" stroke-linecap="round" stroke-linejoin="round"/>
<path d="M16.6684 35.4896C16.8983 35.4446 17.0483 35.2215 17.0032 34.9912C16.9582 34.761 16.7353 34.6109 16.5053 34.6559C16.2753 34.7008 16.1254 34.9239 16.1704 35.1542C16.2154 35.3844 16.4384 35.5345 16.6684 35.4896Z" fill="#FF5E67"/>
<path d="M16.1381 36.1331C16.3681 36.0881 16.518 35.865 16.473 35.6348C16.4279 35.4046 16.205 35.2544 15.975 35.2994C15.745 35.3444 15.5951 35.5675 15.6401 35.7977C15.6852 36.0279 15.9081 36.1781 16.1381 36.1331Z" fill="#FF5E67"/>
<path d="M16.5844 36.8362C16.8144 36.7912 16.9643 36.5681 16.9193 36.3379C16.8742 36.1077 16.6513 35.9575 16.4213 36.0025C16.1913 36.0475 16.0414 36.2706 16.0864 36.5008C16.1315 36.7311 16.3544 36.8812 16.5844 36.8362Z" fill="#FF5E67"/>
<path d="M17.391 36.6282C17.621 36.5832 17.7709 36.3601 17.7259 36.1299C17.6809 35.8997 17.4579 35.7495 17.2279 35.7945C16.998 35.8395 16.848 36.0626 16.8931 36.2928C16.9381 36.523 17.161 36.6732 17.391 36.6282Z" fill="#FF5E67"/>
<path d="M17.4428 35.7962C17.6728 35.7512 17.8227 35.5281 17.7777 35.2979C17.7326 35.0677 17.5097 34.9175 17.2797 34.9625C17.0497 35.0075 16.8998 35.2306 16.9448 35.4608C16.9898 35.691 17.2128 35.8412 17.4428 35.7962Z" fill="#FF5E67"/>
<path d="M24.6093 28.7842C24.5048 28.0961 24.1779 26.7192 22.6195 26.857C22.7772 25.2991 21.4061 24.9541 20.7202 24.8409C20.0343 24.7278 18.6251 24.6142 18.2735 26.1402C16.8419 25.5092 16.0901 26.7081 15.7701 27.3263C15.4502 27.9444 14.9064 29.251 16.2475 30.0567C15.2049 31.2252 16.1119 32.3107 16.6004 32.8062C17.089 33.3018 18.1619 34.2231 19.3424 33.1942C20.1301 34.547 21.442 34.0192 22.0637 33.7074C22.6856 33.3949 23.8925 32.6581 23.281 31.2168C24.8098 30.8845 24.7143 29.4731 24.6099 28.7843L24.6093 28.7842Z" fill="#FFFDC2" stroke="white" stroke-width="0.243134" stroke-linecap="round" stroke-linejoin="round"/>
<path d="M19.9871 29.1238C20.2075 29.1602 20.4158 29.0107 20.4522 28.79C20.4886 28.5694 20.3393 28.361 20.1189 28.3246C19.8984 28.2883 19.6902 28.4377 19.6538 28.6584C19.6174 28.8791 19.7666 29.0874 19.9871 29.1238Z" fill="#FF5E67"/>
<path d="M19.3006 29.5222C19.521 29.5586 19.7292 29.4092 19.7656 29.1885C19.802 28.9678 19.6528 28.7594 19.4324 28.7231C19.2119 28.6867 19.0037 28.8361 18.9673 29.0568C18.9309 29.2775 19.0801 29.4859 19.3006 29.5222Z" fill="#FF5E67"/>
<path d="M19.4646 30.2996C19.6851 30.3359 19.8933 30.1865 19.9297 29.9658C19.9661 29.7451 19.8169 29.5368 19.5964 29.5004C19.376 29.464 19.1678 29.6135 19.1314 29.8342C19.095 30.0548 19.2442 30.2632 19.4646 30.2996Z" fill="#FF5E67"/>
<path d="M20.2547 30.3826C20.4751 30.4189 20.6833 30.2695 20.7197 30.0488C20.7561 29.8282 20.6069 29.6198 20.3865 29.5834C20.166 29.5471 19.9578 29.6965 19.9214 29.9172C19.885 30.1378 20.0342 30.3462 20.2547 30.3826Z" fill="#FF5E67"/>
<path d="M20.5769 29.656C20.7974 29.6924 21.0056 29.543 21.042 29.3223C21.0784 29.1016 20.9292 28.8932 20.7087 28.8569C20.4883 28.8205 20.2801 28.9699 20.2437 29.1906C20.2073 29.4113 20.3565 29.6197 20.5769 29.656Z" fill="#FF5E67"/>
<path d="M30.3176 33.3636C29.8003 32.6867 28.6387 31.4018 27.0476 32.4673C26.2995 30.7026 24.6252 31.1397 23.8225 31.4221C23.0199 31.7046 21.4409 32.4125 21.9621 34.257C20.0544 34.4228 19.9536 36.152 19.9742 37.0037C19.9948 37.8553 20.1807 39.5776 22.0942 39.6525C21.6634 41.5202 23.2758 42.151 24.0918 42.3951C24.9078 42.6392 26.6016 42.996 27.2625 41.1969C28.9043 42.1848 30.0013 40.8459 30.4848 40.1452C30.9681 39.4438 31.8294 37.9426 30.3245 36.756C31.7694 35.4992 30.8358 34.0409 30.3183 33.3633L30.3176 33.3636Z" fill="#FF5E67" stroke="white" stroke-width="0.243134" stroke-linecap="round" stroke-linejoin="round"/>
<path d="M25.5569 36.4534C25.8149 36.3626 25.9504 36.0797 25.8595 35.8214C25.7686 35.5632 25.4858 35.4274 25.2278 35.5182C24.9699 35.609 24.8344 35.892 24.9253 36.1502C25.0162 36.4084 25.299 36.5442 25.5569 36.4534Z" fill="#FFFDC2"/>
<path d="M25.053 37.2835C25.311 37.1927 25.4465 36.9097 25.3556 36.6515C25.2647 36.3933 24.9819 36.2575 24.7239 36.3483C24.466 36.4391 24.3305 36.722 24.4214 36.9803C24.5123 37.2385 24.7951 37.3743 25.053 37.2835Z" fill="#FFFDC2"/>
<path d="M25.6888 38.0208C25.9467 37.93 26.0822 37.6471 25.9913 37.3888C25.9004 37.1306 25.6176 36.9948 25.3597 37.0856C25.1017 37.1764 24.9663 37.4593 25.0571 37.7176C25.148 37.9758 25.4308 38.1116 25.6888 38.0208Z" fill="#FFFDC2"/>
<path d="M26.5843 37.6448C26.8423 37.554 26.9777 37.2711 26.8868 37.0128C26.7959 36.7546 26.5132 36.6189 26.2552 36.7096C25.9972 36.8004 25.8618 37.0834 25.9526 37.3416C26.0435 37.5998 26.3263 37.7356 26.5843 37.6448Z" fill="#FFFDC2"/>
<path d="M26.5042 36.6751C26.7622 36.5843 26.8976 36.3013 26.8068 36.0431C26.7159 35.7849 26.4331 35.6491 26.1751 35.7399C25.9171 35.8307 25.7817 36.1136 25.8726 36.3719C25.9634 36.6301 26.2462 36.7659 26.5042 36.6751Z" fill="#FFFDC2"/>
<path d="M39.9423 30.8706C39.7181 30.4672 39.1962 29.6874 38.2597 30.1338C37.997 29.1292 37.0652 29.2322 36.6128 29.3207C36.1604 29.4092 35.2584 29.6648 35.3932 30.6945C34.3576 30.6338 34.168 31.5528 34.1123 32.011C34.0566 32.4691 34.0211 33.407 35.041 33.5971C34.6637 34.5646 35.4786 35.0291 35.8969 35.2239C36.3152 35.4188 37.1951 35.7428 37.6905 34.8302C38.4931 35.4885 39.1861 34.8568 39.5003 34.5191C39.8143 34.181 40.3937 33.4438 39.6801 32.6897C40.5531 32.1293 40.167 31.2744 39.9427 30.8705L39.9423 30.8706Z" fill="#FFFDC2" stroke="white" stroke-width="0.243134" stroke-linecap="round" stroke-linejoin="round"/>
<path d="M37.1486 32.1524C37.294 32.1239 37.3888 31.9829 37.3603 31.8373C37.3319 31.6918 37.1909 31.5968 37.0455 31.6253C36.9001 31.6537 36.8053 31.7948 36.8338 31.9403C36.8622 32.0859 37.0032 32.1808 37.1486 32.1524Z" fill="#FF5E67"/>
<path d="M36.8136 32.5586C36.9591 32.5302 37.0538 32.3891 37.0254 32.2436C36.9969 32.098 36.8559 32.0031 36.7105 32.0315C36.5651 32.06 36.4703 32.201 36.4988 32.3466C36.5273 32.4921 36.6682 32.5871 36.8136 32.5586Z" fill="#FF5E67"/>
<path d="M37.0959 33.0029C37.2413 32.9745 37.3361 32.8335 37.3076 32.6879C37.2791 32.5423 37.1382 32.4474 36.9928 32.4758C36.8474 32.5043 36.7526 32.6453 36.781 32.7909C36.8095 32.9365 36.9505 33.0314 37.0959 33.0029Z" fill="#FF5E67"/>
<path d="M37.6066 32.8721C37.752 32.8436 37.8468 32.7026 37.8183 32.557C37.7899 32.4115 37.6489 32.3165 37.5035 32.345C37.3581 32.3734 37.2633 32.5145 37.2918 32.66C37.3203 32.8056 37.4612 32.9005 37.6066 32.8721Z" fill="#FF5E67"/>
<path d="M37.6379 32.3467C37.7833 32.3183 37.8781 32.1772 37.8496 32.0316C37.8211 31.8861 37.6802 31.7912 37.5348 31.8196C37.3894 31.848 37.2946 31.9891 37.323 32.1346C37.3515 32.2802 37.4925 32.3751 37.6379 32.3467Z" fill="#FF5E67"/>
<path d="M14.853 27.3898C14.8578 26.8848 14.783 25.8606 13.6507 25.7789C13.9441 24.6812 13.0019 24.2753 12.5237 24.1148C12.0454 23.9544 11.0491 23.7098 10.6205 24.7623C9.66809 24.1445 8.99073 24.9163 8.68998 25.322C8.38923 25.7278 7.84841 26.6008 8.71582 27.3332C7.83366 28.0495 8.35771 28.9321 8.65029 29.3437C8.94287 29.7552 9.60479 30.5394 10.5695 29.939C10.9771 30.9993 11.9781 30.7731 12.4595 30.6217C12.9411 30.4699 13.891 30.0819 13.6198 28.9786C14.7534 28.9175 14.8485 27.8954 14.8534 27.39L14.853 27.3898Z" fill="white" stroke="#FFFDC2" stroke-width="0.243134" stroke-linecap="round" stroke-linejoin="round"/>
<path d="M11.5005 27.0979C11.6543 27.1494 11.8207 27.0665 11.8723 26.9126C11.924 26.7588 11.8412 26.5922 11.6875 26.5406C11.5338 26.4891 11.3673 26.572 11.3157 26.7259C11.2641 26.8797 11.3468 27.0463 11.5005 27.0979Z" fill="#FF5E67"/>
<path d="M10.9605 27.3029C11.1142 27.3545 11.2807 27.2716 11.3323 27.1177C11.3839 26.9638 11.3012 26.7973 11.1475 26.7457C10.9937 26.6942 10.8273 26.7771 10.7757 26.9309C10.724 27.0848 10.8068 27.2514 10.9605 27.3029Z" fill="#FF5E67"/>
<path d="M10.9888 27.8791C11.1425 27.9307 11.309 27.8477 11.3606 27.6939C11.4122 27.54 11.3295 27.3735 11.1758 27.3219C11.0221 27.2703 10.8556 27.3533 10.804 27.5071C10.7524 27.661 10.8351 27.8275 10.9888 27.8791Z" fill="#FF5E67"/>
<path d="M11.5464 28.0295C11.7002 28.0811 11.8666 27.9981 11.9182 27.8443C11.9699 27.6904 11.8871 27.5239 11.7334 27.4723C11.5797 27.4207 11.4132 27.5036 11.3616 27.6575C11.31 27.8114 11.3927 27.9779 11.5464 28.0295Z" fill="#FF5E67"/>
<path d="M11.8609 27.5471C12.0146 27.5986 12.1811 27.5157 12.2327 27.3618C12.2843 27.208 12.2016 27.0414 12.0478 26.9899C11.8941 26.9383 11.7277 27.0212 11.6761 27.1751C11.6244 27.329 11.7072 27.4955 11.8609 27.5471Z" fill="#FF5E67"/>
<path d="M35.7756 22.0206C35.227 21.0336 33.9501 19.1256 31.6589 20.2178C31.0163 17.7599 28.7365 18.0119 27.6296 18.2285C26.5227 18.445 24.316 19.0705 24.6457 21.5896C22.1119 21.4412 21.648 23.6897 21.5117 24.8106C21.3754 25.9316 21.2888 28.226 23.784 28.6913C22.8608 31.0583 24.8545 32.1948 25.8779 32.6715C26.9013 33.1482 29.0543 33.941 30.2663 31.7083C32.23 33.3188 33.9256 31.7732 34.6941 30.947C35.4625 30.1198 36.8801 28.3161 35.134 26.4712C37.27 25.1 36.3255 23.0083 35.7766 22.0204L35.7756 22.0206Z" fill="white" stroke="#FFFDC2" stroke-width="0.243134" stroke-linecap="round" stroke-linejoin="round"/>
<path d="M28.9394 25.1597C29.2951 25.0901 29.527 24.745 29.4574 24.3889C29.3877 24.0328 29.0429 23.8005 28.6871 23.8701C28.3314 23.9397 28.0994 24.2848 28.1691 24.6409C28.2388 24.997 28.5836 25.2293 28.9394 25.1597Z" fill="#FF5E67"/>
<path d="M28.1191 26.1548C28.4748 26.0852 28.7067 25.7401 28.6371 25.384C28.5674 25.0279 28.2225 24.7956 27.8668 24.8652C27.511 24.9348 27.2791 25.2799 27.3488 25.636C27.4184 25.9921 27.7633 26.2244 28.1191 26.1548Z" fill="#FF5E67"/>
<path d="M28.8095 27.2417C29.1652 27.1722 29.3972 26.8271 29.3275 26.4709C29.2578 26.1148 28.913 25.8825 28.5572 25.9521C28.2015 26.0217 27.9696 26.3668 28.0392 26.7229C28.1089 27.0791 28.4537 27.3113 28.8095 27.2417Z" fill="#FF5E67"/>
<path d="M30.0585 26.9205C30.4143 26.8509 30.6462 26.5058 30.5765 26.1497C30.5069 25.7935 30.162 25.5613 29.8063 25.6308C29.4505 25.7004 29.2186 26.0455 29.2882 26.4016C29.3579 26.7578 29.7028 26.99 30.0585 26.9205Z" fill="#FF5E67"/>
<path d="M30.1366 25.6343C30.4924 25.5647 30.7243 25.2196 30.6546 24.8635C30.585 24.5074 30.2401 24.2751 29.8844 24.3447C29.5286 24.4143 29.2967 24.7594 29.3664 25.1155C29.436 25.4716 29.7809 25.7039 30.1366 25.6343Z" fill="#FF5E67"/>
<path d="M39.6321 18.3072C39.072 18.0527 37.8721 17.6239 37.2642 18.9618C36.6562 20.2997 37.9764 21.9505 37.9764 21.9505C37.9764 21.9505 40.0885 21.8588 40.6962 20.5214C41.304 19.1841 40.1921 18.5617 39.6321 18.3072Z" fill="white" stroke="#FFFDC2" stroke-width="0.289988" stroke-linecap="round" stroke-linejoin="round"/>
<path d="M34.0741 39.9565C34.4818 40.1919 35.3638 40.6075 35.9261 39.6336C36.4884 38.6597 35.6053 37.3045 35.6053 37.3045C35.6053 37.3045 33.9898 37.2176 33.4278 38.1912C32.8657 39.1647 33.6664 39.7211 34.0741 39.9565Z" fill="#FFFDC2" stroke="white" stroke-width="0.289988" stroke-linecap="round" stroke-linejoin="round"/>
</g>
<path d="M63.9452 19.148V25.852H70.4733V19.148H69.1773V21.388H65.2573V19.148H63.9452ZM65.2573 22.444H69.1773V24.764H65.2573V22.444ZM70.1053 21.98V23.084H74.2013V21.98H70.1053ZM73.8013 18.284V26.716H75.1293V18.284H73.8013ZM69.8653 27.884V28.332C69.8653 29.948 67.7533 31.34 65.2573 31.708L65.7533 32.716C68.6013 32.252 71.0013 30.604 71.0013 28.332V27.884H69.8653ZM70.1373 27.884V28.332C70.1373 30.556 72.5373 32.252 75.3853 32.716L75.8813 31.708C73.4173 31.34 71.2572 29.916 71.2572 28.332V27.884H70.1373ZM65.8333 27.468V28.54H75.3373V27.468H65.8333ZM84.344 18.828V19.916H88.488V18.828H84.344ZM77.64 24.46V25.548H90.696V24.46H77.64ZM83.784 21.996V25.148H85.096V21.996H83.784ZM87.944 18.828V19.436C87.944 20.252 87.944 21.516 87.528 23.436L88.824 23.58C89.224 21.692 89.224 20.268 89.224 19.436V18.828H87.944ZM78.76 18.828V19.916H82.568V18.828H78.76ZM81.864 18.828V19.388C81.864 20.188 81.864 21.42 81.192 23.388L82.488 23.596C83.144 21.676 83.144 20.22 83.144 19.388V18.828H81.864ZM83.48 28.188V28.396C83.48 29.98 81.24 31.34 78.744 31.66L79.224 32.684C82.104 32.252 84.616 30.62 84.616 28.396V28.188H83.48ZM83.704 28.188V28.396C83.704 30.636 86.216 32.252 89.08 32.684L89.576 31.66C87.08 31.34 84.824 29.98 84.824 28.396V28.188H83.704ZM79.336 27.548V28.604H88.984V27.548H79.336ZM83.48 26.076V27.932H84.824V26.076H83.48Z" fill="white"/>
<defs>
<clipPath id="clip0_4045_176382">
<rect width="41" height="41" fill="white" transform="translate(5 5)"/>
</clipPath>
<clipPath id="clip1_4045_176382">
<rect width="18.088" height="12.8755" fill="white" transform="translate(16.4287 6.74121)"/>
</clipPath>
</defs>
</svg>
