<svg width="140" height="112" viewBox="0 0 140 112" fill="none" xmlns="http://www.w3.org/2000/svg">
<path d="M16.3878 75.9904C7.81146 110.597 32.6205 111.758 41.7999 105.992C56.2897 96.8946 57.3835 77.4777 55.0733 77.4777C51.2553 77.4777 34.7416 109.044 62.1623 110.613C89.5933 112.182 94.2699 77.7895 91.4435 77.7895C87.6 77.7895 66.5578 114.175 101.405 110.439C134.335 106.912 128.422 51.8203 128.422 51.8203C145.805 31.6112 139.17 9.54682 124.318 9.54682C99.2123 9.54682 79.6676 42.6868 84.472 42.8657C92.4862 43.1673 97.5103 8.19238 78.0475 8.19238C54.782 8.19238 22.3319 51.9992 16.3827 75.9853L16.3878 75.9904Z" fill="#C3CDD5" stroke="#F4F5F7" stroke-width="1.91654" stroke-linecap="round" stroke-linejoin="round"/>
<path d="M32.7097 65.2459C32.7097 65.2459 36.5328 33.1229 52.7143 33.1229C36.5328 33.1229 32.7097 1 32.7097 1C32.7097 1 28.8867 33.1229 12.7051 33.1229C28.8867 33.1229 32.7097 65.2459 32.7097 65.2459Z" fill="#E8EBEF" stroke="#F4F5F7" stroke-width="1.12177" stroke-linecap="round" stroke-linejoin="round"/>
<path d="M9.43323 70.1574C9.43323 70.1574 11.0432 56.6131 17.8665 56.6131C11.0432 56.6131 9.43323 43.0688 9.43323 43.0688C9.43323 43.0688 7.82325 56.6131 1 56.6131C7.82325 56.6131 9.43323 70.1574 9.43323 70.1574Z" fill="#E8EBEF" stroke="#F4F5F7" stroke-width="1.12177" stroke-linecap="round" stroke-linejoin="round"/>
<path d="M120.358 107.537C120.358 107.537 122.923 85.9682 133.789 85.9682C122.923 85.9682 120.358 64.3997 120.358 64.3997C120.358 64.3997 117.792 85.9682 106.926 85.9682C117.792 85.9682 120.358 107.537 120.358 107.537Z" fill="#E8EBEF" stroke="#F4F5F7" stroke-width="1.12177" stroke-linecap="round" stroke-linejoin="round"/>
<path d="M44.0392 71.3022C44.0392 71.3022 43.9319 82.4699 49.9527 82.4699" stroke="#F4F5F7" stroke-width="1.91654" stroke-miterlimit="10" stroke-linecap="round"/>
<path d="M48.8576 71.9126C48.8576 71.9126 47.3345 79.3032 51.3262 80.0903" stroke="#F4F5F7" stroke-width="1.91654" stroke-miterlimit="10" stroke-linecap="round"/>
<path d="M80.4044 71.3022C80.4044 71.3022 80.2971 82.4699 86.3179 82.4699" stroke="#F4F5F7" stroke-width="1.91654" stroke-miterlimit="10" stroke-linecap="round"/>
<path d="M85.2287 71.9126C85.2287 71.9126 83.7056 79.3032 87.6973 80.0903" stroke="#F4F5F7" stroke-width="1.91654" stroke-miterlimit="10" stroke-linecap="round"/>
<path d="M54.5328 78.1775C55.0069 78.2899 55.3931 78.8157 55.5814 79.6965C55.7663 80.562 55.742 81.7048 55.4548 82.9157C55.1676 84.1267 54.6763 85.1588 54.1224 85.8491C53.5587 86.5515 52.9775 86.8479 52.5035 86.7355C52.0294 86.6231 51.6432 86.0973 51.455 85.2165C51.27 84.3511 51.2944 83.2083 51.5815 81.9973C51.8687 80.7863 52.36 79.7542 52.9139 79.0639C53.4776 78.3615 54.0588 78.0651 54.5328 78.1775Z" fill="#F4F5F7" stroke="#F4F5F7" stroke-width="0.373924"/>
<path d="M91.068 78.1822C91.542 78.2946 91.9283 78.8203 92.1165 79.7011C92.3015 80.5666 92.2771 81.7094 91.99 82.9204C91.7028 84.1314 91.2115 85.1634 90.6576 85.8537C90.0939 86.5562 89.5127 86.8525 89.0387 86.7401C88.5646 86.6277 88.1784 86.1019 87.9901 85.2212C87.8051 84.3557 87.8295 83.2129 88.1167 82.0019C88.4038 80.7909 88.8952 79.7589 89.4491 79.0686C90.0127 78.3661 90.5939 78.0697 91.068 78.1822Z" fill="#F4F5F7" stroke="#F4F5F7" stroke-width="0.373924"/>
</svg>
