<svg width="34" height="34" viewBox="0 0 34 34" fill="none" xmlns="http://www.w3.org/2000/svg">
<circle cx="17" cy="17" r="17" fill="#FFAD94"/>
<path d="M27.4508 14.0236C26.9439 12.4637 25.6557 9.38783 22.0852 10.3059C21.8544 6.623 18.5343 6.34667 16.8962 6.34667C15.258 6.34667 11.9379 6.623 11.7056 10.3059C8.13512 9.38783 6.8469 12.4637 6.34006 14.0236C5.83323 15.5834 5.06995 18.8299 8.49714 20.1889C6.52108 23.3056 9.04622 25.4815 10.3721 26.4464C11.6981 27.4113 14.546 29.1418 16.8962 26.2969C19.2463 29.1403 22.0943 27.4098 23.4202 26.4464C24.7461 25.4815 27.2698 23.3056 25.2952 20.1889C28.7224 18.8299 27.9591 15.5849 27.4523 14.0236H27.4508Z" fill="white"/>
<path d="M16.8308 16.5895C17.3573 16.5895 17.7841 16.1622 17.7841 15.6351C17.7841 15.1081 17.3573 14.6808 16.8308 14.6808C16.3043 14.6808 15.8774 15.1081 15.8774 15.6351C15.8774 16.1622 16.3043 16.5895 16.8308 16.5895Z" fill="#FFAD94"/>
<path d="M15.3846 17.7778C15.9111 17.7778 16.3379 17.3506 16.3379 16.8235C16.3379 16.2965 15.9111 15.8692 15.3846 15.8692C14.858 15.8692 14.4312 16.2965 14.4312 16.8235C14.4312 17.3506 14.858 17.7778 15.3846 17.7778Z" fill="#FFAD94"/>
<path d="M16.0657 19.5218C16.5922 19.5218 17.019 19.0945 17.019 18.5674C17.019 18.0404 16.5922 17.6131 16.0657 17.6131C15.5392 17.6131 15.1124 18.0404 15.1124 18.5674C15.1124 19.0945 15.5392 19.5218 16.0657 19.5218Z" fill="#FFAD94"/>
<path d="M17.9354 19.4121C18.4619 19.4121 18.8887 18.9849 18.8887 18.4578C18.8887 17.9308 18.4619 17.5035 17.9354 17.5035C17.4089 17.5035 16.9821 17.9308 16.9821 18.4578C16.9821 18.9849 17.4089 19.4121 17.9354 19.4121Z" fill="#FFAD94"/>
<path d="M18.4082 17.5995C18.9347 17.5995 19.3615 17.1722 19.3615 16.6452C19.3615 16.1181 18.9347 15.6908 18.4082 15.6908C17.8817 15.6908 17.4548 16.1181 17.4548 16.6452C17.4548 17.1722 17.8817 17.5995 18.4082 17.5995Z" fill="#FFAD94"/>
</svg>
