<svg width="77" height="77" viewBox="0 0 77 77" fill="none" xmlns="http://www.w3.org/2000/svg">
<circle cx="38.5" cy="38.5" r="38.5" fill="#FFAD94"/>
<path d="M62.1669 31.7589C61.019 28.2264 58.1016 21.2604 50.0155 23.3396C49.4928 14.9989 41.9738 14.373 38.2638 14.373C34.5538 14.373 27.0348 14.9989 26.5087 23.3396C18.4226 21.2604 15.5052 28.2264 14.3573 31.7589C13.2095 35.2915 11.4809 42.6439 19.2425 45.7217C14.7673 52.78 20.486 57.7078 23.4888 59.893C26.4916 62.0782 32.9414 65.9972 38.2638 59.5545C43.5862 65.9938 50.036 62.0748 53.0388 59.893C56.0417 57.7078 61.7569 52.78 57.2851 45.7217C65.0467 42.6439 63.3181 35.2949 62.1703 31.7589H62.1669Z" fill="white"/>
<path d="M38.1161 37.5706C39.3085 37.5706 40.2751 36.603 40.2751 35.4093C40.2751 34.2157 39.3085 33.248 38.1161 33.248C36.9237 33.248 35.957 34.2157 35.957 35.4093C35.957 36.603 36.9237 37.5706 38.1161 37.5706Z" fill="#FFAD94"/>
<path d="M34.8407 40.262C36.0331 40.262 36.9997 39.2944 36.9997 38.1007C36.9997 36.9071 36.0331 35.9395 34.8407 35.9395C33.6483 35.9395 32.6816 36.9071 32.6816 38.1007C32.6816 39.2944 33.6483 40.262 34.8407 40.262Z" fill="#FFAD94"/>
<path d="M36.3836 44.2102C37.576 44.2102 38.5427 43.2426 38.5427 42.049C38.5427 40.8553 37.576 39.8877 36.3836 39.8877C35.1912 39.8877 34.2246 40.8553 34.2246 42.049C34.2246 43.2426 35.1912 44.2102 36.3836 44.2102Z" fill="#FFAD94"/>
<path d="M40.618 43.9632C41.8104 43.9632 42.777 42.9955 42.777 41.8019C42.777 40.6083 41.8104 39.6406 40.618 39.6406C39.4256 39.6406 38.459 40.6083 38.459 41.8019C38.459 42.9955 39.4256 43.9632 40.618 43.9632Z" fill="#FFAD94"/>
<path d="M41.6874 39.8577C42.8797 39.8577 43.8464 38.8901 43.8464 37.6964C43.8464 36.5028 42.8797 35.5352 41.6874 35.5352C40.495 35.5352 39.5283 36.5028 39.5283 37.6964C39.5283 38.8901 40.495 39.8577 41.6874 39.8577Z" fill="#FFAD94"/>
</svg>
