<svg width="126" height="51" viewBox="0 0 126 51" fill="none" xmlns="http://www.w3.org/2000/svg">
<rect width="126" height="51" rx="25.5" fill="#FF5E67"/>
<g clip-path="url(#clip0_4045_176383)">
<path d="M25.5396 45.7402C36.7425 45.7402 45.8243 36.6598 45.8243 25.4585C45.8243 14.2572 36.7425 5.17676 25.5396 5.17676C14.3366 5.17676 5.25488 14.2572 5.25488 25.4585C5.25488 36.6598 14.3366 45.7402 25.5396 45.7402Z" fill="#C6DDFF"/>
<path d="M25.5396 45.9189C14.2549 45.9189 5.07715 36.7393 5.07715 25.4594C5.07715 14.1796 14.2581 5 25.5396 5C36.8211 5 46.002 14.1796 46.002 25.4594C46.002 36.7393 36.8211 45.9189 25.5396 45.9189ZM25.5396 5.35218C14.452 5.35218 5.43263 14.3702 5.43263 25.4562C5.43263 36.5422 14.452 45.5602 25.5396 45.5602C36.6272 45.5602 45.6466 36.5422 45.6466 25.4562C45.6466 14.3702 36.6272 5.35218 25.5396 5.35218Z" fill="white"/>
<path d="M10.5479 33.9167C11.6193 34.0204 12.4705 33.8193 12.966 33.6584C13.2497 33.7515 13.868 33.94 14.5794 33.7494C15.8668 33.4044 16.0849 32.8899 16.0404 32.5088C15.9833 32.0177 15.2252 31.3783 14.2025 31.6789C13.5991 31.5498 13.1226 31.3296 12.0449 31.3846C10.2536 31.4757 7.91809 32.1404 8.27593 33.0677C8.49825 33.6457 9.684 33.8341 10.5458 33.9188L10.5479 33.9167Z" fill="white"/>
<path d="M11.1437 34.0601C10.9426 34.0601 10.7393 34.0496 10.536 34.0305C9.63826 33.9437 8.41653 33.751 8.16879 33.1053C8.09256 32.9063 8.11585 32.701 8.23866 32.5104C8.70025 31.8012 10.5403 31.3376 12.0394 31.2614C12.8969 31.219 13.3776 31.3439 13.8413 31.4646C13.962 31.4963 14.0784 31.526 14.1991 31.5535C14.8979 31.3587 15.3955 31.5895 15.6326 31.7462C15.9291 31.943 16.126 32.2204 16.1577 32.4893C16.2064 32.9106 15.9778 33.4885 14.6099 33.8569C13.8773 34.0538 13.2378 33.8654 12.9647 33.7765C12.3739 33.9649 11.7641 34.058 11.1416 34.058L11.1437 34.0601ZM10.5593 33.7976C11.3703 33.8781 12.1686 33.7913 12.9308 33.5436L12.9668 33.5309L13.0028 33.5436C13.2336 33.6198 13.8498 33.8209 14.5506 33.6325C15.2176 33.4525 15.9968 33.1138 15.9269 32.5168C15.9036 32.3178 15.7427 32.0976 15.5056 31.9409C15.3002 31.8054 14.8619 31.6043 14.2373 31.7864L14.2097 31.7948L14.1801 31.7885C14.0425 31.7589 13.9112 31.725 13.7841 31.6911C13.3374 31.5747 12.8737 31.454 12.0521 31.4964C10.6229 31.5683 8.83366 32.0256 8.43558 32.6396C8.35301 32.7666 8.33818 32.8915 8.38688 33.0228C8.53722 33.4123 9.26772 33.6727 10.5593 33.7997V33.7976Z" fill="white"/>
<path d="M9.97461 31.9776C9.97461 31.9776 11.8972 29.0984 14.3174 31.8654L9.97461 31.9776Z" fill="white"/>
<path d="M9.97363 31.9756C10.6025 30.6693 12.1482 29.9728 13.4186 30.8853C13.7934 31.1457 14.092 31.4844 14.3164 31.8634C13.9713 31.5924 13.6283 31.3341 13.262 31.1478C12.0275 30.4745 10.9053 31.0779 9.97363 31.9756Z" fill="white"/>
<path d="M37.7493 15.4775C36.1973 15.241 35.0274 15.4931 34.3524 15.7061C33.928 15.5432 32.9962 15.1831 32.0284 15.4524C30.7473 15.8094 30.0974 16.5908 30.2791 17.5428C30.4247 18.3101 31.6134 19.0555 33.0103 18.6671C33.8998 18.9098 34.6249 19.2809 36.1534 19.2716C38.6905 19.2575 41.8806 18.3978 41.1712 16.9447C40.7295 16.0412 38.9974 15.667 37.7477 15.4759L37.7493 15.4775Z" fill="white"/>
<path d="M36.1053 19.3606C34.9339 19.3606 34.2385 19.1398 33.5651 18.9269C33.3772 18.8674 33.1986 18.811 33.0107 18.7593C32.27 18.9597 31.5104 18.8658 30.9231 18.501C30.5269 18.2551 30.2622 17.9138 30.1949 17.5615C30.0038 16.5593 30.6819 15.7403 32.0068 15.3724C32.981 15.1015 33.9002 15.4428 34.356 15.6167C35.4162 15.2863 36.5626 15.2111 37.7622 15.3943C39.759 15.6981 40.8991 16.1945 41.2499 16.9101C41.4081 17.2326 41.3955 17.5427 41.2154 17.8339C40.6094 18.811 38.1553 19.3497 36.1554 19.3606C36.1382 19.3606 36.121 19.3606 36.1053 19.3606ZM33.0123 18.5793L33.0358 18.5855C33.2347 18.6403 33.4304 18.7014 33.6183 18.7609C34.2886 18.9738 34.9808 19.1946 36.1554 19.1868C38.1365 19.1759 40.517 18.6325 41.0698 17.7415C41.2186 17.5004 41.228 17.253 41.0964 16.9836C40.7738 16.3229 39.6744 15.8578 37.7387 15.5634C36.5548 15.3833 35.4256 15.4585 34.381 15.7889L34.3528 15.7983L34.3247 15.7873C33.8893 15.6198 32.9919 15.2753 32.0554 15.5368C30.826 15.8797 30.1949 16.6235 30.3672 17.5286C30.4251 17.8323 30.6616 18.133 31.0171 18.3538C31.5699 18.6967 32.2887 18.7812 32.9904 18.5855L33.0138 18.5793H33.0123Z" fill="white"/>
<path d="M34.4258 16.3917C34.4258 16.3917 37.76 11.8413 40.3299 16.5968L34.4258 16.3917Z" fill="white"/>
<path d="M34.4254 16.3896C35.3369 14.9475 37.249 13.5617 38.9044 14.7063C39.5653 15.1667 40.0241 15.876 40.3295 16.5948C39.891 15.9481 39.4212 15.3296 38.765 14.9193C37.2036 13.9312 35.4903 15.256 34.4238 16.3896H34.4254Z" fill="white"/>
<path d="M37.5919 18.8271C37.5919 18.8271 35.7831 21.1931 33.8584 18.6846L37.5919 18.8271Z" fill="white"/>
<path d="M37.5919 18.8271C36.9561 19.8919 35.6249 20.3945 34.5851 19.5583C34.2781 19.3188 34.0369 19.0165 33.8584 18.6846C34.1325 18.9429 34.4081 19.1872 34.715 19.372C35.7393 20.0328 36.7588 19.5724 37.5935 18.8271H37.5919Z" fill="white"/>
<path d="M42.3732 20.8898C42.1037 19.6148 39.6275 20.1091 39.9182 21.1614C40.2577 22.3898 42.5875 21.9082 42.3732 20.8898Z" fill="white"/>
<path d="M41.0637 22.0094C40.4993 22.0094 39.9646 21.7612 39.8075 21.1947C39.7333 20.9232 39.8118 20.6558 40.0303 20.4437C40.4144 20.0703 41.1613 19.9133 41.7321 20.0851C42.1395 20.2082 42.4089 20.4861 42.4896 20.868C42.5744 21.2711 42.3135 21.7633 41.5369 21.9521C41.382 21.9903 41.2207 22.0094 41.0637 22.0094ZM41.2334 20.2485C40.8388 20.2485 40.4292 20.3822 40.1958 20.6092C40.0367 20.764 39.9815 20.9401 40.0346 21.1311C40.1958 21.7124 40.8854 21.8694 41.4838 21.723C41.9336 21.6127 42.3474 21.3199 42.2625 20.9125C42.184 20.537 41.8933 20.3758 41.6663 20.3058C41.5326 20.2655 41.3841 20.2464 41.2356 20.2464L41.2334 20.2485Z" fill="white"/>
<path d="M22.7289 33.4647L21.499 33.7334L24.1118 45.6926L25.3925 45.6945L22.7289 33.4647Z" fill="#048A6A" stroke="white" stroke-width="0.289988" stroke-linecap="round" stroke-linejoin="round"/>
<path d="M35.6543 31.8831L34.3947 32.0087L31.5907 44.7228L32.9023 44.1811L35.6543 31.8831Z" fill="#048A6A" stroke="white" stroke-width="0.289988" stroke-linecap="round" stroke-linejoin="round"/>
<path d="M18.9471 17.9873L18.5625 18.0713L20.383 26.4041L20.7677 26.3201L18.9471 17.9873Z" fill="#FFFDC2" stroke="white" stroke-width="0.289988" stroke-linecap="round" stroke-linejoin="round"/>
<path d="M18.8468 15.3124C18.7674 14.9491 18.4093 14.7189 18.0469 14.798C17.6844 14.8772 17.455 15.2359 17.5343 15.5991L18.1078 18.224C18.1872 18.5873 18.5453 18.8176 18.9077 18.7384C19.2702 18.6592 19.4996 18.3005 19.4203 17.9373L18.8468 15.3124Z" fill="#FF5E67" stroke="white" stroke-width="0.289988" stroke-linecap="round" stroke-linejoin="round"/>
<path d="M22.0863 18.8397L21.7012 18.7578L19.9269 27.1006L20.312 27.1825L22.0863 18.8397Z" fill="#FFFDC2" stroke="white" stroke-width="0.289988" stroke-linecap="round" stroke-linejoin="round"/>
<path d="M23.0959 16.3608C23.1732 15.9971 22.9418 15.6397 22.5789 15.5626C22.216 15.4854 21.8592 15.7177 21.7818 16.0813L21.2229 18.7094C21.1456 19.0731 21.3771 19.4305 21.7399 19.5076C22.1028 19.5848 22.4596 19.3525 22.537 18.9889L23.0959 16.3608Z" fill="#FF5E67" stroke="white" stroke-width="0.289988" stroke-linecap="round" stroke-linejoin="round"/>
<path d="M21.1334 26.8971L21.4492 26.6621L16.3573 19.8194L16.0415 20.0544L21.1334 26.8971Z" fill="#FFFDC2" stroke="white" stroke-width="0.289988" stroke-linecap="round" stroke-linejoin="round"/>
<path d="M15.6903 20.3791C15.9122 20.6774 16.3334 20.7397 16.631 20.5182C16.9287 20.2967 16.99 19.8754 16.768 19.5771L15.164 17.4216C14.9421 17.1233 14.5209 17.061 14.2232 17.2825C13.9256 17.5039 13.8643 17.9253 14.0863 18.2236L15.6903 20.3791Z" fill="#FF5E67" stroke="white" stroke-width="0.289988" stroke-linecap="round" stroke-linejoin="round"/>
<path d="M25.8401 20.2039C21.8587 21.0737 20.8132 24.2862 20.8689 27.5687C19.5506 24.562 17.2606 22.0783 13.2792 22.9481C8.95127 23.8937 6.38305 27.205 6.38305 27.205C6.38305 27.205 15.2118 23.4581 16.641 29.9998C17.6135 34.4511 20.1602 36.4203 21.741 37.2348C22.5352 37.6457 23.5188 37.4308 24.0736 36.7313C25.1824 35.3293 26.6999 32.4751 25.7255 28.0151C24.2963 21.4733 33.8832 21.1969 33.8832 21.1969C33.8832 21.1969 30.168 19.2583 25.8401 20.2039Z" fill="#FFFDC2" stroke="white" stroke-width="0.289988" stroke-linecap="round" stroke-linejoin="round"/>
<path d="M22.2345 33.816C23.0536 33.6371 24.2668 31.6708 23.4027 27.7158C22.5387 23.7608 20.5002 24.3292 20.1772 24.3997C19.8542 24.4703 17.7645 24.8038 18.6285 28.7588C19.4926 32.7139 21.4153 33.995 22.2345 33.816Z" fill="#FFFDC2" stroke="white" stroke-width="0.289988" stroke-linecap="round" stroke-linejoin="round"/>
<path d="M32.4256 24.8976C33.0504 24.6382 34.7599 25.3808 36.0122 28.4035C37.2644 31.4261 35.6493 31.9864 35.4027 32.0888C35.1562 32.1912 33.6179 32.9337 32.3672 29.9136C31.1165 26.8934 31.8003 25.159 32.4251 24.8997L32.4256 24.8976Z" fill="#FFFDC2" stroke="white" stroke-width="0.289988" stroke-linecap="round" stroke-linejoin="round"/>
<path d="M41.065 26.9731C41.5038 27.4879 41.3253 29.3437 38.8392 31.4662C36.3531 33.5887 35.32 32.2285 35.1468 32.0253C34.9737 31.8221 33.7913 30.5898 36.2778 28.4652C38.766 26.3432 40.6262 26.4582 41.065 26.9731Z" fill="#FFFDC2" stroke="white" stroke-width="0.289988" stroke-linecap="round" stroke-linejoin="round"/>
<path d="M36.2409 27.6078L36.5078 27.6719L35.1188 33.4544L34.8519 33.3902L36.2409 27.6078Z" fill="#FFFDC2" stroke="white" stroke-width="0.289988" stroke-linecap="round" stroke-linejoin="round"/>
<path d="M36.3507 25.7445C36.4112 25.4924 36.6642 25.337 36.9157 25.3974C37.1672 25.4579 37.322 25.7112 37.2615 25.9632L36.8239 27.7848C36.7633 28.0368 36.5104 28.1922 36.2589 28.1318C36.0074 28.0714 35.8526 27.8181 35.9131 27.566L36.3507 25.7445Z" fill="#FF5E67" stroke="white" stroke-width="0.289988" stroke-linecap="round" stroke-linejoin="round"/>
<path d="M34.4179 28.1424L34.6875 28.0908L35.8042 33.932L35.5345 33.9836L34.4179 28.1424Z" fill="#FFFDC2" stroke="white" stroke-width="0.289988" stroke-linecap="round" stroke-linejoin="round"/>
<path d="M33.7482 26.4016C33.6995 26.1469 33.866 25.9012 34.1201 25.8526C34.3741 25.804 34.6195 25.9711 34.6682 26.2257L35.02 28.0657C35.0687 28.3203 34.9022 28.5661 34.6481 28.6147C34.394 28.6633 34.1486 28.4962 34.1 28.2416L33.7482 26.4016Z" fill="#FF5E67" stroke="white" stroke-width="0.289988" stroke-linecap="round" stroke-linejoin="round"/>
<path d="M35.2681 29.4288L35.542 29.4473L35.143 35.3808L34.8691 35.3624L35.2681 29.4288Z" fill="#FFFDC2" stroke="white" stroke-width="0.289988" stroke-linecap="round" stroke-linejoin="round"/>
<path d="M35.0593 27.5744C35.0767 27.3158 35.3 27.1202 35.5581 27.1375C35.8162 27.1549 36.0113 27.3786 35.9939 27.6373L35.8682 29.5064C35.8508 29.7651 35.6275 29.9607 35.3694 29.9433C35.1113 29.926 34.9162 29.7022 34.9336 29.4436L35.0593 27.5744Z" fill="#FF5E67" stroke="white" stroke-width="0.289988" stroke-linecap="round" stroke-linejoin="round"/>
<path d="M34.168 33.6733L33.9512 33.5049L37.5992 28.8082L37.816 28.9766L34.168 33.6733Z" fill="#FFFDC2" stroke="white" stroke-width="0.289988" stroke-linecap="round" stroke-linejoin="round"/>
<path d="M38.056 29.2058C37.897 29.4106 37.6025 29.4479 37.3982 29.2892C37.1939 29.1306 37.1572 28.836 37.3163 28.6313L38.4654 27.1518C38.6244 26.947 38.9189 26.9097 39.1232 27.0683C39.3275 27.227 39.3642 27.5216 39.2052 27.7263L38.056 29.2058Z" fill="#FF5E67" stroke="white" stroke-width="0.289988" stroke-linecap="round" stroke-linejoin="round"/>
<path d="M34.1772 35.1373L33.9248 35.0293L36.2645 29.5619L36.5168 29.6699L34.1772 35.1373Z" fill="#FFFDC2" stroke="white" stroke-width="0.289988" stroke-linecap="round" stroke-linejoin="round"/>
<path d="M36.8056 29.8325C36.7036 30.0708 36.4281 30.1815 36.1903 30.0798C35.9525 29.978 35.8424 29.7023 35.9444 29.464L36.6814 27.7417C36.7834 27.5034 37.0589 27.3926 37.2967 27.4944C37.5345 27.5962 37.6446 27.8719 37.5426 28.1102L36.8056 29.8325Z" fill="#FF5E67" stroke="white" stroke-width="0.289988" stroke-linecap="round" stroke-linejoin="round"/>
<path d="M42.2604 35.1118C41.9064 35.6884 40.0876 36.092 37.2998 34.3835C34.512 32.6751 35.4871 31.2715 35.6258 31.044C35.7645 30.8166 36.5724 29.3103 39.3597 31.0207C42.147 32.7312 42.614 34.5373 42.2604 35.1118Z" fill="#FFFDC2" stroke="white" stroke-width="0.289988" stroke-linecap="round" stroke-linejoin="round"/>
<path d="M27.6654 31.6053C27.6119 30.9308 28.8483 29.5339 32.1059 29.2777C35.3634 29.0214 35.401 30.7308 35.4218 30.9944C35.4425 31.258 35.6731 32.9534 32.4136 33.2092C29.154 33.465 27.7169 32.2793 27.6634 31.6048L27.6654 31.6053Z" fill="#FFFDC2" stroke="white" stroke-width="0.289988" stroke-linecap="round" stroke-linejoin="round"/>
<path d="M33.8953 37.9647C33.2372 37.8066 32.0548 36.2963 32.0083 33.0266C31.9559 29.4948 35.3311 30.9198 35.5899 30.9819C35.8486 31.0441 39.2833 31.0825 37.8118 34.3281C36.4609 37.3051 34.5534 38.1227 33.8973 37.9651L33.8953 37.9647Z" fill="#FFFDC2" stroke="white" stroke-width="0.289988" stroke-linecap="round" stroke-linejoin="round"/>
<path d="M21.0705 7.4375C21.0705 9.2164 21.0705 10.9953 21.0705 12.7742C21.401 12.6617 21.7455 12.5703 22.1041 12.4859V13.8218C21.1619 14.0328 20.2971 14.3422 19.5518 14.8203V8.15468C20.0158 7.85937 20.5221 7.62734 21.0705 7.44453V7.4375Z" fill="#FF5E67"/>
<path d="M24.3894 6.8457C24.3894 9.06757 24.3894 11.2894 24.3894 13.5183C23.7566 13.5605 23.1309 13.6308 22.5332 13.7363V7.06367C23.1309 6.95117 23.7566 6.88086 24.3894 6.8457Z" fill="#FF5E67"/>
<path d="M27.0617 6.8748C27.0617 8.6537 27.0617 10.4326 27.0617 12.2115C27.4414 12.2396 27.8211 12.2888 28.1937 12.3451V13.681C27.2164 13.5334 26.1828 13.4701 25.1562 13.4912C25.1562 11.2693 25.1562 9.04744 25.1562 6.81855C25.7961 6.80449 26.4359 6.81855 27.0687 6.8748H27.0617Z" fill="#FF5E67"/>
<path d="M31.5463 8.1541C31.2088 9.35643 30.8502 10.5939 30.4635 11.8595C30.4635 12.6611 30.4635 13.4697 30.4635 14.2713C29.9783 14.0744 29.458 13.9267 28.9096 13.8072C28.9096 13.0056 28.9096 12.197 28.9096 11.3955C28.4947 9.89081 28.0658 8.40019 27.6299 6.93066C28.1994 6.99394 28.7549 7.09238 29.2822 7.22598C29.5283 8.59003 29.6619 9.51112 29.6971 9.96815C29.7885 9.28612 29.9432 8.45644 30.1541 7.48613C30.6533 7.66191 31.1174 7.87988 31.5392 8.1541H31.5463Z" fill="#FF5E67"/>
<path d="M13.8725 36.8157C9.65114 35.4658 15.6736 41.3219 19.5295 44.6381C21.2466 45.2908 22.2863 45.452 24.1624 45.6817C22.4913 43.2888 18.0938 38.1656 13.8725 36.8157Z" fill="#57BEA5" stroke="white" stroke-width="0.289988"/>
<path d="M27.8718 35.3345C29.9984 32.4818 28.5643 41.5867 27.5953 45.5552C26.4639 45.838 25.4983 45.7112 25.2935 45.7112C25.2669 43.3662 25.7453 38.1873 27.8718 35.3345Z" fill="#57BEA5" stroke="white" stroke-width="0.289988"/>
<path d="M30.2746 37.6342C31.1913 35.0446 31.4511 41.5289 31.643 44.677C31.0676 44.9501 30.5507 45.0086 30.5507 45.0086C29.9954 43.2852 29.3579 40.2238 30.2746 37.6342Z" fill="#57BEA5" stroke="white" stroke-width="0.19507"/>
</g>
<path d="M63.8812 19.212V25.948H69.4813V19.212H68.2173V21.484H65.1293V19.212H63.8812ZM65.1293 22.54H68.2173V24.876H65.1293V22.54ZM74.1533 18.3V26.972H75.4173V18.3H74.1533ZM71.8173 22.044V23.148H74.5533V22.044H71.8173ZM71.0493 18.556V26.892H72.3133V18.556H71.0493ZM65.7213 27.836V28.924H74.1053V32.748H75.4173V27.836H65.7213ZM87.528 18.284V26.684H88.856V18.284H87.528ZM88.28 21.964V23.084H91V21.964H88.28ZM79.768 27.324V32.556H88.856V27.324H87.544V28.86H81.064V27.324H79.768ZM81.064 29.884H87.544V31.484H81.064V29.884ZM77.672 19.756V20.844H86.216V19.756H77.672ZM81.944 21.5C79.864 21.5 78.472 22.508 78.472 24.044C78.472 25.58 79.864 26.588 81.944 26.588C84.008 26.588 85.4 25.58 85.4 24.044C85.4 22.508 84.008 21.5 81.944 21.5ZM81.944 22.508C83.24 22.508 84.136 23.116 84.136 24.044C84.136 24.972 83.24 25.58 81.944 25.58C80.616 25.58 79.736 24.972 79.736 24.044C79.736 23.116 80.616 22.508 81.944 22.508ZM81.272 18.14V20.348H82.6V18.14H81.272Z" fill="white"/>
<defs>
<clipPath id="clip0_4045_176383">
<rect width="41" height="41" fill="white" transform="translate(5 5)"/>
</clipPath>
</defs>
</svg>
