<svg width="111" height="35" viewBox="0 0 111 35" fill="none" xmlns="http://www.w3.org/2000/svg">
<path d="M94.0695 33.1481C100.153 35.0901 102.106 27.0365 98.1643 26.0129C93.5692 24.8194 90.3954 31.9753 94.0695 33.1481Z" fill="#FF5E67" stroke="#1E1F21" stroke-width="1.3" stroke-miterlimit="10" stroke-linecap="round" stroke-linejoin="round"/>
<path d="M104.639 19.8933C106.586 17.2765 106.727 14.7847 107.037 13.2676C107.735 12.6714 109.225 11.3463 109.78 9.22917C110.786 5.4006 109.673 4.0832 108.524 3.64278C107.049 3.07616 103.439 3.5944 102.71 6.67477C101.414 8.04496 100.059 8.95414 98.5513 11.8207C96.0472 16.5817 94.9647 24.094 98.1395 24.5203C101.146 24.924 103.071 22.0368 104.639 19.9313V19.8933Z" fill="#FF5E67" stroke="#1E1F21" stroke-width="1.3" stroke-miterlimit="10" stroke-linecap="round" stroke-linejoin="round"/>
<path d="M43.8686 33.3167C47.6388 34.5304 49.4821 28.7708 46.5321 28.0419C43.0945 27.193 41.1176 32.4793 43.8686 33.3167Z" fill="#FF5E67" stroke="#1E1F21" stroke-width="1.3" stroke-miterlimit="10" stroke-linecap="round" stroke-linejoin="round"/>
<path d="M50.6097 24.996C48.39 33.7155 54.811 34.0079 57.1868 32.5552C60.937 30.263 61.2201 25.3707 60.6222 25.3707C59.634 25.3707 55.36 33.324 62.457 33.7194C69.5566 34.1147 70.767 25.4493 70.0355 25.4493C69.0407 25.4493 63.5946 34.617 72.6137 33.6756C81.1367 32.787 79.6062 18.9061 79.6062 18.9061C84.1051 13.8142 82.3881 8.25484 78.5439 8.25484C72.0462 8.25484 66.9877 16.6048 68.2311 16.6499C70.3053 16.7259 71.6057 7.91357 66.5683 7.91357C60.5468 7.91357 52.1481 18.9511 50.6083 24.9947L50.6097 24.996Z" fill="#FF5E67" stroke="#1E1F21" stroke-width="1.3" stroke-miterlimit="10" stroke-linecap="round" stroke-linejoin="round"/>
<path d="M28.8226 5.45769C28.439 4.58036 27.3621 3.12479 25.5022 2.08795C24.4598 1.50598 22.9314 0.698437 19.6812 1.11467C17.1149 1.44367 15.2233 2.37209 13.9719 3.18835C13.9071 2.65498 12.9362 1.54044 11.6662 1.54044C9.48225 1.54044 6.31589 4.04982 4.47319 7.29618C0.447818 14.3921 0.918255 22.1227 1.14181 25.0775C1.62068 31.3883 5.11026 33.749 7.12228 33.749C10.2111 33.749 11.8754 30.8804 12.2207 28.7494C12.5011 27.0184 12.4886 25.1033 12.0825 23.5169C13.4596 23.6515 15.2577 24.1961 17.7499 23.5169C21.4379 22.5112 24.0624 19.4451 25.122 18.3983C29.4252 14.4802 30.5343 9.377 28.8226 5.45769ZM17.7499 12.4564C15.976 13.8235 14.2788 14.6347 13.96 14.2683C13.6412 13.902 14.8211 12.495 16.5951 11.1279C18.369 9.76083 20.0662 8.94955 20.385 9.31593C20.6205 9.58664 19.5238 11.0893 17.7499 12.4564Z" fill="#FF5E67" stroke="#1E1F21" stroke-width="1.3" stroke-miterlimit="10" stroke-linecap="round" stroke-linejoin="round"/>
<path d="M12.2201 24.0402C12.2201 24.0402 11.6667 20.9007 9.45312 18.8077Z" fill="#FF5E67"/>
<path d="M12.2201 24.0402C12.2201 24.0402 11.6667 20.9007 9.45312 18.8077" stroke="#1E1F21" stroke-width="1.3" stroke-miterlimit="10" stroke-linecap="round" stroke-linejoin="round"/>
<path d="M85.7402 23.2396C85.7402 24.9933 93.5052 20.664 90.6611 17.7498C88.5856 15.6236 83.6075 17.2278 80.2871 18.8498C80.2871 18.8498 77.7331 19.1619 77.5201 22.0942C77.3707 24.1585 80.1892 24.8015 80.2871 24.7977C77.152 25.3656 75.9102 27.9644 75.6906 29.56C75.1827 33.2662 79.1856 33.5998 81.1513 32.6429C81.1513 32.6429 87.6954 35.6872 90.4349 31.6861C92.8372 28.1769 88.874 27.175 86.94 27.6463C85.6291 27.9657 84.5377 28.3907 85.0828 28.8156C85.8063 29.3797 91.2921 27.8975 91.2921 24.1822C91.2921 20.467 85.7389 22.1411 85.7389 23.2409L85.7402 23.2396Z" fill="#FF5E67" stroke="#1E1F21" stroke-width="1.3" stroke-miterlimit="10" stroke-linecap="round" stroke-linejoin="round"/>
<path d="M34.3177 4.4348C29.492 2.97277 25.9585 10.6752 30.0898 11.6909C36.5685 13.4429 38.2287 5.61967 34.3177 4.4348Z" fill="#FF5E67" stroke="#1E1F21" stroke-width="1.3" stroke-miterlimit="10" stroke-linecap="round" stroke-linejoin="round"/>
<path d="M25.1485 16.5038C23.0092 19.0632 21.6957 22.2136 21.3629 23.6926C20.5931 24.278 19.2599 25.7375 18.6587 27.8005C17.5722 31.5331 19.2314 32.8875 20.5085 33.3098C22.1464 33.8513 25.4382 32.8361 26.2256 29.833C27.6538 28.4906 29.1465 27.5982 30.7975 24.7982C33.538 20.1494 36.0153 14.5242 31.5881 13.4427C29.396 13.1971 26.8699 14.4446 25.1485 16.5038Z" fill="#FF5E67" stroke="#1E1F21" stroke-width="1.3" stroke-miterlimit="10" stroke-linecap="round" stroke-linejoin="round"/>
<path d="M36.966 23.9491C38.2358 22.0704 39.4927 21.7865 40.4764 21.7865C41.6465 22.8678 43.7053 23.1672 44.4256 22.4551C46.3271 21.2458 46.6157 17.9598 44.5318 16.4571C42.7935 15.2042 39.6395 14.3041 36.3809 15.9897C29.1365 19.7355 26.787 30.8108 32.8007 32.938C41.5497 35.6118 45.4235 28.0419 42.4173 25.7C41.7893 24.9699 39.8607 24.7291 38.8118 25.9395C36.966 27.5012 35.6485 25.8974 36.966 23.9491Z" fill="#FF5E67" stroke="#1E1F21" stroke-width="1.3" stroke-miterlimit="10" stroke-linecap="round" stroke-linejoin="round"/>
</svg>
