<svg width="149" height="158" viewBox="0 0 149 158" fill="none" xmlns="http://www.w3.org/2000/svg">
<g clip-path="url(#clip0_2067_16578)">
<path d="M83.0329 108.192C81.7775 110.309 80.8711 112.439 80.4012 114.744C79.5217 119.079 80.3206 123.139 82.3683 127.011C85.2685 132.485 89.3637 136.961 93.9759 141.028C98.1316 144.686 102.69 147.821 107.208 150.997C107.846 151.446 108.497 151.875 109.095 152.371C110.323 153.396 110.578 154.829 110.001 156.203C109.289 157.885 107.134 158.494 105.376 157.483C104.368 156.9 103.402 156.23 102.435 155.586C96.5271 151.667 90.928 147.366 85.9734 142.274C82.6167 138.823 79.562 135.138 77.1451 130.964C75.695 128.459 74.6813 125.779 74.1173 122.938C74.0905 122.817 74.0569 122.703 74.0099 122.536H73.3654C51.0362 122.536 28.7138 122.536 6.38456 122.536C5.062 122.536 3.73272 122.516 2.41016 122.502C0.906326 122.482 0.0335676 121.585 0.0335676 120.05C0.0201406 111.856 0 103.669 0 95.4886C0 74.5581 0.0201406 53.6344 0.0335676 32.704C0.0335676 30.7275 0.0335676 28.7511 0.0335676 26.7746C0.0402812 23.3845 2.44372 20.9859 5.83405 20.9859C10.2448 20.9859 14.6556 20.9859 19.0731 20.9859C19.2544 20.9859 19.4424 20.9859 19.6572 20.9859C19.7982 19.7732 19.9325 18.6075 20.0667 17.4417C20.2681 15.6997 20.4628 13.9578 20.6642 12.2091C20.8724 10.4202 21.0738 8.63135 21.2886 6.84248C21.396 5.9514 21.4631 5.04022 21.6713 4.16923C22.3023 1.54958 24.84 -0.232585 27.5255 0.0421097C30.2511 0.323505 32.9701 0.665198 35.6891 0.973393C38.2402 1.26819 40.7914 1.54958 43.3425 1.85108C45.8802 2.14587 48.4112 2.45407 50.949 2.74886C54.0237 3.10395 57.1053 3.45235 60.18 3.80744C62.7178 4.10224 65.2488 4.41043 67.7865 4.70522C70.6129 5.03352 73.446 5.34841 76.2791 5.67671C79.0585 5.9983 81.8446 6.33999 84.624 6.66829C87.4504 6.99658 90.2835 7.31148 93.1166 7.63977C95.896 7.96136 98.6821 8.30306 101.462 8.62465C103.751 8.89265 106.04 9.14724 108.329 9.40854C110.572 9.66983 112.814 9.93113 115.05 10.2058C115.855 10.2996 116.668 10.3666 117.453 10.5341C120.058 11.0902 121.944 13.5156 121.763 16.1553C121.636 18.0782 121.367 19.9876 121.152 21.9038C120.89 24.2488 120.622 26.5937 120.347 28.9387C120.085 31.2099 119.823 33.4745 119.561 35.7458C119.293 38.0773 119.031 40.4089 118.762 42.7337C118.527 44.7571 118.292 46.7738 118.057 48.7971C117.822 50.8473 117.594 52.9041 117.359 54.9543C117.097 57.239 116.829 59.5236 116.567 61.8016C116.298 64.1331 116.037 66.4647 115.768 68.7895C115.533 70.8129 115.298 72.8296 115.063 74.8529C114.929 76.0053 114.801 77.1644 114.667 78.3503C119.971 77.7004 123.757 79.8443 126.201 84.5477C126.644 84.2462 127.087 83.938 127.537 83.6365C132.908 80.0319 140.105 82.2027 142.548 88.179C143.884 91.4418 145.032 94.7717 145.986 98.1685C147.382 103.133 148.349 108.185 148.772 113.324C149.161 118.114 149.067 122.891 148.557 127.675C148.074 132.217 146.905 136.586 145.569 140.927C145.402 141.477 145.267 142.039 145.032 142.562C144.032 144.8 141.138 145.215 139.621 143.326C138.836 142.354 138.829 141.235 139.158 140.09C139.742 138.093 140.427 136.123 140.924 134.107C142.139 129.155 142.568 124.117 142.508 119.025C142.387 109.672 140.534 100.668 137.13 91.9644C136.943 91.4887 136.761 91.013 136.546 90.544C135.727 88.715 133.646 87.8239 131.787 88.5006C129.913 89.184 128.9 91.214 129.484 93.1704C129.712 93.9275 129.853 94.6846 129.658 95.4618C129.35 96.6945 128.228 97.6392 126.906 97.7933C125.516 97.9608 124.301 97.3511 123.663 96.0714C123.254 95.2407 122.945 94.3563 122.602 93.492C121.75 91.3078 120.917 89.117 120.065 86.9328C119.474 85.4253 118.232 84.6415 116.507 84.6415C115.009 84.6415 113.62 85.5794 113.069 86.9596C112.854 87.5023 112.875 88.045 113.049 88.6011C113.606 90.4101 114.164 92.2257 114.707 94.0414C115.171 95.5824 114.788 97.0161 113.707 97.8536C112.035 99.1467 109.665 98.5504 108.773 96.5605C108.444 95.8302 108.249 95.0397 108.014 94.2692C107.121 91.2676 106.248 88.2594 105.362 85.2578C104.852 83.536 103.516 82.4104 101.965 82.3903C99.4877 82.3568 97.8161 84.4137 98.427 86.8256C99.4273 90.7852 100.481 94.7315 101.475 98.6911C101.656 99.4147 101.811 100.199 101.743 100.929C101.623 102.296 100.75 103.147 99.434 103.482C98.1048 103.817 96.903 103.468 96.1108 102.356C95.5872 101.626 95.2582 100.741 94.9293 99.8904C91.1495 90.1756 87.39 80.4473 83.6237 70.7325C82.0863 66.7662 80.5556 62.7932 78.9914 58.8335C78.4677 57.507 77.6621 56.3881 76.1985 55.966C74.0301 55.3362 71.5058 57.2256 71.5326 59.4767C71.5393 60.0864 71.6468 60.7229 71.8616 61.2924C72.9895 64.2939 74.1643 67.2754 75.3258 70.2635C76.3932 73.0172 77.4607 75.7775 78.5281 78.5312C79.5754 81.2446 80.6295 83.9581 81.6768 86.6715C82.7509 89.4453 83.8251 92.2123 84.8993 94.9861C87.5981 101.954 90.2969 108.922 92.9958 115.89C93.4657 117.102 93.9692 118.302 94.3788 119.534C94.5802 120.144 94.7144 120.814 94.6809 121.444C94.607 122.817 93.7007 123.829 92.3915 124.191C91.0891 124.553 89.7666 124.157 89.0281 122.985C88.4776 122.121 88.1016 121.129 87.7256 120.171C86.2151 116.332 84.7381 112.479 83.2477 108.634C83.2007 108.506 83.1403 108.386 83.053 108.171L83.0329 108.192ZM6.81423 27.7327V92.8354H29.4187C29.3045 81.8878 38.2402 71.8916 50.197 71.7375C55.2657 71.6705 59.8108 73.2249 63.7181 76.4542C68.8405 80.6885 71.3715 86.2092 71.546 92.8421H77.125C77.0713 92.688 77.031 92.5674 76.9907 92.4535C74.4799 85.9747 71.969 79.4959 69.4649 73.0172C68.2363 69.8347 66.9741 66.659 65.806 63.4564C65.0541 61.3929 64.8191 59.2489 65.4099 57.0849C66.0477 54.7265 67.5314 52.9644 69.391 51.4771C69.8475 51.1086 70.2436 50.6932 70.8277 50.4386C72.3651 49.7686 73.9428 49.3934 75.6144 49.4939C79.938 49.7619 82.9926 51.9059 84.7918 55.8119C85.3021 56.9241 85.6982 58.0898 86.1413 59.2355C88.7394 65.9354 91.3308 72.6353 93.9289 79.3352C93.9692 79.4423 94.0364 79.5362 94.0901 79.6366C94.1169 79.6299 94.1371 79.6232 94.1639 79.6165V27.7327H6.81423ZM100.938 76.0589C103.509 75.8847 105.819 76.4475 107.913 78.0086C110.256 57.6142 112.593 37.3068 114.929 16.9794C85.9533 13.6094 57.0448 10.246 28.0827 6.87598C27.5389 11.5927 27.0018 16.2692 26.458 20.9926C26.7333 20.9926 26.9347 20.9926 27.1361 20.9926C39.5628 20.9926 51.9895 20.9926 64.4096 20.9926C74.7148 20.9926 85.0201 20.9926 95.3254 20.9926C96.4667 20.9926 97.514 21.2941 98.4471 21.944C100.166 23.1433 100.938 24.8116 100.931 26.8885C100.924 43.0352 100.931 59.1886 100.931 75.3353V76.0589H100.938Z" fill="#FF5D5D"/>
<path d="M50.4663 67.5298C43.4976 67.5097 37.8449 61.8148 37.8516 54.8201C37.8516 47.8054 43.5715 42.077 50.5267 42.1239C57.5893 42.1708 63.1548 47.8657 63.0944 55.0412C63.0407 61.7679 57.5759 67.503 50.4663 67.5298Z" fill="#FF5D5D"/>
</g>
<defs>
<clipPath id="clip0_2067_16578">
<rect width="149" height="157.956" fill="white" transform="translate(0 0.0218506)"/>
</clipPath>
</defs>
</svg>
