<svg width="202" height="68" viewBox="0 0 202 68" fill="none" xmlns="http://www.w3.org/2000/svg">
<path d="M170.154 65.5494C178.183 68.5398 184.178 53.0963 177.3 51.0105C169.281 48.5787 163.742 63.1597 170.154 65.5494Z" fill="#FF5D5D" stroke="white" stroke-width="1.94392" stroke-miterlimit="10" stroke-linecap="round" stroke-linejoin="round"/>
<path d="M188.982 39.3412C192.634 34.3194 194.018 29.5374 194.598 26.6261C195.908 25.4819 198.701 22.9389 199.742 18.876C201.627 11.5287 199.541 9.0005 197.386 8.1553C194.62 7.06791 189.039 9.0351 187.673 14.9466C185.242 17.5761 182.702 19.3208 179.874 24.8221C175.179 33.9586 171.962 47.4027 177.915 48.2208C181.621 48.7299 186.046 43.3819 188.985 39.3412H188.982Z" fill="#FF5D5D" stroke="white" stroke-width="1.94392" stroke-miterlimit="10" stroke-linecap="round" stroke-linejoin="round"/>
<path d="M78.3442 65.6749C83.8804 67.7039 87.9483 57.0549 83.2058 55.6437C77.6794 54.0003 73.9216 64.0537 78.3442 65.6749Z" fill="#FF5D5D" stroke="white" stroke-width="1.94392" stroke-miterlimit="10" stroke-linecap="round" stroke-linejoin="round"/>
<path d="M90.8709 49.1337C86.7088 65.8672 98.7487 66.4282 103.204 63.6405C110.235 59.2415 110.766 49.8529 109.645 49.8529C107.792 49.8529 99.7781 65.1159 113.085 65.8746C126.398 66.6333 128.667 50.0036 127.296 50.0036C125.43 50.0036 115.219 67.5971 132.13 65.7906C148.111 64.0854 145.241 37.4467 145.241 37.4467C153.677 27.675 150.458 17.0062 143.25 17.0062C131.066 17.0062 121.581 33.0304 123.912 33.1169C127.802 33.2627 130.24 16.3513 120.795 16.3513C109.504 16.3513 93.7557 37.5332 90.8685 49.1312L90.8709 49.1337Z" fill="#FF5D5D" stroke="white" stroke-width="1.94392" stroke-miterlimit="10" stroke-linecap="round" stroke-linejoin="round"/>
<path d="M53.2797 9.82698C52.5604 8.08716 50.6753 5.34396 47.1878 3.2878C45.2333 2.13369 41.0488 0.388916 34.9545 1.21435C30.1425 1.86678 26.5955 3.70793 24.249 5.32666C24.1275 4.26893 23.2246 1.80747 20.8434 1.80747C16.7483 1.80747 12.1397 7.66456 8.68448 14.1024C1.13659 28.1743 0.690121 42.6242 1.10931 48.4838C2.00722 60.9987 7.63278 65.9315 11.4055 65.9315C17.1972 65.9315 19.2783 59.847 19.9257 55.621C20.4515 52.1883 20.3374 47.6559 19.5759 44.5099C22.1581 44.7768 27.1734 44.9325 31.8465 43.5856C38.7619 41.5912 43.1696 37.5654 45.1564 35.4894C53.2252 27.7195 56.4919 17.5994 53.2822 9.82698H53.2797ZM31.3331 23.7061C28.0069 26.4171 24.8245 28.026 24.2267 27.2994C23.6289 26.5728 25.8415 23.7827 29.1677 21.0716C32.4939 18.3605 35.6763 16.7517 36.2741 17.4783C36.8718 18.2048 34.6593 20.995 31.3331 23.7061V23.7061Z" fill="#FF5D5D" stroke="white" stroke-width="1.94392" stroke-miterlimit="10" stroke-linecap="round" stroke-linejoin="round"/>
<path d="M19.5758 44.5105C19.5758 44.5105 18.4422 38.9153 16.0312 35.0205Z" fill="#FF5D5D"/>
<path d="M19.5758 44.5105C19.5758 44.5105 18.4422 38.9153 16.0312 35.0205" stroke="white" stroke-width="1.94392" stroke-miterlimit="10" stroke-linecap="round" stroke-linejoin="round"/>
<path d="M154.673 45.763C154.673 47.2063 169.233 40.8204 163.9 35.2277C160.008 31.1475 148.938 34.0167 146.07 38.7098C146.07 38.7098 139.517 38.5047 139.118 44.132C138.838 48.0935 144.815 48.7583 144.999 48.7509C139.12 49.8408 136.241 54.8304 135.829 57.8924C134.876 65.0049 142.382 65.645 146.068 63.8088C146.068 63.8088 158.339 69.6511 163.476 61.9726C167.98 55.2382 160.549 53.3155 156.922 54.22C154.464 54.8329 152.418 55.6484 153.44 56.464C154.797 57.5464 165.083 54.7019 165.083 47.5721C165.083 40.4422 154.67 43.655 154.67 45.7655L154.673 45.763Z" fill="#FF5D5D" stroke="white" stroke-width="1.94392" stroke-miterlimit="10" stroke-linecap="round" stroke-linejoin="round"/>
<path d="M63.093 9.15516C55.0441 6.21673 49.1506 21.6972 56.0412 23.7386C64.0752 26.1185 69.5197 11.5029 63.093 9.15516Z" fill="#FF5D5D" stroke="white" stroke-width="1.94392" stroke-miterlimit="10" stroke-linecap="round" stroke-linejoin="round"/>
<path d="M44.4353 35.4851C40.8164 40.5316 39.4646 45.3211 38.9015 48.2372C37.5993 49.3914 34.8237 51.9517 33.8068 56.0195C31.9688 63.3792 34.0722 65.8925 36.2326 66.7254C39.0032 67.793 44.5717 65.7912 45.9037 59.8699C48.3196 57.223 50.8447 55.4635 53.6376 49.9425C58.2735 40.7762 61.4038 27.3124 55.4458 26.5314C51.7376 26.047 47.3473 31.4222 44.4353 35.4826V35.4851Z" fill="#FF5D5D" stroke="white" stroke-width="1.94392" stroke-miterlimit="10" stroke-linecap="round" stroke-linejoin="round"/>
<path d="M64.3549 47.3663C66.6071 43.7606 70.2881 42.9352 71.0867 43.2392C73.3414 47.3465 76.499 46.2147 77.7764 44.848C79.974 42.4978 81.6607 36.2205 77.9649 33.3365C74.8818 30.9319 70.0896 29.2044 64.3103 32.4394C51.4618 39.6285 47.2947 60.8846 57.9604 64.9672C70.7817 69.8728 77.01 54.59 74.2145 51.0758C73.1008 49.6745 69.6804 49.2124 67.8201 51.5355C65.0048 56.2038 62.0184 51.103 64.3549 47.3638V47.3663Z" fill="#FF5D5D" stroke="white" stroke-width="1.94392" stroke-miterlimit="10" stroke-linecap="round" stroke-linejoin="round"/>
</svg>
