<svg width="34" height="34" viewBox="0 0 34 34" fill="none" xmlns="http://www.w3.org/2000/svg">
<circle cx="17" cy="17" r="17" fill="#FFFDC2"/>
<path d="M6.7479 20.0743C5.21704 26.1077 9.6454 26.31 11.2839 25.3049C13.8703 23.7188 14.0655 20.3336 13.6532 20.3336C12.9717 20.3336 10.024 25.8368 14.9186 26.1104C19.8149 26.3839 20.6497 20.388 20.1452 20.388C19.4591 20.388 15.7031 26.7314 21.9233 26.0801C27.8013 25.4652 26.7458 15.8605 26.7458 15.8605C29.8485 12.3373 28.6643 8.49056 26.0132 8.49056C21.5319 8.49056 18.0432 14.2682 18.9008 14.2994C20.3313 14.3519 21.2281 8.25443 17.754 8.25443C13.6012 8.25443 7.80892 15.8917 6.74699 20.0734L6.7479 20.0743Z" fill="#FF5E67" stroke="white" stroke-width="0.172474" stroke-linecap="round" stroke-linejoin="round"/>
<path d="M9.66099 18.2006C9.66099 18.2006 10.3434 12.6003 13.2318 12.6003C10.3434 12.6003 9.66099 7 9.66099 7C9.66099 7 8.97859 12.6003 6.09021 12.6003C8.97859 12.6003 9.66099 18.2006 9.66099 18.2006Z" fill="#3973CB" stroke="white" stroke-width="0.172474" stroke-linecap="round" stroke-linejoin="round"/>
<path d="M5.50531 19.0575C5.50531 19.0575 5.79269 16.6962 7.01063 16.6962C5.79269 16.6962 5.50531 14.3349 5.50531 14.3349C5.50531 14.3349 5.21793 16.6962 4 16.6962C5.21793 16.6962 5.50531 19.0575 5.50531 19.0575Z" fill="#3973CB" stroke="white" stroke-width="0.172474" stroke-linecap="round" stroke-linejoin="round"/>
<path d="M25.3056 25.5738C25.3056 25.5738 25.7636 21.8136 27.7032 21.8136C25.7636 21.8136 25.3056 18.0533 25.3056 18.0533C25.3056 18.0533 24.8477 21.8136 22.9081 21.8136C24.8477 21.8136 25.3056 25.5738 25.3056 25.5738Z" fill="#3973CB" stroke="white" stroke-width="0.172474" stroke-linecap="round" stroke-linejoin="round"/>
<path d="M11.6835 19.2565C11.6835 19.2565 11.6643 21.2035 12.739 21.2035" stroke="white" stroke-width="0.172474" stroke-miterlimit="10" stroke-linecap="round"/>
<path d="M12.5432 19.364C12.5432 19.364 12.2714 20.6525 12.9839 20.7897" stroke="white" stroke-width="0.172474" stroke-miterlimit="10" stroke-linecap="round"/>
<path d="M18.1762 19.2565C18.1762 19.2565 18.157 21.2035 19.2317 21.2035" stroke="white" stroke-width="0.172474" stroke-miterlimit="10" stroke-linecap="round"/>
<path d="M19.0359 19.364C19.0359 19.364 18.764 20.6525 19.4766 20.7897" stroke="white" stroke-width="0.172474" stroke-miterlimit="10" stroke-linecap="round"/>
<path d="M13.7547 21.2908C13.859 20.8613 13.7742 20.4739 13.5654 20.4255C13.3565 20.3771 13.1027 20.6861 12.9984 21.1156C12.8941 21.5451 12.9789 21.9326 13.1877 21.9809C13.3966 22.0293 13.6504 21.7203 13.7547 21.2908Z" fill="white"/>
<path d="M20.2745 21.2908C20.3788 20.8613 20.294 20.4739 20.0851 20.4255C19.8763 20.3771 19.6224 20.6861 19.5182 21.1156C19.4139 21.5451 19.4987 21.9326 19.7075 21.9809C19.9164 22.0293 20.1702 21.7203 20.2745 21.2908Z" fill="white"/>
</svg>
