<svg width="126" height="51" viewBox="0 0 126 51" fill="none" xmlns="http://www.w3.org/2000/svg">
<rect width="126" height="51" rx="25.5" fill="#FF5E67"/>
<g clip-path="url(#clip0_4045_176387)">
<path d="M25.4634 45.7402C36.6663 45.7402 45.7481 36.6598 45.7481 25.4585C45.7481 14.2572 36.6663 5.17676 25.4634 5.17676C14.2605 5.17676 5.17871 14.2572 5.17871 25.4585C5.17871 36.6598 14.2605 45.7402 25.4634 45.7402Z" fill="#FFFDC2"/>
<path d="M25.4634 45.9179C14.1787 45.9179 5.00098 36.7383 5.00098 25.4585C5.00098 14.1786 14.1819 4.99902 25.4634 4.99902C36.7449 4.99902 45.9259 14.1786 45.9259 25.4585C45.9259 36.7383 36.7449 45.9179 25.4634 45.9179ZM25.4634 5.3512C14.3758 5.3512 5.35645 14.3692 5.35645 25.4552C5.35645 36.5412 14.3758 45.5592 25.4634 45.5592C36.551 45.5592 45.5704 36.5412 45.5704 25.4552C45.5704 14.3692 36.551 5.3512 25.4634 5.3512Z" fill="white"/>
<g clip-path="url(#clip1_4045_176387)">
<path d="M17.3535 8.81233C17.6714 8.60445 18.01 8.42428 18.3693 8.25798C19.0811 7.9323 19.6063 7.80757 19.8827 7.78679C20.1591 7.766 20.3872 7.86994 20.5668 8.08475C20.7465 8.29956 20.8363 8.6876 20.8363 9.24887C20.8363 9.76164 20.7741 10.115 20.6428 10.3229C20.5185 10.5308 20.2628 10.6902 19.9034 10.8357C20.2282 10.8218 20.4563 10.8842 20.5737 10.9951C20.6912 11.1059 20.7603 11.2237 20.7949 11.3346C20.8225 11.4455 20.8363 11.7642 20.8363 12.2978V14.0301C20.3042 14.1479 19.786 14.2934 19.2884 14.4667C19.2884 13.7391 19.2884 13.0115 19.2884 12.2839C19.2884 11.9305 19.2608 11.7226 19.2124 11.6603C19.164 11.5979 19.0258 11.5979 18.8116 11.688V14.6538C18.2933 14.8616 17.8096 15.1111 17.3535 15.4021V8.81233ZM18.8116 9.18651V10.6486C18.9844 10.5793 19.1087 10.5031 19.1848 10.4269C19.2539 10.3506 19.2953 10.1635 19.2953 9.87251C19.2953 9.75472 19.2953 9.62999 19.2953 9.51219C19.2953 9.30431 19.2608 9.17958 19.1917 9.13801C19.1226 9.09643 18.9982 9.11029 18.8185 9.18651H18.8116Z" fill="#FF5E67"/>
<path d="M25.7432 10.8423C25.7432 11.5006 25.7294 11.9718 25.6949 12.242C25.6603 12.5192 25.5567 12.7686 25.3701 12.9973C25.1904 13.226 24.9486 13.4061 24.6376 13.5378C24.3335 13.6695 23.9742 13.7457 23.5734 13.7803C23.1933 13.808 22.8478 13.7803 22.5507 13.711C22.2535 13.6348 22.0117 13.4962 21.8389 13.2953C21.6592 13.0943 21.5556 12.8657 21.521 12.5954C21.4865 12.3321 21.4727 11.8609 21.4727 11.1818C21.4727 10.8076 21.4727 10.4335 21.4727 10.0593C21.4727 9.40099 21.4865 8.9298 21.521 8.6457C21.5556 8.36852 21.6523 8.09828 21.8251 7.84189C21.9978 7.58551 22.2259 7.37763 22.5299 7.21826C22.8271 7.05888 23.1795 6.96187 23.5803 6.93415C23.9604 6.90644 24.3128 6.94801 24.6169 7.05195C24.9278 7.15589 25.1766 7.32912 25.3632 7.55779C25.5498 7.78646 25.6603 8.03592 25.7018 8.30616C25.7363 8.5764 25.7571 9.0476 25.7571 9.72667V10.8492L25.7432 10.8423ZM23.8636 8.72885C23.8636 8.42396 23.8429 8.22994 23.8084 8.14679C23.7738 8.06363 23.6978 8.02899 23.5803 8.03592C23.4836 8.04285 23.4076 8.08442 23.3592 8.16064C23.3108 8.23687 23.2832 8.43782 23.2832 8.77735C23.2832 9.80289 23.2832 10.8215 23.2832 11.847C23.2832 12.2282 23.297 12.4638 23.3315 12.5469C23.3661 12.6301 23.4421 12.6716 23.5665 12.6647C23.6909 12.6578 23.7738 12.5954 23.8084 12.4915C23.8429 12.3875 23.8636 12.1381 23.8636 11.75C23.8636 10.7453 23.8636 9.7336 23.8636 8.72885Z" fill="#FF5E67"/>
<path d="M30.2891 9.47768C29.757 9.35295 29.2111 9.25594 28.6444 9.17972C28.6444 9.02035 28.6444 8.85404 28.6444 8.69467C28.6444 8.466 28.6237 8.32048 28.5822 8.25119C28.5408 8.1819 28.4648 8.14032 28.368 8.13339C28.2575 8.11953 28.1745 8.15418 28.1193 8.2304C28.064 8.30663 28.0363 8.43135 28.0363 8.60459C28.0363 8.82633 28.0709 8.99263 28.1331 9.11043C28.1953 9.22823 28.368 9.38067 28.6513 9.57469C29.4599 10.136 29.9436 10.6141 30.144 10.9467C30.3444 11.2793 30.4411 11.7713 30.4411 12.4157C30.4411 12.8869 30.3858 13.2126 30.2753 13.4135C30.1647 13.6076 29.9505 13.7461 29.6257 13.8362C29.3009 13.9263 28.9209 13.9402 28.4786 13.8847C27.988 13.8224 27.5664 13.7046 27.214 13.5036C26.8616 13.3096 26.6266 13.074 26.5161 12.8038C26.4055 12.5335 26.3502 12.1524 26.3502 11.6535C26.3502 11.508 26.3502 11.3694 26.3502 11.2239C26.9307 11.2447 27.5111 11.2793 28.0778 11.3417C28.0778 11.605 28.0778 11.8752 28.0778 12.1385C28.0778 12.388 28.0985 12.5474 28.1469 12.6236C28.1953 12.6998 28.2782 12.7414 28.4026 12.7553C28.527 12.7691 28.6168 12.7345 28.6721 12.6582C28.7343 12.5751 28.7619 12.4504 28.7619 12.2702C28.7619 11.8822 28.7066 11.6188 28.5961 11.4872C28.4786 11.3555 28.1953 11.1199 27.7392 10.7943C27.2762 10.4686 26.9721 10.2538 26.8201 10.1152C26.6681 9.98352 26.5437 9.79643 26.4469 9.56776C26.3502 9.3391 26.2949 9.04806 26.2949 8.7016C26.2949 8.19576 26.364 7.83543 26.5091 7.60676C26.6473 7.3781 26.8754 7.20486 27.1933 7.09399C27.5042 6.98312 27.8843 6.94848 28.3197 6.99698C28.7965 7.05242 29.1904 7.18407 29.5151 7.39195C29.8399 7.5929 30.0472 7.82157 30.1509 8.0641C30.2545 8.30663 30.3029 8.68774 30.3029 9.20744V9.47075L30.2891 9.47768Z" fill="#FF5E67"/>
<path d="M30.96 7.66211C31.886 7.92542 32.7429 8.27882 33.503 8.75694C33.503 9.19349 33.503 9.63697 33.503 10.0735C33.199 9.87949 32.8742 9.71319 32.5425 9.56075C32.5425 9.97651 32.5425 10.3923 32.5425 10.808C32.8535 10.9535 33.1575 11.1129 33.4408 11.2861C33.4408 11.7019 33.4408 12.1177 33.4408 12.5334C33.1506 12.3602 32.8535 12.2008 32.5425 12.0553C32.5425 12.5404 32.5425 13.0185 32.5425 13.5035C32.9088 13.6698 33.2612 13.8639 33.5929 14.0787C33.5929 14.5152 33.5929 14.9587 33.5929 15.3952C32.8051 14.8894 31.9137 14.5221 30.9531 14.245C30.9531 12.0553 30.9531 9.86564 30.9531 7.66904L30.96 7.66211Z" fill="#FF5E67"/>
</g>
<mask id="mask0_4045_176387" style="mask-type:alpha" maskUnits="userSpaceOnUse" x="5" y="5" width="42" height="41">
<circle cx="25.9086" cy="25.3862" r="20.0961" fill="#D9D9D9"/>
</mask>
<g mask="url(#mask0_4045_176387)">
<path d="M11.1837 15.0071C11.1837 15.0071 8.46831 17.005 9.74529 18.9339C11.0223 20.8629 14.6612 20.26 14.6612 20.26C14.6612 20.26 16.637 17.1449 15.3604 15.2167C14.0839 13.2884 11.1837 15.0071 11.1837 15.0071Z" fill="#FF5E67" stroke="white" stroke-width="0.289988" stroke-linecap="round" stroke-linejoin="round"/>
<path d="M37.6802 22.7305C37.6802 22.7305 42.0459 22.485 42.0259 19.4845C42.006 16.4841 37.6259 14.5598 37.6259 14.5598C37.6259 14.5598 33.2718 16.5433 33.2917 19.5426C33.3117 22.5419 37.6802 22.7305 37.6802 22.7305Z" fill="#FF5E67" stroke="white" stroke-width="0.289988" stroke-linecap="round" stroke-linejoin="round"/>
<path d="M18.2198 20.0867C18.2198 20.0867 19.3435 21.5859 20.4092 20.8668C21.4749 20.1476 21.1219 18.1283 21.1219 18.1283C21.1219 18.1283 19.381 17.0456 18.3157 17.7645C17.2504 18.4834 18.2198 20.0867 18.2198 20.0867Z" fill="#FF5E67" stroke="white" stroke-width="0.289988" stroke-linecap="round" stroke-linejoin="round"/>
<path d="M17.678 36.7457C17.678 36.7457 17.5904 38.3106 15.5327 38.3908C13.4749 38.4711 12.0745 36.9643 12.0745 36.9643C12.0745 36.9643 13.354 35.353 15.411 35.2727C17.4679 35.1924 17.678 36.7457 17.678 36.7457Z" fill="#57BEA5" stroke="white" stroke-width="0.289988" stroke-linecap="round" stroke-linejoin="round"/>
<mask id="path-13-inside-1_4045_176387" fill="white">
<path fill-rule="evenodd" clip-rule="evenodd" d="M15.6359 33.6572L16.7329 33.1103L16.8286 33.3022L18.0952 33.3798L17.3947 34.4379L18.2968 36.2475L19.5638 36.325L18.8631 37.3834L19.7648 39.192L21.0323 39.2696L20.3313 40.3285L21.494 42.6607L20.397 43.2075L19.7627 41.9352L18.4866 41.8571L19.1923 40.791L18.2944 38.9899L17.0191 38.9118L17.7244 37.8465L16.8261 36.0447L15.5495 35.9666L16.2555 34.9L15.6359 33.6572Z"/>
</mask>
<path fill-rule="evenodd" clip-rule="evenodd" d="M15.6359 33.6572L16.7329 33.1103L16.8286 33.3022L18.0952 33.3798L17.3947 34.4379L18.2968 36.2475L19.5638 36.325L18.8631 37.3834L19.7648 39.192L21.0323 39.2696L20.3313 40.3285L21.494 42.6607L20.397 43.2075L19.7627 41.9352L18.4866 41.8571L19.1923 40.791L18.2944 38.9899L17.0191 38.9118L17.7244 37.8465L16.8261 36.0447L15.5495 35.9666L16.2555 34.9L15.6359 33.6572Z" fill="#048A6A"/>
<path d="M16.7329 33.1103L16.9924 32.9809L16.863 32.7214L16.6035 32.8508L16.7329 33.1103ZM15.6359 33.6572L15.5065 33.3976L15.247 33.527L15.3764 33.7865L15.6359 33.6572ZM16.8286 33.3022L16.5691 33.4316L16.6438 33.5815L16.8109 33.5917L16.8286 33.3022ZM18.0952 33.3798L18.337 33.5398L18.6142 33.121L18.1129 33.0903L18.0952 33.3798ZM17.3947 34.4379L17.1529 34.2779L17.0605 34.4175L17.1352 34.5673L17.3947 34.4379ZM18.2968 36.2475L18.0373 36.3769L18.112 36.5267L18.2791 36.5369L18.2968 36.2475ZM19.5638 36.325L19.8056 36.4851L20.0828 36.0663L19.5815 36.0356L19.5638 36.325ZM18.8631 37.3834L18.6213 37.2234L18.5289 37.363L18.6036 37.5128L18.8631 37.3834ZM19.7648 39.192L19.5052 39.3214L19.5799 39.4712L19.747 39.4814L19.7648 39.192ZM21.0323 39.2696L21.2741 39.4296L21.5514 39.0108L21.05 38.9801L21.0323 39.2696ZM20.3313 40.3285L20.0895 40.1684L19.9971 40.3081L20.0718 40.4579L20.3313 40.3285ZM21.494 42.6607L21.6233 42.9202L21.8829 42.7908L21.7535 42.5313L21.494 42.6607ZM20.397 43.2075L20.1374 43.3369L20.2668 43.5965L20.5263 43.4671L20.397 43.2075ZM19.7627 41.9352L20.0222 41.8058L19.9475 41.656L19.7804 41.6458L19.7627 41.9352ZM18.4866 41.8571L18.2448 41.697L17.9675 42.1159L18.4688 42.1466L18.4866 41.8571ZM19.1923 40.791L19.4341 40.9511L19.5265 40.8115L19.4518 40.6616L19.1923 40.791ZM18.2944 38.9899L18.5539 38.8605L18.4792 38.7107L18.3121 38.7005L18.2944 38.9899ZM17.0191 38.9118L16.7773 38.7518L16.5001 39.1706L17.0014 39.2013L17.0191 38.9118ZM17.7244 37.8465L17.9662 38.0066L18.0586 37.867L17.9839 37.7171L17.7244 37.8465ZM16.8261 36.0447L17.0857 35.9154L17.011 35.7655L16.8439 35.7553L16.8261 36.0447ZM15.5495 35.9666L15.3076 35.8065L15.0304 36.2253L15.5317 36.256L15.5495 35.9666ZM16.2555 34.9L16.4973 35.0601L16.5897 34.9205L16.515 34.7706L16.2555 34.9ZM16.6035 32.8508L15.5065 33.3976L15.7653 33.9167L16.8623 33.3698L16.6035 32.8508ZM17.0881 33.1729L16.9924 32.9809L16.4734 33.2397L16.5691 33.4316L17.0881 33.1729ZM16.8109 33.5917L18.0775 33.6692L18.1129 33.0903L16.8463 33.0128L16.8109 33.5917ZM17.8534 33.2197L17.1529 34.2779L17.6366 34.598L18.337 33.5398L17.8534 33.2197ZM18.5564 36.1181L17.6543 34.3085L17.1352 34.5673L18.0373 36.3769L18.5564 36.1181ZM19.5815 36.0356L18.3146 35.958L18.2791 36.5369L19.546 36.6145L19.5815 36.0356ZM19.1049 37.5435L19.8056 36.4851L19.3219 36.165L18.6213 37.2234L19.1049 37.5435ZM20.0243 39.0626L19.1227 37.254L18.6036 37.5128L19.5052 39.3214L20.0243 39.0626ZM21.05 38.9801L19.7825 38.9025L19.747 39.4814L21.0146 39.559L21.05 38.9801ZM20.5731 40.4886L21.2741 39.4296L20.7905 39.1095L20.0895 40.1684L20.5731 40.4886ZM21.7535 42.5313L20.5909 40.1991L20.0718 40.4579L21.2344 42.79L21.7535 42.5313ZM20.5263 43.4671L21.6233 42.9202L21.3646 42.4011L20.2676 42.948L20.5263 43.4671ZM19.5032 42.0646L20.1374 43.3369L20.6565 43.0782L20.0222 41.8058L19.5032 42.0646ZM18.4688 42.1466L19.745 42.2247L19.7804 41.6458L18.5043 41.5677L18.4688 42.1466ZM18.9505 40.631L18.2448 41.697L18.7284 42.0172L19.4341 40.9511L18.9505 40.631ZM18.0348 39.1193L18.9327 40.9204L19.4518 40.6616L18.5539 38.8605L18.0348 39.1193ZM17.0014 39.2013L18.2767 39.2794L18.3121 38.7005L17.0369 38.6224L17.0014 39.2013ZM17.4826 37.6864L16.7773 38.7518L17.261 39.0719L17.9662 38.0066L17.4826 37.6864ZM16.5666 36.1741L17.4648 37.9759L17.9839 37.7171L17.0857 35.9154L16.5666 36.1741ZM15.5317 36.256L16.8084 36.3342L16.8439 35.7553L15.5672 35.6771L15.5317 36.256ZM16.0137 34.74L15.3076 35.8065L15.7913 36.1267L16.4973 35.0601L16.0137 34.74ZM15.3764 33.7865L15.996 35.0294L16.515 34.7706L15.8954 33.5278L15.3764 33.7865Z" fill="white" mask="url(#path-13-inside-1_4045_176387)"/>
<path d="M14.2491 29.1746C15.8139 32.6617 13.3801 34.676 11.979 34.6848C8.03794 34.7096 7.6215 26.0125 7.6215 26.0125C7.6215 26.0125 12.6844 25.6876 14.2491 29.1746Z" fill="#FF5E67" stroke="white" stroke-width="0.289988" stroke-linecap="round" stroke-linejoin="round"/>
<path d="M13.9443 29.3117C15.5091 32.7988 18.6318 32.3197 19.5697 31.2789C22.2083 28.3513 15.988 22.2585 15.988 22.2585C15.988 22.2585 12.3795 25.8247 13.9443 29.3117Z" fill="#FF5E67" stroke="white" stroke-width="0.289988" stroke-linecap="round" stroke-linejoin="round"/>
<path d="M16.0225 33.599C16.0225 33.599 19.869 31.5705 18.3031 28.0809C16.7372 24.5914 11.7583 24.0963 11.7583 24.0963C11.7583 24.0963 8.81828 28.1449 10.3842 31.6344C11.95 35.124 16.0225 33.599 16.0225 33.599Z" fill="#FF5E67" stroke="white" stroke-width="0.289988" stroke-linecap="round" stroke-linejoin="round"/>
<path d="M25.1693 44.9697C25.1693 44.9697 23.5879 46.5327 21.3465 44.6589C19.1051 42.7852 19.0657 39.8672 19.0657 39.8672C19.0657 39.8672 21.9453 39.3895 24.1859 41.2625C26.4264 43.1356 25.1693 44.9697 25.1693 44.9697Z" fill="#57BEA5" stroke="white" stroke-width="0.289988" stroke-linecap="round" stroke-linejoin="round"/>
<path d="M26.2928 39.9204C26.2928 39.9204 23.3024 41.8511 20.4045 38.1803C17.5066 34.5095 18.4014 29.9242 18.4014 29.9242C18.4014 29.9242 23.0702 30.1196 25.967 33.789C28.8639 37.4585 26.2928 39.9204 26.2928 39.9204Z" fill="#57BEA5" stroke="white" stroke-width="0.289988" stroke-linecap="round" stroke-linejoin="round"/>
<path d="M26.7418 42.9464C26.7418 42.9464 27.8414 45.7155 31.6003 44.6222C35.3592 43.5288 36.9778 39.9691 36.9778 39.9691C36.9778 39.9691 33.701 37.8333 29.9435 38.9262C26.186 40.0192 26.7418 42.9464 26.7418 42.9464Z" fill="#57BEA5" stroke="white" stroke-width="0.289988" stroke-linecap="round" stroke-linejoin="round"/>
<mask id="path-21-inside-2_4045_176387" fill="white">
<path fill-rule="evenodd" clip-rule="evenodd" d="M28.0242 34.1096L29.6988 34.5782L29.6163 34.8731L30.8742 36.1591L29.1315 36.6056L28.3582 39.3692L29.6165 40.6556L27.8733 41.1021L27.1007 43.8634L28.3598 45.1507L26.6154 45.5975L25.6194 49.1571L23.9448 48.6886L24.4877 46.7481L23.2171 45.4492L24.9774 44.9983L25.7459 42.2517L24.4761 40.9535L26.2352 40.5029L27.0039 37.756L25.7339 36.4576L27.4933 36.0069L28.0242 34.1096Z"/>
</mask>
<path fill-rule="evenodd" clip-rule="evenodd" d="M28.0242 34.1096L29.6988 34.5782L29.6163 34.8731L30.8742 36.1591L29.1315 36.6056L28.3582 39.3692L29.6165 40.6556L27.8733 41.1021L27.1007 43.8634L28.3598 45.1507L26.6154 45.5975L25.6194 49.1571L23.9448 48.6886L24.4877 46.7481L23.2171 45.4492L24.9774 44.9983L25.7459 42.2517L24.4761 40.9535L26.2352 40.5029L27.0039 37.756L25.7339 36.4576L27.4933 36.0069L28.0242 34.1096Z" fill="#048A6A"/>
<path d="M29.6988 34.5782L29.9781 34.6563L30.0562 34.377L29.7769 34.2989L29.6988 34.5782ZM28.0242 34.1096L28.1023 33.8303L27.8231 33.7522L27.7449 34.0314L28.0242 34.1096ZM29.6163 34.8731L29.337 34.795L29.2919 34.9562L29.409 35.0759L29.6163 34.8731ZM30.8742 36.1591L30.9462 36.4401L31.4328 36.3154L31.0815 35.9564L30.8742 36.1591ZM29.1315 36.6056L29.0596 36.3246L28.8974 36.3662L28.8522 36.5274L29.1315 36.6056ZM28.3582 39.3692L28.0789 39.2911L28.0338 39.4523L28.1509 39.572L28.3582 39.3692ZM29.6165 40.6556L29.6884 40.9365L30.175 40.8119L29.8238 40.4528L29.6165 40.6556ZM27.8733 41.1021L27.8013 40.8212L27.6392 40.8627L27.594 41.024L27.8733 41.1021ZM27.1007 43.8634L26.8214 43.7853L26.7763 43.9465L26.8933 44.0662L27.1007 43.8634ZM28.3598 45.1507L28.4318 45.4316L28.9183 45.3069L28.5671 44.9479L28.3598 45.1507ZM26.6154 45.5975L26.5435 45.3166L26.3813 45.3581L26.3362 45.5193L26.6154 45.5975ZM25.6194 49.1571L25.5412 49.4364L25.8205 49.5145L25.8986 49.2353L25.6194 49.1571ZM23.9448 48.6886L23.6655 48.6104L23.5874 48.8897L23.8666 48.9678L23.9448 48.6886ZM24.4877 46.7481L24.767 46.8263L24.8121 46.665L24.695 46.5453L24.4877 46.7481ZM23.2171 45.4492L23.1452 45.1682L22.6586 45.2929L23.0098 45.6519L23.2171 45.4492ZM24.9774 44.9983L25.0493 45.2792L25.2115 45.2377L25.2566 45.0764L24.9774 44.9983ZM25.7459 42.2517L26.0252 42.3298L26.0703 42.1686L25.9532 42.0489L25.7459 42.2517ZM24.4761 40.9535L24.4041 40.6726L23.9175 40.7972L24.2688 41.1563L24.4761 40.9535ZM26.2352 40.5029L26.3072 40.7838L26.4694 40.7423L26.5145 40.5811L26.2352 40.5029ZM27.0039 37.756L27.2831 37.8341L27.3282 37.6729L27.2112 37.5532L27.0039 37.756ZM25.7339 36.4576L25.6619 36.1767L25.1753 36.3013L25.5266 36.6604L25.7339 36.4576ZM27.4933 36.0069L27.5652 36.2879L27.7274 36.2463L27.7725 36.0851L27.4933 36.0069ZM29.7769 34.2989L28.1023 33.8303L27.9461 34.3888L29.6207 34.8574L29.7769 34.2989ZM29.8955 34.9512L29.9781 34.6563L29.4195 34.5L29.337 34.795L29.8955 34.9512ZM29.409 35.0759L30.6669 36.3619L31.0815 35.9564L29.8236 34.6703L29.409 35.0759ZM30.8023 35.8782L29.0596 36.3246L29.2035 36.8865L30.9462 36.4401L30.8023 35.8782ZM28.6374 39.4474L29.4108 36.6837L28.8522 36.5274L28.0789 39.2911L28.6374 39.4474ZM29.8238 40.4528L28.5655 39.1665L28.1509 39.572L29.4092 40.8584L29.8238 40.4528ZM27.9453 41.383L29.6884 40.9365L29.5445 40.3747L27.8013 40.8212L27.9453 41.383ZM27.3799 43.9415L28.1526 41.1803L27.594 41.024L26.8214 43.7853L27.3799 43.9415ZM28.5671 44.9479L27.308 43.6606L26.8933 44.0662L28.1525 45.3534L28.5671 44.9479ZM26.6874 45.8784L28.4318 45.4316L28.2878 44.8697L26.5435 45.3166L26.6874 45.8784ZM25.8986 49.2353L26.8947 45.6756L26.3362 45.5193L25.3401 49.079L25.8986 49.2353ZM23.8666 48.9678L25.5412 49.4364L25.6975 48.8779L24.0229 48.4093L23.8666 48.9678ZM24.2085 46.67L23.6655 48.6104L24.224 48.7667L24.767 46.8263L24.2085 46.67ZM23.0098 45.6519L24.2804 46.9509L24.695 46.5453L23.4244 45.2464L23.0098 45.6519ZM24.9054 44.7174L23.1452 45.1682L23.2891 45.7301L25.0493 45.2792L24.9054 44.7174ZM25.4666 42.1736L24.6981 44.9201L25.2566 45.0764L26.0252 42.3298L25.4666 42.1736ZM24.2688 41.1563L25.5386 42.4545L25.9532 42.0489L24.6834 40.7508L24.2688 41.1563ZM26.1633 40.222L24.4041 40.6726L24.548 41.2344L26.3072 40.7838L26.1633 40.222ZM26.7246 37.6778L25.956 40.4248L26.5145 40.5811L27.2831 37.8341L26.7246 37.6778ZM25.5266 36.6604L26.7966 37.9588L27.2112 37.5532L25.9412 36.2548L25.5266 36.6604ZM27.4213 35.726L25.6619 36.1767L25.8058 36.7385L27.5652 36.2879L27.4213 35.726ZM27.7449 34.0314L27.214 35.9288L27.7725 36.0851L28.3035 34.1877L27.7449 34.0314Z" fill="white" mask="url(#path-21-inside-2_4045_176387)"/>
<path d="M41.6987 27.1237C41.6987 27.1237 40.5908 23.446 37.8346 22.0412C37.2974 18.992 34.1076 16.857 34.1076 16.857C34.1076 16.857 30.2701 16.7786 28.0829 18.968C25.0191 18.5396 22.003 20.9201 22.003 20.9201C22.003 20.9201 20.7392 24.5496 22.1421 27.3072C20.786 30.0915 22.1132 33.6967 22.1132 33.6967C22.1132 33.6967 25.1698 36.0192 28.2249 35.5337C30.4504 37.6825 34.2862 37.5309 34.2862 37.5309C34.2862 37.5309 37.4384 35.3366 37.9243 32.2782C40.6544 30.8224 41.6987 27.1237 41.6987 27.1237Z" fill="#FF5E67" stroke="white" stroke-width="0.289988" stroke-linecap="round" stroke-linejoin="round"/>
<path d="M38.4356 32.7288C38.4356 32.7288 39.5827 29.6176 38.4166 27.2163C39.6283 24.8352 38.5437 21.7049 38.5437 21.7049C38.5437 21.7049 35.9456 19.6555 33.3049 20.0272C31.421 18.1388 28.1134 18.2107 28.1134 18.2107C28.1134 18.2107 25.362 20.0551 24.895 22.6862C22.5177 23.9007 21.5593 27.0747 21.5593 27.0747C21.5593 27.0747 22.4562 30.265 24.8088 31.5189C25.2249 34.1571 27.939 36.0463 27.939 36.0463C27.939 36.0463 31.2445 36.1723 33.1656 34.3168C35.7991 34.7336 38.4346 32.7267 38.4346 32.7267L38.4356 32.7288Z" fill="#FF5E67" stroke="white" stroke-width="0.289988" stroke-linecap="round" stroke-linejoin="round"/>
<path d="M37.2564 27.1934C37.2564 27.1934 36.6008 25.017 34.971 24.1845C34.6528 22.38 32.7662 21.1165 32.7662 21.1165C32.7662 21.1165 30.4961 21.0708 29.2012 22.3672C27.389 22.1138 25.604 23.5232 25.604 23.5232C25.604 23.5232 24.8567 25.6717 25.6854 27.304C24.8838 28.9525 25.6665 31.0861 25.6665 31.0861C25.6665 31.0861 27.4738 32.4592 29.282 32.1731C30.5978 33.4449 32.8678 33.3543 32.8678 33.3543C32.8678 33.3543 34.7335 32.0549 35.0198 30.2442C36.636 29.3819 37.2533 27.1924 37.2533 27.1924L37.2564 27.1934Z" fill="#FF5E67" stroke="white" stroke-width="0.289988" stroke-linecap="round" stroke-linejoin="round"/>
<path d="M33.8587 29.1059C33.8587 29.1059 34.2712 27.8783 33.7891 26.9545C34.2357 26.0123 33.7767 24.8021 33.7767 24.8021C33.7767 24.8021 32.74 24.0317 31.7151 24.208C30.9589 23.4932 29.6694 23.5585 29.6694 23.5585C29.6694 23.5585 28.6166 24.3098 28.464 25.3411C27.5502 25.8425 27.2118 27.0917 27.2118 27.0917C27.2118 27.0917 27.598 28.3256 28.53 28.7884C28.7222 29.8126 29.801 30.5203 29.801 30.5203C29.801 30.5203 31.0922 30.5315 31.8193 29.7864C32.8506 29.9178 33.8572 29.1054 33.8572 29.1054L33.8587 29.1059Z" fill="#FF5E67" stroke="white" stroke-width="0.289988" stroke-linecap="round" stroke-linejoin="round"/>
</g>
</g>
<path d="M66.7933 19.836V21.004C66.7933 23.068 65.3533 24.94 63.1772 25.708L63.8492 26.764C66.2812 25.884 67.8812 23.66 67.8812 21.004V19.836H66.7933ZM67.0332 19.836V20.988C67.0332 23.452 68.5693 25.516 70.9853 26.316L71.6252 25.276C69.4973 24.572 68.1213 22.876 68.1213 20.988V19.836H67.0332ZM63.5772 19.356V20.444H71.3053V19.356H63.5772ZM73.1293 18.284V27.004H74.4573V18.284H73.1293ZM74.0893 21.948V23.068H76.6013V21.948H74.0893ZM69.8493 27.388C66.9053 27.388 65.0972 28.364 65.0972 30.044C65.0972 31.74 66.9053 32.716 69.8493 32.716C72.7933 32.716 74.6013 31.74 74.6013 30.044C74.6013 28.364 72.7933 27.388 69.8493 27.388ZM69.8493 28.46C71.9932 28.46 73.3053 29.036 73.3053 30.044C73.3053 31.068 71.9932 31.676 69.8493 31.676C67.7053 31.676 66.3932 31.068 66.3932 30.044C66.3932 29.036 67.7053 28.46 69.8493 28.46ZM78.456 19.692V29.116H85.112V19.692H78.456ZM83.816 20.764V28.044H79.752V20.764H83.816ZM88.136 18.268V32.764H89.464V18.268H88.136Z" fill="white"/>
<defs>
<clipPath id="clip0_4045_176387">
<rect width="41" height="41" fill="white" transform="translate(5 5)"/>
</clipPath>
<clipPath id="clip1_4045_176387">
<rect width="16.2393" height="8.46764" fill="white" transform="translate(17.3535 6.91406)"/>
</clipPath>
</defs>
</svg>
