<svg width="16" height="18" viewBox="0 0 21 20" fill="none" xmlns="http://www.w3.org/2000/svg">
<path d="M11.7273 16.0726C11.6038 16.1886 11.4772 16.3019 11.3571 16.4217C10.6626 17.1135 9.9673 17.8044 9.27717 18.5004C8.91654 18.8641 8.51964 19.1789 8.06834 19.4208C7.77819 19.5761 7.47435 19.7004 7.15683 19.7931C6.672 19.9347 6.1793 20.011 5.67496 19.9987C5.23529 19.9881 4.80417 19.9193 4.38093 19.7927C3.43316 19.5094 2.64962 18.9804 2.01972 18.2235C1.71691 17.8598 1.47671 17.4564 1.294 17.0174C1.01378 16.344 0.887524 15.6439 0.921397 14.9182C0.939531 14.526 1.00728 14.1397 1.12053 13.7603C1.25705 13.3021 1.45721 12.8751 1.71622 12.4757C1.92733 12.1503 2.18737 11.865 2.46178 11.5912C3.47832 10.5781 4.49144 9.56215 5.50696 8.54795C6.22686 7.82939 6.94333 7.10706 7.67178 6.39672C7.98382 6.09218 8.34548 5.84753 8.74409 5.66652C8.999 5.55053 9.25664 5.43453 9.52352 5.35138C10.0042 5.20151 10.5011 5.13205 11.0057 5.156C11.2808 5.169 11.5597 5.18235 11.8286 5.23641C12.1218 5.29526 12.412 5.38491 12.6919 5.49201C12.9447 5.58851 13.1897 5.71271 13.4237 5.84958C13.8128 6.07679 14.1731 6.34779 14.456 6.70228C14.6596 6.95719 14.7304 7.25796 14.6856 7.58474C14.6288 7.99808 14.4136 8.30398 14.0502 8.49833C13.7806 8.64239 13.4925 8.67626 13.1901 8.59928C12.9468 8.53734 12.7542 8.40184 12.5755 8.23452C12.3237 7.99876 12.0363 7.8246 11.7082 7.70997C11.2853 7.56215 10.8552 7.53444 10.4217 7.6234C9.93103 7.72434 9.51291 7.96728 9.15844 8.32246C8.14292 9.33973 7.12536 10.355 6.1095 11.3719C5.41082 12.0713 4.71145 12.77 4.01585 13.4725C3.72604 13.765 3.5317 14.1182 3.42666 14.5141C3.32846 14.8843 3.31819 15.26 3.39792 15.6391C3.51459 16.1948 3.79208 16.6519 4.22491 17.0129C4.52806 17.2658 4.87568 17.4314 5.26506 17.5146C5.6469 17.596 6.02498 17.5861 6.39862 17.4882C6.85129 17.3695 7.23177 17.1228 7.55921 16.7898C7.91573 16.4271 8.2791 16.0713 8.637 15.7099C8.71843 15.6275 8.79713 15.6836 8.87411 15.7045C9.1256 15.7729 9.374 15.8523 9.62617 15.9183C10.0446 16.0278 10.474 16.0576 10.9041 16.0631C11.1368 16.0658 11.3701 16.0374 11.6031 16.0244C11.6377 16.0223 11.6723 16.0285 11.7072 16.0309C11.714 16.0449 11.7208 16.0586 11.7273 16.0726Z" fill="white"/>
<path d="M10.1069 3.93337C10.3217 3.72259 10.538 3.51353 10.7511 3.30138C11.3715 2.68376 11.9921 2.06682 12.609 1.44578C12.9827 1.06939 13.4039 0.758701 13.876 0.520892C14.1929 0.361098 14.5248 0.237231 14.8714 0.152031C15.297 0.0476683 15.7271 -0.0101587 16.1647 0.00147514C16.5267 0.0113981 16.8836 0.0616974 17.2363 0.148951C17.65 0.250918 18.0408 0.405922 18.413 0.610883C18.996 0.932182 19.4864 1.36127 19.8963 1.88376C20.1768 2.24099 20.4061 2.63038 20.5648 3.05433C20.6719 3.34004 20.7462 3.63944 20.8173 3.93713C20.8977 4.27349 20.9248 4.61771 20.9125 4.96365C20.8995 5.32567 20.8505 5.68221 20.7636 6.03533C20.6685 6.4213 20.5275 6.78811 20.3424 7.13747C20.1039 7.58708 19.7946 7.98503 19.434 8.34431C18.7552 9.01975 18.0787 9.69759 17.4016 10.3748C16.5596 11.2165 15.7189 12.0593 14.8755 12.8996C14.598 13.1761 14.3225 13.456 14.03 13.7167C13.7518 13.9648 13.4408 14.1722 13.1 14.3268C12.8396 14.4449 12.5772 14.5636 12.3049 14.6485C11.7735 14.8144 11.2254 14.8661 10.6687 14.8435C10.3512 14.8305 10.0388 14.784 9.73288 14.7073C9.39175 14.6214 9.06328 14.4976 8.74645 14.3388C8.27461 14.102 7.85205 13.8006 7.48253 13.4252C7.15474 13.0923 7.05723 12.6885 7.17493 12.2457C7.2697 11.8885 7.49758 11.6213 7.84316 11.4728C8.34544 11.2572 8.80051 11.3482 9.19707 11.7161C9.44171 11.9429 9.7079 12.1349 10.0182 12.2543C10.383 12.3946 10.7621 12.4579 11.1559 12.4117C11.4437 12.3778 11.7177 12.3049 11.9788 12.178C12.2641 12.0394 12.505 11.8444 12.7271 11.6216C13.4761 10.8716 14.2257 10.1229 14.975 9.37322C15.6662 8.68203 16.358 7.99153 17.0478 7.29931C17.3386 7.00744 17.6391 6.72344 17.9097 6.41377C18.3046 5.96211 18.4924 5.42455 18.4801 4.82199C18.463 3.98949 18.1041 3.33183 17.431 2.85485C17.0153 2.56024 16.5407 2.42371 16.0255 2.43295C15.3305 2.44492 14.7567 2.7214 14.2736 3.20899C13.9277 3.55835 13.577 3.90223 13.2342 4.25467C13.1544 4.33645 13.0812 4.33542 12.9837 4.30565C12.7209 4.22558 12.4568 4.1486 12.1909 4.07982C11.7834 3.97409 11.3656 3.94124 10.9468 3.93816C10.7025 3.93611 10.4579 3.96348 10.2136 3.97614C10.1825 3.97785 10.151 3.97067 10.1195 3.96759C10.1154 3.95664 10.111 3.94569 10.1069 3.9344V3.93337Z" fill="white"/>
</svg>
