<svg width="21" height="22" viewBox="0 0 21 22" fill="none" xmlns="http://www.w3.org/2000/svg">
<path d="M10.9032 21.9983C9.05196 21.9983 7.20074 21.9989 5.35014 21.9978C5.13433 21.9978 4.91853 21.9908 4.70333 21.9795C4.20722 21.9525 3.74788 21.813 3.29879 21.6265C2.72432 21.3878 2.25112 21.0391 1.85508 20.6054C1.58924 20.3144 1.3873 19.99 1.22093 19.6402C0.968955 19.11 0.919525 18.5587 0.918922 17.9978C0.915908 15.7194 0.916511 13.441 0.920128 11.1627C0.920128 10.9935 0.931581 10.8173 0.985833 10.6572C1.07625 10.3916 1.28241 10.1992 1.56573 10.0769C1.89546 9.93407 2.22701 9.94377 2.55132 10.0796C2.75868 10.1663 2.9136 10.3134 3.03838 10.4864C3.16376 10.6605 3.18607 10.8518 3.18547 11.0528C3.18305 13.4071 3.18667 15.762 3.18064 18.1163C3.18004 18.3868 3.22103 18.6487 3.33918 18.8901C3.52484 19.2706 3.81359 19.5804 4.24339 19.7679C4.58156 19.9156 4.93541 19.9819 5.31397 19.9819C9.061 19.9781 12.8086 19.9797 16.5557 19.9792C17.1802 19.9792 17.7221 19.8035 18.1465 19.3778C18.4105 19.1132 18.5594 18.8001 18.6257 18.4553C18.6492 18.3324 18.6456 18.2047 18.6456 18.0797C18.6468 15.7474 18.6516 13.4152 18.6414 11.0835C18.6396 10.6626 18.8023 10.3355 19.1965 10.1221C19.4714 9.9734 19.7783 9.92598 20.105 10.0203C20.4257 10.113 20.6632 10.294 20.7994 10.5543C20.8808 10.71 20.9007 10.9008 20.9085 11.077C20.9242 11.4397 20.9133 11.8034 20.9133 12.1666C20.9133 14.1308 20.9163 16.0955 20.9103 18.0597C20.9091 18.3685 20.9049 18.6843 20.8326 18.9833C20.7566 19.2975 20.6077 19.5998 20.4703 19.9C20.2876 20.2993 19.9844 20.6274 19.6468 20.9292C19.3304 21.2121 18.9645 21.4331 18.5648 21.6147C17.9228 21.9057 17.2411 22.001 16.5297 21.9989C14.6538 21.9935 12.7773 21.9973 10.9014 21.9973L10.9032 21.9983Z" fill="#525C67"/>
<path d="M12.0611 8.96357C12.0611 10.6502 12.0593 12.3369 12.0623 14.023C12.0629 14.3986 11.917 14.7074 11.5734 14.9246C11.2202 15.1477 10.8386 15.1849 10.4402 15.0146C9.95914 14.8093 9.76986 14.4563 9.77046 13.9956C9.77227 10.6087 9.77227 7.22248 9.76926 3.83566C9.76926 3.75214 9.73007 3.66915 9.70958 3.58563C9.63604 3.63197 9.55345 3.67077 9.49016 3.72627C9.00008 4.1606 8.51301 4.59817 8.02595 5.03519C7.30921 5.67861 6.59489 6.32364 5.87635 6.9649C5.61473 7.19823 5.35733 7.4391 5.07221 7.64819C4.58635 8.00384 4.01067 7.94187 3.57846 7.57652C3.11309 7.1826 3.15047 6.46428 3.65682 6.04612C4.11495 5.66783 4.53933 5.25721 4.98058 4.86329C5.40435 4.48447 5.83234 4.10995 6.25551 3.73112C6.83782 3.21003 7.41591 2.68571 7.99822 2.16462C8.4672 1.74484 8.93919 1.32668 9.41059 0.90905C9.66256 0.685957 9.91393 0.463403 10.1701 0.24462C10.5451 -0.0760085 11.272 -0.082475 11.647 0.232226C12.0249 0.549622 12.3884 0.881567 12.7568 1.20812C13.292 1.68233 13.8279 2.156 14.3608 2.63236C14.781 3.00796 15.1957 3.38786 15.6152 3.76346C16.2006 4.28724 16.7895 4.80833 17.376 5.33157C17.6937 5.61556 18.0235 5.89038 18.3212 6.19C18.5449 6.41525 18.6293 6.696 18.5744 7.00369C18.522 7.29684 18.3761 7.53879 18.0916 7.69722C17.7624 7.8799 17.4243 7.94564 17.0397 7.79853C16.7003 7.66866 16.4845 7.42294 16.2367 7.20631C15.6424 6.68792 15.0565 6.16144 14.4699 5.63604C13.8653 5.09501 13.2637 4.55129 12.6603 4.00864C12.5192 3.88201 12.3788 3.7543 12.2341 3.63035C12.2064 3.60664 12.1485 3.5797 12.1244 3.59048C12.0931 3.60449 12.075 3.65245 12.0653 3.68909C12.0551 3.72735 12.0611 3.76938 12.0611 3.8098C12.0611 5.52772 12.0611 7.24565 12.0611 8.96357V8.96357Z" fill="#525C67"/>
</svg>
