<svg width="126" height="51" viewBox="0 0 126 51" fill="none" xmlns="http://www.w3.org/2000/svg">
<rect width="126" height="51" rx="25.5" fill="#FF5E67"/>
<g clip-path="url(#clip0_4045_176384)">
<path d="M25.3423 45.9717C36.5452 45.9717 45.627 36.8912 45.627 25.69C45.627 14.4887 36.5452 5.4082 25.3423 5.4082C14.1394 5.4082 5.05762 14.4887 5.05762 25.69C5.05762 36.8912 14.1394 45.9717 25.3423 45.9717Z" fill="#3973CB"/>
<path d="M25.4624 46.1503C14.1777 46.1503 5 36.9707 5 25.6909C5 14.411 14.181 5.23145 25.4624 5.23145C36.7439 5.23145 45.9249 14.411 45.9249 25.6909C45.9249 36.9707 36.7439 46.1503 25.4624 46.1503ZM25.4624 5.58363C14.3749 5.58363 5.35548 14.6017 5.35548 25.6876C5.35548 36.7736 14.3749 45.7917 25.4624 45.7917C36.55 45.7917 45.5694 36.7736 45.5694 25.6876C45.5694 14.6017 36.55 5.58363 25.4624 5.58363Z" fill="white"/>
<path d="M39.1356 28.6452C39.1356 28.6452 39.8723 22.45 42.9928 22.45C39.8723 22.45 39.1356 16.2549 39.1356 16.2549C39.1356 16.2549 38.3989 22.45 35.2783 22.45C38.3989 22.45 39.1356 28.6452 39.1356 28.6452Z" fill="#FFFDC2"/>
<path d="M39.1348 28.8222C39.0447 28.8222 38.9707 28.7547 38.9578 28.6646C38.9514 28.6035 38.205 22.6271 35.2775 22.6271C35.181 22.6271 35.1006 22.5467 35.1006 22.4502C35.1006 22.3537 35.181 22.2733 35.2775 22.2733C38.205 22.2733 38.9514 16.2968 38.9578 16.2357C38.9675 16.1457 39.0447 16.0781 39.1348 16.0781C39.2249 16.0781 39.2988 16.1457 39.3117 16.2357C39.3181 16.2968 40.0645 22.2733 42.992 22.2733C43.0885 22.2733 43.1689 22.3537 43.1689 22.4502C43.1689 22.5467 43.0885 22.6271 42.992 22.6271C40.0645 22.6271 39.3181 28.6035 39.3117 28.6646C39.3021 28.7547 39.2249 28.8222 39.1348 28.8222ZM36.1815 22.4502C37.137 22.8394 37.9445 23.8719 38.5428 25.4866C38.8259 26.2522 39.0157 27.0113 39.1348 27.5903C39.2538 27.0113 39.4436 26.2522 39.7267 25.4866C40.3251 23.8719 41.1326 22.8426 42.088 22.4502C41.1326 22.061 40.3251 21.0284 39.7267 19.4137C39.4436 18.6482 39.2538 17.889 39.1348 17.3101C39.0157 17.889 38.8259 18.6482 38.5428 19.4137C37.9445 21.0284 37.137 22.0577 36.1815 22.4502Z" fill="white"/>
<path d="M10.1194 28.5264C10.1194 28.5264 10.4065 26.1162 11.6217 26.1162C10.4065 26.1162 10.1194 23.7061 10.1194 23.7061C10.1194 23.7061 9.83236 26.1162 8.61719 26.1162C9.83236 26.1162 10.1194 28.5264 10.1194 28.5264Z" fill="#FFFDC2"/>
<path d="M10.1188 28.6629C10.0496 28.6629 9.99263 28.6109 9.98273 28.5417C9.98273 28.5367 9.90848 27.9453 9.69317 27.3638C9.50507 26.8565 9.16354 26.2527 8.61658 26.2527C8.54234 26.2527 8.48047 26.1908 8.48047 26.1166C8.48047 26.0424 8.54234 25.9805 8.61658 25.9805C9.16601 25.9805 9.50508 25.3742 9.69564 24.8645C9.91096 24.283 9.98273 23.6965 9.98273 23.6916C9.99016 23.6223 10.0496 23.5703 10.1188 23.5703C10.1881 23.5703 10.2451 23.6223 10.255 23.6916C10.255 23.6965 10.3292 24.2879 10.5445 24.8694C10.7326 25.3767 11.0742 25.9805 11.6211 25.9805C11.6954 25.9805 11.7572 26.0424 11.7572 26.1166C11.7572 26.1908 11.6954 26.2527 11.6211 26.2527C11.0742 26.2527 10.7326 26.8565 10.5445 27.3638C10.3292 27.9453 10.255 28.5367 10.255 28.5417C10.2475 28.6109 10.1881 28.6629 10.1188 28.6629ZM9.12642 26.1166C9.67337 26.4309 9.96788 27.2227 10.1188 27.8117C10.2698 27.2227 10.5643 26.4309 11.1113 26.1166C10.5643 25.8023 10.2698 25.0105 10.1188 24.4216C9.96788 25.0105 9.67337 25.8023 9.12642 26.1166Z" fill="white"/>
<path d="M12.6742 23.5765C12.6742 23.5765 13.1186 19.8454 14.9998 19.8454C13.1186 19.8454 12.6742 16.1143 12.6742 16.1143C12.6742 16.1143 12.2298 19.8454 10.3486 19.8454C12.2298 19.8454 12.6742 23.5765 12.6742 23.5765Z" fill="#FFFDC2"/>
<path d="M12.674 23.7869C12.5667 23.7869 12.4786 23.7065 12.4633 23.5992C12.4633 23.5916 12.3483 22.676 12.015 21.7758C11.7238 20.9905 11.1951 20.0558 10.3484 20.0558C10.2335 20.0558 10.1377 19.96 10.1377 19.8451C10.1377 19.7302 10.2335 19.6344 10.3484 19.6344C11.199 19.6344 11.7238 18.6959 12.0189 17.9068C12.3522 17.0066 12.4633 16.0987 12.4633 16.091C12.4748 15.9838 12.5667 15.9033 12.674 15.9033C12.7813 15.9033 12.8694 15.9838 12.8847 16.091C12.8847 16.0987 12.9997 17.0142 13.333 17.9144C13.6242 18.6997 14.1529 19.6344 14.9996 19.6344C15.1145 19.6344 15.2103 19.7302 15.2103 19.8451C15.2103 19.96 15.1145 20.0558 14.9996 20.0558C14.1529 20.0558 13.6242 20.9905 13.333 21.7758C12.9997 22.676 12.8847 23.5916 12.8847 23.5992C12.8732 23.7065 12.7813 23.7869 12.674 23.7869ZM11.1377 19.8451C11.9844 20.3316 12.4403 21.5575 12.674 22.4692C12.9077 21.5575 13.3636 20.3316 14.2103 19.8451C13.3636 19.3586 12.9077 18.1328 12.674 17.2211C12.4403 18.1328 11.9844 19.3586 11.1377 19.8451Z" fill="white"/>
<g clip-path="url(#clip1_4045_176384)">
<path d="M23.4661 8.82151C23.102 8.84782 22.7378 8.88728 22.3824 8.93113C22.3824 8.83028 22.3824 8.72505 22.3824 8.6242C22.3824 8.47951 22.3693 8.39182 22.3429 8.35674C22.3166 8.32167 22.2684 8.30851 22.2069 8.31728C22.1367 8.32605 22.0841 8.36113 22.049 8.41813C22.0139 8.47513 21.9963 8.55843 21.9963 8.66805C21.9963 8.80836 22.0183 8.9092 22.0578 8.97497C22.0972 9.04074 22.2025 9.10651 22.3824 9.18544C22.8958 9.40467 23.2292 9.61513 23.3652 9.78613C23.5012 9.95713 23.5714 10.2509 23.5714 10.6587C23.5714 10.9568 23.5319 11.1761 23.4573 11.3207C23.3828 11.4654 23.2336 11.597 23.0186 11.711C22.8036 11.825 22.5535 11.9039 22.2727 11.939C21.9656 11.9784 21.7068 11.9653 21.4918 11.8951C21.2812 11.825 21.1408 11.711 21.075 11.5575C21.0092 11.3997 20.9785 11.1673 20.9785 10.856C20.9785 10.7639 20.9785 10.6762 20.9785 10.5841C21.3207 10.514 21.6673 10.4526 22.0227 10.4V10.9042C22.0227 11.0621 22.0358 11.1585 22.0665 11.198C22.0972 11.2374 22.1499 11.2506 22.2245 11.2418C22.2991 11.2331 22.3561 11.1936 22.3956 11.1366C22.4351 11.0752 22.4526 10.9875 22.4526 10.8779C22.4526 10.6324 22.4175 10.4789 22.3473 10.4131C22.2727 10.3474 22.0929 10.2465 21.8121 10.1106C21.5313 9.97905 21.347 9.88259 21.2549 9.82121C21.1627 9.75982 21.0925 9.66336 21.0311 9.53182C20.9741 9.40028 20.9434 9.2249 20.9434 9.00567C20.9434 8.68559 20.9828 8.44443 21.0662 8.2822C21.1496 8.11997 21.2856 7.97528 21.4742 7.8569C21.6629 7.73851 21.891 7.65959 22.1631 7.62451C22.4614 7.58505 22.7203 7.5982 22.9309 7.66836C23.1458 7.73851 23.2862 7.83936 23.3564 7.9709C23.4266 8.10243 23.4617 8.33482 23.4617 8.66367V8.83028L23.4661 8.82151Z" fill="white"/>
<path d="M26.6469 7.52336V10.3032C26.6469 10.6189 26.6338 10.8381 26.6118 10.9653C26.5899 11.0924 26.5241 11.2196 26.41 11.3511C26.3003 11.4827 26.1512 11.5791 25.9713 11.6405C25.787 11.7063 25.572 11.737 25.3263 11.737C25.0499 11.737 24.8086 11.7019 24.598 11.623C24.3874 11.5484 24.2339 11.4476 24.1286 11.3204C24.0233 11.1933 23.9618 11.0574 23.9443 10.9127C23.9267 10.768 23.918 10.4611 23.918 9.9919C23.918 9.17198 23.918 8.35205 23.918 7.53213C24.3128 7.5102 24.7121 7.49705 25.1113 7.49267V10.6101C25.1113 10.7899 25.1201 10.9083 25.1421 10.9565C25.164 11.0091 25.2079 11.0311 25.2737 11.0311C25.3483 11.0311 25.3965 11.0047 25.4185 10.9477C25.4404 10.8907 25.4492 10.7592 25.4492 10.5531C25.4492 9.53152 25.4492 8.5099 25.4492 7.48828C25.8484 7.48828 26.2477 7.50144 26.6425 7.51897L26.6469 7.52336Z" fill="white"/>
<path d="M29.6741 7.89571C29.6741 9.28125 29.6741 10.6668 29.6741 12.0567C29.3494 11.9909 29.0203 11.9339 28.6869 11.8857C28.4895 11.228 28.2876 10.5703 28.0858 9.91702C28.0858 10.5484 28.0858 11.1798 28.0858 11.8068C27.7611 11.7673 27.4365 11.741 27.1074 11.7147V7.55371C27.4365 7.57563 27.7655 7.60633 28.0858 7.64579C28.3008 8.29471 28.5202 8.94802 28.7308 9.60571C28.7308 8.9831 28.7308 8.3561 28.7308 7.73348C29.051 7.78171 29.3626 7.83433 29.6697 7.9001L29.6741 7.89571Z" fill="white"/>
<path d="M17.4688 14.757C17.9558 14.4457 18.4866 14.187 19.0482 13.9678V14.8009C18.8201 14.8885 18.5919 14.985 18.3769 15.0902C18.3769 15.3533 18.3769 15.6164 18.3769 15.8795C18.57 15.7874 18.7718 15.6997 18.9736 15.6208C18.9736 15.8839 18.9736 16.1469 18.9736 16.41C18.7718 16.4889 18.57 16.5766 18.3769 16.6687C18.3769 17.2519 18.3769 17.835 18.3769 18.4138C18.0611 18.5629 17.7583 18.7295 17.4731 18.9136V14.7526L17.4688 14.757Z" fill="white"/>
<path d="M20.3289 13.5645C20.3289 14.6738 20.3289 15.7831 20.3289 16.8924C20.5482 16.8354 20.7676 16.7872 20.9914 16.7389V17.572C20.3991 17.6948 19.8287 17.8526 19.2891 18.0455C19.2891 16.66 19.2891 15.2745 19.2891 13.8845C19.6269 13.7661 19.9735 13.6609 20.3333 13.5688L20.3289 13.5645Z" fill="white"/>
<path d="M23.8175 15.4765C23.8175 15.8931 23.8087 16.1912 23.7867 16.3666C23.7648 16.542 23.699 16.7042 23.5849 16.8577C23.4708 17.0111 23.3173 17.1339 23.1286 17.226C22.9356 17.3224 22.7162 17.3838 22.4661 17.4145C22.2292 17.4452 22.0142 17.4364 21.83 17.397C21.6457 17.3531 21.4965 17.2698 21.3824 17.1471C21.2728 17.0243 21.2026 16.8752 21.185 16.7086C21.1631 16.542 21.1543 16.2438 21.1543 15.8141C21.1543 15.5774 21.1543 15.3406 21.1543 15.1038C21.1543 14.6873 21.1631 14.3891 21.185 14.2094C21.2069 14.0296 21.2684 13.8586 21.3737 13.6964C21.479 13.5341 21.6281 13.3982 21.8124 13.2886C21.9967 13.1834 22.2161 13.1132 22.4661 13.0825C22.7031 13.0518 22.918 13.065 23.1111 13.122C23.3041 13.179 23.4577 13.2754 23.5761 13.4114C23.6946 13.5473 23.7648 13.7008 23.7867 13.8718C23.8087 14.0428 23.8218 14.3409 23.8218 14.7706C23.8218 15.0074 23.8218 15.2441 23.8218 15.4809L23.8175 15.4765ZM22.6416 14.2138C22.6416 14.0208 22.6285 13.8981 22.6065 13.8454C22.5846 13.7928 22.5363 13.7709 22.4661 13.7797C22.4047 13.7884 22.3608 13.8148 22.3257 13.863C22.295 13.9112 22.2775 14.0428 22.2775 14.2576C22.2775 14.9065 22.2775 15.5511 22.2775 16.2C22.2775 16.4411 22.2862 16.5902 22.3082 16.6428C22.3301 16.6954 22.3784 16.7174 22.453 16.7086C22.5319 16.6998 22.5802 16.6604 22.6021 16.5946C22.6241 16.5288 22.6372 16.371 22.6372 16.1254V14.2138H22.6416Z" fill="white"/>
<path d="M28.7092 13.2275C28.5381 14.5911 28.367 15.9504 28.1959 17.3184C27.7132 17.2614 27.2219 17.2175 26.7305 17.1912C26.5945 16.5467 26.476 15.81 26.3707 14.9945C26.3224 15.3409 26.2128 16.0644 26.0373 17.1649C25.5415 17.1517 25.0457 17.1517 24.5543 17.1649C24.3744 15.7837 24.1989 14.407 24.0234 13.0302C24.4095 13.0083 24.7956 12.9995 25.1817 12.9951C25.2256 13.4774 25.2651 13.9641 25.3089 14.4464C25.3484 14.9156 25.3923 15.3804 25.4318 15.8495C25.4757 15.1217 25.5854 14.1746 25.7609 12.9995C26.1733 13.0039 26.5857 13.0214 26.9981 13.0477C27.0156 13.1705 27.0595 13.6309 27.1253 14.4289C27.1692 14.9594 27.2131 15.49 27.257 16.0205C27.3228 15.0208 27.4325 14.043 27.586 13.0916C27.9677 13.1267 28.3406 13.1705 28.7136 13.2275H28.7092Z" fill="white"/>
<path d="M28.9375 13.2617C29.5693 13.3626 30.1791 13.4941 30.767 13.6651C30.767 13.9413 30.767 14.222 30.767 14.4982C30.5345 14.4324 30.2932 14.3666 30.0519 14.314V15.1033C30.28 15.1559 30.5038 15.2129 30.7232 15.2743C30.7232 15.5373 30.7232 15.8004 30.7232 16.0635C30.5038 16.0021 30.28 15.9451 30.0519 15.8925V16.8089C30.3195 16.8703 30.5784 16.9404 30.8372 17.015C30.8372 17.2912 30.8372 17.5718 30.8372 17.848C30.2318 17.6683 29.5956 17.5323 28.9375 17.4271C28.9375 16.0416 28.9375 14.656 28.9375 13.2661V13.2617Z" fill="white"/>
<path d="M31.1309 13.7754C31.3722 13.8543 31.6135 13.942 31.8416 14.0341C32.3067 14.2226 32.5963 14.398 32.7498 14.5164C32.9034 14.6392 33.0218 14.8102 33.114 15.0294C33.2061 15.2486 33.25 15.5336 33.25 15.8888C33.25 16.2132 33.2193 16.4105 33.1535 16.4807C33.0876 16.5509 32.9604 16.5377 32.763 16.4544C32.9429 16.6035 33.0613 16.7482 33.1184 16.8753C33.1798 17.0025 33.2149 17.1077 33.228 17.191C33.2412 17.2743 33.25 17.4848 33.25 17.818C33.25 18.1819 33.25 18.5502 33.25 18.9142C32.9823 18.7432 32.7016 18.5853 32.412 18.445C32.412 17.9846 32.412 17.5242 32.412 17.0639C32.412 16.8402 32.3988 16.6955 32.3681 16.6298C32.3374 16.564 32.2584 16.4982 32.1268 16.4369V18.3135C31.8065 18.1732 31.4731 18.046 31.1309 17.9364C31.1309 16.5509 31.1309 15.1653 31.1309 13.7754ZM32.1268 14.8672V15.7923C32.2365 15.8405 32.3111 15.8581 32.3506 15.8449C32.3944 15.8318 32.4164 15.7353 32.4164 15.5512C32.4164 15.4766 32.4164 15.3977 32.4164 15.3232C32.4164 15.1916 32.3944 15.0952 32.3549 15.0338C32.3155 14.9724 32.2365 14.9154 32.1268 14.8672Z" fill="white"/>
</g>
<mask id="mask0_4045_176384" style="mask-type:alpha" maskUnits="userSpaceOnUse" x="5" y="5" width="41" height="41">
<circle cx="25.4438" cy="25.3861" r="20.3861" fill="#D9D9D9"/>
</mask>
<g mask="url(#mask0_4045_176384)">
<path d="M28.539 52.7355C28.539 52.7355 32.9378 54.4023 35.666 48.8566C38.3942 43.3108 35.9684 37.6335 35.9684 37.6335C35.9684 37.6335 29.9895 39.1787 27.2623 44.7224C24.5351 50.2661 28.539 52.7355 28.539 52.7355Z" fill="#57BEA5" stroke="white" stroke-width="0.289988" stroke-linecap="round" stroke-linejoin="round"/>
<path d="M22.374 52.7355C22.374 52.7355 17.9753 54.4023 15.2471 48.8566C12.5189 43.3108 14.9447 37.6335 14.9447 37.6335C14.9447 37.6335 20.9236 39.1787 23.6508 44.7224C26.378 50.2661 22.374 52.7355 22.374 52.7355Z" fill="#57BEA5" stroke="white" stroke-width="0.289988" stroke-linecap="round" stroke-linejoin="round"/>
<rect x="24.4873" y="35.6953" width="1.98749" height="17.3029" fill="#048A6A" stroke="white" stroke-width="0.289988"/>
<path d="M36.1789 29.5944C36.1789 29.1172 34.7969 28.2039 31.4257 28.2039C31.0733 28.2039 30.762 28.2176 30.4815 28.2415C30.7158 28.1286 30.9673 27.9952 31.2426 27.8378C34.1623 26.1531 34.9012 24.6702 34.6634 24.258C34.4257 23.8458 32.7717 23.7449 29.8521 25.4296C29.5476 25.6058 29.2842 25.7734 29.0533 25.9342C29.1987 25.7204 29.3509 25.4775 29.51 25.2038C31.1948 22.2842 31.0956 20.6319 30.6816 20.3925C30.2694 20.1547 28.7865 20.8936 27.1018 23.8133C26.9256 24.1177 26.7819 24.3948 26.6622 24.6497C26.681 24.3914 26.693 24.1058 26.693 23.7893C26.693 20.4181 25.7796 19.0361 25.3024 19.0361C24.8252 19.0361 23.9119 20.4181 23.9119 23.7893C23.9119 24.1417 23.9256 24.453 23.9495 24.7335C23.8366 24.4991 23.7032 24.2477 23.5459 23.9723C21.8611 21.051 20.3782 20.3104 19.966 20.5498C19.5538 20.7876 19.4529 22.4415 21.1376 25.3612C21.3138 25.6656 21.4814 25.929 21.6422 26.1599C21.4284 26.0146 21.1855 25.8623 20.9118 25.7033C17.9922 24.0185 16.3399 24.1177 16.1005 24.5316C15.8627 24.9439 16.6016 26.4268 19.5213 28.1115C19.8257 28.2877 20.1028 28.4314 20.3577 28.5511C20.0994 28.5323 19.8138 28.5203 19.4973 28.5203C16.1261 28.5203 14.7441 29.4336 14.7441 29.9108C14.7441 30.388 16.1261 31.3014 19.4973 31.3014C19.8497 31.3014 20.161 31.2877 20.4415 31.2638C20.2072 31.3767 19.9557 31.5101 19.6804 31.6674C16.7607 33.3522 16.0218 34.8351 16.2596 35.2473C16.4973 35.6595 18.1513 35.7604 21.0709 34.0757C21.3754 33.8995 21.6388 33.7319 21.8697 33.5711C21.7243 33.7849 21.5721 34.0278 21.413 34.3014C19.7282 37.2211 19.8274 38.8733 20.2414 39.1128C20.6536 39.3505 22.1365 38.6116 23.8212 35.692C23.9974 35.3875 24.1411 35.1105 24.2608 34.8556C24.242 35.1139 24.23 35.3995 24.23 35.7159C24.23 39.0871 25.1434 40.4691 25.6206 40.4691C26.0978 40.4691 27.0111 39.0871 27.0111 35.7159C27.0111 35.3636 26.9974 35.0523 26.9735 34.7718C27.0864 35.0061 27.2198 35.2576 27.3771 35.5329C29.0619 38.4526 30.5448 39.1915 30.957 38.9537C31.3692 38.716 31.4701 37.062 29.7854 34.1424C29.6092 33.8379 29.4416 33.5745 29.2808 33.3436C29.4946 33.489 29.7375 33.6412 30.0112 33.8003C32.9308 35.485 34.5831 35.3858 34.8225 34.9719C35.0603 34.5597 34.3214 33.0768 31.4017 31.3921C31.0973 31.2159 30.8202 31.0722 30.5653 30.9525C30.8236 30.9713 31.1092 30.9833 31.4257 30.9833C34.7969 30.9833 36.1789 30.0699 36.1789 29.5927V29.5944ZM27.8749 30.9645C27.8236 31.0534 27.5858 31.404 27.8954 31.9907C27.3566 31.7393 27.0334 31.9599 26.9461 32.0095C26.8572 32.0608 26.4758 32.2455 26.4501 32.9092C26.108 32.4217 25.7181 32.4508 25.6189 32.4508C25.5197 32.4508 25.0938 32.42 24.7397 32.981C24.6867 32.3892 24.3361 32.2182 24.2488 32.1686C24.1599 32.1173 23.8093 31.8795 23.2226 32.1891C23.474 31.6503 23.2534 31.3271 23.2038 31.2398C23.1525 31.1509 22.9677 30.7695 22.3041 30.7438C22.7916 30.4017 22.7625 30.0118 22.7625 29.9126C22.7625 29.8134 22.7933 29.3875 22.2323 29.0334C22.8241 28.9804 22.9951 28.6298 23.0447 28.5425C23.096 28.4536 23.3338 28.103 23.0242 27.5163C23.563 27.7677 23.8862 27.5471 23.9735 27.4975C24.0624 27.4462 24.4438 27.2614 24.4695 26.5978C24.8115 27.0853 25.2015 27.0562 25.3007 27.0562C25.3999 27.0562 25.8258 27.087 26.1799 26.526C26.2329 27.1178 26.5835 27.2888 26.6708 27.3384C26.7597 27.3897 27.1103 27.6275 27.697 27.3179C27.4456 27.8567 27.6662 28.1799 27.7158 28.2672C27.7671 28.3561 27.9518 28.7375 28.6155 28.7632C28.128 29.1053 28.1571 29.4952 28.1571 29.5944C28.1571 29.6936 28.1263 30.1195 28.6873 30.4736C28.0955 30.5266 27.9245 30.8772 27.8749 30.9645Z" fill="#FFFDC2" stroke="white" stroke-width="0.289988" stroke-linecap="round" stroke-linejoin="round"/>
<path d="M32.929 22.0622C32.5921 21.7253 30.9689 22.0571 28.5863 24.4397C28.3383 24.6877 28.1262 24.9186 27.9449 25.1341C28.0304 24.8895 28.1142 24.6158 28.1963 24.3097C29.0686 21.0548 28.5435 19.4829 28.0834 19.3598C27.6233 19.2366 26.3833 20.3347 25.511 23.5896C25.4203 23.93 25.3519 24.2344 25.3023 24.5115C25.2544 24.2567 25.1912 23.9779 25.1091 23.6717C24.2367 20.4168 22.9967 19.317 22.5366 19.4419C22.0765 19.565 21.5514 21.1369 22.4237 24.3918C22.5144 24.7321 22.6084 25.0298 22.7042 25.2932C22.5349 25.0965 22.3399 24.8861 22.1159 24.6637C19.7333 22.2811 18.1101 21.9493 17.7732 22.2863C17.4362 22.6232 17.768 24.2464 20.1506 26.629C20.3986 26.877 20.6295 27.0891 20.845 27.2704C20.6004 27.1849 20.3268 27.101 20.0206 27.019C16.7657 26.1466 15.1939 26.6717 15.0707 27.1318C14.9476 27.5919 16.0456 28.832 19.3005 29.7043C19.6409 29.7949 19.9454 29.8633 20.2224 29.9129C19.9676 29.9608 19.6888 30.0241 19.3826 30.1062C16.1277 30.9785 15.028 32.2186 15.1528 32.6787C15.276 33.1388 16.8478 33.6639 20.1027 32.7915C20.4431 32.7009 20.7407 32.6068 21.0041 32.511C20.8074 32.6804 20.597 32.8754 20.3747 33.0994C17.9921 35.482 17.6603 37.1052 17.9972 37.4421C18.3342 37.7791 19.9573 37.4473 22.3399 35.0647C22.5879 34.8167 22.8 34.5858 22.9813 34.3702C22.8958 34.6148 22.812 34.8885 22.7299 35.1947C21.8576 38.4495 22.3827 40.0214 22.8428 40.1446C23.3029 40.2677 24.5429 39.1696 25.4152 35.9147C25.5059 35.5744 25.5743 35.2699 25.6239 34.9928C25.6718 35.2477 25.7351 35.5265 25.8172 35.8326C26.6895 39.0875 27.9295 40.1873 28.3896 40.0625C28.8497 39.9393 29.3748 38.3674 28.5025 35.1126C28.4118 34.7722 28.3178 34.4746 28.222 34.2112C28.3913 34.4079 28.5863 34.6183 28.8104 34.8406C31.1929 37.2232 32.8161 37.555 33.1531 37.2181C33.49 36.8811 33.1582 35.2579 30.7756 32.8754C30.5276 32.6273 30.2967 32.4153 30.0812 32.234C30.3258 32.3195 30.5994 32.4033 30.9056 32.4854C34.1605 33.3577 35.7323 32.8326 35.8555 32.3725C35.9786 31.9124 34.8806 30.6724 31.6257 29.8001C31.2853 29.7094 30.9809 29.641 30.7038 29.5914C30.9586 29.5435 31.2374 29.4802 31.5436 29.3981C34.7985 28.5258 35.8983 27.2858 35.7734 26.8257C35.6502 26.3656 34.0784 25.8405 30.8235 26.7128C30.4831 26.8034 30.1855 26.8975 29.9221 26.9933C30.1188 26.824 30.3292 26.629 30.5515 26.4049C32.9341 24.0223 33.2659 22.3992 32.929 22.0622ZM28.0253 28.9021C28.0527 29.0013 28.1313 29.4186 28.7659 29.6136C28.2066 29.8172 28.133 30.202 28.1074 30.2978C28.08 30.397 27.9415 30.7972 28.393 31.283C27.8064 31.1804 27.5515 31.4763 27.4814 31.5464C27.4113 31.6165 27.088 31.8953 27.2351 32.5435C26.7784 32.1621 26.4107 32.2904 26.3132 32.3161C26.214 32.3434 25.7966 32.4221 25.6016 33.0567C25.3981 32.4974 25.0133 32.4238 24.9175 32.3982C24.8183 32.3708 24.4181 32.2322 23.9323 32.6838C24.0349 32.0971 23.739 31.8423 23.6689 31.7722C23.5988 31.702 23.32 31.3788 22.6717 31.5259C23.0532 31.0692 22.9249 30.7014 22.8992 30.6039C22.8719 30.5047 22.7932 30.0874 22.1586 29.8924C22.7179 29.6889 22.7915 29.304 22.8171 29.2083C22.8445 29.1091 22.983 28.7088 22.5315 28.2231C23.1181 28.3257 23.373 28.0298 23.4431 27.9597C23.5133 27.8895 23.8365 27.6107 23.6894 26.9625C24.1461 27.3439 24.5138 27.2156 24.6113 27.19C24.7105 27.1626 25.1279 27.0839 25.3229 26.4494C25.5264 27.0087 25.9112 27.0822 26.007 27.1079C26.1062 27.1353 26.5064 27.2738 26.9922 26.8223C26.8896 27.4089 27.1855 27.6638 27.2556 27.7339C27.3257 27.804 27.6045 28.1273 28.2528 27.9802C27.8713 28.4369 27.9996 28.8046 28.0253 28.9021Z" fill="#FFFDC2" stroke="white" stroke-width="0.289988" stroke-linecap="round" stroke-linejoin="round"/>
<path d="M31.0478 29.752C31.5425 29.337 31.7287 28.92 31.6827 28.6606C31.6366 28.4012 31.3182 28.072 30.7113 27.8505C31.0338 27.2919 31.0658 26.8369 30.9316 26.6075C30.7974 26.378 30.3869 26.1785 29.7399 26.1765C29.8521 25.542 29.7239 25.103 29.5216 24.9334C29.3194 24.7638 28.8627 24.716 28.2538 24.9334C28.1397 24.299 27.8693 23.9298 27.621 23.84C27.3726 23.7503 26.926 23.86 26.4313 24.273C26.1068 23.7163 25.7263 23.4609 25.4619 23.4609C25.1975 23.4609 24.817 23.7163 24.4926 24.273C23.9959 23.86 23.5512 23.7503 23.3029 23.84C23.0545 23.9298 22.7841 24.299 22.67 24.9334C22.0631 24.714 21.6065 24.7619 21.4022 24.9334C21.1979 25.105 21.0717 25.542 21.1839 26.1765C20.537 26.1765 20.1244 26.378 19.9922 26.6075C19.86 26.8369 19.8921 27.2919 20.2125 27.8505C19.6057 28.072 19.2872 28.4012 19.2412 28.6606C19.1951 28.92 19.3813 29.339 19.876 29.752C19.3813 30.167 19.1951 30.5841 19.2412 30.8434C19.2872 31.1028 19.6057 31.432 20.2125 31.6535C19.8901 32.2122 19.858 32.6671 19.9922 32.8966C20.1264 33.126 20.537 33.3256 21.1839 33.3276C21.0717 33.962 21.1999 34.401 21.4022 34.5706C21.6045 34.7402 22.0611 34.7881 22.67 34.5706C22.7841 35.2051 23.0545 35.5742 23.3029 35.664C23.5512 35.7538 23.9979 35.6441 24.4926 35.231C24.817 35.7877 25.1975 36.0431 25.4619 36.0431C25.7263 36.0431 26.1068 35.7877 26.4313 35.231C26.928 35.6441 27.3726 35.7538 27.621 35.664C27.8693 35.5742 28.1397 35.2051 28.2538 34.5706C28.8607 34.7901 29.3173 34.7422 29.5216 34.5706C29.7259 34.399 29.8521 33.962 29.7399 33.3276C30.3869 33.3276 30.7994 33.126 30.9316 32.8966C31.0638 32.6691 31.0318 32.2122 30.7113 31.6535C31.3182 31.432 31.6366 31.1028 31.6827 30.8434C31.7287 30.5841 31.5425 30.165 31.0478 29.752Z" fill="#FF5E67" stroke="white" stroke-width="0.289988" stroke-linecap="round" stroke-linejoin="round"/>
<path d="M28.5397 29.7519C28.8123 29.5213 28.9149 29.2896 28.8895 29.1455C28.8642 29.0014 28.6887 28.8185 28.3543 28.6955C28.532 28.3851 28.5496 28.1324 28.4757 28.0049C28.4018 27.8774 28.1755 27.7666 27.8191 27.7655C27.8809 27.413 27.8102 27.1691 27.6988 27.0749C27.5873 26.9807 27.3357 26.9541 27.0002 27.0749C26.9373 26.7224 26.7883 26.5173 26.6515 26.4674C26.5146 26.4176 26.2685 26.4785 25.9959 26.708C25.8171 26.3987 25.6075 26.2568 25.4618 26.2568C25.3161 26.2568 25.1064 26.3987 24.9276 26.708C24.6539 26.4785 24.4089 26.4176 24.2721 26.4674C24.1353 26.5173 23.9863 26.7224 23.9234 27.0749C23.589 26.953 23.3374 26.9796 23.2248 27.0749C23.1122 27.1702 23.0427 27.413 23.1045 27.7655C22.748 27.7655 22.5207 27.8774 22.4479 28.0049C22.375 28.1324 22.3927 28.3851 22.5693 28.6955C22.2349 28.8185 22.0594 29.0014 22.034 29.1455C22.0086 29.2896 22.1113 29.5224 22.3838 29.7519C22.1113 29.9824 22.0086 30.2141 22.034 30.3582C22.0594 30.5023 22.2349 30.6852 22.5693 30.8083C22.3916 31.1186 22.3739 31.3714 22.4479 31.4989C22.5218 31.6263 22.748 31.7372 23.1045 31.7383C23.0427 32.0908 23.1133 32.3347 23.2248 32.4289C23.3363 32.5231 23.5879 32.5497 23.9234 32.4289C23.9863 32.7814 24.1353 32.9864 24.2721 33.0363C24.4089 33.0862 24.655 33.0252 24.9276 32.7958C25.1064 33.105 25.3161 33.2469 25.4618 33.2469C25.6075 33.2469 25.8171 33.105 25.9959 32.7958C26.2696 33.0252 26.5146 33.0862 26.6515 33.0363C26.7883 32.9864 26.9373 32.7814 27.0002 32.4289C27.3346 32.5508 27.5862 32.5242 27.6988 32.4289C27.8113 32.3335 27.8809 32.0908 27.8191 31.7383C28.1755 31.7383 28.4029 31.6263 28.4757 31.4989C28.5485 31.3725 28.5309 31.1186 28.3543 30.8083C28.6887 30.6852 28.8642 30.5023 28.8895 30.3582C28.9149 30.2141 28.8123 29.9813 28.5397 29.7519Z" fill="#FF5E67" stroke="white" stroke-width="0.289988" stroke-linecap="round" stroke-linejoin="round"/>
</g>
</g>
<path d="M57.4425 28.268C56.3225 28.268 55.5385 27.356 55.5385 26.076C55.5385 24.828 56.3225 23.916 57.4425 23.916C58.5465 23.916 59.3465 24.828 59.3465 26.076C59.3465 27.356 58.5465 28.268 57.4425 28.268ZM57.4425 22.812C55.6665 22.812 54.3705 24.156 54.3705 26.076C54.3705 28.028 55.6665 29.356 57.4425 29.356C59.2185 29.356 60.5145 28.028 60.5145 26.076C60.5145 24.156 59.2185 22.812 57.4425 22.812ZM58.0825 18.748H56.7865V20.78H53.8745V21.852H60.9945V20.78H58.0825V18.748ZM64.7865 18.316V24.38H62.9465V18.652H61.7145V31.98H62.9465V25.452H64.7865V32.668H66.0505V18.316H64.7865ZM74.2573 28.156H70.1612V24.38H74.2573V28.156ZM74.2573 23.34H70.1612V19.548H68.8652V29.228H75.5373V19.548H74.2573V23.34ZM81.6973 23.98H79.3293V18.348H78.0173V32.668H79.3293V25.084H81.6973V23.98ZM84.56 24.812H89.728V19.66H83.232V20.732H88.432V23.74H83.28V29.228H84.416C87.152 29.228 89.072 29.116 91.312 28.716L91.168 27.628C89.024 28.044 87.168 28.14 84.56 28.14V24.812ZM96.096 24.028H93.744V18.316H92.432V32.7H93.744V25.132H96.096V24.028ZM97.9348 19.884V20.94H103.327C103.055 24.348 101.135 27.1 97.2788 28.94L97.9828 30.012C102.751 27.676 104.655 24.028 104.655 19.884H97.9348ZM107.551 18.332V32.684H108.863V18.332H107.551Z" fill="white"/>
<defs>
<clipPath id="clip0_4045_176384">
<rect width="41" height="41" fill="white" transform="translate(5 5)"/>
</clipPath>
<clipPath id="clip1_4045_176384">
<rect width="15.7859" height="12.2375" fill="white" transform="translate(17.4688 7.49316)"/>
</clipPath>
</defs>
</svg>
