<svg width="68" height="68" viewBox="0 0 68 68" fill="none" xmlns="http://www.w3.org/2000/svg">
<circle cx="34" cy="34" r="34" fill="#FF5D5D"/>
<path d="M35.9737 42.3517C35.8254 42.4918 35.6735 42.6286 35.5294 42.7732C34.6959 43.6088 33.8616 44.4432 33.0334 45.2838C32.6007 45.7231 32.1244 46.1033 31.5828 46.3955C31.2347 46.5831 30.8701 46.7331 30.489 46.8451C29.9072 47.0162 29.316 47.1084 28.7108 47.0935C28.1832 47.0807 27.6658 46.9976 27.1579 46.8447C26.0206 46.5025 25.0803 45.8636 24.3244 44.9495C23.9611 44.5102 23.6728 44.0229 23.4536 43.4927C23.1173 42.6794 22.9658 41.8338 23.0065 40.9573C23.0282 40.4837 23.1095 40.0171 23.2454 39.5588C23.4092 39.0054 23.6494 38.4897 23.9603 38.0074C24.2136 37.6144 24.5256 37.2697 24.8549 36.9391C26.0748 35.7154 27.2905 34.4884 28.5092 33.2635C29.373 32.3956 30.2328 31.5232 31.107 30.6652C31.4814 30.2974 31.9154 30.0019 32.3937 29.7833C32.6996 29.6432 33.0088 29.5031 33.3291 29.4027C33.9059 29.2217 34.5021 29.1378 35.1077 29.1667C35.4379 29.1824 35.7725 29.1986 36.0952 29.2638C36.4471 29.3349 36.7953 29.4432 37.1311 29.5726C37.4345 29.6891 37.7285 29.8391 38.0094 30.0044C38.4762 30.2788 38.9086 30.6061 39.2481 31.0343C39.4924 31.3422 39.5774 31.7054 39.5236 32.1001C39.4555 32.5993 39.1972 32.9688 38.7612 33.2035C38.4376 33.3775 38.0919 33.4184 37.7289 33.3255C37.437 33.2507 37.2058 33.087 36.9915 32.8849C36.6893 32.6002 36.3444 32.3898 35.9507 32.2514C35.4432 32.0728 34.9271 32.0394 34.4069 32.1468C33.8181 32.2687 33.3163 32.5621 32.891 32.9911C31.6723 34.2198 30.4513 35.4459 29.2322 36.6742C28.3938 37.5189 27.5545 38.3628 26.7198 39.2112C26.3721 39.5646 26.1388 39.9911 26.0128 40.4692C25.8949 40.9164 25.8826 41.3701 25.9783 41.8281C26.1183 42.4992 26.4513 43.0513 26.9707 43.4873C27.3345 43.7927 27.7516 43.9928 28.2189 44.0932C28.6771 44.1915 29.1308 44.1796 29.5792 44.0614C30.1224 43.918 30.5789 43.62 30.9719 43.2179C31.3997 42.7798 31.8358 42.35 32.2652 41.9136C32.363 41.814 32.4574 41.8818 32.5498 41.907C32.8516 41.9896 33.1496 42.0855 33.4522 42.1653C33.9544 42.2975 34.4697 42.3335 34.9858 42.3401C35.265 42.3434 35.545 42.3091 35.8246 42.2934C35.8661 42.2909 35.9076 42.2984 35.9494 42.3012C35.9577 42.3182 35.9659 42.3347 35.9737 42.3517Z" fill="white"/>
<path d="M34.029 27.6901C34.2869 27.4355 34.5464 27.183 34.8022 26.9268C35.5466 26.1809 36.2914 25.4357 37.0317 24.6856C37.48 24.231 37.9855 23.8558 38.5521 23.5686C38.9323 23.3756 39.3306 23.226 39.7465 23.1231C40.2573 22.997 40.7734 22.9272 41.2985 22.9412C41.7329 22.9532 42.1612 23.014 42.5845 23.1194C43.0809 23.2425 43.5498 23.4297 43.9965 23.6773C44.6961 24.0653 45.2845 24.5836 45.7764 25.2146C46.1131 25.6461 46.3882 26.1164 46.5787 26.6284C46.7072 26.9735 46.7963 27.3351 46.8817 27.6947C46.9782 28.1009 47.0106 28.5166 46.9958 28.9345C46.9802 29.3717 46.9215 29.8023 46.8172 30.2288C46.7031 30.695 46.5339 31.138 46.3118 31.56C46.0256 32.103 45.6544 32.5836 45.2217 33.0176C44.4071 33.8334 43.5953 34.652 42.7828 35.4699C41.7723 36.4865 40.7635 37.5044 39.7514 38.5194C39.4184 38.8533 39.0879 39.1914 38.7368 39.5063C38.403 39.8059 38.0298 40.0564 37.6209 40.2432C37.3084 40.3857 36.9935 40.5291 36.6667 40.6316C36.029 40.8321 35.3712 40.8945 34.7032 40.8672C34.3222 40.8515 33.9473 40.7953 33.5803 40.7027C33.1709 40.599 32.7767 40.4494 32.3965 40.2576C31.8303 39.9716 31.3233 39.6075 30.8798 39.1542C30.4865 38.7521 30.3695 38.2644 30.5107 37.7297C30.6244 37.2982 30.8979 36.9754 31.3126 36.7961C31.9153 36.5357 32.4614 36.6456 32.9373 37.0899C33.2308 37.3639 33.5503 37.5958 33.9227 37.74C34.3604 37.9094 34.8153 37.9859 35.2879 37.9301C35.6332 37.8892 35.9621 37.8011 36.2754 37.6478C36.6178 37.4805 36.9068 37.2449 37.1733 36.9759C38.0721 36.07 38.9717 35.1657 39.8709 34.2603C40.7003 33.4255 41.5305 32.5915 42.3582 31.7554C42.7072 31.4029 43.0677 31.0599 43.3925 30.6859C43.8663 30.1404 44.0917 29.4911 44.077 28.7634C44.0564 27.7579 43.6257 26.9636 42.8181 26.3875C42.3192 26.0317 41.7497 25.8668 41.1314 25.8779C40.2975 25.8924 39.6089 26.2263 39.0292 26.8152C38.6141 27.2372 38.1932 27.6525 37.7818 28.0782C37.6861 28.1769 37.5983 28.1757 37.4813 28.1397C37.1659 28.043 36.849 27.9501 36.5299 27.867C36.0409 27.7393 35.5396 27.6996 35.037 27.6959C34.7439 27.6934 34.4503 27.7265 34.1571 27.7418C34.1198 27.7438 34.082 27.7352 34.0442 27.7314C34.0393 27.7182 34.034 27.705 34.029 27.6913V27.6901Z" fill="white"/>
</svg>
