<svg width="17" height="19" viewBox="0 0 17 19" fill="none" xmlns="http://www.w3.org/2000/svg">
<path d="M9.17748 14.8119C9.07513 14.9188 8.97024 15.0231 8.87072 15.1335C8.2952 15.771 7.71911 16.4076 7.14727 17.049C6.84845 17.3841 6.51958 17.6742 6.14563 17.8971C5.90522 18.0403 5.65346 18.1547 5.39037 18.2402C4.98863 18.3707 4.58038 18.441 4.16249 18.4297C3.79818 18.4199 3.44096 18.3565 3.09026 18.2399C2.30494 17.9788 1.6557 17.4913 1.13376 16.7939C0.882856 16.4587 0.683833 16.087 0.532439 15.6824C0.300245 15.0619 0.19563 14.4168 0.223697 13.748C0.238723 13.3867 0.294858 13.0307 0.3887 12.681C0.50182 12.2588 0.667672 11.8653 0.882289 11.4974C1.05721 11.1975 1.27268 10.9345 1.50006 10.6823C2.34236 9.74867 3.18183 8.81252 4.02329 7.87795C4.61979 7.21581 5.21346 6.5502 5.81705 5.89562C6.07561 5.615 6.37528 5.38955 6.70556 5.22275C6.91678 5.11587 7.13026 5.00898 7.3514 4.93236C7.74973 4.79425 8.16138 4.73025 8.57956 4.75232C8.8075 4.7643 9.03856 4.7766 9.2614 4.82641C9.50437 4.88065 9.74478 4.96326 9.97669 5.06195C10.1862 5.15086 10.3892 5.26532 10.5831 5.39144C10.9055 5.60081 11.204 5.85053 11.4385 6.17719C11.6072 6.41209 11.6658 6.68925 11.6287 6.99036C11.5816 7.37125 11.4033 7.65314 11.1022 7.83223C10.8788 7.96498 10.6401 7.99619 10.3895 7.92525C10.1879 7.86818 10.0283 7.74332 9.8803 7.58913C9.67164 7.37189 9.43349 7.21139 9.1616 7.10577C8.81119 6.96955 8.45482 6.94401 8.09561 7.02599C7.68906 7.11901 7.34261 7.34288 7.04889 7.67017C6.20744 8.60757 5.36428 9.54309 4.52255 10.4802C3.94362 11.1247 3.36413 11.7685 2.78775 12.4158C2.54762 12.6854 2.38659 13.0108 2.29955 13.3756C2.21818 13.7168 2.20968 14.063 2.27574 14.4124C2.37241 14.9244 2.60234 15.3457 2.96098 15.6783C3.21217 15.9113 3.50021 16.0639 3.82285 16.1406C4.13924 16.2156 4.45252 16.2065 4.76211 16.1163C5.13719 16.0069 5.45246 15.7795 5.72377 15.4727C6.01919 15.1385 6.32028 14.8106 6.61683 14.4776C6.6843 14.4016 6.74951 14.4534 6.8133 14.4726C7.02168 14.5357 7.22751 14.6088 7.43645 14.6697C7.78318 14.7706 8.13899 14.798 8.49536 14.803C8.68814 14.8056 8.8815 14.7794 9.07457 14.7674C9.1032 14.7655 9.13184 14.7712 9.16075 14.7734C9.16642 14.7863 9.17209 14.7989 9.17748 14.8119V14.8119Z" fill="white"/>
<path d="M7.83438 3.62455C8.01242 3.43032 8.1916 3.23767 8.36822 3.04218C8.88223 2.47305 9.39651 1.90455 9.90768 1.33227C10.2173 0.985431 10.5663 0.699133 10.9575 0.479995C11.22 0.332747 11.495 0.218606 11.7822 0.140094C12.1349 0.0439257 12.4913 -0.0093611 12.8539 0.00135933C13.1539 0.0105032 13.4496 0.0568533 13.7419 0.137257C14.0846 0.231218 14.4084 0.374052 14.7168 0.562921C15.1999 0.858994 15.6062 1.25439 15.9459 1.73586C16.1783 2.06504 16.3683 2.42386 16.4998 2.81453C16.5886 3.07781 16.6501 3.3537 16.7091 3.62802C16.7757 3.93796 16.7981 4.25516 16.7879 4.57394C16.7771 4.90753 16.7366 5.23608 16.6645 5.56148C16.5857 5.91714 16.4689 6.25515 16.3155 6.57708C16.1179 6.99139 15.8617 7.3581 15.5628 7.68917C15.0004 8.31158 14.4399 8.9362 13.8788 9.5602C13.1811 10.3359 12.4845 11.1125 11.7856 11.8868C11.5557 12.1416 11.3275 12.3995 11.0851 12.6398C10.8546 12.8684 10.5969 13.0595 10.3145 13.202C10.0988 13.3108 9.88131 13.4202 9.65564 13.4984C9.21535 13.6513 8.76117 13.6989 8.2999 13.6781C8.0368 13.6661 7.77796 13.6232 7.5245 13.5526C7.24184 13.4735 6.96967 13.3593 6.70714 13.213C6.31618 12.9948 5.96605 12.717 5.65986 12.3712C5.38826 12.0644 5.30746 11.6923 5.40499 11.2843C5.48352 10.9551 5.67234 10.7089 5.95868 10.572C6.37487 10.3734 6.75194 10.4572 7.08052 10.7962C7.28323 11.0052 7.5038 11.1821 7.76095 11.2922C8.06317 11.4215 8.37729 11.4798 8.70361 11.4372C8.94205 11.406 9.16914 11.3388 9.38545 11.2219C9.6219 11.0942 9.82149 10.9144 10.0055 10.7092C10.6261 10.018 11.2473 9.32813 11.8681 8.63729C12.4408 8.00038 13.0141 7.36409 13.5856 6.72622C13.8266 6.45726 14.0755 6.19556 14.2998 5.91021C14.627 5.494 14.7826 4.99866 14.7724 4.4434C14.7582 3.67626 14.4608 3.07024 13.9032 2.6307C13.5587 2.35922 13.1655 2.23342 12.7385 2.24193C12.1627 2.25296 11.6873 2.50773 11.2869 2.95704C11.0003 3.27897 10.7097 3.59586 10.4256 3.92062C10.3596 3.99598 10.2989 3.99503 10.2181 3.9676C10.0004 3.89382 9.78152 3.82288 9.56123 3.7595C9.22357 3.66207 8.87741 3.6318 8.53039 3.62896C8.32796 3.62707 8.12526 3.6523 7.92283 3.66396C7.89703 3.66554 7.87095 3.65892 7.84487 3.65608C7.84146 3.64599 7.83778 3.6359 7.83438 3.62549V3.62455Z" fill="white"/>
</svg>
