<svg width="18" height="20" viewBox="0 0 18 20" fill="none" xmlns="http://www.w3.org/2000/svg">
<g clip-path="url(#clip0_4422_156578)">
<path d="M15.4103 6.82227H13.9427C13.3556 6.82227 12.8774 7.27949 12.8774 7.84083C12.8774 8.40217 13.3556 8.85939 13.9427 8.85939H15.4103C15.666 8.85939 15.8695 9.05857 15.8695 9.2985V17.5239C15.8695 17.7684 15.6612 17.9631 15.4103 17.9631H2.58969C2.33403 17.9631 2.13046 17.7639 2.13046 17.5239V9.2985C2.13046 9.05405 2.33877 8.85939 2.58969 8.85939H4.05734C4.6444 8.85939 5.12257 8.40217 5.12257 7.84083C5.12257 7.27949 4.6444 6.82227 4.05734 6.82227H2.58969C1.15992 6.82227 0 7.93137 0 9.2985V17.5239C0 18.8911 1.15992 20.0002 2.58969 20.0002H15.4103C16.8401 20.0002 18 18.8911 18 17.5239V9.2985C18 7.93137 16.8401 6.82227 15.4103 6.82227Z" fill="white"/>
<path d="M13.5166 3.3186L9.76696 0.312714C9.65334 0.199541 9.51131 0.113529 9.35507 0.063733C9.3456 0.063733 9.34087 0.063733 9.3314 0.059206C9.28406 0.0456252 9.23198 0.0320444 9.1799 0.0229906C9.13729 0.0139367 9.09468 0.0139367 9.05207 0.00940975C9.03314 0.00940975 9.01893 0.00488281 9 0.00488281C8.75381 0.00488281 8.50762 0.0818407 8.30878 0.240283L4.48816 3.30502C4.0384 3.66717 3.97685 4.31 4.3556 4.74006C4.73435 5.17012 5.40662 5.22444 5.85639 4.86681L7.9395 3.19637V12.9836C7.9395 13.5449 8.41767 14.0022 9.00473 14.0022C9.59179 14.0022 10.07 13.5449 10.07 12.9836V3.20995L12.1531 4.88039C12.3519 5.03883 12.5934 5.12032 12.8348 5.12032C13.1378 5.12032 13.4408 4.99809 13.6539 4.75816C14.0326 4.32811 13.9711 3.68528 13.5213 3.32313L13.5166 3.3186Z" fill="white"/>
</g>
<defs>
<clipPath id="clip0_4422_156578">
<rect width="18" height="20" fill="white"/>
</clipPath>
</defs>
</svg>
