<svg width="157" height="48" viewBox="0 0 157 48" fill="none" xmlns="http://www.w3.org/2000/svg">
<rect width="157" height="48" rx="24" fill="#FF5E67"/>
<path d="M25 42.8328C35.4017 42.8328 43.834 34.4005 43.834 23.9988C43.834 13.5971 35.4017 5.16479 25 5.16479C14.5983 5.16479 6.16602 13.5971 6.16602 23.9988C6.16602 34.4005 14.5983 42.8328 25 42.8328Z" fill="#3973CB" stroke="white" stroke-width="0.703704" stroke-miterlimit="10"/>
<path d="M20.629 7.73413V11.4565C20.629 12.0143 20.6231 12.3736 20.6113 12.5356C20.5996 12.6977 20.5479 12.855 20.4552 13.0077C20.3624 13.1603 20.2379 13.2836 20.0806 13.3776C19.9232 13.4727 19.6872 13.5666 19.3737 13.6699C19.1377 13.7486 18.9028 13.832 18.668 13.9201V12.9466C18.7525 12.9219 18.8136 12.9032 18.8512 12.8891C18.951 12.8527 19.0308 12.7998 19.0883 12.7282C19.1459 12.6577 19.1799 12.5838 19.1893 12.5074C19.1976 12.4311 19.2023 12.2867 19.2023 12.0765V8.15921C19.6731 7.99834 20.1487 7.85625 20.6278 7.73413H20.629Z" fill="white"/>
<path d="M24.511 7.17896V10.9013C24.511 11.3229 24.497 11.62 24.4688 11.7926C24.4406 11.964 24.3584 12.1425 24.221 12.3304C24.0836 12.5171 23.9028 12.665 23.6785 12.7754C23.4542 12.8858 23.19 12.9586 22.8859 12.9962C22.5501 13.0384 22.2541 13.029 21.9982 12.9633C21.7422 12.8975 21.5519 12.793 21.4251 12.6427C21.2983 12.4924 21.2243 12.3221 21.202 12.1319C21.1785 11.9405 21.168 11.5307 21.168 10.9025V7.60638C21.6494 7.49952 22.1355 7.41146 22.6217 7.34335V11.5201C22.6217 11.7632 22.6346 11.917 22.6616 11.9804C22.6886 12.045 22.7426 12.0709 22.8237 12.0603C22.9164 12.0486 22.9763 12.0039 23.0021 11.9264C23.0291 11.8489 23.0421 11.6716 23.0421 11.3933V7.28933C23.5306 7.23297 24.0202 7.19539 24.511 7.17896Z" fill="white"/>
<path d="M28.1878 9.10606C27.7369 9.03091 27.2836 8.9722 26.8292 8.92993V8.51659C26.8292 8.32402 26.8116 8.19955 26.7763 8.14436C26.7411 8.08799 26.6836 8.05746 26.6014 8.05042C26.5133 8.04337 26.4464 8.0739 26.4006 8.14201C26.3548 8.21012 26.3325 8.31697 26.3325 8.4614C26.3325 8.64693 26.3583 8.78902 26.4088 8.88648C26.4569 8.98394 26.5967 9.10724 26.8233 9.25989C27.4762 9.70376 27.886 10.0854 28.0539 10.3566C28.2218 10.6291 28.3064 11.04 28.3064 11.5861C28.3064 11.983 28.2594 12.2671 28.1666 12.4397C28.0727 12.6124 27.893 12.7404 27.6241 12.8308C27.3552 12.9212 27.0417 12.9482 26.6847 12.9188C26.2914 12.886 25.9555 12.7967 25.6772 12.6417C25.3989 12.4867 25.2158 12.3 25.13 12.0734C25.0443 11.8468 25.0009 11.525 25.0009 11.107V10.7418C25.4565 10.7383 25.9121 10.7512 26.3677 10.7817V11.4593C26.3677 11.6683 26.3865 11.8033 26.4252 11.8655C26.464 11.9278 26.5321 11.963 26.6296 11.97C26.727 11.9783 26.7998 11.9466 26.848 11.8749C26.8961 11.8033 26.9196 11.6941 26.9196 11.545C26.9196 11.2174 26.8738 10.9978 26.7834 10.8886C26.6906 10.7794 26.4616 10.5903 26.0953 10.3343C25.7301 10.0772 25.487 9.90103 25.3684 9.79182C25.2498 9.68262 25.1512 9.53349 25.0725 9.34326C24.9938 9.15303 24.9551 8.91114 24.9551 8.61523C24.9551 8.18898 25.0103 7.87663 25.1206 7.67818C25.231 7.48091 25.4107 7.32708 25.6573 7.22258C25.9039 7.11807 26.2033 7.07579 26.5521 7.10163C26.9337 7.13098 27.2578 7.22845 27.5255 7.38462C27.7932 7.5408 27.9694 7.7228 28.0563 7.92125C28.1432 8.1197 28.1866 8.44144 28.1866 8.88296V9.10372L28.1878 9.10606Z" fill="white"/>
<path d="M31.6411 8.35215V9.46651C31.3639 9.362 31.0845 9.26454 30.8038 9.17295V13.628C30.3306 13.4754 29.8539 13.3415 29.3736 13.2288V8.77371C29.0894 8.70678 28.8041 8.64572 28.5176 8.59287V7.47852C29.5767 7.67579 30.6218 7.967 31.6422 8.35215H31.6411Z" fill="white"/>
<path d="M32.6815 19.733C30.3993 18.5031 28.0543 18.6189 25.9123 19.5697C24.3162 17.7034 22.1422 16.5949 19.4277 16.9269C11.0635 17.9483 12.6706 35.1972 21.7936 38.3695C31.2961 38.6122 40.3541 23.866 32.6815 19.733Z" fill="#FF5E67" stroke="white" stroke-width="0.331675" stroke-miterlimit="10"/>
<path d="M32.3555 24.696C32.3555 24.696 31.6474 26.7124 34.3829 28.7287C34.3829 28.7287 31.1786 27.169 30.5234 27.9963" fill="#FF5E67"/>
<path d="M32.3564 24.696C32.1424 25.8818 32.7733 27.0267 33.5896 27.8396C33.8653 28.1143 34.1642 28.3669 34.4808 28.5974C34.6385 28.7143 34.4896 28.9614 34.3131 28.8754C33.7043 28.5952 33.0778 28.3294 32.4424 28.1132C31.9703 27.961 31.4806 27.7988 30.9798 27.8209C30.8177 27.8319 30.6489 27.8738 30.5254 27.9963C30.5717 27.9246 30.639 27.8628 30.7151 27.8187C31.6692 27.3664 33.5388 28.1573 34.4554 28.582L34.2878 28.8599C33.9624 28.6162 33.6491 28.3514 33.3734 28.0492C32.5527 27.1833 31.9439 25.8873 32.3575 24.696H32.3564Z" fill="white"/>
<path d="M38.2376 35.2568C38.5676 34.5827 38.1686 33.7099 37.3463 33.3072C36.524 32.9046 35.5898 33.1246 35.2597 33.7986C34.9297 34.4726 35.3287 35.3455 36.151 35.7481C36.9733 36.1508 37.9075 35.9308 38.2376 35.2568Z" fill="#FF5E67" stroke="white" stroke-width="0.331675" stroke-linejoin="round"/>
<path d="M29.6464 38.1064C29.8703 37.7186 29.6681 37.1828 29.1949 36.9096C28.7217 36.6364 28.1566 36.7292 27.9327 37.117C27.7088 37.5047 27.911 38.0406 28.3842 38.3138C28.8574 38.587 29.4225 38.4942 29.6464 38.1064Z" fill="#FF5E67" stroke="white" stroke-width="0.331675" stroke-linejoin="round"/>
<path d="M38.7269 29.0556C38.9169 28.6168 38.6364 28.0729 38.1004 27.8407C37.5643 27.6084 36.9756 27.7759 36.7856 28.2147C36.5955 28.6536 36.876 29.1975 37.4121 29.4297C37.9481 29.6619 38.5368 29.4944 38.7269 29.0556Z" fill="#FF5E67" stroke="white" stroke-width="0.331675" stroke-linejoin="round"/>
<path d="M31.5021 37.0684C31.6039 36.8605 31.4806 36.5911 31.2268 36.4668C30.9729 36.3425 30.6846 36.4103 30.5828 36.6182C30.481 36.8261 30.6042 37.0954 30.8581 37.2197C31.1119 37.344 31.4003 37.2763 31.5021 37.0684Z" fill="#FF5E67" stroke="white" stroke-width="0.331675" stroke-linejoin="round"/>
<path d="M31.4611 29.1746C31.4611 29.1746 32.7858 32.0788 34.7635 33.2127C34.7635 33.2127 30.1408 30.7133 30.4739 31.6795C30.6813 32.2807 32.274 33.3848 32.274 33.3848C32.274 33.3848 29.34 31.8075 28.5977 32.7914" fill="#FF5E67"/>
<path d="M31.4619 29.1745C32.1006 30.3172 32.8572 31.4158 33.8125 32.3136C34.129 32.6037 34.4688 32.8696 34.8416 33.0791C34.9155 33.121 34.9419 33.2159 34.9 33.2898C34.8581 33.3637 34.7644 33.3902 34.6905 33.3494C34.1511 33.0681 33.6062 32.789 33.0558 32.5265C32.5054 32.2673 31.9506 32.0081 31.3869 31.8007C31.141 31.7213 30.8509 31.5978 30.5994 31.6231C30.5939 31.6242 30.5939 31.6254 30.5994 31.622C30.6038 31.6187 30.6126 31.6077 30.6148 31.6C30.6589 31.7544 30.8288 31.9673 30.9689 32.1129C31.3825 32.5431 31.8656 32.9269 32.3455 33.2843C32.4701 33.3714 32.3532 33.5622 32.2186 33.4906C31.9362 33.3372 31.6417 33.1927 31.3461 33.0604C30.6137 32.7637 29.8151 32.3919 29.0099 32.5453C28.8544 32.5839 28.7055 32.6633 28.5996 32.7901C28.6923 32.6534 28.839 32.5563 28.9967 32.5011C29.9993 32.221 31.4222 32.8442 32.3333 33.2755L32.2065 33.4817C31.8546 33.2413 29.6309 31.7202 30.5012 31.3176C30.8619 31.2437 31.1674 31.3937 31.4961 31.493C32.084 31.7048 32.6433 31.9607 33.1981 32.2298C33.7507 32.5 34.2989 32.7769 34.8383 33.0736L34.6872 33.3439C33.165 32.3986 32.159 30.7804 31.4608 29.1711L31.4619 29.1745Z" fill="white"/>
<path d="M28.1053 32.1921C28.1053 32.1921 27.7049 33.2775 29.8801 35.2332C29.8801 35.2332 27.0155 33.4959 25.8066 35.2298" fill="#FF5E67"/>
<path d="M28.1053 32.1921C28.0414 33.0613 28.7837 33.8908 29.3385 34.4908C29.5481 34.7037 29.7632 34.9122 29.9882 35.1118C30.1338 35.2431 29.9628 35.4747 29.7951 35.3721C28.6248 34.7401 26.8523 34.022 25.8066 35.2287C26.6868 33.7474 28.7594 34.396 29.965 35.0931L29.772 35.3534C29.5448 35.1449 29.3231 34.9287 29.119 34.6949C28.5697 34.0606 27.8549 33.0723 28.1075 32.1921H28.1053Z" fill="white"/>
<path d="M14.1816 16.1099C14.1816 16.1099 15.3475 12.5041 15.2383 11.2478C15.2383 11.2478 15.406 15.5253 17.2127 14.2524C17.2127 14.2524 16.8112 17.1258 18.2021 15.8088C18.2021 15.8088 17.8448 18.252 19.1607 17.128L17.9595 20.3411" fill="#FFFDC2"/>
<path d="M14.1816 16.1099C14.1816 16.1099 15.3475 12.5041 15.2383 11.2478C15.2383 11.2478 15.406 15.5253 17.2127 14.2524C17.2127 14.2524 16.8112 17.1258 18.2021 15.8088C18.2021 15.8088 17.8448 18.252 19.1607 17.128L17.9595 20.3411" stroke="white" stroke-width="0.331675" stroke-miterlimit="10"/>
<path d="M13.8656 16.761C13.8656 16.761 10.1606 17.5552 8.92188 17.3191C8.92188 17.3191 13.1597 17.9192 11.7114 19.588C11.7114 19.588 14.6112 19.4799 13.1597 20.7307C13.1597 20.7307 15.626 20.6226 14.3752 21.8183L17.6931 20.9491" fill="#FFFDC2"/>
<path d="M13.8656 16.761C13.8656 16.761 10.1606 17.5552 8.92188 17.3191C8.92188 17.3191 13.1597 17.9192 11.7114 19.588C11.7114 19.588 14.6112 19.4799 13.1597 20.7307C13.1597 20.7307 15.626 20.6226 14.3752 21.8183L17.6931 20.9491" stroke="white" stroke-width="0.331675" stroke-miterlimit="10"/>
<path d="M24.2727 28.574C24.0929 28.5917 23.9076 28.5134 23.7785 28.3678L13.6727 16.8942C13.4631 16.657 13.4664 16.3129 13.6793 16.1254C13.8922 15.9379 14.233 15.9787 14.4426 16.2158L24.5484 27.6894C24.8485 28.0302 24.6918 28.5321 24.2727 28.5729V28.574Z" fill="#FFFDC2" stroke="white" stroke-width="0.331675" stroke-miterlimit="10"/>
<path d="M17.2136 14.2524L15.998 17.9828" stroke="white" stroke-width="0.331675" stroke-miterlimit="10"/>
<path d="M18.2038 15.8083L17.1504 19.2895" stroke="white" stroke-width="0.331675" stroke-miterlimit="10"/>
<path d="M11.7129 19.5878L15.4234 18.8796" stroke="white" stroke-width="0.331675" stroke-miterlimit="10"/>
<path d="M13.1602 20.7305L16.4703 20.0698" stroke="white" stroke-width="0.331675" stroke-miterlimit="10"/>
<path d="M25.8257 28.406H22.1758V31.0742H25.8257V28.406Z" fill="#FF5E67"/>
<path d="M20.4902 27.3366C20.4902 27.3366 22.3951 26.5347 22.7238 28.4594L20.4902 27.3366Z" fill="#FF5E67"/>
<path d="M20.4902 27.3369C21.4708 26.6376 22.8386 27.1549 22.7238 28.4598C22.6146 28.2293 22.5077 28.0131 22.3698 27.8333C21.933 27.2366 21.1653 27.2708 20.4913 27.3369H20.4902Z" fill="white"/>
<path d="M21.2324 30.0466C21.2324 30.0466 21.8435 27.213 24.3176 28.3844L21.2324 30.0466Z" fill="#FF5E67"/>
<path d="M21.2324 30.0463C21.3427 28.3918 22.8594 27.324 24.3176 28.384C22.6741 27.9086 21.9075 28.6013 21.2324 30.0463Z" fill="white"/>
<path d="M24.2205 30.274C24.2205 30.274 22.1214 24.9498 27.4688 24.1655L24.2205 30.274Z" fill="#FF5E67"/>
<path d="M24.2216 30.2739C23.3226 28.3911 23.4087 25.7449 25.4691 24.6827C26.0956 24.3551 26.7861 24.1952 27.47 24.1643C26.806 24.3309 26.1618 24.5581 25.5982 24.9055C23.733 26.0284 23.7396 28.3822 24.2216 30.2728V30.2739Z" fill="white"/>
<path d="M12.7457 28.4999C13.0413 30.7688 13.7505 33.02 15.1084 34.8808C15.2881 35.1533 15.5209 35.4026 15.715 35.6651C15.469 35.4511 15.1988 35.2305 14.9826 34.9834L14.6484 34.6073C14.5017 34.4165 14.3462 34.1937 14.2028 33.9973C14.0792 33.7855 13.9347 33.5594 13.8189 33.3454C13.7439 33.1855 13.5542 32.8237 13.4946 32.6627C12.9464 31.3578 12.6453 29.9162 12.7457 28.4988V28.4999Z" fill="white"/>
<path d="M12.129 31.3452C12.5944 33.0097 13.3787 34.5395 14.4651 35.883C13.0544 34.8947 12.1212 33.067 12.129 31.3452Z" fill="white"/>
<path d="M37.2827 21.0512C36.9022 19.7916 36.1631 18.7007 35.0392 18.0036C34.8836 17.8944 34.7116 17.8172 34.5527 17.708C34.7391 17.7499 34.9333 17.7874 35.112 17.858C36.3992 18.3279 37.3345 19.6769 37.2827 21.0501V21.0512Z" fill="white"/>
<path d="M36.5974 21.7005C36.604 21.47 36.4805 21.2516 36.3923 21.0431C36.1959 20.6273 35.95 20.2357 35.6599 19.8805C34.9407 18.9672 33.9204 18.3793 32.7832 18.1334C34.2568 18.033 35.6588 19.0036 36.2842 20.3118C36.443 20.6372 36.5677 20.9824 36.6162 21.342C36.6261 21.46 36.6493 21.5902 36.5974 21.7005Z" fill="white"/>
<path d="M64.8984 19.75C64.8984 20.5677 64.888 21.276 64.8672 21.875C64.8516 22.4688 64.8073 23.1589 64.7344 23.9453C64.6615 24.7318 64.5443 25.5885 64.3828 26.5156L62.8672 26.375C63.0391 25.5052 63.1667 24.6849 63.25 23.9141C63.3333 23.1432 63.3828 22.4583 63.3984 21.8594C63.4193 21.2604 63.4297 20.5573 63.4297 19.75V19.4688H55.1797V18.25H64.8984V19.75ZM53.8047 27.6094H66.5703V28.8438H53.8047V27.6094ZM80.6328 20.0625H78.6328V21.8125H80.6328V23.0625H78.6328V25.1094H77.1484V16.8281H78.6328V18.8438H80.6328V20.0625ZM68.2734 17.6562H69.7578V22.75C71.8776 22.7344 73.888 22.5365 75.7891 22.1562L75.9766 23.3594C74.8516 23.5833 73.75 23.7448 72.6719 23.8438C71.599 23.9375 70.513 23.9844 69.4141 23.9844H68.2734V17.6562ZM69.3984 28.0469C69.3984 27.4896 69.5911 27.0026 69.9766 26.5859C70.362 26.1641 70.9089 25.8411 71.6172 25.6172C72.3255 25.3932 73.1536 25.2812 74.1016 25.2812C75.0391 25.2812 75.8594 25.3932 76.5625 25.6172C77.2656 25.8411 77.8073 26.1641 78.1875 26.5859C78.5677 27.0026 78.7578 27.4896 78.7578 28.0469C78.7578 28.6198 78.5677 29.1146 78.1875 29.5312C77.8073 29.9479 77.2656 30.2682 76.5625 30.4922C75.8646 30.7161 75.0443 30.8281 74.1016 30.8281C73.1536 30.8281 72.3255 30.7161 71.6172 30.4922C70.9089 30.2682 70.362 29.9479 69.9766 29.5312C69.5911 29.1146 69.3984 28.6198 69.3984 28.0469ZM70.8516 28.0469C70.8516 28.3698 70.9818 28.651 71.2422 28.8906C71.5026 29.1302 71.8776 29.3151 72.3672 29.4453C72.8568 29.5703 73.4349 29.6354 74.1016 29.6406C74.7526 29.6354 75.3177 29.5703 75.7969 29.4453C76.2812 29.3151 76.6536 29.1302 76.9141 28.8906C77.1745 28.651 77.3047 28.3698 77.3047 28.0469C77.3047 27.7188 77.1745 27.4401 76.9141 27.2109C76.6536 26.9766 76.2812 26.7995 75.7969 26.6797C75.3177 26.5547 74.7526 26.4896 74.1016 26.4844C73.4297 26.4896 72.849 26.5547 72.3594 26.6797C71.875 26.7995 71.5026 26.9766 71.2422 27.2109C70.9818 27.4401 70.8516 27.7188 70.8516 28.0469ZM98.1641 23.1094H85.3672V21.9062H89.125C89.3073 21.2396 89.4349 20.638 89.5078 20.1016C89.5807 19.5599 89.625 19.0417 89.6406 18.5469H86.4766V17.3281H91.1016V17.9531C91.1016 18.5833 91.0729 19.2057 91.0156 19.8203C90.9635 20.4297 90.8359 21.125 90.6328 21.9062H94.6406C94.9427 20.7656 95.1042 19.6458 95.125 18.5469H92.0078V17.3281H96.5703V17.9219C96.5651 18.5781 96.5365 19.2083 96.4844 19.8125C96.4375 20.4167 96.3229 21.1146 96.1406 21.9062H98.1641V23.1094ZM86.8672 24.4062H96.5391V28H88.3828V29.4688H96.9766V30.6406H86.8984V26.8906H95.0547V25.5781H86.8672V24.4062ZM110.852 30.8594H109.383V25H106.648V23.7656H109.383V21.1719H106.727V19.9531H109.383V16.8281H110.852V30.8594ZM99.6797 18.0625H105.883V23.1719H101.195V26.3906C102.227 26.3854 103.185 26.3542 104.07 26.2969C104.956 26.2396 105.878 26.1406 106.836 26L106.961 27.2188C105.94 27.3802 104.958 27.4896 104.016 27.5469C103.078 27.599 101.997 27.625 100.773 27.625H99.7109V22H104.43V19.2656H99.6797V18.0625ZM125.836 29.0781H113.023V27.8438H116.086V24.1875C115.497 23.8646 115.042 23.4557 114.719 22.9609C114.396 22.4661 114.237 21.9115 114.242 21.2969C114.242 20.5729 114.461 19.9349 114.898 19.3828C115.336 18.8307 115.945 18.4036 116.727 18.1016C117.513 17.7943 118.404 17.6406 119.398 17.6406C120.393 17.6406 121.284 17.7943 122.07 18.1016C122.857 18.4036 123.469 18.8307 123.906 19.3828C124.349 19.9349 124.57 20.5729 124.57 21.2969C124.57 21.9062 124.414 22.4557 124.102 22.9453C123.789 23.4297 123.346 23.8333 122.773 24.1562V27.8438H125.836V29.0781ZM115.68 21.2969C115.68 21.7917 115.836 22.2266 116.148 22.6016C116.461 22.9766 116.898 23.2682 117.461 23.4766C118.023 23.6797 118.669 23.7812 119.398 23.7812C120.122 23.7812 120.766 23.6771 121.328 23.4688C121.896 23.2604 122.339 22.9714 122.656 22.6016C122.974 22.2266 123.133 21.7917 123.133 21.2969C123.133 20.8021 122.974 20.3698 122.656 20C122.339 19.625 121.896 19.3359 121.328 19.1328C120.766 18.9297 120.122 18.8281 119.398 18.8281C118.669 18.8281 118.023 18.9297 117.461 19.1328C116.898 19.3359 116.461 19.625 116.148 20C115.836 20.3698 115.68 20.8021 115.68 21.2969ZM121.273 27.8438V24.7344C120.69 24.8698 120.065 24.9375 119.398 24.9375C118.742 24.9375 118.128 24.8698 117.555 24.7344V27.8438H121.273ZM129.289 26.2344H127.742L127.602 18.1875H129.43L129.289 26.2344ZM127.414 28.5156C127.414 28.3125 127.464 28.125 127.562 27.9531C127.661 27.7812 127.794 27.6458 127.961 27.5469C128.133 27.4427 128.32 27.3906 128.523 27.3906C128.721 27.3906 128.904 27.4401 129.07 27.5391C129.242 27.638 129.378 27.7734 129.477 27.9453C129.581 28.1172 129.633 28.3021 129.633 28.5C129.633 28.6979 129.581 28.8828 129.477 29.0547C129.378 29.2214 129.242 29.3568 129.07 29.4609C128.904 29.5599 128.721 29.6094 128.523 29.6094C128.326 29.6094 128.141 29.5599 127.969 29.4609C127.802 29.362 127.667 29.2292 127.562 29.0625C127.464 28.8958 127.414 28.7135 127.414 28.5156Z" fill="white"/>
</svg>
