<svg width="157" height="48" viewBox="0 0 157 48" fill="none" xmlns="http://www.w3.org/2000/svg">
<rect width="157" height="48" rx="24" fill="#FF5D5D"/>
<path d="M25 43C35.4934 43 44 34.4934 44 24C44 13.5066 35.4934 5 25 5C14.5066 5 6 13.5066 6 24C6 34.4934 14.5066 43 25 43Z" fill="white" stroke="#FF5D5D" stroke-width="0.541667" stroke-miterlimit="10"/>
<path d="M32.7859 19.581C30.4836 18.3403 28.1179 18.4571 25.957 19.4163C24.3469 17.5335 22.1537 16.4152 19.4152 16.7502C10.9773 17.7806 12.5986 35.1815 21.802 38.3818C31.3883 38.6266 40.5261 23.7504 32.7859 19.581V19.581Z" fill="#FF5D5D" stroke="white" stroke-width="0.335648" stroke-miterlimit="10"/>
<path d="M32.4557 24.5868C32.4557 24.5868 31.7413 26.6209 34.5009 28.655C34.5009 28.655 31.2684 27.0815 30.6074 27.9161" fill="#FF5D5D"/>
<path d="M32.4546 24.5868C32.2387 25.783 32.8752 26.938 33.6986 27.7581C33.9768 28.0352 34.2783 28.29 34.5977 28.5225C34.7568 28.6405 34.6066 28.8898 34.4285 28.803C33.8143 28.5203 33.1823 28.2521 32.5413 28.0341C32.0651 27.8805 31.571 27.7169 31.0659 27.7392C30.9023 27.7503 30.732 27.7926 30.6074 27.9161C30.6542 27.8438 30.722 27.7815 30.7988 27.737C31.7613 27.2807 33.6474 28.0786 34.5721 28.507L34.403 28.7874C34.0747 28.5415 33.7587 28.2744 33.4805 27.9695C32.6526 27.096 32.0384 25.7885 32.4557 24.5868H32.4546Z" fill="white"/>
<path d="M38.3745 35.2307C38.7075 34.5507 38.3049 33.6702 37.4754 33.264C36.6458 32.8577 35.7034 33.0797 35.3705 33.7596C35.0375 34.4396 35.4401 35.3201 36.2696 35.7264C37.0992 36.1326 38.0416 35.9106 38.3745 35.2307Z" fill="#FF5D5D" stroke="white" stroke-width="0.335648" stroke-linejoin="round"/>
<path d="M29.7237 38.1143C29.9495 37.7231 29.7456 37.1826 29.2682 36.9069C28.7908 36.6313 28.2207 36.725 27.9949 37.1162C27.769 37.5074 27.9729 38.0479 28.4503 38.3235C28.9277 38.5991 29.4978 38.5055 29.7237 38.1143Z" fill="#FF5D5D" stroke="white" stroke-width="0.335648" stroke-linejoin="round"/>
<path d="M38.9013 28.9983C39.093 28.5556 38.8101 28.0069 38.2693 27.7726C37.7285 27.5384 37.1346 27.7073 36.9429 28.15C36.7511 28.5927 37.0341 29.1414 37.5749 29.3757C38.1157 29.6099 38.7095 29.441 38.9013 28.9983Z" fill="#FF5D5D" stroke="white" stroke-width="0.335648" stroke-linejoin="round"/>
<path d="M31.5802 37.0567C31.6829 36.8469 31.5585 36.5752 31.3024 36.4498C31.0463 36.3244 30.7555 36.3928 30.6528 36.6025C30.5501 36.8123 30.6744 37.084 30.9305 37.2094C31.1866 37.3348 31.4775 37.2664 31.5802 37.0567Z" fill="#FF5D5D" stroke="white" stroke-width="0.335648" stroke-linejoin="round"/>
<path d="M31.5547 29.1041C31.5547 29.1041 32.8911 32.034 34.8862 33.1779C34.8862 33.1779 30.2227 30.6564 30.5588 31.6312C30.768 32.2376 32.3748 33.3514 32.3748 33.3514C32.3748 33.3514 29.4149 31.7602 28.666 32.7528" fill="#FF5D5D"/>
<path d="M31.5536 29.1047C32.1979 30.2574 32.9612 31.3657 33.9248 32.2715C34.2442 32.5642 34.5869 32.8323 34.963 33.0437C35.0376 33.086 35.0643 33.1817 35.022 33.2563C34.9797 33.3308 34.8851 33.3575 34.8106 33.3164C34.2664 33.0326 33.7167 32.7511 33.1615 32.4863C32.6062 32.2248 32.0465 31.9633 31.4779 31.7541C31.2298 31.674 30.9371 31.5493 30.6834 31.5749C30.6779 31.576 30.6779 31.5772 30.6834 31.5738C30.6879 31.5705 30.6968 31.5594 30.699 31.5516C30.7435 31.7073 30.9149 31.9221 31.0562 32.069C31.4735 32.503 31.9608 32.8902 32.4449 33.2507C32.5706 33.3386 32.4527 33.5311 32.3169 33.4588C32.0321 33.3041 31.735 33.1584 31.4367 33.0248C30.6979 32.7255 29.8922 32.3505 29.08 32.5052C28.9231 32.5441 28.7728 32.6242 28.666 32.7522C28.7595 32.6142 28.9075 32.5163 29.0666 32.4607C30.0781 32.178 31.5135 32.8067 32.4326 33.2418L32.3047 33.4499C31.9497 33.2073 29.7064 31.6729 30.5844 31.2667C30.9482 31.1921 31.2565 31.3435 31.5881 31.4436C32.1812 31.6573 32.7453 31.9154 33.305 32.1869C33.8625 32.4596 34.4155 32.7389 34.9597 33.0382L34.8072 33.3108C33.2717 32.3572 32.2568 30.7248 31.5525 29.1013L31.5536 29.1047Z" fill="white"/>
<path d="M28.1685 32.1481C28.1685 32.1481 27.7646 33.243 29.9589 35.2159C29.9589 35.2159 27.0692 33.4633 25.8496 35.2126" fill="#FF5D5D"/>
<path d="M28.1685 32.1481C28.0906 33.2463 29.3169 34.3991 30.068 35.0935C30.2126 35.2226 30.048 35.454 29.8788 35.3594C29.565 35.1836 29.2257 35.0178 28.8829 34.8887C27.9015 34.5004 26.604 34.289 25.8496 35.2114C26.7376 33.717 28.8284 34.3713 30.0446 35.0746L29.8499 35.3372C29.6207 35.1269 29.397 34.9088 29.1912 34.6729C28.637 34.033 27.9159 33.036 28.1708 32.1481H28.1685Z" fill="white"/>
<path d="M14.123 15.924C14.123 15.924 15.2992 12.2865 15.1891 11.019C15.1891 11.019 15.3582 15.3342 17.1808 14.0501C17.1808 14.0501 16.7758 16.9488 18.179 15.6202C18.179 15.6202 17.8185 18.0849 19.146 16.951L17.9342 20.1924" fill="#FF5D5D"/>
<path d="M14.123 15.924C14.123 15.924 15.2992 12.2865 15.1891 11.019C15.1891 11.019 15.3582 15.3342 17.1808 14.0501C17.1808 14.0501 16.7758 16.9488 18.179 15.6202C18.179 15.6202 17.8185 18.0849 19.146 16.951L17.9342 20.1924" stroke="white" stroke-width="0.335648" stroke-miterlimit="10"/>
<path d="M13.8037 16.5826C13.8037 16.5826 10.066 17.3838 8.81641 17.1457C8.81641 17.1457 13.0915 17.751 11.6305 19.4346C11.6305 19.4346 14.5559 19.3255 13.0915 20.5874C13.0915 20.5874 15.5796 20.4783 14.3178 21.6845L17.6649 20.8077" fill="#FF5D5D"/>
<path d="M13.8037 16.5826C13.8037 16.5826 10.066 17.3838 8.81641 17.1457C8.81641 17.1457 13.0915 17.751 11.6305 19.4346C11.6305 19.4346 14.5559 19.3255 13.0915 20.5874C13.0915 20.5874 15.5796 20.4783 14.3178 21.6845L17.6649 20.8077" stroke="white" stroke-width="0.335648" stroke-miterlimit="10"/>
<path d="M24.305 28.4996C24.1236 28.5174 23.9367 28.4384 23.8065 28.2915L13.6116 16.7168C13.4002 16.4776 13.4035 16.1304 13.6182 15.9412C13.833 15.7521 14.1769 15.7932 14.3883 16.0325L24.5832 27.6072C24.8858 27.951 24.7278 28.4573 24.305 28.4985V28.4996Z" fill="#FF5D5D" stroke="white" stroke-width="0.335648" stroke-miterlimit="10"/>
<path d="M17.1783 14.0516L15.9531 17.8149" stroke="white" stroke-width="0.335648" stroke-miterlimit="10"/>
<path d="M18.1798 15.6216L17.1172 19.1323" stroke="white" stroke-width="0.335648" stroke-miterlimit="10"/>
<path d="M11.6328 19.4341L15.3749 18.7197" stroke="white" stroke-width="0.335648" stroke-miterlimit="10"/>
<path d="M13.0918 20.5862L16.43 19.9197" stroke="white" stroke-width="0.335648" stroke-miterlimit="10"/>
<path d="M25.8696 28.3297H22.1875V31.0214H25.8696V28.3297Z" fill="#FF5D5D"/>
<path d="M20.4883 27.2521C20.4883 27.2521 22.41 26.4431 22.7416 28.3848Z" fill="#FF5D5D"/>
<path d="M20.4883 27.2519C21.4775 26.5464 22.8573 27.0683 22.7416 28.3847C22.6314 28.1521 22.5235 27.934 22.3844 27.7527C21.9437 27.1507 21.1693 27.1852 20.4894 27.2519H20.4883Z" fill="white"/>
<path d="M21.2344 29.9832C21.2344 29.9832 21.8509 27.1246 24.3467 28.3063Z" fill="#FF5D5D"/>
<path d="M21.2344 29.9836C21.3456 28.3145 22.8757 27.2374 24.3467 28.3067C22.6887 27.8271 21.9154 28.5259 21.2344 29.9836Z" fill="white"/>
<path d="M24.2514 30.2146C24.2514 30.2146 22.1338 24.8434 27.5284 24.0522Z" fill="#FF5D5D"/>
<path d="M24.2499 30.2147C23.343 28.3153 23.4298 25.6458 25.5073 24.5743C26.1393 24.2438 26.8359 24.0824 27.5258 24.0513C26.8559 24.2193 26.2061 24.4485 25.6375 24.799C23.7558 25.9318 23.7625 28.3064 24.2488 30.2136L24.2499 30.2147Z" fill="white"/>
<path d="M20.7137 7.55446V11.0818C20.7137 11.6104 20.7082 11.9509 20.6971 12.1044C20.6859 12.258 20.637 12.4071 20.5491 12.5518C20.4611 12.6964 20.3432 12.8133 20.1941 12.9023C20.045 12.9924 19.8213 13.0814 19.5242 13.1793C19.3006 13.2539 19.078 13.3329 18.8555 13.4164V12.4939C18.9356 12.4705 18.9935 12.4527 19.0291 12.4394C19.1236 12.4049 19.1993 12.3548 19.2538 12.2869C19.3084 12.2202 19.3406 12.1501 19.3495 12.0777C19.3573 12.0054 19.3618 11.8685 19.3618 11.6694V7.95616C19.808 7.80371 20.2586 7.66907 20.7126 7.55334L20.7137 7.55446Z" fill="#FF5D5D"/>
<path d="M24.3945 7.0282V10.5556C24.3945 10.9551 24.3812 11.2366 24.3545 11.4001C24.3278 11.5626 24.2499 11.7317 24.1197 11.9098C23.9895 12.0867 23.8181 12.2269 23.6056 12.3315C23.3931 12.4361 23.1427 12.5051 22.8545 12.5407C22.5363 12.5808 22.2559 12.5719 22.0133 12.5095C21.7707 12.4472 21.5904 12.3482 21.4702 12.2058C21.3501 12.0633 21.28 11.902 21.2588 11.7217C21.2366 11.5403 21.2266 11.152 21.2266 10.5567V7.43324C21.6828 7.33198 22.1435 7.24852 22.6041 7.18398V11.142C22.6041 11.3723 22.6164 11.5181 22.642 11.5782C22.6676 11.6394 22.7188 11.6639 22.7955 11.6539C22.8834 11.6427 22.9402 11.6004 22.9647 11.527C22.9903 11.4536 23.0025 11.2855 23.0025 11.0218V7.1328C23.4654 7.07938 23.9294 7.04378 24.3945 7.0282V7.0282Z" fill="#FF5D5D"/>
<path d="M27.8778 8.85371C27.4505 8.7825 27.021 8.72686 26.5904 8.6868V8.29512C26.5904 8.11263 26.5737 7.99468 26.5403 7.94238C26.5069 7.88897 26.4524 7.86004 26.3745 7.85336C26.2911 7.84669 26.2276 7.87562 26.1842 7.94016C26.1408 8.0047 26.1197 8.10595 26.1197 8.24282C26.1197 8.41863 26.1442 8.55327 26.192 8.64563C26.2376 8.73799 26.3701 8.85482 26.5848 8.99948C27.2035 9.4201 27.5918 9.78174 27.751 10.0388C27.9101 10.2969 27.9902 10.6864 27.9902 11.2038C27.9902 11.5799 27.9457 11.8492 27.8578 12.0128C27.7688 12.1763 27.5985 12.2976 27.3437 12.3833C27.0889 12.469 26.7918 12.4946 26.4535 12.4668C26.0807 12.4356 25.7625 12.351 25.4988 12.2042C25.2351 12.0573 25.0615 11.8804 24.9803 11.6656C24.899 11.4508 24.8578 11.146 24.8578 10.7498V10.4038C25.2896 10.4004 25.7213 10.4127 26.1531 10.4416V11.0836C26.1531 11.2817 26.1709 11.4097 26.2076 11.4686C26.2443 11.5276 26.3089 11.561 26.4012 11.5677C26.4936 11.5755 26.5626 11.5454 26.6082 11.4776C26.6538 11.4097 26.6761 11.3062 26.6761 11.1649C26.6761 10.8544 26.6327 10.6463 26.547 10.5428C26.4591 10.4394 26.2421 10.2602 25.8949 10.0176C25.5489 9.77395 25.3185 9.60704 25.2061 9.50355C25.0938 9.40007 25.0003 9.25875 24.9257 9.07849C24.8512 8.89822 24.8145 8.669 24.8145 8.38859C24.8145 7.98466 24.8667 7.68868 24.9713 7.50063C25.0759 7.31369 25.2462 7.16792 25.4799 7.06888C25.7135 6.96985 25.9973 6.92979 26.3278 6.95427C26.6894 6.98209 26.9965 7.07445 27.2502 7.22244C27.5039 7.37044 27.6708 7.54291 27.7532 7.73096C27.8355 7.91902 27.8767 8.22391 27.8767 8.6423V8.85149L27.8778 8.85371Z" fill="#FF5D5D"/>
<path d="M31.1513 8.13867V9.19466C30.8887 9.09562 30.6238 9.00326 30.3579 8.91647V13.1382C29.9095 12.9935 29.4577 12.8667 29.0026 12.7599V8.53814C28.7333 8.47471 28.4629 8.41685 28.1914 8.36678V7.31079C29.1951 7.49773 30.1854 7.77369 31.1524 8.13867H31.1513Z" fill="#FF5D5D"/>
<path d="M12.4685 28.556C12.7667 30.8449 13.4822 33.116 14.852 34.9932C15.0334 35.2681 15.2682 35.5196 15.464 35.7844C15.2159 35.5685 14.9433 35.346 14.7252 35.0967L14.388 34.7173C14.24 34.5248 14.0831 34.3 13.9384 34.1019C13.8138 33.8883 13.668 33.6602 13.5512 33.4443C13.4755 33.283 13.2842 32.918 13.2241 32.7555C12.671 31.4391 12.3673 29.9848 12.4685 28.5549V28.556Z" fill="#FF5D5D"/>
<path d="M11.8458 31.4247C12.3153 33.1038 13.1065 34.6472 14.2025 36.0025C12.7794 35.0055 11.838 33.1617 11.8458 31.4247Z" fill="#FF5D5D"/>
<path d="M37.2228 21.0393C36.8389 19.7686 36.0934 18.6681 34.9595 17.9648C34.8026 17.8547 34.629 17.7768 34.4688 17.6666C34.6568 17.7089 34.8527 17.7467 35.0329 17.818C36.3315 18.292 37.2751 19.6529 37.2228 21.0382V21.0393Z" fill="#FF5D5D"/>
<path d="M36.5295 21.6969C36.5362 21.4643 36.4116 21.244 36.3225 21.0337C36.1245 20.6142 35.8763 20.2191 35.5837 19.8608C34.8582 18.9395 33.8289 18.3464 32.6816 18.0983C34.1683 17.997 35.5825 18.9762 36.2135 20.2959C36.3737 20.6242 36.4994 20.9725 36.5484 21.3352C36.5584 21.4543 36.5818 21.5856 36.5295 21.6969Z" fill="#FF5D5D"/>
<path d="M64.8984 19.75C64.8984 20.5677 64.888 21.276 64.8672 21.875C64.8516 22.4688 64.8073 23.1589 64.7344 23.9453C64.6615 24.7318 64.5443 25.5885 64.3828 26.5156L62.8672 26.375C63.0391 25.5052 63.1667 24.6849 63.25 23.9141C63.3333 23.1432 63.3828 22.4583 63.3984 21.8594C63.4193 21.2604 63.4297 20.5573 63.4297 19.75V19.4688H55.1797V18.25H64.8984V19.75ZM53.8047 27.6094H66.5703V28.8438H53.8047V27.6094ZM80.6328 20.0625H78.6328V21.8125H80.6328V23.0625H78.6328V25.1094H77.1484V16.8281H78.6328V18.8438H80.6328V20.0625ZM68.2734 17.6562H69.7578V22.75C71.8776 22.7344 73.888 22.5365 75.7891 22.1562L75.9766 23.3594C74.8516 23.5833 73.75 23.7448 72.6719 23.8438C71.599 23.9375 70.513 23.9844 69.4141 23.9844H68.2734V17.6562ZM69.3984 28.0469C69.3984 27.4896 69.5911 27.0026 69.9766 26.5859C70.362 26.1641 70.9089 25.8411 71.6172 25.6172C72.3255 25.3932 73.1536 25.2812 74.1016 25.2812C75.0391 25.2812 75.8594 25.3932 76.5625 25.6172C77.2656 25.8411 77.8073 26.1641 78.1875 26.5859C78.5677 27.0026 78.7578 27.4896 78.7578 28.0469C78.7578 28.6198 78.5677 29.1146 78.1875 29.5312C77.8073 29.9479 77.2656 30.2682 76.5625 30.4922C75.8646 30.7161 75.0443 30.8281 74.1016 30.8281C73.1536 30.8281 72.3255 30.7161 71.6172 30.4922C70.9089 30.2682 70.362 29.9479 69.9766 29.5312C69.5911 29.1146 69.3984 28.6198 69.3984 28.0469ZM70.8516 28.0469C70.8516 28.3698 70.9818 28.651 71.2422 28.8906C71.5026 29.1302 71.8776 29.3151 72.3672 29.4453C72.8568 29.5703 73.4349 29.6354 74.1016 29.6406C74.7526 29.6354 75.3177 29.5703 75.7969 29.4453C76.2812 29.3151 76.6536 29.1302 76.9141 28.8906C77.1745 28.651 77.3047 28.3698 77.3047 28.0469C77.3047 27.7188 77.1745 27.4401 76.9141 27.2109C76.6536 26.9766 76.2812 26.7995 75.7969 26.6797C75.3177 26.5547 74.7526 26.4896 74.1016 26.4844C73.4297 26.4896 72.849 26.5547 72.3594 26.6797C71.875 26.7995 71.5026 26.9766 71.2422 27.2109C70.9818 27.4401 70.8516 27.7188 70.8516 28.0469ZM98.1641 23.1094H85.3672V21.9062H89.125C89.3073 21.2396 89.4349 20.638 89.5078 20.1016C89.5807 19.5599 89.625 19.0417 89.6406 18.5469H86.4766V17.3281H91.1016V17.9531C91.1016 18.5833 91.0729 19.2057 91.0156 19.8203C90.9635 20.4297 90.8359 21.125 90.6328 21.9062H94.6406C94.9427 20.7656 95.1042 19.6458 95.125 18.5469H92.0078V17.3281H96.5703V17.9219C96.5651 18.5781 96.5365 19.2083 96.4844 19.8125C96.4375 20.4167 96.3229 21.1146 96.1406 21.9062H98.1641V23.1094ZM86.8672 24.4062H96.5391V28H88.3828V29.4688H96.9766V30.6406H86.8984V26.8906H95.0547V25.5781H86.8672V24.4062ZM110.852 30.8594H109.383V25H106.648V23.7656H109.383V21.1719H106.727V19.9531H109.383V16.8281H110.852V30.8594ZM99.6797 18.0625H105.883V23.1719H101.195V26.3906C102.227 26.3854 103.185 26.3542 104.07 26.2969C104.956 26.2396 105.878 26.1406 106.836 26L106.961 27.2188C105.94 27.3802 104.958 27.4896 104.016 27.5469C103.078 27.599 101.997 27.625 100.773 27.625H99.7109V22H104.43V19.2656H99.6797V18.0625ZM125.836 29.0781H113.023V27.8438H116.086V24.1875C115.497 23.8646 115.042 23.4557 114.719 22.9609C114.396 22.4661 114.237 21.9115 114.242 21.2969C114.242 20.5729 114.461 19.9349 114.898 19.3828C115.336 18.8307 115.945 18.4036 116.727 18.1016C117.513 17.7943 118.404 17.6406 119.398 17.6406C120.393 17.6406 121.284 17.7943 122.07 18.1016C122.857 18.4036 123.469 18.8307 123.906 19.3828C124.349 19.9349 124.57 20.5729 124.57 21.2969C124.57 21.9062 124.414 22.4557 124.102 22.9453C123.789 23.4297 123.346 23.8333 122.773 24.1562V27.8438H125.836V29.0781ZM115.68 21.2969C115.68 21.7917 115.836 22.2266 116.148 22.6016C116.461 22.9766 116.898 23.2682 117.461 23.4766C118.023 23.6797 118.669 23.7812 119.398 23.7812C120.122 23.7812 120.766 23.6771 121.328 23.4688C121.896 23.2604 122.339 22.9714 122.656 22.6016C122.974 22.2266 123.133 21.7917 123.133 21.2969C123.133 20.8021 122.974 20.3698 122.656 20C122.339 19.625 121.896 19.3359 121.328 19.1328C120.766 18.9297 120.122 18.8281 119.398 18.8281C118.669 18.8281 118.023 18.9297 117.461 19.1328C116.898 19.3359 116.461 19.625 116.148 20C115.836 20.3698 115.68 20.8021 115.68 21.2969ZM121.273 27.8438V24.7344C120.69 24.8698 120.065 24.9375 119.398 24.9375C118.742 24.9375 118.128 24.8698 117.555 24.7344V27.8438H121.273ZM129.289 26.2344H127.742L127.602 18.1875H129.43L129.289 26.2344ZM127.414 28.5156C127.414 28.3125 127.464 28.125 127.562 27.9531C127.661 27.7812 127.794 27.6458 127.961 27.5469C128.133 27.4427 128.32 27.3906 128.523 27.3906C128.721 27.3906 128.904 27.4401 129.07 27.5391C129.242 27.638 129.378 27.7734 129.477 27.9453C129.581 28.1172 129.633 28.3021 129.633 28.5C129.633 28.6979 129.581 28.8828 129.477 29.0547C129.378 29.2214 129.242 29.3568 129.07 29.4609C128.904 29.5599 128.721 29.6094 128.523 29.6094C128.326 29.6094 128.141 29.5599 127.969 29.4609C127.802 29.362 127.667 29.2292 127.562 29.0625C127.464 28.8958 127.414 28.7135 127.414 28.5156Z" fill="white"/>
</svg>
