<svg width="148" height="119" viewBox="0 0 148 119" fill="none" xmlns="http://www.w3.org/2000/svg">
<path d="M91.1704 111.4C106.174 117.007 117.376 88.0503 104.524 84.1393C89.5389 79.5797 79.1891 106.919 91.1704 111.4Z" fill="#FF5D5D" stroke="white" stroke-width="2.25545" stroke-miterlimit="10"/>
<path d="M110.541 37.4132C114.555 29.7555 118.191 26.2201 121.784 22.7281C122.83 21.7111 123.872 20.6978 124.919 19.5875L125.126 19.3672L125.196 19.0727C126.394 13.9914 129.423 10.6386 132.737 8.778C136.101 6.889 139.64 6.59364 141.823 7.43561L141.824 7.43598C143.568 8.10622 145.275 9.42267 146.19 12.0967C147.125 14.8319 147.269 19.1012 145.537 25.7207L145.537 25.7209C143.685 32.7999 138.712 37.2619 136.291 39.3354L135.997 39.5875L135.92 39.9671C134.859 45.1856 132.327 53.771 125.637 62.7934L125.029 63.6139C122.411 67.0924 119.267 70.9327 115.998 73.8763C114.234 75.4641 112.468 76.7595 110.761 77.5998C109.054 78.4404 107.471 78.7937 106.035 78.6003C104.869 78.4432 103.973 77.9942 103.273 77.321C102.563 76.6371 102.003 75.6708 101.612 74.4117C100.823 71.8682 100.781 68.3245 101.376 64.1735C102.561 55.9007 106.202 45.6913 110.541 37.4132ZM110.541 37.4132L109.542 36.8897M110.541 37.4132L109.542 36.8897M109.542 36.8897C113.646 29.0599 117.425 25.3875 121.037 21.8784C122.07 20.8747 123.089 19.8843 124.098 18.8139L109.542 36.8897Z" fill="#FF5D5D" stroke="white" stroke-width="2.25545" stroke-miterlimit="10"/>
<path d="M82.9602 64.4498L82.9603 64.4499C86.6047 65.6126 89.5772 63.0897 90.8633 60.4968C91.52 59.1729 91.8491 57.6471 91.5806 56.279C91.2971 54.8341 90.3436 53.6218 88.6521 53.1837L88.6519 53.1837C85.0561 52.2528 82.1913 54.6714 80.9368 57.2162C80.2995 58.509 79.9852 59.9889 80.2313 61.3275C80.4888 62.7276 81.3674 63.9415 82.9602 64.4498Z" fill="#FF5D5D" stroke="white" stroke-width="2.25545" stroke-miterlimit="10" stroke-linecap="round"/>
<path d="M3.89218 99.4542C-0.429212 116.833 12.0714 117.415 16.6967 114.52C23.9977 109.952 24.5488 100.201 23.3848 100.201C21.461 100.201 13.1402 116.053 26.9568 116.841C40.7785 117.628 43.1349 100.358 41.7108 100.358C39.7741 100.358 29.1715 118.629 46.7301 116.753C63.3229 114.982 60.3432 87.3166 60.3432 87.3166C69.1019 77.1682 65.7591 66.088 58.2752 66.088C45.6253 66.088 35.7772 82.73 38.198 82.8199C42.2361 82.9713 44.7677 65.4079 34.9608 65.4079C23.238 65.4079 6.88727 87.4064 3.8896 99.4516L3.89218 99.4542Z" fill="#FF5D5D" stroke="white" stroke-width="2.25545" stroke-miterlimit="10" stroke-linecap="round"/>
<path d="M54.1092 11.8349C53.3922 10.1003 51.5132 7.3653 48.0372 5.31528C46.089 4.1646 41.9182 2.42504 35.8437 3.24801C31.0474 3.8985 27.512 5.73415 25.1732 7.34806C25.052 6.29348 24.1521 3.83936 21.7787 3.83936C17.6969 3.83936 13.1033 9.67897 9.65941 16.0976C2.13615 30.1275 1.69113 44.5343 2.10895 50.3764C3.00393 62.8539 8.61114 67.772 12.3715 67.772C18.1444 67.772 20.2187 61.7057 20.8639 57.4923C21.3881 54.0699 21.2743 49.551 20.5153 46.4143C23.089 46.6804 28.088 46.8357 32.7459 45.4928C39.6387 43.5044 44.032 39.4906 46.0123 37.4208C54.0548 29.6741 57.3108 19.5841 54.1116 11.8349H54.1092ZM32.2341 25.6726C28.9187 28.3756 25.7468 29.9796 25.1509 29.2552C24.5551 28.5308 26.7604 25.749 30.0758 23.046C33.3912 20.343 36.5631 18.739 37.159 19.4634C37.7548 20.1878 35.5495 22.9696 32.2341 25.6726Z" fill="#FF5D5D" stroke="white" stroke-width="2.25545" stroke-miterlimit="10" stroke-linecap="round"/>
<path d="M20.9646 48.5306C20.9646 48.5306 19.8347 42.9522 17.4316 39.069L20.9646 48.5306Z" fill="#FF5D5D"/>
<path d="M20.9646 48.5306C20.9646 48.5306 19.8347 42.9522 17.4316 39.069" stroke="white" stroke-width="2.25545" stroke-miterlimit="10" stroke-linecap="round"/>
<path d="M70.1311 96.0834C70.1311 97.5294 85.2483 90.9501 79.7113 85.1418C75.6706 80.9043 64.177 83.8842 61.1999 88.7582C61.1999 88.7582 54.3959 88.5452 53.9813 94.3894C53.6903 98.5037 59.8968 99.1941 60.0874 99.1864C54.1681 99.8889 50.9939 105.5 50.5664 108.68C49.5775 116.067 57.3704 116.732 61.1973 114.825C61.1973 114.825 73.9375 120.892 79.271 112.918C83.9477 105.924 76.2321 103.927 72.4669 104.866C69.9148 105.503 69.0701 105.248 70.1311 106.095C71.5398 107.219 80.9398 105.367 80.9398 97.9621C80.9398 90.5574 69.7361 96.7859 70.1286 96.0859L70.1311 96.0834Z" fill="#FF5D5D" stroke="white" stroke-width="2.25545" stroke-miterlimit="10" stroke-linecap="round" stroke-linejoin="round"/>
<path d="M67.2002 2.35903L67.2 2.35895C64.7169 1.45222 62.391 1.98531 60.5041 3.26613C58.6487 4.52558 57.2031 6.50732 56.2998 8.60579C55.3984 10.6997 54.9825 13.0371 55.3306 15.0647C55.6865 17.1368 56.8746 18.9647 59.1711 19.6452L59.1711 19.6452C61.6352 20.3753 63.9034 19.7859 65.7374 18.5084C67.5459 17.2487 68.9449 15.32 69.8194 13.2759C70.6921 11.2361 71.0905 8.9691 70.7706 6.98177C70.4455 4.9627 69.3474 3.14366 67.2002 2.35903Z" fill="#FF5D5D" stroke="white" stroke-width="2.25545" stroke-miterlimit="10" stroke-linecap="round"/>
<path d="M45.1293 32.2537C40.7998 37.2749 39.1825 42.0404 38.5089 44.942C36.9509 46.0904 33.6303 48.6379 32.4136 52.6853C30.2147 60.0082 32.7311 62.509 35.3158 63.3377C38.6305 64.3999 45.2925 62.4082 46.8861 56.5164C49.7764 53.8829 52.7973 52.1321 56.1387 46.6387C61.685 37.5184 65.4299 24.1218 58.302 23.3448C53.8656 22.8628 48.6132 28.2111 45.1293 32.2512V32.2537Z" fill="#FF5D5D" stroke="white" stroke-width="2.25545" stroke-miterlimit="10" stroke-linecap="round"/>
<path d="M69.0493 44.4244C71.6774 40.6978 75.9726 39.8447 76.9046 40.1589C79.5355 44.4039 83.22 43.2341 84.7106 41.8217C87.275 39.3927 89.2432 32.9051 84.9306 29.9244C81.3329 27.4392 75.741 25.6538 68.9972 28.9972C54.0044 36.4273 49.1419 58.3956 61.5877 62.6151C76.5486 67.6851 83.8163 51.8902 80.5544 48.2582C79.2548 46.81 75.2635 46.3323 73.0927 48.7332C69.8076 53.5581 66.3228 48.2863 69.0493 44.4218V44.4244Z" fill="#FF5D5D" stroke="white" stroke-width="2.25545" stroke-miterlimit="10" stroke-linecap="round" stroke-linejoin="round"/>
</svg>
