<svg width="272" height="109" viewBox="0 0 272 109" fill="none" xmlns="http://www.w3.org/2000/svg">
<path d="M1.9992 38.9274C-2.83001 58.2372 11.1396 58.8846 16.3084 55.6677C24.4674 50.5914 25.0833 39.7573 23.7825 39.7573C21.6327 39.7573 12.334 57.3703 27.7742 58.2458C43.2202 59.1213 45.8536 39.9312 44.2621 39.9312C42.0978 39.9312 30.2493 60.2335 49.8712 58.1488C68.4139 56.181 65.0841 25.441 65.0841 25.441C74.8721 14.1648 71.1365 1.85338 62.7731 1.85338C48.6366 1.85338 37.6312 20.3447 40.3365 20.4446C44.8492 20.6128 47.6782 1.09766 36.7189 1.09766C23.6185 1.09766 5.34627 25.5408 1.99632 38.9245L1.9992 38.9274Z" fill="#3973CB" stroke="white" stroke-width="0.998147" stroke-miterlimit="10"/>
<path fill-rule="evenodd" clip-rule="evenodd" d="M47.8063 108.73C50.6186 108.73 52.8984 106.451 52.8984 103.638V94.316C52.8984 91.5037 50.6186 89.2238 47.8063 89.2238H23.7017C21.9049 87.2538 22.041 84.9381 22.0933 84.0483C22.0992 83.9485 22.104 83.8667 22.1049 83.8053C20.6971 85.2131 19.9582 88.0442 20.0802 89.2238H20.061C17.2487 89.2238 14.9688 91.5037 14.9688 94.316V103.638C14.9688 106.451 17.2487 108.73 20.061 108.73H47.8063Z" fill="#FF5E67"/>
<circle cx="26.9494" cy="99.7697" r="1.99629" fill="white"/>
<circle opacity="0.5" cx="33.9377" cy="99.7697" r="1.99629" fill="white"/>
<circle opacity="0.2" cx="40.926" cy="99.7697" r="1.99629" fill="white"/>
<path d="M101.808 38.9274C96.9786 58.2372 110.948 58.8846 116.117 55.6677C124.276 50.5914 124.892 39.7573 123.591 39.7573C121.441 39.7573 112.143 57.3703 127.583 58.2458C143.029 59.1213 145.662 39.9312 144.071 39.9312C141.906 39.9312 130.058 60.2335 149.68 58.1488C168.223 56.181 164.893 25.441 164.893 25.441C174.681 14.1648 170.945 1.85338 162.582 1.85338C148.445 1.85338 137.44 20.3447 140.145 20.4446C144.658 20.6128 147.487 1.09766 136.528 1.09766C123.427 1.09766 105.155 25.5408 101.805 38.9245L101.808 38.9274Z" fill="#FFFDC2" stroke="#FF5E67" stroke-width="0.998147" stroke-miterlimit="10"/>
<path fill-rule="evenodd" clip-rule="evenodd" d="M148.56 108.73C151.373 108.73 153.652 106.451 153.652 103.638V94.316C153.652 91.5037 151.372 89.2238 148.56 89.2238H124.456C122.659 87.2538 122.795 84.9381 122.847 84.0483C122.853 83.9485 122.858 83.8667 122.859 83.8053C121.451 85.2131 120.712 88.0442 120.834 89.2238H120.815C118.003 89.2238 115.723 91.5037 115.723 94.316V103.638C115.723 106.451 118.003 108.73 120.815 108.73H148.56Z" fill="#FF5E67"/>
<circle opacity="0.5" cx="127.699" cy="99.7697" r="1.99629" fill="white"/>
<circle opacity="0.2" cx="141.676" cy="99.7697" r="1.99629" fill="white"/>
<circle cx="134.696" cy="99.7697" r="1.99629" fill="white"/>
<path d="M201.632 38.9274C196.803 58.2372 210.772 58.8846 215.941 55.6677C224.1 50.5914 224.716 39.7573 223.415 39.7573C221.265 39.7573 211.967 57.3703 227.407 58.2458C242.853 59.1213 245.486 39.9312 243.895 39.9312C241.731 39.9312 229.882 60.2335 249.504 58.1488C268.047 56.181 264.717 25.441 264.717 25.441C274.505 14.1648 270.769 1.85338 262.406 1.85338C248.269 1.85338 237.264 20.3447 239.969 20.4446C244.482 20.6128 247.311 1.09766 236.352 1.09766C223.251 1.09766 204.979 25.5408 201.629 38.9245L201.632 38.9274Z" fill="#C6DDFF" stroke="white" stroke-width="0.998147" stroke-miterlimit="10"/>
<path fill-rule="evenodd" clip-rule="evenodd" d="M248.435 108.73C251.248 108.73 253.527 106.451 253.527 103.638V94.316C253.527 91.5037 251.247 89.2238 248.435 89.2238H224.331C222.534 87.2538 222.67 84.9381 222.722 84.0483C222.728 83.9485 222.733 83.8667 222.734 83.8053C221.326 85.2131 220.587 88.0442 220.709 89.2238H220.69C217.878 89.2238 215.598 91.5037 215.598 94.316V103.638C215.598 106.451 217.878 108.73 220.69 108.73H248.435Z" fill="#FF5E67"/>
<circle cx="241.551" cy="99.7654" r="1.99629" transform="rotate(-180 241.551 99.7654)" fill="white"/>
<circle opacity="0.5" cx="234.566" cy="99.7654" r="1.99629" transform="rotate(-180 234.566 99.7654)" fill="white"/>
<circle opacity="0.2" cx="227.578" cy="99.7654" r="1.99629" transform="rotate(-180 227.578 99.7654)" fill="white"/>
</svg>
