<svg width="207" height="273" viewBox="0 0 207 273" fill="none" xmlns="http://www.w3.org/2000/svg">
<path d="M38.6056 90.5748C28.2404 132.021 58.2241 133.41 69.3182 126.505C86.8304 115.61 88.1523 92.3561 85.3602 92.3561C80.7459 92.3561 60.7876 130.16 93.9279 132.039C127.08 133.918 132.733 92.7294 129.317 92.7294C124.671 92.7294 99.2402 136.305 141.356 131.831C181.155 127.607 174.008 61.6283 174.008 61.6283C195.016 37.4256 186.999 11.001 169.048 11.001C138.706 11.001 115.085 50.69 120.891 50.9042C130.577 51.2653 136.649 9.37891 113.126 9.37891C85.0081 9.37891 45.7896 61.8426 38.5994 90.5687L38.6056 90.5748Z" fill="#FF5E67" stroke="white" stroke-width="1.17876" stroke-linecap="round" stroke-linejoin="round"/>
<path d="M58.3296 77.7035C58.3296 77.7035 62.9501 39.2326 82.5068 39.2326C62.9501 39.2326 58.3296 0.761719 58.3296 0.761719C58.3296 0.761719 53.7091 39.2326 34.1523 39.2326C53.7091 39.2326 58.3296 77.7035 58.3296 77.7035Z" fill="#3973CB" stroke="white" stroke-width="1.17876" stroke-linecap="round" stroke-linejoin="round"/>
<path d="M30.1922 83.5901C30.1922 83.5901 32.138 67.3693 40.3845 67.3693C32.138 67.3693 30.1922 51.1484 30.1922 51.1484C30.1922 51.1484 28.2465 67.3693 20 67.3693C28.2465 67.3693 30.1922 83.5901 30.1922 83.5901Z" fill="#3973CB" stroke="white" stroke-width="1.17876" stroke-linecap="round" stroke-linejoin="round"/>
<path d="M164.257 128.353C164.257 128.353 167.358 102.522 180.49 102.522C167.358 102.522 164.257 76.6914 164.257 76.6914C164.257 76.6914 161.156 102.522 148.023 102.522C161.156 102.522 164.257 128.353 164.257 128.353Z" fill="#3973CB" stroke="white" stroke-width="1.17876" stroke-linecap="round" stroke-linejoin="round"/>
<path d="M72.0236 84.957C72.0236 84.957 71.8939 98.3316 79.1705 98.3316" stroke="white" stroke-width="1.17876" stroke-miterlimit="10" stroke-linecap="round"/>
<path d="M77.8448 85.6953C77.8448 85.6953 76.0041 94.5464 80.8284 95.489" stroke="white" stroke-width="1.17876" stroke-miterlimit="10" stroke-linecap="round"/>
<path d="M115.985 84.957C115.985 84.957 115.855 98.3316 123.131 98.3316" stroke="white" stroke-width="1.17876" stroke-miterlimit="10" stroke-linecap="round"/>
<path d="M121.806 85.6953C121.806 85.6953 119.965 94.5464 124.789 95.489" stroke="white" stroke-width="1.17876" stroke-miterlimit="10" stroke-linecap="round"/>
<path d="M86.0478 98.9311C86.7538 95.9806 86.1799 93.3193 84.7658 92.9871C83.3517 92.6548 81.6329 94.7773 80.9269 97.7279C80.2208 100.678 80.7948 103.34 82.2089 103.672C83.623 104.004 85.3417 101.882 86.0478 98.9311Z" fill="white"/>
<path d="M130.192 98.9311C130.898 95.9806 130.324 93.3193 128.91 92.9871C127.496 92.6548 125.777 94.7773 125.071 97.7279C124.365 100.678 124.939 103.34 126.353 103.672C127.768 104.004 129.486 101.882 130.192 98.9311Z" fill="white"/>
<rect opacity="0.5" x="122" y="166.164" width="41.1179" height="30.8384" rx="3.87149" transform="rotate(90 122 166.164)" fill="#C3CDD5"/>
<rect x="113.84" y="174.734" width="41.1179" height="30.8384" rx="3.87149" transform="rotate(90 113.84 174.734)" fill="#C3CDD5"/>
<path d="M106.845 270.059C106.845 271.529 105.654 272.72 104.184 272.72C102.714 272.72 101.522 271.529 101.522 270.059C101.522 268.588 102.714 267.397 104.184 267.397C105.654 267.397 106.845 268.588 106.845 270.059ZM104.683 232.129L104.683 270.059L103.685 270.059L103.685 232.129L104.683 232.129Z" fill="#C3CDD5"/>
<path d="M206.662 270.059C206.662 271.529 205.47 272.72 204 272.72C202.53 272.72 201.338 271.529 201.338 270.059C201.338 268.589 202.53 267.397 204 267.397C205.47 267.397 206.662 268.589 206.662 270.059ZM204.499 251.094L204.499 270.059L203.501 270.059L203.501 251.094L204.499 251.094Z" fill="#C3CDD5"/>
<path d="M6.03282 270.059C6.03282 271.529 4.84112 272.72 3.37109 272.72C1.90106 272.72 0.709368 271.529 0.709368 270.059C0.709368 268.589 1.90106 267.397 3.37109 267.397C4.84112 267.397 6.03282 268.589 6.03282 270.059ZM3.87017 251.094L3.87017 270.059L2.87202 270.059L2.87202 251.094L3.87017 251.094Z" fill="#C3CDD5"/>
<path d="M204 251.094L3.37239 251.094" stroke="#C3CDD5" stroke-width="0.998147"/>
</svg>
