<svg width="266" height="155" viewBox="0 0 266 155" fill="none" xmlns="http://www.w3.org/2000/svg">
<path d="M136.845 3.15244C136.845 1.6824 135.654 0.490707 134.184 0.490707C132.714 0.490707 131.522 1.6824 131.522 3.15244C131.522 4.62247 132.714 5.81416 134.184 5.81416C135.654 5.81416 136.845 4.62247 136.845 3.15244ZM134.683 41.082L134.683 3.15244L133.685 3.15244L133.685 41.082L134.683 41.082Z" fill="#C3CDD5"/>
<path d="M236.662 3.15239C236.662 1.68236 235.47 0.490664 234 0.490664C232.53 0.490663 231.338 1.68236 231.338 3.15239C231.338 4.62242 232.53 5.81412 234 5.81412C235.47 5.81412 236.662 4.62242 236.662 3.15239ZM234.499 22.1172L234.499 3.15239L233.501 3.15239L233.501 22.1172L234.499 22.1172Z" fill="#C3CDD5"/>
<path d="M36.0328 3.15239C36.0328 1.68236 34.8411 0.490664 33.3711 0.490664C31.9011 0.490663 30.7094 1.68236 30.7094 3.15239C30.7094 4.62242 31.9011 5.81412 33.3711 5.81412C34.8411 5.81412 36.0328 4.62242 36.0328 3.15239ZM33.8702 22.1172L33.8702 3.15239L32.872 3.15239L32.872 22.1172L33.8702 22.1172Z" fill="#C3CDD5"/>
<path d="M234 22.1172L33.3724 22.1172" stroke="#C3CDD5" stroke-width="0.998147"/>
<g opacity="0.1">
<rect x="54.4805" y="64.3594" width="75.1229" height="21.2203" rx="10.6101" fill="#FF7179"/>
<path d="M73.0219 70.9017H71.7567V79.8464H73.0219V70.9017ZM65.9897 77.7573H70.4032V71.6079H69.1675V73.7852H67.2451V71.6079H65.9897V77.7573ZM67.2451 76.7471V74.7561H69.1675V76.7471H67.2451ZM78.2985 70.9802C76.2388 70.9802 75.0423 71.5196 75.0423 72.5102C75.0423 73.4958 76.2388 74.0304 78.2985 74.0304C80.3532 74.0304 81.5399 73.4958 81.5448 72.5102C81.5399 71.5196 80.3532 70.9802 78.2985 70.9802ZM74.2282 75.3838H76.2781V76.0115H75.1698V76.9237H80.1423V77.414H75.1796V79.7679H81.6135V78.8264H76.4056V78.2869H81.3781V76.0115H80.3287V75.3838H82.3687V74.4031H74.2282V75.3838ZM76.3565 72.5102C76.3516 72.1031 76.9891 71.9021 78.2985 71.9021C79.6176 71.9021 80.2502 72.1031 80.2502 72.5102C80.2502 72.9368 79.6176 73.1133 78.2985 73.1183C76.9891 73.1133 76.3516 72.9368 76.3565 72.5102ZM77.5138 76.0115V75.3838H79.0831V76.0115H77.5138ZM90.3816 70.9017H89.1164V79.8464H90.3816V70.9017ZM83.1729 74.7071C83.168 76.6687 84.1635 77.8946 85.5366 77.8946C86.8802 77.8946 87.8806 76.6687 87.8806 74.7071C87.8806 72.7603 86.8802 71.5294 85.5366 71.5294C84.1635 71.5294 83.168 72.7603 83.1729 74.7071ZM84.3793 74.7071C84.3744 73.3831 84.8402 72.6573 85.5366 72.6573C86.2133 72.6573 86.6694 73.3831 86.6743 74.7071C86.6694 76.0361 86.2133 76.7618 85.5366 76.7569C84.8402 76.7618 84.3744 76.0361 84.3793 74.7071ZM101.425 76.3744H95.462V79.7287H101.425V76.3744ZM94.4028 75.6683H95.1482C96.482 75.6683 97.8208 75.5996 99.2282 75.3152L99.1007 74.2658C97.9042 74.506 96.7566 74.5943 95.6386 74.609V71.3725H94.4028V75.6683ZM96.6978 78.7283V77.365H100.199V78.7283H96.6978ZM97.963 73.4125H100.18V76.0017H101.425V70.9017H100.18V72.4023H97.963V73.4125ZM105.868 72.9221V71.5882H104.613V72.9221C104.613 74.5796 103.902 76.2862 102.386 76.9825L103.161 77.9927C104.171 77.4925 104.858 76.5461 105.25 75.3936C105.618 76.4676 106.265 77.3503 107.222 77.826L107.977 76.8256C106.545 76.1341 105.863 74.5208 105.868 72.9221ZM108.369 79.8268H109.624V75.4035H110.939V74.3442H109.624V70.9017H108.369V79.8268ZM113.665 71.5294C112.297 71.5294 111.306 72.7603 111.311 74.7071C111.306 76.6687 112.297 77.8946 113.665 77.8946C115.028 77.8946 116.014 76.6687 116.019 74.7071C116.014 72.7603 115.028 71.5294 113.665 71.5294ZM112.518 74.7071C112.518 73.3831 112.984 72.6573 113.665 72.6573C114.362 72.6573 114.818 73.3831 114.823 74.7071C114.818 76.0361 114.362 76.7618 113.665 76.7569C112.984 76.7618 112.518 76.0361 112.518 74.7071ZM117.049 79.8268H118.304V76.6294H119.569V75.6094H118.304V74.0206H119.569V72.9711H118.304V70.9017H117.049V79.8268Z" fill="white"/>
</g>
<g opacity="0.2">
<rect x="136.617" y="59.9453" width="79.5048" height="20.6124" rx="10.3062" fill="#FF7179"/>
<path d="M155.757 67.7038H154.58V66.4876H153.324V71.6661H154.58V70.6069H155.757V69.5869H154.58V68.7238H155.757V67.7038ZM147.44 70.8521L147.94 71.8623C150.598 71.1218 152.093 69.4545 152.089 67.0761H147.861V68.0765H150.725C150.529 69.3123 149.406 70.3323 147.44 70.8521ZM148.646 73.5983C148.636 74.7261 149.852 75.4225 151.667 75.4225C153.486 75.4225 154.673 74.7261 154.678 73.5983C154.673 72.4802 153.486 71.774 151.667 71.774C149.852 71.774 148.636 72.4802 148.646 73.5983ZM149.882 73.5983C149.877 73.049 150.544 72.745 151.667 72.745C152.775 72.745 153.442 73.049 153.442 73.5983C153.442 74.1377 152.775 74.4466 151.667 74.4417C150.544 74.4466 149.877 74.1377 149.882 73.5983ZM160.896 67.1153C159.528 67.1153 158.537 68.3462 158.542 70.293C158.537 72.2546 159.528 73.4806 160.896 73.4806C162.259 73.4806 163.245 72.2546 163.25 70.293C163.245 68.3462 162.259 67.1153 160.896 67.1153ZM159.748 70.293C159.748 68.969 160.214 68.2432 160.896 68.2432C161.592 68.2432 162.048 68.969 162.053 70.293C162.048 71.622 161.592 72.3478 160.896 72.3429C160.214 72.3478 159.748 71.622 159.748 70.293ZM164.28 75.4127H165.535V70.8913H166.849V69.8517H165.535V66.4876H164.28V75.4127ZM175.333 71.4798H167.163V72.4802H170.606V75.4029H171.841V72.4802H175.333V71.4798ZM168.124 70.5186H174.352V66.9192H168.124V70.5186ZM169.36 69.5378V67.9098H173.107V69.5378H169.36ZM183.375 66.4876H182.13V69.9203H180.355V70.9404H182.13V75.4127H183.375V66.4876ZM175.764 72.8823L176.412 73.8631C179.526 72.3183 180.399 70.1116 180.404 67.4194H176.186V68.4001H179.143C178.957 70.3568 178.02 71.7691 175.764 72.8823ZM192.84 69.8713H191.575V66.4876H190.319V75.3931H191.575V70.8913H192.84V69.8713ZM184.817 73.2158H185.592C186.906 73.2158 188.353 73.1373 189.848 72.8333L189.721 71.7936C188.431 72.0535 187.205 72.1614 186.063 72.181V67.3409H184.817V73.2158ZM194.37 74.5986C194.806 74.5986 195.184 74.2309 195.184 73.7748C195.184 73.3236 194.806 72.9558 194.37 72.9608C193.909 72.9558 193.536 73.3236 193.546 73.7748C193.536 74.2309 193.909 74.5986 194.37 74.5986ZM197.204 74.5986C197.641 74.5986 198.018 74.2309 198.018 73.7748C198.018 73.3236 197.641 72.9558 197.204 72.9608C196.743 72.9558 196.371 73.3236 196.38 73.7748C196.371 74.2309 196.743 74.5986 197.204 74.5986ZM199.421 72.2742V72.3821H200.715V72.2742C200.72 71.5877 200.966 71.2689 201.52 70.9404C202.162 70.5529 202.579 70.0429 202.579 69.2338C202.579 68.0226 201.613 67.3115 200.245 67.3115C198.989 67.3115 197.964 67.9735 197.94 69.3515H199.333C199.352 68.7777 199.779 68.4737 200.235 68.4688C200.711 68.4737 201.093 68.7925 201.088 69.2828C201.093 69.734 200.764 70.038 200.343 70.3127C199.754 70.6805 199.426 71.0531 199.421 72.2742ZM199.274 73.7748C199.264 74.2309 199.637 74.5986 200.098 74.5986C200.534 74.5986 200.912 74.2309 200.912 73.7748C200.912 73.3236 200.534 72.9558 200.098 72.9608C199.637 72.9558 199.264 73.3236 199.274 73.7748Z" fill="white"/>
</g>
<g opacity="0.1">
<rect x="189.52" y="78.8086" width="76.2039" height="20.9837" rx="10.4918" fill="#FF7179"/>
<path d="M208.972 88.7346H207.707V85.3509H206.452V94.2564H207.707V89.7546H208.972V88.7346ZM200.95 92.079H201.725C203.039 92.079 204.485 92.0006 205.981 91.6965L205.854 90.6569C204.564 90.9168 203.338 91.0247 202.195 91.0443V86.2042H200.95V92.079ZM216.593 87.7832H211.601V85.6648H210.355V88.764H216.593V87.7832ZM209.335 90.7059H217.505V89.7252H209.335V90.7059ZM210.277 94.0798H216.652V93.0794H211.532V91.4317H210.277V94.0798ZM220.634 93.3737H225.714V92.1575H222.684V92.1183L223.763 91.0688C225.224 89.7448 225.616 89.0828 225.616 88.2736C225.616 87.0428 224.606 86.1748 223.086 86.1748C221.59 86.1748 220.56 87.0624 220.565 88.4502H221.968C221.963 87.7685 222.399 87.3468 223.066 87.3517C223.718 87.3468 224.194 87.7391 224.194 88.3717C224.194 88.9357 223.836 89.328 223.174 89.9606L220.624 92.3046L220.634 93.3737ZM233.992 85.3607H232.746V87.7244H231.099V85.9394H229.863V87.3125H228.107V85.9394H226.852V90.5294H231.099V88.7248H232.746V91.9417H233.992V85.3607ZM228.049 94.119H234.178V93.1187H229.314V91.2846H228.049V94.119ZM228.107 89.5486V88.2638H229.863V89.5486H228.107ZM242.623 85.3509H241.358V94.2956H242.623V85.3509ZM235.414 89.1563C235.409 91.1179 236.405 92.3438 237.778 92.3438C239.122 92.3438 240.122 91.1179 240.122 89.1563C240.122 87.2095 239.122 85.9786 237.778 85.9786C236.405 85.9786 235.409 87.2095 235.414 89.1563ZM236.621 89.1563C236.616 87.8323 237.082 87.1065 237.778 87.1065C238.455 87.1065 238.911 87.8323 238.916 89.1563C238.911 90.4853 238.455 91.211 237.778 91.2061C237.082 91.211 236.616 90.4853 236.621 89.1563ZM248.919 85.9394H246.311V86.9398H247.291C247.277 87.9255 246.938 88.9847 245.958 89.4996L246.624 90.4019C247.247 90.0684 247.64 89.529 247.875 88.8866C248.086 89.5339 248.449 90.1175 249.057 90.4804C249.675 90.1126 250.042 89.5241 250.253 88.8572C250.489 89.5143 250.881 90.0684 251.519 90.4019L252.185 89.4996C251.175 88.9749 250.856 87.9353 250.852 86.9398H251.764V85.9394H249.214V86.9398H249.665C249.655 87.6361 249.528 88.4306 249.062 89.0484C248.591 88.4256 248.463 87.6165 248.458 86.9398H248.919V85.9394ZM247.34 92.5498C247.34 93.6532 248.522 94.2809 250.44 94.276C252.367 94.2809 253.563 93.6532 253.568 92.5498C253.563 91.4611 252.367 90.8236 250.44 90.8236C248.522 90.8236 247.34 91.4611 247.34 92.5498ZM248.606 92.5498C248.601 92.0594 249.238 91.8142 250.44 91.8142C251.641 91.8142 252.284 92.0594 252.293 92.5498C252.284 93.0598 251.641 93.305 250.44 93.305C249.238 93.305 248.601 93.0598 248.606 92.5498ZM252.234 90.7354H253.48V88.5482H254.402V87.4988H253.48V85.3509H252.234V90.7354ZM256.854 86.2728H255.344L255.471 91.2454H256.726L256.854 86.2728ZM255.285 92.6381C255.275 93.0941 255.648 93.4619 256.109 93.4619C256.545 93.4619 256.923 93.0941 256.923 92.6381C256.923 92.1869 256.545 91.8191 256.109 91.824C255.648 91.8191 255.275 92.1869 255.285 92.6381Z" fill="white"/>
</g>
<g opacity="0.5">
<rect x="90.5039" y="133.027" width="85.0392" height="20.9837" rx="10.4918" fill="#FF7179"/>
<path d="M109.892 144.15H101.722V145.131H105.292V146.572H106.528V145.131H109.892V144.15ZM102.683 148.338H108.99V147.337H103.919V145.866H102.683V148.338ZM102.772 143.522H108.833V139.854H107.587V140.786H104.007V139.854H102.772V143.522ZM104.007 142.532V141.718H107.587V142.532H104.007ZM113.325 139.942C111.966 139.933 110.976 140.712 110.981 141.835C110.976 142.948 111.966 143.738 113.325 143.728C114.688 143.738 115.679 142.948 115.679 141.835C115.679 140.712 114.688 139.933 113.325 139.942ZM110.431 144.277L110.588 145.297C111.231 145.288 111.971 145.283 112.756 145.248V148.23H114.001V145.175C114.747 145.116 115.502 145.023 116.238 144.876L116.159 143.954C114.256 144.243 112.015 144.272 110.431 144.277ZM112.187 141.835C112.182 141.266 112.658 140.938 113.325 140.943C114.011 140.938 114.492 141.266 114.492 141.835C114.492 142.394 114.011 142.718 113.325 142.708C112.658 142.718 112.182 142.394 112.187 141.835ZM116.699 148.495H117.934V139.579H116.699V148.495ZM126.595 139.57H125.329V148.495H126.595V139.57ZM119.121 145.964L119.778 146.965C122.966 145.459 123.912 143.208 123.917 140.501H119.602V141.482H122.642C122.441 143.463 121.426 144.876 119.121 145.964ZM134.813 139.57H133.558V148.475H134.813V144.022H136.079V142.993H134.813V139.57ZM127.673 145.974L128.38 146.935C131.381 145.459 132.42 143.149 132.43 140.482H128.183V141.502H131.16C130.925 143.493 129.787 144.915 127.673 145.974ZM143.523 140.374H139.207V146.366H143.523V140.374ZM140.463 145.376V141.355H142.307V145.376H140.463ZM144.974 148.514H146.239V139.57H144.974V148.514ZM154.968 139.57H153.723V141.335H152.536V140.443H150.751V139.54H149.486V140.443H147.691V141.423H149.486V141.482C149.486 142.478 148.824 143.468 147.377 143.865L147.966 144.827C149.02 144.532 149.736 143.905 150.128 143.105C150.53 143.856 151.246 144.444 152.281 144.719L152.742 143.934H153.723V144.895H154.968V139.57ZM147.917 147.514L148.525 148.426C149.339 148.156 149.888 147.627 150.202 146.979C150.496 147.656 151.016 148.225 151.83 148.514C152.654 148.205 153.183 147.612 153.478 146.94C153.787 147.617 154.341 148.156 155.204 148.426L155.812 147.514C154.615 147.171 154.11 146.317 154.105 145.435V145.18H152.879V145.435C152.869 146.072 152.561 146.818 151.825 147.328C151.099 146.847 150.805 146.121 150.8 145.435V145.18H149.594V145.435C149.594 146.273 149.084 147.131 147.917 147.514ZM150.731 141.482V141.423H152.467V142.345H153.723V142.934H152.467V143.645C151.286 143.199 150.736 142.335 150.731 141.482ZM163.168 139.57H161.912V148.514H163.168V143.905H164.482V142.885H163.168V139.57ZM156.479 146.347H157.234C158.808 146.352 160.024 146.317 161.412 146.082L161.275 145.033C160.088 145.239 159.019 145.307 157.724 145.317V141.404H160.667V140.394H156.479V146.347Z" fill="white"/>
</g>
<g opacity="0.3">
<rect y="80.5547" width="100.458" height="21.1733" rx="10.5866" fill="#FF7179"/>
<path d="M18.2329 89.8922H13.1917V87.4991H11.9363V90.8926H18.2329V89.8922ZM10.9261 92.9326H14.3392V96.0221H15.5946V92.9326H19.096V91.9126H10.9261V92.9326ZM26.6479 87.097H25.3926V96.0024H26.6479V91.5497H27.9131V90.5199H26.6479V87.097ZM19.5079 93.5015L20.2141 94.4626C23.2152 92.9866 24.2549 90.6768 24.2647 88.0091H20.0179V89.0291H22.9946C22.7592 91.0201 21.6215 92.4422 19.5079 93.5015ZM29.9532 87.8032H28.7272V91.9126H30.3749V93.3102C29.5854 93.3249 28.8351 93.3249 28.178 93.3249L28.3447 94.3449C29.86 94.34 31.8706 94.3351 33.7389 94.0017L33.6507 93.0895C33.0034 93.1778 32.3119 93.2318 31.6205 93.2661V91.9126H33.2584V87.8032H32.003V88.9213H29.9532V87.8032ZM29.9532 90.9318V89.8726H32.003V90.9318H29.9532ZM34.1215 96.0221H35.3768V91.7067H36.593V90.667H35.3768V87.097H34.1215V96.0221ZM44.243 91.0888H39.1822V88.7251H44.1744V87.7247H37.9269V92.0793H40.4082V93.9821H36.9657V95.0021H45.1356V93.9821H41.6538V92.0793H44.243V91.0888ZM48.2544 95.1198H53.3348V93.9036H50.3042V93.8644L51.3831 92.8149C52.8444 91.4909 53.2368 90.8289 53.2368 90.0197C53.2368 88.7888 52.2266 87.9209 50.7064 87.9209C49.2107 87.9209 48.1809 88.8085 48.1858 90.1963H49.5883C49.5834 89.5146 50.0198 89.0929 50.6867 89.0978C51.339 89.0929 51.8146 89.4852 51.8146 90.1178C51.8146 90.6817 51.4566 91.0741 50.7946 91.7067L48.2446 94.0507L48.2544 95.1198ZM61.6126 87.1068H60.367V89.4705H58.7193V87.6855H57.4835V89.0586H55.7279V87.6855H54.4725V92.2755H58.7193V90.4709H60.367V93.6878H61.6126V87.1068ZM55.6691 95.8651H61.7989V94.8647H56.9343V93.0307H55.6691V95.8651ZM55.7279 91.2947V90.0099H57.4835V91.2947H55.7279ZM70.2434 87.097H68.9782V96.0417H70.2434V87.097ZM63.0347 90.9024C63.0298 92.864 64.0253 94.0899 65.3984 94.0899C66.742 94.0899 67.7424 92.864 67.7424 90.9024C67.7424 88.9556 66.742 87.7247 65.3984 87.7247C64.0253 87.7247 63.0298 88.9556 63.0347 90.9024ZM64.241 90.9024C64.2361 89.5784 64.702 88.8526 65.3984 88.8526C66.0751 88.8526 66.5312 89.5784 66.5361 90.9024C66.5312 92.2314 66.0751 92.9571 65.3984 92.9522C64.702 92.9571 64.2361 92.2314 64.241 90.9024ZM76.54 87.6855H73.9311V88.6859H74.9119C74.8972 89.6715 74.5588 90.7308 73.578 91.2457L74.2449 92.148C74.8677 91.8145 75.26 91.2751 75.4954 90.6327C75.7063 91.28 76.0692 91.8636 76.6773 92.2265C77.2952 91.8587 77.6629 91.2702 77.8738 90.6033C78.1092 91.2604 78.5015 91.8145 79.139 92.148L79.8059 91.2457C78.7957 90.721 78.477 89.6814 78.4721 88.6859H79.3842V87.6855H76.8342V88.6859H77.2853C77.2755 89.3822 77.148 90.1766 76.6822 90.7945C76.2114 90.1717 76.0839 89.3626 76.079 88.6859H76.54V87.6855ZM74.9609 94.2959C74.9609 95.3993 76.1427 96.027 78.0602 96.0221C79.9874 96.027 81.1839 95.3993 81.1888 94.2959C81.1839 93.2072 79.9874 92.5697 78.0602 92.5697C76.1427 92.5697 74.9609 93.2072 74.9609 94.2959ZM76.2261 94.2959C76.2212 93.8055 76.8587 93.5603 78.0602 93.5603C79.2616 93.5603 79.904 93.8055 79.9138 94.2959C79.904 94.8059 79.2616 95.0511 78.0602 95.0511C76.8587 95.0511 76.2212 94.8059 76.2261 94.2959ZM79.855 92.4815H81.1006V90.2943H82.0225V89.2449H81.1006V87.097H79.855V92.4815ZM84.4744 88.0189H82.964L83.0915 92.9915H84.3469L84.4744 88.0189ZM82.9052 94.3842C82.8954 94.8402 83.2681 95.208 83.729 95.208C84.1655 95.208 84.5431 94.8402 84.5431 94.3842C84.5431 93.933 84.1655 93.5652 83.729 93.5701C83.2681 93.5652 82.8954 93.933 82.9052 94.3842ZM87.5541 88.0189H86.0437L86.1712 92.9915H87.4266L87.5541 88.0189ZM85.9848 94.3842C85.975 94.8402 86.3477 95.208 86.8087 95.208C87.2451 95.208 87.6227 94.8402 87.6227 94.3842C87.6227 93.933 87.2451 93.5652 86.8087 93.5701C86.3477 93.5652 85.975 93.933 85.9848 94.3842Z" fill="white"/>
</g>
<rect x="35.3281" y="89.4141" width="40.863" height="22.0881" rx="11.044" fill="#FF7179"/>
<path d="M49.4727 96.8783H48.08L46.3244 97.9964V99.3008L47.9525 98.2808H47.9917V103.979H49.4727V96.8783ZM58.3487 95.9662H57.1031V98.3299H55.4554V96.5449H54.2197V97.9179H52.4641V96.5449H51.2087V101.135H55.4554V99.3303H57.1031V102.547H58.3487V95.9662ZM52.4052 104.725H58.5351V103.724H53.6704V101.89H52.4052V104.725ZM52.4641 100.154V98.8693H54.2197V100.154H52.4641ZM60.173 100.831V102.027C60.4966 101.674 60.9036 101.493 61.3597 101.488C62.1639 101.493 62.8505 102.047 63.6547 102.047C64.1157 102.047 64.5374 101.861 64.8709 101.508V100.311C64.5472 100.669 64.1402 100.85 63.6841 100.85C62.875 100.85 62.1934 100.296 61.3891 100.291C60.9282 100.296 60.5064 100.478 60.173 100.831Z" fill="white"/>
<rect x="190.699" y="89.4141" width="42.697" height="22.0847" rx="11.0423" fill="#FF7179"/>
<path d="M201.774 103.979H206.854V102.763H203.824V102.724L204.902 101.674C206.364 100.35 206.756 99.6882 206.756 98.8791C206.756 97.6482 205.746 96.7802 204.226 96.7802C202.73 96.7802 201.7 97.6678 201.705 99.0556H203.108C203.103 98.374 203.539 97.9523 204.206 97.9572C204.858 97.9523 205.334 98.3446 205.334 98.9772C205.334 99.5411 204.976 99.9334 204.314 100.566L201.764 102.91L201.774 103.979ZM215.132 95.9662H213.886V98.3299H212.239V96.5449H211.003V97.9179H209.247V96.5449H207.992V101.135H212.239V99.3303H213.886V102.547H215.132V95.9662ZM209.188 104.725H215.318V103.724H210.454V101.89H209.188V104.725ZM209.247 100.154V98.8693H211.003V100.154H209.247ZM218.319 96.8783H216.809L216.937 101.851H218.192L218.319 96.8783ZM216.75 103.244C216.74 103.7 217.113 104.067 217.574 104.067C218.011 104.067 218.388 103.7 218.388 103.244C218.388 102.792 218.011 102.425 217.574 102.43C217.113 102.425 216.74 102.792 216.75 103.244ZM221.399 96.8783H219.889L220.016 101.851H221.272L221.399 96.8783ZM219.83 103.244C219.82 103.7 220.193 104.067 220.654 104.067C221.09 104.067 221.468 103.7 221.468 103.244C221.468 102.792 221.09 102.425 220.654 102.43C220.193 102.425 219.82 102.792 219.83 103.244Z" fill="white"/>
<g opacity="0.8">
<rect x="105.824" y="90.5938" width="77.3083" height="20.9837" rx="10.4918" fill="#FF7179"/>
<path d="M120.035 98.058H118.643L116.887 99.1761V100.481L118.515 99.4605H118.554V105.159H120.035V98.058ZM128.911 97.1459H127.666V99.5096H126.018V97.7245H124.782V99.0976H123.027V97.7245H121.771V102.315H126.018V100.51H127.666V103.727H128.911V97.1459ZM122.968 105.904H129.098V104.904H124.233V103.07H122.968V105.904ZM123.027 101.334V100.049H124.782V101.334H123.027ZM137.542 97.1361H136.277V106.081H137.542V97.1361ZM130.333 100.941C130.329 102.903 131.324 104.129 132.697 104.129C134.041 104.129 135.041 102.903 135.041 100.941C135.041 98.9946 134.041 97.7638 132.697 97.7638C131.324 97.7638 130.329 98.9946 130.333 100.941ZM131.54 100.941C131.535 99.6174 132.001 98.8917 132.697 98.8917C133.374 98.8917 133.83 99.6174 133.835 100.941C133.83 102.27 133.374 102.996 132.697 102.991C132.001 102.996 131.535 102.27 131.54 100.941ZM148.762 97.1361H147.556V100.588H146.722V97.2832H145.545V105.63H146.722V101.599H147.556V106.061H148.762V97.1361ZM141.426 103.884H142.034C142.956 103.889 143.976 103.825 145.173 103.619L145.045 102.54C144.187 102.707 143.397 102.771 142.681 102.79V98.1267H141.426V103.884ZM159.619 97.1459H158.364V102.324H156.657V103.178H158.364V103.884H159.619V97.1459ZM152.028 101.098L152.175 102.089C152.852 102.089 153.612 102.084 154.411 102.055V103.236H153.166V105.904H159.816V104.904H154.411V103.678H155.667V101.981C156.388 101.927 157.118 101.844 157.825 101.726L157.756 100.834C155.868 101.064 153.661 101.089 152.028 101.098ZM152.685 99.0486C152.685 100.005 153.602 100.623 154.931 100.618C156.226 100.623 157.153 100.005 157.158 99.0486C157.153 98.0972 156.226 97.445 154.931 97.4499C153.602 97.445 152.685 98.0972 152.685 99.0486ZM153.872 99.0486C153.867 98.6072 154.294 98.362 154.931 98.362C155.53 98.362 155.961 98.6072 155.971 99.0486C155.961 99.4801 155.53 99.7204 154.931 99.7155C154.294 99.7204 153.867 99.4801 153.872 99.0486ZM165.975 97.7736H161.12V98.7936H161.846V101.221C161.512 101.226 161.189 101.226 160.885 101.226L161.022 102.256C162.581 102.251 164.592 102.212 166.406 101.932L166.318 101.02C165.97 101.059 165.607 101.089 165.239 101.113V98.7936H165.975V97.7736ZM162.071 103.952H166.956V106.061H168.211V102.952H162.071V103.952ZM163.042 101.206V98.7936H164.033V101.177L163.042 101.206ZM166.956 102.599H168.211V97.1361H166.956V102.599ZM171.448 98.058H169.937L170.065 103.031H171.32L171.448 98.058ZM169.878 104.423C169.869 104.879 170.241 105.247 170.702 105.247C171.139 105.247 171.516 104.879 171.516 104.423C171.516 103.972 171.139 103.604 170.702 103.609C170.241 103.604 169.869 103.972 169.878 104.423Z" fill="white"/>
</g>
<rect x="151.648" y="118.836" width="65.1599" height="20.9837" rx="10.4918" fill="#FF7179"/>
<path d="M163.126 133.401H168.206V132.185H165.175V132.146L166.254 131.096C167.716 129.772 168.108 129.11 168.108 128.301C168.108 127.07 167.098 126.202 165.577 126.202C164.082 126.202 163.052 127.09 163.057 128.478H164.459C164.454 127.796 164.891 127.374 165.558 127.379C166.21 127.374 166.686 127.766 166.686 128.399C166.686 128.963 166.328 129.355 165.666 129.988L163.116 132.332L163.126 133.401ZM176.484 125.388H175.238V127.752H173.59V125.967H172.355V127.34H170.599V125.967H169.344V130.557H173.59V128.752H175.238V131.969H176.484V125.388ZM170.54 134.146H176.67V133.146H171.805V131.312H170.54V134.146ZM170.599 129.576V128.291H172.355V129.576H170.599ZM185.115 125.378H183.849V134.323H185.115V125.378ZM177.906 129.184C177.901 131.145 178.896 132.371 180.269 132.371C181.613 132.371 182.614 131.145 182.614 129.184C182.614 127.237 181.613 126.006 180.269 126.006C178.896 126.006 177.901 127.237 177.906 129.184ZM179.112 129.184C179.107 127.86 179.573 127.134 180.269 127.134C180.946 127.134 181.402 127.86 181.407 129.184C181.402 130.513 180.946 131.238 180.269 131.233C179.573 131.238 179.107 130.513 179.112 129.184ZM192.215 130.204H190.97V131.606C190.136 131.631 189.347 131.636 188.675 131.636L188.822 132.646C190.381 132.641 192.5 132.621 194.481 132.244L194.383 131.332C193.686 131.435 192.951 131.503 192.215 131.547V130.204ZM188.851 129.537L189.44 130.478C190.494 130.209 191.205 129.605 191.593 128.826C192 129.566 192.72 130.145 193.765 130.41L194.334 129.439C192.985 129.11 192.318 128.301 192.235 127.438H194.059V126.428H192.215V125.457H190.97V126.428H189.136V127.438H190.94C190.857 128.345 190.2 129.179 188.851 129.537ZM194.893 134.323H196.138V125.378H194.893V134.323ZM204.671 126.153H198.159V127.144H203.416C203.411 128.193 203.396 129.448 203.053 131.135L204.308 131.263C204.666 129.37 204.666 128.115 204.671 126.997V126.153ZM197.315 133.215H205.456V132.195H201.474V129.125H200.228V132.195H197.315V133.215Z" fill="white"/>
<rect x="54.4766" y="118.836" width="90.5612" height="20.9837" rx="10.4918" fill="#FF7179"/>
<path d="M72.6965 125.898H66.4392V126.898H71.4509C71.446 127.668 71.4264 128.546 71.1959 129.694H65.5074V130.704H68.9107V134.313H70.1661V130.704H73.6479V129.694H72.466C72.6916 128.443 72.6916 127.536 72.6965 126.702V125.898ZM81.4646 129.37H76.4038V127.006H81.396V126.006H75.1484V130.361H77.6298V132.263H74.1873V133.283H82.3571V132.263H78.8754V130.361H81.4646V129.37ZM89.9091 125.378H88.6537V134.284H89.9091V129.831H91.1743V128.801H89.9091V125.378ZM82.7691 131.783L83.4752 132.744C86.4764 131.268 87.516 128.958 87.5258 126.29H83.2791V127.31H86.2557C86.0203 129.301 84.8826 130.723 82.7691 131.783ZM98.4124 125.957H94.1264V129.958H98.4124V125.957ZM95.1072 134.205H100.943V130.831H95.1072V134.205ZM95.3622 128.968V126.957H97.1766V128.968H95.3622ZM96.343 133.205V131.822H99.707V133.205H96.343ZM99.6874 130.459H100.943V128.379H102.149V127.379H100.943V125.378H99.6874V130.459ZM110.28 125.378H109.083V134.303H110.28V125.378ZM102.62 129.243C102.62 131.248 103.38 132.489 104.562 132.489C105.66 132.489 106.411 131.425 106.519 129.674H107.239V133.891H108.416V125.506H107.239V128.683H106.509C106.371 127.016 105.636 126.011 104.562 126.016C103.38 126.011 102.62 127.247 102.62 129.243ZM103.777 129.243C103.767 127.874 104.062 127.193 104.562 127.193C105.077 127.193 105.381 127.874 105.376 129.243C105.381 130.616 105.077 131.292 104.562 131.283C104.062 131.292 103.767 130.616 103.777 129.243ZM121.696 128.86H113.536V129.841H121.696V128.86ZM114.478 131.312H119.45V131.812H114.487V134.225H120.921V133.254H115.713V132.705H120.686V130.37H114.478V131.312ZM114.556 128.37H120.725V127.389H115.802V126.555H120.656V125.555H114.556V128.37ZM124.678 126.006C123.324 126.006 122.353 127.237 122.363 129.184C122.353 131.145 123.324 132.371 124.678 132.371C125.923 132.371 126.845 131.322 126.977 129.605H128.512V134.323H129.748V125.378H128.512V128.605H126.963C126.786 126.997 125.884 126.006 124.678 126.006ZM123.559 129.184C123.555 127.86 124.011 127.134 124.678 127.134C125.349 127.134 125.796 127.86 125.796 129.184C125.796 130.513 125.349 131.238 124.678 131.233C124.011 131.238 123.555 130.513 123.559 129.184ZM132.926 126.3H131.415L131.543 131.273H132.798L132.926 126.3ZM131.357 132.665C131.347 133.121 131.72 133.489 132.18 133.489C132.617 133.489 132.995 133.121 132.995 132.665C132.995 132.214 132.617 131.846 132.18 131.851C131.72 131.846 131.347 132.214 131.357 132.665Z" fill="white"/>
</svg>
