<svg width="306" height="400" viewBox="0 0 306 400" fill="none" xmlns="http://www.w3.org/2000/svg">
<rect x="61.293" y="188.703" width="179.059" height="210.999" rx="9.58471" fill="#CDDCF2"/>
<rect x="29.8281" y="95.582" width="243.08" height="286.44" rx="9.58471" fill="#92B3E3"/>
<rect y="0.105469" width="305.1" height="359.523" rx="11.7876" fill="#3973CB"/>
<path d="M47.8203 86.5348C47.8203 77.4266 55.204 70.043 64.3122 70.043H157.364C161.918 70.043 165.61 73.7348 165.61 78.2889V179.586C165.61 184.141 161.918 187.832 157.364 187.832H64.3122C55.204 187.832 47.8203 180.449 47.8203 171.341V86.5348Z" fill="#FFFDC2"/>
<path d="M170.957 78.2889C170.957 73.7348 174.649 70.043 179.203 70.043H272.255C281.363 70.043 288.746 77.4266 288.746 86.5349V171.341C288.746 180.449 281.363 187.832 272.255 187.832H179.203C174.649 187.832 170.957 184.141 170.957 179.586V78.2889Z" fill="#C6DDFF"/>
<path fill-rule="evenodd" clip-rule="evenodd" d="M156.699 34.7383C152.052 34.7383 148.285 38.5051 148.285 43.1518V55.4745C148.285 60.1211 152.052 63.888 156.699 63.888H280.222C284.869 63.888 288.636 60.1211 288.636 55.4745V44.5089C288.707 44.1925 288.746 43.7473 288.746 43.1518C288.746 38.5964 291.601 35.9822 292.673 35.0001C292.789 34.8939 292.884 34.8067 292.953 34.7383C290.688 34.7383 287.978 36.0085 286.235 37.2666C284.707 35.7065 282.578 34.7383 280.222 34.7383H156.699Z" fill="#FF5E67"/>
<path d="M159.641 45.1891C158.407 45.1838 157.606 46.4648 157.606 48.5102C157.606 50.5608 158.407 51.8471 159.641 51.8418C160.885 51.8471 161.692 50.5608 161.697 48.5102C161.692 46.4648 160.885 45.1838 159.641 45.1891ZM158.534 48.5102C158.534 47.0025 158.961 46.1221 159.641 46.1274C160.337 46.1221 160.769 47.0025 160.769 48.5102C160.769 50.0126 160.337 50.8982 159.641 50.8929C158.961 50.8982 158.534 50.0126 158.534 48.5102ZM162.551 53.4127H163.5V50.3658H164.67V53.8766H165.629V44.43H164.67V46.7705H163.5V44.6092H162.551V53.4127ZM163.5 49.5434V47.6035H164.67V49.5434H163.5ZM175.456 48.2993H166.831V49.1006H175.456V48.2993ZM167.865 50.6188H173.368V51.399H167.875V53.7712H174.623V52.9805H168.856V52.137H174.359V49.8492H167.865V50.6188ZM167.959 47.614H174.433V46.8127H168.961V45.5159H174.338V44.7041H167.959V47.614ZM178.692 45.1364C177.28 45.1416 176.273 46.4279 176.278 48.4469C176.273 50.487 177.28 51.7733 178.692 51.768C180.105 51.7733 181.112 50.487 181.117 48.4469C181.112 46.4279 180.105 45.1416 178.692 45.1364ZM177.237 48.4469C177.232 46.9656 177.833 46.0378 178.692 46.0325C179.567 46.0378 180.158 46.9656 180.158 48.4469C180.158 49.9493 179.567 50.8718 178.692 50.8718C177.833 50.8718 177.232 49.9493 177.237 48.4469ZM182.52 53.8766H183.521V48.9741H185.039V48.1306H183.521V44.43H182.52V53.8766ZM196.953 48.1412H195.488V44.43H194.486V53.8661H195.488V48.9635H196.953V48.1412ZM188.487 51.4939H189.267C190.685 51.4992 192.172 51.4043 193.79 51.0827L193.674 50.2392C192.172 50.545 190.796 50.6557 189.478 50.661V45.3472H188.487V51.4939ZM203.374 46.8338V45.2207H202.372V46.8338C202.367 48.5629 201.386 50.3763 199.937 51.0722L200.559 51.884C201.634 51.3252 202.462 50.1918 202.884 48.8528C203.3 50.1127 204.096 51.167 205.124 51.7047L205.746 50.9035C204.339 50.2182 203.363 48.5049 203.374 46.8338ZM206.452 53.8766H207.454V49.0479H208.972V48.1939H207.454V44.43H206.452V53.8766ZM212.926 46.4015V45.9904H215.003V45.1785H209.795V45.9904H211.914V46.4015C211.909 47.6931 211.002 48.9161 209.531 49.4169L210.048 50.2076C211.171 49.8123 212.014 49.0004 212.436 47.9725C212.868 48.9161 213.685 49.6594 214.771 50.0178L215.288 49.2376C213.827 48.7737 212.926 47.6245 212.926 46.4015ZM211.081 53.6763H217.544V52.8645H212.093V50.6821H211.081V53.6763ZM216.258 51.3357H217.259V44.4405H216.258V51.3357ZM229.289 44.4405H228.277V50.8613H226.189V51.6309H228.277V53.8766H229.289V44.4405ZM221.35 49.3747L221.487 50.2182C222.236 50.2129 223.053 50.2023 223.901 50.176V53.5814H224.903V50.1285C225.815 50.0811 226.743 50.002 227.644 49.8808L227.592 49.1428C225.541 49.3536 223.227 49.3642 221.35 49.3747ZM222.172 48.3837H226.832V44.9466H222.172V48.3837ZM223.153 47.5824V45.7479H225.852V47.5824H223.153ZM237.66 44.5354C235.531 44.5301 234.281 45.1153 234.286 46.159C234.281 47.1343 235.335 47.6983 237.154 47.7827V48.4469H233.359V49.2482H241.972V48.4469H238.135V47.7827C239.974 47.7036 241.029 47.1396 241.034 46.159C241.029 45.1153 239.79 44.5301 237.66 44.5354ZM234.392 50.7137H239.895V51.4517H234.402V53.7817H241.15V53.0121H235.383V52.1686H240.886V49.9546H234.392V50.7137ZM235.33 46.159C235.325 45.6055 236.158 45.2892 237.66 45.284C239.173 45.2892 240.006 45.6055 240.001 46.159C240.006 46.7442 239.173 47.0394 237.66 47.0447C236.158 47.0394 235.325 46.7442 235.33 46.159ZM250.533 44.43H249.532V53.8977H250.533V44.43ZM243.216 46.0958H246.622V47.9303H243.227V51.6309H244.028C245.699 51.6257 247.123 51.5624 248.794 51.283L248.699 50.4607C247.117 50.719 245.784 50.7928 244.25 50.798V48.7316H247.645V45.284H243.216V46.0958ZM255.499 47.2134V46.2118H257.65V45.3789H252.326V46.2118H254.487V47.2134C254.477 48.8423 253.422 50.6135 251.999 51.283L252.579 52.0738C253.681 51.5361 254.566 50.3869 255.004 49.0373C255.441 50.2972 256.327 51.341 257.439 51.8313L257.987 51.0511C256.532 50.429 255.494 48.7948 255.499 47.2134ZM258.841 53.8766H259.843V44.43H258.841V53.8766ZM262.901 50.7137V50.7769H263.976V50.7137C263.992 49.8544 264.24 49.4749 264.872 49.09C265.542 48.6789 265.948 48.1148 265.948 47.2661C265.948 46.0642 265.03 45.2418 263.66 45.2418C262.405 45.2418 261.393 45.9745 261.351 47.3188H262.489C262.537 46.5386 263.09 46.1907 263.66 46.1907C264.292 46.1907 264.798 46.6071 264.798 47.2661C264.798 47.8196 264.461 48.2097 264.018 48.4785C263.322 48.9108 262.916 49.3325 262.901 50.7137ZM262.732 52.3057C262.727 52.7169 263.069 53.049 263.48 53.0543C263.886 53.049 264.224 52.7169 264.229 52.3057C264.224 51.8945 263.886 51.5571 263.48 51.5571C263.069 51.5571 262.727 51.8945 262.732 52.3057ZM270.449 53.0543C270.855 53.049 271.193 52.7169 271.198 52.3057C271.193 51.8945 270.855 51.5571 270.449 51.5571C270.038 51.5571 269.696 51.8945 269.701 52.3057C269.696 52.7169 270.038 53.049 270.449 53.0543ZM273.296 53.0543C273.702 53.049 274.039 52.7169 274.045 52.3057C274.039 51.8945 273.702 51.5571 273.296 51.5571C272.885 51.5571 272.542 51.8945 272.548 52.3057C272.542 52.7169 272.885 53.049 273.296 53.0543ZM276.143 53.0543C276.549 53.049 276.886 52.7169 276.891 52.3057C276.886 51.8945 276.549 51.5571 276.143 51.5571C275.732 51.5571 275.389 51.8945 275.394 52.3057C275.389 52.7169 275.732 53.049 276.143 53.0543Z" fill="white"/>
<path fill-rule="evenodd" clip-rule="evenodd" d="M80.6412 221.094C85.2878 221.094 89.0547 224.861 89.0547 229.507V242.366C89.0547 247.012 85.2878 250.779 80.6412 250.779H64.4844C59.8378 250.779 56.0709 247.012 56.0709 242.366V230.511C56.0011 230.234 55.9455 229.874 55.9068 229.419C55.5392 225.101 52.5405 222.86 51.4139 222.018C51.292 221.927 51.1921 221.852 51.1197 221.793C53.4881 221.592 56.4717 222.728 58.2526 223.855C59.7918 222.159 62.0137 221.094 64.4844 221.094H80.6412Z" fill="#FF5E67"/>
<path d="M68.9737 238.695C69.3796 238.69 69.717 238.358 69.7222 237.946C69.717 237.535 69.3796 237.198 68.9737 237.198C68.5625 237.198 68.2198 237.535 68.2251 237.946C68.2198 238.358 68.5625 238.69 68.9737 238.695ZM71.8203 238.695C72.2262 238.69 72.5636 238.358 72.5689 237.946C72.5636 237.535 72.2262 237.198 71.8203 237.198C71.4091 237.198 71.0665 237.535 71.0717 237.946C71.0665 238.358 71.4091 238.69 71.8203 238.695ZM74.667 238.695C75.0729 238.69 75.4103 238.358 75.4155 237.946C75.4103 237.535 75.0729 237.198 74.667 237.198C74.2558 237.198 73.9131 237.535 73.9184 237.946C73.9131 238.358 74.2558 238.69 74.667 238.695Z" fill="white"/>
<rect x="14.8398" y="206.254" width="29.6854" height="29.6854" rx="9.89513" fill="white"/>
<path fill-rule="evenodd" clip-rule="evenodd" d="M103.727 265.625C108.374 265.625 112.141 269.392 112.141 274.039V286.897C112.141 291.544 108.374 295.31 103.727 295.31H64.4817C59.8351 295.31 56.0682 291.544 56.0682 286.897V275.031C55.9996 274.756 55.945 274.399 55.9068 273.95C55.5392 269.632 52.5405 267.391 51.4139 266.549C51.292 266.458 51.1921 266.384 51.1197 266.324C53.4873 266.123 56.4698 267.259 58.2508 268.385C59.79 266.69 62.0116 265.625 64.4817 265.625H103.727Z" fill="#FF5E67"/>
<path d="M75.2613 275.321H74.2597V280.75H75.2613V278.389H76.6319V277.577H75.2613V275.321ZM67.9865 278.115C67.9759 279.432 69.0513 280.355 70.4958 280.36C71.9454 280.355 73.005 279.432 73.0156 278.115C73.005 276.786 71.9454 275.869 70.4958 275.869C69.0513 275.869 67.9759 276.786 67.9865 278.115ZM68.967 278.115C68.9565 277.282 69.6101 276.707 70.4958 276.712C71.3814 276.707 72.0298 277.282 72.0351 278.115C72.0298 278.953 71.3814 279.506 70.4958 279.517C69.6101 279.506 68.9565 278.953 68.967 278.115ZM69.2306 284.651H75.2613V281.183H69.2306V284.651ZM70.2111 283.839V281.984H74.2702V283.839H70.2111ZM85.0348 275.321H84.0437V279.063H81.9245V279.886H84.0437V284.767H85.0348V275.321ZM77.1485 282.226L77.6756 283.017C80.8808 281.43 81.9456 279.069 81.9562 276.333H77.5702V277.134H80.9388C80.7648 279.301 79.6525 281.003 77.1485 282.226ZM95.3249 279.032H93.8594V275.321H92.8578V284.757H93.8594V279.854H95.3249V279.032ZM86.8587 282.385H87.6389C89.057 282.39 90.5436 282.295 92.1619 281.973L92.046 281.13C90.5436 281.436 89.1677 281.546 87.8498 281.552V276.238H86.8587V282.385ZM96.4952 280.655V281.668C96.8273 281.251 97.249 281.035 97.7182 281.035C98.5247 281.035 99.2575 281.636 100.08 281.636C100.554 281.636 100.981 281.436 101.334 281.046V280.033C101.002 280.45 100.581 280.666 100.101 280.666C99.2997 280.666 98.5722 280.065 97.7498 280.065C97.2754 280.065 96.8484 280.265 96.4952 280.655Z" fill="white"/>
<rect x="14.8398" y="250.781" width="29.6854" height="29.6854" rx="9.89513" fill="#C6DDFF"/>
<path fill-rule="evenodd" clip-rule="evenodd" d="M83.9419 310.156C88.5886 310.156 92.3555 313.923 92.3555 318.57V331.428C92.3555 336.075 88.5886 339.842 83.9419 339.842H64.4868C59.8402 339.842 56.0733 336.075 56.0733 331.428V319.552C56.006 319.278 55.9523 318.925 55.9146 318.482C55.547 314.163 52.5483 311.922 51.4217 311.081C51.2998 310.99 51.1999 310.915 51.1275 310.856C53.4944 310.654 56.4757 311.789 58.2569 312.915C59.7961 311.22 62.0172 310.156 64.4869 310.156H83.9419Z" fill="#FF5E67"/>
<path d="M69.954 320.769H68.8153L66.9175 322.013V323.12L68.7415 321.929H68.7837V328.402H69.954V320.769ZM79.4428 319.862H78.4412V322.467H76.3748V320.484H75.3837V322.087H73.022V320.484H72.0204V325.271H76.3748V323.278H78.4412V326.842H79.4428V319.862ZM73.022 324.459V322.857H75.3837V324.459H73.022ZM73.2751 329.098H79.6537V328.286H74.2872V326.157H73.2751V329.098Z" fill="white"/>
<rect x="14.8398" y="295.309" width="29.6854" height="29.6854" rx="9.89513" fill="#FFFDC2"/>
</svg>
