<svg width="148" height="118" viewBox="0 0 148 118" fill="none" xmlns="http://www.w3.org/2000/svg">
<path d="M91.1704 111.067C106.174 116.657 117.376 87.789 104.524 83.8901C89.5389 79.3444 79.1891 106.6 91.1704 111.067Z" fill="#FF5D5D" stroke="white" stroke-width="2.25545" stroke-miterlimit="10"/>
<path d="M110.54 37.3105C114.554 29.6768 118.19 26.1527 121.782 22.6715C122.828 21.6576 123.871 20.6473 124.918 19.5403L125.126 19.32L125.196 19.025C126.393 13.9613 129.422 10.6192 132.735 8.76413C136.099 6.88081 139.64 6.58596 141.825 7.42577L141.825 7.42613C143.569 8.0946 145.276 9.40702 146.19 12.071C147.125 14.7961 147.269 19.0508 145.537 25.6493L145.537 25.6495C143.686 32.7051 138.713 37.1528 136.293 39.2201L135.998 39.4721L135.92 39.8523C134.859 45.0541 132.327 53.6123 125.638 62.6064L125.029 63.4246C122.412 66.8923 119.268 70.7205 115.999 73.6549C114.236 75.2377 112.47 76.5292 110.763 77.3669C109.055 78.205 107.471 78.5576 106.034 78.3646C104.868 78.2079 103.972 77.76 103.272 77.0891C102.562 76.4075 102.003 75.4448 101.612 74.1904C100.823 71.6561 100.781 68.1245 101.376 63.9866C102.561 55.7401 106.202 45.5628 110.54 37.3105ZM110.54 37.3105L109.542 36.7857M110.54 37.3105L109.542 36.7857M109.542 36.7857C113.646 28.98 117.425 25.3189 121.037 21.8205C122.07 20.8199 123.089 19.8326 124.098 18.7654L109.542 36.7857Z" fill="#FF5D5D" stroke="white" stroke-width="2.25545" stroke-miterlimit="10"/>
<path d="M82.9612 64.2647L82.9612 64.2647C86.6029 65.423 89.5754 62.9103 90.8627 60.323C91.5197 59.0025 91.8494 57.4799 91.5805 56.1141C91.2964 54.6708 90.3415 53.4625 88.6513 53.026L88.6511 53.026C85.058 52.0986 82.193 54.5077 80.9374 57.0469C80.2997 58.3364 79.9849 59.8132 80.2314 61.1496C80.4894 62.548 81.3694 63.7583 82.9612 64.2647Z" fill="#FF5D5D" stroke="white" stroke-width="2.25545" stroke-miterlimit="10" stroke-linecap="round"/>
<path d="M3.89218 99.1579C-0.429212 116.483 12.0714 117.064 16.6967 114.178C23.9977 109.623 24.5488 99.9025 23.3848 99.9025C21.461 99.9025 13.1402 115.705 26.9568 116.491C40.7785 117.276 43.1349 100.059 41.7108 100.059C39.7741 100.059 29.1715 118.274 46.7301 116.404C63.3229 114.638 60.3432 87.0576 60.3432 87.0576C69.1019 76.9403 65.7591 65.8943 58.2752 65.8943C45.6253 65.8943 35.7772 82.4851 38.198 82.5747C42.2361 82.7257 44.7677 65.2162 34.9608 65.2162C23.238 65.2162 6.88727 87.1472 3.8896 99.1553L3.89218 99.1579Z" fill="#FF5D5D" stroke="white" stroke-width="2.25545" stroke-miterlimit="10" stroke-linecap="round"/>
<path d="M54.1092 11.8079C53.3922 10.0786 51.5132 7.35199 48.0372 5.30827C46.089 4.16113 41.9182 2.42691 35.8437 3.24735C31.0474 3.89584 27.512 5.72586 25.1732 7.3348C25.052 6.28346 24.1521 3.83689 21.7787 3.83689C17.6969 3.83689 13.1033 9.65855 9.65941 16.0575C2.13615 30.0442 1.69113 44.4068 2.10895 50.2309C3.00393 62.6701 8.61114 67.5731 12.3715 67.5731C18.1444 67.5731 20.2187 61.5254 20.8639 57.325C21.3881 53.9131 21.2743 49.408 20.5153 46.281C23.089 46.5463 28.088 46.7011 32.7459 45.3623C39.6387 43.38 44.032 39.3785 46.0123 37.3152C54.0548 29.5922 57.3108 19.5333 54.1116 11.8079H54.1092ZM32.2341 25.603C28.9187 28.2977 25.7468 29.8968 25.1509 29.1747C24.5551 28.4525 26.7604 25.6792 30.0758 22.9845C33.3912 20.2899 36.5631 18.6907 37.159 19.4129C37.7548 20.1351 35.5495 22.9084 32.2341 25.603Z" fill="#FF5D5D" stroke="white" stroke-width="2.25545" stroke-miterlimit="10" stroke-linecap="round"/>
<path d="M20.9646 48.3908C20.9646 48.3908 19.8347 42.8295 17.4316 38.9583L20.9646 48.3908Z" fill="#FF5D5D"/>
<path d="M20.9646 48.3908C20.9646 48.3908 19.8347 42.8295 17.4316 38.9583" stroke="white" stroke-width="2.25545" stroke-miterlimit="10" stroke-linecap="round"/>
<path d="M70.1311 95.7974C70.1311 97.239 85.2483 90.6799 79.7113 84.8895C75.6706 80.665 64.177 83.6357 61.1999 88.4948C61.1999 88.4948 54.3959 88.2824 53.9813 94.1086C53.6903 98.2103 59.8968 98.8986 60.0874 98.8909C54.1681 99.5913 50.9939 105.185 50.5664 108.356C49.5775 115.72 57.3704 116.382 61.1973 114.481C61.1973 114.481 73.9375 120.53 79.271 112.58C83.9477 105.608 76.2321 103.617 72.4669 104.553C69.9148 105.188 69.0701 104.934 70.1311 105.778C71.5398 106.899 80.9398 105.052 80.9398 97.6704C80.9398 90.2884 69.7361 96.4978 70.1286 95.8L70.1311 95.7974Z" fill="#FF5D5D" stroke="white" stroke-width="2.25545" stroke-miterlimit="10" stroke-linecap="round" stroke-linejoin="round"/>
<path d="M67.1991 2.35747L67.1989 2.35739C64.7171 1.45387 62.3922 1.98486 60.5054 3.26164C58.65 4.51727 57.204 6.49329 56.3003 8.58614C55.3987 10.6742 54.9823 13.0059 55.3307 15.0289C55.687 17.0973 56.8765 18.9196 59.172 19.5977L59.172 19.5977C61.6349 20.3253 63.9021 19.7382 65.7361 18.4646C67.5447 17.2088 68.944 15.2855 69.8189 13.247C70.6919 11.2128 71.0906 8.95139 70.7705 6.96855C70.4451 4.95325 69.3457 3.13943 67.1991 2.35747Z" fill="#FF5D5D" stroke="white" stroke-width="2.25545" stroke-miterlimit="10" stroke-linecap="round"/>
<path d="M45.1293 32.1639C40.7998 37.1697 39.1825 41.9206 38.5089 44.8132C36.9509 45.9581 33.6303 48.4977 32.4136 52.5328C30.2147 59.8331 32.7311 62.3262 35.3158 63.1523C38.6305 64.2114 45.2925 62.2257 46.8861 56.3521C49.7764 53.7266 52.7973 51.9812 56.1387 46.5047C61.685 37.4124 65.4299 24.057 58.302 23.2824C53.8656 22.8019 48.6132 28.1338 45.1293 32.1614V32.1639Z" fill="#FF5D5D" stroke="white" stroke-width="2.25545" stroke-miterlimit="10" stroke-linecap="round"/>
<path d="M69.0493 44.2972C71.6774 40.5821 75.9726 39.7316 76.9046 40.0448C79.5355 44.2768 83.22 43.1106 84.7106 41.7025C87.275 39.2809 89.2432 32.8133 84.9306 29.8417C81.3329 27.3642 75.741 25.5843 68.9972 28.9174C54.0044 36.3247 49.1419 58.2255 61.5877 62.432C76.5486 67.4865 83.8163 51.7401 80.5544 48.1192C79.2548 46.6754 75.2635 46.1993 73.0927 48.5928C69.8076 53.4028 66.3228 48.1472 69.0493 44.2946V44.2972Z" fill="#FF5D5D" stroke="white" stroke-width="2.25545" stroke-miterlimit="10" stroke-linecap="round" stroke-linejoin="round"/>
</svg>
