<svg width="345" height="345" viewBox="0 0 345 345" fill="none" xmlns="http://www.w3.org/2000/svg">
<path d="M172.75 343.5C267.053 343.5 343.5 267.053 343.5 172.75C343.5 78.4474 267.053 2 172.75 2C78.4474 2 2 78.4474 2 172.75C2 267.053 78.4474 343.5 172.75 343.5Z" fill="#FF5C46" stroke="white" stroke-width="3" stroke-miterlimit="10"/>
<path d="M115.818 70.32C108.118 71.81 100.458 73.59 92.8682 75.69V40.55C100.358 38.49 107.908 36.7199 115.498 35.2399C120.058 34.3499 124.088 36.2699 124.088 42.2499C124.088 46.5699 122.188 49.49 119.568 51.44C122.458 52.18 124.588 55.2199 124.588 59.7199C124.588 65.4299 120.468 69.42 115.818 70.32ZM103.008 61.6099C102.798 62.0199 102.588 62.4299 102.378 62.8399C104.438 63.1399 109.468 62.63 112.398 62.05V60.8399C109.468 61.4299 104.758 61.7299 103.008 61.6199V61.6099ZM103.458 46.1999C103.248 46.6099 103.038 47.02 102.828 47.43C104.888 47.74 109.018 47.4299 111.948 46.8399V45.6299C109.018 46.2299 105.208 46.3299 103.458 46.2099V46.1999Z" fill="white"/>
<path d="M140.438 66.6185C134.968 67.2085 129.518 67.9485 124.088 68.8485C127.708 56.5385 131.339 44.2985 134.979 32.1185C140.129 31.4685 145.299 30.9486 150.469 30.5586C154.119 41.9986 157.778 53.5085 161.438 65.0885C155.948 65.2985 150.469 65.6586 144.999 66.1686C144.239 63.8086 143.479 61.4485 142.719 59.0985C141.959 61.6085 141.198 64.1185 140.438 66.6285V66.6185ZM137.529 48.2285C137.259 48.6685 136.978 49.0986 136.708 49.5386C140.168 50.7386 144.818 50.6586 149.148 50.3186C149.148 49.8686 149.148 49.4185 149.148 48.9685C144.808 49.3085 140.669 49.1985 137.529 48.2285Z" fill="white"/>
<path d="M159.838 47.5991C159.838 35.6191 166.239 28.9191 177.999 29.0891C183.629 29.1891 187.968 30.8392 192.078 34.1592V47.6091C184.998 47.1791 179.508 46.4491 171.868 44.9691C171.868 45.4191 171.868 45.8692 171.868 46.3192C179.008 47.9192 185.458 48.5391 192.078 48.9591V60.7892C187.238 64.6792 182.748 65.6791 176.168 65.5991C166.238 65.4991 159.838 59.6691 159.838 47.5891V47.5991Z" fill="white"/>
<path d="M210.458 67.219C205.308 66.569 200.139 66.0591 194.969 65.6791V30.5391C200.139 30.9191 205.308 31.429 210.458 32.079V37.349C209.458 40.029 208.458 42.709 207.458 45.399C207.868 45.549 208.278 45.709 208.688 45.859C210.308 41.389 211.929 36.929 213.549 32.489C218.849 33.209 224.138 34.079 229.398 35.079C227.158 40.499 224.908 45.9491 222.668 51.4191C224.918 57.6591 227.158 63.929 229.398 70.219C224.128 69.209 218.849 68.349 213.549 67.629C212.519 64.519 211.488 61.4191 210.458 58.3191V67.229V67.219Z" fill="white"/>
<path d="M231.338 58.8499V46.3398C238.478 47.7498 245.578 49.4299 252.618 51.3599C252.618 55.5299 252.618 59.6999 252.618 63.8699C245.568 61.9399 238.468 60.2599 231.338 58.8499Z" fill="white"/>
<path d="M66.4084 120.758C66.4084 108.778 73.3385 99.7383 84.6985 96.2383C90.1385 94.5683 95.7086 94.0584 99.2786 95.3184V107.868C92.3586 109.648 89.2485 109.988 82.7485 110.508V120.678C83.2685 120.518 83.7786 120.358 84.2986 120.198V112.148C89.0286 111.678 94.0086 110.548 99.2786 109.218V125.098C95.0786 128.948 89.2885 131.318 82.9285 133.308C73.3485 136.308 66.4084 132.818 66.3984 120.738L66.4084 120.758Z" fill="white"/>
<path d="M134.029 99.7788C134.029 104.099 132.438 106.999 130.208 109.439C131.828 113.359 133.448 117.299 135.068 121.249C129.858 121.909 124.649 122.709 119.469 123.639C118.489 120.979 117.509 118.329 116.529 115.679C116.509 115.679 116.499 115.679 116.489 115.679V124.229C111.679 125.149 106.878 126.179 102.098 127.339C102.098 115.609 102.098 103.879 102.098 92.1488C106.678 91.0388 111.278 90.0388 115.898 89.1488C128.808 86.7288 133.979 90.8388 134.019 99.7688L134.029 99.7788ZM113.568 101.269C113.298 101.699 113.029 102.129 112.759 102.559C115.279 103.649 121.018 103.429 124.418 102.899V101.639C121.018 102.179 115.778 102.169 113.578 101.269H113.568Z" fill="white"/>
<path d="M136.259 103.549C136.259 91.5495 143.528 84.3194 153.448 83.6694C163.408 83.0294 170.739 89.3195 170.729 101.319C170.729 113.349 163.408 119.569 153.448 120.209C143.538 120.849 136.259 115.619 136.259 103.549ZM148.148 100.489C147.878 100.919 147.598 101.349 147.328 101.769C150.798 103.089 155.459 103.179 159.799 102.989C159.799 102.539 159.799 102.089 159.799 101.639C155.459 101.829 151.298 101.569 148.148 100.479V100.489Z" fill="white"/>
<path d="M173.519 101.319C173.519 95.4586 173.519 89.5885 173.519 83.7285C179.039 83.7385 184.558 83.9085 190.068 84.2185V106.179C190.598 106.209 191.138 106.239 191.668 106.279V84.3186C197.118 84.6586 202.569 85.1486 207.999 85.7886V103.379C207.999 115.409 200.719 120.719 190.759 120.129C180.839 119.539 173.519 113.408 173.519 101.328V101.319Z" fill="white"/>
<path d="M245.039 92.4899V127.68C239.159 126.23 233.258 124.96 227.318 123.87C226.118 119.7 224.908 115.54 223.698 111.39V123.22C219.568 122.51 215.419 121.89 211.269 121.36V86.1699C217.259 86.9399 223.218 87.8899 229.168 89.0199C230.778 93.9899 232.389 98.9798 233.989 103.97C234.399 103.95 234.798 103.93 235.208 103.91C234.218 100.9 233.229 97.8899 232.239 94.8799V89.6099C236.519 90.4699 240.789 91.4198 245.039 92.4698V92.4899Z" fill="white"/>
<path d="M260.348 131.849C256.338 130.629 252.309 129.498 248.259 128.448V93.3086C252.199 94.3286 256.129 95.4285 260.039 96.6085C272.909 100.549 279.338 107.449 279.348 121.029C279.338 134.939 273.298 135.829 260.348 131.839V131.849ZM256.719 110.969C256.449 111.299 256.188 111.628 255.918 111.948C260.178 114.558 266.008 117.009 270.618 118.599V117.249C266.018 115.659 260.669 113.229 256.719 110.969Z" fill="white"/>
<path d="M195.387 289.589C209.157 290.939 220.077 288.339 226.457 286.269C230.097 287.459 238.057 289.889 247.197 287.439C263.727 282.999 266.547 276.399 265.977 271.489C265.237 265.189 255.507 256.969 242.357 260.819C234.597 259.149 228.497 256.329 214.637 257.029C191.627 258.189 161.627 266.749 166.227 278.659C169.087 286.079 184.317 288.499 195.397 289.589H195.387Z" fill="#C6DDFF" stroke="white" stroke-width="3" stroke-miterlimit="10"/>
<path d="M187.997 264.68C187.997 264.68 212.697 227.67 243.787 263.23L187.997 264.68Z" fill="#C6DDFF"/>
<path d="M187.997 264.68C196.087 247.9 215.927 238.95 232.257 250.67C237.067 254.02 240.907 258.369 243.787 263.229C239.347 259.739 234.957 256.43 230.227 254.04C214.367 245.38 199.937 253.15 187.997 264.68Z" fill="white"/>
<path d="M163.697 176.819C136.737 172.709 116.417 177.079 104.707 180.789C97.3371 177.959 81.1573 171.709 64.3473 176.389C42.1073 182.579 30.8071 196.169 33.9571 212.709C36.4971 226.039 57.1471 238.989 81.3971 232.239C96.8471 236.439 109.457 242.899 135.997 242.749C180.067 242.509 235.487 227.559 223.157 202.329C215.477 186.619 185.397 180.129 163.707 176.829L163.697 176.819Z" fill="#C6DDFF" stroke="white" stroke-width="3" stroke-miterlimit="10"/>
<path d="M105.957 192.62C105.957 192.62 163.867 113.57 208.517 196.17L105.957 192.62Z" fill="#C6DDFF"/>
<path d="M105.957 192.62C121.777 167.57 155.007 143.51 183.757 163.38C195.247 171.38 203.207 183.69 208.517 196.17C200.897 184.95 192.737 174.19 181.357 167.07C154.237 149.9 124.487 172.91 105.957 192.62Z" fill="white"/>
<path d="M160.917 234.97C160.917 234.97 129.497 276.08 96.0571 232.5L160.917 234.97Z" fill="#C6DDFF"/>
<path d="M160.917 234.97C149.877 253.46 126.747 262.21 108.687 247.67C103.367 243.5 99.1671 238.25 96.0571 232.5C100.817 236.98 105.607 241.24 110.927 244.44C128.727 255.92 146.417 247.91 160.917 234.97Z" fill="white"/>
<path d="M152.957 278.82C149.507 262.48 117.757 268.81 121.497 282.31C125.857 298.05 155.717 291.87 152.957 278.82Z" fill="#C6DDFF" stroke="white" stroke-width="3" stroke-miterlimit="10"/>
<path d="M272.362 170.728C289.602 173.962 278.853 206.294 273.124 198.068C267.965 190.663 293.242 184.081 296.645 200.754C299.648 215.456 272.711 217.485 274.167 209.721C276.236 198.688 296.572 225.356 282.433 233.22C270.293 239.974 256.263 213.986 265.139 215.65C275.829 217.655 256.33 240.034 244.937 228.97C231.694 216.116 258.773 196.726 258.079 206.706C257.438 215.936 229.931 204.793 237.754 189.711C243.606 178.427 272.147 189.391 263.519 196.697C254.892 204.003 253.029 167.102 272.362 170.728Z" fill="#FFFDC2" stroke="white" stroke-width="3" stroke-miterlimit="10"/>
</svg>
