<svg width="173" height="55" viewBox="0 0 173 55" fill="none" xmlns="http://www.w3.org/2000/svg">
<path d="M147.086 52.6454C156.634 55.7651 159.7 42.8272 153.513 41.1827C146.3 39.2655 141.319 50.7613 147.086 52.6454Z" fill="#FF5D5D" stroke="#1E1F21" stroke-miterlimit="10" stroke-linecap="round" stroke-linejoin="round"/>
<path d="M163.677 31.3517C166.734 27.1479 166.956 23.1448 167.441 20.7078C168.538 19.7499 170.876 17.6211 171.748 14.22C173.326 8.06948 171.58 5.9531 169.775 5.24557C167.46 4.3353 161.794 5.16785 160.65 10.1164C158.615 12.3176 156.489 13.7782 154.122 18.3833C150.192 26.0317 148.492 38.1001 153.476 38.7849C158.196 39.4335 161.217 34.7953 163.677 31.4128V31.3517Z" fill="#FF5D5D" stroke="#1E1F21" stroke-miterlimit="10" stroke-linecap="round" stroke-linejoin="round"/>
<path d="M68.2855 52.9164C74.2034 54.8662 77.0967 45.6135 72.4662 44.4425C67.0705 43.0788 63.9674 51.5711 68.2855 52.9164Z" fill="#FF5D5D" stroke="#1E1F21" stroke-miterlimit="10" stroke-linecap="round" stroke-linejoin="round"/>
<path d="M78.8703 39.549C75.3861 53.5569 85.4649 54.0265 89.194 51.6929C95.0806 48.0104 95.5249 40.1511 94.5864 40.1511C93.0353 40.1511 86.3265 52.928 97.4663 53.5631C108.61 54.1982 110.51 40.2773 109.362 40.2773C107.801 40.2773 99.252 55.005 113.409 53.4927C126.787 52.0653 124.385 29.7657 124.385 29.7657C131.446 21.5857 128.751 12.6547 122.717 12.6547C112.518 12.6547 104.578 26.0688 106.53 26.1412C109.786 26.2632 111.827 12.1064 103.92 12.1064C94.468 12.1064 81.2851 29.8381 78.8682 39.547L78.8703 39.549Z" fill="#FF5D5D" stroke="#1E1F21" stroke-miterlimit="10" stroke-linecap="round" stroke-linejoin="round"/>
<path d="M44.6717 8.1612C44.0695 6.75179 42.3792 4.41345 39.4599 2.74778C37.8237 1.81284 35.4246 0.515543 30.3229 1.18421C26.2948 1.71274 23.3256 3.20424 21.3613 4.51555C21.2596 3.65869 19.7356 1.8682 17.7422 1.8682C14.3141 1.8682 9.34407 5.89949 6.45168 11.1147C0.133269 22.5141 0.87169 34.9333 1.2226 39.6801C1.97425 49.8182 7.45166 53.6107 10.6098 53.6107C15.4582 53.6107 18.0705 49.0024 18.6125 45.579C19.0527 42.7982 19.0331 39.7216 18.3957 37.1731C20.5572 37.3893 23.3795 38.2642 27.2914 37.1731C33.0804 35.5575 37.1999 30.6317 38.8631 28.95C45.6175 22.6557 47.3585 14.4575 44.6717 8.1612ZM27.2914 19.4045C24.507 21.6007 21.843 22.904 21.3426 22.3154C20.8422 21.7268 22.6943 19.4665 25.4788 17.2703C28.2632 15.0741 30.9272 13.7708 31.4276 14.3594C31.7973 14.7943 30.0759 17.2083 27.2914 19.4045Z" fill="#FF5D5D" stroke="#1E1F21" stroke-miterlimit="10" stroke-linecap="round" stroke-linejoin="round"/>
<path d="M18.614 38.0137C18.614 38.0137 17.7453 32.9702 14.2708 29.6078L18.614 38.0137Z" fill="#FF5D5D"/>
<path d="M18.614 38.0137C18.614 38.0137 17.7453 32.9702 14.2708 29.6078" stroke="#1E1F21" stroke-miterlimit="10" stroke-linecap="round" stroke-linejoin="round"/>
<path d="M134.015 36.7276C134.015 39.545 146.203 32.59 141.739 27.9083C138.481 24.4927 130.667 27.0697 125.455 29.6755C125.455 29.6755 121.447 30.1768 121.112 34.8875C120.878 38.2038 125.302 39.2368 125.455 39.2306C120.534 40.143 118.585 44.318 118.241 46.8812C117.443 52.8352 123.726 53.371 126.812 51.8339C126.812 51.8339 137.084 56.7246 141.384 50.2968C145.155 44.6593 138.934 43.0498 135.898 43.807C133.84 44.3201 132.127 45.0028 132.983 45.6855C134.119 46.5916 142.729 44.2104 142.729 38.2419C142.729 32.2734 134.013 34.9629 134.013 36.7296L134.015 36.7276Z" fill="#FF5D5D" stroke="#1E1F21" stroke-miterlimit="10" stroke-linecap="round" stroke-linejoin="round"/>
<path d="M53.2989 6.51792C45.7241 4.16918 40.1778 16.543 46.6625 18.1747C56.8318 20.9892 59.4377 8.4214 53.2989 6.51792Z" fill="#FF5D5D" stroke="#1E1F21" stroke-miterlimit="10" stroke-linecap="round" stroke-linejoin="round"/>
<path d="M38.9061 25.9068C35.5481 30.0184 33.4864 35.0795 32.9639 37.4554C31.7556 38.3957 29.663 40.7404 28.7194 44.0547C27.0139 50.051 29.6182 52.2268 31.6229 52.9053C34.1938 53.7752 39.3608 52.1442 40.5967 47.3198C42.8385 45.1633 45.1815 43.7297 47.7731 39.2315C52.0747 31.7633 55.9631 22.7265 49.014 20.9891C45.5732 20.5945 41.6081 22.5985 38.9061 25.9068Z" fill="#FF5D5D" stroke="#1E1F21" stroke-miterlimit="10" stroke-linecap="round" stroke-linejoin="round"/>
<path d="M57.457 37.8674C59.4502 34.8493 61.423 34.3932 62.967 34.3932C64.8037 36.1303 68.0354 36.6112 69.1659 35.4672C72.1506 33.5246 72.6036 28.2457 69.3327 25.8316C66.6041 23.8188 61.6534 22.3729 56.5386 25.0807C45.1674 31.0983 41.4795 48.8905 50.9189 52.3078C64.6518 56.6033 70.7323 44.4424 66.0136 40.6801C65.0279 39.5072 62.0007 39.1204 60.3543 41.0649C57.457 43.5737 55.3891 40.9972 57.457 37.8674Z" fill="#FF5D5D" stroke="#1E1F21" stroke-miterlimit="10" stroke-linecap="round" stroke-linejoin="round"/>
</svg>
