<svg width="346" height="55" viewBox="0 0 346 55" fill="none" xmlns="http://www.w3.org/2000/svg">
<rect y="0.834595" width="346" height="54.1374" rx="18" fill="#FF5D5D"/>
<path d="M72.1797 34.0651H70.6484V21.692H72.1797V34.0651ZM62.2949 26.9557C62.2949 26.0852 62.4316 25.3196 62.7051 24.6588C62.9785 23.998 63.359 23.4899 63.8467 23.1344C64.3389 22.7744 64.8971 22.5944 65.5215 22.5944C66.1367 22.5944 66.6882 22.7744 67.1758 23.1344C67.668 23.4899 68.0531 23.998 68.3311 24.6588C68.609 25.3196 68.748 26.0852 68.748 26.9557C68.748 27.8352 68.609 28.6054 68.3311 29.2662C68.0531 29.927 67.668 30.4375 67.1758 30.7975C66.6882 31.153 66.1367 31.3307 65.5215 31.3307C64.8971 31.3307 64.3389 31.153 63.8467 30.7975C63.359 30.4375 62.9785 29.927 62.7051 29.2662C62.4316 28.6054 62.2949 27.8352 62.2949 26.9557ZM63.7578 26.9557C63.7578 27.58 63.8307 28.1178 63.9766 28.569C64.127 29.0201 64.3343 29.3642 64.5986 29.6012C64.863 29.8382 65.1706 29.9589 65.5215 29.9635C65.8678 29.9589 66.1732 29.8382 66.4375 29.6012C66.7018 29.3642 66.9069 29.0201 67.0527 28.569C67.1986 28.1178 67.2715 27.58 67.2715 26.9557C67.2715 26.3359 67.1986 25.8027 67.0527 25.3561C66.9069 24.9049 66.7018 24.5608 66.4375 24.3239C66.1732 24.0823 65.8678 23.9615 65.5215 23.9615C65.1706 23.9615 64.863 24.0823 64.5986 24.3239C64.3343 24.5608 64.127 24.9049 63.9766 25.3561C63.8307 25.8027 63.7578 26.3359 63.7578 26.9557ZM81.7363 24.6588C81.7318 25.4017 81.848 26.1263 82.085 26.8326C82.3265 27.539 82.6729 28.1725 83.124 28.733C83.5798 29.289 84.1198 29.7174 84.7441 30.0182L83.8145 31.235C83.1582 30.9023 82.5885 30.4283 82.1055 29.8131C81.627 29.1979 81.2533 28.4869 80.9844 27.6803C80.7064 28.5416 80.3145 29.3027 79.8086 29.9635C79.3073 30.6198 78.7103 31.1211 78.0176 31.4674L77.0879 30.2506C77.7305 29.9453 78.2865 29.5009 78.7559 28.9176C79.2298 28.3297 79.5898 27.6666 79.8359 26.9283C80.0866 26.1855 80.2142 25.429 80.2188 24.6588V22.6901H81.7363V24.6588ZM85.4824 21.692H87V26.5319H88.9004V27.8307H87V34.0514H85.4824V21.692ZM94.1094 24.2076C94.1094 24.7272 94.2256 25.2285 94.458 25.7115C94.6904 26.1946 95.0345 26.6253 95.4902 27.0035C95.946 27.3772 96.4928 27.6621 97.1309 27.858L96.3516 29.0475C95.6634 28.8242 95.0664 28.4938 94.5605 28.0563C94.0547 27.6142 93.6559 27.0924 93.3643 26.4908C93.0817 27.1425 92.6784 27.7099 92.1543 28.193C91.6348 28.6761 91.015 29.0429 90.2949 29.2936L89.5156 28.0905C90.1582 27.8763 90.7096 27.5709 91.1699 27.1744C91.6302 26.7734 91.9788 26.3177 92.2158 25.8073C92.4528 25.2923 92.5736 24.7591 92.5781 24.2076V23.8522H89.9121V22.6354H96.707V23.8522H94.1094V24.2076ZM91.5391 29.8541H93.0703V32.5748H100.057V33.8053H91.5391V29.8541ZM98.1836 21.7057H99.7148V30.6744H98.1836V21.7057ZM107.139 21.8834C108.077 21.8834 108.88 21.9655 109.545 22.1295C110.21 22.2936 110.718 22.5351 111.069 22.8541C111.42 23.1686 111.596 23.5514 111.596 24.0026C111.596 24.4583 111.42 24.8457 111.069 25.1647C110.718 25.4837 110.21 25.7252 109.545 25.8893C108.88 26.0488 108.077 26.1308 107.139 26.1354C106.2 26.1308 105.398 26.0488 104.732 25.8893C104.067 25.7252 103.559 25.4837 103.208 25.1647C102.857 24.8457 102.682 24.4583 102.682 24.0026C102.682 23.5514 102.857 23.1686 103.208 22.8541C103.559 22.5351 104.067 22.2959 104.732 22.1364C105.398 21.9723 106.2 21.888 107.139 21.8834ZM101.52 26.7916H112.785V28.0084H101.52V26.7916ZM102.846 28.8424H111.377V31.8639H104.35V32.7799H111.719V33.942H102.859V30.7838H109.887V29.9635H102.846V28.8424ZM104.281 24.0026C104.277 24.3398 104.514 24.5905 104.992 24.7545C105.471 24.9186 106.186 25.0006 107.139 25.0006C108.1 25.0006 108.82 24.9186 109.299 24.7545C109.782 24.5905 110.023 24.3398 110.023 24.0026C110.023 23.6836 109.777 23.4375 109.285 23.2643C108.798 23.0911 108.082 23.0045 107.139 23.0045C106.204 23.0045 105.493 23.0911 105.006 23.2643C104.518 23.4375 104.277 23.6836 104.281 24.0026ZM121.439 23.8795C121.435 24.4355 121.542 24.971 121.761 25.486C121.984 26.0009 122.314 26.4589 122.752 26.86C123.189 27.2565 123.718 27.5618 124.338 27.776L123.504 28.9655C122.848 28.7194 122.283 28.3662 121.809 27.9059C121.335 27.4456 120.963 26.9056 120.694 26.2858C120.425 26.9785 120.038 27.58 119.532 28.0905C119.026 28.6009 118.418 28.9882 117.707 29.2526L116.9 28.0494C117.543 27.8307 118.09 27.5094 118.541 27.0856C118.992 26.6617 119.332 26.1718 119.56 25.6158C119.787 25.0599 119.904 24.4765 119.908 23.8658V22.4576H121.439V23.8795ZM119.143 29.8815H120.688V32.5748H127.564V33.8053H119.143V29.8815ZM123.312 24.4264H125.773V21.7057H127.291V30.8795H125.773V25.6705H123.312V24.4264ZM134.359 23.7701H130.969V24.9733H134.236V26.1354H130.969V27.4342C131.766 27.4251 132.448 27.4 133.013 27.359C133.582 27.318 134.154 27.2428 134.729 27.1334L134.893 28.3639C134.236 28.4869 133.596 28.5712 132.972 28.6168C132.347 28.6578 131.573 28.6783 130.647 28.6783H130.326H129.506V22.5533H134.359V23.7701ZM131.146 29.7721H139.609V34.0514H138.092V31.0026H131.146V29.7721ZM135.453 21.9381H136.875V24.7955H138.16V21.7057H139.609V29.2252H138.16V26.0123H136.875V29.1295H135.453V21.9381ZM150.889 25.5885H152.611V26.8463H150.889V30.9342H149.371V21.7057H150.889V25.5885ZM141.154 23.0729H144.066V21.692H145.584V23.0729H148.482V24.2897H141.154V23.0729ZM141.783 27.1608C141.783 26.6914 141.911 26.2789 142.166 25.9235C142.421 25.5634 142.779 25.2854 143.239 25.0895C143.7 24.8935 144.226 24.7955 144.818 24.7955C145.406 24.7955 145.928 24.8935 146.384 25.0895C146.844 25.2854 147.202 25.5634 147.457 25.9235C147.712 26.2789 147.84 26.6914 147.84 27.1608C147.84 27.6256 147.712 28.0358 147.457 28.3912C147.202 28.7421 146.846 29.0156 146.391 29.2115C145.935 29.403 145.411 29.4987 144.818 29.4987C144.221 29.4987 143.693 29.403 143.232 29.2115C142.777 29.0156 142.421 28.7421 142.166 28.3912C141.911 28.0358 141.783 27.6256 141.783 27.1608ZM142.973 30.2096H144.49V32.5748H151.381V33.8053H142.973V30.2096ZM143.26 27.1608C143.255 27.5253 143.392 27.8102 143.67 28.0153C143.952 28.2203 144.328 28.3229 144.798 28.3229C145.281 28.3229 145.666 28.2226 145.953 28.0221C146.245 27.817 146.391 27.5299 146.391 27.1608C146.391 26.7916 146.247 26.5022 145.96 26.2926C145.673 26.0784 145.292 25.9713 144.818 25.9713C144.344 25.9713 143.964 26.0784 143.677 26.2926C143.394 26.5022 143.255 26.7916 143.26 27.1608ZM166.844 34.0651H165.312V21.692H166.844V34.0651ZM156.959 26.9557C156.959 26.0852 157.096 25.3196 157.369 24.6588C157.643 23.998 158.023 23.4899 158.511 23.1344C159.003 22.7744 159.561 22.5944 160.186 22.5944C160.801 22.5944 161.352 22.7744 161.84 23.1344C162.332 23.4899 162.717 23.998 162.995 24.6588C163.273 25.3196 163.412 26.0852 163.412 26.9557C163.412 27.8352 163.273 28.6054 162.995 29.2662C162.717 29.927 162.332 30.4375 161.84 30.7975C161.352 31.153 160.801 31.3307 160.186 31.3307C159.561 31.3307 159.003 31.153 158.511 30.7975C158.023 30.4375 157.643 29.927 157.369 29.2662C157.096 28.6054 156.959 27.8352 156.959 26.9557ZM158.422 26.9557C158.422 27.58 158.495 28.1178 158.641 28.569C158.791 29.0201 158.998 29.3642 159.263 29.6012C159.527 29.8382 159.835 29.9589 160.186 29.9635C160.532 29.9589 160.837 29.8382 161.102 29.6012C161.366 29.3642 161.571 29.0201 161.717 28.569C161.863 28.1178 161.936 27.58 161.936 26.9557C161.936 26.3359 161.863 25.8027 161.717 25.3561C161.571 24.9049 161.366 24.5608 161.102 24.3239C160.837 24.0823 160.532 23.9615 160.186 23.9615C159.835 23.9615 159.527 24.0823 159.263 24.3239C158.998 24.5608 158.791 24.9049 158.641 25.3561C158.495 25.8027 158.422 26.3359 158.422 26.9557ZM179.941 29.8541H177.193V34.0514H175.648V29.8541H172.914V34.0514H171.355V29.8541H168.648V28.6237H179.941V29.8541ZM169.838 24.8912C169.838 24.3398 170.022 23.8567 170.392 23.442C170.761 23.0227 171.28 22.6992 171.95 22.4713C172.625 22.2434 173.397 22.1295 174.268 22.1295C175.143 22.1295 175.915 22.2434 176.585 22.4713C177.259 22.6992 177.784 23.0227 178.157 23.442C178.535 23.8567 178.725 24.3398 178.725 24.8912C178.725 25.4381 178.535 25.9166 178.157 26.3268C177.784 26.7324 177.259 27.0468 176.585 27.2701C175.915 27.4889 175.143 27.5983 174.268 27.5983C173.393 27.5983 172.62 27.4889 171.95 27.2701C171.28 27.0468 170.761 26.7324 170.392 26.3268C170.022 25.9166 169.838 25.4381 169.838 24.8912ZM171.396 24.8912C171.396 25.2011 171.513 25.47 171.745 25.6979C171.982 25.9212 172.317 26.0944 172.75 26.2174C173.183 26.3359 173.689 26.3951 174.268 26.3951C174.851 26.3951 175.359 26.3359 175.792 26.2174C176.225 26.0944 176.56 25.9212 176.797 25.6979C177.034 25.47 177.152 25.2011 177.152 24.8912C177.152 24.5722 177.034 24.2988 176.797 24.0709C176.56 23.8385 176.225 23.663 175.792 23.5446C175.359 23.4215 174.851 23.36 174.268 23.36C173.689 23.36 173.183 23.4215 172.75 23.5446C172.317 23.663 171.982 23.8385 171.745 24.0709C171.513 24.2988 171.396 24.5722 171.396 24.8912Z" fill="white"/>
<path d="M313.886 29.8346L318.029 25.8346L322.173 29.8346" stroke="white" stroke-width="2" stroke-linecap="round" stroke-linejoin="round"/>
</svg>
