<svg width="332" height="58" viewBox="0 0 332 58" fill="none" xmlns="http://www.w3.org/2000/svg">
<rect width="332" height="58" rx="22" fill="#FF5D5D"/>
<path d="M74.623 21.7441H72.9531V37.5293H74.623V21.7441ZM62.125 28.4414C62.125 31.8428 63.8213 33.9873 66.2031 33.9785C68.541 33.9873 70.2637 31.8428 70.2637 28.4414C70.2637 25.0752 68.541 22.9307 66.2031 22.9219C63.8213 22.9307 62.125 25.0752 62.125 28.4414ZM63.7422 28.4414C63.7334 25.9717 64.7354 24.4248 66.2031 24.416C67.6445 24.4248 68.6465 25.9717 68.6465 28.4414C68.6465 30.9463 67.6445 32.4844 66.2031 32.4844C64.7354 32.4844 63.7334 30.9463 63.7422 28.4414ZM86.998 25.752V23.0625H85.3281V25.752C85.3193 28.6348 83.6846 31.6582 81.2676 32.8184L82.3047 34.1719C84.0977 33.2402 85.4775 31.3506 86.1807 29.1182C86.875 31.2188 88.2021 32.9766 89.916 33.873L90.9531 32.5371C88.6064 31.3945 86.9805 28.5381 86.998 25.752ZM92.1309 37.4941H93.8008V29.4434H96.332V28.0195H93.8008V21.7441H92.1309V37.4941ZM102.924 25.0312V24.3457H106.387V22.9922H97.7031V24.3457H101.236V25.0312C101.228 27.1846 99.7158 29.2236 97.2637 30.0586L98.125 31.377C99.9971 30.7178 101.403 29.3643 102.106 27.6504C102.827 29.2236 104.189 30.4629 106 31.0605L106.861 29.7598C104.427 28.9863 102.924 27.0703 102.924 25.0312ZM99.8477 37.1602H110.623V35.8066H101.535V32.168H99.8477V37.1602ZM108.479 33.2578H110.148V21.7617H108.479V33.2578ZM119.816 22.0078C116.266 21.999 114.183 22.957 114.191 24.7148C114.183 26.4814 116.266 27.4395 119.816 27.4395C123.367 27.4395 125.433 26.4814 125.441 24.7148C125.433 22.957 123.367 21.999 119.816 22.0078ZM112.645 29.7422H127.006V28.4062H112.645V29.7422ZM114.367 32.2031H123.543V33.4336H114.385V37.3359H125.635V36.0527H116.02V34.6465H125.195V30.9551H114.367V32.2031ZM115.932 24.7148C115.923 23.7832 117.312 23.2383 119.816 23.2383C122.339 23.2383 123.728 23.7832 123.719 24.7148C123.728 25.6904 122.339 26.1914 119.816 26.1914C117.312 26.1914 115.923 25.6904 115.932 24.7148ZM138.15 24.627V22.7109H136.498V24.5742C136.489 26.9473 135.03 29.1357 132.578 30.0059L133.475 31.3242C135.329 30.6123 136.674 29.1797 137.351 27.3691C138.027 28.9951 139.319 30.2959 141.033 30.9551L141.947 29.6543C139.574 28.8193 138.159 26.7627 138.15 24.627ZM135.443 37.1602H146.078V35.8066H137.131V32.1855H135.443V37.1602ZM140.734 26.7188H144.057V33.5039H145.727V21.7617H144.057V25.3477H140.734V26.7188ZM154.955 22.8691H148.803V30.5508H149.822C152.327 30.5596 153.83 30.4893 155.676 30.1465L155.518 28.7754C153.892 29.083 152.512 29.1621 150.402 29.1797V27.2637H154.779V25.9805H150.402V24.2227H154.955V22.8691ZM150.877 33.4336H159.93V37.4941H161.582V32.0801H150.877V33.4336ZM156.502 31.2012H158.066V27.123H160V31.3242H161.582V21.7617H160V25.7695H158.066V22.043H156.502V31.2012ZM176.084 21.7617H174.414V33.5391H176.084V28.2129H178.369V26.8242H176.084V21.7617ZM163.727 24.9434H173.113V23.5898H169.264V21.7441H167.594V23.5898H163.727V24.9434ZM164.588 28.6699C164.579 30.4541 166.135 31.6143 168.42 31.623C170.679 31.6143 172.234 30.4541 172.234 28.6699C172.234 26.8682 170.679 25.6904 168.42 25.6992C166.135 25.6904 164.579 26.8682 164.588 28.6699ZM166.1 37.1602H176.752V35.8066H167.77V32.6074H166.1V37.1602ZM166.205 28.6699C166.188 27.6328 167.084 26.9912 168.42 26.9824C169.756 26.9912 170.652 27.6328 170.67 28.6699C170.652 29.6982 169.756 30.3311 168.42 30.3223C167.084 30.3311 166.188 29.6982 166.205 28.6699ZM196.703 21.7441H195.033V37.5293H196.703V21.7441ZM184.205 28.4414C184.205 31.8428 185.901 33.9873 188.283 33.9785C190.621 33.9873 192.344 31.8428 192.344 28.4414C192.344 25.0752 190.621 22.9307 188.283 22.9219C185.901 22.9307 184.205 25.0752 184.205 28.4414ZM185.822 28.4414C185.813 25.9717 186.815 24.4248 188.283 24.416C189.725 24.4248 190.727 25.9717 190.727 28.4414C190.727 30.9463 189.725 32.4844 188.283 32.4844C186.815 32.4844 185.813 30.9463 185.822 28.4414ZM213.613 30.6387H199.199V32.0098H202.785V37.4941H204.508V32.0098H208.27V37.4941H209.957V32.0098H213.613V30.6387ZM200.764 25.8223C200.772 27.9229 203.04 29.25 206.371 29.2324C209.702 29.25 211.987 27.9229 211.979 25.8223C211.987 23.6953 209.702 22.3418 206.371 22.3418C203.04 22.3418 200.772 23.6953 200.764 25.8223ZM202.486 25.8223C202.478 24.4951 204.033 23.6865 206.371 23.6777C208.718 23.6865 210.265 24.4951 210.273 25.8223C210.265 27.1143 208.718 27.9141 206.371 27.9141C204.033 27.9141 202.478 27.1143 202.486 25.8223Z" fill="white"/>
<path d="M309.138 27L305.162 31L301.186 27" stroke="white" stroke-width="2.33741" stroke-linecap="round" stroke-linejoin="round"/>
<circle cx="28" cy="29" r="18" fill="white"/>
<path d="M28 36.8813L26.9125 35.8913C23.05 32.3888 20.5 30.0788 20.5 27.2438C20.5 24.9338 22.315 23.1188 24.625 23.1188C25.93 23.1188 27.1825 23.7263 28 24.6863C28.8175 23.7263 30.07 23.1188 31.375 23.1188C33.685 23.1188 35.5 24.9338 35.5 27.2438C35.5 30.0788 32.95 32.3888 29.0875 35.8988L28 36.8813Z" fill="#FF5D5D"/>
</svg>
