<svg width="332" height="58" viewBox="0 0 332 58" fill="none" xmlns="http://www.w3.org/2000/svg">
<rect width="332" height="58" rx="22" fill="#FF5E67"/>
<path d="M73.1094 22.3281H71.625V36.3594H73.1094V22.3281ZM62 28.2812C62 31.3047 63.5078 33.2109 65.625 33.2031C67.7031 33.2109 69.2344 31.3047 69.2344 28.2812C69.2344 25.2891 67.7031 23.3828 65.625 23.375C63.5078 23.3828 62 25.2891 62 28.2812ZM63.4375 28.2812C63.4297 26.0859 64.3203 24.7109 65.625 24.7031C66.9062 24.7109 67.7969 26.0859 67.7969 28.2812C67.7969 30.5078 66.9062 31.875 65.625 31.875C64.3203 31.875 63.4297 30.5078 63.4375 28.2812ZM84.1094 25.8906V23.5H82.625V25.8906C82.6172 28.4531 81.1641 31.1406 79.0156 32.1719L79.9375 33.375C81.5312 32.5469 82.7578 30.8672 83.3828 28.8828C84 30.75 85.1797 32.3125 86.7031 33.1094L87.625 31.9219C85.5391 30.9062 84.0938 28.3672 84.1094 25.8906ZM88.6719 36.3281H90.1562V29.1719H92.4062V27.9062H90.1562V22.3281H88.6719V36.3281ZM98.2656 25.25V24.6406H101.344V23.4375H93.625V24.6406H96.7656V25.25C96.7578 27.1641 95.4141 28.9766 93.2344 29.7188L94 30.8906C95.6641 30.3047 96.9141 29.1016 97.5391 27.5781C98.1797 28.9766 99.3906 30.0781 101 30.6094L101.766 29.4531C99.6016 28.7656 98.2656 27.0625 98.2656 25.25ZM95.5312 36.0312H105.109V34.8281H97.0312V31.5938H95.5312V36.0312ZM103.203 32.5625H104.688V22.3438H103.203V32.5625ZM113.281 22.5625C110.125 22.5547 108.273 23.4062 108.281 24.9688C108.273 26.5391 110.125 27.3906 113.281 27.3906C116.438 27.3906 118.273 26.5391 118.281 24.9688C118.273 23.4062 116.438 22.5547 113.281 22.5625ZM106.906 29.4375H119.672V28.25H106.906V29.4375ZM108.438 31.625H116.594V32.7188H108.453V36.1875H118.453V35.0469H109.906V33.7969H118.062V30.5156H108.438V31.625ZM109.828 24.9688C109.82 24.1406 111.055 23.6562 113.281 23.6562C115.523 23.6562 116.758 24.1406 116.75 24.9688C116.758 25.8359 115.523 26.2812 113.281 26.2812C111.055 26.2812 109.82 25.8359 109.828 24.9688ZM129.578 24.8906V23.1875H128.109V24.8438C128.102 26.9531 126.805 28.8984 124.625 29.6719L125.422 30.8438C127.07 30.2109 128.266 28.9375 128.867 27.3281C129.469 28.7734 130.617 29.9297 132.141 30.5156L132.953 29.3594C130.844 28.6172 129.586 26.7891 129.578 24.8906ZM127.172 36.0312H136.625V34.8281H128.672V31.6094H127.172V36.0312ZM131.875 26.75H134.828V32.7812H136.312V22.3438H134.828V25.5312H131.875V26.75ZM144.516 23.3281H139.047V30.1562H139.953C142.18 30.1641 143.516 30.1016 145.156 29.7969L145.016 28.5781C143.57 28.8516 142.344 28.9219 140.469 28.9375V27.2344H144.359V26.0938H140.469V24.5312H144.516V23.3281ZM140.891 32.7188H148.938V36.3281H150.406V31.5156H140.891V32.7188ZM145.891 30.7344H147.281V27.1094H149V30.8438H150.406V22.3438H149V25.9062H147.281V22.5938H145.891V30.7344ZM163.297 22.3438H161.812V32.8125H163.297V28.0781H165.328V26.8438H163.297V22.3438ZM152.312 25.1719H160.656V23.9688H157.234V22.3281H155.75V23.9688H152.312V25.1719ZM153.078 28.4844C153.07 30.0703 154.453 31.1016 156.484 31.1094C158.492 31.1016 159.875 30.0703 159.875 28.4844C159.875 26.8828 158.492 25.8359 156.484 25.8438C154.453 25.8359 153.07 26.8828 153.078 28.4844ZM154.422 36.0312H163.891V34.8281H155.906V31.9844H154.422V36.0312ZM154.516 28.4844C154.5 27.5625 155.297 26.9922 156.484 26.9844C157.672 26.9922 158.469 27.5625 158.484 28.4844C158.469 29.3984 157.672 29.9609 156.484 29.9531C155.297 29.9609 154.5 29.3984 154.516 28.4844ZM181.625 22.3281H180.141V36.3594H181.625V22.3281ZM170.516 28.2812C170.516 31.3047 172.023 33.2109 174.141 33.2031C176.219 33.2109 177.75 31.3047 177.75 28.2812C177.75 25.2891 176.219 23.3828 174.141 23.375C172.023 23.3828 170.516 25.2891 170.516 28.2812ZM171.953 28.2812C171.945 26.0859 172.836 24.7109 174.141 24.7031C175.422 24.7109 176.312 26.0859 176.312 28.2812C176.312 30.5078 175.422 31.875 174.141 31.875C172.836 31.875 171.945 30.5078 171.953 28.2812ZM196.656 30.2344H183.844V31.4531H187.031V36.3281H188.562V31.4531H191.906V36.3281H193.406V31.4531H196.656V30.2344ZM185.234 25.9531C185.242 27.8203 187.258 29 190.219 28.9844C193.18 29 195.211 27.8203 195.203 25.9531C195.211 24.0625 193.18 22.8594 190.219 22.8594C187.258 22.8594 185.242 24.0625 185.234 25.9531ZM186.766 25.9531C186.758 24.7734 188.141 24.0547 190.219 24.0469C192.305 24.0547 193.68 24.7734 193.688 25.9531C193.68 27.1016 192.305 27.8125 190.219 27.8125C188.141 27.8125 186.758 27.1016 186.766 25.9531Z" fill="white"/>
<path d="M309.138 27L305.162 31L301.186 27" stroke="white" stroke-width="2.33741" stroke-linecap="round" stroke-linejoin="round"/>
<circle cx="28" cy="29" r="18" fill="white"/>
<path d="M28 36.8813L26.9125 35.8913C23.05 32.3888 20.5 30.0788 20.5 27.2438C20.5 24.9338 22.315 23.1188 24.625 23.1188C25.93 23.1188 27.1825 23.7263 28 24.6863C28.8175 23.7263 30.07 23.1188 31.375 23.1188C33.685 23.1188 35.5 24.9338 35.5 27.2438C35.5 30.0788 32.95 32.3888 29.0875 35.8988L28 36.8813Z" fill="#FF5E67"/>
</svg>
