<svg width="430" height="229" viewBox="0 0 430 229" fill="none" xmlns="http://www.w3.org/2000/svg">
<rect width="430" height="229" fill="#1E1F21"/>
<path d="M273.563 152.402C280.33 154.922 285.383 141.907 279.586 140.149C272.827 138.099 268.159 150.388 273.563 152.402Z" fill="#FF5D5D" stroke="#1E1F21" stroke-width="1.3" stroke-miterlimit="10" stroke-linecap="round" stroke-linejoin="round"/>
<path d="M289.433 130.314C292.51 126.082 293.676 122.051 294.166 119.598C295.269 118.633 297.623 116.49 298.501 113.066C300.09 106.874 298.332 104.743 296.515 104.031C294.184 103.114 289.481 104.772 288.329 109.754C286.28 111.97 284.14 113.441 281.757 118.077C277.799 125.778 275.088 137.108 280.105 137.798C283.228 138.227 286.958 133.719 289.435 130.314H289.433Z" fill="#FF5D5D" stroke="#1E1F21" stroke-width="1.3" stroke-miterlimit="10" stroke-linecap="round" stroke-linejoin="round"/>
<path d="M196.187 152.508C200.853 154.218 204.281 145.243 200.284 144.053C195.626 142.668 192.459 151.141 196.187 152.508Z" fill="#FF5D5D" stroke="#1E1F21" stroke-width="1.3" stroke-miterlimit="10" stroke-linecap="round" stroke-linejoin="round"/>
<path d="M206.741 138.567C203.234 152.67 213.381 153.142 217.135 150.793C223.062 147.086 223.509 139.173 222.564 139.173C221.003 139.173 214.248 152.036 225.464 152.676C236.683 153.315 238.596 139.3 237.44 139.3C235.868 139.3 227.261 154.128 241.514 152.605C254.983 151.168 252.565 128.717 252.565 128.717C259.674 120.482 256.961 111.49 250.886 111.49C240.618 111.49 232.624 124.995 234.589 125.068C237.866 125.191 239.921 110.938 231.961 110.938C222.445 110.938 209.173 128.79 206.739 138.565L206.741 138.567Z" fill="#FF5D5D" stroke="#1E1F21" stroke-width="1.3" stroke-miterlimit="10" stroke-linecap="round" stroke-linejoin="round"/>
<path d="M175.061 105.439C174.455 103.973 172.866 101.661 169.927 99.9281C168.28 98.9555 164.753 97.485 159.617 98.1806C155.561 98.7305 152.572 100.282 150.594 101.646C150.492 100.755 149.731 98.6805 147.724 98.6805C144.273 98.6805 140.388 103.617 137.476 109.043C131.115 120.902 130.739 133.081 131.092 138.019C131.849 148.567 136.59 152.724 139.77 152.724C144.651 152.724 146.405 147.596 146.95 144.034C147.394 141.141 147.297 137.321 146.656 134.67C148.832 134.895 153.059 135.026 156.997 133.891C162.825 132.21 166.54 128.817 168.215 127.067C175.015 120.519 177.768 111.99 175.063 105.439H175.061ZM156.565 117.137C153.761 119.421 151.079 120.777 150.575 120.165C150.072 119.553 151.936 117.201 154.74 114.916C157.543 112.631 160.225 111.275 160.729 111.888C161.233 112.5 159.368 114.852 156.565 117.137Z" fill="#FF5D5D" stroke="#1E1F21" stroke-width="1.3" stroke-miterlimit="10" stroke-linecap="round" stroke-linejoin="round"/>
<path d="M146.655 134.67C146.655 134.67 145.7 129.955 143.668 126.672L146.655 134.67Z" fill="#FF5D5D"/>
<path d="M146.655 134.67C146.655 134.67 145.7 129.955 143.668 126.672" stroke="#1E1F21" stroke-width="1.3" stroke-miterlimit="10" stroke-linecap="round" stroke-linejoin="round"/>
<path d="M260.514 135.726C260.514 136.942 272.785 131.56 268.29 126.847C265.01 123.408 255.68 125.826 253.264 129.782C253.264 129.782 247.741 129.609 247.404 134.351C247.168 137.69 252.206 138.25 252.361 138.244C247.406 139.163 244.979 143.368 244.632 145.949C243.83 151.943 250.155 152.482 253.262 150.935C253.262 150.935 263.603 155.859 267.933 149.387C271.729 143.712 265.466 142.091 262.41 142.853C260.338 143.37 258.613 144.057 259.475 144.745C260.618 145.657 269.287 143.26 269.287 137.251C269.287 131.242 260.511 133.949 260.511 135.728L260.514 135.726Z" fill="#FF5D5D" stroke="#1E1F21" stroke-width="1.3" stroke-miterlimit="10" stroke-linecap="round" stroke-linejoin="round"/>
<path d="M183.329 104.873C176.545 102.397 171.578 115.443 177.386 117.164C184.157 119.17 188.745 106.852 183.329 104.873Z" fill="#FF5D5D" stroke="#1E1F21" stroke-width="1.3" stroke-miterlimit="10" stroke-linecap="round" stroke-linejoin="round"/>
<path d="M167.607 127.064C164.557 131.317 163.418 135.353 162.943 137.811C161.846 138.784 159.506 140.942 158.649 144.37C157.1 150.573 158.873 152.691 160.694 153.393C163.029 154.293 167.722 152.606 168.845 147.615C170.881 145.384 173.009 143.901 175.363 139.248C179.27 131.523 181.908 120.176 176.887 119.518C173.761 119.109 170.061 123.64 167.607 127.062V127.064Z" fill="#FF5D5D" stroke="#1E1F21" stroke-width="1.3" stroke-miterlimit="10" stroke-linecap="round" stroke-linejoin="round"/>
<path d="M184.396 137.077C186.295 134.038 189.397 133.343 190.07 133.599C191.97 137.061 194.631 136.107 195.708 134.955C197.56 132.974 198.982 127.684 195.867 125.253C193.268 123.227 189.23 121.771 184.359 124.497C173.53 130.556 170.018 148.47 179.007 151.911C189.813 156.046 195.062 143.165 192.706 140.204C191.767 139.023 188.885 138.633 187.317 140.591C184.944 144.526 182.427 140.227 184.396 137.075V137.077Z" fill="#FF5D5D" stroke="#1E1F21" stroke-width="1.3" stroke-miterlimit="10" stroke-linecap="round" stroke-linejoin="round"/>
</svg>
