<svg width="173" height="55" viewBox="0 0 173 55" fill="none" xmlns="http://www.w3.org/2000/svg">
<path d="M147.085 52.6451C156.634 55.7647 159.699 42.8268 153.513 41.1824C146.3 39.2651 141.318 50.7609 147.085 52.6451Z" fill="#FF5E67" stroke="#1E1F21" stroke-miterlimit="10" stroke-linecap="round" stroke-linejoin="round"/>
<path d="M163.676 31.3515C166.732 27.1477 166.954 23.1446 167.44 20.7075C168.537 19.7497 170.875 17.6209 171.747 14.2198C173.325 8.06924 171.579 5.95286 169.774 5.24533C167.459 4.33506 161.793 5.1676 160.649 10.1162C158.614 12.3174 156.488 13.7779 154.121 18.3831C150.191 26.0314 148.491 38.0999 153.475 38.7847C158.194 39.4332 161.216 34.7951 163.676 31.4126V31.3515Z" fill="#FF5E67" stroke="#1E1F21" stroke-miterlimit="10" stroke-linecap="round" stroke-linejoin="round"/>
<path d="M68.2847 52.9162C74.2027 54.866 77.096 45.6134 72.4655 44.4424C67.0698 43.0787 63.9667 51.571 68.2847 52.9162Z" fill="#FF5E67" stroke="#1E1F21" stroke-miterlimit="10" stroke-linecap="round" stroke-linejoin="round"/>
<path d="M78.8693 39.5488C75.3852 53.5566 85.4639 54.0262 89.1931 51.6926C95.0797 48.0102 95.524 40.1508 94.5855 40.1508C93.0344 40.1508 86.3256 52.9277 97.4654 53.5628C108.609 54.198 110.509 40.277 109.361 40.277C107.8 40.277 99.2511 55.0048 113.408 53.4925C126.786 52.065 124.384 29.7655 124.384 29.7655C131.445 21.5854 128.75 12.6544 122.716 12.6544C112.517 12.6544 104.577 26.0685 106.529 26.1409C109.785 26.263 111.826 12.1062 103.919 12.1062C94.4671 12.1062 81.2842 29.8379 78.8673 39.5467L78.8693 39.5488Z" fill="#FF5E67" stroke="#1E1F21" stroke-miterlimit="10" stroke-linecap="round" stroke-linejoin="round"/>
<path d="M44.6717 8.1612C44.0695 6.75179 42.3792 4.41345 39.4599 2.74778C37.8237 1.81284 35.4246 0.515543 30.3229 1.18421C26.2948 1.71274 23.3256 3.20424 21.3613 4.51555C21.2596 3.65869 19.7356 1.8682 17.7422 1.8682C14.3141 1.8682 9.34407 5.89949 6.45168 11.1147C0.133269 22.5141 0.87169 34.9333 1.2226 39.6801C1.97425 49.8182 7.45166 53.6107 10.6098 53.6107C15.4582 53.6107 18.0705 49.0024 18.6125 45.579C19.0527 42.7982 19.0331 39.7216 18.3957 37.1731C20.5572 37.3893 23.3795 38.2642 27.2914 37.1731C33.0804 35.5575 37.1999 30.6317 38.8631 28.95C45.6175 22.6557 47.3585 14.4575 44.6717 8.1612ZM27.2914 19.4045C24.507 21.6007 21.843 22.904 21.3426 22.3154C20.8422 21.7268 22.6943 19.4665 25.4788 17.2703C28.2632 15.0741 30.9272 13.7708 31.4276 14.3594C31.7973 14.7943 30.0759 17.2083 27.2914 19.4045Z" fill="#FF5E67" stroke="#1E1F21" stroke-miterlimit="10" stroke-linecap="round" stroke-linejoin="round"/>
<path d="M18.6147 38.0136C18.6147 38.0136 17.746 32.97 14.2715 29.6077Z" fill="#FF5E67"/>
<path d="M18.6147 38.0136C18.6147 38.0136 17.746 32.97 14.2715 29.6077" stroke="#1E1F21" stroke-miterlimit="10" stroke-linecap="round" stroke-linejoin="round"/>
<path d="M134.015 36.7278C134.015 39.5452 146.204 32.5902 141.74 27.9085C138.482 24.4929 130.668 27.0699 125.456 29.6758C125.456 29.6758 121.447 30.1771 121.113 34.8877C120.878 38.204 125.302 39.2371 125.456 39.2309C120.535 40.1432 118.586 44.3182 118.241 46.8815C117.444 52.8355 123.727 53.3713 126.812 51.8342C126.812 51.8342 137.084 56.7248 141.385 50.2971C145.155 44.6596 138.934 43.0501 135.899 43.8072C133.841 44.3203 132.128 45.003 132.983 45.6857C134.119 46.5918 142.73 44.2107 142.73 38.2422C142.73 32.2737 134.013 34.9631 134.013 36.7299L134.015 36.7278Z" fill="#FF5E67" stroke="#1E1F21" stroke-miterlimit="10" stroke-linecap="round" stroke-linejoin="round"/>
<path d="M53.2974 6.51768C45.7226 4.16894 40.1763 16.5428 46.661 18.1744C56.8303 20.989 59.4362 8.42116 53.2974 6.51768Z" fill="#FF5E67" stroke="#1E1F21" stroke-miterlimit="10" stroke-linecap="round" stroke-linejoin="round"/>
<path d="M38.9053 25.9065C35.5473 30.0181 33.4857 35.0792 32.9632 37.4552C31.7549 38.3955 29.6623 40.7402 28.7186 44.0544C27.0132 50.0507 29.6175 52.2265 31.6222 52.9051C34.193 53.7749 39.3601 52.144 40.596 47.3196C42.8377 45.1631 45.1807 43.7294 47.7723 39.2312C52.074 31.7631 55.9624 22.7262 49.0133 20.9889C45.5724 20.5942 41.6074 22.5983 38.9053 25.9065Z" fill="#FF5E67" stroke="#1E1F21" stroke-miterlimit="10" stroke-linecap="round" stroke-linejoin="round"/>
<path d="M57.4562 37.8675C59.4494 34.8494 61.4222 34.3933 62.9662 34.3933C64.8029 36.1304 68.0346 36.6113 69.1651 35.4674C72.1498 33.5247 72.6028 28.2458 69.3319 25.8317C66.6033 23.819 61.6527 22.373 56.5378 25.0808C45.1666 31.0984 41.4787 48.8906 50.9181 52.308C64.651 56.6034 70.7315 44.4425 66.0128 40.6803C65.0271 39.5074 62 39.1205 60.3535 41.065C57.4562 43.5739 55.3883 40.9973 57.4562 37.8675Z" fill="#FF5E67" stroke="#1E1F21" stroke-miterlimit="10" stroke-linecap="round" stroke-linejoin="round"/>
</svg>
