<svg width="430" height="229" viewBox="0 0 430 229" fill="none" xmlns="http://www.w3.org/2000/svg">
<rect width="430" height="229" fill="#1E1F21"/>
<path d="M281.085 143.645C290.634 146.765 293.699 133.827 287.513 132.182C280.3 130.265 275.318 141.761 281.085 143.645Z" fill="#FF5D5D" stroke="#1E1F21" stroke-miterlimit="10" stroke-linecap="round" stroke-linejoin="round"/>
<path d="M297.676 122.351C300.732 118.148 300.954 114.145 301.44 111.708C302.537 110.75 304.875 108.621 305.747 105.22C307.325 99.0692 305.579 96.9529 303.774 96.2453C301.459 95.3351 295.793 96.1676 294.649 101.116C292.614 103.317 290.488 104.778 288.121 109.383C284.191 117.031 282.491 129.1 287.475 129.785C292.194 130.433 295.216 125.795 297.676 122.413V122.351Z" fill="#FF5D5D" stroke="#1E1F21" stroke-miterlimit="10" stroke-linecap="round" stroke-linejoin="round"/>
<path d="M202.285 143.916C208.203 145.866 211.096 136.613 206.466 135.442C201.07 134.079 197.967 142.571 202.285 143.916Z" fill="#FF5D5D" stroke="#1E1F21" stroke-miterlimit="10" stroke-linecap="round" stroke-linejoin="round"/>
<path d="M212.869 130.549C209.385 144.557 219.464 145.026 223.193 142.693C229.08 139.01 229.524 131.151 228.585 131.151C227.034 131.151 220.326 143.928 231.465 144.563C242.609 145.198 244.509 131.277 243.361 131.277C241.8 131.277 233.251 146.005 247.408 144.492C260.786 143.065 258.384 120.765 258.384 120.765C265.445 112.585 262.75 103.654 256.716 103.654C246.517 103.654 238.577 117.069 240.529 117.141C243.785 117.263 245.826 103.106 237.919 103.106C228.467 103.106 215.284 120.838 212.867 130.547L212.869 130.549Z" fill="#FF5D5D" stroke="#1E1F21" stroke-miterlimit="10" stroke-linecap="round" stroke-linejoin="round"/>
<path d="M178.672 99.1612C178.07 97.7518 176.379 95.4134 173.46 93.7478C171.824 92.8128 169.425 91.5155 164.323 92.1842C160.295 92.7127 157.326 94.2042 155.361 95.5156C155.26 94.6587 153.736 92.8682 151.742 92.8682C148.314 92.8682 143.344 96.8995 140.452 102.115C134.133 113.514 134.872 125.933 135.223 130.68C135.974 140.818 141.452 144.611 144.61 144.611C149.458 144.611 152.071 140.002 152.612 136.579C153.053 133.798 153.033 130.722 152.396 128.173C154.557 128.389 157.38 129.264 161.291 128.173C167.08 126.557 171.2 121.632 172.863 119.95C179.618 113.656 181.359 105.458 178.672 99.1612ZM161.291 110.404C158.507 112.601 155.843 113.904 155.343 113.315C154.842 112.727 156.694 110.467 159.479 108.27C162.263 106.074 164.927 104.771 165.428 105.359C165.797 105.794 164.076 108.208 161.291 110.404Z" fill="#FF5D5D" stroke="#1E1F21" stroke-miterlimit="10" stroke-linecap="round" stroke-linejoin="round"/>
<path d="M152.615 129.014C152.615 129.014 151.746 123.97 148.271 120.608Z" fill="#FF5D5D"/>
<path d="M152.615 129.014C152.615 129.014 151.746 123.97 148.271 120.608" stroke="#1E1F21" stroke-miterlimit="10" stroke-linecap="round" stroke-linejoin="round"/>
<path d="M268.015 127.728C268.015 130.545 280.204 123.59 275.74 118.909C272.482 115.493 264.668 118.07 259.456 120.676C259.456 120.676 255.447 121.177 255.113 125.888C254.878 129.204 259.302 130.237 259.456 130.231C254.535 131.143 252.586 135.318 252.241 137.881C251.444 143.835 257.727 144.371 260.812 142.834C260.812 142.834 271.084 147.725 275.385 141.297C279.155 135.66 272.934 134.05 269.899 134.807C267.841 135.32 266.128 136.003 266.983 136.686C268.119 137.592 276.73 135.211 276.73 129.242C276.73 123.274 268.013 125.963 268.013 127.73L268.015 127.728Z" fill="#FF5D5D" stroke="#1E1F21" stroke-miterlimit="10" stroke-linecap="round" stroke-linejoin="round"/>
<path d="M187.297 97.5177C179.723 95.1689 174.176 107.543 180.661 109.174C190.83 111.989 193.436 99.4212 187.297 97.5177Z" fill="#FF5D5D" stroke="#1E1F21" stroke-miterlimit="10" stroke-linecap="round" stroke-linejoin="round"/>
<path d="M172.905 116.907C169.547 121.018 167.486 126.079 166.963 128.455C165.755 129.395 163.662 131.74 162.719 135.054C161.013 141.051 163.617 143.227 165.622 143.905C168.193 144.775 173.36 143.144 174.596 138.32C176.838 136.163 179.181 134.729 181.772 130.231C186.074 122.763 189.962 113.726 183.013 111.989C179.572 111.594 175.607 113.598 172.905 116.907Z" fill="#FF5D5D" stroke="#1E1F21" stroke-miterlimit="10" stroke-linecap="round" stroke-linejoin="round"/>
<path d="M191.456 128.868C193.449 125.849 195.422 125.393 196.966 125.393C198.803 127.13 202.035 127.611 203.165 126.467C206.15 124.525 206.603 119.246 203.332 116.832C200.603 114.819 195.653 113.373 190.538 116.081C179.167 122.098 175.479 139.891 184.918 143.308C198.651 147.603 204.731 135.442 200.013 131.68C199.027 130.507 196 130.121 194.354 132.065C191.456 134.574 189.388 131.997 191.456 128.868Z" fill="#FF5D5D" stroke="#1E1F21" stroke-miterlimit="10" stroke-linecap="round" stroke-linejoin="round"/>
</svg>
