<svg width="121" height="58" viewBox="0 0 121 58" fill="none" xmlns="http://www.w3.org/2000/svg">
<path d="M95.0866 43.7279C100.583 45.5236 102.347 38.0764 98.7863 37.1298C94.6345 36.0262 91.767 42.6433 95.0866 43.7279Z" fill="#1E1F21" stroke="white" stroke-miterlimit="10" stroke-linecap="round" stroke-linejoin="round"/>
<path d="M104.637 31.4709C106.396 29.0511 106.524 26.7469 106.804 25.3441C107.435 24.7927 108.781 23.5674 109.283 21.6096C110.191 18.0693 109.186 16.8511 108.147 16.4438C106.814 15.9199 103.553 16.3991 102.895 19.2475C101.723 20.5146 100.499 21.3553 99.137 24.0061C96.8745 28.4086 95.8963 35.3554 98.7648 35.7496C101.482 36.1229 103.221 33.4531 104.637 31.5061V31.4709Z" fill="#1E1F21" stroke="white" stroke-miterlimit="10" stroke-linecap="round" stroke-linejoin="round"/>
<path d="M49.7318 43.8838C53.1382 45.0062 54.8036 39.6802 52.1383 39.0062C49.0324 38.2212 47.2462 43.1095 49.7318 43.8838Z" fill="#1E1F21" stroke="white" stroke-miterlimit="10" stroke-linecap="round" stroke-linejoin="round"/>
<path d="M55.8212 36.1894C53.8157 44.2525 59.6172 44.5229 61.7637 43.1796C65.1521 41.0599 65.4079 36.536 64.8677 36.536C63.9748 36.536 60.1132 43.8905 66.5254 44.2561C72.94 44.6217 74.0336 36.6086 73.3727 36.6086C72.4739 36.6086 67.5533 45.0861 75.7021 44.2156C83.4028 43.394 82.0199 30.558 82.0199 30.558C86.0848 25.8495 84.5334 20.7086 81.0602 20.7086C75.1894 20.7086 70.6189 28.43 71.7424 28.4717C73.6165 28.5419 74.7914 20.3931 70.2401 20.3931C64.7995 20.3931 57.2112 30.5997 55.82 36.1882L55.8212 36.1894Z" fill="#1E1F21" stroke="white" stroke-miterlimit="10" stroke-linecap="round" stroke-linejoin="round"/>
<path d="M36.1381 18.1221C35.7915 17.3108 34.8185 15.9648 33.1381 15.006C32.1962 14.4679 30.8153 13.7211 27.8787 14.106C25.56 14.4103 23.8509 15.2688 22.7203 16.0236C22.6617 15.5304 21.7845 14.4997 20.6371 14.4997C18.6638 14.4997 15.803 16.8202 14.1381 19.8222C10.5011 26.3839 10.9261 33.5325 11.1281 36.2648C11.5608 42.1005 14.7137 44.2835 16.5316 44.2835C19.3223 44.2835 20.8261 41.6309 21.138 39.6603C21.3914 38.0597 21.3801 36.2887 21.0132 34.8218C22.2574 34.9462 23.882 35.4498 26.1337 34.8218C29.4659 33.8918 31.8372 31.0565 32.7946 30.0885C36.6825 26.4654 37.6846 21.7463 36.1381 18.1221ZM26.1337 24.5939C24.531 25.858 22.9976 26.6083 22.7095 26.2695C22.4215 25.9306 23.4876 24.6296 25.0903 23.3654C26.6931 22.1013 28.2265 21.3511 28.5146 21.6899C28.7274 21.9402 27.7365 23.3297 26.1337 24.5939Z" fill="#1E1F21" stroke="white" stroke-miterlimit="10" stroke-linecap="round" stroke-linejoin="round"/>
<path d="M21.1367 35.3056C21.1367 35.3056 20.6367 32.4025 18.6367 30.467Z" fill="#1E1F21"/>
<path d="M21.1367 35.3056C21.1367 35.3056 20.6367 32.4025 18.6367 30.467" stroke="white" stroke-miterlimit="10" stroke-linecap="round" stroke-linejoin="round"/>
<path d="M87.5651 34.5653C87.5651 36.1871 94.5809 32.1837 92.0112 29.4888C90.136 27.5227 85.6382 29.0061 82.6382 30.5061C82.6382 30.5061 80.3306 30.7946 80.1382 33.5061C80.0031 35.415 82.5497 36.0097 82.6382 36.0061C79.8056 36.5313 78.6836 38.9345 78.4852 40.4099C78.0262 43.8371 81.6429 44.1456 83.419 43.2608C83.419 43.2608 89.3316 46.0759 91.8069 42.376C93.9774 39.131 90.3965 38.2045 88.6492 38.6403C87.4647 38.9357 86.4787 39.3286 86.9711 39.7216C87.6249 40.2432 92.5814 38.8726 92.5814 35.437C92.5814 32.0015 87.5639 33.5495 87.5639 34.5665L87.5651 34.5653Z" fill="#1E1F21" stroke="white" stroke-miterlimit="10" stroke-linecap="round" stroke-linejoin="round"/>
<path d="M41.1031 17.1762C36.743 15.8242 33.5504 22.9468 37.2831 23.886C43.1367 25.5061 44.6367 18.2719 41.1031 17.1762Z" fill="#1E1F21" stroke="white" stroke-miterlimit="10" stroke-linecap="round" stroke-linejoin="round"/>
<path d="M32.8184 28.3368C30.8855 30.7035 29.6988 33.6167 29.3981 34.9843C28.7025 35.5256 27.498 36.8752 26.9548 38.783C25.9731 42.2345 27.4722 43.4869 28.6261 43.8775C30.106 44.3782 33.0802 43.4394 33.7916 40.6624C35.082 39.4211 36.4307 38.5959 37.9224 36.0067C40.3985 31.7079 42.6367 26.5061 38.6367 25.5061C36.6561 25.2789 34.3738 26.4325 32.8184 28.3368Z" fill="#1E1F21" stroke="white" stroke-miterlimit="10" stroke-linecap="round" stroke-linejoin="round"/>
<path d="M43.4953 35.2215C44.6426 33.4842 45.7782 33.2216 46.6669 33.2216C47.7242 34.2215 49.5843 34.4984 50.2351 33.8399C51.9531 32.7217 52.2139 29.6831 50.3311 28.2935C48.7605 27.1349 45.9108 26.3026 42.9666 27.8612C36.4212 31.3251 34.2984 41.5665 39.7318 43.5336C47.6367 46.0061 51.1367 39.0061 48.4206 36.8405C47.8532 36.1654 46.1107 35.9427 45.163 37.062C43.4953 38.5061 42.3049 37.023 43.4953 35.2215Z" fill="#1E1F21" stroke="white" stroke-miterlimit="10" stroke-linecap="round" stroke-linejoin="round"/>
</svg>
